<?xml version="1.0" encoding="utf-8" standalone="no"?>
<!DOCTYPE svg PUBLIC "-//W3C//DTD SVG 1.1//EN"
  "http://www.w3.org/Graphics/SVG/1.1/DTD/svg11.dtd">
<svg xmlns:xlink="http://www.w3.org/1999/xlink" width="731.22875pt" height="395.022187pt" viewBox="0 0 731.22875 395.022187" xmlns="http://www.w3.org/2000/svg" version="1.1">
 <metadata>
  <rdf:RDF xmlns:dc="http://purl.org/dc/elements/1.1/" xmlns:cc="http://creativecommons.org/ns#" xmlns:rdf="http://www.w3.org/1999/02/22-rdf-syntax-ns#">
   <cc:Work>
    <dc:type rdf:resource="http://purl.org/dc/dcmitype/StillImage"/>
    <dc:date>2025-04-24T11:32:00.966756</dc:date>
    <dc:format>image/svg+xml</dc:format>
    <dc:creator>
     <cc:Agent>
      <dc:title>Matplotlib v3.8.4, https://matplotlib.org/</dc:title>
     </cc:Agent>
    </dc:creator>
   </cc:Work>
  </rdf:RDF>
 </metadata>
 <defs>
  <style type="text/css">*{stroke-linejoin: round; stroke-linecap: butt}</style>
 </defs>
 <g id="figure_1">
  <g id="patch_1">
   <path d="M 0 395.022187 
L 731.22875 395.022187 
L 731.22875 0 
L 0 0 
z
" style="fill: #ffffff"/>
  </g>
  <g id="axes_1">
   <g id="patch_2">
    <path d="M 54.42875 356.031562 
L 724.02875 356.031562 
L 724.02875 23.391562 
L 54.42875 23.391562 
z
" style="fill: #ffffff"/>
   </g>
   <g id="matplotlib.axis_1">
    <g id="xtick_1">
     <g id="line2d_1">
      <path d="M 150.519026 356.031562 
L 150.519026 23.391562 
" clip-path="url(#p3c168abc0a)" style="fill: none; stroke-dasharray: 1.85,0.8; stroke-dashoffset: 0; stroke: #808080; stroke-width: 0.5"/>
     </g>
     <g id="text_1">
      <!-- 1960 -->
      <g style="fill: #262626" transform="translate(141.621526 371.257812) scale(0.08 -0.08)">
       <defs>
        <path id="ArialMT-31" d="M 2384 0 
L 1822 0 
L 1822 3584 
Q 1619 3391 1289 3197 
Q 959 3003 697 2906 
L 697 3450 
Q 1169 3672 1522 3987 
Q 1875 4303 2022 4600 
L 2384 4600 
L 2384 0 
z
" transform="scale(0.015625)"/>
        <path id="ArialMT-39" d="M 350 1059 
L 891 1109 
Q 959 728 1153 556 
Q 1347 384 1650 384 
Q 1909 384 2104 503 
Q 2300 622 2425 820 
Q 2550 1019 2634 1356 
Q 2719 1694 2719 2044 
Q 2719 2081 2716 2156 
Q 2547 1888 2255 1720 
Q 1963 1553 1622 1553 
Q 1053 1553 659 1965 
Q 266 2378 266 3053 
Q 266 3750 677 4175 
Q 1088 4600 1706 4600 
Q 2153 4600 2523 4359 
Q 2894 4119 3086 3673 
Q 3278 3228 3278 2384 
Q 3278 1506 3087 986 
Q 2897 466 2520 194 
Q 2144 -78 1638 -78 
Q 1100 -78 759 220 
Q 419 519 350 1059 
z
M 2653 3081 
Q 2653 3566 2395 3850 
Q 2138 4134 1775 4134 
Q 1400 4134 1122 3828 
Q 844 3522 844 3034 
Q 844 2597 1108 2323 
Q 1372 2050 1759 2050 
Q 2150 2050 2401 2323 
Q 2653 2597 2653 3081 
z
" transform="scale(0.015625)"/>
        <path id="ArialMT-36" d="M 3184 3459 
L 2625 3416 
Q 2550 3747 2413 3897 
Q 2184 4138 1850 4138 
Q 1581 4138 1378 3988 
Q 1113 3794 959 3422 
Q 806 3050 800 2363 
Q 1003 2672 1297 2822 
Q 1591 2972 1913 2972 
Q 2475 2972 2870 2558 
Q 3266 2144 3266 1488 
Q 3266 1056 3080 686 
Q 2894 316 2569 119 
Q 2244 -78 1831 -78 
Q 1128 -78 684 439 
Q 241 956 241 2144 
Q 241 3472 731 4075 
Q 1159 4600 1884 4600 
Q 2425 4600 2770 4297 
Q 3116 3994 3184 3459 
z
M 888 1484 
Q 888 1194 1011 928 
Q 1134 663 1356 523 
Q 1578 384 1822 384 
Q 2178 384 2434 671 
Q 2691 959 2691 1453 
Q 2691 1928 2437 2201 
Q 2184 2475 1800 2475 
Q 1419 2475 1153 2201 
Q 888 1928 888 1484 
z
" transform="scale(0.015625)"/>
        <path id="ArialMT-30" d="M 266 2259 
Q 266 3072 433 3567 
Q 600 4063 929 4331 
Q 1259 4600 1759 4600 
Q 2128 4600 2406 4451 
Q 2684 4303 2865 4023 
Q 3047 3744 3150 3342 
Q 3253 2941 3253 2259 
Q 3253 1453 3087 958 
Q 2922 463 2592 192 
Q 2263 -78 1759 -78 
Q 1097 -78 719 397 
Q 266 969 266 2259 
z
M 844 2259 
Q 844 1131 1108 757 
Q 1372 384 1759 384 
Q 2147 384 2411 759 
Q 2675 1134 2675 2259 
Q 2675 3391 2411 3762 
Q 2147 4134 1753 4134 
Q 1366 4134 1134 3806 
Q 844 3388 844 2259 
z
" transform="scale(0.015625)"/>
       </defs>
       <use xlink:href="#ArialMT-31"/>
       <use xlink:href="#ArialMT-39" x="55.615234"/>
       <use xlink:href="#ArialMT-36" x="111.230469"/>
       <use xlink:href="#ArialMT-30" x="166.845703"/>
      </g>
     </g>
    </g>
    <g id="xtick_2">
     <g id="line2d_2">
      <path d="M 261.553167 356.031562 
L 261.553167 23.391562 
" clip-path="url(#p3c168abc0a)" style="fill: none; stroke-dasharray: 1.85,0.8; stroke-dashoffset: 0; stroke: #808080; stroke-width: 0.5"/>
     </g>
     <g id="text_2">
      <!-- 1970 -->
      <g style="fill: #262626" transform="translate(252.655667 371.257812) scale(0.08 -0.08)">
       <defs>
        <path id="ArialMT-37" d="M 303 3981 
L 303 4522 
L 3269 4522 
L 3269 4084 
Q 2831 3619 2401 2847 
Q 1972 2075 1738 1259 
Q 1569 684 1522 0 
L 944 0 
Q 953 541 1156 1306 
Q 1359 2072 1739 2783 
Q 2119 3494 2547 3981 
L 303 3981 
z
" transform="scale(0.015625)"/>
       </defs>
       <use xlink:href="#ArialMT-31"/>
       <use xlink:href="#ArialMT-39" x="55.615234"/>
       <use xlink:href="#ArialMT-37" x="111.230469"/>
       <use xlink:href="#ArialMT-30" x="166.845703"/>
      </g>
     </g>
    </g>
    <g id="xtick_3">
     <g id="line2d_3">
      <path d="M 372.556912 356.031562 
L 372.556912 23.391562 
" clip-path="url(#p3c168abc0a)" style="fill: none; stroke-dasharray: 1.85,0.8; stroke-dashoffset: 0; stroke: #808080; stroke-width: 0.5"/>
     </g>
     <g id="text_3">
      <!-- 1980 -->
      <g style="fill: #262626" transform="translate(363.659412 371.257812) scale(0.08 -0.08)">
       <defs>
        <path id="ArialMT-38" d="M 1131 2484 
Q 781 2613 612 2850 
Q 444 3088 444 3419 
Q 444 3919 803 4259 
Q 1163 4600 1759 4600 
Q 2359 4600 2725 4251 
Q 3091 3903 3091 3403 
Q 3091 3084 2923 2848 
Q 2756 2613 2416 2484 
Q 2838 2347 3058 2040 
Q 3278 1734 3278 1309 
Q 3278 722 2862 322 
Q 2447 -78 1769 -78 
Q 1091 -78 675 323 
Q 259 725 259 1325 
Q 259 1772 486 2073 
Q 713 2375 1131 2484 
z
M 1019 3438 
Q 1019 3113 1228 2906 
Q 1438 2700 1772 2700 
Q 2097 2700 2305 2904 
Q 2513 3109 2513 3406 
Q 2513 3716 2298 3927 
Q 2084 4138 1766 4138 
Q 1444 4138 1231 3931 
Q 1019 3725 1019 3438 
z
M 838 1322 
Q 838 1081 952 856 
Q 1066 631 1291 507 
Q 1516 384 1775 384 
Q 2178 384 2440 643 
Q 2703 903 2703 1303 
Q 2703 1709 2433 1975 
Q 2163 2241 1756 2241 
Q 1359 2241 1098 1978 
Q 838 1716 838 1322 
z
" transform="scale(0.015625)"/>
       </defs>
       <use xlink:href="#ArialMT-31"/>
       <use xlink:href="#ArialMT-39" x="55.615234"/>
       <use xlink:href="#ArialMT-38" x="111.230469"/>
       <use xlink:href="#ArialMT-30" x="166.845703"/>
      </g>
     </g>
    </g>
    <g id="xtick_4">
     <g id="line2d_4">
      <path d="M 483.591052 356.031562 
L 483.591052 23.391562 
" clip-path="url(#p3c168abc0a)" style="fill: none; stroke-dasharray: 1.85,0.8; stroke-dashoffset: 0; stroke: #808080; stroke-width: 0.5"/>
     </g>
     <g id="text_4">
      <!-- 1990 -->
      <g style="fill: #262626" transform="translate(474.693552 371.257812) scale(0.08 -0.08)">
       <use xlink:href="#ArialMT-31"/>
       <use xlink:href="#ArialMT-39" x="55.615234"/>
       <use xlink:href="#ArialMT-39" x="111.230469"/>
       <use xlink:href="#ArialMT-30" x="166.845703"/>
      </g>
     </g>
    </g>
    <g id="xtick_5">
     <g id="line2d_5">
      <path d="M 594.594797 356.031562 
L 594.594797 23.391562 
" clip-path="url(#p3c168abc0a)" style="fill: none; stroke-dasharray: 1.85,0.8; stroke-dashoffset: 0; stroke: #808080; stroke-width: 0.5"/>
     </g>
     <g id="text_5">
      <!-- 2000 -->
      <g style="fill: #262626" transform="translate(585.697297 371.257812) scale(0.08 -0.08)">
       <defs>
        <path id="ArialMT-32" d="M 3222 541 
L 3222 0 
L 194 0 
Q 188 203 259 391 
Q 375 700 629 1000 
Q 884 1300 1366 1694 
Q 2113 2306 2375 2664 
Q 2638 3022 2638 3341 
Q 2638 3675 2398 3904 
Q 2159 4134 1775 4134 
Q 1369 4134 1125 3890 
Q 881 3647 878 3216 
L 300 3275 
Q 359 3922 746 4261 
Q 1134 4600 1788 4600 
Q 2447 4600 2831 4234 
Q 3216 3869 3216 3328 
Q 3216 3053 3103 2787 
Q 2991 2522 2730 2228 
Q 2469 1934 1863 1422 
Q 1356 997 1212 845 
Q 1069 694 975 541 
L 3222 541 
z
" transform="scale(0.015625)"/>
       </defs>
       <use xlink:href="#ArialMT-32"/>
       <use xlink:href="#ArialMT-30" x="55.615234"/>
       <use xlink:href="#ArialMT-30" x="111.230469"/>
       <use xlink:href="#ArialMT-30" x="166.845703"/>
      </g>
     </g>
    </g>
    <g id="xtick_6">
     <g id="line2d_6">
      <path d="M 705.628937 356.031562 
L 705.628937 23.391562 
" clip-path="url(#p3c168abc0a)" style="fill: none; stroke-dasharray: 1.85,0.8; stroke-dashoffset: 0; stroke: #808080; stroke-width: 0.5"/>
     </g>
     <g id="text_6">
      <!-- 2010 -->
      <g style="fill: #262626" transform="translate(696.731437 371.257812) scale(0.08 -0.08)">
       <use xlink:href="#ArialMT-32"/>
       <use xlink:href="#ArialMT-30" x="55.615234"/>
       <use xlink:href="#ArialMT-31" x="111.230469"/>
       <use xlink:href="#ArialMT-30" x="166.845703"/>
      </g>
     </g>
    </g>
    <g id="text_7">
     <!-- Fecha -->
     <g style="fill: #262626" transform="translate(372.554375 385.437187) scale(0.12 -0.12)">
      <defs>
       <path id="ArialMT-46" d="M 525 0 
L 525 4581 
L 3616 4581 
L 3616 4041 
L 1131 4041 
L 1131 2622 
L 3281 2622 
L 3281 2081 
L 1131 2081 
L 1131 0 
L 525 0 
z
" transform="scale(0.015625)"/>
       <path id="ArialMT-65" d="M 2694 1069 
L 3275 997 
Q 3138 488 2766 206 
Q 2394 -75 1816 -75 
Q 1088 -75 661 373 
Q 234 822 234 1631 
Q 234 2469 665 2931 
Q 1097 3394 1784 3394 
Q 2450 3394 2872 2941 
Q 3294 2488 3294 1666 
Q 3294 1616 3291 1516 
L 816 1516 
Q 847 969 1125 678 
Q 1403 388 1819 388 
Q 2128 388 2347 550 
Q 2566 713 2694 1069 
z
M 847 1978 
L 2700 1978 
Q 2663 2397 2488 2606 
Q 2219 2931 1791 2931 
Q 1403 2931 1139 2672 
Q 875 2413 847 1978 
z
" transform="scale(0.015625)"/>
       <path id="ArialMT-63" d="M 2588 1216 
L 3141 1144 
Q 3050 572 2676 248 
Q 2303 -75 1759 -75 
Q 1078 -75 664 370 
Q 250 816 250 1647 
Q 250 2184 428 2587 
Q 606 2991 970 3192 
Q 1334 3394 1763 3394 
Q 2303 3394 2647 3120 
Q 2991 2847 3088 2344 
L 2541 2259 
Q 2463 2594 2264 2762 
Q 2066 2931 1784 2931 
Q 1359 2931 1093 2626 
Q 828 2322 828 1663 
Q 828 994 1084 691 
Q 1341 388 1753 388 
Q 2084 388 2306 591 
Q 2528 794 2588 1216 
z
" transform="scale(0.015625)"/>
       <path id="ArialMT-68" d="M 422 0 
L 422 4581 
L 984 4581 
L 984 2938 
Q 1378 3394 1978 3394 
Q 2347 3394 2619 3248 
Q 2891 3103 3008 2847 
Q 3125 2591 3125 2103 
L 3125 0 
L 2563 0 
L 2563 2103 
Q 2563 2525 2380 2717 
Q 2197 2909 1863 2909 
Q 1613 2909 1392 2779 
Q 1172 2650 1078 2428 
Q 984 2206 984 1816 
L 984 0 
L 422 0 
z
" transform="scale(0.015625)"/>
       <path id="ArialMT-61" d="M 2588 409 
Q 2275 144 1986 34 
Q 1697 -75 1366 -75 
Q 819 -75 525 192 
Q 231 459 231 875 
Q 231 1119 342 1320 
Q 453 1522 633 1644 
Q 813 1766 1038 1828 
Q 1203 1872 1538 1913 
Q 2219 1994 2541 2106 
Q 2544 2222 2544 2253 
Q 2544 2597 2384 2738 
Q 2169 2928 1744 2928 
Q 1347 2928 1158 2789 
Q 969 2650 878 2297 
L 328 2372 
Q 403 2725 575 2942 
Q 747 3159 1072 3276 
Q 1397 3394 1825 3394 
Q 2250 3394 2515 3294 
Q 2781 3194 2906 3042 
Q 3031 2891 3081 2659 
Q 3109 2516 3109 2141 
L 3109 1391 
Q 3109 606 3145 398 
Q 3181 191 3288 0 
L 2700 0 
Q 2613 175 2588 409 
z
M 2541 1666 
Q 2234 1541 1622 1453 
Q 1275 1403 1131 1340 
Q 988 1278 909 1158 
Q 831 1038 831 891 
Q 831 666 1001 516 
Q 1172 366 1500 366 
Q 1825 366 2078 508 
Q 2331 650 2450 897 
Q 2541 1088 2541 1459 
L 2541 1666 
z
" transform="scale(0.015625)"/>
      </defs>
      <use xlink:href="#ArialMT-46"/>
      <use xlink:href="#ArialMT-65" x="61.083984"/>
      <use xlink:href="#ArialMT-63" x="116.699219"/>
      <use xlink:href="#ArialMT-68" x="166.699219"/>
      <use xlink:href="#ArialMT-61" x="222.314453"/>
     </g>
    </g>
   </g>
   <g id="matplotlib.axis_2">
    <g id="ytick_1">
     <g id="line2d_7">
      <path d="M 54.42875 320.786586 
L 724.02875 320.786586 
" clip-path="url(#p3c168abc0a)" style="fill: none; stroke-dasharray: 1.85,0.8; stroke-dashoffset: 0; stroke: #808080; stroke-width: 0.5"/>
     </g>
     <g id="text_8">
      <!-- −3000 -->
      <g style="fill: #262626" transform="translate(22.46125 323.649711) scale(0.08 -0.08)">
       <defs>
        <path id="ArialMT-2212" d="M 3381 1997 
L 356 1997 
L 356 2522 
L 3381 2522 
L 3381 1997 
z
" transform="scale(0.015625)"/>
        <path id="ArialMT-33" d="M 269 1209 
L 831 1284 
Q 928 806 1161 595 
Q 1394 384 1728 384 
Q 2125 384 2398 659 
Q 2672 934 2672 1341 
Q 2672 1728 2419 1979 
Q 2166 2231 1775 2231 
Q 1616 2231 1378 2169 
L 1441 2663 
Q 1497 2656 1531 2656 
Q 1891 2656 2178 2843 
Q 2466 3031 2466 3422 
Q 2466 3731 2256 3934 
Q 2047 4138 1716 4138 
Q 1388 4138 1169 3931 
Q 950 3725 888 3313 
L 325 3413 
Q 428 3978 793 4289 
Q 1159 4600 1703 4600 
Q 2078 4600 2393 4439 
Q 2709 4278 2876 4000 
Q 3044 3722 3044 3409 
Q 3044 3113 2884 2869 
Q 2725 2625 2413 2481 
Q 2819 2388 3044 2092 
Q 3269 1797 3269 1353 
Q 3269 753 2831 336 
Q 2394 -81 1725 -81 
Q 1122 -81 723 278 
Q 325 638 269 1209 
z
" transform="scale(0.015625)"/>
       </defs>
       <use xlink:href="#ArialMT-2212"/>
       <use xlink:href="#ArialMT-33" x="58.398438"/>
       <use xlink:href="#ArialMT-30" x="114.013672"/>
       <use xlink:href="#ArialMT-30" x="169.628906"/>
       <use xlink:href="#ArialMT-30" x="225.244141"/>
      </g>
     </g>
    </g>
    <g id="ytick_2">
     <g id="line2d_8">
      <path d="M 54.42875 280.374986 
L 724.02875 280.374986 
" clip-path="url(#p3c168abc0a)" style="fill: none; stroke-dasharray: 1.85,0.8; stroke-dashoffset: 0; stroke: #808080; stroke-width: 0.5"/>
     </g>
     <g id="text_9">
      <!-- −2000 -->
      <g style="fill: #262626" transform="translate(22.46125 283.238111) scale(0.08 -0.08)">
       <use xlink:href="#ArialMT-2212"/>
       <use xlink:href="#ArialMT-32" x="58.398438"/>
       <use xlink:href="#ArialMT-30" x="114.013672"/>
       <use xlink:href="#ArialMT-30" x="169.628906"/>
       <use xlink:href="#ArialMT-30" x="225.244141"/>
      </g>
     </g>
    </g>
    <g id="ytick_3">
     <g id="line2d_9">
      <path d="M 54.42875 239.963387 
L 724.02875 239.963387 
" clip-path="url(#p3c168abc0a)" style="fill: none; stroke-dasharray: 1.85,0.8; stroke-dashoffset: 0; stroke: #808080; stroke-width: 0.5"/>
     </g>
     <g id="text_10">
      <!-- −1000 -->
      <g style="fill: #262626" transform="translate(22.46125 242.826512) scale(0.08 -0.08)">
       <use xlink:href="#ArialMT-2212"/>
       <use xlink:href="#ArialMT-31" x="58.398438"/>
       <use xlink:href="#ArialMT-30" x="114.013672"/>
       <use xlink:href="#ArialMT-30" x="169.628906"/>
       <use xlink:href="#ArialMT-30" x="225.244141"/>
      </g>
     </g>
    </g>
    <g id="ytick_4">
     <g id="line2d_10">
      <path d="M 54.42875 199.551787 
L 724.02875 199.551787 
" clip-path="url(#p3c168abc0a)" style="fill: none; stroke-dasharray: 1.85,0.8; stroke-dashoffset: 0; stroke: #808080; stroke-width: 0.5"/>
     </g>
     <g id="text_11">
      <!-- 0 -->
      <g style="fill: #262626" transform="translate(40.48 202.414912) scale(0.08 -0.08)">
       <use xlink:href="#ArialMT-30"/>
      </g>
     </g>
    </g>
    <g id="ytick_5">
     <g id="line2d_11">
      <path d="M 54.42875 159.140187 
L 724.02875 159.140187 
" clip-path="url(#p3c168abc0a)" style="fill: none; stroke-dasharray: 1.85,0.8; stroke-dashoffset: 0; stroke: #808080; stroke-width: 0.5"/>
     </g>
     <g id="text_12">
      <!-- 1000 -->
      <g style="fill: #262626" transform="translate(27.13375 162.003312) scale(0.08 -0.08)">
       <use xlink:href="#ArialMT-31"/>
       <use xlink:href="#ArialMT-30" x="55.615234"/>
       <use xlink:href="#ArialMT-30" x="111.230469"/>
       <use xlink:href="#ArialMT-30" x="166.845703"/>
      </g>
     </g>
    </g>
    <g id="ytick_6">
     <g id="line2d_12">
      <path d="M 54.42875 118.728588 
L 724.02875 118.728588 
" clip-path="url(#p3c168abc0a)" style="fill: none; stroke-dasharray: 1.85,0.8; stroke-dashoffset: 0; stroke: #808080; stroke-width: 0.5"/>
     </g>
     <g id="text_13">
      <!-- 2000 -->
      <g style="fill: #262626" transform="translate(27.13375 121.591713) scale(0.08 -0.08)">
       <use xlink:href="#ArialMT-32"/>
       <use xlink:href="#ArialMT-30" x="55.615234"/>
       <use xlink:href="#ArialMT-30" x="111.230469"/>
       <use xlink:href="#ArialMT-30" x="166.845703"/>
      </g>
     </g>
    </g>
    <g id="ytick_7">
     <g id="line2d_13">
      <path d="M 54.42875 78.316988 
L 724.02875 78.316988 
" clip-path="url(#p3c168abc0a)" style="fill: none; stroke-dasharray: 1.85,0.8; stroke-dashoffset: 0; stroke: #808080; stroke-width: 0.5"/>
     </g>
     <g id="text_14">
      <!-- 3000 -->
      <g style="fill: #262626" transform="translate(27.13375 81.180113) scale(0.08 -0.08)">
       <use xlink:href="#ArialMT-33"/>
       <use xlink:href="#ArialMT-30" x="55.615234"/>
       <use xlink:href="#ArialMT-30" x="111.230469"/>
       <use xlink:href="#ArialMT-30" x="166.845703"/>
      </g>
     </g>
    </g>
    <g id="ytick_8">
     <g id="line2d_14">
      <path d="M 54.42875 37.905389 
L 724.02875 37.905389 
" clip-path="url(#p3c168abc0a)" style="fill: none; stroke-dasharray: 1.85,0.8; stroke-dashoffset: 0; stroke: #808080; stroke-width: 0.5"/>
     </g>
     <g id="text_15">
      <!-- 4000 -->
      <g style="fill: #262626" transform="translate(27.13375 40.768514) scale(0.08 -0.08)">
       <defs>
        <path id="ArialMT-34" d="M 2069 0 
L 2069 1097 
L 81 1097 
L 81 1613 
L 2172 4581 
L 2631 4581 
L 2631 1613 
L 3250 1613 
L 3250 1097 
L 2631 1097 
L 2631 0 
L 2069 0 
z
M 2069 1613 
L 2069 3678 
L 634 1613 
L 2069 1613 
z
" transform="scale(0.015625)"/>
       </defs>
       <use xlink:href="#ArialMT-34"/>
       <use xlink:href="#ArialMT-30" x="55.615234"/>
       <use xlink:href="#ArialMT-30" x="111.230469"/>
       <use xlink:href="#ArialMT-30" x="166.845703"/>
      </g>
     </g>
    </g>
    <g id="text_16">
     <!-- Precipitación (mm) -->
     <g style="fill: #262626" transform="translate(15.935625 239.71875) rotate(-90) scale(0.12 -0.12)">
      <defs>
       <path id="ArialMT-50" d="M 494 0 
L 494 4581 
L 2222 4581 
Q 2678 4581 2919 4538 
Q 3256 4481 3484 4323 
Q 3713 4166 3852 3881 
Q 3991 3597 3991 3256 
Q 3991 2672 3619 2267 
Q 3247 1863 2275 1863 
L 1100 1863 
L 1100 0 
L 494 0 
z
M 1100 2403 
L 2284 2403 
Q 2872 2403 3119 2622 
Q 3366 2841 3366 3238 
Q 3366 3525 3220 3729 
Q 3075 3934 2838 4000 
Q 2684 4041 2272 4041 
L 1100 4041 
L 1100 2403 
z
" transform="scale(0.015625)"/>
       <path id="ArialMT-72" d="M 416 0 
L 416 3319 
L 922 3319 
L 922 2816 
Q 1116 3169 1280 3281 
Q 1444 3394 1641 3394 
Q 1925 3394 2219 3213 
L 2025 2691 
Q 1819 2813 1613 2813 
Q 1428 2813 1281 2702 
Q 1134 2591 1072 2394 
Q 978 2094 978 1738 
L 978 0 
L 416 0 
z
" transform="scale(0.015625)"/>
       <path id="ArialMT-69" d="M 425 3934 
L 425 4581 
L 988 4581 
L 988 3934 
L 425 3934 
z
M 425 0 
L 425 3319 
L 988 3319 
L 988 0 
L 425 0 
z
" transform="scale(0.015625)"/>
       <path id="ArialMT-70" d="M 422 -1272 
L 422 3319 
L 934 3319 
L 934 2888 
Q 1116 3141 1344 3267 
Q 1572 3394 1897 3394 
Q 2322 3394 2647 3175 
Q 2972 2956 3137 2557 
Q 3303 2159 3303 1684 
Q 3303 1175 3120 767 
Q 2938 359 2589 142 
Q 2241 -75 1856 -75 
Q 1575 -75 1351 44 
Q 1128 163 984 344 
L 984 -1272 
L 422 -1272 
z
M 931 1641 
Q 931 1000 1190 694 
Q 1450 388 1819 388 
Q 2194 388 2461 705 
Q 2728 1022 2728 1688 
Q 2728 2322 2467 2637 
Q 2206 2953 1844 2953 
Q 1484 2953 1207 2617 
Q 931 2281 931 1641 
z
" transform="scale(0.015625)"/>
       <path id="ArialMT-74" d="M 1650 503 
L 1731 6 
Q 1494 -44 1306 -44 
Q 1000 -44 831 53 
Q 663 150 594 308 
Q 525 466 525 972 
L 525 2881 
L 113 2881 
L 113 3319 
L 525 3319 
L 525 4141 
L 1084 4478 
L 1084 3319 
L 1650 3319 
L 1650 2881 
L 1084 2881 
L 1084 941 
Q 1084 700 1114 631 
Q 1144 563 1211 522 
Q 1278 481 1403 481 
Q 1497 481 1650 503 
z
" transform="scale(0.015625)"/>
       <path id="ArialMT-f3" d="M 213 1659 
Q 213 2581 725 3025 
Q 1153 3394 1769 3394 
Q 2453 3394 2887 2945 
Q 3322 2497 3322 1706 
Q 3322 1066 3130 698 
Q 2938 331 2570 128 
Q 2203 -75 1769 -75 
Q 1072 -75 642 372 
Q 213 819 213 1659 
z
M 791 1659 
Q 791 1022 1069 705 
Q 1347 388 1769 388 
Q 2188 388 2466 706 
Q 2744 1025 2744 1678 
Q 2744 2294 2464 2611 
Q 2184 2928 1769 2928 
Q 1347 2928 1069 2612 
Q 791 2297 791 1659 
z
M 1454 3731 
L 1869 4606 
L 2607 4606 
L 1919 3731 
L 1454 3731 
z
" transform="scale(0.015625)"/>
       <path id="ArialMT-6e" d="M 422 0 
L 422 3319 
L 928 3319 
L 928 2847 
Q 1294 3394 1984 3394 
Q 2284 3394 2536 3286 
Q 2788 3178 2913 3003 
Q 3038 2828 3088 2588 
Q 3119 2431 3119 2041 
L 3119 0 
L 2556 0 
L 2556 2019 
Q 2556 2363 2490 2533 
Q 2425 2703 2258 2804 
Q 2091 2906 1866 2906 
Q 1506 2906 1245 2678 
Q 984 2450 984 1813 
L 984 0 
L 422 0 
z
" transform="scale(0.015625)"/>
       <path id="ArialMT-20" transform="scale(0.015625)"/>
       <path id="ArialMT-28" d="M 1497 -1347 
Q 1031 -759 709 28 
Q 388 816 388 1659 
Q 388 2403 628 3084 
Q 909 3875 1497 4659 
L 1900 4659 
Q 1522 4009 1400 3731 
Q 1209 3300 1100 2831 
Q 966 2247 966 1656 
Q 966 153 1900 -1347 
L 1497 -1347 
z
" transform="scale(0.015625)"/>
       <path id="ArialMT-6d" d="M 422 0 
L 422 3319 
L 925 3319 
L 925 2853 
Q 1081 3097 1340 3245 
Q 1600 3394 1931 3394 
Q 2300 3394 2536 3241 
Q 2772 3088 2869 2813 
Q 3263 3394 3894 3394 
Q 4388 3394 4653 3120 
Q 4919 2847 4919 2278 
L 4919 0 
L 4359 0 
L 4359 2091 
Q 4359 2428 4304 2576 
Q 4250 2725 4106 2815 
Q 3963 2906 3769 2906 
Q 3419 2906 3187 2673 
Q 2956 2441 2956 1928 
L 2956 0 
L 2394 0 
L 2394 2156 
Q 2394 2531 2256 2718 
Q 2119 2906 1806 2906 
Q 1569 2906 1367 2781 
Q 1166 2656 1075 2415 
Q 984 2175 984 1722 
L 984 0 
L 422 0 
z
" transform="scale(0.015625)"/>
       <path id="ArialMT-29" d="M 791 -1347 
L 388 -1347 
Q 1322 153 1322 1656 
Q 1322 2244 1188 2822 
Q 1081 3291 891 3722 
Q 769 4003 388 4659 
L 791 4659 
Q 1378 3875 1659 3084 
Q 1900 2403 1900 1659 
Q 1900 816 1576 28 
Q 1253 -759 791 -1347 
z
" transform="scale(0.015625)"/>
      </defs>
      <use xlink:href="#ArialMT-50"/>
      <use xlink:href="#ArialMT-72" x="66.699219"/>
      <use xlink:href="#ArialMT-65" x="100"/>
      <use xlink:href="#ArialMT-63" x="155.615234"/>
      <use xlink:href="#ArialMT-69" x="205.615234"/>
      <use xlink:href="#ArialMT-70" x="227.832031"/>
      <use xlink:href="#ArialMT-69" x="283.447266"/>
      <use xlink:href="#ArialMT-74" x="305.664062"/>
      <use xlink:href="#ArialMT-61" x="333.447266"/>
      <use xlink:href="#ArialMT-63" x="389.0625"/>
      <use xlink:href="#ArialMT-69" x="439.0625"/>
      <use xlink:href="#ArialMT-f3" x="461.279297"/>
      <use xlink:href="#ArialMT-6e" x="516.894531"/>
      <use xlink:href="#ArialMT-20" x="572.509766"/>
      <use xlink:href="#ArialMT-28" x="600.292969"/>
      <use xlink:href="#ArialMT-6d" x="633.59375"/>
      <use xlink:href="#ArialMT-6d" x="716.894531"/>
      <use xlink:href="#ArialMT-29" x="800.195312"/>
     </g>
    </g>
   </g>
   <g id="line2d_15">
    <path d="M 84.865114 201.127839 
L 85.716183 221.697344 
L 86.658438 186.822133 
L 88.512553 86.641778 
L 89.424413 191.226997 
L 90.366668 169.121852 
L 91.308924 162.979289 
L 92.220783 211.109505 
L 93.163039 243.236726 
L 94.074899 213.857493 
L 95.017154 199.147671 
L 95.959409 205.007353 
L 96.810478 201.329897 
L 97.752734 207.997811 
L 98.664593 225.65768 
L 99.606849 257.178728 
L 100.518709 169.243087 
L 101.460964 129.478073 
L 102.403219 137.72204 
L 103.315079 228.324846 
L 105.169194 189.287241 
L 106.111449 178.497344 
L 107.053704 197.329149 
L 107.935169 199.551787 
L 108.877424 162.211469 
L 109.789284 169.728026 
L 110.731539 165.484809 
L 111.643399 255.643087 
L 112.585655 263.28088 
L 113.52791 279.000992 
L 114.43977 212.76638 
L 115.382025 207.189579 
L 116.293885 209.816333 
L 117.23614 221.010346 
L 118.178395 186.862545 
L 119.029464 199.349729 
L 119.97172 210.826623 
L 120.88358 258.714369 
L 121.825835 233.659177 
L 122.737695 203.512124 
L 123.67995 232.770122 
L 124.622205 177.608288 
L 125.534065 187.832423 
L 126.47632 200.925781 
L 127.38818 199.551787 
L 128.330435 161.160767 
L 130.12376 214.463667 
L 131.066015 195.995566 
L 131.977875 219.313059 
L 132.92013 163.221759 
L 133.83199 207.027933 
L 134.774245 163.908756 
L 135.716501 105.311937 
L 136.628361 230.830365 
L 137.570616 169.081441 
L 138.482476 185.892666 
L 139.424731 194.82363 
L 140.366986 236.730459 
L 141.218055 199.551787 
L 142.160311 171.304079 
L 143.07217 180.275454 
L 144.014426 129.033546 
L 144.926286 196.925033 
L 145.868541 181.124098 
L 146.810796 294.842339 
L 147.722656 206.94711 
L 148.664911 259.482189 
L 149.576771 213.210908 
L 150.519026 202.299776 
L 151.461282 200.764135 
L 152.342746 198.824378 
L 153.285001 226.465912 
L 154.196861 216.80754 
L 155.139116 275.202302 
L 156.050976 163.181347 
L 156.993232 228.850197 
L 157.935487 167.828681 
L 158.847347 208.523162 
L 159.789602 192.964696 
L 160.701462 198.703143 
L 161.643717 196.480505 
L 162.585972 199.551787 
L 163.437042 196.60174 
L 164.379297 201.168251 
L 165.291157 199.551787 
L 166.233412 187.185838 
L 167.145272 222.707634 
L 168.087527 239.80174 
L 169.029782 194.985276 
L 169.941642 213.695847 
L 170.883897 184.559084 
L 171.795757 195.995566 
L 172.738012 204.603237 
L 173.680268 199.551787 
L 174.531337 203.229243 
L 175.473592 173.728775 
L 176.385452 169.041029 
L 177.327707 192.156464 
L 178.239567 244.85319 
L 179.181822 179.588457 
L 180.124078 216.969186 
L 181.035938 182.578915 
L 181.978193 200.804547 
L 182.890053 199.63261 
L 184.774563 199.551787 
L 185.625632 195.914743 
L 186.567888 226.627559 
L 187.479748 211.836913 
L 188.422003 187.630365 
L 189.333863 120.54711 
L 191.218373 215.999308 
L 192.130233 180.92204 
L 193.072488 214.746548 
L 193.984348 203.875828 
L 194.926603 198.016146 
L 195.868859 199.551787 
L 196.750323 198.662732 
L 197.692578 188.842713 
L 198.604438 163.585463 
L 199.546694 181.164509 
L 200.458553 255.72391 
L 201.400809 199.430552 
L 202.343064 152.835978 
L 203.254924 253.622507 
L 204.197179 194.783218 
L 205.109039 199.430552 
L 206.051294 194.298279 
L 206.993549 195.106511 
L 207.844619 201.936071 
L 208.786874 199.63261 
L 209.698734 222.505576 
L 210.640989 253.905389 
L 211.552849 191.307821 
L 212.495104 142.207727 
L 213.437359 236.043461 
L 214.349219 161.766941 
L 215.291474 190.863293 
L 216.203334 193.732517 
L 217.14559 205.007353 
L 218.087845 199.996315 
L 221.735284 141.399495 
L 222.647144 136.832984 
L 223.589399 165.727278 
L 224.531655 178.65899 
L 225.443515 241.701085 
L 226.38577 340.911562 
L 227.29763 252.733452 
L 228.239885 223.273396 
L 229.18214 218.141123 
L 230.033209 201.370309 
L 230.975465 179.022694 
L 231.887325 182.376857 
L 232.82958 163.302582 
L 233.74144 267.241216 
L 234.683695 206.987521 
L 235.62595 205.532704 
L 236.53781 156.67508 
L 237.480065 198.743555 
L 238.391925 199.349729 
L 239.33418 219.797998 
L 240.276436 194.702395 
L 241.1579 202.825127 
L 242.100155 194.661983 
L 243.012015 192.398934 
L 243.954271 191.55029 
L 244.86613 172.758896 
L 245.808386 241.943555 
L 246.750641 226.748794 
L 247.662501 206.94711 
L 248.604756 199.107259 
L 249.516616 193.772928 
L 250.458871 193.81334 
L 251.401126 204.401179 
L 252.252196 186.337194 
L 253.194451 221.980225 
L 254.106311 203.91624 
L 255.048566 278.718111 
L 255.960426 172.556838 
L 256.902681 38.511562 
L 257.844936 124.507447 
L 258.756796 220.767877 
L 259.699051 201.734013 
L 260.610911 190.418765 
L 261.553167 206.219701 
L 262.495422 199.430552 
L 263.346491 213.615024 
L 264.288746 203.754593 
L 265.200606 209.129336 
L 266.142861 126.770496 
L 267.054721 182.215211 
L 267.996977 338.729336 
L 268.939232 213.695847 
L 269.851092 205.896408 
L 270.793347 194.944865 
L 271.705207 215.069841 
L 272.647462 199.551787 
L 273.589717 199.673022 
L 274.440786 195.389392 
L 275.383042 194.096221 
L 276.294902 197.450384 
L 277.237157 228.082376 
L 278.149017 239.680505 
L 279.091272 173.001366 
L 280.033527 163.908756 
L 280.945387 171.142432 
L 281.887642 201.89566 
L 282.799502 194.217456 
L 283.741757 197.086679 
L 284.684013 199.551787 
L 285.565477 194.985276 
L 286.507732 193.085931 
L 287.419592 172.071899 
L 288.361848 135.135697 
L 289.273707 137.762451 
L 290.215963 235.396876 
L 291.158218 212.483499 
L 292.070078 217.615772 
L 293.012333 191.833171 
L 293.924193 202.218953 
L 294.866448 202.016895 
L 295.808703 196.763387 
L 296.659773 208.280693 
L 297.602028 200.400431 
L 298.513888 210.786212 
L 299.456143 244.08537 
L 300.368003 186.256371 
L 301.310258 177.446642 
L 302.252513 232.72971 
L 303.164373 183.023443 
L 304.106629 209.129336 
L 305.018488 201.410721 
L 305.960744 198.905201 
L 306.902999 202.340187 
L 307.754068 195.753097 
L 308.696323 199.309317 
L 309.608183 209.775922 
L 310.550438 209.695099 
L 311.462298 242.590141 
L 312.404554 244.610721 
L 313.346809 202.380599 
L 314.258669 240.81203 
L 315.200924 198.824378 
L 316.112784 200.360019 
L 317.055039 198.945613 
L 317.997294 199.551787 
L 318.848364 203.350477 
L 319.790619 210.98827 
L 320.702479 180.154219 
L 321.644734 195.025688 
L 322.556594 164.070403 
L 324.441104 198.460674 
L 325.352964 162.211469 
L 326.295219 196.884621 
L 327.207079 199.551787 
L 328.149334 200.804547 
L 329.09159 197.571619 
L 329.973054 199.349729 
L 330.91531 190.014649 
L 331.827169 211.877325 
L 332.769425 224.081628 
L 333.681285 193.409224 
L 334.62354 190.701647 
L 335.565795 240.205856 
L 336.477655 177.042526 
L 337.41991 189.287241 
L 338.33177 199.107259 
L 339.274025 193.894163 
L 340.21628 198.501085 
L 341.06735 191.429055 
L 342.009605 205.896408 
L 342.921465 157.483312 
L 343.86372 121.193695 
L 344.77558 289.023069 
L 345.717835 185.650197 
L 346.66009 138.853564 
L 347.57195 248.934762 
L 348.514206 208.96769 
L 349.426065 197.814088 
L 350.368321 202.623069 
L 351.310576 200.400431 
L 352.161645 190.378354 
L 353.1039 198.218204 
L 354.01576 257.380786 
L 354.958015 217.211656 
L 355.869875 194.379102 
L 356.812131 224.485744 
L 357.754386 168.79856 
L 358.666246 203.269654 
L 359.608501 201.693602 
L 360.520361 201.734013 
L 361.462616 202.138129 
L 362.404871 194.459925 
L 363.255941 216.928775 
L 364.198196 191.469467 
L 365.110056 179.265164 
L 366.052311 295.448513 
L 366.964171 165.161516 
L 367.906426 186.539252 
L 368.848681 250.066287 
L 369.760541 206.825875 
L 370.702796 199.390141 
L 371.614656 196.642152 
L 372.556912 178.295286 
L 373.499167 206.825875 
L 374.380631 199.673022 
L 375.322887 206.785463 
L 376.234746 201.370309 
L 377.177002 180.962451 
L 378.088862 192.762638 
L 379.031117 161.079944 
L 379.973372 216.888363 
L 380.885232 191.994818 
L 381.827487 183.104266 
L 382.739347 202.259364 
L 383.681602 211.675267 
L 384.623858 189.489299 
L 385.474927 184.397437 
L 386.417182 188.681067 
L 387.329042 200.238784 
L 388.271297 94.885744 
L 389.183157 170.212966 
L 390.125412 224.849448 
L 391.067667 221.010346 
L 391.979527 197.127091 
L 392.921783 218.262358 
L 393.833642 199.147671 
L 394.775898 208.684809 
L 395.718153 200.279196 
L 396.569222 212.362264 
L 397.511477 206.098466 
L 398.423337 176.234294 
L 399.365593 312.219327 
L 400.277452 266.271338 
L 401.219708 209.088925 
L 402.161963 217.130833 
L 403.073823 174.8603 
L 404.016078 199.713433 
L 404.927938 200.157961 
L 405.870193 195.874331 
L 406.812448 192.600992 
L 407.663518 194.985276 
L 408.605773 209.250571 
L 409.517633 250.066287 
L 410.459888 173.971244 
L 411.371748 181.285744 
L 412.314003 209.290983 
L 413.256258 123.658803 
L 414.168118 219.272648 
L 415.110373 193.045519 
L 416.022233 194.015398 
L 416.964489 192.035229 
L 417.906744 211.594444 
L 418.788208 200.602489 
L 419.730464 199.551787 
L 420.642323 167.626623 
L 421.584579 168.960206 
L 422.496439 187.7516 
L 423.438694 167.5458 
L 424.380949 164.919046 
L 425.292809 201.612779 
L 426.235064 206.300524 
L 427.146924 205.088176 
L 428.089179 210.624565 
L 429.031435 201.249074 
L 429.882504 201.047016 
L 430.824759 180.67957 
L 431.736619 202.865538 
L 432.678874 206.381347 
L 433.590734 189.933826 
L 434.532989 234.346174 
L 435.475245 248.934762 
L 436.387104 207.674519 
L 437.32936 192.681815 
L 438.24122 198.945613 
L 439.183475 199.673022 
L 440.12573 196.965445 
L 440.976799 203.91624 
L 441.919054 191.913995 
L 443.77317 203.390889 
L 444.685029 202.340187 
L 445.627285 209.856745 
L 446.56954 238.993508 
L 447.4814 183.589205 
L 449.335515 206.219701 
L 450.27777 200.157961 
L 451.220025 199.551787 
L 452.071095 191.469467 
L 453.01335 186.458429 
L 453.92521 206.179289 
L 454.867465 124.547858 
L 455.779325 218.545239 
L 456.72158 243.398373 
L 457.663835 181.406979 
L 458.575695 238.710627 
L 459.51795 225.738504 
L 460.42981 199.753845 
L 461.372066 199.551787 
L 462.314321 192.883873 
L 463.195785 209.371806 
L 464.138041 212.645145 
L 465.049901 203.795005 
L 465.992156 229.69884 
L 466.904016 215.514369 
L 467.846271 130.488363 
L 468.788526 179.830926 
L 469.700386 197.086679 
L 470.642641 199.87508 
L 471.554501 199.551787 
L 472.496756 199.551787 
L 473.439012 205.69435 
L 475.232336 195.551039 
L 476.144196 179.750103 
L 477.086451 216.605482 
L 477.998311 216.928775 
L 478.940566 167.101273 
L 479.882822 224.081628 
L 480.794681 164.434107 
L 481.736937 199.147671 
L 482.648797 197.894911 
L 483.591052 199.349729 
L 484.533307 194.096221 
L 485.384376 200.400431 
L 486.326631 189.448887 
L 487.238491 188.115304 
L 488.180747 176.759645 
L 489.092607 132.67059 
L 490.034862 295.933452 
L 490.977117 171.304079 
L 491.888977 197.046268 
L 492.831232 198.824378 
L 493.743092 201.208663 
L 494.685347 199.753845 
L 495.627602 205.532704 
L 496.478672 200.683312 
L 497.420927 207.795753 
L 498.332787 209.452629 
L 499.275042 181.124098 
L 500.186902 228.567316 
L 501.129157 189.408476 
L 502.071412 192.681815 
L 502.983272 187.953658 
L 503.925528 192.156464 
L 504.837387 199.551787 
L 505.779643 161.72653 
L 506.721898 192.924285 
L 507.603362 195.874331 
L 508.545618 195.874331 
L 509.457478 180.113808 
L 510.399733 267.119982 
L 511.311593 152.553097 
L 512.253848 146.006418 
L 513.196103 209.210159 
L 514.107963 201.168251 
L 515.050218 184.680318 
L 515.962078 198.420262 
L 516.904333 237.377044 
L 517.846589 205.128588 
L 518.697658 202.097718 
L 519.639913 202.825127 
L 520.551773 252.652629 
L 521.494028 139.378915 
L 522.405888 250.308756 
L 523.348143 251.763574 
L 524.290399 166.616333 
L 525.202258 237.094163 
L 526.144514 215.79725 
L 527.056374 200.683312 
L 527.998629 195.106511 
L 528.940884 200.602489 
L 529.791953 200.683312 
L 530.734209 199.713433 
L 531.646068 157.160019 
L 532.588324 208.644397 
L 533.500184 213.5342 
L 534.442439 153.603798 
L 535.384694 239.599682 
L 536.296554 162.615585 
L 537.238809 204.92653 
L 538.150669 199.551787 
L 539.092924 192.196876 
L 540.03518 198.945613 
L 540.886249 189.570122 
L 541.828504 198.541497 
L 542.740364 151.38116 
L 543.682619 222.222694 
L 545.536734 135.014462 
L 546.478989 196.440094 
L 549.244964 230.224191 
L 550.18722 201.329897 
L 551.129475 199.551787 
L 552.010939 211.351974 
L 552.953195 189.125594 
L 553.865055 186.094724 
L 554.80731 131.296595 
L 555.71917 240.04421 
L 556.661425 164.919046 
L 557.60368 197.329149 
L 558.51554 325.757213 
L 559.457795 262.27059 
L 560.369655 215.352722 
L 561.31191 199.551787 
L 562.254166 199.430552 
L 563.105235 177.729523 
L 564.04749 184.154968 
L 564.95935 181.326156 
L 565.901605 222.950103 
L 566.813465 200.723723 
L 567.75572 233.537942 
L 568.697976 179.548045 
L 569.609836 176.113059 
L 570.552091 195.470215 
L 571.463951 197.329149 
L 572.406206 199.551787 
L 573.348461 199.147671 
L 574.19953 221.374051 
L 575.141786 224.64739 
L 576.053645 237.01334 
L 576.995901 207.310814 
L 577.907761 213.938316 
L 578.850016 182.578915 
L 579.792271 147.178354 
L 580.704131 208.523162 
L 581.646386 192.681815 
L 582.558246 205.290234 
L 583.500501 199.551787 
L 584.442757 199.753845 
L 585.293826 198.703143 
L 586.236081 189.974238 
L 587.147941 166.212217 
L 588.090196 189.853003 
L 589.002056 147.58247 
L 589.944311 196.116801 
L 590.886566 293.427933 
L 591.798426 194.904453 
L 592.740682 209.169748 
L 593.652542 199.551787 
L 594.594797 199.551787 
L 595.537052 198.945613 
L 596.418517 199.996315 
L 597.360772 198.218204 
L 598.272632 185.852255 
L 599.214887 183.548794 
L 600.126747 246.10595 
L 601.069002 245.701834 
L 602.011257 107.534575 
L 602.923117 226.870028 
L 603.865372 199.107259 
L 605.719488 198.218204 
L 606.661743 200.157961 
L 607.512812 194.82363 
L 608.455067 187.99407 
L 609.366927 222.384341 
L 610.309182 194.621572 
L 611.221042 174.456184 
L 612.163297 194.379102 
L 613.105553 228.971432 
L 614.017413 208.684809 
L 614.959668 200.198373 
L 615.871528 199.147671 
L 616.813783 190.418765 
L 617.756038 193.005108 
L 618.607107 198.743555 
L 619.549363 214.78696 
L 620.461223 209.452629 
L 621.403478 196.116801 
L 622.315338 231.598186 
L 623.257593 221.333639 
L 624.199848 230.345426 
L 625.111708 179.224752 
L 626.053963 187.185838 
L 626.965823 200.88537 
L 627.908078 210.018391 
L 628.850334 206.421759 
L 629.701403 204.118298 
L 630.643658 204.92653 
L 631.555518 193.894163 
L 632.497773 137.560393 
L 633.409633 217.494537 
L 634.351888 128.104079 
L 635.294144 206.300524 
L 636.206003 153.522975 
L 637.148259 201.249074 
L 638.060119 199.551787 
L 639.002374 189.287241 
L 639.944629 199.147671 
L 640.826094 196.722975 
L 641.768349 186.337194 
L 642.680209 174.415772 
L 643.622464 265.624752 
L 644.534324 145.885183 
L 645.476579 247.075828 
L 646.418834 154.816146 
L 647.330694 245.823069 
L 648.272949 211.149916 
L 649.184809 199.551787 
L 650.127065 209.816333 
L 651.06932 199.955903 
L 651.920389 194.864041 
L 652.862644 207.71493 
L 653.774504 214.584902 
L 654.716759 244.166193 
L 656.570874 187.307072 
L 657.51313 296.095099 
L 658.42499 211.75609 
L 659.367245 193.368812 
L 660.279105 199.551787 
L 661.22136 199.228494 
L 662.163615 199.551787 
L 663.014684 202.178541 
L 663.95694 183.144678 
L 664.8688 191.711937 
L 665.811055 170.293789 
L 666.722915 176.436352 
L 667.66517 191.873583 
L 668.607425 177.325407 
L 669.519285 185.97349 
L 670.46154 196.884621 
L 671.3734 199.228494 
L 672.315655 197.531207 
L 673.257911 185.650197 
L 674.10898 205.815585 
L 675.051235 208.159458 
L 675.963095 178.861048 
L 680.61358 240.81203 
L 681.555836 276.859177 
L 682.467696 266.635042 
L 683.409951 241.660674 
L 684.352206 228.203611 
L 685.233671 207.068345 
L 686.175926 192.237287 
L 687.087786 191.469467 
L 688.030041 101.634481 
L 688.941901 125.234855 
L 689.884156 172.395192 
L 691.738271 197.814088 
L 692.680526 198.137381 
L 693.592386 199.551787 
L 693.592386 199.551787 
" clip-path="url(#p3c168abc0a)" style="fill: none; stroke: #194a7a; stroke-width: 0.8; stroke-linecap: round"/>
   </g>
   <g id="patch_3">
    <path d="M 54.42875 356.031562 
L 54.42875 23.391562 
" style="fill: none; stroke: #cccccc; stroke-width: 1.25; stroke-linejoin: miter; stroke-linecap: square"/>
   </g>
   <g id="patch_4">
    <path d="M 724.02875 356.031562 
L 724.02875 23.391562 
" style="fill: none; stroke: #cccccc; stroke-width: 1.25; stroke-linejoin: miter; stroke-linecap: square"/>
   </g>
   <g id="patch_5">
    <path d="M 54.42875 356.031562 
L 724.02875 356.031562 
" style="fill: none; stroke: #cccccc; stroke-width: 1.25; stroke-linejoin: miter; stroke-linecap: square"/>
   </g>
   <g id="patch_6">
    <path d="M 54.42875 23.391562 
L 724.02875 23.391562 
" style="fill: none; stroke: #cccccc; stroke-width: 1.25; stroke-linejoin: miter; stroke-linecap: square"/>
   </g>
   <g id="text_17">
    <!-- Precipitación Mensual en Puebla -->
    <g style="fill: #262626" transform="translate(280.316406 17.391562) scale(0.14 -0.14)">
     <defs>
      <path id="Arial-BoldMT-50" d="M 466 0 
L 466 4581 
L 1950 4581 
Q 2794 4581 3050 4513 
Q 3444 4409 3709 4064 
Q 3975 3719 3975 3172 
Q 3975 2750 3822 2462 
Q 3669 2175 3433 2011 
Q 3197 1847 2953 1794 
Q 2622 1728 1994 1728 
L 1391 1728 
L 1391 0 
L 466 0 
z
M 1391 3806 
L 1391 2506 
L 1897 2506 
Q 2444 2506 2628 2578 
Q 2813 2650 2917 2803 
Q 3022 2956 3022 3159 
Q 3022 3409 2875 3571 
Q 2728 3734 2503 3775 
Q 2338 3806 1838 3806 
L 1391 3806 
z
" transform="scale(0.015625)"/>
      <path id="Arial-BoldMT-72" d="M 1300 0 
L 422 0 
L 422 3319 
L 1238 3319 
L 1238 2847 
Q 1447 3181 1614 3287 
Q 1781 3394 1994 3394 
Q 2294 3394 2572 3228 
L 2300 2463 
Q 2078 2606 1888 2606 
Q 1703 2606 1575 2504 
Q 1447 2403 1373 2137 
Q 1300 1872 1300 1025 
L 1300 0 
z
" transform="scale(0.015625)"/>
      <path id="Arial-BoldMT-65" d="M 2381 1056 
L 3256 909 
Q 3088 428 2723 176 
Q 2359 -75 1813 -75 
Q 947 -75 531 491 
Q 203 944 203 1634 
Q 203 2459 634 2926 
Q 1066 3394 1725 3394 
Q 2466 3394 2894 2905 
Q 3322 2416 3303 1406 
L 1103 1406 
Q 1113 1016 1316 798 
Q 1519 581 1822 581 
Q 2028 581 2168 693 
Q 2309 806 2381 1056 
z
M 2431 1944 
Q 2422 2325 2234 2523 
Q 2047 2722 1778 2722 
Q 1491 2722 1303 2513 
Q 1116 2303 1119 1944 
L 2431 1944 
z
" transform="scale(0.015625)"/>
      <path id="Arial-BoldMT-63" d="M 3353 2338 
L 2488 2181 
Q 2444 2441 2289 2572 
Q 2134 2703 1888 2703 
Q 1559 2703 1364 2476 
Q 1169 2250 1169 1719 
Q 1169 1128 1367 884 
Q 1566 641 1900 641 
Q 2150 641 2309 783 
Q 2469 925 2534 1272 
L 3397 1125 
Q 3263 531 2881 228 
Q 2500 -75 1859 -75 
Q 1131 -75 698 384 
Q 266 844 266 1656 
Q 266 2478 700 2936 
Q 1134 3394 1875 3394 
Q 2481 3394 2839 3133 
Q 3197 2872 3353 2338 
z
" transform="scale(0.015625)"/>
      <path id="Arial-BoldMT-69" d="M 459 3769 
L 459 4581 
L 1338 4581 
L 1338 3769 
L 459 3769 
z
M 459 0 
L 459 3319 
L 1338 3319 
L 1338 0 
L 459 0 
z
" transform="scale(0.015625)"/>
      <path id="Arial-BoldMT-70" d="M 434 3319 
L 1253 3319 
L 1253 2831 
Q 1413 3081 1684 3237 
Q 1956 3394 2288 3394 
Q 2866 3394 3269 2941 
Q 3672 2488 3672 1678 
Q 3672 847 3265 386 
Q 2859 -75 2281 -75 
Q 2006 -75 1782 34 
Q 1559 144 1313 409 
L 1313 -1263 
L 434 -1263 
L 434 3319 
z
M 1303 1716 
Q 1303 1156 1525 889 
Q 1747 622 2066 622 
Q 2372 622 2575 867 
Q 2778 1113 2778 1672 
Q 2778 2194 2568 2447 
Q 2359 2700 2050 2700 
Q 1728 2700 1515 2451 
Q 1303 2203 1303 1716 
z
" transform="scale(0.015625)"/>
      <path id="Arial-BoldMT-74" d="M 1981 3319 
L 1981 2619 
L 1381 2619 
L 1381 1281 
Q 1381 875 1398 808 
Q 1416 741 1477 697 
Q 1538 653 1625 653 
Q 1747 653 1978 738 
L 2053 56 
Q 1747 -75 1359 -75 
Q 1122 -75 931 4 
Q 741 84 652 211 
Q 563 338 528 553 
Q 500 706 500 1172 
L 500 2619 
L 97 2619 
L 97 3319 
L 500 3319 
L 500 3978 
L 1381 4491 
L 1381 3319 
L 1981 3319 
z
" transform="scale(0.015625)"/>
      <path id="Arial-BoldMT-61" d="M 1116 2306 
L 319 2450 
Q 453 2931 781 3162 
Q 1109 3394 1756 3394 
Q 2344 3394 2631 3255 
Q 2919 3116 3036 2902 
Q 3153 2688 3153 2116 
L 3144 1091 
Q 3144 653 3186 445 
Q 3228 238 3344 0 
L 2475 0 
Q 2441 88 2391 259 
Q 2369 338 2359 363 
Q 2134 144 1878 34 
Q 1622 -75 1331 -75 
Q 819 -75 523 203 
Q 228 481 228 906 
Q 228 1188 362 1408 
Q 497 1628 739 1745 
Q 981 1863 1438 1950 
Q 2053 2066 2291 2166 
L 2291 2253 
Q 2291 2506 2166 2614 
Q 2041 2722 1694 2722 
Q 1459 2722 1328 2630 
Q 1197 2538 1116 2306 
z
M 2291 1594 
Q 2122 1538 1756 1459 
Q 1391 1381 1278 1306 
Q 1106 1184 1106 997 
Q 1106 813 1243 678 
Q 1381 544 1594 544 
Q 1831 544 2047 700 
Q 2206 819 2256 991 
Q 2291 1103 2291 1419 
L 2291 1594 
z
" transform="scale(0.015625)"/>
      <path id="Arial-BoldMT-f3" d="M 256 1706 
Q 256 2144 472 2553 
Q 688 2963 1083 3178 
Q 1478 3394 1966 3394 
Q 2719 3394 3200 2905 
Q 3681 2416 3681 1669 
Q 3681 916 3195 420 
Q 2709 -75 1972 -75 
Q 1516 -75 1102 131 
Q 688 338 472 736 
Q 256 1134 256 1706 
z
M 1156 1659 
Q 1156 1166 1390 903 
Q 1625 641 1969 641 
Q 2313 641 2545 903 
Q 2778 1166 2778 1666 
Q 2778 2153 2545 2415 
Q 2313 2678 1969 2678 
Q 1625 2678 1390 2415 
Q 1156 2153 1156 1659 
z
M 1528 3725 
L 1960 4659 
L 2944 4659 
L 2085 3725 
L 1528 3725 
z
" transform="scale(0.015625)"/>
      <path id="Arial-BoldMT-6e" d="M 3478 0 
L 2600 0 
L 2600 1694 
Q 2600 2231 2544 2389 
Q 2488 2547 2361 2634 
Q 2234 2722 2056 2722 
Q 1828 2722 1647 2597 
Q 1466 2472 1398 2265 
Q 1331 2059 1331 1503 
L 1331 0 
L 453 0 
L 453 3319 
L 1269 3319 
L 1269 2831 
Q 1703 3394 2363 3394 
Q 2653 3394 2893 3289 
Q 3134 3184 3257 3021 
Q 3381 2859 3429 2653 
Q 3478 2447 3478 2063 
L 3478 0 
z
" transform="scale(0.015625)"/>
      <path id="Arial-BoldMT-20" transform="scale(0.015625)"/>
      <path id="Arial-BoldMT-4d" d="M 453 0 
L 453 4581 
L 1838 4581 
L 2669 1456 
L 3491 4581 
L 4878 4581 
L 4878 0 
L 4019 0 
L 4019 3606 
L 3109 0 
L 2219 0 
L 1313 3606 
L 1313 0 
L 453 0 
z
" transform="scale(0.015625)"/>
      <path id="Arial-BoldMT-73" d="M 150 947 
L 1031 1081 
Q 1088 825 1259 692 
Q 1431 559 1741 559 
Q 2081 559 2253 684 
Q 2369 772 2369 919 
Q 2369 1019 2306 1084 
Q 2241 1147 2013 1200 
Q 950 1434 666 1628 
Q 272 1897 272 2375 
Q 272 2806 612 3100 
Q 953 3394 1669 3394 
Q 2350 3394 2681 3172 
Q 3013 2950 3138 2516 
L 2309 2363 
Q 2256 2556 2107 2659 
Q 1959 2763 1684 2763 
Q 1338 2763 1188 2666 
Q 1088 2597 1088 2488 
Q 1088 2394 1175 2328 
Q 1294 2241 1995 2081 
Q 2697 1922 2975 1691 
Q 3250 1456 3250 1038 
Q 3250 581 2869 253 
Q 2488 -75 1741 -75 
Q 1063 -75 667 200 
Q 272 475 150 947 
z
" transform="scale(0.015625)"/>
      <path id="Arial-BoldMT-75" d="M 2644 0 
L 2644 497 
Q 2463 231 2167 78 
Q 1872 -75 1544 -75 
Q 1209 -75 943 72 
Q 678 219 559 484 
Q 441 750 441 1219 
L 441 3319 
L 1319 3319 
L 1319 1794 
Q 1319 1094 1367 936 
Q 1416 778 1544 686 
Q 1672 594 1869 594 
Q 2094 594 2272 717 
Q 2450 841 2515 1023 
Q 2581 1206 2581 1919 
L 2581 3319 
L 3459 3319 
L 3459 0 
L 2644 0 
z
" transform="scale(0.015625)"/>
      <path id="Arial-BoldMT-6c" d="M 459 0 
L 459 4581 
L 1338 4581 
L 1338 0 
L 459 0 
z
" transform="scale(0.015625)"/>
      <path id="Arial-BoldMT-62" d="M 422 0 
L 422 4581 
L 1300 4581 
L 1300 2931 
Q 1706 3394 2263 3394 
Q 2869 3394 3266 2955 
Q 3663 2516 3663 1694 
Q 3663 844 3258 384 
Q 2853 -75 2275 -75 
Q 1991 -75 1714 67 
Q 1438 209 1238 488 
L 1238 0 
L 422 0 
z
M 1294 1731 
Q 1294 1216 1456 969 
Q 1684 619 2063 619 
Q 2353 619 2558 867 
Q 2763 1116 2763 1650 
Q 2763 2219 2556 2470 
Q 2350 2722 2028 2722 
Q 1713 2722 1503 2476 
Q 1294 2231 1294 1731 
z
" transform="scale(0.015625)"/>
     </defs>
     <use xlink:href="#Arial-BoldMT-50"/>
     <use xlink:href="#Arial-BoldMT-72" x="66.699219"/>
     <use xlink:href="#Arial-BoldMT-65" x="105.615234"/>
     <use xlink:href="#Arial-BoldMT-63" x="161.230469"/>
     <use xlink:href="#Arial-BoldMT-69" x="216.845703"/>
     <use xlink:href="#Arial-BoldMT-70" x="244.628906"/>
     <use xlink:href="#Arial-BoldMT-69" x="305.712891"/>
     <use xlink:href="#Arial-BoldMT-74" x="333.496094"/>
     <use xlink:href="#Arial-BoldMT-61" x="366.796875"/>
     <use xlink:href="#Arial-BoldMT-63" x="422.412109"/>
     <use xlink:href="#Arial-BoldMT-69" x="478.027344"/>
     <use xlink:href="#Arial-BoldMT-f3" x="505.810547"/>
     <use xlink:href="#Arial-BoldMT-6e" x="566.894531"/>
     <use xlink:href="#Arial-BoldMT-20" x="627.978516"/>
     <use xlink:href="#Arial-BoldMT-4d" x="655.761719"/>
     <use xlink:href="#Arial-BoldMT-65" x="739.0625"/>
     <use xlink:href="#Arial-BoldMT-6e" x="794.677734"/>
     <use xlink:href="#Arial-BoldMT-73" x="855.761719"/>
     <use xlink:href="#Arial-BoldMT-75" x="911.376953"/>
     <use xlink:href="#Arial-BoldMT-61" x="972.460938"/>
     <use xlink:href="#Arial-BoldMT-6c" x="1028.076172"/>
     <use xlink:href="#Arial-BoldMT-20" x="1055.859375"/>
     <use xlink:href="#Arial-BoldMT-65" x="1083.642578"/>
     <use xlink:href="#Arial-BoldMT-6e" x="1139.257812"/>
     <use xlink:href="#Arial-BoldMT-20" x="1200.341797"/>
     <use xlink:href="#Arial-BoldMT-50" x="1228.125"/>
     <use xlink:href="#Arial-BoldMT-75" x="1294.824219"/>
     <use xlink:href="#Arial-BoldMT-65" x="1355.908203"/>
     <use xlink:href="#Arial-BoldMT-62" x="1411.523438"/>
     <use xlink:href="#Arial-BoldMT-6c" x="1472.607422"/>
     <use xlink:href="#Arial-BoldMT-61" x="1500.390625"/>
    </g>
   </g>
  </g>
 </g>
 <defs>
  <clipPath id="p3c168abc0a">
   <rect x="54.42875" y="23.391562" width="669.6" height="332.64"/>
  </clipPath>
 </defs>
</svg>
