<?xml version="1.0" encoding="utf-8" standalone="no"?>
<!DOCTYPE svg PUBLIC "-//W3C//DTD SVG 1.1//EN"
  "http://www.w3.org/Graphics/SVG/1.1/DTD/svg11.dtd">
<svg xmlns:xlink="http://www.w3.org/1999/xlink" width="719.179482pt" height="395.022187pt" viewBox="0 0 719.179482 395.022187" xmlns="http://www.w3.org/2000/svg" version="1.1">
 <metadata>
  <rdf:RDF xmlns:dc="http://purl.org/dc/elements/1.1/" xmlns:cc="http://creativecommons.org/ns#" xmlns:rdf="http://www.w3.org/1999/02/22-rdf-syntax-ns#">
   <cc:Work>
    <dc:type rdf:resource="http://purl.org/dc/dcmitype/StillImage"/>
    <dc:date>2025-05-01T06:41:14.073802</dc:date>
    <dc:format>image/svg+xml</dc:format>
    <dc:creator>
     <cc:Agent>
      <dc:title>Matplotlib v3.8.4, https://matplotlib.org/</dc:title>
     </cc:Agent>
    </dc:creator>
   </cc:Work>
  </rdf:RDF>
 </metadata>
 <defs>
  <style type="text/css">*{stroke-linejoin: round; stroke-linecap: butt}</style>
 </defs>
 <g id="figure_1">
  <g id="patch_1">
   <path d="M 0 395.022187 
L 719.179482 395.022187 
L 719.179482 0 
L 0 0 
z
" style="fill: #ffffff"/>
  </g>
  <g id="axes_1">
   <g id="patch_2">
    <path d="M 41.0825 356.031562 
L 710.6825 356.031562 
L 710.6825 23.391562 
L 41.0825 23.391562 
z
" style="fill: #ffffff"/>
   </g>
   <g id="matplotlib.axis_1">
    <g id="xtick_1">
     <g id="line2d_1">
      <path d="M 70.576608 356.031562 
L 70.576608 23.391562 
" clip-path="url(#p359e59be90)" style="fill: none; stroke-dasharray: 1.85,0.8; stroke-dashoffset: 0; stroke: #808080; stroke-width: 0.5"/>
     </g>
     <g id="text_1">
      <!-- 1954 -->
      <g style="fill: #262626" transform="translate(61.679108 371.257812) scale(0.08 -0.08)">
       <defs>
        <path id="ArialMT-31" d="M 2384 0 
L 1822 0 
L 1822 3584 
Q 1619 3391 1289 3197 
Q 959 3003 697 2906 
L 697 3450 
Q 1169 3672 1522 3987 
Q 1875 4303 2022 4600 
L 2384 4600 
L 2384 0 
z
" transform="scale(0.015625)"/>
        <path id="ArialMT-39" d="M 350 1059 
L 891 1109 
Q 959 728 1153 556 
Q 1347 384 1650 384 
Q 1909 384 2104 503 
Q 2300 622 2425 820 
Q 2550 1019 2634 1356 
Q 2719 1694 2719 2044 
Q 2719 2081 2716 2156 
Q 2547 1888 2255 1720 
Q 1963 1553 1622 1553 
Q 1053 1553 659 1965 
Q 266 2378 266 3053 
Q 266 3750 677 4175 
Q 1088 4600 1706 4600 
Q 2153 4600 2523 4359 
Q 2894 4119 3086 3673 
Q 3278 3228 3278 2384 
Q 3278 1506 3087 986 
Q 2897 466 2520 194 
Q 2144 -78 1638 -78 
Q 1100 -78 759 220 
Q 419 519 350 1059 
z
M 2653 3081 
Q 2653 3566 2395 3850 
Q 2138 4134 1775 4134 
Q 1400 4134 1122 3828 
Q 844 3522 844 3034 
Q 844 2597 1108 2323 
Q 1372 2050 1759 2050 
Q 2150 2050 2401 2323 
Q 2653 2597 2653 3081 
z
" transform="scale(0.015625)"/>
        <path id="ArialMT-35" d="M 266 1200 
L 856 1250 
Q 922 819 1161 601 
Q 1400 384 1738 384 
Q 2144 384 2425 690 
Q 2706 997 2706 1503 
Q 2706 1984 2436 2262 
Q 2166 2541 1728 2541 
Q 1456 2541 1237 2417 
Q 1019 2294 894 2097 
L 366 2166 
L 809 4519 
L 3088 4519 
L 3088 3981 
L 1259 3981 
L 1013 2750 
Q 1425 3038 1878 3038 
Q 2478 3038 2890 2622 
Q 3303 2206 3303 1553 
Q 3303 931 2941 478 
Q 2500 -78 1738 -78 
Q 1113 -78 717 272 
Q 322 622 266 1200 
z
" transform="scale(0.015625)"/>
        <path id="ArialMT-34" d="M 2069 0 
L 2069 1097 
L 81 1097 
L 81 1613 
L 2172 4581 
L 2631 4581 
L 2631 1613 
L 3250 1613 
L 3250 1097 
L 2631 1097 
L 2631 0 
L 2069 0 
z
M 2069 1613 
L 2069 3678 
L 634 1613 
L 2069 1613 
z
" transform="scale(0.015625)"/>
       </defs>
       <use xlink:href="#ArialMT-31"/>
       <use xlink:href="#ArialMT-39" x="55.615234"/>
       <use xlink:href="#ArialMT-35" x="111.230469"/>
       <use xlink:href="#ArialMT-34" x="166.845703"/>
      </g>
     </g>
    </g>
    <g id="xtick_2">
     <g id="line2d_2">
      <path d="M 103.88989 356.031562 
L 103.88989 23.391562 
" clip-path="url(#p359e59be90)" style="fill: none; stroke-dasharray: 1.85,0.8; stroke-dashoffset: 0; stroke: #808080; stroke-width: 0.5"/>
     </g>
     <g id="text_2">
      <!-- 1957 -->
      <g style="fill: #262626" transform="translate(94.99239 371.257812) scale(0.08 -0.08)">
       <defs>
        <path id="ArialMT-37" d="M 303 3981 
L 303 4522 
L 3269 4522 
L 3269 4084 
Q 2831 3619 2401 2847 
Q 1972 2075 1738 1259 
Q 1569 684 1522 0 
L 944 0 
Q 953 541 1156 1306 
Q 1359 2072 1739 2783 
Q 2119 3494 2547 3981 
L 303 3981 
z
" transform="scale(0.015625)"/>
       </defs>
       <use xlink:href="#ArialMT-31"/>
       <use xlink:href="#ArialMT-39" x="55.615234"/>
       <use xlink:href="#ArialMT-35" x="111.230469"/>
       <use xlink:href="#ArialMT-37" x="166.845703"/>
      </g>
     </g>
    </g>
    <g id="xtick_3">
     <g id="line2d_3">
      <path d="M 137.172776 356.031562 
L 137.172776 23.391562 
" clip-path="url(#p359e59be90)" style="fill: none; stroke-dasharray: 1.85,0.8; stroke-dashoffset: 0; stroke: #808080; stroke-width: 0.5"/>
     </g>
     <g id="text_3">
      <!-- 1960 -->
      <g style="fill: #262626" transform="translate(128.275276 371.257812) scale(0.08 -0.08)">
       <defs>
        <path id="ArialMT-36" d="M 3184 3459 
L 2625 3416 
Q 2550 3747 2413 3897 
Q 2184 4138 1850 4138 
Q 1581 4138 1378 3988 
Q 1113 3794 959 3422 
Q 806 3050 800 2363 
Q 1003 2672 1297 2822 
Q 1591 2972 1913 2972 
Q 2475 2972 2870 2558 
Q 3266 2144 3266 1488 
Q 3266 1056 3080 686 
Q 2894 316 2569 119 
Q 2244 -78 1831 -78 
Q 1128 -78 684 439 
Q 241 956 241 2144 
Q 241 3472 731 4075 
Q 1159 4600 1884 4600 
Q 2425 4600 2770 4297 
Q 3116 3994 3184 3459 
z
M 888 1484 
Q 888 1194 1011 928 
Q 1134 663 1356 523 
Q 1578 384 1822 384 
Q 2178 384 2434 671 
Q 2691 959 2691 1453 
Q 2691 1928 2437 2201 
Q 2184 2475 1800 2475 
Q 1419 2475 1153 2201 
Q 888 1928 888 1484 
z
" transform="scale(0.015625)"/>
        <path id="ArialMT-30" d="M 266 2259 
Q 266 3072 433 3567 
Q 600 4063 929 4331 
Q 1259 4600 1759 4600 
Q 2128 4600 2406 4451 
Q 2684 4303 2865 4023 
Q 3047 3744 3150 3342 
Q 3253 2941 3253 2259 
Q 3253 1453 3087 958 
Q 2922 463 2592 192 
Q 2263 -78 1759 -78 
Q 1097 -78 719 397 
Q 266 969 266 2259 
z
M 844 2259 
Q 844 1131 1108 757 
Q 1372 384 1759 384 
Q 2147 384 2411 759 
Q 2675 1134 2675 2259 
Q 2675 3391 2411 3762 
Q 2147 4134 1753 4134 
Q 1366 4134 1134 3806 
Q 844 3388 844 2259 
z
" transform="scale(0.015625)"/>
       </defs>
       <use xlink:href="#ArialMT-31"/>
       <use xlink:href="#ArialMT-39" x="55.615234"/>
       <use xlink:href="#ArialMT-36" x="111.230469"/>
       <use xlink:href="#ArialMT-30" x="166.845703"/>
      </g>
     </g>
    </g>
    <g id="xtick_4">
     <g id="line2d_4">
      <path d="M 170.486058 356.031562 
L 170.486058 23.391562 
" clip-path="url(#p359e59be90)" style="fill: none; stroke-dasharray: 1.85,0.8; stroke-dashoffset: 0; stroke: #808080; stroke-width: 0.5"/>
     </g>
     <g id="text_4">
      <!-- 1963 -->
      <g style="fill: #262626" transform="translate(161.588558 371.257812) scale(0.08 -0.08)">
       <defs>
        <path id="ArialMT-33" d="M 269 1209 
L 831 1284 
Q 928 806 1161 595 
Q 1394 384 1728 384 
Q 2125 384 2398 659 
Q 2672 934 2672 1341 
Q 2672 1728 2419 1979 
Q 2166 2231 1775 2231 
Q 1616 2231 1378 2169 
L 1441 2663 
Q 1497 2656 1531 2656 
Q 1891 2656 2178 2843 
Q 2466 3031 2466 3422 
Q 2466 3731 2256 3934 
Q 2047 4138 1716 4138 
Q 1388 4138 1169 3931 
Q 950 3725 888 3313 
L 325 3413 
Q 428 3978 793 4289 
Q 1159 4600 1703 4600 
Q 2078 4600 2393 4439 
Q 2709 4278 2876 4000 
Q 3044 3722 3044 3409 
Q 3044 3113 2884 2869 
Q 2725 2625 2413 2481 
Q 2819 2388 3044 2092 
Q 3269 1797 3269 1353 
Q 3269 753 2831 336 
Q 2394 -81 1725 -81 
Q 1122 -81 723 278 
Q 325 638 269 1209 
z
" transform="scale(0.015625)"/>
       </defs>
       <use xlink:href="#ArialMT-31"/>
       <use xlink:href="#ArialMT-39" x="55.615234"/>
       <use xlink:href="#ArialMT-36" x="111.230469"/>
       <use xlink:href="#ArialMT-33" x="166.845703"/>
      </g>
     </g>
    </g>
    <g id="xtick_5">
     <g id="line2d_5">
      <path d="M 203.79934 356.031562 
L 203.79934 23.391562 
" clip-path="url(#p359e59be90)" style="fill: none; stroke-dasharray: 1.85,0.8; stroke-dashoffset: 0; stroke: #808080; stroke-width: 0.5"/>
     </g>
     <g id="text_5">
      <!-- 1966 -->
      <g style="fill: #262626" transform="translate(194.90184 371.257812) scale(0.08 -0.08)">
       <use xlink:href="#ArialMT-31"/>
       <use xlink:href="#ArialMT-39" x="55.615234"/>
       <use xlink:href="#ArialMT-36" x="111.230469"/>
       <use xlink:href="#ArialMT-36" x="166.845703"/>
      </g>
     </g>
    </g>
    <g id="xtick_6">
     <g id="line2d_6">
      <path d="M 237.112621 356.031562 
L 237.112621 23.391562 
" clip-path="url(#p359e59be90)" style="fill: none; stroke-dasharray: 1.85,0.8; stroke-dashoffset: 0; stroke: #808080; stroke-width: 0.5"/>
     </g>
     <g id="text_6">
      <!-- 1969 -->
      <g style="fill: #262626" transform="translate(228.215121 371.257812) scale(0.08 -0.08)">
       <use xlink:href="#ArialMT-31"/>
       <use xlink:href="#ArialMT-39" x="55.615234"/>
       <use xlink:href="#ArialMT-36" x="111.230469"/>
       <use xlink:href="#ArialMT-39" x="166.845703"/>
      </g>
     </g>
    </g>
    <g id="xtick_7">
     <g id="line2d_7">
      <path d="M 270.395507 356.031562 
L 270.395507 23.391562 
" clip-path="url(#p359e59be90)" style="fill: none; stroke-dasharray: 1.85,0.8; stroke-dashoffset: 0; stroke: #808080; stroke-width: 0.5"/>
     </g>
     <g id="text_7">
      <!-- 1972 -->
      <g style="fill: #262626" transform="translate(261.498007 371.257812) scale(0.08 -0.08)">
       <defs>
        <path id="ArialMT-32" d="M 3222 541 
L 3222 0 
L 194 0 
Q 188 203 259 391 
Q 375 700 629 1000 
Q 884 1300 1366 1694 
Q 2113 2306 2375 2664 
Q 2638 3022 2638 3341 
Q 2638 3675 2398 3904 
Q 2159 4134 1775 4134 
Q 1369 4134 1125 3890 
Q 881 3647 878 3216 
L 300 3275 
Q 359 3922 746 4261 
Q 1134 4600 1788 4600 
Q 2447 4600 2831 4234 
Q 3216 3869 3216 3328 
Q 3216 3053 3103 2787 
Q 2991 2522 2730 2228 
Q 2469 1934 1863 1422 
Q 1356 997 1212 845 
Q 1069 694 975 541 
L 3222 541 
z
" transform="scale(0.015625)"/>
       </defs>
       <use xlink:href="#ArialMT-31"/>
       <use xlink:href="#ArialMT-39" x="55.615234"/>
       <use xlink:href="#ArialMT-37" x="111.230469"/>
       <use xlink:href="#ArialMT-32" x="166.845703"/>
      </g>
     </g>
    </g>
    <g id="xtick_8">
     <g id="line2d_8">
      <path d="M 303.708789 356.031562 
L 303.708789 23.391562 
" clip-path="url(#p359e59be90)" style="fill: none; stroke-dasharray: 1.85,0.8; stroke-dashoffset: 0; stroke: #808080; stroke-width: 0.5"/>
     </g>
     <g id="text_8">
      <!-- 1975 -->
      <g style="fill: #262626" transform="translate(294.811289 371.257812) scale(0.08 -0.08)">
       <use xlink:href="#ArialMT-31"/>
       <use xlink:href="#ArialMT-39" x="55.615234"/>
       <use xlink:href="#ArialMT-37" x="111.230469"/>
       <use xlink:href="#ArialMT-35" x="166.845703"/>
      </g>
     </g>
    </g>
    <g id="xtick_9">
     <g id="line2d_9">
      <path d="M 337.022071 356.031562 
L 337.022071 23.391562 
" clip-path="url(#p359e59be90)" style="fill: none; stroke-dasharray: 1.85,0.8; stroke-dashoffset: 0; stroke: #808080; stroke-width: 0.5"/>
     </g>
     <g id="text_9">
      <!-- 1978 -->
      <g style="fill: #262626" transform="translate(328.124571 371.257812) scale(0.08 -0.08)">
       <defs>
        <path id="ArialMT-38" d="M 1131 2484 
Q 781 2613 612 2850 
Q 444 3088 444 3419 
Q 444 3919 803 4259 
Q 1163 4600 1759 4600 
Q 2359 4600 2725 4251 
Q 3091 3903 3091 3403 
Q 3091 3084 2923 2848 
Q 2756 2613 2416 2484 
Q 2838 2347 3058 2040 
Q 3278 1734 3278 1309 
Q 3278 722 2862 322 
Q 2447 -78 1769 -78 
Q 1091 -78 675 323 
Q 259 725 259 1325 
Q 259 1772 486 2073 
Q 713 2375 1131 2484 
z
M 1019 3438 
Q 1019 3113 1228 2906 
Q 1438 2700 1772 2700 
Q 2097 2700 2305 2904 
Q 2513 3109 2513 3406 
Q 2513 3716 2298 3927 
Q 2084 4138 1766 4138 
Q 1444 4138 1231 3931 
Q 1019 3725 1019 3438 
z
M 838 1322 
Q 838 1081 952 856 
Q 1066 631 1291 507 
Q 1516 384 1775 384 
Q 2178 384 2440 643 
Q 2703 903 2703 1303 
Q 2703 1709 2433 1975 
Q 2163 2241 1756 2241 
Q 1359 2241 1098 1978 
Q 838 1716 838 1322 
z
" transform="scale(0.015625)"/>
       </defs>
       <use xlink:href="#ArialMT-31"/>
       <use xlink:href="#ArialMT-39" x="55.615234"/>
       <use xlink:href="#ArialMT-37" x="111.230469"/>
       <use xlink:href="#ArialMT-38" x="166.845703"/>
      </g>
     </g>
    </g>
    <g id="xtick_10">
     <g id="line2d_10">
      <path d="M 370.335352 356.031562 
L 370.335352 23.391562 
" clip-path="url(#p359e59be90)" style="fill: none; stroke-dasharray: 1.85,0.8; stroke-dashoffset: 0; stroke: #808080; stroke-width: 0.5"/>
     </g>
     <g id="text_10">
      <!-- 1981 -->
      <g style="fill: #262626" transform="translate(361.437852 371.257812) scale(0.08 -0.08)">
       <use xlink:href="#ArialMT-31"/>
       <use xlink:href="#ArialMT-39" x="55.615234"/>
       <use xlink:href="#ArialMT-38" x="111.230469"/>
       <use xlink:href="#ArialMT-31" x="166.845703"/>
      </g>
     </g>
    </g>
    <g id="xtick_11">
     <g id="line2d_11">
      <path d="M 403.618239 356.031562 
L 403.618239 23.391562 
" clip-path="url(#p359e59be90)" style="fill: none; stroke-dasharray: 1.85,0.8; stroke-dashoffset: 0; stroke: #808080; stroke-width: 0.5"/>
     </g>
     <g id="text_11">
      <!-- 1984 -->
      <g style="fill: #262626" transform="translate(394.720739 371.257812) scale(0.08 -0.08)">
       <use xlink:href="#ArialMT-31"/>
       <use xlink:href="#ArialMT-39" x="55.615234"/>
       <use xlink:href="#ArialMT-38" x="111.230469"/>
       <use xlink:href="#ArialMT-34" x="166.845703"/>
      </g>
     </g>
    </g>
    <g id="xtick_12">
     <g id="line2d_12">
      <path d="M 436.93152 356.031562 
L 436.93152 23.391562 
" clip-path="url(#p359e59be90)" style="fill: none; stroke-dasharray: 1.85,0.8; stroke-dashoffset: 0; stroke: #808080; stroke-width: 0.5"/>
     </g>
     <g id="text_12">
      <!-- 1987 -->
      <g style="fill: #262626" transform="translate(428.03402 371.257812) scale(0.08 -0.08)">
       <use xlink:href="#ArialMT-31"/>
       <use xlink:href="#ArialMT-39" x="55.615234"/>
       <use xlink:href="#ArialMT-38" x="111.230469"/>
       <use xlink:href="#ArialMT-37" x="166.845703"/>
      </g>
     </g>
    </g>
    <g id="xtick_13">
     <g id="line2d_13">
      <path d="M 470.244802 356.031562 
L 470.244802 23.391562 
" clip-path="url(#p359e59be90)" style="fill: none; stroke-dasharray: 1.85,0.8; stroke-dashoffset: 0; stroke: #808080; stroke-width: 0.5"/>
     </g>
     <g id="text_13">
      <!-- 1990 -->
      <g style="fill: #262626" transform="translate(461.347302 371.257812) scale(0.08 -0.08)">
       <use xlink:href="#ArialMT-31"/>
       <use xlink:href="#ArialMT-39" x="55.615234"/>
       <use xlink:href="#ArialMT-39" x="111.230469"/>
       <use xlink:href="#ArialMT-30" x="166.845703"/>
      </g>
     </g>
    </g>
    <g id="xtick_14">
     <g id="line2d_14">
      <path d="M 503.558083 356.031562 
L 503.558083 23.391562 
" clip-path="url(#p359e59be90)" style="fill: none; stroke-dasharray: 1.85,0.8; stroke-dashoffset: 0; stroke: #808080; stroke-width: 0.5"/>
     </g>
     <g id="text_14">
      <!-- 1993 -->
      <g style="fill: #262626" transform="translate(494.660583 371.257812) scale(0.08 -0.08)">
       <use xlink:href="#ArialMT-31"/>
       <use xlink:href="#ArialMT-39" x="55.615234"/>
       <use xlink:href="#ArialMT-39" x="111.230469"/>
       <use xlink:href="#ArialMT-33" x="166.845703"/>
      </g>
     </g>
    </g>
    <g id="xtick_15">
     <g id="line2d_15">
      <path d="M 536.84097 356.031562 
L 536.84097 23.391562 
" clip-path="url(#p359e59be90)" style="fill: none; stroke-dasharray: 1.85,0.8; stroke-dashoffset: 0; stroke: #808080; stroke-width: 0.5"/>
     </g>
     <g id="text_15">
      <!-- 1996 -->
      <g style="fill: #262626" transform="translate(527.94347 371.257812) scale(0.08 -0.08)">
       <use xlink:href="#ArialMT-31"/>
       <use xlink:href="#ArialMT-39" x="55.615234"/>
       <use xlink:href="#ArialMT-39" x="111.230469"/>
       <use xlink:href="#ArialMT-36" x="166.845703"/>
      </g>
     </g>
    </g>
    <g id="xtick_16">
     <g id="line2d_16">
      <path d="M 570.154251 356.031562 
L 570.154251 23.391562 
" clip-path="url(#p359e59be90)" style="fill: none; stroke-dasharray: 1.85,0.8; stroke-dashoffset: 0; stroke: #808080; stroke-width: 0.5"/>
     </g>
     <g id="text_16">
      <!-- 1999 -->
      <g style="fill: #262626" transform="translate(561.256751 371.257812) scale(0.08 -0.08)">
       <use xlink:href="#ArialMT-31"/>
       <use xlink:href="#ArialMT-39" x="55.615234"/>
       <use xlink:href="#ArialMT-39" x="111.230469"/>
       <use xlink:href="#ArialMT-39" x="166.845703"/>
      </g>
     </g>
    </g>
    <g id="xtick_17">
     <g id="line2d_17">
      <path d="M 603.467533 356.031562 
L 603.467533 23.391562 
" clip-path="url(#p359e59be90)" style="fill: none; stroke-dasharray: 1.85,0.8; stroke-dashoffset: 0; stroke: #808080; stroke-width: 0.5"/>
     </g>
     <g id="text_17">
      <!-- 2002 -->
      <g style="fill: #262626" transform="translate(594.570033 371.257812) scale(0.08 -0.08)">
       <use xlink:href="#ArialMT-32"/>
       <use xlink:href="#ArialMT-30" x="55.615234"/>
       <use xlink:href="#ArialMT-30" x="111.230469"/>
       <use xlink:href="#ArialMT-32" x="166.845703"/>
      </g>
     </g>
    </g>
    <g id="xtick_18">
     <g id="line2d_18">
      <path d="M 636.780815 356.031562 
L 636.780815 23.391562 
" clip-path="url(#p359e59be90)" style="fill: none; stroke-dasharray: 1.85,0.8; stroke-dashoffset: 0; stroke: #808080; stroke-width: 0.5"/>
     </g>
     <g id="text_18">
      <!-- 2005 -->
      <g style="fill: #262626" transform="translate(627.883315 371.257812) scale(0.08 -0.08)">
       <use xlink:href="#ArialMT-32"/>
       <use xlink:href="#ArialMT-30" x="55.615234"/>
       <use xlink:href="#ArialMT-30" x="111.230469"/>
       <use xlink:href="#ArialMT-35" x="166.845703"/>
      </g>
     </g>
    </g>
    <g id="xtick_19">
     <g id="line2d_19">
      <path d="M 670.063701 356.031562 
L 670.063701 23.391562 
" clip-path="url(#p359e59be90)" style="fill: none; stroke-dasharray: 1.85,0.8; stroke-dashoffset: 0; stroke: #808080; stroke-width: 0.5"/>
     </g>
     <g id="text_19">
      <!-- 2008 -->
      <g style="fill: #262626" transform="translate(661.166201 371.257812) scale(0.08 -0.08)">
       <use xlink:href="#ArialMT-32"/>
       <use xlink:href="#ArialMT-30" x="55.615234"/>
       <use xlink:href="#ArialMT-30" x="111.230469"/>
       <use xlink:href="#ArialMT-38" x="166.845703"/>
      </g>
     </g>
    </g>
    <g id="xtick_20">
     <g id="line2d_20">
      <path d="M 703.376982 356.031562 
L 703.376982 23.391562 
" clip-path="url(#p359e59be90)" style="fill: none; stroke-dasharray: 1.85,0.8; stroke-dashoffset: 0; stroke: #808080; stroke-width: 0.5"/>
     </g>
     <g id="text_20">
      <!-- 2011 -->
      <g style="fill: #262626" transform="translate(694.774482 371.257812) scale(0.08 -0.08)">
       <use xlink:href="#ArialMT-32"/>
       <use xlink:href="#ArialMT-30" x="55.615234"/>
       <use xlink:href="#ArialMT-31" x="111.230469"/>
       <use xlink:href="#ArialMT-31" x="159.470703"/>
      </g>
     </g>
    </g>
    <g id="text_21">
     <!-- Fecha -->
     <g style="fill: #262626" transform="translate(359.208125 385.437187) scale(0.12 -0.12)">
      <defs>
       <path id="ArialMT-46" d="M 525 0 
L 525 4581 
L 3616 4581 
L 3616 4041 
L 1131 4041 
L 1131 2622 
L 3281 2622 
L 3281 2081 
L 1131 2081 
L 1131 0 
L 525 0 
z
" transform="scale(0.015625)"/>
       <path id="ArialMT-65" d="M 2694 1069 
L 3275 997 
Q 3138 488 2766 206 
Q 2394 -75 1816 -75 
Q 1088 -75 661 373 
Q 234 822 234 1631 
Q 234 2469 665 2931 
Q 1097 3394 1784 3394 
Q 2450 3394 2872 2941 
Q 3294 2488 3294 1666 
Q 3294 1616 3291 1516 
L 816 1516 
Q 847 969 1125 678 
Q 1403 388 1819 388 
Q 2128 388 2347 550 
Q 2566 713 2694 1069 
z
M 847 1978 
L 2700 1978 
Q 2663 2397 2488 2606 
Q 2219 2931 1791 2931 
Q 1403 2931 1139 2672 
Q 875 2413 847 1978 
z
" transform="scale(0.015625)"/>
       <path id="ArialMT-63" d="M 2588 1216 
L 3141 1144 
Q 3050 572 2676 248 
Q 2303 -75 1759 -75 
Q 1078 -75 664 370 
Q 250 816 250 1647 
Q 250 2184 428 2587 
Q 606 2991 970 3192 
Q 1334 3394 1763 3394 
Q 2303 3394 2647 3120 
Q 2991 2847 3088 2344 
L 2541 2259 
Q 2463 2594 2264 2762 
Q 2066 2931 1784 2931 
Q 1359 2931 1093 2626 
Q 828 2322 828 1663 
Q 828 994 1084 691 
Q 1341 388 1753 388 
Q 2084 388 2306 591 
Q 2528 794 2588 1216 
z
" transform="scale(0.015625)"/>
       <path id="ArialMT-68" d="M 422 0 
L 422 4581 
L 984 4581 
L 984 2938 
Q 1378 3394 1978 3394 
Q 2347 3394 2619 3248 
Q 2891 3103 3008 2847 
Q 3125 2591 3125 2103 
L 3125 0 
L 2563 0 
L 2563 2103 
Q 2563 2525 2380 2717 
Q 2197 2909 1863 2909 
Q 1613 2909 1392 2779 
Q 1172 2650 1078 2428 
Q 984 2206 984 1816 
L 984 0 
L 422 0 
z
" transform="scale(0.015625)"/>
       <path id="ArialMT-61" d="M 2588 409 
Q 2275 144 1986 34 
Q 1697 -75 1366 -75 
Q 819 -75 525 192 
Q 231 459 231 875 
Q 231 1119 342 1320 
Q 453 1522 633 1644 
Q 813 1766 1038 1828 
Q 1203 1872 1538 1913 
Q 2219 1994 2541 2106 
Q 2544 2222 2544 2253 
Q 2544 2597 2384 2738 
Q 2169 2928 1744 2928 
Q 1347 2928 1158 2789 
Q 969 2650 878 2297 
L 328 2372 
Q 403 2725 575 2942 
Q 747 3159 1072 3276 
Q 1397 3394 1825 3394 
Q 2250 3394 2515 3294 
Q 2781 3194 2906 3042 
Q 3031 2891 3081 2659 
Q 3109 2516 3109 2141 
L 3109 1391 
Q 3109 606 3145 398 
Q 3181 191 3288 0 
L 2700 0 
Q 2613 175 2588 409 
z
M 2541 1666 
Q 2234 1541 1622 1453 
Q 1275 1403 1131 1340 
Q 988 1278 909 1158 
Q 831 1038 831 891 
Q 831 666 1001 516 
Q 1172 366 1500 366 
Q 1825 366 2078 508 
Q 2331 650 2450 897 
Q 2541 1088 2541 1459 
L 2541 1666 
z
" transform="scale(0.015625)"/>
      </defs>
      <use xlink:href="#ArialMT-46"/>
      <use xlink:href="#ArialMT-65" x="61.083984"/>
      <use xlink:href="#ArialMT-63" x="116.699219"/>
      <use xlink:href="#ArialMT-68" x="166.699219"/>
      <use xlink:href="#ArialMT-61" x="222.314453"/>
     </g>
    </g>
   </g>
   <g id="matplotlib.axis_2">
    <g id="ytick_1">
     <g id="line2d_21">
      <path d="M 41.0825 341.98043 
L 710.6825 341.98043 
" clip-path="url(#p359e59be90)" style="fill: none; stroke-dasharray: 1.85,0.8; stroke-dashoffset: 0; stroke: #808080; stroke-width: 0.5"/>
     </g>
     <g id="text_22">
      <!-- −4 -->
      <g style="fill: #262626" transform="translate(22.46125 344.843555) scale(0.08 -0.08)">
       <defs>
        <path id="ArialMT-2212" d="M 3381 1997 
L 356 1997 
L 356 2522 
L 3381 2522 
L 3381 1997 
z
" transform="scale(0.015625)"/>
       </defs>
       <use xlink:href="#ArialMT-2212"/>
       <use xlink:href="#ArialMT-34" x="58.398438"/>
      </g>
     </g>
    </g>
    <g id="ytick_2">
     <g id="line2d_22">
      <path d="M 41.0825 270.766108 
L 710.6825 270.766108 
" clip-path="url(#p359e59be90)" style="fill: none; stroke-dasharray: 1.85,0.8; stroke-dashoffset: 0; stroke: #808080; stroke-width: 0.5"/>
     </g>
     <g id="text_23">
      <!-- −2 -->
      <g style="fill: #262626" transform="translate(22.46125 273.629233) scale(0.08 -0.08)">
       <use xlink:href="#ArialMT-2212"/>
       <use xlink:href="#ArialMT-32" x="58.398438"/>
      </g>
     </g>
    </g>
    <g id="ytick_3">
     <g id="line2d_23">
      <path d="M 41.0825 199.551787 
L 710.6825 199.551787 
" clip-path="url(#p359e59be90)" style="fill: none; stroke-dasharray: 1.85,0.8; stroke-dashoffset: 0; stroke: #808080; stroke-width: 0.5"/>
     </g>
     <g id="text_24">
      <!-- 0 -->
      <g style="fill: #262626" transform="translate(27.13375 202.414912) scale(0.08 -0.08)">
       <use xlink:href="#ArialMT-30"/>
      </g>
     </g>
    </g>
    <g id="ytick_4">
     <g id="line2d_24">
      <path d="M 41.0825 128.337466 
L 710.6825 128.337466 
" clip-path="url(#p359e59be90)" style="fill: none; stroke-dasharray: 1.85,0.8; stroke-dashoffset: 0; stroke: #808080; stroke-width: 0.5"/>
     </g>
     <g id="text_25">
      <!-- 2 -->
      <g style="fill: #262626" transform="translate(27.13375 131.200591) scale(0.08 -0.08)">
       <use xlink:href="#ArialMT-32"/>
      </g>
     </g>
    </g>
    <g id="ytick_5">
     <g id="line2d_25">
      <path d="M 41.0825 57.123144 
L 710.6825 57.123144 
" clip-path="url(#p359e59be90)" style="fill: none; stroke-dasharray: 1.85,0.8; stroke-dashoffset: 0; stroke: #808080; stroke-width: 0.5"/>
     </g>
     <g id="text_26">
      <!-- 4 -->
      <g style="fill: #262626" transform="translate(27.13375 59.986269) scale(0.08 -0.08)">
       <use xlink:href="#ArialMT-34"/>
      </g>
     </g>
    </g>
    <g id="text_27">
     <!-- Precipitación (mm) -->
     <g style="fill: #262626" transform="translate(15.935625 239.71875) rotate(-90) scale(0.12 -0.12)">
      <defs>
       <path id="ArialMT-50" d="M 494 0 
L 494 4581 
L 2222 4581 
Q 2678 4581 2919 4538 
Q 3256 4481 3484 4323 
Q 3713 4166 3852 3881 
Q 3991 3597 3991 3256 
Q 3991 2672 3619 2267 
Q 3247 1863 2275 1863 
L 1100 1863 
L 1100 0 
L 494 0 
z
M 1100 2403 
L 2284 2403 
Q 2872 2403 3119 2622 
Q 3366 2841 3366 3238 
Q 3366 3525 3220 3729 
Q 3075 3934 2838 4000 
Q 2684 4041 2272 4041 
L 1100 4041 
L 1100 2403 
z
" transform="scale(0.015625)"/>
       <path id="ArialMT-72" d="M 416 0 
L 416 3319 
L 922 3319 
L 922 2816 
Q 1116 3169 1280 3281 
Q 1444 3394 1641 3394 
Q 1925 3394 2219 3213 
L 2025 2691 
Q 1819 2813 1613 2813 
Q 1428 2813 1281 2702 
Q 1134 2591 1072 2394 
Q 978 2094 978 1738 
L 978 0 
L 416 0 
z
" transform="scale(0.015625)"/>
       <path id="ArialMT-69" d="M 425 3934 
L 425 4581 
L 988 4581 
L 988 3934 
L 425 3934 
z
M 425 0 
L 425 3319 
L 988 3319 
L 988 0 
L 425 0 
z
" transform="scale(0.015625)"/>
       <path id="ArialMT-70" d="M 422 -1272 
L 422 3319 
L 934 3319 
L 934 2888 
Q 1116 3141 1344 3267 
Q 1572 3394 1897 3394 
Q 2322 3394 2647 3175 
Q 2972 2956 3137 2557 
Q 3303 2159 3303 1684 
Q 3303 1175 3120 767 
Q 2938 359 2589 142 
Q 2241 -75 1856 -75 
Q 1575 -75 1351 44 
Q 1128 163 984 344 
L 984 -1272 
L 422 -1272 
z
M 931 1641 
Q 931 1000 1190 694 
Q 1450 388 1819 388 
Q 2194 388 2461 705 
Q 2728 1022 2728 1688 
Q 2728 2322 2467 2637 
Q 2206 2953 1844 2953 
Q 1484 2953 1207 2617 
Q 931 2281 931 1641 
z
" transform="scale(0.015625)"/>
       <path id="ArialMT-74" d="M 1650 503 
L 1731 6 
Q 1494 -44 1306 -44 
Q 1000 -44 831 53 
Q 663 150 594 308 
Q 525 466 525 972 
L 525 2881 
L 113 2881 
L 113 3319 
L 525 3319 
L 525 4141 
L 1084 4478 
L 1084 3319 
L 1650 3319 
L 1650 2881 
L 1084 2881 
L 1084 941 
Q 1084 700 1114 631 
Q 1144 563 1211 522 
Q 1278 481 1403 481 
Q 1497 481 1650 503 
z
" transform="scale(0.015625)"/>
       <path id="ArialMT-f3" d="M 213 1659 
Q 213 2581 725 3025 
Q 1153 3394 1769 3394 
Q 2453 3394 2887 2945 
Q 3322 2497 3322 1706 
Q 3322 1066 3130 698 
Q 2938 331 2570 128 
Q 2203 -75 1769 -75 
Q 1072 -75 642 372 
Q 213 819 213 1659 
z
M 791 1659 
Q 791 1022 1069 705 
Q 1347 388 1769 388 
Q 2188 388 2466 706 
Q 2744 1025 2744 1678 
Q 2744 2294 2464 2611 
Q 2184 2928 1769 2928 
Q 1347 2928 1069 2612 
Q 791 2297 791 1659 
z
M 1454 3731 
L 1869 4606 
L 2607 4606 
L 1919 3731 
L 1454 3731 
z
" transform="scale(0.015625)"/>
       <path id="ArialMT-6e" d="M 422 0 
L 422 3319 
L 928 3319 
L 928 2847 
Q 1294 3394 1984 3394 
Q 2284 3394 2536 3286 
Q 2788 3178 2913 3003 
Q 3038 2828 3088 2588 
Q 3119 2431 3119 2041 
L 3119 0 
L 2556 0 
L 2556 2019 
Q 2556 2363 2490 2533 
Q 2425 2703 2258 2804 
Q 2091 2906 1866 2906 
Q 1506 2906 1245 2678 
Q 984 2450 984 1813 
L 984 0 
L 422 0 
z
" transform="scale(0.015625)"/>
       <path id="ArialMT-20" transform="scale(0.015625)"/>
       <path id="ArialMT-28" d="M 1497 -1347 
Q 1031 -759 709 28 
Q 388 816 388 1659 
Q 388 2403 628 3084 
Q 909 3875 1497 4659 
L 1900 4659 
Q 1522 4009 1400 3731 
Q 1209 3300 1100 2831 
Q 966 2247 966 1656 
Q 966 153 1900 -1347 
L 1497 -1347 
z
" transform="scale(0.015625)"/>
       <path id="ArialMT-6d" d="M 422 0 
L 422 3319 
L 925 3319 
L 925 2853 
Q 1081 3097 1340 3245 
Q 1600 3394 1931 3394 
Q 2300 3394 2536 3241 
Q 2772 3088 2869 2813 
Q 3263 3394 3894 3394 
Q 4388 3394 4653 3120 
Q 4919 2847 4919 2278 
L 4919 0 
L 4359 0 
L 4359 2091 
Q 4359 2428 4304 2576 
Q 4250 2725 4106 2815 
Q 3963 2906 3769 2906 
Q 3419 2906 3187 2673 
Q 2956 2441 2956 1928 
L 2956 0 
L 2394 0 
L 2394 2156 
Q 2394 2531 2256 2718 
Q 2119 2906 1806 2906 
Q 1569 2906 1367 2781 
Q 1166 2656 1075 2415 
Q 984 2175 984 1722 
L 984 0 
L 422 0 
z
" transform="scale(0.015625)"/>
       <path id="ArialMT-29" d="M 791 -1347 
L 388 -1347 
Q 1322 153 1322 1656 
Q 1322 2244 1188 2822 
Q 1081 3291 891 3722 
Q 769 4003 388 4659 
L 791 4659 
Q 1378 3875 1659 3084 
Q 1900 2403 1900 1659 
Q 1900 816 1576 28 
Q 1253 -759 791 -1347 
z
" transform="scale(0.015625)"/>
      </defs>
      <use xlink:href="#ArialMT-50"/>
      <use xlink:href="#ArialMT-72" x="66.699219"/>
      <use xlink:href="#ArialMT-65" x="100"/>
      <use xlink:href="#ArialMT-63" x="155.615234"/>
      <use xlink:href="#ArialMT-69" x="205.615234"/>
      <use xlink:href="#ArialMT-70" x="227.832031"/>
      <use xlink:href="#ArialMT-69" x="283.447266"/>
      <use xlink:href="#ArialMT-74" x="305.664062"/>
      <use xlink:href="#ArialMT-61" x="333.447266"/>
      <use xlink:href="#ArialMT-63" x="389.0625"/>
      <use xlink:href="#ArialMT-69" x="439.0625"/>
      <use xlink:href="#ArialMT-f3" x="461.279297"/>
      <use xlink:href="#ArialMT-6e" x="516.894531"/>
      <use xlink:href="#ArialMT-20" x="572.509766"/>
      <use xlink:href="#ArialMT-28" x="600.292969"/>
      <use xlink:href="#ArialMT-6d" x="633.59375"/>
      <use xlink:href="#ArialMT-6d" x="716.894531"/>
      <use xlink:href="#ArialMT-29" x="800.195312"/>
     </g>
    </g>
   </g>
   <g id="line2d_26">
    <path d="M 71.518864 201.127839 
L 72.369933 221.697344 
L 73.312188 186.822133 
L 75.166303 86.641778 
L 76.078163 191.226997 
L 77.020418 169.121852 
L 77.962674 162.979289 
L 78.874533 211.109505 
L 79.816789 243.236726 
L 80.728649 213.857493 
L 81.670904 199.147671 
L 82.613159 205.007353 
L 83.464228 201.329897 
L 84.406484 207.997811 
L 85.318343 225.65768 
L 86.260599 257.178728 
L 87.172459 169.243087 
L 88.114714 129.478073 
L 89.056969 137.72204 
L 89.968829 228.324846 
L 91.822944 189.287241 
L 92.765199 178.497344 
L 93.707454 197.329149 
L 94.588919 199.551787 
L 95.531174 162.211469 
L 96.443034 169.728026 
L 97.385289 165.484809 
L 98.297149 255.643087 
L 99.239405 263.28088 
L 100.18166 279.000992 
L 101.09352 212.76638 
L 102.035775 207.189579 
L 102.947635 209.816333 
L 103.88989 221.010346 
L 104.832145 186.862545 
L 105.683214 199.349729 
L 106.62547 210.826623 
L 107.53733 258.714369 
L 108.479585 233.659177 
L 109.391445 203.512124 
L 110.3337 232.770122 
L 111.275955 177.608288 
L 112.187815 187.832423 
L 113.13007 200.925781 
L 114.04193 199.551787 
L 114.984185 161.160767 
L 116.77751 214.463667 
L 117.719765 195.995566 
L 118.631625 219.313059 
L 119.57388 163.221759 
L 120.48574 207.027933 
L 121.427995 163.908756 
L 122.370251 105.311937 
L 123.282111 230.830365 
L 124.224366 169.081441 
L 125.136226 185.892666 
L 126.078481 194.82363 
L 127.020736 236.730459 
L 127.871805 199.551787 
L 128.814061 171.304079 
L 129.72592 180.275454 
L 130.668176 129.033546 
L 131.580036 196.925033 
L 132.522291 181.124098 
L 133.464546 294.842339 
L 134.376406 206.94711 
L 135.318661 259.482189 
L 136.230521 213.210908 
L 137.172776 202.299776 
L 138.115032 200.764135 
L 138.996496 198.824378 
L 139.938751 226.465912 
L 140.850611 216.80754 
L 141.792866 275.202302 
L 142.704726 163.181347 
L 143.646982 228.850197 
L 144.589237 167.828681 
L 145.501097 208.523162 
L 146.443352 192.964696 
L 147.355212 198.703143 
L 148.297467 196.480505 
L 149.239722 199.551787 
L 150.090792 196.60174 
L 151.033047 201.168251 
L 151.944907 199.551787 
L 152.887162 187.185838 
L 153.799022 222.707634 
L 154.741277 239.80174 
L 155.683532 194.985276 
L 156.595392 213.695847 
L 157.537647 184.559084 
L 158.449507 195.995566 
L 159.391762 204.603237 
L 160.334018 199.551787 
L 161.185087 203.229243 
L 162.127342 173.728775 
L 163.039202 169.041029 
L 163.981457 192.156464 
L 164.893317 244.85319 
L 165.835572 179.588457 
L 166.777828 216.969186 
L 167.689688 182.578915 
L 168.631943 200.804547 
L 169.543803 199.63261 
L 171.428313 199.551787 
L 172.279382 195.914743 
L 173.221638 226.627559 
L 174.133498 211.836913 
L 175.075753 187.630365 
L 175.987613 120.54711 
L 177.872123 215.999308 
L 178.783983 180.92204 
L 179.726238 214.746548 
L 180.638098 203.875828 
L 181.580353 198.016146 
L 182.522609 199.551787 
L 183.404073 198.662732 
L 184.346328 188.842713 
L 185.258188 163.585463 
L 186.200444 181.164509 
L 187.112303 255.72391 
L 188.054559 199.430552 
L 188.996814 152.835978 
L 189.908674 253.622507 
L 190.850929 194.783218 
L 191.762789 199.430552 
L 192.705044 194.298279 
L 193.647299 195.106511 
L 194.498369 201.936071 
L 195.440624 199.63261 
L 196.352484 222.505576 
L 197.294739 253.905389 
L 198.206599 191.307821 
L 199.148854 142.207727 
L 200.091109 236.043461 
L 201.002969 161.766941 
L 201.945224 190.863293 
L 202.857084 193.732517 
L 203.79934 205.007353 
L 204.741595 199.996315 
L 208.389034 141.399495 
L 209.300894 136.832984 
L 210.243149 165.727278 
L 211.185405 178.65899 
L 212.097265 241.701085 
L 213.03952 340.911562 
L 213.95138 252.733452 
L 214.893635 223.273396 
L 215.83589 218.141123 
L 216.686959 201.370309 
L 217.629215 179.022694 
L 218.541075 182.376857 
L 219.48333 163.302582 
L 220.39519 267.241216 
L 221.337445 206.987521 
L 222.2797 205.532704 
L 223.19156 156.67508 
L 224.133815 198.743555 
L 225.045675 199.349729 
L 225.98793 219.797998 
L 226.930186 194.702395 
L 227.81165 202.825127 
L 228.753905 194.661983 
L 229.665765 192.398934 
L 230.608021 191.55029 
L 231.51988 172.758896 
L 232.462136 241.943555 
L 233.404391 226.748794 
L 234.316251 206.94711 
L 235.258506 199.107259 
L 236.170366 193.772928 
L 237.112621 193.81334 
L 238.054876 204.401179 
L 238.905946 186.337194 
L 239.848201 221.980225 
L 240.760061 203.91624 
L 241.702316 278.718111 
L 242.614176 172.556838 
L 243.556431 38.511562 
L 244.498686 124.507447 
L 245.410546 220.767877 
L 246.352801 201.734013 
L 247.264661 190.418765 
L 248.206917 206.219701 
L 249.149172 199.430552 
L 250.000241 213.615024 
L 250.942496 203.754593 
L 251.854356 209.129336 
L 252.796611 126.770496 
L 253.708471 182.215211 
L 254.650727 338.729336 
L 255.592982 213.695847 
L 256.504842 205.896408 
L 257.447097 194.944865 
L 258.358957 215.069841 
L 259.301212 199.551787 
L 260.243467 199.673022 
L 261.094536 195.389392 
L 262.036792 194.096221 
L 262.948652 197.450384 
L 263.890907 228.082376 
L 264.802767 239.680505 
L 265.745022 173.001366 
L 266.687277 163.908756 
L 267.599137 171.142432 
L 268.541392 201.89566 
L 269.453252 194.217456 
L 270.395507 197.086679 
L 271.337763 199.551787 
L 272.219227 194.985276 
L 273.161482 193.085931 
L 274.073342 172.071899 
L 275.015598 135.135697 
L 275.927457 137.762451 
L 276.869713 235.396876 
L 277.811968 212.483499 
L 278.723828 217.615772 
L 279.666083 191.833171 
L 280.577943 202.218953 
L 281.520198 202.016895 
L 282.462453 196.763387 
L 283.313523 208.280693 
L 284.255778 200.400431 
L 285.167638 210.786212 
L 286.109893 244.08537 
L 287.021753 186.256371 
L 287.964008 177.446642 
L 288.906263 232.72971 
L 289.818123 183.023443 
L 290.760379 209.129336 
L 291.672238 201.410721 
L 292.614494 198.905201 
L 293.556749 202.340187 
L 294.407818 195.753097 
L 295.350073 199.309317 
L 296.261933 209.775922 
L 297.204188 209.695099 
L 298.116048 242.590141 
L 299.058304 244.610721 
L 300.000559 202.380599 
L 300.912419 240.81203 
L 301.854674 198.824378 
L 302.766534 200.360019 
L 303.708789 198.945613 
L 304.651044 199.551787 
L 305.502114 203.350477 
L 306.444369 210.98827 
L 307.356229 180.154219 
L 308.298484 195.025688 
L 309.210344 164.070403 
L 311.094854 198.460674 
L 312.006714 162.211469 
L 312.948969 196.884621 
L 313.860829 199.551787 
L 314.803084 200.804547 
L 315.74534 197.571619 
L 316.626804 199.349729 
L 317.56906 190.014649 
L 318.480919 211.877325 
L 319.423175 224.081628 
L 320.335035 193.409224 
L 321.27729 190.701647 
L 322.219545 240.205856 
L 323.131405 177.042526 
L 324.07366 189.287241 
L 324.98552 199.107259 
L 325.927775 193.894163 
L 326.87003 198.501085 
L 327.7211 191.429055 
L 328.663355 205.896408 
L 329.575215 157.483312 
L 330.51747 121.193695 
L 331.42933 289.023069 
L 332.371585 185.650197 
L 333.31384 138.853564 
L 334.2257 248.934762 
L 335.167956 208.96769 
L 336.079815 197.814088 
L 337.022071 202.623069 
L 337.964326 200.400431 
L 338.815395 190.378354 
L 339.75765 198.218204 
L 340.66951 257.380786 
L 341.611765 217.211656 
L 342.523625 194.379102 
L 343.465881 224.485744 
L 344.408136 168.79856 
L 345.319996 203.269654 
L 346.262251 201.693602 
L 347.174111 201.734013 
L 348.116366 202.138129 
L 349.058621 194.459925 
L 349.909691 216.928775 
L 350.851946 191.469467 
L 351.763806 179.265164 
L 352.706061 295.448513 
L 353.617921 165.161516 
L 354.560176 186.539252 
L 355.502431 250.066287 
L 356.414291 206.825875 
L 357.356546 199.390141 
L 358.268406 196.642152 
L 359.210662 178.295286 
L 360.152917 206.825875 
L 361.034381 199.673022 
L 361.976637 206.785463 
L 362.888496 201.370309 
L 363.830752 180.962451 
L 364.742612 192.762638 
L 365.684867 161.079944 
L 366.627122 216.888363 
L 367.538982 191.994818 
L 368.481237 183.104266 
L 369.393097 202.259364 
L 370.335352 211.675267 
L 371.277608 189.489299 
L 372.128677 184.397437 
L 373.070932 188.681067 
L 373.982792 200.238784 
L 374.925047 94.885744 
L 375.836907 170.212966 
L 376.779162 224.849448 
L 377.721417 221.010346 
L 378.633277 197.127091 
L 379.575533 218.262358 
L 380.487392 199.147671 
L 381.429648 208.684809 
L 382.371903 200.279196 
L 383.222972 212.362264 
L 384.165227 206.098466 
L 385.077087 176.234294 
L 386.019343 312.219327 
L 386.931202 266.271338 
L 387.873458 209.088925 
L 388.815713 217.130833 
L 389.727573 174.8603 
L 390.669828 199.713433 
L 391.581688 200.157961 
L 392.523943 195.874331 
L 393.466198 192.600992 
L 394.317268 194.985276 
L 395.259523 209.250571 
L 396.171383 250.066287 
L 397.113638 173.971244 
L 398.025498 181.285744 
L 398.967753 209.290983 
L 399.910008 123.658803 
L 400.821868 219.272648 
L 401.764123 193.045519 
L 402.675983 194.015398 
L 403.618239 192.035229 
L 404.560494 211.594444 
L 405.441958 200.602489 
L 406.384214 199.551787 
L 407.296073 167.626623 
L 408.238329 168.960206 
L 409.150189 187.7516 
L 410.092444 167.5458 
L 411.034699 164.919046 
L 411.946559 201.612779 
L 412.888814 206.300524 
L 413.800674 205.088176 
L 414.742929 210.624565 
L 415.685185 201.249074 
L 416.536254 201.047016 
L 417.478509 180.67957 
L 418.390369 202.865538 
L 419.332624 206.381347 
L 420.244484 189.933826 
L 421.186739 234.346174 
L 422.128995 248.934762 
L 423.040854 207.674519 
L 423.98311 192.681815 
L 424.89497 198.945613 
L 425.837225 199.673022 
L 426.77948 196.965445 
L 427.630549 203.91624 
L 428.572804 191.913995 
L 430.42692 203.390889 
L 431.338779 202.340187 
L 432.281035 209.856745 
L 433.22329 238.993508 
L 434.13515 183.589205 
L 435.989265 206.219701 
L 436.93152 200.157961 
L 437.873775 199.551787 
L 438.724845 191.469467 
L 439.6671 186.458429 
L 440.57896 206.179289 
L 441.521215 124.547858 
L 442.433075 218.545239 
L 443.37533 243.398373 
L 444.317585 181.406979 
L 445.229445 238.710627 
L 446.1717 225.738504 
L 447.08356 199.753845 
L 448.025816 199.551787 
L 448.968071 192.883873 
L 449.849535 209.371806 
L 450.791791 212.645145 
L 451.703651 203.795005 
L 452.645906 229.69884 
L 453.557766 215.514369 
L 454.500021 130.488363 
L 455.442276 179.830926 
L 456.354136 197.086679 
L 457.296391 199.87508 
L 458.208251 199.551787 
L 459.150506 199.551787 
L 460.092762 205.69435 
L 461.886086 195.551039 
L 462.797946 179.750103 
L 463.740201 216.605482 
L 464.652061 216.928775 
L 465.594316 167.101273 
L 466.536572 224.081628 
L 467.448431 164.434107 
L 468.390687 199.147671 
L 469.302547 197.894911 
L 470.244802 199.349729 
L 471.187057 194.096221 
L 472.038126 200.400431 
L 472.980381 189.448887 
L 473.892241 188.115304 
L 474.834497 176.759645 
L 475.746357 132.67059 
L 476.688612 295.933452 
L 477.630867 171.304079 
L 478.542727 197.046268 
L 479.484982 198.824378 
L 480.396842 201.208663 
L 481.339097 199.753845 
L 482.281352 205.532704 
L 483.132422 200.683312 
L 484.074677 207.795753 
L 484.986537 209.452629 
L 485.928792 181.124098 
L 486.840652 228.567316 
L 487.782907 189.408476 
L 488.725162 192.681815 
L 489.637022 187.953658 
L 490.579278 192.156464 
L 491.491137 199.551787 
L 492.433393 161.72653 
L 493.375648 192.924285 
L 494.257112 195.874331 
L 495.199368 195.874331 
L 496.111228 180.113808 
L 497.053483 267.119982 
L 497.965343 152.553097 
L 498.907598 146.006418 
L 499.849853 209.210159 
L 500.761713 201.168251 
L 501.703968 184.680318 
L 502.615828 198.420262 
L 503.558083 237.377044 
L 504.500339 205.128588 
L 505.351408 202.097718 
L 506.293663 202.825127 
L 507.205523 252.652629 
L 508.147778 139.378915 
L 509.059638 250.308756 
L 510.001893 251.763574 
L 510.944149 166.616333 
L 511.856008 237.094163 
L 512.798264 215.79725 
L 513.710124 200.683312 
L 514.652379 195.106511 
L 515.594634 200.602489 
L 516.445703 200.683312 
L 517.387959 199.713433 
L 518.299818 157.160019 
L 519.242074 208.644397 
L 520.153934 213.5342 
L 521.096189 153.603798 
L 522.038444 239.599682 
L 522.950304 162.615585 
L 523.892559 204.92653 
L 524.804419 199.551787 
L 525.746674 192.196876 
L 526.68893 198.945613 
L 527.539999 189.570122 
L 528.482254 198.541497 
L 529.394114 151.38116 
L 530.336369 222.222694 
L 532.190484 135.014462 
L 533.132739 196.440094 
L 535.898714 230.224191 
L 536.84097 201.329897 
L 537.783225 199.551787 
L 538.664689 211.351974 
L 539.606945 189.125594 
L 540.518805 186.094724 
L 541.46106 131.296595 
L 542.37292 240.04421 
L 543.315175 164.919046 
L 544.25743 197.329149 
L 545.16929 325.757213 
L 546.111545 262.27059 
L 547.023405 215.352722 
L 547.96566 199.551787 
L 548.907916 199.430552 
L 549.758985 177.729523 
L 550.70124 184.154968 
L 551.6131 181.326156 
L 552.555355 222.950103 
L 553.467215 200.723723 
L 554.40947 233.537942 
L 555.351726 179.548045 
L 556.263586 176.113059 
L 557.205841 195.470215 
L 558.117701 197.329149 
L 559.059956 199.551787 
L 560.002211 199.147671 
L 560.85328 221.374051 
L 561.795536 224.64739 
L 562.707395 237.01334 
L 563.649651 207.310814 
L 564.561511 213.938316 
L 565.503766 182.578915 
L 566.446021 147.178354 
L 567.357881 208.523162 
L 568.300136 192.681815 
L 569.211996 205.290234 
L 570.154251 199.551787 
L 571.096507 199.753845 
L 571.947576 198.703143 
L 572.889831 189.974238 
L 573.801691 166.212217 
L 574.743946 189.853003 
L 575.655806 147.58247 
L 576.598061 196.116801 
L 577.540316 293.427933 
L 578.452176 194.904453 
L 579.394432 209.169748 
L 580.306292 199.551787 
L 581.248547 199.551787 
L 582.190802 198.945613 
L 583.072267 199.996315 
L 584.014522 198.218204 
L 584.926382 185.852255 
L 585.868637 183.548794 
L 586.780497 246.10595 
L 587.722752 245.701834 
L 588.665007 107.534575 
L 589.576867 226.870028 
L 590.519122 199.107259 
L 592.373238 198.218204 
L 593.315493 200.157961 
L 594.166562 194.82363 
L 595.108817 187.99407 
L 596.020677 222.384341 
L 596.962932 194.621572 
L 597.874792 174.456184 
L 598.817047 194.379102 
L 599.759303 228.971432 
L 600.671163 208.684809 
L 601.613418 200.198373 
L 602.525278 199.147671 
L 603.467533 190.418765 
L 604.409788 193.005108 
L 605.260857 198.743555 
L 606.203113 214.78696 
L 607.114973 209.452629 
L 608.057228 196.116801 
L 608.969088 231.598186 
L 609.911343 221.333639 
L 610.853598 230.345426 
L 611.765458 179.224752 
L 612.707713 187.185838 
L 613.619573 200.88537 
L 614.561828 210.018391 
L 615.504084 206.421759 
L 616.355153 204.118298 
L 617.297408 204.92653 
L 618.209268 193.894163 
L 619.151523 137.560393 
L 620.063383 217.494537 
L 621.005638 128.104079 
L 621.947894 206.300524 
L 622.859753 153.522975 
L 623.802009 201.249074 
L 624.713869 199.551787 
L 625.656124 189.287241 
L 626.598379 199.147671 
L 627.479844 196.722975 
L 628.422099 186.337194 
L 629.333959 174.415772 
L 630.276214 265.624752 
L 631.188074 145.885183 
L 632.130329 247.075828 
L 633.072584 154.816146 
L 633.984444 245.823069 
L 634.926699 211.149916 
L 635.838559 199.551787 
L 636.780815 209.816333 
L 637.72307 199.955903 
L 638.574139 194.864041 
L 639.516394 207.71493 
L 640.428254 214.584902 
L 641.370509 244.166193 
L 643.224624 187.307072 
L 644.16688 296.095099 
L 645.07874 211.75609 
L 646.020995 193.368812 
L 646.932855 199.551787 
L 647.87511 199.228494 
L 648.817365 199.551787 
L 649.668434 202.178541 
L 650.61069 183.144678 
L 651.52255 191.711937 
L 652.464805 170.293789 
L 653.376665 176.436352 
L 654.31892 191.873583 
L 655.261175 177.325407 
L 656.173035 185.97349 
L 657.11529 196.884621 
L 658.02715 199.228494 
L 658.969405 197.531207 
L 659.911661 185.650197 
L 660.76273 205.815585 
L 661.704985 208.159458 
L 662.616845 178.861048 
L 667.26733 240.81203 
L 668.209586 276.859177 
L 669.121446 266.635042 
L 670.063701 241.660674 
L 671.005956 228.203611 
L 671.887421 207.068345 
L 672.829676 192.237287 
L 673.741536 191.469467 
L 674.683791 101.634481 
L 675.595651 125.234855 
L 676.537906 172.395192 
L 678.392021 197.814088 
L 679.334276 198.137381 
L 680.246136 199.551787 
L 680.246136 199.551787 
" clip-path="url(#p359e59be90)" style="fill: none; stroke: #194a7a; stroke-width: 0.8; stroke-linecap: round"/>
   </g>
   <g id="patch_3">
    <path d="M 41.0825 356.031562 
L 41.0825 23.391562 
" style="fill: none; stroke: #cccccc; stroke-width: 1.25; stroke-linejoin: miter; stroke-linecap: square"/>
   </g>
   <g id="patch_4">
    <path d="M 710.6825 356.031562 
L 710.6825 23.391562 
" style="fill: none; stroke: #cccccc; stroke-width: 1.25; stroke-linejoin: miter; stroke-linecap: square"/>
   </g>
   <g id="patch_5">
    <path d="M 41.0825 356.031562 
L 710.6825 356.031562 
" style="fill: none; stroke: #cccccc; stroke-width: 1.25; stroke-linejoin: miter; stroke-linecap: square"/>
   </g>
   <g id="patch_6">
    <path d="M 41.0825 23.391562 
L 710.6825 23.391562 
" style="fill: none; stroke: #cccccc; stroke-width: 1.25; stroke-linejoin: miter; stroke-linecap: square"/>
   </g>
   <g id="text_28">
    <!-- Primera Diferencia Estacional, Estandarizada, Precipitación Mensual en Puebla -->
    <g style="fill: #262626" transform="translate(112.913281 17.391562) scale(0.14 -0.14)">
     <defs>
      <path id="Arial-BoldMT-50" d="M 466 0 
L 466 4581 
L 1950 4581 
Q 2794 4581 3050 4513 
Q 3444 4409 3709 4064 
Q 3975 3719 3975 3172 
Q 3975 2750 3822 2462 
Q 3669 2175 3433 2011 
Q 3197 1847 2953 1794 
Q 2622 1728 1994 1728 
L 1391 1728 
L 1391 0 
L 466 0 
z
M 1391 3806 
L 1391 2506 
L 1897 2506 
Q 2444 2506 2628 2578 
Q 2813 2650 2917 2803 
Q 3022 2956 3022 3159 
Q 3022 3409 2875 3571 
Q 2728 3734 2503 3775 
Q 2338 3806 1838 3806 
L 1391 3806 
z
" transform="scale(0.015625)"/>
      <path id="Arial-BoldMT-72" d="M 1300 0 
L 422 0 
L 422 3319 
L 1238 3319 
L 1238 2847 
Q 1447 3181 1614 3287 
Q 1781 3394 1994 3394 
Q 2294 3394 2572 3228 
L 2300 2463 
Q 2078 2606 1888 2606 
Q 1703 2606 1575 2504 
Q 1447 2403 1373 2137 
Q 1300 1872 1300 1025 
L 1300 0 
z
" transform="scale(0.015625)"/>
      <path id="Arial-BoldMT-69" d="M 459 3769 
L 459 4581 
L 1338 4581 
L 1338 3769 
L 459 3769 
z
M 459 0 
L 459 3319 
L 1338 3319 
L 1338 0 
L 459 0 
z
" transform="scale(0.015625)"/>
      <path id="Arial-BoldMT-6d" d="M 394 3319 
L 1203 3319 
L 1203 2866 
Q 1638 3394 2238 3394 
Q 2556 3394 2790 3262 
Q 3025 3131 3175 2866 
Q 3394 3131 3647 3262 
Q 3900 3394 4188 3394 
Q 4553 3394 4806 3245 
Q 5059 3097 5184 2809 
Q 5275 2597 5275 2122 
L 5275 0 
L 4397 0 
L 4397 1897 
Q 4397 2391 4306 2534 
Q 4184 2722 3931 2722 
Q 3747 2722 3584 2609 
Q 3422 2497 3350 2280 
Q 3278 2063 3278 1594 
L 3278 0 
L 2400 0 
L 2400 1819 
Q 2400 2303 2353 2443 
Q 2306 2584 2207 2653 
Q 2109 2722 1941 2722 
Q 1738 2722 1575 2612 
Q 1413 2503 1342 2297 
Q 1272 2091 1272 1613 
L 1272 0 
L 394 0 
L 394 3319 
z
" transform="scale(0.015625)"/>
      <path id="Arial-BoldMT-65" d="M 2381 1056 
L 3256 909 
Q 3088 428 2723 176 
Q 2359 -75 1813 -75 
Q 947 -75 531 491 
Q 203 944 203 1634 
Q 203 2459 634 2926 
Q 1066 3394 1725 3394 
Q 2466 3394 2894 2905 
Q 3322 2416 3303 1406 
L 1103 1406 
Q 1113 1016 1316 798 
Q 1519 581 1822 581 
Q 2028 581 2168 693 
Q 2309 806 2381 1056 
z
M 2431 1944 
Q 2422 2325 2234 2523 
Q 2047 2722 1778 2722 
Q 1491 2722 1303 2513 
Q 1116 2303 1119 1944 
L 2431 1944 
z
" transform="scale(0.015625)"/>
      <path id="Arial-BoldMT-61" d="M 1116 2306 
L 319 2450 
Q 453 2931 781 3162 
Q 1109 3394 1756 3394 
Q 2344 3394 2631 3255 
Q 2919 3116 3036 2902 
Q 3153 2688 3153 2116 
L 3144 1091 
Q 3144 653 3186 445 
Q 3228 238 3344 0 
L 2475 0 
Q 2441 88 2391 259 
Q 2369 338 2359 363 
Q 2134 144 1878 34 
Q 1622 -75 1331 -75 
Q 819 -75 523 203 
Q 228 481 228 906 
Q 228 1188 362 1408 
Q 497 1628 739 1745 
Q 981 1863 1438 1950 
Q 2053 2066 2291 2166 
L 2291 2253 
Q 2291 2506 2166 2614 
Q 2041 2722 1694 2722 
Q 1459 2722 1328 2630 
Q 1197 2538 1116 2306 
z
M 2291 1594 
Q 2122 1538 1756 1459 
Q 1391 1381 1278 1306 
Q 1106 1184 1106 997 
Q 1106 813 1243 678 
Q 1381 544 1594 544 
Q 1831 544 2047 700 
Q 2206 819 2256 991 
Q 2291 1103 2291 1419 
L 2291 1594 
z
" transform="scale(0.015625)"/>
      <path id="Arial-BoldMT-20" transform="scale(0.015625)"/>
      <path id="Arial-BoldMT-44" d="M 463 4581 
L 2153 4581 
Q 2725 4581 3025 4494 
Q 3428 4375 3715 4072 
Q 4003 3769 4153 3330 
Q 4303 2891 4303 2247 
Q 4303 1681 4163 1272 
Q 3991 772 3672 463 
Q 3431 228 3022 97 
Q 2716 0 2203 0 
L 463 0 
L 463 4581 
z
M 1388 3806 
L 1388 772 
L 2078 772 
Q 2466 772 2638 816 
Q 2863 872 3011 1006 
Q 3159 1141 3253 1448 
Q 3347 1756 3347 2288 
Q 3347 2819 3253 3103 
Q 3159 3388 2990 3547 
Q 2822 3706 2563 3763 
Q 2369 3806 1803 3806 
L 1388 3806 
z
" transform="scale(0.015625)"/>
      <path id="Arial-BoldMT-66" d="M 75 3319 
L 563 3319 
L 563 3569 
Q 563 3988 652 4194 
Q 741 4400 980 4529 
Q 1219 4659 1584 4659 
Q 1959 4659 2319 4547 
L 2200 3934 
Q 1991 3984 1797 3984 
Q 1606 3984 1523 3895 
Q 1441 3806 1441 3553 
L 1441 3319 
L 2097 3319 
L 2097 2628 
L 1441 2628 
L 1441 0 
L 563 0 
L 563 2628 
L 75 2628 
L 75 3319 
z
" transform="scale(0.015625)"/>
      <path id="Arial-BoldMT-6e" d="M 3478 0 
L 2600 0 
L 2600 1694 
Q 2600 2231 2544 2389 
Q 2488 2547 2361 2634 
Q 2234 2722 2056 2722 
Q 1828 2722 1647 2597 
Q 1466 2472 1398 2265 
Q 1331 2059 1331 1503 
L 1331 0 
L 453 0 
L 453 3319 
L 1269 3319 
L 1269 2831 
Q 1703 3394 2363 3394 
Q 2653 3394 2893 3289 
Q 3134 3184 3257 3021 
Q 3381 2859 3429 2653 
Q 3478 2447 3478 2063 
L 3478 0 
z
" transform="scale(0.015625)"/>
      <path id="Arial-BoldMT-63" d="M 3353 2338 
L 2488 2181 
Q 2444 2441 2289 2572 
Q 2134 2703 1888 2703 
Q 1559 2703 1364 2476 
Q 1169 2250 1169 1719 
Q 1169 1128 1367 884 
Q 1566 641 1900 641 
Q 2150 641 2309 783 
Q 2469 925 2534 1272 
L 3397 1125 
Q 3263 531 2881 228 
Q 2500 -75 1859 -75 
Q 1131 -75 698 384 
Q 266 844 266 1656 
Q 266 2478 700 2936 
Q 1134 3394 1875 3394 
Q 2481 3394 2839 3133 
Q 3197 2872 3353 2338 
z
" transform="scale(0.015625)"/>
      <path id="Arial-BoldMT-45" d="M 466 0 
L 466 4581 
L 3863 4581 
L 3863 3806 
L 1391 3806 
L 1391 2791 
L 3691 2791 
L 3691 2019 
L 1391 2019 
L 1391 772 
L 3950 772 
L 3950 0 
L 466 0 
z
" transform="scale(0.015625)"/>
      <path id="Arial-BoldMT-73" d="M 150 947 
L 1031 1081 
Q 1088 825 1259 692 
Q 1431 559 1741 559 
Q 2081 559 2253 684 
Q 2369 772 2369 919 
Q 2369 1019 2306 1084 
Q 2241 1147 2013 1200 
Q 950 1434 666 1628 
Q 272 1897 272 2375 
Q 272 2806 612 3100 
Q 953 3394 1669 3394 
Q 2350 3394 2681 3172 
Q 3013 2950 3138 2516 
L 2309 2363 
Q 2256 2556 2107 2659 
Q 1959 2763 1684 2763 
Q 1338 2763 1188 2666 
Q 1088 2597 1088 2488 
Q 1088 2394 1175 2328 
Q 1294 2241 1995 2081 
Q 2697 1922 2975 1691 
Q 3250 1456 3250 1038 
Q 3250 581 2869 253 
Q 2488 -75 1741 -75 
Q 1063 -75 667 200 
Q 272 475 150 947 
z
" transform="scale(0.015625)"/>
      <path id="Arial-BoldMT-74" d="M 1981 3319 
L 1981 2619 
L 1381 2619 
L 1381 1281 
Q 1381 875 1398 808 
Q 1416 741 1477 697 
Q 1538 653 1625 653 
Q 1747 653 1978 738 
L 2053 56 
Q 1747 -75 1359 -75 
Q 1122 -75 931 4 
Q 741 84 652 211 
Q 563 338 528 553 
Q 500 706 500 1172 
L 500 2619 
L 97 2619 
L 97 3319 
L 500 3319 
L 500 3978 
L 1381 4491 
L 1381 3319 
L 1981 3319 
z
" transform="scale(0.015625)"/>
      <path id="Arial-BoldMT-6f" d="M 256 1706 
Q 256 2144 472 2553 
Q 688 2963 1083 3178 
Q 1478 3394 1966 3394 
Q 2719 3394 3200 2905 
Q 3681 2416 3681 1669 
Q 3681 916 3195 420 
Q 2709 -75 1972 -75 
Q 1516 -75 1102 131 
Q 688 338 472 736 
Q 256 1134 256 1706 
z
M 1156 1659 
Q 1156 1166 1390 903 
Q 1625 641 1969 641 
Q 2313 641 2545 903 
Q 2778 1166 2778 1666 
Q 2778 2153 2545 2415 
Q 2313 2678 1969 2678 
Q 1625 2678 1390 2415 
Q 1156 2153 1156 1659 
z
" transform="scale(0.015625)"/>
      <path id="Arial-BoldMT-6c" d="M 459 0 
L 459 4581 
L 1338 4581 
L 1338 0 
L 459 0 
z
" transform="scale(0.015625)"/>
      <path id="Arial-BoldMT-2c" d="M 438 878 
L 1316 878 
L 1316 250 
Q 1316 -131 1250 -351 
Q 1184 -572 1001 -747 
Q 819 -922 538 -1022 
L 366 -659 
Q 631 -572 743 -419 
Q 856 -266 863 0 
L 438 0 
L 438 878 
z
" transform="scale(0.015625)"/>
      <path id="Arial-BoldMT-64" d="M 3503 0 
L 2688 0 
L 2688 488 
Q 2484 203 2207 64 
Q 1931 -75 1650 -75 
Q 1078 -75 670 386 
Q 263 847 263 1672 
Q 263 2516 659 2955 
Q 1056 3394 1663 3394 
Q 2219 3394 2625 2931 
L 2625 4581 
L 3503 4581 
L 3503 0 
z
M 1159 1731 
Q 1159 1200 1306 963 
Q 1519 619 1900 619 
Q 2203 619 2415 876 
Q 2628 1134 2628 1647 
Q 2628 2219 2422 2470 
Q 2216 2722 1894 2722 
Q 1581 2722 1370 2473 
Q 1159 2225 1159 1731 
z
" transform="scale(0.015625)"/>
      <path id="Arial-BoldMT-7a" d="M 106 0 
L 106 684 
L 1350 2113 
Q 1656 2463 1803 2609 
Q 1650 2600 1400 2597 
L 228 2591 
L 228 3319 
L 2972 3319 
L 2972 2697 
L 1703 1234 
L 1256 750 
Q 1622 772 1709 772 
L 3069 772 
L 3069 0 
L 106 0 
z
" transform="scale(0.015625)"/>
      <path id="Arial-BoldMT-70" d="M 434 3319 
L 1253 3319 
L 1253 2831 
Q 1413 3081 1684 3237 
Q 1956 3394 2288 3394 
Q 2866 3394 3269 2941 
Q 3672 2488 3672 1678 
Q 3672 847 3265 386 
Q 2859 -75 2281 -75 
Q 2006 -75 1782 34 
Q 1559 144 1313 409 
L 1313 -1263 
L 434 -1263 
L 434 3319 
z
M 1303 1716 
Q 1303 1156 1525 889 
Q 1747 622 2066 622 
Q 2372 622 2575 867 
Q 2778 1113 2778 1672 
Q 2778 2194 2568 2447 
Q 2359 2700 2050 2700 
Q 1728 2700 1515 2451 
Q 1303 2203 1303 1716 
z
" transform="scale(0.015625)"/>
      <path id="Arial-BoldMT-f3" d="M 256 1706 
Q 256 2144 472 2553 
Q 688 2963 1083 3178 
Q 1478 3394 1966 3394 
Q 2719 3394 3200 2905 
Q 3681 2416 3681 1669 
Q 3681 916 3195 420 
Q 2709 -75 1972 -75 
Q 1516 -75 1102 131 
Q 688 338 472 736 
Q 256 1134 256 1706 
z
M 1156 1659 
Q 1156 1166 1390 903 
Q 1625 641 1969 641 
Q 2313 641 2545 903 
Q 2778 1166 2778 1666 
Q 2778 2153 2545 2415 
Q 2313 2678 1969 2678 
Q 1625 2678 1390 2415 
Q 1156 2153 1156 1659 
z
M 1528 3725 
L 1960 4659 
L 2944 4659 
L 2085 3725 
L 1528 3725 
z
" transform="scale(0.015625)"/>
      <path id="Arial-BoldMT-4d" d="M 453 0 
L 453 4581 
L 1838 4581 
L 2669 1456 
L 3491 4581 
L 4878 4581 
L 4878 0 
L 4019 0 
L 4019 3606 
L 3109 0 
L 2219 0 
L 1313 3606 
L 1313 0 
L 453 0 
z
" transform="scale(0.015625)"/>
      <path id="Arial-BoldMT-75" d="M 2644 0 
L 2644 497 
Q 2463 231 2167 78 
Q 1872 -75 1544 -75 
Q 1209 -75 943 72 
Q 678 219 559 484 
Q 441 750 441 1219 
L 441 3319 
L 1319 3319 
L 1319 1794 
Q 1319 1094 1367 936 
Q 1416 778 1544 686 
Q 1672 594 1869 594 
Q 2094 594 2272 717 
Q 2450 841 2515 1023 
Q 2581 1206 2581 1919 
L 2581 3319 
L 3459 3319 
L 3459 0 
L 2644 0 
z
" transform="scale(0.015625)"/>
      <path id="Arial-BoldMT-62" d="M 422 0 
L 422 4581 
L 1300 4581 
L 1300 2931 
Q 1706 3394 2263 3394 
Q 2869 3394 3266 2955 
Q 3663 2516 3663 1694 
Q 3663 844 3258 384 
Q 2853 -75 2275 -75 
Q 1991 -75 1714 67 
Q 1438 209 1238 488 
L 1238 0 
L 422 0 
z
M 1294 1731 
Q 1294 1216 1456 969 
Q 1684 619 2063 619 
Q 2353 619 2558 867 
Q 2763 1116 2763 1650 
Q 2763 2219 2556 2470 
Q 2350 2722 2028 2722 
Q 1713 2722 1503 2476 
Q 1294 2231 1294 1731 
z
" transform="scale(0.015625)"/>
     </defs>
     <use xlink:href="#Arial-BoldMT-50"/>
     <use xlink:href="#Arial-BoldMT-72" x="66.699219"/>
     <use xlink:href="#Arial-BoldMT-69" x="105.615234"/>
     <use xlink:href="#Arial-BoldMT-6d" x="133.398438"/>
     <use xlink:href="#Arial-BoldMT-65" x="222.314453"/>
     <use xlink:href="#Arial-BoldMT-72" x="277.929688"/>
     <use xlink:href="#Arial-BoldMT-61" x="316.845703"/>
     <use xlink:href="#Arial-BoldMT-20" x="372.460938"/>
     <use xlink:href="#Arial-BoldMT-44" x="400.244141"/>
     <use xlink:href="#Arial-BoldMT-69" x="472.460938"/>
     <use xlink:href="#Arial-BoldMT-66" x="500.244141"/>
     <use xlink:href="#Arial-BoldMT-65" x="533.544922"/>
     <use xlink:href="#Arial-BoldMT-72" x="589.160156"/>
     <use xlink:href="#Arial-BoldMT-65" x="628.076172"/>
     <use xlink:href="#Arial-BoldMT-6e" x="683.691406"/>
     <use xlink:href="#Arial-BoldMT-63" x="744.775391"/>
     <use xlink:href="#Arial-BoldMT-69" x="800.390625"/>
     <use xlink:href="#Arial-BoldMT-61" x="828.173828"/>
     <use xlink:href="#Arial-BoldMT-20" x="883.789062"/>
     <use xlink:href="#Arial-BoldMT-45" x="911.572266"/>
     <use xlink:href="#Arial-BoldMT-73" x="978.271484"/>
     <use xlink:href="#Arial-BoldMT-74" x="1033.886719"/>
     <use xlink:href="#Arial-BoldMT-61" x="1067.1875"/>
     <use xlink:href="#Arial-BoldMT-63" x="1122.802734"/>
     <use xlink:href="#Arial-BoldMT-69" x="1178.417969"/>
     <use xlink:href="#Arial-BoldMT-6f" x="1206.201172"/>
     <use xlink:href="#Arial-BoldMT-6e" x="1267.285156"/>
     <use xlink:href="#Arial-BoldMT-61" x="1328.369141"/>
     <use xlink:href="#Arial-BoldMT-6c" x="1383.984375"/>
     <use xlink:href="#Arial-BoldMT-2c" x="1411.767578"/>
     <use xlink:href="#Arial-BoldMT-20" x="1439.550781"/>
     <use xlink:href="#Arial-BoldMT-45" x="1467.333984"/>
     <use xlink:href="#Arial-BoldMT-73" x="1534.033203"/>
     <use xlink:href="#Arial-BoldMT-74" x="1589.648438"/>
     <use xlink:href="#Arial-BoldMT-61" x="1622.949219"/>
     <use xlink:href="#Arial-BoldMT-6e" x="1678.564453"/>
     <use xlink:href="#Arial-BoldMT-64" x="1739.648438"/>
     <use xlink:href="#Arial-BoldMT-61" x="1800.732422"/>
     <use xlink:href="#Arial-BoldMT-72" x="1856.347656"/>
     <use xlink:href="#Arial-BoldMT-69" x="1895.263672"/>
     <use xlink:href="#Arial-BoldMT-7a" x="1923.046875"/>
     <use xlink:href="#Arial-BoldMT-61" x="1973.046875"/>
     <use xlink:href="#Arial-BoldMT-64" x="2028.662109"/>
     <use xlink:href="#Arial-BoldMT-61" x="2089.746094"/>
     <use xlink:href="#Arial-BoldMT-2c" x="2145.361328"/>
     <use xlink:href="#Arial-BoldMT-20" x="2173.144531"/>
     <use xlink:href="#Arial-BoldMT-50" x="2200.927734"/>
     <use xlink:href="#Arial-BoldMT-72" x="2267.626953"/>
     <use xlink:href="#Arial-BoldMT-65" x="2306.542969"/>
     <use xlink:href="#Arial-BoldMT-63" x="2362.158203"/>
     <use xlink:href="#Arial-BoldMT-69" x="2417.773438"/>
     <use xlink:href="#Arial-BoldMT-70" x="2445.556641"/>
     <use xlink:href="#Arial-BoldMT-69" x="2506.640625"/>
     <use xlink:href="#Arial-BoldMT-74" x="2534.423828"/>
     <use xlink:href="#Arial-BoldMT-61" x="2567.724609"/>
     <use xlink:href="#Arial-BoldMT-63" x="2623.339844"/>
     <use xlink:href="#Arial-BoldMT-69" x="2678.955078"/>
     <use xlink:href="#Arial-BoldMT-f3" x="2706.738281"/>
     <use xlink:href="#Arial-BoldMT-6e" x="2767.822266"/>
     <use xlink:href="#Arial-BoldMT-20" x="2828.90625"/>
     <use xlink:href="#Arial-BoldMT-4d" x="2856.689453"/>
     <use xlink:href="#Arial-BoldMT-65" x="2939.990234"/>
     <use xlink:href="#Arial-BoldMT-6e" x="2995.605469"/>
     <use xlink:href="#Arial-BoldMT-73" x="3056.689453"/>
     <use xlink:href="#Arial-BoldMT-75" x="3112.304688"/>
     <use xlink:href="#Arial-BoldMT-61" x="3173.388672"/>
     <use xlink:href="#Arial-BoldMT-6c" x="3229.003906"/>
     <use xlink:href="#Arial-BoldMT-20" x="3256.787109"/>
     <use xlink:href="#Arial-BoldMT-65" x="3284.570312"/>
     <use xlink:href="#Arial-BoldMT-6e" x="3340.185547"/>
     <use xlink:href="#Arial-BoldMT-20" x="3401.269531"/>
     <use xlink:href="#Arial-BoldMT-50" x="3429.052734"/>
     <use xlink:href="#Arial-BoldMT-75" x="3495.751953"/>
     <use xlink:href="#Arial-BoldMT-65" x="3556.835938"/>
     <use xlink:href="#Arial-BoldMT-62" x="3612.451172"/>
     <use xlink:href="#Arial-BoldMT-6c" x="3673.535156"/>
     <use xlink:href="#Arial-BoldMT-61" x="3701.318359"/>
    </g>
   </g>
  </g>
 </g>
 <defs>
  <clipPath id="p359e59be90">
   <rect x="41.0825" y="23.391562" width="669.6" height="332.64"/>
  </clipPath>
 </defs>
</svg>
