<?xml version="1.0" encoding="utf-8" standalone="no"?>
<!DOCTYPE svg PUBLIC "-//W3C//DTD SVG 1.1//EN"
  "http://www.w3.org/Graphics/SVG/1.1/DTD/svg11.dtd">
<svg xmlns:xlink="http://www.w3.org/1999/xlink" width="936.94125pt" height="281.77625pt" viewBox="0 0 936.94125 281.77625" xmlns="http://www.w3.org/2000/svg" version="1.1">
 <metadata>
  <rdf:RDF xmlns:dc="http://purl.org/dc/elements/1.1/" xmlns:cc="http://creativecommons.org/ns#" xmlns:rdf="http://www.w3.org/1999/02/22-rdf-syntax-ns#">
   <cc:Work>
    <dc:type rdf:resource="http://purl.org/dc/dcmitype/StillImage"/>
    <dc:date>2025-04-27T20:26:25.397880</dc:date>
    <dc:format>image/svg+xml</dc:format>
    <dc:creator>
     <cc:Agent>
      <dc:title>Matplotlib v3.8.4, https://matplotlib.org/</dc:title>
     </cc:Agent>
    </dc:creator>
   </cc:Work>
  </rdf:RDF>
 </metadata>
 <defs>
  <style type="text/css">*{stroke-linejoin: round; stroke-linecap: butt}</style>
 </defs>
 <g id="figure_1">
  <g id="patch_1">
   <path d="M 0 281.77625 
L 936.94125 281.77625 
L 936.94125 0 
L 0 0 
z
" style="fill: #ffffff"/>
  </g>
  <g id="axes_1">
   <g id="patch_2">
    <path d="M 36.94125 257.76 
L 442.759432 257.76 
L 442.759432 59.04 
L 36.94125 59.04 
z
" style="fill: #ffffff"/>
   </g>
   <g id="matplotlib.axis_1">
    <g id="xtick_1">
     <g id="line2d_1">
      <path d="M 55.387531 257.76 
L 55.387531 59.04 
" clip-path="url(#p65d68cb3a6)" style="fill: none; stroke-dasharray: 1.85,0.8; stroke-dashoffset: 0; stroke: #808080; stroke-width: 0.5"/>
     </g>
     <g id="text_1">
      <!-- 0 -->
      <g style="fill: #262626" transform="translate(53.163156 272.98625) scale(0.08 -0.08)">
       <defs>
        <path id="ArialMT-30" d="M 266 2259 
Q 266 3072 433 3567 
Q 600 4063 929 4331 
Q 1259 4600 1759 4600 
Q 2128 4600 2406 4451 
Q 2684 4303 2865 4023 
Q 3047 3744 3150 3342 
Q 3253 2941 3253 2259 
Q 3253 1453 3087 958 
Q 2922 463 2592 192 
Q 2263 -78 1759 -78 
Q 1097 -78 719 397 
Q 266 969 266 2259 
z
M 844 2259 
Q 844 1131 1108 757 
Q 1372 384 1759 384 
Q 2147 384 2411 759 
Q 2675 1134 2675 2259 
Q 2675 3391 2411 3762 
Q 2147 4134 1753 4134 
Q 1366 4134 1134 3806 
Q 844 3388 844 2259 
z
" transform="scale(0.015625)"/>
       </defs>
       <use xlink:href="#ArialMT-30"/>
      </g>
     </g>
    </g>
    <g id="xtick_2">
     <g id="line2d_2">
      <path d="M 101.027814 257.76 
L 101.027814 59.04 
" clip-path="url(#p65d68cb3a6)" style="fill: none; stroke-dasharray: 1.85,0.8; stroke-dashoffset: 0; stroke: #808080; stroke-width: 0.5"/>
     </g>
     <g id="text_2">
      <!-- 6 -->
      <g style="fill: #262626" transform="translate(98.803439 272.98625) scale(0.08 -0.08)">
       <defs>
        <path id="ArialMT-36" d="M 3184 3459 
L 2625 3416 
Q 2550 3747 2413 3897 
Q 2184 4138 1850 4138 
Q 1581 4138 1378 3988 
Q 1113 3794 959 3422 
Q 806 3050 800 2363 
Q 1003 2672 1297 2822 
Q 1591 2972 1913 2972 
Q 2475 2972 2870 2558 
Q 3266 2144 3266 1488 
Q 3266 1056 3080 686 
Q 2894 316 2569 119 
Q 2244 -78 1831 -78 
Q 1128 -78 684 439 
Q 241 956 241 2144 
Q 241 3472 731 4075 
Q 1159 4600 1884 4600 
Q 2425 4600 2770 4297 
Q 3116 3994 3184 3459 
z
M 888 1484 
Q 888 1194 1011 928 
Q 1134 663 1356 523 
Q 1578 384 1822 384 
Q 2178 384 2434 671 
Q 2691 959 2691 1453 
Q 2691 1928 2437 2201 
Q 2184 2475 1800 2475 
Q 1419 2475 1153 2201 
Q 888 1928 888 1484 
z
" transform="scale(0.015625)"/>
       </defs>
       <use xlink:href="#ArialMT-36"/>
      </g>
     </g>
    </g>
    <g id="xtick_3">
     <g id="line2d_3">
      <path d="M 146.668097 257.76 
L 146.668097 59.04 
" clip-path="url(#p65d68cb3a6)" style="fill: none; stroke-dasharray: 1.85,0.8; stroke-dashoffset: 0; stroke: #808080; stroke-width: 0.5"/>
     </g>
     <g id="text_3">
      <!-- 12 -->
      <g style="fill: #262626" transform="translate(142.219347 272.98625) scale(0.08 -0.08)">
       <defs>
        <path id="ArialMT-31" d="M 2384 0 
L 1822 0 
L 1822 3584 
Q 1619 3391 1289 3197 
Q 959 3003 697 2906 
L 697 3450 
Q 1169 3672 1522 3987 
Q 1875 4303 2022 4600 
L 2384 4600 
L 2384 0 
z
" transform="scale(0.015625)"/>
        <path id="ArialMT-32" d="M 3222 541 
L 3222 0 
L 194 0 
Q 188 203 259 391 
Q 375 700 629 1000 
Q 884 1300 1366 1694 
Q 2113 2306 2375 2664 
Q 2638 3022 2638 3341 
Q 2638 3675 2398 3904 
Q 2159 4134 1775 4134 
Q 1369 4134 1125 3890 
Q 881 3647 878 3216 
L 300 3275 
Q 359 3922 746 4261 
Q 1134 4600 1788 4600 
Q 2447 4600 2831 4234 
Q 3216 3869 3216 3328 
Q 3216 3053 3103 2787 
Q 2991 2522 2730 2228 
Q 2469 1934 1863 1422 
Q 1356 997 1212 845 
Q 1069 694 975 541 
L 3222 541 
z
" transform="scale(0.015625)"/>
       </defs>
       <use xlink:href="#ArialMT-31"/>
       <use xlink:href="#ArialMT-32" x="55.615234"/>
      </g>
     </g>
    </g>
    <g id="xtick_4">
     <g id="line2d_4">
      <path d="M 192.30838 257.76 
L 192.30838 59.04 
" clip-path="url(#p65d68cb3a6)" style="fill: none; stroke-dasharray: 1.85,0.8; stroke-dashoffset: 0; stroke: #808080; stroke-width: 0.5"/>
     </g>
     <g id="text_4">
      <!-- 18 -->
      <g style="fill: #262626" transform="translate(187.85963 272.98625) scale(0.08 -0.08)">
       <defs>
        <path id="ArialMT-38" d="M 1131 2484 
Q 781 2613 612 2850 
Q 444 3088 444 3419 
Q 444 3919 803 4259 
Q 1163 4600 1759 4600 
Q 2359 4600 2725 4251 
Q 3091 3903 3091 3403 
Q 3091 3084 2923 2848 
Q 2756 2613 2416 2484 
Q 2838 2347 3058 2040 
Q 3278 1734 3278 1309 
Q 3278 722 2862 322 
Q 2447 -78 1769 -78 
Q 1091 -78 675 323 
Q 259 725 259 1325 
Q 259 1772 486 2073 
Q 713 2375 1131 2484 
z
M 1019 3438 
Q 1019 3113 1228 2906 
Q 1438 2700 1772 2700 
Q 2097 2700 2305 2904 
Q 2513 3109 2513 3406 
Q 2513 3716 2298 3927 
Q 2084 4138 1766 4138 
Q 1444 4138 1231 3931 
Q 1019 3725 1019 3438 
z
M 838 1322 
Q 838 1081 952 856 
Q 1066 631 1291 507 
Q 1516 384 1775 384 
Q 2178 384 2440 643 
Q 2703 903 2703 1303 
Q 2703 1709 2433 1975 
Q 2163 2241 1756 2241 
Q 1359 2241 1098 1978 
Q 838 1716 838 1322 
z
" transform="scale(0.015625)"/>
       </defs>
       <use xlink:href="#ArialMT-31"/>
       <use xlink:href="#ArialMT-38" x="55.615234"/>
      </g>
     </g>
    </g>
    <g id="xtick_5">
     <g id="line2d_5">
      <path d="M 237.948662 257.76 
L 237.948662 59.04 
" clip-path="url(#p65d68cb3a6)" style="fill: none; stroke-dasharray: 1.85,0.8; stroke-dashoffset: 0; stroke: #808080; stroke-width: 0.5"/>
     </g>
     <g id="text_5">
      <!-- 24 -->
      <g style="fill: #262626" transform="translate(233.499912 272.98625) scale(0.08 -0.08)">
       <defs>
        <path id="ArialMT-34" d="M 2069 0 
L 2069 1097 
L 81 1097 
L 81 1613 
L 2172 4581 
L 2631 4581 
L 2631 1613 
L 3250 1613 
L 3250 1097 
L 2631 1097 
L 2631 0 
L 2069 0 
z
M 2069 1613 
L 2069 3678 
L 634 1613 
L 2069 1613 
z
" transform="scale(0.015625)"/>
       </defs>
       <use xlink:href="#ArialMT-32"/>
       <use xlink:href="#ArialMT-34" x="55.615234"/>
      </g>
     </g>
    </g>
    <g id="xtick_6">
     <g id="line2d_6">
      <path d="M 283.588945 257.76 
L 283.588945 59.04 
" clip-path="url(#p65d68cb3a6)" style="fill: none; stroke-dasharray: 1.85,0.8; stroke-dashoffset: 0; stroke: #808080; stroke-width: 0.5"/>
     </g>
     <g id="text_6">
      <!-- 30 -->
      <g style="fill: #262626" transform="translate(279.140195 272.98625) scale(0.08 -0.08)">
       <defs>
        <path id="ArialMT-33" d="M 269 1209 
L 831 1284 
Q 928 806 1161 595 
Q 1394 384 1728 384 
Q 2125 384 2398 659 
Q 2672 934 2672 1341 
Q 2672 1728 2419 1979 
Q 2166 2231 1775 2231 
Q 1616 2231 1378 2169 
L 1441 2663 
Q 1497 2656 1531 2656 
Q 1891 2656 2178 2843 
Q 2466 3031 2466 3422 
Q 2466 3731 2256 3934 
Q 2047 4138 1716 4138 
Q 1388 4138 1169 3931 
Q 950 3725 888 3313 
L 325 3413 
Q 428 3978 793 4289 
Q 1159 4600 1703 4600 
Q 2078 4600 2393 4439 
Q 2709 4278 2876 4000 
Q 3044 3722 3044 3409 
Q 3044 3113 2884 2869 
Q 2725 2625 2413 2481 
Q 2819 2388 3044 2092 
Q 3269 1797 3269 1353 
Q 3269 753 2831 336 
Q 2394 -81 1725 -81 
Q 1122 -81 723 278 
Q 325 638 269 1209 
z
" transform="scale(0.015625)"/>
       </defs>
       <use xlink:href="#ArialMT-33"/>
       <use xlink:href="#ArialMT-30" x="55.615234"/>
      </g>
     </g>
    </g>
    <g id="xtick_7">
     <g id="line2d_7">
      <path d="M 329.229228 257.76 
L 329.229228 59.04 
" clip-path="url(#p65d68cb3a6)" style="fill: none; stroke-dasharray: 1.85,0.8; stroke-dashoffset: 0; stroke: #808080; stroke-width: 0.5"/>
     </g>
     <g id="text_7">
      <!-- 36 -->
      <g style="fill: #262626" transform="translate(324.780478 272.98625) scale(0.08 -0.08)">
       <use xlink:href="#ArialMT-33"/>
       <use xlink:href="#ArialMT-36" x="55.615234"/>
      </g>
     </g>
    </g>
    <g id="xtick_8">
     <g id="line2d_8">
      <path d="M 374.869511 257.76 
L 374.869511 59.04 
" clip-path="url(#p65d68cb3a6)" style="fill: none; stroke-dasharray: 1.85,0.8; stroke-dashoffset: 0; stroke: #808080; stroke-width: 0.5"/>
     </g>
     <g id="text_8">
      <!-- 42 -->
      <g style="fill: #262626" transform="translate(370.420761 272.98625) scale(0.08 -0.08)">
       <use xlink:href="#ArialMT-34"/>
       <use xlink:href="#ArialMT-32" x="55.615234"/>
      </g>
     </g>
    </g>
    <g id="xtick_9">
     <g id="line2d_9">
      <path d="M 420.509794 257.76 
L 420.509794 59.04 
" clip-path="url(#p65d68cb3a6)" style="fill: none; stroke-dasharray: 1.85,0.8; stroke-dashoffset: 0; stroke: #808080; stroke-width: 0.5"/>
     </g>
     <g id="text_9">
      <!-- 48 -->
      <g style="fill: #262626" transform="translate(416.061044 272.98625) scale(0.08 -0.08)">
       <use xlink:href="#ArialMT-34"/>
       <use xlink:href="#ArialMT-38" x="55.615234"/>
      </g>
     </g>
    </g>
   </g>
   <g id="matplotlib.axis_2">
    <g id="ytick_1">
     <g id="line2d_10">
      <path d="M 36.94125 257.76 
L 442.759432 257.76 
" clip-path="url(#p65d68cb3a6)" style="fill: none; stroke-dasharray: 1.85,0.8; stroke-dashoffset: 0; stroke: #808080; stroke-width: 0.5"/>
     </g>
     <g id="text_10">
      <!-- −1.00 -->
      <g style="fill: #262626" transform="translate(7.2 260.623125) scale(0.08 -0.08)">
       <defs>
        <path id="ArialMT-2212" d="M 3381 1997 
L 356 1997 
L 356 2522 
L 3381 2522 
L 3381 1997 
z
" transform="scale(0.015625)"/>
        <path id="ArialMT-2e" d="M 581 0 
L 581 641 
L 1222 641 
L 1222 0 
L 581 0 
z
" transform="scale(0.015625)"/>
       </defs>
       <use xlink:href="#ArialMT-2212"/>
       <use xlink:href="#ArialMT-31" x="58.398438"/>
       <use xlink:href="#ArialMT-2e" x="114.013672"/>
       <use xlink:href="#ArialMT-30" x="141.796875"/>
       <use xlink:href="#ArialMT-30" x="197.412109"/>
      </g>
     </g>
    </g>
    <g id="ytick_2">
     <g id="line2d_11">
      <path d="M 36.94125 232.92 
L 442.759432 232.92 
" clip-path="url(#p65d68cb3a6)" style="fill: none; stroke-dasharray: 1.85,0.8; stroke-dashoffset: 0; stroke: #808080; stroke-width: 0.5"/>
     </g>
     <g id="text_11">
      <!-- −0.75 -->
      <g style="fill: #262626" transform="translate(7.2 235.783125) scale(0.08 -0.08)">
       <defs>
        <path id="ArialMT-37" d="M 303 3981 
L 303 4522 
L 3269 4522 
L 3269 4084 
Q 2831 3619 2401 2847 
Q 1972 2075 1738 1259 
Q 1569 684 1522 0 
L 944 0 
Q 953 541 1156 1306 
Q 1359 2072 1739 2783 
Q 2119 3494 2547 3981 
L 303 3981 
z
" transform="scale(0.015625)"/>
        <path id="ArialMT-35" d="M 266 1200 
L 856 1250 
Q 922 819 1161 601 
Q 1400 384 1738 384 
Q 2144 384 2425 690 
Q 2706 997 2706 1503 
Q 2706 1984 2436 2262 
Q 2166 2541 1728 2541 
Q 1456 2541 1237 2417 
Q 1019 2294 894 2097 
L 366 2166 
L 809 4519 
L 3088 4519 
L 3088 3981 
L 1259 3981 
L 1013 2750 
Q 1425 3038 1878 3038 
Q 2478 3038 2890 2622 
Q 3303 2206 3303 1553 
Q 3303 931 2941 478 
Q 2500 -78 1738 -78 
Q 1113 -78 717 272 
Q 322 622 266 1200 
z
" transform="scale(0.015625)"/>
       </defs>
       <use xlink:href="#ArialMT-2212"/>
       <use xlink:href="#ArialMT-30" x="58.398438"/>
       <use xlink:href="#ArialMT-2e" x="114.013672"/>
       <use xlink:href="#ArialMT-37" x="141.796875"/>
       <use xlink:href="#ArialMT-35" x="197.412109"/>
      </g>
     </g>
    </g>
    <g id="ytick_3">
     <g id="line2d_12">
      <path d="M 36.94125 208.08 
L 442.759432 208.08 
" clip-path="url(#p65d68cb3a6)" style="fill: none; stroke-dasharray: 1.85,0.8; stroke-dashoffset: 0; stroke: #808080; stroke-width: 0.5"/>
     </g>
     <g id="text_12">
      <!-- −0.50 -->
      <g style="fill: #262626" transform="translate(7.2 210.943125) scale(0.08 -0.08)">
       <use xlink:href="#ArialMT-2212"/>
       <use xlink:href="#ArialMT-30" x="58.398438"/>
       <use xlink:href="#ArialMT-2e" x="114.013672"/>
       <use xlink:href="#ArialMT-35" x="141.796875"/>
       <use xlink:href="#ArialMT-30" x="197.412109"/>
      </g>
     </g>
    </g>
    <g id="ytick_4">
     <g id="line2d_13">
      <path d="M 36.94125 183.24 
L 442.759432 183.24 
" clip-path="url(#p65d68cb3a6)" style="fill: none; stroke-dasharray: 1.85,0.8; stroke-dashoffset: 0; stroke: #808080; stroke-width: 0.5"/>
     </g>
     <g id="text_13">
      <!-- −0.25 -->
      <g style="fill: #262626" transform="translate(7.2 186.103125) scale(0.08 -0.08)">
       <use xlink:href="#ArialMT-2212"/>
       <use xlink:href="#ArialMT-30" x="58.398438"/>
       <use xlink:href="#ArialMT-2e" x="114.013672"/>
       <use xlink:href="#ArialMT-32" x="141.796875"/>
       <use xlink:href="#ArialMT-35" x="197.412109"/>
      </g>
     </g>
    </g>
    <g id="ytick_5">
     <g id="line2d_14">
      <path d="M 36.94125 158.4 
L 442.759432 158.4 
" clip-path="url(#p65d68cb3a6)" style="fill: none; stroke-dasharray: 1.85,0.8; stroke-dashoffset: 0; stroke: #808080; stroke-width: 0.5"/>
     </g>
     <g id="text_14">
      <!-- 0.00 -->
      <g style="fill: #262626" transform="translate(11.8725 161.263125) scale(0.08 -0.08)">
       <use xlink:href="#ArialMT-30"/>
       <use xlink:href="#ArialMT-2e" x="55.615234"/>
       <use xlink:href="#ArialMT-30" x="83.398438"/>
       <use xlink:href="#ArialMT-30" x="139.013672"/>
      </g>
     </g>
    </g>
    <g id="ytick_6">
     <g id="line2d_15">
      <path d="M 36.94125 133.56 
L 442.759432 133.56 
" clip-path="url(#p65d68cb3a6)" style="fill: none; stroke-dasharray: 1.85,0.8; stroke-dashoffset: 0; stroke: #808080; stroke-width: 0.5"/>
     </g>
     <g id="text_15">
      <!-- 0.25 -->
      <g style="fill: #262626" transform="translate(11.8725 136.423125) scale(0.08 -0.08)">
       <use xlink:href="#ArialMT-30"/>
       <use xlink:href="#ArialMT-2e" x="55.615234"/>
       <use xlink:href="#ArialMT-32" x="83.398438"/>
       <use xlink:href="#ArialMT-35" x="139.013672"/>
      </g>
     </g>
    </g>
    <g id="ytick_7">
     <g id="line2d_16">
      <path d="M 36.94125 108.72 
L 442.759432 108.72 
" clip-path="url(#p65d68cb3a6)" style="fill: none; stroke-dasharray: 1.85,0.8; stroke-dashoffset: 0; stroke: #808080; stroke-width: 0.5"/>
     </g>
     <g id="text_16">
      <!-- 0.50 -->
      <g style="fill: #262626" transform="translate(11.8725 111.583125) scale(0.08 -0.08)">
       <use xlink:href="#ArialMT-30"/>
       <use xlink:href="#ArialMT-2e" x="55.615234"/>
       <use xlink:href="#ArialMT-35" x="83.398438"/>
       <use xlink:href="#ArialMT-30" x="139.013672"/>
      </g>
     </g>
    </g>
    <g id="ytick_8">
     <g id="line2d_17">
      <path d="M 36.94125 83.88 
L 442.759432 83.88 
" clip-path="url(#p65d68cb3a6)" style="fill: none; stroke-dasharray: 1.85,0.8; stroke-dashoffset: 0; stroke: #808080; stroke-width: 0.5"/>
     </g>
     <g id="text_17">
      <!-- 0.75 -->
      <g style="fill: #262626" transform="translate(11.8725 86.743125) scale(0.08 -0.08)">
       <use xlink:href="#ArialMT-30"/>
       <use xlink:href="#ArialMT-2e" x="55.615234"/>
       <use xlink:href="#ArialMT-37" x="83.398438"/>
       <use xlink:href="#ArialMT-35" x="139.013672"/>
      </g>
     </g>
    </g>
    <g id="ytick_9">
     <g id="line2d_18">
      <path d="M 36.94125 59.04 
L 442.759432 59.04 
" clip-path="url(#p65d68cb3a6)" style="fill: none; stroke-dasharray: 1.85,0.8; stroke-dashoffset: 0; stroke: #808080; stroke-width: 0.5"/>
     </g>
     <g id="text_18">
      <!-- 1.00 -->
      <g style="fill: #262626" transform="translate(11.8725 61.903125) scale(0.08 -0.08)">
       <use xlink:href="#ArialMT-31"/>
       <use xlink:href="#ArialMT-2e" x="55.615234"/>
       <use xlink:href="#ArialMT-30" x="83.398438"/>
       <use xlink:href="#ArialMT-30" x="139.013672"/>
      </g>
     </g>
    </g>
   </g>
   <g id="PolyCollection_1">
    <defs>
     <path id="mbc42292b9f" d="M 59.190888 -131.17217 
L 59.190888 -115.58033 
L 70.600959 -115.425932 
L 78.207672 -115.388569 
L 85.814386 -115.387689 
L 93.4211 -115.387497 
L 101.027814 -115.381751 
L 108.634528 -115.370364 
L 116.241241 -115.370238 
L 123.847955 -115.369579 
L 131.454669 -115.355559 
L 139.061383 -115.353406 
L 146.668097 -115.297335 
L 154.274811 -112.198223 
L 161.881524 -112.116272 
L 169.488238 -112.108318 
L 177.094952 -112.10829 
L 184.701666 -112.107627 
L 192.30838 -112.088703 
L 199.915093 -112.066743 
L 207.521807 -112.05881 
L 215.128521 -112.057017 
L 222.735235 -112.000886 
L 230.341949 -111.969521 
L 237.948662 -111.964459 
L 245.555376 -111.730008 
L 253.16209 -111.698025 
L 260.768804 -111.694102 
L 268.375518 -111.693631 
L 275.982232 -111.69344 
L 283.588945 -111.675236 
L 291.195659 -111.664381 
L 298.802373 -111.641758 
L 306.409087 -111.63943 
L 314.015801 -111.526559 
L 321.622514 -111.447749 
L 329.229228 -111.447605 
L 336.835942 -111.43759 
L 344.442656 -111.431771 
L 352.04937 -111.415924 
L 359.656083 -111.415771 
L 367.262797 -111.415736 
L 374.869511 -111.41248 
L 382.476225 -111.412036 
L 390.082939 -111.378175 
L 397.689652 -111.373661 
L 405.296366 -111.277054 
L 412.90308 -111.204575 
L 424.313151 -111.201887 
L 424.313151 -135.550613 
L 424.313151 -135.550613 
L 412.90308 -135.547925 
L 405.296366 -135.475446 
L 397.689652 -135.378839 
L 390.082939 -135.374325 
L 382.476225 -135.340464 
L 374.869511 -135.34002 
L 367.262797 -135.336764 
L 359.656083 -135.336729 
L 352.04937 -135.336576 
L 344.442656 -135.320729 
L 336.835942 -135.31491 
L 329.229228 -135.304895 
L 321.622514 -135.304751 
L 314.015801 -135.225941 
L 306.409087 -135.11307 
L 298.802373 -135.110742 
L 291.195659 -135.088119 
L 283.588945 -135.077264 
L 275.982232 -135.05906 
L 268.375518 -135.058869 
L 260.768804 -135.058398 
L 253.16209 -135.054475 
L 245.555376 -135.022492 
L 237.948662 -134.788041 
L 230.341949 -134.782979 
L 222.735235 -134.751614 
L 215.128521 -134.695483 
L 207.521807 -134.69369 
L 199.915093 -134.685757 
L 192.30838 -134.663797 
L 184.701666 -134.644873 
L 177.094952 -134.64421 
L 169.488238 -134.644182 
L 161.881524 -134.636228 
L 154.274811 -134.554277 
L 146.668097 -131.455165 
L 139.061383 -131.399094 
L 131.454669 -131.396941 
L 123.847955 -131.382921 
L 116.241241 -131.382262 
L 108.634528 -131.382136 
L 101.027814 -131.370749 
L 93.4211 -131.365003 
L 85.814386 -131.364811 
L 78.207672 -131.363931 
L 70.600959 -131.326568 
L 59.190888 -131.17217 
z
" style="stroke: #ffffff; stroke-opacity: 0.25"/>
    </defs>
    <g clip-path="url(#p65d68cb3a6)">
     <use xlink:href="#mbc42292b9f" x="0" y="281.77625" style="fill: #194a7a; fill-opacity: 0.25; stroke: #ffffff; stroke-opacity: 0.25"/>
    </g>
   </g>
   <g id="LineCollection_1">
    <path d="M 55.387531 158.4 
L 55.387531 59.04 
" clip-path="url(#p65d68cb3a6)" style="fill: none; stroke: #194a7a; stroke-width: 1.2"/>
    <path d="M 62.994245 158.4 
L 62.994245 144.347986 
" clip-path="url(#p65d68cb3a6)" style="fill: none; stroke: #194a7a; stroke-width: 1.2"/>
    <path d="M 70.600959 158.4 
L 70.600959 151.445466 
" clip-path="url(#p65d68cb3a6)" style="fill: none; stroke: #194a7a; stroke-width: 1.2"/>
    <path d="M 78.207672 158.4 
L 78.207672 159.468266 
" clip-path="url(#p65d68cb3a6)" style="fill: none; stroke: #194a7a; stroke-width: 1.2"/>
    <path d="M 85.814386 158.4 
L 85.814386 157.900241 
" clip-path="url(#p65d68cb3a6)" style="fill: none; stroke: #194a7a; stroke-width: 1.2"/>
    <path d="M 93.4211 158.4 
L 93.4211 155.668851 
" clip-path="url(#p65d68cb3a6)" style="fill: none; stroke: #194a7a; stroke-width: 1.2"/>
    <path d="M 101.027814 158.4 
L 101.027814 162.246818 
" clip-path="url(#p65d68cb3a6)" style="fill: none; stroke: #194a7a; stroke-width: 1.2"/>
    <path d="M 108.634528 158.4 
L 108.634528 157.995246 
" clip-path="url(#p65d68cb3a6)" style="fill: none; stroke: #194a7a; stroke-width: 1.2"/>
    <path d="M 116.241241 158.4 
L 116.241241 157.474485 
" clip-path="url(#p65d68cb3a6)" style="fill: none; stroke: #194a7a; stroke-width: 1.2"/>
    <path d="M 123.847955 158.4 
L 123.847955 154.128006 
" clip-path="url(#p65d68cb3a6)" style="fill: none; stroke: #194a7a; stroke-width: 1.2"/>
    <path d="M 131.454669 158.4 
L 131.454669 160.074882 
" clip-path="url(#p65d68cb3a6)" style="fill: none; stroke: #194a7a; stroke-width: 1.2"/>
    <path d="M 139.061383 158.4 
L 139.061383 166.963196 
" clip-path="url(#p65d68cb3a6)" style="fill: none; stroke: #194a7a; stroke-width: 1.2"/>
    <path d="M 146.668097 158.4 
L 146.668097 228.021206 
" clip-path="url(#p65d68cb3a6)" style="fill: none; stroke: #194a7a; stroke-width: 1.2"/>
    <path d="M 154.274811 158.4 
L 154.274811 170.620739 
" clip-path="url(#p65d68cb3a6)" style="fill: none; stroke: #194a7a; stroke-width: 1.2"/>
    <path d="M 161.881524 158.4 
L 161.881524 162.214825 
" clip-path="url(#p65d68cb3a6)" style="fill: none; stroke: #194a7a; stroke-width: 1.2"/>
    <path d="M 169.488238 158.4 
L 169.488238 158.628379 
" clip-path="url(#p65d68cb3a6)" style="fill: none; stroke: #194a7a; stroke-width: 1.2"/>
    <path d="M 177.094952 158.4 
L 177.094952 159.501689 
" clip-path="url(#p65d68cb3a6)" style="fill: none; stroke: #194a7a; stroke-width: 1.2"/>
    <path d="M 184.701666 158.4 
L 184.701666 164.288007 
" clip-path="url(#p65d68cb3a6)" style="fill: none; stroke: #194a7a; stroke-width: 1.2"/>
    <path d="M 192.30838 158.4 
L 192.30838 152.051516 
" clip-path="url(#p65d68cb3a6)" style="fill: none; stroke: #194a7a; stroke-width: 1.2"/>
    <path d="M 199.915093 158.4 
L 199.915093 162.218277 
" clip-path="url(#p65d68cb3a6)" style="fill: none; stroke: #194a7a; stroke-width: 1.2"/>
    <path d="M 207.521807 158.4 
L 207.521807 160.215327 
" clip-path="url(#p65d68cb3a6)" style="fill: none; stroke: #194a7a; stroke-width: 1.2"/>
    <path d="M 215.128521 158.4 
L 215.128521 168.571644 
" clip-path="url(#p65d68cb3a6)" style="fill: none; stroke: #194a7a; stroke-width: 1.2"/>
    <path d="M 222.735235 158.4 
L 222.735235 166.018174 
" clip-path="url(#p65d68cb3a6)" style="fill: none; stroke: #194a7a; stroke-width: 1.2"/>
    <path d="M 230.341949 158.4 
L 230.341949 155.336993 
" clip-path="url(#p65d68cb3a6)" style="fill: none; stroke: #194a7a; stroke-width: 1.2"/>
    <path d="M 237.948662 158.4 
L 237.948662 137.44606 
" clip-path="url(#p65d68cb3a6)" style="fill: none; stroke: #194a7a; stroke-width: 1.2"/>
    <path d="M 245.555376 158.4 
L 245.555376 150.616083 
" clip-path="url(#p65d68cb3a6)" style="fill: none; stroke: #194a7a; stroke-width: 1.2"/>
    <path d="M 253.16209 158.4 
L 253.16209 161.128137 
" clip-path="url(#p65d68cb3a6)" style="fill: none; stroke: #194a7a; stroke-width: 1.2"/>
    <path d="M 260.768804 158.4 
L 260.768804 157.454052 
" clip-path="url(#p65d68cb3a6)" style="fill: none; stroke: #194a7a; stroke-width: 1.2"/>
    <path d="M 268.375518 158.4 
L 268.375518 157.79827 
" clip-path="url(#p65d68cb3a6)" style="fill: none; stroke: #194a7a; stroke-width: 1.2"/>
    <path d="M 275.982232 158.4 
L 275.982232 152.520154 
" clip-path="url(#p65d68cb3a6)" style="fill: none; stroke: #194a7a; stroke-width: 1.2"/>
    <path d="M 283.588945 158.4 
L 283.588945 162.943267 
" clip-path="url(#p65d68cb3a6)" style="fill: none; stroke: #194a7a; stroke-width: 1.2"/>
    <path d="M 291.195659 158.4 
L 291.195659 151.836389 
" clip-path="url(#p65d68cb3a6)" style="fill: none; stroke: #194a7a; stroke-width: 1.2"/>
    <path d="M 298.802373 158.4 
L 298.802373 156.293132 
" clip-path="url(#p65d68cb3a6)" style="fill: none; stroke: #194a7a; stroke-width: 1.2"/>
    <path d="M 306.409087 158.4 
L 306.409087 143.695455 
" clip-path="url(#p65d68cb3a6)" style="fill: none; stroke: #194a7a; stroke-width: 1.2"/>
    <path d="M 314.015801 158.4 
L 314.015801 146.062997 
" clip-path="url(#p65d68cb3a6)" style="fill: none; stroke: #194a7a; stroke-width: 1.2"/>
    <path d="M 321.622514 158.4 
L 321.622514 158.927879 
" clip-path="url(#p65d68cb3a6)" style="fill: none; stroke: #194a7a; stroke-width: 1.2"/>
    <path d="M 329.229228 158.4 
L 329.229228 153.993797 
" clip-path="url(#p65d68cb3a6)" style="fill: none; stroke: #194a7a; stroke-width: 1.2"/>
    <path d="M 336.835942 158.4 
L 336.835942 161.759687 
" clip-path="url(#p65d68cb3a6)" style="fill: none; stroke: #194a7a; stroke-width: 1.2"/>
    <path d="M 344.442656 158.4 
L 344.442656 152.853166 
" clip-path="url(#p65d68cb3a6)" style="fill: none; stroke: #194a7a; stroke-width: 1.2"/>
    <path d="M 352.04937 158.4 
L 352.04937 158.945339 
" clip-path="url(#p65d68cb3a6)" style="fill: none; stroke: #194a7a; stroke-width: 1.2"/>
    <path d="M 359.656083 158.4 
L 359.656083 158.13913 
" clip-path="url(#p65d68cb3a6)" style="fill: none; stroke: #194a7a; stroke-width: 1.2"/>
    <path d="M 367.262797 158.4 
L 367.262797 160.915051 
" clip-path="url(#p65d68cb3a6)" style="fill: none; stroke: #194a7a; stroke-width: 1.2"/>
    <path d="M 374.869511 158.4 
L 374.869511 157.470659 
" clip-path="url(#p65d68cb3a6)" style="fill: none; stroke: #194a7a; stroke-width: 1.2"/>
    <path d="M 382.476225 158.4 
L 382.476225 166.517874 
" clip-path="url(#p65d68cb3a6)" style="fill: none; stroke: #194a7a; stroke-width: 1.2"/>
    <path d="M 390.082939 158.4 
L 390.082939 161.366438 
" clip-path="url(#p65d68cb3a6)" style="fill: none; stroke: #194a7a; stroke-width: 1.2"/>
    <path d="M 397.689652 158.4 
L 397.689652 172.151743 
" clip-path="url(#p65d68cb3a6)" style="fill: none; stroke: #194a7a; stroke-width: 1.2"/>
    <path d="M 405.296366 158.4 
L 405.296366 170.353013 
" clip-path="url(#p65d68cb3a6)" style="fill: none; stroke: #194a7a; stroke-width: 1.2"/>
    <path d="M 412.90308 158.4 
L 412.90308 160.705545 
" clip-path="url(#p65d68cb3a6)" style="fill: none; stroke: #194a7a; stroke-width: 1.2"/>
    <path d="M 420.509794 158.4 
L 420.509794 166.031305 
" clip-path="url(#p65d68cb3a6)" style="fill: none; stroke: #194a7a; stroke-width: 1.2"/>
   </g>
   <g id="line2d_19">
    <path d="M 36.94125 158.4 
L 442.759432 158.4 
" clip-path="url(#p65d68cb3a6)" style="fill: none; stroke: #194a7a; stroke-width: 1.2; stroke-linecap: round"/>
   </g>
   <g id="line2d_20">
    <defs>
     <path id="mbe02c9192b" d="M 0 2.5 
C 0.663008 2.5 1.29895 2.236584 1.767767 1.767767 
C 2.236584 1.29895 2.5 0.663008 2.5 0 
C 2.5 -0.663008 2.236584 -1.29895 1.767767 -1.767767 
C 1.29895 -2.236584 0.663008 -2.5 0 -2.5 
C -0.663008 -2.5 -1.29895 -2.236584 -1.767767 -1.767767 
C -2.236584 -1.29895 -2.5 -0.663008 -2.5 0 
C -2.5 0.663008 -2.236584 1.29895 -1.767767 1.767767 
C -1.29895 2.236584 -0.663008 2.5 0 2.5 
z
" style="stroke: #194a7a"/>
    </defs>
    <g clip-path="url(#p65d68cb3a6)">
     <use xlink:href="#mbe02c9192b" x="55.387531" y="59.04" style="fill: #194a7a; stroke: #194a7a"/>
     <use xlink:href="#mbe02c9192b" x="62.994245" y="144.347986" style="fill: #194a7a; stroke: #194a7a"/>
     <use xlink:href="#mbe02c9192b" x="70.600959" y="151.445466" style="fill: #194a7a; stroke: #194a7a"/>
     <use xlink:href="#mbe02c9192b" x="78.207672" y="159.468266" style="fill: #194a7a; stroke: #194a7a"/>
     <use xlink:href="#mbe02c9192b" x="85.814386" y="157.900241" style="fill: #194a7a; stroke: #194a7a"/>
     <use xlink:href="#mbe02c9192b" x="93.4211" y="155.668851" style="fill: #194a7a; stroke: #194a7a"/>
     <use xlink:href="#mbe02c9192b" x="101.027814" y="162.246818" style="fill: #194a7a; stroke: #194a7a"/>
     <use xlink:href="#mbe02c9192b" x="108.634528" y="157.995246" style="fill: #194a7a; stroke: #194a7a"/>
     <use xlink:href="#mbe02c9192b" x="116.241241" y="157.474485" style="fill: #194a7a; stroke: #194a7a"/>
     <use xlink:href="#mbe02c9192b" x="123.847955" y="154.128006" style="fill: #194a7a; stroke: #194a7a"/>
     <use xlink:href="#mbe02c9192b" x="131.454669" y="160.074882" style="fill: #194a7a; stroke: #194a7a"/>
     <use xlink:href="#mbe02c9192b" x="139.061383" y="166.963196" style="fill: #194a7a; stroke: #194a7a"/>
     <use xlink:href="#mbe02c9192b" x="146.668097" y="228.021206" style="fill: #194a7a; stroke: #194a7a"/>
     <use xlink:href="#mbe02c9192b" x="154.274811" y="170.620739" style="fill: #194a7a; stroke: #194a7a"/>
     <use xlink:href="#mbe02c9192b" x="161.881524" y="162.214825" style="fill: #194a7a; stroke: #194a7a"/>
     <use xlink:href="#mbe02c9192b" x="169.488238" y="158.628379" style="fill: #194a7a; stroke: #194a7a"/>
     <use xlink:href="#mbe02c9192b" x="177.094952" y="159.501689" style="fill: #194a7a; stroke: #194a7a"/>
     <use xlink:href="#mbe02c9192b" x="184.701666" y="164.288007" style="fill: #194a7a; stroke: #194a7a"/>
     <use xlink:href="#mbe02c9192b" x="192.30838" y="152.051516" style="fill: #194a7a; stroke: #194a7a"/>
     <use xlink:href="#mbe02c9192b" x="199.915093" y="162.218277" style="fill: #194a7a; stroke: #194a7a"/>
     <use xlink:href="#mbe02c9192b" x="207.521807" y="160.215327" style="fill: #194a7a; stroke: #194a7a"/>
     <use xlink:href="#mbe02c9192b" x="215.128521" y="168.571644" style="fill: #194a7a; stroke: #194a7a"/>
     <use xlink:href="#mbe02c9192b" x="222.735235" y="166.018174" style="fill: #194a7a; stroke: #194a7a"/>
     <use xlink:href="#mbe02c9192b" x="230.341949" y="155.336993" style="fill: #194a7a; stroke: #194a7a"/>
     <use xlink:href="#mbe02c9192b" x="237.948662" y="137.44606" style="fill: #194a7a; stroke: #194a7a"/>
     <use xlink:href="#mbe02c9192b" x="245.555376" y="150.616083" style="fill: #194a7a; stroke: #194a7a"/>
     <use xlink:href="#mbe02c9192b" x="253.16209" y="161.128137" style="fill: #194a7a; stroke: #194a7a"/>
     <use xlink:href="#mbe02c9192b" x="260.768804" y="157.454052" style="fill: #194a7a; stroke: #194a7a"/>
     <use xlink:href="#mbe02c9192b" x="268.375518" y="157.79827" style="fill: #194a7a; stroke: #194a7a"/>
     <use xlink:href="#mbe02c9192b" x="275.982232" y="152.520154" style="fill: #194a7a; stroke: #194a7a"/>
     <use xlink:href="#mbe02c9192b" x="283.588945" y="162.943267" style="fill: #194a7a; stroke: #194a7a"/>
     <use xlink:href="#mbe02c9192b" x="291.195659" y="151.836389" style="fill: #194a7a; stroke: #194a7a"/>
     <use xlink:href="#mbe02c9192b" x="298.802373" y="156.293132" style="fill: #194a7a; stroke: #194a7a"/>
     <use xlink:href="#mbe02c9192b" x="306.409087" y="143.695455" style="fill: #194a7a; stroke: #194a7a"/>
     <use xlink:href="#mbe02c9192b" x="314.015801" y="146.062997" style="fill: #194a7a; stroke: #194a7a"/>
     <use xlink:href="#mbe02c9192b" x="321.622514" y="158.927879" style="fill: #194a7a; stroke: #194a7a"/>
     <use xlink:href="#mbe02c9192b" x="329.229228" y="153.993797" style="fill: #194a7a; stroke: #194a7a"/>
     <use xlink:href="#mbe02c9192b" x="336.835942" y="161.759687" style="fill: #194a7a; stroke: #194a7a"/>
     <use xlink:href="#mbe02c9192b" x="344.442656" y="152.853166" style="fill: #194a7a; stroke: #194a7a"/>
     <use xlink:href="#mbe02c9192b" x="352.04937" y="158.945339" style="fill: #194a7a; stroke: #194a7a"/>
     <use xlink:href="#mbe02c9192b" x="359.656083" y="158.13913" style="fill: #194a7a; stroke: #194a7a"/>
     <use xlink:href="#mbe02c9192b" x="367.262797" y="160.915051" style="fill: #194a7a; stroke: #194a7a"/>
     <use xlink:href="#mbe02c9192b" x="374.869511" y="157.470659" style="fill: #194a7a; stroke: #194a7a"/>
     <use xlink:href="#mbe02c9192b" x="382.476225" y="166.517874" style="fill: #194a7a; stroke: #194a7a"/>
     <use xlink:href="#mbe02c9192b" x="390.082939" y="161.366438" style="fill: #194a7a; stroke: #194a7a"/>
     <use xlink:href="#mbe02c9192b" x="397.689652" y="172.151743" style="fill: #194a7a; stroke: #194a7a"/>
     <use xlink:href="#mbe02c9192b" x="405.296366" y="170.353013" style="fill: #194a7a; stroke: #194a7a"/>
     <use xlink:href="#mbe02c9192b" x="412.90308" y="160.705545" style="fill: #194a7a; stroke: #194a7a"/>
     <use xlink:href="#mbe02c9192b" x="420.509794" y="166.031305" style="fill: #194a7a; stroke: #194a7a"/>
    </g>
   </g>
   <g id="patch_3">
    <path d="M 36.94125 257.76 
L 36.94125 59.04 
" style="fill: none; stroke: #cccccc; stroke-width: 1.25; stroke-linejoin: miter; stroke-linecap: square"/>
   </g>
   <g id="patch_4">
    <path d="M 442.759432 257.76 
L 442.759432 59.04 
" style="fill: none; stroke: #cccccc; stroke-width: 1.25; stroke-linejoin: miter; stroke-linecap: square"/>
   </g>
   <g id="patch_5">
    <path d="M 36.94125 257.76 
L 442.759432 257.76 
" style="fill: none; stroke: #cccccc; stroke-width: 1.25; stroke-linejoin: miter; stroke-linecap: square"/>
   </g>
   <g id="patch_6">
    <path d="M 36.94125 59.04 
L 442.759432 59.04 
" style="fill: none; stroke: #cccccc; stroke-width: 1.25; stroke-linejoin: miter; stroke-linecap: square"/>
   </g>
   <g id="text_19">
    <!-- Autocorrelaciones Simples -->
    <g style="fill: #262626" transform="translate(149.603935 53.04) scale(0.14 -0.14)">
     <defs>
      <path id="Arial-BoldMT-41" d="M 4597 0 
L 3591 0 
L 3191 1041 
L 1359 1041 
L 981 0 
L 0 0 
L 1784 4581 
L 2763 4581 
L 4597 0 
z
M 2894 1813 
L 2263 3513 
L 1644 1813 
L 2894 1813 
z
" transform="scale(0.015625)"/>
      <path id="Arial-BoldMT-75" d="M 2644 0 
L 2644 497 
Q 2463 231 2167 78 
Q 1872 -75 1544 -75 
Q 1209 -75 943 72 
Q 678 219 559 484 
Q 441 750 441 1219 
L 441 3319 
L 1319 3319 
L 1319 1794 
Q 1319 1094 1367 936 
Q 1416 778 1544 686 
Q 1672 594 1869 594 
Q 2094 594 2272 717 
Q 2450 841 2515 1023 
Q 2581 1206 2581 1919 
L 2581 3319 
L 3459 3319 
L 3459 0 
L 2644 0 
z
" transform="scale(0.015625)"/>
      <path id="Arial-BoldMT-74" d="M 1981 3319 
L 1981 2619 
L 1381 2619 
L 1381 1281 
Q 1381 875 1398 808 
Q 1416 741 1477 697 
Q 1538 653 1625 653 
Q 1747 653 1978 738 
L 2053 56 
Q 1747 -75 1359 -75 
Q 1122 -75 931 4 
Q 741 84 652 211 
Q 563 338 528 553 
Q 500 706 500 1172 
L 500 2619 
L 97 2619 
L 97 3319 
L 500 3319 
L 500 3978 
L 1381 4491 
L 1381 3319 
L 1981 3319 
z
" transform="scale(0.015625)"/>
      <path id="Arial-BoldMT-6f" d="M 256 1706 
Q 256 2144 472 2553 
Q 688 2963 1083 3178 
Q 1478 3394 1966 3394 
Q 2719 3394 3200 2905 
Q 3681 2416 3681 1669 
Q 3681 916 3195 420 
Q 2709 -75 1972 -75 
Q 1516 -75 1102 131 
Q 688 338 472 736 
Q 256 1134 256 1706 
z
M 1156 1659 
Q 1156 1166 1390 903 
Q 1625 641 1969 641 
Q 2313 641 2545 903 
Q 2778 1166 2778 1666 
Q 2778 2153 2545 2415 
Q 2313 2678 1969 2678 
Q 1625 2678 1390 2415 
Q 1156 2153 1156 1659 
z
" transform="scale(0.015625)"/>
      <path id="Arial-BoldMT-63" d="M 3353 2338 
L 2488 2181 
Q 2444 2441 2289 2572 
Q 2134 2703 1888 2703 
Q 1559 2703 1364 2476 
Q 1169 2250 1169 1719 
Q 1169 1128 1367 884 
Q 1566 641 1900 641 
Q 2150 641 2309 783 
Q 2469 925 2534 1272 
L 3397 1125 
Q 3263 531 2881 228 
Q 2500 -75 1859 -75 
Q 1131 -75 698 384 
Q 266 844 266 1656 
Q 266 2478 700 2936 
Q 1134 3394 1875 3394 
Q 2481 3394 2839 3133 
Q 3197 2872 3353 2338 
z
" transform="scale(0.015625)"/>
      <path id="Arial-BoldMT-72" d="M 1300 0 
L 422 0 
L 422 3319 
L 1238 3319 
L 1238 2847 
Q 1447 3181 1614 3287 
Q 1781 3394 1994 3394 
Q 2294 3394 2572 3228 
L 2300 2463 
Q 2078 2606 1888 2606 
Q 1703 2606 1575 2504 
Q 1447 2403 1373 2137 
Q 1300 1872 1300 1025 
L 1300 0 
z
" transform="scale(0.015625)"/>
      <path id="Arial-BoldMT-65" d="M 2381 1056 
L 3256 909 
Q 3088 428 2723 176 
Q 2359 -75 1813 -75 
Q 947 -75 531 491 
Q 203 944 203 1634 
Q 203 2459 634 2926 
Q 1066 3394 1725 3394 
Q 2466 3394 2894 2905 
Q 3322 2416 3303 1406 
L 1103 1406 
Q 1113 1016 1316 798 
Q 1519 581 1822 581 
Q 2028 581 2168 693 
Q 2309 806 2381 1056 
z
M 2431 1944 
Q 2422 2325 2234 2523 
Q 2047 2722 1778 2722 
Q 1491 2722 1303 2513 
Q 1116 2303 1119 1944 
L 2431 1944 
z
" transform="scale(0.015625)"/>
      <path id="Arial-BoldMT-6c" d="M 459 0 
L 459 4581 
L 1338 4581 
L 1338 0 
L 459 0 
z
" transform="scale(0.015625)"/>
      <path id="Arial-BoldMT-61" d="M 1116 2306 
L 319 2450 
Q 453 2931 781 3162 
Q 1109 3394 1756 3394 
Q 2344 3394 2631 3255 
Q 2919 3116 3036 2902 
Q 3153 2688 3153 2116 
L 3144 1091 
Q 3144 653 3186 445 
Q 3228 238 3344 0 
L 2475 0 
Q 2441 88 2391 259 
Q 2369 338 2359 363 
Q 2134 144 1878 34 
Q 1622 -75 1331 -75 
Q 819 -75 523 203 
Q 228 481 228 906 
Q 228 1188 362 1408 
Q 497 1628 739 1745 
Q 981 1863 1438 1950 
Q 2053 2066 2291 2166 
L 2291 2253 
Q 2291 2506 2166 2614 
Q 2041 2722 1694 2722 
Q 1459 2722 1328 2630 
Q 1197 2538 1116 2306 
z
M 2291 1594 
Q 2122 1538 1756 1459 
Q 1391 1381 1278 1306 
Q 1106 1184 1106 997 
Q 1106 813 1243 678 
Q 1381 544 1594 544 
Q 1831 544 2047 700 
Q 2206 819 2256 991 
Q 2291 1103 2291 1419 
L 2291 1594 
z
" transform="scale(0.015625)"/>
      <path id="Arial-BoldMT-69" d="M 459 3769 
L 459 4581 
L 1338 4581 
L 1338 3769 
L 459 3769 
z
M 459 0 
L 459 3319 
L 1338 3319 
L 1338 0 
L 459 0 
z
" transform="scale(0.015625)"/>
      <path id="Arial-BoldMT-6e" d="M 3478 0 
L 2600 0 
L 2600 1694 
Q 2600 2231 2544 2389 
Q 2488 2547 2361 2634 
Q 2234 2722 2056 2722 
Q 1828 2722 1647 2597 
Q 1466 2472 1398 2265 
Q 1331 2059 1331 1503 
L 1331 0 
L 453 0 
L 453 3319 
L 1269 3319 
L 1269 2831 
Q 1703 3394 2363 3394 
Q 2653 3394 2893 3289 
Q 3134 3184 3257 3021 
Q 3381 2859 3429 2653 
Q 3478 2447 3478 2063 
L 3478 0 
z
" transform="scale(0.015625)"/>
      <path id="Arial-BoldMT-73" d="M 150 947 
L 1031 1081 
Q 1088 825 1259 692 
Q 1431 559 1741 559 
Q 2081 559 2253 684 
Q 2369 772 2369 919 
Q 2369 1019 2306 1084 
Q 2241 1147 2013 1200 
Q 950 1434 666 1628 
Q 272 1897 272 2375 
Q 272 2806 612 3100 
Q 953 3394 1669 3394 
Q 2350 3394 2681 3172 
Q 3013 2950 3138 2516 
L 2309 2363 
Q 2256 2556 2107 2659 
Q 1959 2763 1684 2763 
Q 1338 2763 1188 2666 
Q 1088 2597 1088 2488 
Q 1088 2394 1175 2328 
Q 1294 2241 1995 2081 
Q 2697 1922 2975 1691 
Q 3250 1456 3250 1038 
Q 3250 581 2869 253 
Q 2488 -75 1741 -75 
Q 1063 -75 667 200 
Q 272 475 150 947 
z
" transform="scale(0.015625)"/>
      <path id="Arial-BoldMT-20" transform="scale(0.015625)"/>
      <path id="Arial-BoldMT-53" d="M 231 1491 
L 1131 1578 
Q 1213 1125 1461 912 
Q 1709 700 2131 700 
Q 2578 700 2804 889 
Q 3031 1078 3031 1331 
Q 3031 1494 2936 1608 
Q 2841 1722 2603 1806 
Q 2441 1863 1863 2006 
Q 1119 2191 819 2459 
Q 397 2838 397 3381 
Q 397 3731 595 4036 
Q 794 4341 1167 4500 
Q 1541 4659 2069 4659 
Q 2931 4659 3367 4281 
Q 3803 3903 3825 3272 
L 2900 3231 
Q 2841 3584 2645 3739 
Q 2450 3894 2059 3894 
Q 1656 3894 1428 3728 
Q 1281 3622 1281 3444 
Q 1281 3281 1419 3166 
Q 1594 3019 2269 2859 
Q 2944 2700 3267 2529 
Q 3591 2359 3773 2064 
Q 3956 1769 3956 1334 
Q 3956 941 3737 597 
Q 3519 253 3119 86 
Q 2719 -81 2122 -81 
Q 1253 -81 787 320 
Q 322 722 231 1491 
z
" transform="scale(0.015625)"/>
      <path id="Arial-BoldMT-6d" d="M 394 3319 
L 1203 3319 
L 1203 2866 
Q 1638 3394 2238 3394 
Q 2556 3394 2790 3262 
Q 3025 3131 3175 2866 
Q 3394 3131 3647 3262 
Q 3900 3394 4188 3394 
Q 4553 3394 4806 3245 
Q 5059 3097 5184 2809 
Q 5275 2597 5275 2122 
L 5275 0 
L 4397 0 
L 4397 1897 
Q 4397 2391 4306 2534 
Q 4184 2722 3931 2722 
Q 3747 2722 3584 2609 
Q 3422 2497 3350 2280 
Q 3278 2063 3278 1594 
L 3278 0 
L 2400 0 
L 2400 1819 
Q 2400 2303 2353 2443 
Q 2306 2584 2207 2653 
Q 2109 2722 1941 2722 
Q 1738 2722 1575 2612 
Q 1413 2503 1342 2297 
Q 1272 2091 1272 1613 
L 1272 0 
L 394 0 
L 394 3319 
z
" transform="scale(0.015625)"/>
      <path id="Arial-BoldMT-70" d="M 434 3319 
L 1253 3319 
L 1253 2831 
Q 1413 3081 1684 3237 
Q 1956 3394 2288 3394 
Q 2866 3394 3269 2941 
Q 3672 2488 3672 1678 
Q 3672 847 3265 386 
Q 2859 -75 2281 -75 
Q 2006 -75 1782 34 
Q 1559 144 1313 409 
L 1313 -1263 
L 434 -1263 
L 434 3319 
z
M 1303 1716 
Q 1303 1156 1525 889 
Q 1747 622 2066 622 
Q 2372 622 2575 867 
Q 2778 1113 2778 1672 
Q 2778 2194 2568 2447 
Q 2359 2700 2050 2700 
Q 1728 2700 1515 2451 
Q 1303 2203 1303 1716 
z
" transform="scale(0.015625)"/>
     </defs>
     <use xlink:href="#Arial-BoldMT-41"/>
     <use xlink:href="#Arial-BoldMT-75" x="72.216797"/>
     <use xlink:href="#Arial-BoldMT-74" x="133.300781"/>
     <use xlink:href="#Arial-BoldMT-6f" x="166.601562"/>
     <use xlink:href="#Arial-BoldMT-63" x="227.685547"/>
     <use xlink:href="#Arial-BoldMT-6f" x="283.300781"/>
     <use xlink:href="#Arial-BoldMT-72" x="344.384766"/>
     <use xlink:href="#Arial-BoldMT-72" x="383.300781"/>
     <use xlink:href="#Arial-BoldMT-65" x="422.216797"/>
     <use xlink:href="#Arial-BoldMT-6c" x="477.832031"/>
     <use xlink:href="#Arial-BoldMT-61" x="505.615234"/>
     <use xlink:href="#Arial-BoldMT-63" x="561.230469"/>
     <use xlink:href="#Arial-BoldMT-69" x="616.845703"/>
     <use xlink:href="#Arial-BoldMT-6f" x="644.628906"/>
     <use xlink:href="#Arial-BoldMT-6e" x="705.712891"/>
     <use xlink:href="#Arial-BoldMT-65" x="766.796875"/>
     <use xlink:href="#Arial-BoldMT-73" x="822.412109"/>
     <use xlink:href="#Arial-BoldMT-20" x="878.027344"/>
     <use xlink:href="#Arial-BoldMT-53" x="905.810547"/>
     <use xlink:href="#Arial-BoldMT-69" x="972.509766"/>
     <use xlink:href="#Arial-BoldMT-6d" x="1000.292969"/>
     <use xlink:href="#Arial-BoldMT-70" x="1089.208984"/>
     <use xlink:href="#Arial-BoldMT-6c" x="1150.292969"/>
     <use xlink:href="#Arial-BoldMT-65" x="1178.076172"/>
     <use xlink:href="#Arial-BoldMT-73" x="1233.691406"/>
    </g>
   </g>
  </g>
  <g id="axes_2">
   <g id="patch_7">
    <path d="M 523.923068 257.76 
L 929.74125 257.76 
L 929.74125 59.04 
L 523.923068 59.04 
z
" style="fill: #ffffff"/>
   </g>
   <g id="matplotlib.axis_3">
    <g id="xtick_10">
     <g id="line2d_21">
      <path d="M 542.369349 257.76 
L 542.369349 59.04 
" clip-path="url(#p77f549b378)" style="fill: none; stroke-dasharray: 1.85,0.8; stroke-dashoffset: 0; stroke: #808080; stroke-width: 0.5"/>
     </g>
     <g id="text_20">
      <!-- 0 -->
      <g style="fill: #262626" transform="translate(540.144974 272.98625) scale(0.08 -0.08)">
       <use xlink:href="#ArialMT-30"/>
      </g>
     </g>
    </g>
    <g id="xtick_11">
     <g id="line2d_22">
      <path d="M 588.009632 257.76 
L 588.009632 59.04 
" clip-path="url(#p77f549b378)" style="fill: none; stroke-dasharray: 1.85,0.8; stroke-dashoffset: 0; stroke: #808080; stroke-width: 0.5"/>
     </g>
     <g id="text_21">
      <!-- 6 -->
      <g style="fill: #262626" transform="translate(585.785257 272.98625) scale(0.08 -0.08)">
       <use xlink:href="#ArialMT-36"/>
      </g>
     </g>
    </g>
    <g id="xtick_12">
     <g id="line2d_23">
      <path d="M 633.649915 257.76 
L 633.649915 59.04 
" clip-path="url(#p77f549b378)" style="fill: none; stroke-dasharray: 1.85,0.8; stroke-dashoffset: 0; stroke: #808080; stroke-width: 0.5"/>
     </g>
     <g id="text_22">
      <!-- 12 -->
      <g style="fill: #262626" transform="translate(629.201165 272.98625) scale(0.08 -0.08)">
       <use xlink:href="#ArialMT-31"/>
       <use xlink:href="#ArialMT-32" x="55.615234"/>
      </g>
     </g>
    </g>
    <g id="xtick_13">
     <g id="line2d_24">
      <path d="M 679.290198 257.76 
L 679.290198 59.04 
" clip-path="url(#p77f549b378)" style="fill: none; stroke-dasharray: 1.85,0.8; stroke-dashoffset: 0; stroke: #808080; stroke-width: 0.5"/>
     </g>
     <g id="text_23">
      <!-- 18 -->
      <g style="fill: #262626" transform="translate(674.841448 272.98625) scale(0.08 -0.08)">
       <use xlink:href="#ArialMT-31"/>
       <use xlink:href="#ArialMT-38" x="55.615234"/>
      </g>
     </g>
    </g>
    <g id="xtick_14">
     <g id="line2d_25">
      <path d="M 724.930481 257.76 
L 724.930481 59.04 
" clip-path="url(#p77f549b378)" style="fill: none; stroke-dasharray: 1.85,0.8; stroke-dashoffset: 0; stroke: #808080; stroke-width: 0.5"/>
     </g>
     <g id="text_24">
      <!-- 24 -->
      <g style="fill: #262626" transform="translate(720.481731 272.98625) scale(0.08 -0.08)">
       <use xlink:href="#ArialMT-32"/>
       <use xlink:href="#ArialMT-34" x="55.615234"/>
      </g>
     </g>
    </g>
    <g id="xtick_15">
     <g id="line2d_26">
      <path d="M 770.570764 257.76 
L 770.570764 59.04 
" clip-path="url(#p77f549b378)" style="fill: none; stroke-dasharray: 1.85,0.8; stroke-dashoffset: 0; stroke: #808080; stroke-width: 0.5"/>
     </g>
     <g id="text_25">
      <!-- 30 -->
      <g style="fill: #262626" transform="translate(766.122014 272.98625) scale(0.08 -0.08)">
       <use xlink:href="#ArialMT-33"/>
       <use xlink:href="#ArialMT-30" x="55.615234"/>
      </g>
     </g>
    </g>
    <g id="xtick_16">
     <g id="line2d_27">
      <path d="M 816.211046 257.76 
L 816.211046 59.04 
" clip-path="url(#p77f549b378)" style="fill: none; stroke-dasharray: 1.85,0.8; stroke-dashoffset: 0; stroke: #808080; stroke-width: 0.5"/>
     </g>
     <g id="text_26">
      <!-- 36 -->
      <g style="fill: #262626" transform="translate(811.762296 272.98625) scale(0.08 -0.08)">
       <use xlink:href="#ArialMT-33"/>
       <use xlink:href="#ArialMT-36" x="55.615234"/>
      </g>
     </g>
    </g>
    <g id="xtick_17">
     <g id="line2d_28">
      <path d="M 861.851329 257.76 
L 861.851329 59.04 
" clip-path="url(#p77f549b378)" style="fill: none; stroke-dasharray: 1.85,0.8; stroke-dashoffset: 0; stroke: #808080; stroke-width: 0.5"/>
     </g>
     <g id="text_27">
      <!-- 42 -->
      <g style="fill: #262626" transform="translate(857.402579 272.98625) scale(0.08 -0.08)">
       <use xlink:href="#ArialMT-34"/>
       <use xlink:href="#ArialMT-32" x="55.615234"/>
      </g>
     </g>
    </g>
    <g id="xtick_18">
     <g id="line2d_29">
      <path d="M 907.491612 257.76 
L 907.491612 59.04 
" clip-path="url(#p77f549b378)" style="fill: none; stroke-dasharray: 1.85,0.8; stroke-dashoffset: 0; stroke: #808080; stroke-width: 0.5"/>
     </g>
     <g id="text_28">
      <!-- 48 -->
      <g style="fill: #262626" transform="translate(903.042862 272.98625) scale(0.08 -0.08)">
       <use xlink:href="#ArialMT-34"/>
       <use xlink:href="#ArialMT-38" x="55.615234"/>
      </g>
     </g>
    </g>
   </g>
   <g id="matplotlib.axis_4">
    <g id="ytick_10">
     <g id="line2d_30">
      <path d="M 523.923068 257.76 
L 929.74125 257.76 
" clip-path="url(#p77f549b378)" style="fill: none; stroke-dasharray: 1.85,0.8; stroke-dashoffset: 0; stroke: #808080; stroke-width: 0.5"/>
     </g>
     <g id="text_29">
      <!-- −1.00 -->
      <g style="fill: #262626" transform="translate(494.181818 260.623125) scale(0.08 -0.08)">
       <use xlink:href="#ArialMT-2212"/>
       <use xlink:href="#ArialMT-31" x="58.398438"/>
       <use xlink:href="#ArialMT-2e" x="114.013672"/>
       <use xlink:href="#ArialMT-30" x="141.796875"/>
       <use xlink:href="#ArialMT-30" x="197.412109"/>
      </g>
     </g>
    </g>
    <g id="ytick_11">
     <g id="line2d_31">
      <path d="M 523.923068 232.92 
L 929.74125 232.92 
" clip-path="url(#p77f549b378)" style="fill: none; stroke-dasharray: 1.85,0.8; stroke-dashoffset: 0; stroke: #808080; stroke-width: 0.5"/>
     </g>
     <g id="text_30">
      <!-- −0.75 -->
      <g style="fill: #262626" transform="translate(494.181818 235.783125) scale(0.08 -0.08)">
       <use xlink:href="#ArialMT-2212"/>
       <use xlink:href="#ArialMT-30" x="58.398438"/>
       <use xlink:href="#ArialMT-2e" x="114.013672"/>
       <use xlink:href="#ArialMT-37" x="141.796875"/>
       <use xlink:href="#ArialMT-35" x="197.412109"/>
      </g>
     </g>
    </g>
    <g id="ytick_12">
     <g id="line2d_32">
      <path d="M 523.923068 208.08 
L 929.74125 208.08 
" clip-path="url(#p77f549b378)" style="fill: none; stroke-dasharray: 1.85,0.8; stroke-dashoffset: 0; stroke: #808080; stroke-width: 0.5"/>
     </g>
     <g id="text_31">
      <!-- −0.50 -->
      <g style="fill: #262626" transform="translate(494.181818 210.943125) scale(0.08 -0.08)">
       <use xlink:href="#ArialMT-2212"/>
       <use xlink:href="#ArialMT-30" x="58.398438"/>
       <use xlink:href="#ArialMT-2e" x="114.013672"/>
       <use xlink:href="#ArialMT-35" x="141.796875"/>
       <use xlink:href="#ArialMT-30" x="197.412109"/>
      </g>
     </g>
    </g>
    <g id="ytick_13">
     <g id="line2d_33">
      <path d="M 523.923068 183.24 
L 929.74125 183.24 
" clip-path="url(#p77f549b378)" style="fill: none; stroke-dasharray: 1.85,0.8; stroke-dashoffset: 0; stroke: #808080; stroke-width: 0.5"/>
     </g>
     <g id="text_32">
      <!-- −0.25 -->
      <g style="fill: #262626" transform="translate(494.181818 186.103125) scale(0.08 -0.08)">
       <use xlink:href="#ArialMT-2212"/>
       <use xlink:href="#ArialMT-30" x="58.398438"/>
       <use xlink:href="#ArialMT-2e" x="114.013672"/>
       <use xlink:href="#ArialMT-32" x="141.796875"/>
       <use xlink:href="#ArialMT-35" x="197.412109"/>
      </g>
     </g>
    </g>
    <g id="ytick_14">
     <g id="line2d_34">
      <path d="M 523.923068 158.4 
L 929.74125 158.4 
" clip-path="url(#p77f549b378)" style="fill: none; stroke-dasharray: 1.85,0.8; stroke-dashoffset: 0; stroke: #808080; stroke-width: 0.5"/>
     </g>
     <g id="text_33">
      <!-- 0.00 -->
      <g style="fill: #262626" transform="translate(498.854318 161.263125) scale(0.08 -0.08)">
       <use xlink:href="#ArialMT-30"/>
       <use xlink:href="#ArialMT-2e" x="55.615234"/>
       <use xlink:href="#ArialMT-30" x="83.398438"/>
       <use xlink:href="#ArialMT-30" x="139.013672"/>
      </g>
     </g>
    </g>
    <g id="ytick_15">
     <g id="line2d_35">
      <path d="M 523.923068 133.56 
L 929.74125 133.56 
" clip-path="url(#p77f549b378)" style="fill: none; stroke-dasharray: 1.85,0.8; stroke-dashoffset: 0; stroke: #808080; stroke-width: 0.5"/>
     </g>
     <g id="text_34">
      <!-- 0.25 -->
      <g style="fill: #262626" transform="translate(498.854318 136.423125) scale(0.08 -0.08)">
       <use xlink:href="#ArialMT-30"/>
       <use xlink:href="#ArialMT-2e" x="55.615234"/>
       <use xlink:href="#ArialMT-32" x="83.398438"/>
       <use xlink:href="#ArialMT-35" x="139.013672"/>
      </g>
     </g>
    </g>
    <g id="ytick_16">
     <g id="line2d_36">
      <path d="M 523.923068 108.72 
L 929.74125 108.72 
" clip-path="url(#p77f549b378)" style="fill: none; stroke-dasharray: 1.85,0.8; stroke-dashoffset: 0; stroke: #808080; stroke-width: 0.5"/>
     </g>
     <g id="text_35">
      <!-- 0.50 -->
      <g style="fill: #262626" transform="translate(498.854318 111.583125) scale(0.08 -0.08)">
       <use xlink:href="#ArialMT-30"/>
       <use xlink:href="#ArialMT-2e" x="55.615234"/>
       <use xlink:href="#ArialMT-35" x="83.398438"/>
       <use xlink:href="#ArialMT-30" x="139.013672"/>
      </g>
     </g>
    </g>
    <g id="ytick_17">
     <g id="line2d_37">
      <path d="M 523.923068 83.88 
L 929.74125 83.88 
" clip-path="url(#p77f549b378)" style="fill: none; stroke-dasharray: 1.85,0.8; stroke-dashoffset: 0; stroke: #808080; stroke-width: 0.5"/>
     </g>
     <g id="text_36">
      <!-- 0.75 -->
      <g style="fill: #262626" transform="translate(498.854318 86.743125) scale(0.08 -0.08)">
       <use xlink:href="#ArialMT-30"/>
       <use xlink:href="#ArialMT-2e" x="55.615234"/>
       <use xlink:href="#ArialMT-37" x="83.398438"/>
       <use xlink:href="#ArialMT-35" x="139.013672"/>
      </g>
     </g>
    </g>
    <g id="ytick_18">
     <g id="line2d_38">
      <path d="M 523.923068 59.04 
L 929.74125 59.04 
" clip-path="url(#p77f549b378)" style="fill: none; stroke-dasharray: 1.85,0.8; stroke-dashoffset: 0; stroke: #808080; stroke-width: 0.5"/>
     </g>
     <g id="text_37">
      <!-- 1.00 -->
      <g style="fill: #262626" transform="translate(498.854318 61.903125) scale(0.08 -0.08)">
       <use xlink:href="#ArialMT-31"/>
       <use xlink:href="#ArialMT-2e" x="55.615234"/>
       <use xlink:href="#ArialMT-30" x="83.398438"/>
       <use xlink:href="#ArialMT-30" x="139.013672"/>
      </g>
     </g>
    </g>
   </g>
   <g id="PolyCollection_2">
    <defs>
     <path id="me5d3405204" d="M 546.172706 -131.17217 
L 546.172706 -115.58033 
L 557.582777 -115.58033 
L 565.189491 -115.58033 
L 572.796204 -115.58033 
L 580.402918 -115.58033 
L 588.009632 -115.58033 
L 595.616346 -115.58033 
L 603.22306 -115.58033 
L 610.829773 -115.58033 
L 618.436487 -115.58033 
L 626.043201 -115.58033 
L 633.649915 -115.58033 
L 641.256629 -115.58033 
L 648.863343 -115.58033 
L 656.470056 -115.58033 
L 664.07677 -115.58033 
L 671.683484 -115.58033 
L 679.290198 -115.58033 
L 686.896912 -115.58033 
L 694.503625 -115.58033 
L 702.110339 -115.58033 
L 709.717053 -115.58033 
L 717.323767 -115.58033 
L 724.930481 -115.58033 
L 732.537194 -115.58033 
L 740.143908 -115.58033 
L 747.750622 -115.58033 
L 755.357336 -115.58033 
L 762.96405 -115.58033 
L 770.570764 -115.58033 
L 778.177477 -115.58033 
L 785.784191 -115.58033 
L 793.390905 -115.58033 
L 800.997619 -115.58033 
L 808.604333 -115.58033 
L 816.211046 -115.58033 
L 823.81776 -115.58033 
L 831.424474 -115.58033 
L 839.031188 -115.58033 
L 846.637902 -115.58033 
L 854.244615 -115.58033 
L 861.851329 -115.58033 
L 869.458043 -115.58033 
L 877.064757 -115.58033 
L 884.671471 -115.58033 
L 892.278184 -115.58033 
L 899.884898 -115.58033 
L 911.294969 -115.58033 
L 911.294969 -131.17217 
L 911.294969 -131.17217 
L 899.884898 -131.17217 
L 892.278184 -131.17217 
L 884.671471 -131.17217 
L 877.064757 -131.17217 
L 869.458043 -131.17217 
L 861.851329 -131.17217 
L 854.244615 -131.17217 
L 846.637902 -131.17217 
L 839.031188 -131.17217 
L 831.424474 -131.17217 
L 823.81776 -131.17217 
L 816.211046 -131.17217 
L 808.604333 -131.17217 
L 800.997619 -131.17217 
L 793.390905 -131.17217 
L 785.784191 -131.17217 
L 778.177477 -131.17217 
L 770.570764 -131.17217 
L 762.96405 -131.17217 
L 755.357336 -131.17217 
L 747.750622 -131.17217 
L 740.143908 -131.17217 
L 732.537194 -131.17217 
L 724.930481 -131.17217 
L 717.323767 -131.17217 
L 709.717053 -131.17217 
L 702.110339 -131.17217 
L 694.503625 -131.17217 
L 686.896912 -131.17217 
L 679.290198 -131.17217 
L 671.683484 -131.17217 
L 664.07677 -131.17217 
L 656.470056 -131.17217 
L 648.863343 -131.17217 
L 641.256629 -131.17217 
L 633.649915 -131.17217 
L 626.043201 -131.17217 
L 618.436487 -131.17217 
L 610.829773 -131.17217 
L 603.22306 -131.17217 
L 595.616346 -131.17217 
L 588.009632 -131.17217 
L 580.402918 -131.17217 
L 572.796204 -131.17217 
L 565.189491 -131.17217 
L 557.582777 -131.17217 
L 546.172706 -131.17217 
z
" style="stroke: #ffffff; stroke-opacity: 0.25"/>
    </defs>
    <g clip-path="url(#p77f549b378)">
     <use xlink:href="#me5d3405204" x="0" y="281.77625" style="fill: #194a7a; fill-opacity: 0.25; stroke: #ffffff; stroke-opacity: 0.25"/>
    </g>
   </g>
   <g id="LineCollection_2">
    <path d="M 542.369349 158.4 
L 542.369349 59.04 
" clip-path="url(#p77f549b378)" style="fill: none; stroke: #194a7a; stroke-width: 1.2"/>
    <path d="M 549.976063 158.4 
L 549.976063 144.347986 
" clip-path="url(#p77f549b378)" style="fill: none; stroke: #194a7a; stroke-width: 1.2"/>
    <path d="M 557.582777 158.4 
L 557.582777 153.331398 
" clip-path="url(#p77f549b378)" style="fill: none; stroke: #194a7a; stroke-width: 1.2"/>
    <path d="M 565.189491 158.4 
L 565.189491 161.181188 
" clip-path="url(#p77f549b378)" style="fill: none; stroke: #194a7a; stroke-width: 1.2"/>
    <path d="M 572.796204 158.4 
L 572.796204 157.727219 
" clip-path="url(#p77f549b378)" style="fill: none; stroke: #194a7a; stroke-width: 1.2"/>
    <path d="M 580.402918 158.4 
L 580.402918 155.505086 
" clip-path="url(#p77f549b378)" style="fill: none; stroke: #194a7a; stroke-width: 1.2"/>
    <path d="M 588.009632 158.4 
L 588.009632 163.223087 
" clip-path="url(#p77f549b378)" style="fill: none; stroke: #194a7a; stroke-width: 1.2"/>
    <path d="M 595.616346 158.4 
L 595.616346 157.130117 
" clip-path="url(#p77f549b378)" style="fill: none; stroke: #194a7a; stroke-width: 1.2"/>
    <path d="M 603.22306 158.4 
L 603.22306 156.989197 
" clip-path="url(#p77f549b378)" style="fill: none; stroke: #194a7a; stroke-width: 1.2"/>
    <path d="M 610.829773 158.4 
L 610.829773 154.665693 
" clip-path="url(#p77f549b378)" style="fill: none; stroke: #194a7a; stroke-width: 1.2"/>
    <path d="M 618.436487 158.4 
L 618.436487 161.419565 
" clip-path="url(#p77f549b378)" style="fill: none; stroke: #194a7a; stroke-width: 1.2"/>
    <path d="M 626.043201 158.4 
L 626.043201 166.765967 
" clip-path="url(#p77f549b378)" style="fill: none; stroke: #194a7a; stroke-width: 1.2"/>
    <path d="M 633.649915 158.4 
L 633.649915 228.000253 
" clip-path="url(#p77f549b378)" style="fill: none; stroke: #194a7a; stroke-width: 1.2"/>
    <path d="M 641.256629 158.4 
L 641.256629 151.612875 
" clip-path="url(#p77f549b378)" style="fill: none; stroke: #194a7a; stroke-width: 1.2"/>
    <path d="M 648.863343 158.4 
L 648.863343 148.815303 
" clip-path="url(#p77f549b378)" style="fill: none; stroke: #194a7a; stroke-width: 1.2"/>
    <path d="M 656.470056 158.4 
L 656.470056 159.241034 
" clip-path="url(#p77f549b378)" style="fill: none; stroke: #194a7a; stroke-width: 1.2"/>
    <path d="M 664.07677 158.4 
L 664.07677 159.234824 
" clip-path="url(#p77f549b378)" style="fill: none; stroke: #194a7a; stroke-width: 1.2"/>
    <path d="M 671.683484 158.4 
L 671.683484 162.234457 
" clip-path="url(#p77f549b378)" style="fill: none; stroke: #194a7a; stroke-width: 1.2"/>
    <path d="M 679.290198 158.4 
L 679.290198 159.586502 
" clip-path="url(#p77f549b378)" style="fill: none; stroke: #194a7a; stroke-width: 1.2"/>
    <path d="M 686.896912 158.4 
L 686.896912 162.264172 
" clip-path="url(#p77f549b378)" style="fill: none; stroke: #194a7a; stroke-width: 1.2"/>
    <path d="M 694.503625 158.4 
L 694.503625 156.986343 
" clip-path="url(#p77f549b378)" style="fill: none; stroke: #194a7a; stroke-width: 1.2"/>
    <path d="M 702.110339 158.4 
L 702.110339 167.384511 
" clip-path="url(#p77f549b378)" style="fill: none; stroke: #194a7a; stroke-width: 1.2"/>
    <path d="M 709.717053 158.4 
L 709.717053 169.394802 
" clip-path="url(#p77f549b378)" style="fill: none; stroke: #194a7a; stroke-width: 1.2"/>
    <path d="M 717.323767 158.4 
L 717.323767 158.557755 
" clip-path="url(#p77f549b378)" style="fill: none; stroke: #194a7a; stroke-width: 1.2"/>
    <path d="M 724.930481 158.4 
L 724.930481 212.492691 
" clip-path="url(#p77f549b378)" style="fill: none; stroke: #194a7a; stroke-width: 1.2"/>
    <path d="M 732.537194 158.4 
L 732.537194 148.318145 
" clip-path="url(#p77f549b378)" style="fill: none; stroke: #194a7a; stroke-width: 1.2"/>
    <path d="M 740.143908 158.4 
L 740.143908 157.712697 
" clip-path="url(#p77f549b378)" style="fill: none; stroke: #194a7a; stroke-width: 1.2"/>
    <path d="M 747.750622 158.4 
L 747.750622 160.494255 
" clip-path="url(#p77f549b378)" style="fill: none; stroke: #194a7a; stroke-width: 1.2"/>
    <path d="M 755.357336 158.4 
L 755.357336 159.820686 
" clip-path="url(#p77f549b378)" style="fill: none; stroke: #194a7a; stroke-width: 1.2"/>
    <path d="M 762.96405 158.4 
L 762.96405 160.622459 
" clip-path="url(#p77f549b378)" style="fill: none; stroke: #194a7a; stroke-width: 1.2"/>
    <path d="M 770.570764 158.4 
L 770.570764 163.541205 
" clip-path="url(#p77f549b378)" style="fill: none; stroke: #194a7a; stroke-width: 1.2"/>
    <path d="M 778.177477 158.4 
L 778.177477 152.854839 
" clip-path="url(#p77f549b378)" style="fill: none; stroke: #194a7a; stroke-width: 1.2"/>
    <path d="M 785.784191 158.4 
L 785.784191 157.339044 
" clip-path="url(#p77f549b378)" style="fill: none; stroke: #194a7a; stroke-width: 1.2"/>
    <path d="M 793.390905 158.4 
L 793.390905 156.530411 
" clip-path="url(#p77f549b378)" style="fill: none; stroke: #194a7a; stroke-width: 1.2"/>
    <path d="M 800.997619 158.4 
L 800.997619 162.641359 
" clip-path="url(#p77f549b378)" style="fill: none; stroke: #194a7a; stroke-width: 1.2"/>
    <path d="M 808.604333 158.4 
L 808.604333 158.902002 
" clip-path="url(#p77f549b378)" style="fill: none; stroke: #194a7a; stroke-width: 1.2"/>
    <path d="M 816.211046 158.4 
L 816.211046 190.803636 
" clip-path="url(#p77f549b378)" style="fill: none; stroke: #194a7a; stroke-width: 1.2"/>
    <path d="M 823.81776 158.4 
L 823.81776 145.856292 
" clip-path="url(#p77f549b378)" style="fill: none; stroke: #194a7a; stroke-width: 1.2"/>
    <path d="M 831.424474 158.4 
L 831.424474 161.677803 
" clip-path="url(#p77f549b378)" style="fill: none; stroke: #194a7a; stroke-width: 1.2"/>
    <path d="M 839.031188 158.4 
L 839.031188 157.48992 
" clip-path="url(#p77f549b378)" style="fill: none; stroke: #194a7a; stroke-width: 1.2"/>
    <path d="M 846.637902 158.4 
L 846.637902 157.802003 
" clip-path="url(#p77f549b378)" style="fill: none; stroke: #194a7a; stroke-width: 1.2"/>
    <path d="M 854.244615 158.4 
L 854.244615 160.272319 
" clip-path="url(#p77f549b378)" style="fill: none; stroke: #194a7a; stroke-width: 1.2"/>
    <path d="M 861.851329 158.4 
L 861.851329 169.08298 
" clip-path="url(#p77f549b378)" style="fill: none; stroke: #194a7a; stroke-width: 1.2"/>
    <path d="M 869.458043 158.4 
L 869.458043 160.256657 
" clip-path="url(#p77f549b378)" style="fill: none; stroke: #194a7a; stroke-width: 1.2"/>
    <path d="M 877.064757 158.4 
L 877.064757 159.440964 
" clip-path="url(#p77f549b378)" style="fill: none; stroke: #194a7a; stroke-width: 1.2"/>
    <path d="M 884.671471 158.4 
L 884.671471 159.160561 
" clip-path="url(#p77f549b378)" style="fill: none; stroke: #194a7a; stroke-width: 1.2"/>
    <path d="M 892.278184 158.4 
L 892.278184 166.217964 
" clip-path="url(#p77f549b378)" style="fill: none; stroke: #194a7a; stroke-width: 1.2"/>
    <path d="M 899.884898 158.4 
L 899.884898 161.790744 
" clip-path="url(#p77f549b378)" style="fill: none; stroke: #194a7a; stroke-width: 1.2"/>
    <path d="M 907.491612 158.4 
L 907.491612 178.178011 
" clip-path="url(#p77f549b378)" style="fill: none; stroke: #194a7a; stroke-width: 1.2"/>
   </g>
   <g id="line2d_39">
    <path d="M 523.923068 158.4 
L 929.74125 158.4 
" clip-path="url(#p77f549b378)" style="fill: none; stroke: #194a7a; stroke-width: 1.2; stroke-linecap: round"/>
   </g>
   <g id="line2d_40">
    <g clip-path="url(#p77f549b378)">
     <use xlink:href="#mbe02c9192b" x="542.369349" y="59.04" style="fill: #194a7a; stroke: #194a7a"/>
     <use xlink:href="#mbe02c9192b" x="549.976063" y="144.347986" style="fill: #194a7a; stroke: #194a7a"/>
     <use xlink:href="#mbe02c9192b" x="557.582777" y="153.331398" style="fill: #194a7a; stroke: #194a7a"/>
     <use xlink:href="#mbe02c9192b" x="565.189491" y="161.181188" style="fill: #194a7a; stroke: #194a7a"/>
     <use xlink:href="#mbe02c9192b" x="572.796204" y="157.727219" style="fill: #194a7a; stroke: #194a7a"/>
     <use xlink:href="#mbe02c9192b" x="580.402918" y="155.505086" style="fill: #194a7a; stroke: #194a7a"/>
     <use xlink:href="#mbe02c9192b" x="588.009632" y="163.223087" style="fill: #194a7a; stroke: #194a7a"/>
     <use xlink:href="#mbe02c9192b" x="595.616346" y="157.130117" style="fill: #194a7a; stroke: #194a7a"/>
     <use xlink:href="#mbe02c9192b" x="603.22306" y="156.989197" style="fill: #194a7a; stroke: #194a7a"/>
     <use xlink:href="#mbe02c9192b" x="610.829773" y="154.665693" style="fill: #194a7a; stroke: #194a7a"/>
     <use xlink:href="#mbe02c9192b" x="618.436487" y="161.419565" style="fill: #194a7a; stroke: #194a7a"/>
     <use xlink:href="#mbe02c9192b" x="626.043201" y="166.765967" style="fill: #194a7a; stroke: #194a7a"/>
     <use xlink:href="#mbe02c9192b" x="633.649915" y="228.000253" style="fill: #194a7a; stroke: #194a7a"/>
     <use xlink:href="#mbe02c9192b" x="641.256629" y="151.612875" style="fill: #194a7a; stroke: #194a7a"/>
     <use xlink:href="#mbe02c9192b" x="648.863343" y="148.815303" style="fill: #194a7a; stroke: #194a7a"/>
     <use xlink:href="#mbe02c9192b" x="656.470056" y="159.241034" style="fill: #194a7a; stroke: #194a7a"/>
     <use xlink:href="#mbe02c9192b" x="664.07677" y="159.234824" style="fill: #194a7a; stroke: #194a7a"/>
     <use xlink:href="#mbe02c9192b" x="671.683484" y="162.234457" style="fill: #194a7a; stroke: #194a7a"/>
     <use xlink:href="#mbe02c9192b" x="679.290198" y="159.586502" style="fill: #194a7a; stroke: #194a7a"/>
     <use xlink:href="#mbe02c9192b" x="686.896912" y="162.264172" style="fill: #194a7a; stroke: #194a7a"/>
     <use xlink:href="#mbe02c9192b" x="694.503625" y="156.986343" style="fill: #194a7a; stroke: #194a7a"/>
     <use xlink:href="#mbe02c9192b" x="702.110339" y="167.384511" style="fill: #194a7a; stroke: #194a7a"/>
     <use xlink:href="#mbe02c9192b" x="709.717053" y="169.394802" style="fill: #194a7a; stroke: #194a7a"/>
     <use xlink:href="#mbe02c9192b" x="717.323767" y="158.557755" style="fill: #194a7a; stroke: #194a7a"/>
     <use xlink:href="#mbe02c9192b" x="724.930481" y="212.492691" style="fill: #194a7a; stroke: #194a7a"/>
     <use xlink:href="#mbe02c9192b" x="732.537194" y="148.318145" style="fill: #194a7a; stroke: #194a7a"/>
     <use xlink:href="#mbe02c9192b" x="740.143908" y="157.712697" style="fill: #194a7a; stroke: #194a7a"/>
     <use xlink:href="#mbe02c9192b" x="747.750622" y="160.494255" style="fill: #194a7a; stroke: #194a7a"/>
     <use xlink:href="#mbe02c9192b" x="755.357336" y="159.820686" style="fill: #194a7a; stroke: #194a7a"/>
     <use xlink:href="#mbe02c9192b" x="762.96405" y="160.622459" style="fill: #194a7a; stroke: #194a7a"/>
     <use xlink:href="#mbe02c9192b" x="770.570764" y="163.541205" style="fill: #194a7a; stroke: #194a7a"/>
     <use xlink:href="#mbe02c9192b" x="778.177477" y="152.854839" style="fill: #194a7a; stroke: #194a7a"/>
     <use xlink:href="#mbe02c9192b" x="785.784191" y="157.339044" style="fill: #194a7a; stroke: #194a7a"/>
     <use xlink:href="#mbe02c9192b" x="793.390905" y="156.530411" style="fill: #194a7a; stroke: #194a7a"/>
     <use xlink:href="#mbe02c9192b" x="800.997619" y="162.641359" style="fill: #194a7a; stroke: #194a7a"/>
     <use xlink:href="#mbe02c9192b" x="808.604333" y="158.902002" style="fill: #194a7a; stroke: #194a7a"/>
     <use xlink:href="#mbe02c9192b" x="816.211046" y="190.803636" style="fill: #194a7a; stroke: #194a7a"/>
     <use xlink:href="#mbe02c9192b" x="823.81776" y="145.856292" style="fill: #194a7a; stroke: #194a7a"/>
     <use xlink:href="#mbe02c9192b" x="831.424474" y="161.677803" style="fill: #194a7a; stroke: #194a7a"/>
     <use xlink:href="#mbe02c9192b" x="839.031188" y="157.48992" style="fill: #194a7a; stroke: #194a7a"/>
     <use xlink:href="#mbe02c9192b" x="846.637902" y="157.802003" style="fill: #194a7a; stroke: #194a7a"/>
     <use xlink:href="#mbe02c9192b" x="854.244615" y="160.272319" style="fill: #194a7a; stroke: #194a7a"/>
     <use xlink:href="#mbe02c9192b" x="861.851329" y="169.08298" style="fill: #194a7a; stroke: #194a7a"/>
     <use xlink:href="#mbe02c9192b" x="869.458043" y="160.256657" style="fill: #194a7a; stroke: #194a7a"/>
     <use xlink:href="#mbe02c9192b" x="877.064757" y="159.440964" style="fill: #194a7a; stroke: #194a7a"/>
     <use xlink:href="#mbe02c9192b" x="884.671471" y="159.160561" style="fill: #194a7a; stroke: #194a7a"/>
     <use xlink:href="#mbe02c9192b" x="892.278184" y="166.217964" style="fill: #194a7a; stroke: #194a7a"/>
     <use xlink:href="#mbe02c9192b" x="899.884898" y="161.790744" style="fill: #194a7a; stroke: #194a7a"/>
     <use xlink:href="#mbe02c9192b" x="907.491612" y="178.178011" style="fill: #194a7a; stroke: #194a7a"/>
    </g>
   </g>
   <g id="patch_8">
    <path d="M 523.923068 257.76 
L 523.923068 59.04 
" style="fill: none; stroke: #cccccc; stroke-width: 1.25; stroke-linejoin: miter; stroke-linecap: square"/>
   </g>
   <g id="patch_9">
    <path d="M 929.74125 257.76 
L 929.74125 59.04 
" style="fill: none; stroke: #cccccc; stroke-width: 1.25; stroke-linejoin: miter; stroke-linecap: square"/>
   </g>
   <g id="patch_10">
    <path d="M 523.923068 257.76 
L 929.74125 257.76 
" style="fill: none; stroke: #cccccc; stroke-width: 1.25; stroke-linejoin: miter; stroke-linecap: square"/>
   </g>
   <g id="patch_11">
    <path d="M 523.923068 59.04 
L 929.74125 59.04 
" style="fill: none; stroke: #cccccc; stroke-width: 1.25; stroke-linejoin: miter; stroke-linecap: square"/>
   </g>
   <g id="text_38">
    <!-- Autocorrelaciones Parciales -->
    <g style="fill: #262626" transform="translate(632.683253 53.04) scale(0.14 -0.14)">
     <defs>
      <path id="Arial-BoldMT-50" d="M 466 0 
L 466 4581 
L 1950 4581 
Q 2794 4581 3050 4513 
Q 3444 4409 3709 4064 
Q 3975 3719 3975 3172 
Q 3975 2750 3822 2462 
Q 3669 2175 3433 2011 
Q 3197 1847 2953 1794 
Q 2622 1728 1994 1728 
L 1391 1728 
L 1391 0 
L 466 0 
z
M 1391 3806 
L 1391 2506 
L 1897 2506 
Q 2444 2506 2628 2578 
Q 2813 2650 2917 2803 
Q 3022 2956 3022 3159 
Q 3022 3409 2875 3571 
Q 2728 3734 2503 3775 
Q 2338 3806 1838 3806 
L 1391 3806 
z
" transform="scale(0.015625)"/>
     </defs>
     <use xlink:href="#Arial-BoldMT-41"/>
     <use xlink:href="#Arial-BoldMT-75" x="72.216797"/>
     <use xlink:href="#Arial-BoldMT-74" x="133.300781"/>
     <use xlink:href="#Arial-BoldMT-6f" x="166.601562"/>
     <use xlink:href="#Arial-BoldMT-63" x="227.685547"/>
     <use xlink:href="#Arial-BoldMT-6f" x="283.300781"/>
     <use xlink:href="#Arial-BoldMT-72" x="344.384766"/>
     <use xlink:href="#Arial-BoldMT-72" x="383.300781"/>
     <use xlink:href="#Arial-BoldMT-65" x="422.216797"/>
     <use xlink:href="#Arial-BoldMT-6c" x="477.832031"/>
     <use xlink:href="#Arial-BoldMT-61" x="505.615234"/>
     <use xlink:href="#Arial-BoldMT-63" x="561.230469"/>
     <use xlink:href="#Arial-BoldMT-69" x="616.845703"/>
     <use xlink:href="#Arial-BoldMT-6f" x="644.628906"/>
     <use xlink:href="#Arial-BoldMT-6e" x="705.712891"/>
     <use xlink:href="#Arial-BoldMT-65" x="766.796875"/>
     <use xlink:href="#Arial-BoldMT-73" x="822.412109"/>
     <use xlink:href="#Arial-BoldMT-20" x="878.027344"/>
     <use xlink:href="#Arial-BoldMT-50" x="905.810547"/>
     <use xlink:href="#Arial-BoldMT-61" x="972.509766"/>
     <use xlink:href="#Arial-BoldMT-72" x="1028.125"/>
     <use xlink:href="#Arial-BoldMT-63" x="1067.041016"/>
     <use xlink:href="#Arial-BoldMT-69" x="1122.65625"/>
     <use xlink:href="#Arial-BoldMT-61" x="1150.439453"/>
     <use xlink:href="#Arial-BoldMT-6c" x="1206.054688"/>
     <use xlink:href="#Arial-BoldMT-65" x="1233.837891"/>
     <use xlink:href="#Arial-BoldMT-73" x="1289.453125"/>
    </g>
   </g>
  </g>
  <g id="text_39">
   <!-- FAC y FACP de la Serie Transformada, D=3, de la Precipitación Mensual en Puebla -->
   <g style="fill: #262626" transform="translate(156.76625 18.8475) scale(0.16 -0.16)">
    <defs>
     <path id="Arial-BoldMT-46" d="M 472 0 
L 472 4581 
L 3613 4581 
L 3613 3806 
L 1397 3806 
L 1397 2722 
L 3309 2722 
L 3309 1947 
L 1397 1947 
L 1397 0 
L 472 0 
z
" transform="scale(0.015625)"/>
     <path id="Arial-BoldMT-43" d="M 3397 1684 
L 4294 1400 
Q 4088 650 3608 286 
Q 3128 -78 2391 -78 
Q 1478 -78 890 545 
Q 303 1169 303 2250 
Q 303 3394 893 4026 
Q 1484 4659 2447 4659 
Q 3288 4659 3813 4163 
Q 4125 3869 4281 3319 
L 3366 3100 
Q 3284 3456 3026 3662 
Q 2769 3869 2400 3869 
Q 1891 3869 1573 3503 
Q 1256 3138 1256 2319 
Q 1256 1450 1568 1081 
Q 1881 713 2381 713 
Q 2750 713 3015 947 
Q 3281 1181 3397 1684 
z
" transform="scale(0.015625)"/>
     <path id="Arial-BoldMT-79" d="M 44 3319 
L 978 3319 
L 1772 963 
L 2547 3319 
L 3456 3319 
L 2284 125 
L 2075 -453 
Q 1959 -744 1854 -897 
Q 1750 -1050 1614 -1145 
Q 1478 -1241 1279 -1294 
Q 1081 -1347 831 -1347 
Q 578 -1347 334 -1294 
L 256 -606 
Q 463 -647 628 -647 
Q 934 -647 1081 -467 
Q 1228 -288 1306 -9 
L 44 3319 
z
" transform="scale(0.015625)"/>
     <path id="Arial-BoldMT-64" d="M 3503 0 
L 2688 0 
L 2688 488 
Q 2484 203 2207 64 
Q 1931 -75 1650 -75 
Q 1078 -75 670 386 
Q 263 847 263 1672 
Q 263 2516 659 2955 
Q 1056 3394 1663 3394 
Q 2219 3394 2625 2931 
L 2625 4581 
L 3503 4581 
L 3503 0 
z
M 1159 1731 
Q 1159 1200 1306 963 
Q 1519 619 1900 619 
Q 2203 619 2415 876 
Q 2628 1134 2628 1647 
Q 2628 2219 2422 2470 
Q 2216 2722 1894 2722 
Q 1581 2722 1370 2473 
Q 1159 2225 1159 1731 
z
" transform="scale(0.015625)"/>
     <path id="Arial-BoldMT-54" d="M 1497 0 
L 1497 3806 
L 138 3806 
L 138 4581 
L 3778 4581 
L 3778 3806 
L 2422 3806 
L 2422 0 
L 1497 0 
z
" transform="scale(0.015625)"/>
     <path id="Arial-BoldMT-66" d="M 75 3319 
L 563 3319 
L 563 3569 
Q 563 3988 652 4194 
Q 741 4400 980 4529 
Q 1219 4659 1584 4659 
Q 1959 4659 2319 4547 
L 2200 3934 
Q 1991 3984 1797 3984 
Q 1606 3984 1523 3895 
Q 1441 3806 1441 3553 
L 1441 3319 
L 2097 3319 
L 2097 2628 
L 1441 2628 
L 1441 0 
L 563 0 
L 563 2628 
L 75 2628 
L 75 3319 
z
" transform="scale(0.015625)"/>
     <path id="Arial-BoldMT-2c" d="M 438 878 
L 1316 878 
L 1316 250 
Q 1316 -131 1250 -351 
Q 1184 -572 1001 -747 
Q 819 -922 538 -1022 
L 366 -659 
Q 631 -572 743 -419 
Q 856 -266 863 0 
L 438 0 
L 438 878 
z
" transform="scale(0.015625)"/>
     <path id="Arial-BoldMT-44" d="M 463 4581 
L 2153 4581 
Q 2725 4581 3025 4494 
Q 3428 4375 3715 4072 
Q 4003 3769 4153 3330 
Q 4303 2891 4303 2247 
Q 4303 1681 4163 1272 
Q 3991 772 3672 463 
Q 3431 228 3022 97 
Q 2716 0 2203 0 
L 463 0 
L 463 4581 
z
M 1388 3806 
L 1388 772 
L 2078 772 
Q 2466 772 2638 816 
Q 2863 872 3011 1006 
Q 3159 1141 3253 1448 
Q 3347 1756 3347 2288 
Q 3347 2819 3253 3103 
Q 3159 3388 2990 3547 
Q 2822 3706 2563 3763 
Q 2369 3806 1803 3806 
L 1388 3806 
z
" transform="scale(0.015625)"/>
     <path id="Arial-BoldMT-3d" d="M 266 2550 
L 266 3356 
L 3469 3356 
L 3469 2550 
L 266 2550 
z
M 266 1163 
L 266 1972 
L 3469 1972 
L 3469 1163 
L 266 1163 
z
" transform="scale(0.015625)"/>
     <path id="Arial-BoldMT-33" d="M 241 1216 
L 1091 1319 
Q 1131 994 1309 822 
Q 1488 650 1741 650 
Q 2013 650 2198 856 
Q 2384 1063 2384 1413 
Q 2384 1744 2206 1937 
Q 2028 2131 1772 2131 
Q 1603 2131 1369 2066 
L 1466 2781 
Q 1822 2772 2009 2936 
Q 2197 3100 2197 3372 
Q 2197 3603 2059 3740 
Q 1922 3878 1694 3878 
Q 1469 3878 1309 3722 
Q 1150 3566 1116 3266 
L 306 3403 
Q 391 3819 561 4067 
Q 731 4316 1036 4458 
Q 1341 4600 1719 4600 
Q 2366 4600 2756 4188 
Q 3078 3850 3078 3425 
Q 3078 2822 2419 2463 
Q 2813 2378 3048 2084 
Q 3284 1791 3284 1375 
Q 3284 772 2843 347 
Q 2403 -78 1747 -78 
Q 1125 -78 715 280 
Q 306 638 241 1216 
z
" transform="scale(0.015625)"/>
     <path id="Arial-BoldMT-f3" d="M 256 1706 
Q 256 2144 472 2553 
Q 688 2963 1083 3178 
Q 1478 3394 1966 3394 
Q 2719 3394 3200 2905 
Q 3681 2416 3681 1669 
Q 3681 916 3195 420 
Q 2709 -75 1972 -75 
Q 1516 -75 1102 131 
Q 688 338 472 736 
Q 256 1134 256 1706 
z
M 1156 1659 
Q 1156 1166 1390 903 
Q 1625 641 1969 641 
Q 2313 641 2545 903 
Q 2778 1166 2778 1666 
Q 2778 2153 2545 2415 
Q 2313 2678 1969 2678 
Q 1625 2678 1390 2415 
Q 1156 2153 1156 1659 
z
M 1528 3725 
L 1960 4659 
L 2944 4659 
L 2085 3725 
L 1528 3725 
z
" transform="scale(0.015625)"/>
     <path id="Arial-BoldMT-4d" d="M 453 0 
L 453 4581 
L 1838 4581 
L 2669 1456 
L 3491 4581 
L 4878 4581 
L 4878 0 
L 4019 0 
L 4019 3606 
L 3109 0 
L 2219 0 
L 1313 3606 
L 1313 0 
L 453 0 
z
" transform="scale(0.015625)"/>
     <path id="Arial-BoldMT-62" d="M 422 0 
L 422 4581 
L 1300 4581 
L 1300 2931 
Q 1706 3394 2263 3394 
Q 2869 3394 3266 2955 
Q 3663 2516 3663 1694 
Q 3663 844 3258 384 
Q 2853 -75 2275 -75 
Q 1991 -75 1714 67 
Q 1438 209 1238 488 
L 1238 0 
L 422 0 
z
M 1294 1731 
Q 1294 1216 1456 969 
Q 1684 619 2063 619 
Q 2353 619 2558 867 
Q 2763 1116 2763 1650 
Q 2763 2219 2556 2470 
Q 2350 2722 2028 2722 
Q 1713 2722 1503 2476 
Q 1294 2231 1294 1731 
z
" transform="scale(0.015625)"/>
    </defs>
    <use xlink:href="#Arial-BoldMT-46"/>
    <use xlink:href="#Arial-BoldMT-41" x="55.583984"/>
    <use xlink:href="#Arial-BoldMT-43" x="127.800781"/>
    <use xlink:href="#Arial-BoldMT-20" x="200.017578"/>
    <use xlink:href="#Arial-BoldMT-79" x="227.800781"/>
    <use xlink:href="#Arial-BoldMT-20" x="283.416016"/>
    <use xlink:href="#Arial-BoldMT-46" x="311.199219"/>
    <use xlink:href="#Arial-BoldMT-41" x="366.783203"/>
    <use xlink:href="#Arial-BoldMT-43" x="439"/>
    <use xlink:href="#Arial-BoldMT-50" x="511.216797"/>
    <use xlink:href="#Arial-BoldMT-20" x="576.166016"/>
    <use xlink:href="#Arial-BoldMT-64" x="603.949219"/>
    <use xlink:href="#Arial-BoldMT-65" x="665.033203"/>
    <use xlink:href="#Arial-BoldMT-20" x="720.648438"/>
    <use xlink:href="#Arial-BoldMT-6c" x="748.431641"/>
    <use xlink:href="#Arial-BoldMT-61" x="776.214844"/>
    <use xlink:href="#Arial-BoldMT-20" x="831.830078"/>
    <use xlink:href="#Arial-BoldMT-53" x="859.613281"/>
    <use xlink:href="#Arial-BoldMT-65" x="926.3125"/>
    <use xlink:href="#Arial-BoldMT-72" x="981.927734"/>
    <use xlink:href="#Arial-BoldMT-69" x="1020.84375"/>
    <use xlink:href="#Arial-BoldMT-65" x="1048.626953"/>
    <use xlink:href="#Arial-BoldMT-20" x="1104.242188"/>
    <use xlink:href="#Arial-BoldMT-54" x="1132.025391"/>
    <use xlink:href="#Arial-BoldMT-72" x="1187.609375"/>
    <use xlink:href="#Arial-BoldMT-61" x="1226.525391"/>
    <use xlink:href="#Arial-BoldMT-6e" x="1282.140625"/>
    <use xlink:href="#Arial-BoldMT-73" x="1343.224609"/>
    <use xlink:href="#Arial-BoldMT-66" x="1398.839844"/>
    <use xlink:href="#Arial-BoldMT-6f" x="1432.140625"/>
    <use xlink:href="#Arial-BoldMT-72" x="1493.224609"/>
    <use xlink:href="#Arial-BoldMT-6d" x="1532.140625"/>
    <use xlink:href="#Arial-BoldMT-61" x="1621.056641"/>
    <use xlink:href="#Arial-BoldMT-64" x="1676.671875"/>
    <use xlink:href="#Arial-BoldMT-61" x="1737.755859"/>
    <use xlink:href="#Arial-BoldMT-2c" x="1793.371094"/>
    <use xlink:href="#Arial-BoldMT-20" x="1821.154297"/>
    <use xlink:href="#Arial-BoldMT-44" x="1848.9375"/>
    <use xlink:href="#Arial-BoldMT-3d" x="1921.154297"/>
    <use xlink:href="#Arial-BoldMT-33" x="1979.552734"/>
    <use xlink:href="#Arial-BoldMT-2c" x="2035.167969"/>
    <use xlink:href="#Arial-BoldMT-20" x="2062.951172"/>
    <use xlink:href="#Arial-BoldMT-64" x="2090.734375"/>
    <use xlink:href="#Arial-BoldMT-65" x="2151.818359"/>
    <use xlink:href="#Arial-BoldMT-20" x="2207.433594"/>
    <use xlink:href="#Arial-BoldMT-6c" x="2235.216797"/>
    <use xlink:href="#Arial-BoldMT-61" x="2263"/>
    <use xlink:href="#Arial-BoldMT-20" x="2318.615234"/>
    <use xlink:href="#Arial-BoldMT-50" x="2346.398438"/>
    <use xlink:href="#Arial-BoldMT-72" x="2413.097656"/>
    <use xlink:href="#Arial-BoldMT-65" x="2452.013672"/>
    <use xlink:href="#Arial-BoldMT-63" x="2507.628906"/>
    <use xlink:href="#Arial-BoldMT-69" x="2563.244141"/>
    <use xlink:href="#Arial-BoldMT-70" x="2591.027344"/>
    <use xlink:href="#Arial-BoldMT-69" x="2652.111328"/>
    <use xlink:href="#Arial-BoldMT-74" x="2679.894531"/>
    <use xlink:href="#Arial-BoldMT-61" x="2713.195312"/>
    <use xlink:href="#Arial-BoldMT-63" x="2768.810547"/>
    <use xlink:href="#Arial-BoldMT-69" x="2824.425781"/>
    <use xlink:href="#Arial-BoldMT-f3" x="2852.208984"/>
    <use xlink:href="#Arial-BoldMT-6e" x="2913.292969"/>
    <use xlink:href="#Arial-BoldMT-20" x="2974.376953"/>
    <use xlink:href="#Arial-BoldMT-4d" x="3002.160156"/>
    <use xlink:href="#Arial-BoldMT-65" x="3085.460938"/>
    <use xlink:href="#Arial-BoldMT-6e" x="3141.076172"/>
    <use xlink:href="#Arial-BoldMT-73" x="3202.160156"/>
    <use xlink:href="#Arial-BoldMT-75" x="3257.775391"/>
    <use xlink:href="#Arial-BoldMT-61" x="3318.859375"/>
    <use xlink:href="#Arial-BoldMT-6c" x="3374.474609"/>
    <use xlink:href="#Arial-BoldMT-20" x="3402.257812"/>
    <use xlink:href="#Arial-BoldMT-65" x="3430.041016"/>
    <use xlink:href="#Arial-BoldMT-6e" x="3485.65625"/>
    <use xlink:href="#Arial-BoldMT-20" x="3546.740234"/>
    <use xlink:href="#Arial-BoldMT-50" x="3574.523438"/>
    <use xlink:href="#Arial-BoldMT-75" x="3641.222656"/>
    <use xlink:href="#Arial-BoldMT-65" x="3702.306641"/>
    <use xlink:href="#Arial-BoldMT-62" x="3757.921875"/>
    <use xlink:href="#Arial-BoldMT-6c" x="3819.005859"/>
    <use xlink:href="#Arial-BoldMT-61" x="3846.789062"/>
   </g>
  </g>
 </g>
 <defs>
  <clipPath id="p65d68cb3a6">
   <rect x="36.94125" y="59.04" width="405.818182" height="198.72"/>
  </clipPath>
  <clipPath id="p77f549b378">
   <rect x="523.923068" y="59.04" width="405.818182" height="198.72"/>
  </clipPath>
 </defs>
</svg>
