<?xml version="1.0" encoding="utf-8" standalone="no"?>
<!DOCTYPE svg PUBLIC "-//W3C//DTD SVG 1.1//EN"
  "http://www.w3.org/Graphics/SVG/1.1/DTD/svg11.dtd">
<svg xmlns:xlink="http://www.w3.org/1999/xlink" width="951.915625pt" height="296.750625pt" viewBox="0 0 951.915625 296.750625" xmlns="http://www.w3.org/2000/svg" version="1.1">
 <metadata>
  <rdf:RDF xmlns:dc="http://purl.org/dc/elements/1.1/" xmlns:cc="http://creativecommons.org/ns#" xmlns:rdf="http://www.w3.org/1999/02/22-rdf-syntax-ns#">
   <cc:Work>
    <dc:type rdf:resource="http://purl.org/dc/dcmitype/StillImage"/>
    <dc:date>2025-04-27T20:26:06.760793</dc:date>
    <dc:format>image/svg+xml</dc:format>
    <dc:creator>
     <cc:Agent>
      <dc:title>Matplotlib v3.8.4, https://matplotlib.org/</dc:title>
     </cc:Agent>
    </dc:creator>
   </cc:Work>
  </rdf:RDF>
 </metadata>
 <defs>
  <style type="text/css">*{stroke-linejoin: round; stroke-linecap: butt}</style>
 </defs>
 <g id="figure_1">
  <g id="patch_1">
   <path d="M 0 296.750625 
L 951.915625 296.750625 
L 951.915625 0 
L 0 0 
z
" style="fill: #ffffff"/>
  </g>
  <g id="axes_1">
   <g id="patch_2">
    <path d="M 51.915625 257.76 
L 457.733807 257.76 
L 457.733807 59.04 
L 51.915625 59.04 
z
" style="fill: #ffffff"/>
   </g>
   <g id="matplotlib.axis_1">
    <g id="xtick_1">
     <g id="line2d_1">
      <path d="M 70.361906 257.76 
L 70.361906 59.04 
" clip-path="url(#p98df9e71f8)" style="fill: none; stroke-dasharray: 1.85,0.8; stroke-dashoffset: 0; stroke: #808080; stroke-width: 0.5"/>
     </g>
     <g id="text_1">
      <!-- 0 -->
      <g style="fill: #262626" transform="translate(68.137531 272.98625) scale(0.08 -0.08)">
       <defs>
        <path id="ArialMT-30" d="M 266 2259 
Q 266 3072 433 3567 
Q 600 4063 929 4331 
Q 1259 4600 1759 4600 
Q 2128 4600 2406 4451 
Q 2684 4303 2865 4023 
Q 3047 3744 3150 3342 
Q 3253 2941 3253 2259 
Q 3253 1453 3087 958 
Q 2922 463 2592 192 
Q 2263 -78 1759 -78 
Q 1097 -78 719 397 
Q 266 969 266 2259 
z
M 844 2259 
Q 844 1131 1108 757 
Q 1372 384 1759 384 
Q 2147 384 2411 759 
Q 2675 1134 2675 2259 
Q 2675 3391 2411 3762 
Q 2147 4134 1753 4134 
Q 1366 4134 1134 3806 
Q 844 3388 844 2259 
z
" transform="scale(0.015625)"/>
       </defs>
       <use xlink:href="#ArialMT-30"/>
      </g>
     </g>
    </g>
    <g id="xtick_2">
     <g id="line2d_2">
      <path d="M 116.002189 257.76 
L 116.002189 59.04 
" clip-path="url(#p98df9e71f8)" style="fill: none; stroke-dasharray: 1.85,0.8; stroke-dashoffset: 0; stroke: #808080; stroke-width: 0.5"/>
     </g>
     <g id="text_2">
      <!-- 6 -->
      <g style="fill: #262626" transform="translate(113.777814 272.98625) scale(0.08 -0.08)">
       <defs>
        <path id="ArialMT-36" d="M 3184 3459 
L 2625 3416 
Q 2550 3747 2413 3897 
Q 2184 4138 1850 4138 
Q 1581 4138 1378 3988 
Q 1113 3794 959 3422 
Q 806 3050 800 2363 
Q 1003 2672 1297 2822 
Q 1591 2972 1913 2972 
Q 2475 2972 2870 2558 
Q 3266 2144 3266 1488 
Q 3266 1056 3080 686 
Q 2894 316 2569 119 
Q 2244 -78 1831 -78 
Q 1128 -78 684 439 
Q 241 956 241 2144 
Q 241 3472 731 4075 
Q 1159 4600 1884 4600 
Q 2425 4600 2770 4297 
Q 3116 3994 3184 3459 
z
M 888 1484 
Q 888 1194 1011 928 
Q 1134 663 1356 523 
Q 1578 384 1822 384 
Q 2178 384 2434 671 
Q 2691 959 2691 1453 
Q 2691 1928 2437 2201 
Q 2184 2475 1800 2475 
Q 1419 2475 1153 2201 
Q 888 1928 888 1484 
z
" transform="scale(0.015625)"/>
       </defs>
       <use xlink:href="#ArialMT-36"/>
      </g>
     </g>
    </g>
    <g id="xtick_3">
     <g id="line2d_3">
      <path d="M 161.642472 257.76 
L 161.642472 59.04 
" clip-path="url(#p98df9e71f8)" style="fill: none; stroke-dasharray: 1.85,0.8; stroke-dashoffset: 0; stroke: #808080; stroke-width: 0.5"/>
     </g>
     <g id="text_3">
      <!-- 12 -->
      <g style="fill: #262626" transform="translate(157.193722 272.98625) scale(0.08 -0.08)">
       <defs>
        <path id="ArialMT-31" d="M 2384 0 
L 1822 0 
L 1822 3584 
Q 1619 3391 1289 3197 
Q 959 3003 697 2906 
L 697 3450 
Q 1169 3672 1522 3987 
Q 1875 4303 2022 4600 
L 2384 4600 
L 2384 0 
z
" transform="scale(0.015625)"/>
        <path id="ArialMT-32" d="M 3222 541 
L 3222 0 
L 194 0 
Q 188 203 259 391 
Q 375 700 629 1000 
Q 884 1300 1366 1694 
Q 2113 2306 2375 2664 
Q 2638 3022 2638 3341 
Q 2638 3675 2398 3904 
Q 2159 4134 1775 4134 
Q 1369 4134 1125 3890 
Q 881 3647 878 3216 
L 300 3275 
Q 359 3922 746 4261 
Q 1134 4600 1788 4600 
Q 2447 4600 2831 4234 
Q 3216 3869 3216 3328 
Q 3216 3053 3103 2787 
Q 2991 2522 2730 2228 
Q 2469 1934 1863 1422 
Q 1356 997 1212 845 
Q 1069 694 975 541 
L 3222 541 
z
" transform="scale(0.015625)"/>
       </defs>
       <use xlink:href="#ArialMT-31"/>
       <use xlink:href="#ArialMT-32" x="55.615234"/>
      </g>
     </g>
    </g>
    <g id="xtick_4">
     <g id="line2d_4">
      <path d="M 207.282755 257.76 
L 207.282755 59.04 
" clip-path="url(#p98df9e71f8)" style="fill: none; stroke-dasharray: 1.85,0.8; stroke-dashoffset: 0; stroke: #808080; stroke-width: 0.5"/>
     </g>
     <g id="text_4">
      <!-- 18 -->
      <g style="fill: #262626" transform="translate(202.834005 272.98625) scale(0.08 -0.08)">
       <defs>
        <path id="ArialMT-38" d="M 1131 2484 
Q 781 2613 612 2850 
Q 444 3088 444 3419 
Q 444 3919 803 4259 
Q 1163 4600 1759 4600 
Q 2359 4600 2725 4251 
Q 3091 3903 3091 3403 
Q 3091 3084 2923 2848 
Q 2756 2613 2416 2484 
Q 2838 2347 3058 2040 
Q 3278 1734 3278 1309 
Q 3278 722 2862 322 
Q 2447 -78 1769 -78 
Q 1091 -78 675 323 
Q 259 725 259 1325 
Q 259 1772 486 2073 
Q 713 2375 1131 2484 
z
M 1019 3438 
Q 1019 3113 1228 2906 
Q 1438 2700 1772 2700 
Q 2097 2700 2305 2904 
Q 2513 3109 2513 3406 
Q 2513 3716 2298 3927 
Q 2084 4138 1766 4138 
Q 1444 4138 1231 3931 
Q 1019 3725 1019 3438 
z
M 838 1322 
Q 838 1081 952 856 
Q 1066 631 1291 507 
Q 1516 384 1775 384 
Q 2178 384 2440 643 
Q 2703 903 2703 1303 
Q 2703 1709 2433 1975 
Q 2163 2241 1756 2241 
Q 1359 2241 1098 1978 
Q 838 1716 838 1322 
z
" transform="scale(0.015625)"/>
       </defs>
       <use xlink:href="#ArialMT-31"/>
       <use xlink:href="#ArialMT-38" x="55.615234"/>
      </g>
     </g>
    </g>
    <g id="xtick_5">
     <g id="line2d_5">
      <path d="M 252.923037 257.76 
L 252.923037 59.04 
" clip-path="url(#p98df9e71f8)" style="fill: none; stroke-dasharray: 1.85,0.8; stroke-dashoffset: 0; stroke: #808080; stroke-width: 0.5"/>
     </g>
     <g id="text_5">
      <!-- 24 -->
      <g style="fill: #262626" transform="translate(248.474287 272.98625) scale(0.08 -0.08)">
       <defs>
        <path id="ArialMT-34" d="M 2069 0 
L 2069 1097 
L 81 1097 
L 81 1613 
L 2172 4581 
L 2631 4581 
L 2631 1613 
L 3250 1613 
L 3250 1097 
L 2631 1097 
L 2631 0 
L 2069 0 
z
M 2069 1613 
L 2069 3678 
L 634 1613 
L 2069 1613 
z
" transform="scale(0.015625)"/>
       </defs>
       <use xlink:href="#ArialMT-32"/>
       <use xlink:href="#ArialMT-34" x="55.615234"/>
      </g>
     </g>
    </g>
    <g id="xtick_6">
     <g id="line2d_6">
      <path d="M 298.56332 257.76 
L 298.56332 59.04 
" clip-path="url(#p98df9e71f8)" style="fill: none; stroke-dasharray: 1.85,0.8; stroke-dashoffset: 0; stroke: #808080; stroke-width: 0.5"/>
     </g>
     <g id="text_6">
      <!-- 30 -->
      <g style="fill: #262626" transform="translate(294.11457 272.98625) scale(0.08 -0.08)">
       <defs>
        <path id="ArialMT-33" d="M 269 1209 
L 831 1284 
Q 928 806 1161 595 
Q 1394 384 1728 384 
Q 2125 384 2398 659 
Q 2672 934 2672 1341 
Q 2672 1728 2419 1979 
Q 2166 2231 1775 2231 
Q 1616 2231 1378 2169 
L 1441 2663 
Q 1497 2656 1531 2656 
Q 1891 2656 2178 2843 
Q 2466 3031 2466 3422 
Q 2466 3731 2256 3934 
Q 2047 4138 1716 4138 
Q 1388 4138 1169 3931 
Q 950 3725 888 3313 
L 325 3413 
Q 428 3978 793 4289 
Q 1159 4600 1703 4600 
Q 2078 4600 2393 4439 
Q 2709 4278 2876 4000 
Q 3044 3722 3044 3409 
Q 3044 3113 2884 2869 
Q 2725 2625 2413 2481 
Q 2819 2388 3044 2092 
Q 3269 1797 3269 1353 
Q 3269 753 2831 336 
Q 2394 -81 1725 -81 
Q 1122 -81 723 278 
Q 325 638 269 1209 
z
" transform="scale(0.015625)"/>
       </defs>
       <use xlink:href="#ArialMT-33"/>
       <use xlink:href="#ArialMT-30" x="55.615234"/>
      </g>
     </g>
    </g>
    <g id="xtick_7">
     <g id="line2d_7">
      <path d="M 344.203603 257.76 
L 344.203603 59.04 
" clip-path="url(#p98df9e71f8)" style="fill: none; stroke-dasharray: 1.85,0.8; stroke-dashoffset: 0; stroke: #808080; stroke-width: 0.5"/>
     </g>
     <g id="text_7">
      <!-- 36 -->
      <g style="fill: #262626" transform="translate(339.754853 272.98625) scale(0.08 -0.08)">
       <use xlink:href="#ArialMT-33"/>
       <use xlink:href="#ArialMT-36" x="55.615234"/>
      </g>
     </g>
    </g>
    <g id="xtick_8">
     <g id="line2d_8">
      <path d="M 389.843886 257.76 
L 389.843886 59.04 
" clip-path="url(#p98df9e71f8)" style="fill: none; stroke-dasharray: 1.85,0.8; stroke-dashoffset: 0; stroke: #808080; stroke-width: 0.5"/>
     </g>
     <g id="text_8">
      <!-- 42 -->
      <g style="fill: #262626" transform="translate(385.395136 272.98625) scale(0.08 -0.08)">
       <use xlink:href="#ArialMT-34"/>
       <use xlink:href="#ArialMT-32" x="55.615234"/>
      </g>
     </g>
    </g>
    <g id="xtick_9">
     <g id="line2d_9">
      <path d="M 435.484169 257.76 
L 435.484169 59.04 
" clip-path="url(#p98df9e71f8)" style="fill: none; stroke-dasharray: 1.85,0.8; stroke-dashoffset: 0; stroke: #808080; stroke-width: 0.5"/>
     </g>
     <g id="text_9">
      <!-- 48 -->
      <g style="fill: #262626" transform="translate(431.035419 272.98625) scale(0.08 -0.08)">
       <use xlink:href="#ArialMT-34"/>
       <use xlink:href="#ArialMT-38" x="55.615234"/>
      </g>
     </g>
    </g>
    <g id="text_10">
     <!-- Retrasos -->
     <g style="fill: #262626" transform="translate(230.817216 287.165625) scale(0.12 -0.12)">
      <defs>
       <path id="ArialMT-52" d="M 503 0 
L 503 4581 
L 2534 4581 
Q 3147 4581 3465 4457 
Q 3784 4334 3975 4021 
Q 4166 3709 4166 3331 
Q 4166 2844 3850 2509 
Q 3534 2175 2875 2084 
Q 3116 1969 3241 1856 
Q 3506 1613 3744 1247 
L 4541 0 
L 3778 0 
L 3172 953 
Q 2906 1366 2734 1584 
Q 2563 1803 2427 1890 
Q 2291 1978 2150 2013 
Q 2047 2034 1813 2034 
L 1109 2034 
L 1109 0 
L 503 0 
z
M 1109 2559 
L 2413 2559 
Q 2828 2559 3062 2645 
Q 3297 2731 3419 2920 
Q 3541 3109 3541 3331 
Q 3541 3656 3305 3865 
Q 3069 4075 2559 4075 
L 1109 4075 
L 1109 2559 
z
" transform="scale(0.015625)"/>
       <path id="ArialMT-65" d="M 2694 1069 
L 3275 997 
Q 3138 488 2766 206 
Q 2394 -75 1816 -75 
Q 1088 -75 661 373 
Q 234 822 234 1631 
Q 234 2469 665 2931 
Q 1097 3394 1784 3394 
Q 2450 3394 2872 2941 
Q 3294 2488 3294 1666 
Q 3294 1616 3291 1516 
L 816 1516 
Q 847 969 1125 678 
Q 1403 388 1819 388 
Q 2128 388 2347 550 
Q 2566 713 2694 1069 
z
M 847 1978 
L 2700 1978 
Q 2663 2397 2488 2606 
Q 2219 2931 1791 2931 
Q 1403 2931 1139 2672 
Q 875 2413 847 1978 
z
" transform="scale(0.015625)"/>
       <path id="ArialMT-74" d="M 1650 503 
L 1731 6 
Q 1494 -44 1306 -44 
Q 1000 -44 831 53 
Q 663 150 594 308 
Q 525 466 525 972 
L 525 2881 
L 113 2881 
L 113 3319 
L 525 3319 
L 525 4141 
L 1084 4478 
L 1084 3319 
L 1650 3319 
L 1650 2881 
L 1084 2881 
L 1084 941 
Q 1084 700 1114 631 
Q 1144 563 1211 522 
Q 1278 481 1403 481 
Q 1497 481 1650 503 
z
" transform="scale(0.015625)"/>
       <path id="ArialMT-72" d="M 416 0 
L 416 3319 
L 922 3319 
L 922 2816 
Q 1116 3169 1280 3281 
Q 1444 3394 1641 3394 
Q 1925 3394 2219 3213 
L 2025 2691 
Q 1819 2813 1613 2813 
Q 1428 2813 1281 2702 
Q 1134 2591 1072 2394 
Q 978 2094 978 1738 
L 978 0 
L 416 0 
z
" transform="scale(0.015625)"/>
       <path id="ArialMT-61" d="M 2588 409 
Q 2275 144 1986 34 
Q 1697 -75 1366 -75 
Q 819 -75 525 192 
Q 231 459 231 875 
Q 231 1119 342 1320 
Q 453 1522 633 1644 
Q 813 1766 1038 1828 
Q 1203 1872 1538 1913 
Q 2219 1994 2541 2106 
Q 2544 2222 2544 2253 
Q 2544 2597 2384 2738 
Q 2169 2928 1744 2928 
Q 1347 2928 1158 2789 
Q 969 2650 878 2297 
L 328 2372 
Q 403 2725 575 2942 
Q 747 3159 1072 3276 
Q 1397 3394 1825 3394 
Q 2250 3394 2515 3294 
Q 2781 3194 2906 3042 
Q 3031 2891 3081 2659 
Q 3109 2516 3109 2141 
L 3109 1391 
Q 3109 606 3145 398 
Q 3181 191 3288 0 
L 2700 0 
Q 2613 175 2588 409 
z
M 2541 1666 
Q 2234 1541 1622 1453 
Q 1275 1403 1131 1340 
Q 988 1278 909 1158 
Q 831 1038 831 891 
Q 831 666 1001 516 
Q 1172 366 1500 366 
Q 1825 366 2078 508 
Q 2331 650 2450 897 
Q 2541 1088 2541 1459 
L 2541 1666 
z
" transform="scale(0.015625)"/>
       <path id="ArialMT-73" d="M 197 991 
L 753 1078 
Q 800 744 1014 566 
Q 1228 388 1613 388 
Q 2000 388 2187 545 
Q 2375 703 2375 916 
Q 2375 1106 2209 1216 
Q 2094 1291 1634 1406 
Q 1016 1563 777 1677 
Q 538 1791 414 1992 
Q 291 2194 291 2438 
Q 291 2659 392 2848 
Q 494 3038 669 3163 
Q 800 3259 1026 3326 
Q 1253 3394 1513 3394 
Q 1903 3394 2198 3281 
Q 2494 3169 2634 2976 
Q 2775 2784 2828 2463 
L 2278 2388 
Q 2241 2644 2061 2787 
Q 1881 2931 1553 2931 
Q 1166 2931 1000 2803 
Q 834 2675 834 2503 
Q 834 2394 903 2306 
Q 972 2216 1119 2156 
Q 1203 2125 1616 2013 
Q 2213 1853 2448 1751 
Q 2684 1650 2818 1456 
Q 2953 1263 2953 975 
Q 2953 694 2789 445 
Q 2625 197 2315 61 
Q 2006 -75 1616 -75 
Q 969 -75 630 194 
Q 291 463 197 991 
z
" transform="scale(0.015625)"/>
       <path id="ArialMT-6f" d="M 213 1659 
Q 213 2581 725 3025 
Q 1153 3394 1769 3394 
Q 2453 3394 2887 2945 
Q 3322 2497 3322 1706 
Q 3322 1066 3130 698 
Q 2938 331 2570 128 
Q 2203 -75 1769 -75 
Q 1072 -75 642 372 
Q 213 819 213 1659 
z
M 791 1659 
Q 791 1022 1069 705 
Q 1347 388 1769 388 
Q 2188 388 2466 706 
Q 2744 1025 2744 1678 
Q 2744 2294 2464 2611 
Q 2184 2928 1769 2928 
Q 1347 2928 1069 2612 
Q 791 2297 791 1659 
z
" transform="scale(0.015625)"/>
      </defs>
      <use xlink:href="#ArialMT-52"/>
      <use xlink:href="#ArialMT-65" x="72.216797"/>
      <use xlink:href="#ArialMT-74" x="127.832031"/>
      <use xlink:href="#ArialMT-72" x="155.615234"/>
      <use xlink:href="#ArialMT-61" x="188.916016"/>
      <use xlink:href="#ArialMT-73" x="244.53125"/>
      <use xlink:href="#ArialMT-6f" x="294.53125"/>
      <use xlink:href="#ArialMT-73" x="350.146484"/>
     </g>
    </g>
   </g>
   <g id="matplotlib.axis_2">
    <g id="ytick_1">
     <g id="line2d_10">
      <path d="M 51.915625 257.76 
L 457.733807 257.76 
" clip-path="url(#p98df9e71f8)" style="fill: none; stroke-dasharray: 1.85,0.8; stroke-dashoffset: 0; stroke: #808080; stroke-width: 0.5"/>
     </g>
     <g id="text_11">
      <!-- −1.00 -->
      <g style="fill: #262626" transform="translate(22.174375 260.623125) scale(0.08 -0.08)">
       <defs>
        <path id="ArialMT-2212" d="M 3381 1997 
L 356 1997 
L 356 2522 
L 3381 2522 
L 3381 1997 
z
" transform="scale(0.015625)"/>
        <path id="ArialMT-2e" d="M 581 0 
L 581 641 
L 1222 641 
L 1222 0 
L 581 0 
z
" transform="scale(0.015625)"/>
       </defs>
       <use xlink:href="#ArialMT-2212"/>
       <use xlink:href="#ArialMT-31" x="58.398438"/>
       <use xlink:href="#ArialMT-2e" x="114.013672"/>
       <use xlink:href="#ArialMT-30" x="141.796875"/>
       <use xlink:href="#ArialMT-30" x="197.412109"/>
      </g>
     </g>
    </g>
    <g id="ytick_2">
     <g id="line2d_11">
      <path d="M 51.915625 232.92 
L 457.733807 232.92 
" clip-path="url(#p98df9e71f8)" style="fill: none; stroke-dasharray: 1.85,0.8; stroke-dashoffset: 0; stroke: #808080; stroke-width: 0.5"/>
     </g>
     <g id="text_12">
      <!-- −0.75 -->
      <g style="fill: #262626" transform="translate(22.174375 235.783125) scale(0.08 -0.08)">
       <defs>
        <path id="ArialMT-37" d="M 303 3981 
L 303 4522 
L 3269 4522 
L 3269 4084 
Q 2831 3619 2401 2847 
Q 1972 2075 1738 1259 
Q 1569 684 1522 0 
L 944 0 
Q 953 541 1156 1306 
Q 1359 2072 1739 2783 
Q 2119 3494 2547 3981 
L 303 3981 
z
" transform="scale(0.015625)"/>
        <path id="ArialMT-35" d="M 266 1200 
L 856 1250 
Q 922 819 1161 601 
Q 1400 384 1738 384 
Q 2144 384 2425 690 
Q 2706 997 2706 1503 
Q 2706 1984 2436 2262 
Q 2166 2541 1728 2541 
Q 1456 2541 1237 2417 
Q 1019 2294 894 2097 
L 366 2166 
L 809 4519 
L 3088 4519 
L 3088 3981 
L 1259 3981 
L 1013 2750 
Q 1425 3038 1878 3038 
Q 2478 3038 2890 2622 
Q 3303 2206 3303 1553 
Q 3303 931 2941 478 
Q 2500 -78 1738 -78 
Q 1113 -78 717 272 
Q 322 622 266 1200 
z
" transform="scale(0.015625)"/>
       </defs>
       <use xlink:href="#ArialMT-2212"/>
       <use xlink:href="#ArialMT-30" x="58.398438"/>
       <use xlink:href="#ArialMT-2e" x="114.013672"/>
       <use xlink:href="#ArialMT-37" x="141.796875"/>
       <use xlink:href="#ArialMT-35" x="197.412109"/>
      </g>
     </g>
    </g>
    <g id="ytick_3">
     <g id="line2d_12">
      <path d="M 51.915625 208.08 
L 457.733807 208.08 
" clip-path="url(#p98df9e71f8)" style="fill: none; stroke-dasharray: 1.85,0.8; stroke-dashoffset: 0; stroke: #808080; stroke-width: 0.5"/>
     </g>
     <g id="text_13">
      <!-- −0.50 -->
      <g style="fill: #262626" transform="translate(22.174375 210.943125) scale(0.08 -0.08)">
       <use xlink:href="#ArialMT-2212"/>
       <use xlink:href="#ArialMT-30" x="58.398438"/>
       <use xlink:href="#ArialMT-2e" x="114.013672"/>
       <use xlink:href="#ArialMT-35" x="141.796875"/>
       <use xlink:href="#ArialMT-30" x="197.412109"/>
      </g>
     </g>
    </g>
    <g id="ytick_4">
     <g id="line2d_13">
      <path d="M 51.915625 183.24 
L 457.733807 183.24 
" clip-path="url(#p98df9e71f8)" style="fill: none; stroke-dasharray: 1.85,0.8; stroke-dashoffset: 0; stroke: #808080; stroke-width: 0.5"/>
     </g>
     <g id="text_14">
      <!-- −0.25 -->
      <g style="fill: #262626" transform="translate(22.174375 186.103125) scale(0.08 -0.08)">
       <use xlink:href="#ArialMT-2212"/>
       <use xlink:href="#ArialMT-30" x="58.398438"/>
       <use xlink:href="#ArialMT-2e" x="114.013672"/>
       <use xlink:href="#ArialMT-32" x="141.796875"/>
       <use xlink:href="#ArialMT-35" x="197.412109"/>
      </g>
     </g>
    </g>
    <g id="ytick_5">
     <g id="line2d_14">
      <path d="M 51.915625 158.4 
L 457.733807 158.4 
" clip-path="url(#p98df9e71f8)" style="fill: none; stroke-dasharray: 1.85,0.8; stroke-dashoffset: 0; stroke: #808080; stroke-width: 0.5"/>
     </g>
     <g id="text_15">
      <!-- 0.00 -->
      <g style="fill: #262626" transform="translate(26.846875 161.263125) scale(0.08 -0.08)">
       <use xlink:href="#ArialMT-30"/>
       <use xlink:href="#ArialMT-2e" x="55.615234"/>
       <use xlink:href="#ArialMT-30" x="83.398438"/>
       <use xlink:href="#ArialMT-30" x="139.013672"/>
      </g>
     </g>
    </g>
    <g id="ytick_6">
     <g id="line2d_15">
      <path d="M 51.915625 133.56 
L 457.733807 133.56 
" clip-path="url(#p98df9e71f8)" style="fill: none; stroke-dasharray: 1.85,0.8; stroke-dashoffset: 0; stroke: #808080; stroke-width: 0.5"/>
     </g>
     <g id="text_16">
      <!-- 0.25 -->
      <g style="fill: #262626" transform="translate(26.846875 136.423125) scale(0.08 -0.08)">
       <use xlink:href="#ArialMT-30"/>
       <use xlink:href="#ArialMT-2e" x="55.615234"/>
       <use xlink:href="#ArialMT-32" x="83.398438"/>
       <use xlink:href="#ArialMT-35" x="139.013672"/>
      </g>
     </g>
    </g>
    <g id="ytick_7">
     <g id="line2d_16">
      <path d="M 51.915625 108.72 
L 457.733807 108.72 
" clip-path="url(#p98df9e71f8)" style="fill: none; stroke-dasharray: 1.85,0.8; stroke-dashoffset: 0; stroke: #808080; stroke-width: 0.5"/>
     </g>
     <g id="text_17">
      <!-- 0.50 -->
      <g style="fill: #262626" transform="translate(26.846875 111.583125) scale(0.08 -0.08)">
       <use xlink:href="#ArialMT-30"/>
       <use xlink:href="#ArialMT-2e" x="55.615234"/>
       <use xlink:href="#ArialMT-35" x="83.398438"/>
       <use xlink:href="#ArialMT-30" x="139.013672"/>
      </g>
     </g>
    </g>
    <g id="ytick_8">
     <g id="line2d_17">
      <path d="M 51.915625 83.88 
L 457.733807 83.88 
" clip-path="url(#p98df9e71f8)" style="fill: none; stroke-dasharray: 1.85,0.8; stroke-dashoffset: 0; stroke: #808080; stroke-width: 0.5"/>
     </g>
     <g id="text_18">
      <!-- 0.75 -->
      <g style="fill: #262626" transform="translate(26.846875 86.743125) scale(0.08 -0.08)">
       <use xlink:href="#ArialMT-30"/>
       <use xlink:href="#ArialMT-2e" x="55.615234"/>
       <use xlink:href="#ArialMT-37" x="83.398438"/>
       <use xlink:href="#ArialMT-35" x="139.013672"/>
      </g>
     </g>
    </g>
    <g id="ytick_9">
     <g id="line2d_18">
      <path d="M 51.915625 59.04 
L 457.733807 59.04 
" clip-path="url(#p98df9e71f8)" style="fill: none; stroke-dasharray: 1.85,0.8; stroke-dashoffset: 0; stroke: #808080; stroke-width: 0.5"/>
     </g>
     <g id="text_19">
      <!-- 1.00 -->
      <g style="fill: #262626" transform="translate(26.846875 61.903125) scale(0.08 -0.08)">
       <use xlink:href="#ArialMT-31"/>
       <use xlink:href="#ArialMT-2e" x="55.615234"/>
       <use xlink:href="#ArialMT-30" x="83.398438"/>
       <use xlink:href="#ArialMT-30" x="139.013672"/>
      </g>
     </g>
    </g>
    <g id="text_20">
     <!-- FAC -->
     <g style="fill: #262626" transform="translate(15.789375 170.07) rotate(-90) scale(0.12 -0.12)">
      <defs>
       <path id="ArialMT-46" d="M 525 0 
L 525 4581 
L 3616 4581 
L 3616 4041 
L 1131 4041 
L 1131 2622 
L 3281 2622 
L 3281 2081 
L 1131 2081 
L 1131 0 
L 525 0 
z
" transform="scale(0.015625)"/>
       <path id="ArialMT-41" d="M -9 0 
L 1750 4581 
L 2403 4581 
L 4278 0 
L 3588 0 
L 3053 1388 
L 1138 1388 
L 634 0 
L -9 0 
z
M 1313 1881 
L 2866 1881 
L 2388 3150 
Q 2169 3728 2063 4100 
Q 1975 3659 1816 3225 
L 1313 1881 
z
" transform="scale(0.015625)"/>
       <path id="ArialMT-43" d="M 3763 1606 
L 4369 1453 
Q 4178 706 3683 314 
Q 3188 -78 2472 -78 
Q 1731 -78 1267 223 
Q 803 525 561 1097 
Q 319 1669 319 2325 
Q 319 3041 592 3573 
Q 866 4106 1370 4382 
Q 1875 4659 2481 4659 
Q 3169 4659 3637 4309 
Q 4106 3959 4291 3325 
L 3694 3184 
Q 3534 3684 3231 3912 
Q 2928 4141 2469 4141 
Q 1941 4141 1586 3887 
Q 1231 3634 1087 3207 
Q 944 2781 944 2328 
Q 944 1744 1114 1308 
Q 1284 872 1643 656 
Q 2003 441 2422 441 
Q 2931 441 3284 734 
Q 3638 1028 3763 1606 
z
" transform="scale(0.015625)"/>
      </defs>
      <use xlink:href="#ArialMT-46"/>
      <use xlink:href="#ArialMT-41" x="55.583984"/>
      <use xlink:href="#ArialMT-43" x="122.283203"/>
     </g>
    </g>
   </g>
   <g id="PolyCollection_1">
    <defs>
     <path id="m792216935e" d="M 74.165263 -146.000814 
L 74.165263 -130.700436 
L 85.575334 -130.434329 
L 93.182047 -130.317789 
L 100.788761 -130.316971 
L 108.395475 -130.313387 
L 116.002189 -130.298448 
L 123.608903 -130.22575 
L 131.215616 -130.207161 
L 138.82233 -130.201251 
L 146.429044 -130.200785 
L 154.035758 -130.199059 
L 161.642472 -130.19557 
L 169.249186 -129.105994 
L 176.855899 -129.076991 
L 184.462613 -129.070239 
L 192.069327 -129.069764 
L 199.676041 -129.061436 
L 207.282755 -129.027464 
L 214.889468 -129.019131 
L 222.496182 -129.018531 
L 230.102896 -129.017404 
L 237.70961 -129.014793 
L 245.316324 -128.99979 
L 252.923037 -128.995684 
L 260.529751 -128.992222 
L 268.136465 -128.980484 
L 275.743179 -128.973814 
L 283.349893 -128.973607 
L 290.956607 -128.973468 
L 298.56332 -128.9644 
L 306.170034 -128.943897 
L 313.776748 -128.941803 
L 321.383462 -128.941676 
L 328.990176 -128.882101 
L 336.596889 -128.842549 
L 344.203603 -128.841703 
L 351.810317 -128.81918 
L 359.417031 -128.806942 
L 367.023745 -128.790074 
L 374.630458 -128.789662 
L 382.237172 -128.788747 
L 389.843886 -128.787781 
L 397.4506 -128.787762 
L 405.057314 -128.774257 
L 412.664027 -128.768467 
L 420.270741 -128.681124 
L 427.877455 -128.633364 
L 439.287526 -128.633276 
L 439.287526 -148.067974 
L 439.287526 -148.067974 
L 427.877455 -148.067886 
L 420.270741 -148.020126 
L 412.664027 -147.932783 
L 405.057314 -147.926993 
L 397.4506 -147.913488 
L 389.843886 -147.913469 
L 382.237172 -147.912503 
L 374.630458 -147.911588 
L 367.023745 -147.911176 
L 359.417031 -147.894308 
L 351.810317 -147.88207 
L 344.203603 -147.859547 
L 336.596889 -147.858701 
L 328.990176 -147.819149 
L 321.383462 -147.759574 
L 313.776748 -147.759447 
L 306.170034 -147.757353 
L 298.56332 -147.73685 
L 290.956607 -147.727782 
L 283.349893 -147.727643 
L 275.743179 -147.727436 
L 268.136465 -147.720766 
L 260.529751 -147.709028 
L 252.923037 -147.705566 
L 245.316324 -147.70146 
L 237.70961 -147.686457 
L 230.102896 -147.683846 
L 222.496182 -147.682719 
L 214.889468 -147.682119 
L 207.282755 -147.673786 
L 199.676041 -147.639814 
L 192.069327 -147.631486 
L 184.462613 -147.631011 
L 176.855899 -147.624259 
L 169.249186 -147.595256 
L 161.642472 -146.50568 
L 154.035758 -146.502191 
L 146.429044 -146.500465 
L 138.82233 -146.499999 
L 131.215616 -146.494089 
L 123.608903 -146.4755 
L 116.002189 -146.402802 
L 108.395475 -146.387863 
L 100.788761 -146.384279 
L 93.182047 -146.383461 
L 85.575334 -146.266921 
L 74.165263 -146.000814 
z
" style="stroke: #ffffff; stroke-opacity: 0.25"/>
    </defs>
    <g clip-path="url(#p98df9e71f8)">
     <use xlink:href="#m792216935e" x="0" y="296.750625" style="fill: #194a7a; fill-opacity: 0.25; stroke: #ffffff; stroke-opacity: 0.25"/>
    </g>
   </g>
   <g id="LineCollection_1">
    <path d="M 70.361906 158.4 
L 70.361906 59.04 
" clip-path="url(#p98df9e71f8)" style="fill: none; stroke: #194a7a; stroke-width: 1.2"/>
    <path d="M 77.96862 158.4 
L 77.96862 139.708333 
" clip-path="url(#p98df9e71f8)" style="fill: none; stroke: #194a7a; stroke-width: 1.2"/>
    <path d="M 85.575334 158.4 
L 85.575334 145.879275 
" clip-path="url(#p98df9e71f8)" style="fill: none; stroke: #194a7a; stroke-width: 1.2"/>
    <path d="M 93.182047 158.4 
L 93.182047 157.347136 
" clip-path="url(#p98df9e71f8)" style="fill: none; stroke: #194a7a; stroke-width: 1.2"/>
    <path d="M 100.788761 158.4 
L 100.788761 160.604184 
" clip-path="url(#p98df9e71f8)" style="fill: none; stroke: #194a7a; stroke-width: 1.2"/>
    <path d="M 108.395475 158.4 
L 108.395475 162.902512 
" clip-path="url(#p98df9e71f8)" style="fill: none; stroke: #194a7a; stroke-width: 1.2"/>
    <path d="M 116.002189 158.4 
L 116.002189 168.359427 
" clip-path="url(#p98df9e71f8)" style="fill: none; stroke: #194a7a; stroke-width: 1.2"/>
    <path d="M 123.608903 158.4 
L 123.608903 163.450369 
" clip-path="url(#p98df9e71f8)" style="fill: none; stroke: #194a7a; stroke-width: 1.2"/>
    <path d="M 131.215616 158.4 
L 131.215616 161.249952 
" clip-path="url(#p98df9e71f8)" style="fill: none; stroke: #194a7a; stroke-width: 1.2"/>
    <path d="M 138.82233 158.4 
L 138.82233 157.599745 
" clip-path="url(#p98df9e71f8)" style="fill: none; stroke: #194a7a; stroke-width: 1.2"/>
    <path d="M 146.429044 158.4 
L 146.429044 159.94028 
" clip-path="url(#p98df9e71f8)" style="fill: none; stroke: #194a7a; stroke-width: 1.2"/>
    <path d="M 154.035758 158.4 
L 154.035758 160.590598 
" clip-path="url(#p98df9e71f8)" style="fill: none; stroke: #194a7a; stroke-width: 1.2"/>
    <path d="M 161.642472 158.4 
L 161.642472 198.387464 
" clip-path="url(#p98df9e71f8)" style="fill: none; stroke: #194a7a; stroke-width: 1.2"/>
    <path d="M 169.249186 158.4 
L 169.249186 165.13049 
" clip-path="url(#p98df9e71f8)" style="fill: none; stroke: #194a7a; stroke-width: 1.2"/>
    <path d="M 176.855899 158.4 
L 176.855899 161.650535 
" clip-path="url(#p98df9e71f8)" style="fill: none; stroke: #194a7a; stroke-width: 1.2"/>
    <path d="M 184.462613 158.4 
L 184.462613 159.262799 
" clip-path="url(#p98df9e71f8)" style="fill: none; stroke: #194a7a; stroke-width: 1.2"/>
    <path d="M 192.069327 158.4 
L 192.069327 162.011539 
" clip-path="url(#p98df9e71f8)" style="fill: none; stroke: #194a7a; stroke-width: 1.2"/>
    <path d="M 199.676041 158.4 
L 199.676041 165.702795 
" clip-path="url(#p98df9e71f8)" style="fill: none; stroke: #194a7a; stroke-width: 1.2"/>
    <path d="M 207.282755 158.4 
L 207.282755 154.779191 
" clip-path="url(#p98df9e71f8)" style="fill: none; stroke: #194a7a; stroke-width: 1.2"/>
    <path d="M 214.889468 158.4 
L 214.889468 159.372233 
" clip-path="url(#p98df9e71f8)" style="fill: none; stroke: #194a7a; stroke-width: 1.2"/>
    <path d="M 222.496182 158.4 
L 222.496182 157.068173 
" clip-path="url(#p98df9e71f8)" style="fill: none; stroke: #194a7a; stroke-width: 1.2"/>
    <path d="M 230.102896 158.4 
L 230.102896 160.427538 
" clip-path="url(#p98df9e71f8)" style="fill: none; stroke: #194a7a; stroke-width: 1.2"/>
    <path d="M 237.70961 158.4 
L 237.70961 163.262828 
" clip-path="url(#p98df9e71f8)" style="fill: none; stroke: #194a7a; stroke-width: 1.2"/>
    <path d="M 245.316324 158.4 
L 245.316324 155.855029 
" clip-path="url(#p98df9e71f8)" style="fill: none; stroke: #194a7a; stroke-width: 1.2"/>
    <path d="M 252.923037 158.4 
L 252.923037 160.737576 
" clip-path="url(#p98df9e71f8)" style="fill: none; stroke: #194a7a; stroke-width: 1.2"/>
    <path d="M 260.529751 158.4 
L 260.529751 154.094045 
" clip-path="url(#p98df9e71f8)" style="fill: none; stroke: #194a7a; stroke-width: 1.2"/>
    <path d="M 268.136465 158.4 
L 268.136465 161.647539 
" clip-path="url(#p98df9e71f8)" style="fill: none; stroke: #194a7a; stroke-width: 1.2"/>
    <path d="M 275.743179 158.4 
L 275.743179 158.973406 
" clip-path="url(#p98df9e71f8)" style="fill: none; stroke: #194a7a; stroke-width: 1.2"/>
    <path d="M 283.349893 158.4 
L 283.349893 157.931369 
" clip-path="url(#p98df9e71f8)" style="fill: none; stroke: #194a7a; stroke-width: 1.2"/>
    <path d="M 290.956607 158.4 
L 290.956607 154.611784 
" clip-path="url(#p98df9e71f8)" style="fill: none; stroke: #194a7a; stroke-width: 1.2"/>
    <path d="M 298.56332 158.4 
L 298.56332 164.100713 
" clip-path="url(#p98df9e71f8)" style="fill: none; stroke: #194a7a; stroke-width: 1.2"/>
    <path d="M 306.170034 158.4 
L 306.170034 156.576965 
" clip-path="url(#p98df9e71f8)" style="fill: none; stroke: #194a7a; stroke-width: 1.2"/>
    <path d="M 313.776748 158.4 
L 313.776748 158.848696 
" clip-path="url(#p98df9e71f8)" style="fill: none; stroke: #194a7a; stroke-width: 1.2"/>
    <path d="M 321.383462 158.4 
L 321.383462 148.660686 
" clip-path="url(#p98df9e71f8)" style="fill: none; stroke: #194a7a; stroke-width: 1.2"/>
    <path d="M 328.990176 158.4 
L 328.990176 150.443551 
" clip-path="url(#p98df9e71f8)" style="fill: none; stroke: #194a7a; stroke-width: 1.2"/>
    <path d="M 336.596889 158.4 
L 336.596889 159.564662 
" clip-path="url(#p98df9e71f8)" style="fill: none; stroke: #194a7a; stroke-width: 1.2"/>
    <path d="M 344.203603 158.4 
L 344.203603 152.385802 
" clip-path="url(#p98df9e71f8)" style="fill: none; stroke: #194a7a; stroke-width: 1.2"/>
    <path d="M 351.810317 158.4 
L 351.810317 162.837091 
" clip-path="url(#p98df9e71f8)" style="fill: none; stroke: #194a7a; stroke-width: 1.2"/>
    <path d="M 359.417031 158.4 
L 359.417031 153.186523 
" clip-path="url(#p98df9e71f8)" style="fill: none; stroke: #194a7a; stroke-width: 1.2"/>
    <path d="M 367.023745 158.4 
L 367.023745 159.214978 
" clip-path="url(#p98df9e71f8)" style="fill: none; stroke: #194a7a; stroke-width: 1.2"/>
    <path d="M 374.630458 158.4 
L 374.630458 157.185112 
" clip-path="url(#p98df9e71f8)" style="fill: none; stroke: #194a7a; stroke-width: 1.2"/>
    <path d="M 382.237172 158.4 
L 382.237172 159.648055 
" clip-path="url(#p98df9e71f8)" style="fill: none; stroke: #194a7a; stroke-width: 1.2"/>
    <path d="M 389.843886 158.4 
L 389.843886 158.578602 
" clip-path="url(#p98df9e71f8)" style="fill: none; stroke: #194a7a; stroke-width: 1.2"/>
    <path d="M 397.4506 158.4 
L 397.4506 163.068946 
" clip-path="url(#p98df9e71f8)" style="fill: none; stroke: #194a7a; stroke-width: 1.2"/>
    <path d="M 405.057314 158.4 
L 405.057314 161.458813 
" clip-path="url(#p98df9e71f8)" style="fill: none; stroke: #194a7a; stroke-width: 1.2"/>
    <path d="M 412.664027 158.4 
L 412.664027 170.308948 
" clip-path="url(#p98df9e71f8)" style="fill: none; stroke: #194a7a; stroke-width: 1.2"/>
    <path d="M 420.270741 158.4 
L 420.270741 167.237084 
" clip-path="url(#p98df9e71f8)" style="fill: none; stroke: #194a7a; stroke-width: 1.2"/>
    <path d="M 427.877455 158.4 
L 427.877455 158.020011 
" clip-path="url(#p98df9e71f8)" style="fill: none; stroke: #194a7a; stroke-width: 1.2"/>
    <path d="M 435.484169 158.4 
L 435.484169 162.466535 
" clip-path="url(#p98df9e71f8)" style="fill: none; stroke: #194a7a; stroke-width: 1.2"/>
   </g>
   <g id="line2d_19">
    <path d="M 51.915625 158.4 
L 457.733807 158.4 
" clip-path="url(#p98df9e71f8)" style="fill: none; stroke: #194a7a; stroke-width: 1.2; stroke-linecap: round"/>
   </g>
   <g id="line2d_20">
    <defs>
     <path id="m521dee991d" d="M 0 2.5 
C 0.663008 2.5 1.29895 2.236584 1.767767 1.767767 
C 2.236584 1.29895 2.5 0.663008 2.5 0 
C 2.5 -0.663008 2.236584 -1.29895 1.767767 -1.767767 
C 1.29895 -2.236584 0.663008 -2.5 0 -2.5 
C -0.663008 -2.5 -1.29895 -2.236584 -1.767767 -1.767767 
C -2.236584 -1.29895 -2.5 -0.663008 -2.5 0 
C -2.5 0.663008 -2.236584 1.29895 -1.767767 1.767767 
C -1.29895 2.236584 -0.663008 2.5 0 2.5 
z
" style="stroke: #194a7a"/>
    </defs>
    <g clip-path="url(#p98df9e71f8)">
     <use xlink:href="#m521dee991d" x="70.361906" y="59.04" style="fill: #194a7a; stroke: #194a7a"/>
     <use xlink:href="#m521dee991d" x="77.96862" y="139.708333" style="fill: #194a7a; stroke: #194a7a"/>
     <use xlink:href="#m521dee991d" x="85.575334" y="145.879275" style="fill: #194a7a; stroke: #194a7a"/>
     <use xlink:href="#m521dee991d" x="93.182047" y="157.347136" style="fill: #194a7a; stroke: #194a7a"/>
     <use xlink:href="#m521dee991d" x="100.788761" y="160.604184" style="fill: #194a7a; stroke: #194a7a"/>
     <use xlink:href="#m521dee991d" x="108.395475" y="162.902512" style="fill: #194a7a; stroke: #194a7a"/>
     <use xlink:href="#m521dee991d" x="116.002189" y="168.359427" style="fill: #194a7a; stroke: #194a7a"/>
     <use xlink:href="#m521dee991d" x="123.608903" y="163.450369" style="fill: #194a7a; stroke: #194a7a"/>
     <use xlink:href="#m521dee991d" x="131.215616" y="161.249952" style="fill: #194a7a; stroke: #194a7a"/>
     <use xlink:href="#m521dee991d" x="138.82233" y="157.599745" style="fill: #194a7a; stroke: #194a7a"/>
     <use xlink:href="#m521dee991d" x="146.429044" y="159.94028" style="fill: #194a7a; stroke: #194a7a"/>
     <use xlink:href="#m521dee991d" x="154.035758" y="160.590598" style="fill: #194a7a; stroke: #194a7a"/>
     <use xlink:href="#m521dee991d" x="161.642472" y="198.387464" style="fill: #194a7a; stroke: #194a7a"/>
     <use xlink:href="#m521dee991d" x="169.249186" y="165.13049" style="fill: #194a7a; stroke: #194a7a"/>
     <use xlink:href="#m521dee991d" x="176.855899" y="161.650535" style="fill: #194a7a; stroke: #194a7a"/>
     <use xlink:href="#m521dee991d" x="184.462613" y="159.262799" style="fill: #194a7a; stroke: #194a7a"/>
     <use xlink:href="#m521dee991d" x="192.069327" y="162.011539" style="fill: #194a7a; stroke: #194a7a"/>
     <use xlink:href="#m521dee991d" x="199.676041" y="165.702795" style="fill: #194a7a; stroke: #194a7a"/>
     <use xlink:href="#m521dee991d" x="207.282755" y="154.779191" style="fill: #194a7a; stroke: #194a7a"/>
     <use xlink:href="#m521dee991d" x="214.889468" y="159.372233" style="fill: #194a7a; stroke: #194a7a"/>
     <use xlink:href="#m521dee991d" x="222.496182" y="157.068173" style="fill: #194a7a; stroke: #194a7a"/>
     <use xlink:href="#m521dee991d" x="230.102896" y="160.427538" style="fill: #194a7a; stroke: #194a7a"/>
     <use xlink:href="#m521dee991d" x="237.70961" y="163.262828" style="fill: #194a7a; stroke: #194a7a"/>
     <use xlink:href="#m521dee991d" x="245.316324" y="155.855029" style="fill: #194a7a; stroke: #194a7a"/>
     <use xlink:href="#m521dee991d" x="252.923037" y="160.737576" style="fill: #194a7a; stroke: #194a7a"/>
     <use xlink:href="#m521dee991d" x="260.529751" y="154.094045" style="fill: #194a7a; stroke: #194a7a"/>
     <use xlink:href="#m521dee991d" x="268.136465" y="161.647539" style="fill: #194a7a; stroke: #194a7a"/>
     <use xlink:href="#m521dee991d" x="275.743179" y="158.973406" style="fill: #194a7a; stroke: #194a7a"/>
     <use xlink:href="#m521dee991d" x="283.349893" y="157.931369" style="fill: #194a7a; stroke: #194a7a"/>
     <use xlink:href="#m521dee991d" x="290.956607" y="154.611784" style="fill: #194a7a; stroke: #194a7a"/>
     <use xlink:href="#m521dee991d" x="298.56332" y="164.100713" style="fill: #194a7a; stroke: #194a7a"/>
     <use xlink:href="#m521dee991d" x="306.170034" y="156.576965" style="fill: #194a7a; stroke: #194a7a"/>
     <use xlink:href="#m521dee991d" x="313.776748" y="158.848696" style="fill: #194a7a; stroke: #194a7a"/>
     <use xlink:href="#m521dee991d" x="321.383462" y="148.660686" style="fill: #194a7a; stroke: #194a7a"/>
     <use xlink:href="#m521dee991d" x="328.990176" y="150.443551" style="fill: #194a7a; stroke: #194a7a"/>
     <use xlink:href="#m521dee991d" x="336.596889" y="159.564662" style="fill: #194a7a; stroke: #194a7a"/>
     <use xlink:href="#m521dee991d" x="344.203603" y="152.385802" style="fill: #194a7a; stroke: #194a7a"/>
     <use xlink:href="#m521dee991d" x="351.810317" y="162.837091" style="fill: #194a7a; stroke: #194a7a"/>
     <use xlink:href="#m521dee991d" x="359.417031" y="153.186523" style="fill: #194a7a; stroke: #194a7a"/>
     <use xlink:href="#m521dee991d" x="367.023745" y="159.214978" style="fill: #194a7a; stroke: #194a7a"/>
     <use xlink:href="#m521dee991d" x="374.630458" y="157.185112" style="fill: #194a7a; stroke: #194a7a"/>
     <use xlink:href="#m521dee991d" x="382.237172" y="159.648055" style="fill: #194a7a; stroke: #194a7a"/>
     <use xlink:href="#m521dee991d" x="389.843886" y="158.578602" style="fill: #194a7a; stroke: #194a7a"/>
     <use xlink:href="#m521dee991d" x="397.4506" y="163.068946" style="fill: #194a7a; stroke: #194a7a"/>
     <use xlink:href="#m521dee991d" x="405.057314" y="161.458813" style="fill: #194a7a; stroke: #194a7a"/>
     <use xlink:href="#m521dee991d" x="412.664027" y="170.308948" style="fill: #194a7a; stroke: #194a7a"/>
     <use xlink:href="#m521dee991d" x="420.270741" y="167.237084" style="fill: #194a7a; stroke: #194a7a"/>
     <use xlink:href="#m521dee991d" x="427.877455" y="158.020011" style="fill: #194a7a; stroke: #194a7a"/>
     <use xlink:href="#m521dee991d" x="435.484169" y="162.466535" style="fill: #194a7a; stroke: #194a7a"/>
    </g>
   </g>
   <g id="patch_3">
    <path d="M 51.915625 257.76 
L 51.915625 59.04 
" style="fill: none; stroke: #cccccc; stroke-width: 1.25; stroke-linejoin: miter; stroke-linecap: square"/>
   </g>
   <g id="patch_4">
    <path d="M 457.733807 257.76 
L 457.733807 59.04 
" style="fill: none; stroke: #cccccc; stroke-width: 1.25; stroke-linejoin: miter; stroke-linecap: square"/>
   </g>
   <g id="patch_5">
    <path d="M 51.915625 257.76 
L 457.733807 257.76 
" style="fill: none; stroke: #cccccc; stroke-width: 1.25; stroke-linejoin: miter; stroke-linecap: square"/>
   </g>
   <g id="patch_6">
    <path d="M 51.915625 59.04 
L 457.733807 59.04 
" style="fill: none; stroke: #cccccc; stroke-width: 1.25; stroke-linejoin: miter; stroke-linecap: square"/>
   </g>
   <g id="text_21">
    <!-- Autocorrelaciones Simples -->
    <g style="fill: #262626" transform="translate(164.57831 53.04) scale(0.14 -0.14)">
     <defs>
      <path id="Arial-BoldMT-41" d="M 4597 0 
L 3591 0 
L 3191 1041 
L 1359 1041 
L 981 0 
L 0 0 
L 1784 4581 
L 2763 4581 
L 4597 0 
z
M 2894 1813 
L 2263 3513 
L 1644 1813 
L 2894 1813 
z
" transform="scale(0.015625)"/>
      <path id="Arial-BoldMT-75" d="M 2644 0 
L 2644 497 
Q 2463 231 2167 78 
Q 1872 -75 1544 -75 
Q 1209 -75 943 72 
Q 678 219 559 484 
Q 441 750 441 1219 
L 441 3319 
L 1319 3319 
L 1319 1794 
Q 1319 1094 1367 936 
Q 1416 778 1544 686 
Q 1672 594 1869 594 
Q 2094 594 2272 717 
Q 2450 841 2515 1023 
Q 2581 1206 2581 1919 
L 2581 3319 
L 3459 3319 
L 3459 0 
L 2644 0 
z
" transform="scale(0.015625)"/>
      <path id="Arial-BoldMT-74" d="M 1981 3319 
L 1981 2619 
L 1381 2619 
L 1381 1281 
Q 1381 875 1398 808 
Q 1416 741 1477 697 
Q 1538 653 1625 653 
Q 1747 653 1978 738 
L 2053 56 
Q 1747 -75 1359 -75 
Q 1122 -75 931 4 
Q 741 84 652 211 
Q 563 338 528 553 
Q 500 706 500 1172 
L 500 2619 
L 97 2619 
L 97 3319 
L 500 3319 
L 500 3978 
L 1381 4491 
L 1381 3319 
L 1981 3319 
z
" transform="scale(0.015625)"/>
      <path id="Arial-BoldMT-6f" d="M 256 1706 
Q 256 2144 472 2553 
Q 688 2963 1083 3178 
Q 1478 3394 1966 3394 
Q 2719 3394 3200 2905 
Q 3681 2416 3681 1669 
Q 3681 916 3195 420 
Q 2709 -75 1972 -75 
Q 1516 -75 1102 131 
Q 688 338 472 736 
Q 256 1134 256 1706 
z
M 1156 1659 
Q 1156 1166 1390 903 
Q 1625 641 1969 641 
Q 2313 641 2545 903 
Q 2778 1166 2778 1666 
Q 2778 2153 2545 2415 
Q 2313 2678 1969 2678 
Q 1625 2678 1390 2415 
Q 1156 2153 1156 1659 
z
" transform="scale(0.015625)"/>
      <path id="Arial-BoldMT-63" d="M 3353 2338 
L 2488 2181 
Q 2444 2441 2289 2572 
Q 2134 2703 1888 2703 
Q 1559 2703 1364 2476 
Q 1169 2250 1169 1719 
Q 1169 1128 1367 884 
Q 1566 641 1900 641 
Q 2150 641 2309 783 
Q 2469 925 2534 1272 
L 3397 1125 
Q 3263 531 2881 228 
Q 2500 -75 1859 -75 
Q 1131 -75 698 384 
Q 266 844 266 1656 
Q 266 2478 700 2936 
Q 1134 3394 1875 3394 
Q 2481 3394 2839 3133 
Q 3197 2872 3353 2338 
z
" transform="scale(0.015625)"/>
      <path id="Arial-BoldMT-72" d="M 1300 0 
L 422 0 
L 422 3319 
L 1238 3319 
L 1238 2847 
Q 1447 3181 1614 3287 
Q 1781 3394 1994 3394 
Q 2294 3394 2572 3228 
L 2300 2463 
Q 2078 2606 1888 2606 
Q 1703 2606 1575 2504 
Q 1447 2403 1373 2137 
Q 1300 1872 1300 1025 
L 1300 0 
z
" transform="scale(0.015625)"/>
      <path id="Arial-BoldMT-65" d="M 2381 1056 
L 3256 909 
Q 3088 428 2723 176 
Q 2359 -75 1813 -75 
Q 947 -75 531 491 
Q 203 944 203 1634 
Q 203 2459 634 2926 
Q 1066 3394 1725 3394 
Q 2466 3394 2894 2905 
Q 3322 2416 3303 1406 
L 1103 1406 
Q 1113 1016 1316 798 
Q 1519 581 1822 581 
Q 2028 581 2168 693 
Q 2309 806 2381 1056 
z
M 2431 1944 
Q 2422 2325 2234 2523 
Q 2047 2722 1778 2722 
Q 1491 2722 1303 2513 
Q 1116 2303 1119 1944 
L 2431 1944 
z
" transform="scale(0.015625)"/>
      <path id="Arial-BoldMT-6c" d="M 459 0 
L 459 4581 
L 1338 4581 
L 1338 0 
L 459 0 
z
" transform="scale(0.015625)"/>
      <path id="Arial-BoldMT-61" d="M 1116 2306 
L 319 2450 
Q 453 2931 781 3162 
Q 1109 3394 1756 3394 
Q 2344 3394 2631 3255 
Q 2919 3116 3036 2902 
Q 3153 2688 3153 2116 
L 3144 1091 
Q 3144 653 3186 445 
Q 3228 238 3344 0 
L 2475 0 
Q 2441 88 2391 259 
Q 2369 338 2359 363 
Q 2134 144 1878 34 
Q 1622 -75 1331 -75 
Q 819 -75 523 203 
Q 228 481 228 906 
Q 228 1188 362 1408 
Q 497 1628 739 1745 
Q 981 1863 1438 1950 
Q 2053 2066 2291 2166 
L 2291 2253 
Q 2291 2506 2166 2614 
Q 2041 2722 1694 2722 
Q 1459 2722 1328 2630 
Q 1197 2538 1116 2306 
z
M 2291 1594 
Q 2122 1538 1756 1459 
Q 1391 1381 1278 1306 
Q 1106 1184 1106 997 
Q 1106 813 1243 678 
Q 1381 544 1594 544 
Q 1831 544 2047 700 
Q 2206 819 2256 991 
Q 2291 1103 2291 1419 
L 2291 1594 
z
" transform="scale(0.015625)"/>
      <path id="Arial-BoldMT-69" d="M 459 3769 
L 459 4581 
L 1338 4581 
L 1338 3769 
L 459 3769 
z
M 459 0 
L 459 3319 
L 1338 3319 
L 1338 0 
L 459 0 
z
" transform="scale(0.015625)"/>
      <path id="Arial-BoldMT-6e" d="M 3478 0 
L 2600 0 
L 2600 1694 
Q 2600 2231 2544 2389 
Q 2488 2547 2361 2634 
Q 2234 2722 2056 2722 
Q 1828 2722 1647 2597 
Q 1466 2472 1398 2265 
Q 1331 2059 1331 1503 
L 1331 0 
L 453 0 
L 453 3319 
L 1269 3319 
L 1269 2831 
Q 1703 3394 2363 3394 
Q 2653 3394 2893 3289 
Q 3134 3184 3257 3021 
Q 3381 2859 3429 2653 
Q 3478 2447 3478 2063 
L 3478 0 
z
" transform="scale(0.015625)"/>
      <path id="Arial-BoldMT-73" d="M 150 947 
L 1031 1081 
Q 1088 825 1259 692 
Q 1431 559 1741 559 
Q 2081 559 2253 684 
Q 2369 772 2369 919 
Q 2369 1019 2306 1084 
Q 2241 1147 2013 1200 
Q 950 1434 666 1628 
Q 272 1897 272 2375 
Q 272 2806 612 3100 
Q 953 3394 1669 3394 
Q 2350 3394 2681 3172 
Q 3013 2950 3138 2516 
L 2309 2363 
Q 2256 2556 2107 2659 
Q 1959 2763 1684 2763 
Q 1338 2763 1188 2666 
Q 1088 2597 1088 2488 
Q 1088 2394 1175 2328 
Q 1294 2241 1995 2081 
Q 2697 1922 2975 1691 
Q 3250 1456 3250 1038 
Q 3250 581 2869 253 
Q 2488 -75 1741 -75 
Q 1063 -75 667 200 
Q 272 475 150 947 
z
" transform="scale(0.015625)"/>
      <path id="Arial-BoldMT-20" transform="scale(0.015625)"/>
      <path id="Arial-BoldMT-53" d="M 231 1491 
L 1131 1578 
Q 1213 1125 1461 912 
Q 1709 700 2131 700 
Q 2578 700 2804 889 
Q 3031 1078 3031 1331 
Q 3031 1494 2936 1608 
Q 2841 1722 2603 1806 
Q 2441 1863 1863 2006 
Q 1119 2191 819 2459 
Q 397 2838 397 3381 
Q 397 3731 595 4036 
Q 794 4341 1167 4500 
Q 1541 4659 2069 4659 
Q 2931 4659 3367 4281 
Q 3803 3903 3825 3272 
L 2900 3231 
Q 2841 3584 2645 3739 
Q 2450 3894 2059 3894 
Q 1656 3894 1428 3728 
Q 1281 3622 1281 3444 
Q 1281 3281 1419 3166 
Q 1594 3019 2269 2859 
Q 2944 2700 3267 2529 
Q 3591 2359 3773 2064 
Q 3956 1769 3956 1334 
Q 3956 941 3737 597 
Q 3519 253 3119 86 
Q 2719 -81 2122 -81 
Q 1253 -81 787 320 
Q 322 722 231 1491 
z
" transform="scale(0.015625)"/>
      <path id="Arial-BoldMT-6d" d="M 394 3319 
L 1203 3319 
L 1203 2866 
Q 1638 3394 2238 3394 
Q 2556 3394 2790 3262 
Q 3025 3131 3175 2866 
Q 3394 3131 3647 3262 
Q 3900 3394 4188 3394 
Q 4553 3394 4806 3245 
Q 5059 3097 5184 2809 
Q 5275 2597 5275 2122 
L 5275 0 
L 4397 0 
L 4397 1897 
Q 4397 2391 4306 2534 
Q 4184 2722 3931 2722 
Q 3747 2722 3584 2609 
Q 3422 2497 3350 2280 
Q 3278 2063 3278 1594 
L 3278 0 
L 2400 0 
L 2400 1819 
Q 2400 2303 2353 2443 
Q 2306 2584 2207 2653 
Q 2109 2722 1941 2722 
Q 1738 2722 1575 2612 
Q 1413 2503 1342 2297 
Q 1272 2091 1272 1613 
L 1272 0 
L 394 0 
L 394 3319 
z
" transform="scale(0.015625)"/>
      <path id="Arial-BoldMT-70" d="M 434 3319 
L 1253 3319 
L 1253 2831 
Q 1413 3081 1684 3237 
Q 1956 3394 2288 3394 
Q 2866 3394 3269 2941 
Q 3672 2488 3672 1678 
Q 3672 847 3265 386 
Q 2859 -75 2281 -75 
Q 2006 -75 1782 34 
Q 1559 144 1313 409 
L 1313 -1263 
L 434 -1263 
L 434 3319 
z
M 1303 1716 
Q 1303 1156 1525 889 
Q 1747 622 2066 622 
Q 2372 622 2575 867 
Q 2778 1113 2778 1672 
Q 2778 2194 2568 2447 
Q 2359 2700 2050 2700 
Q 1728 2700 1515 2451 
Q 1303 2203 1303 1716 
z
" transform="scale(0.015625)"/>
     </defs>
     <use xlink:href="#Arial-BoldMT-41"/>
     <use xlink:href="#Arial-BoldMT-75" x="72.216797"/>
     <use xlink:href="#Arial-BoldMT-74" x="133.300781"/>
     <use xlink:href="#Arial-BoldMT-6f" x="166.601562"/>
     <use xlink:href="#Arial-BoldMT-63" x="227.685547"/>
     <use xlink:href="#Arial-BoldMT-6f" x="283.300781"/>
     <use xlink:href="#Arial-BoldMT-72" x="344.384766"/>
     <use xlink:href="#Arial-BoldMT-72" x="383.300781"/>
     <use xlink:href="#Arial-BoldMT-65" x="422.216797"/>
     <use xlink:href="#Arial-BoldMT-6c" x="477.832031"/>
     <use xlink:href="#Arial-BoldMT-61" x="505.615234"/>
     <use xlink:href="#Arial-BoldMT-63" x="561.230469"/>
     <use xlink:href="#Arial-BoldMT-69" x="616.845703"/>
     <use xlink:href="#Arial-BoldMT-6f" x="644.628906"/>
     <use xlink:href="#Arial-BoldMT-6e" x="705.712891"/>
     <use xlink:href="#Arial-BoldMT-65" x="766.796875"/>
     <use xlink:href="#Arial-BoldMT-73" x="822.412109"/>
     <use xlink:href="#Arial-BoldMT-20" x="878.027344"/>
     <use xlink:href="#Arial-BoldMT-53" x="905.810547"/>
     <use xlink:href="#Arial-BoldMT-69" x="972.509766"/>
     <use xlink:href="#Arial-BoldMT-6d" x="1000.292969"/>
     <use xlink:href="#Arial-BoldMT-70" x="1089.208984"/>
     <use xlink:href="#Arial-BoldMT-6c" x="1150.292969"/>
     <use xlink:href="#Arial-BoldMT-65" x="1178.076172"/>
     <use xlink:href="#Arial-BoldMT-73" x="1233.691406"/>
    </g>
   </g>
  </g>
  <g id="axes_2">
   <g id="patch_7">
    <path d="M 538.897443 257.76 
L 944.715625 257.76 
L 944.715625 59.04 
L 538.897443 59.04 
z
" style="fill: #ffffff"/>
   </g>
   <g id="matplotlib.axis_3">
    <g id="xtick_10">
     <g id="line2d_21">
      <path d="M 557.343724 257.76 
L 557.343724 59.04 
" clip-path="url(#p3747c3451e)" style="fill: none; stroke-dasharray: 1.85,0.8; stroke-dashoffset: 0; stroke: #808080; stroke-width: 0.5"/>
     </g>
     <g id="text_22">
      <!-- 0 -->
      <g style="fill: #262626" transform="translate(555.119349 272.98625) scale(0.08 -0.08)">
       <use xlink:href="#ArialMT-30"/>
      </g>
     </g>
    </g>
    <g id="xtick_11">
     <g id="line2d_22">
      <path d="M 602.984007 257.76 
L 602.984007 59.04 
" clip-path="url(#p3747c3451e)" style="fill: none; stroke-dasharray: 1.85,0.8; stroke-dashoffset: 0; stroke: #808080; stroke-width: 0.5"/>
     </g>
     <g id="text_23">
      <!-- 6 -->
      <g style="fill: #262626" transform="translate(600.759632 272.98625) scale(0.08 -0.08)">
       <use xlink:href="#ArialMT-36"/>
      </g>
     </g>
    </g>
    <g id="xtick_12">
     <g id="line2d_23">
      <path d="M 648.62429 257.76 
L 648.62429 59.04 
" clip-path="url(#p3747c3451e)" style="fill: none; stroke-dasharray: 1.85,0.8; stroke-dashoffset: 0; stroke: #808080; stroke-width: 0.5"/>
     </g>
     <g id="text_24">
      <!-- 12 -->
      <g style="fill: #262626" transform="translate(644.17554 272.98625) scale(0.08 -0.08)">
       <use xlink:href="#ArialMT-31"/>
       <use xlink:href="#ArialMT-32" x="55.615234"/>
      </g>
     </g>
    </g>
    <g id="xtick_13">
     <g id="line2d_24">
      <path d="M 694.264573 257.76 
L 694.264573 59.04 
" clip-path="url(#p3747c3451e)" style="fill: none; stroke-dasharray: 1.85,0.8; stroke-dashoffset: 0; stroke: #808080; stroke-width: 0.5"/>
     </g>
     <g id="text_25">
      <!-- 18 -->
      <g style="fill: #262626" transform="translate(689.815823 272.98625) scale(0.08 -0.08)">
       <use xlink:href="#ArialMT-31"/>
       <use xlink:href="#ArialMT-38" x="55.615234"/>
      </g>
     </g>
    </g>
    <g id="xtick_14">
     <g id="line2d_25">
      <path d="M 739.904856 257.76 
L 739.904856 59.04 
" clip-path="url(#p3747c3451e)" style="fill: none; stroke-dasharray: 1.85,0.8; stroke-dashoffset: 0; stroke: #808080; stroke-width: 0.5"/>
     </g>
     <g id="text_26">
      <!-- 24 -->
      <g style="fill: #262626" transform="translate(735.456106 272.98625) scale(0.08 -0.08)">
       <use xlink:href="#ArialMT-32"/>
       <use xlink:href="#ArialMT-34" x="55.615234"/>
      </g>
     </g>
    </g>
    <g id="xtick_15">
     <g id="line2d_26">
      <path d="M 785.545139 257.76 
L 785.545139 59.04 
" clip-path="url(#p3747c3451e)" style="fill: none; stroke-dasharray: 1.85,0.8; stroke-dashoffset: 0; stroke: #808080; stroke-width: 0.5"/>
     </g>
     <g id="text_27">
      <!-- 30 -->
      <g style="fill: #262626" transform="translate(781.096389 272.98625) scale(0.08 -0.08)">
       <use xlink:href="#ArialMT-33"/>
       <use xlink:href="#ArialMT-30" x="55.615234"/>
      </g>
     </g>
    </g>
    <g id="xtick_16">
     <g id="line2d_27">
      <path d="M 831.185421 257.76 
L 831.185421 59.04 
" clip-path="url(#p3747c3451e)" style="fill: none; stroke-dasharray: 1.85,0.8; stroke-dashoffset: 0; stroke: #808080; stroke-width: 0.5"/>
     </g>
     <g id="text_28">
      <!-- 36 -->
      <g style="fill: #262626" transform="translate(826.736671 272.98625) scale(0.08 -0.08)">
       <use xlink:href="#ArialMT-33"/>
       <use xlink:href="#ArialMT-36" x="55.615234"/>
      </g>
     </g>
    </g>
    <g id="xtick_17">
     <g id="line2d_28">
      <path d="M 876.825704 257.76 
L 876.825704 59.04 
" clip-path="url(#p3747c3451e)" style="fill: none; stroke-dasharray: 1.85,0.8; stroke-dashoffset: 0; stroke: #808080; stroke-width: 0.5"/>
     </g>
     <g id="text_29">
      <!-- 42 -->
      <g style="fill: #262626" transform="translate(872.376954 272.98625) scale(0.08 -0.08)">
       <use xlink:href="#ArialMT-34"/>
       <use xlink:href="#ArialMT-32" x="55.615234"/>
      </g>
     </g>
    </g>
    <g id="xtick_18">
     <g id="line2d_29">
      <path d="M 922.465987 257.76 
L 922.465987 59.04 
" clip-path="url(#p3747c3451e)" style="fill: none; stroke-dasharray: 1.85,0.8; stroke-dashoffset: 0; stroke: #808080; stroke-width: 0.5"/>
     </g>
     <g id="text_30">
      <!-- 48 -->
      <g style="fill: #262626" transform="translate(918.017237 272.98625) scale(0.08 -0.08)">
       <use xlink:href="#ArialMT-34"/>
       <use xlink:href="#ArialMT-38" x="55.615234"/>
      </g>
     </g>
    </g>
    <g id="text_31">
     <!-- Retrasos -->
     <g style="fill: #262626" transform="translate(717.799034 287.165625) scale(0.12 -0.12)">
      <use xlink:href="#ArialMT-52"/>
      <use xlink:href="#ArialMT-65" x="72.216797"/>
      <use xlink:href="#ArialMT-74" x="127.832031"/>
      <use xlink:href="#ArialMT-72" x="155.615234"/>
      <use xlink:href="#ArialMT-61" x="188.916016"/>
      <use xlink:href="#ArialMT-73" x="244.53125"/>
      <use xlink:href="#ArialMT-6f" x="294.53125"/>
      <use xlink:href="#ArialMT-73" x="350.146484"/>
     </g>
    </g>
   </g>
   <g id="matplotlib.axis_4">
    <g id="ytick_10">
     <g id="line2d_30">
      <path d="M 538.897443 257.76 
L 944.715625 257.76 
" clip-path="url(#p3747c3451e)" style="fill: none; stroke-dasharray: 1.85,0.8; stroke-dashoffset: 0; stroke: #808080; stroke-width: 0.5"/>
     </g>
     <g id="text_32">
      <!-- −1.00 -->
      <g style="fill: #262626" transform="translate(509.156193 260.623125) scale(0.08 -0.08)">
       <use xlink:href="#ArialMT-2212"/>
       <use xlink:href="#ArialMT-31" x="58.398438"/>
       <use xlink:href="#ArialMT-2e" x="114.013672"/>
       <use xlink:href="#ArialMT-30" x="141.796875"/>
       <use xlink:href="#ArialMT-30" x="197.412109"/>
      </g>
     </g>
    </g>
    <g id="ytick_11">
     <g id="line2d_31">
      <path d="M 538.897443 232.92 
L 944.715625 232.92 
" clip-path="url(#p3747c3451e)" style="fill: none; stroke-dasharray: 1.85,0.8; stroke-dashoffset: 0; stroke: #808080; stroke-width: 0.5"/>
     </g>
     <g id="text_33">
      <!-- −0.75 -->
      <g style="fill: #262626" transform="translate(509.156193 235.783125) scale(0.08 -0.08)">
       <use xlink:href="#ArialMT-2212"/>
       <use xlink:href="#ArialMT-30" x="58.398438"/>
       <use xlink:href="#ArialMT-2e" x="114.013672"/>
       <use xlink:href="#ArialMT-37" x="141.796875"/>
       <use xlink:href="#ArialMT-35" x="197.412109"/>
      </g>
     </g>
    </g>
    <g id="ytick_12">
     <g id="line2d_32">
      <path d="M 538.897443 208.08 
L 944.715625 208.08 
" clip-path="url(#p3747c3451e)" style="fill: none; stroke-dasharray: 1.85,0.8; stroke-dashoffset: 0; stroke: #808080; stroke-width: 0.5"/>
     </g>
     <g id="text_34">
      <!-- −0.50 -->
      <g style="fill: #262626" transform="translate(509.156193 210.943125) scale(0.08 -0.08)">
       <use xlink:href="#ArialMT-2212"/>
       <use xlink:href="#ArialMT-30" x="58.398438"/>
       <use xlink:href="#ArialMT-2e" x="114.013672"/>
       <use xlink:href="#ArialMT-35" x="141.796875"/>
       <use xlink:href="#ArialMT-30" x="197.412109"/>
      </g>
     </g>
    </g>
    <g id="ytick_13">
     <g id="line2d_33">
      <path d="M 538.897443 183.24 
L 944.715625 183.24 
" clip-path="url(#p3747c3451e)" style="fill: none; stroke-dasharray: 1.85,0.8; stroke-dashoffset: 0; stroke: #808080; stroke-width: 0.5"/>
     </g>
     <g id="text_35">
      <!-- −0.25 -->
      <g style="fill: #262626" transform="translate(509.156193 186.103125) scale(0.08 -0.08)">
       <use xlink:href="#ArialMT-2212"/>
       <use xlink:href="#ArialMT-30" x="58.398438"/>
       <use xlink:href="#ArialMT-2e" x="114.013672"/>
       <use xlink:href="#ArialMT-32" x="141.796875"/>
       <use xlink:href="#ArialMT-35" x="197.412109"/>
      </g>
     </g>
    </g>
    <g id="ytick_14">
     <g id="line2d_34">
      <path d="M 538.897443 158.4 
L 944.715625 158.4 
" clip-path="url(#p3747c3451e)" style="fill: none; stroke-dasharray: 1.85,0.8; stroke-dashoffset: 0; stroke: #808080; stroke-width: 0.5"/>
     </g>
     <g id="text_36">
      <!-- 0.00 -->
      <g style="fill: #262626" transform="translate(513.828693 161.263125) scale(0.08 -0.08)">
       <use xlink:href="#ArialMT-30"/>
       <use xlink:href="#ArialMT-2e" x="55.615234"/>
       <use xlink:href="#ArialMT-30" x="83.398438"/>
       <use xlink:href="#ArialMT-30" x="139.013672"/>
      </g>
     </g>
    </g>
    <g id="ytick_15">
     <g id="line2d_35">
      <path d="M 538.897443 133.56 
L 944.715625 133.56 
" clip-path="url(#p3747c3451e)" style="fill: none; stroke-dasharray: 1.85,0.8; stroke-dashoffset: 0; stroke: #808080; stroke-width: 0.5"/>
     </g>
     <g id="text_37">
      <!-- 0.25 -->
      <g style="fill: #262626" transform="translate(513.828693 136.423125) scale(0.08 -0.08)">
       <use xlink:href="#ArialMT-30"/>
       <use xlink:href="#ArialMT-2e" x="55.615234"/>
       <use xlink:href="#ArialMT-32" x="83.398438"/>
       <use xlink:href="#ArialMT-35" x="139.013672"/>
      </g>
     </g>
    </g>
    <g id="ytick_16">
     <g id="line2d_36">
      <path d="M 538.897443 108.72 
L 944.715625 108.72 
" clip-path="url(#p3747c3451e)" style="fill: none; stroke-dasharray: 1.85,0.8; stroke-dashoffset: 0; stroke: #808080; stroke-width: 0.5"/>
     </g>
     <g id="text_38">
      <!-- 0.50 -->
      <g style="fill: #262626" transform="translate(513.828693 111.583125) scale(0.08 -0.08)">
       <use xlink:href="#ArialMT-30"/>
       <use xlink:href="#ArialMT-2e" x="55.615234"/>
       <use xlink:href="#ArialMT-35" x="83.398438"/>
       <use xlink:href="#ArialMT-30" x="139.013672"/>
      </g>
     </g>
    </g>
    <g id="ytick_17">
     <g id="line2d_37">
      <path d="M 538.897443 83.88 
L 944.715625 83.88 
" clip-path="url(#p3747c3451e)" style="fill: none; stroke-dasharray: 1.85,0.8; stroke-dashoffset: 0; stroke: #808080; stroke-width: 0.5"/>
     </g>
     <g id="text_39">
      <!-- 0.75 -->
      <g style="fill: #262626" transform="translate(513.828693 86.743125) scale(0.08 -0.08)">
       <use xlink:href="#ArialMT-30"/>
       <use xlink:href="#ArialMT-2e" x="55.615234"/>
       <use xlink:href="#ArialMT-37" x="83.398438"/>
       <use xlink:href="#ArialMT-35" x="139.013672"/>
      </g>
     </g>
    </g>
    <g id="ytick_18">
     <g id="line2d_38">
      <path d="M 538.897443 59.04 
L 944.715625 59.04 
" clip-path="url(#p3747c3451e)" style="fill: none; stroke-dasharray: 1.85,0.8; stroke-dashoffset: 0; stroke: #808080; stroke-width: 0.5"/>
     </g>
     <g id="text_40">
      <!-- 1.00 -->
      <g style="fill: #262626" transform="translate(513.828693 61.903125) scale(0.08 -0.08)">
       <use xlink:href="#ArialMT-31"/>
       <use xlink:href="#ArialMT-2e" x="55.615234"/>
       <use xlink:href="#ArialMT-30" x="83.398438"/>
       <use xlink:href="#ArialMT-30" x="139.013672"/>
      </g>
     </g>
    </g>
    <g id="text_41">
     <!-- FACP -->
     <g style="fill: #262626" transform="translate(502.771193 174.072187) rotate(-90) scale(0.12 -0.12)">
      <defs>
       <path id="ArialMT-50" d="M 494 0 
L 494 4581 
L 2222 4581 
Q 2678 4581 2919 4538 
Q 3256 4481 3484 4323 
Q 3713 4166 3852 3881 
Q 3991 3597 3991 3256 
Q 3991 2672 3619 2267 
Q 3247 1863 2275 1863 
L 1100 1863 
L 1100 0 
L 494 0 
z
M 1100 2403 
L 2284 2403 
Q 2872 2403 3119 2622 
Q 3366 2841 3366 3238 
Q 3366 3525 3220 3729 
Q 3075 3934 2838 4000 
Q 2684 4041 2272 4041 
L 1100 4041 
L 1100 2403 
z
" transform="scale(0.015625)"/>
      </defs>
      <use xlink:href="#ArialMT-46"/>
      <use xlink:href="#ArialMT-41" x="55.583984"/>
      <use xlink:href="#ArialMT-43" x="122.283203"/>
      <use xlink:href="#ArialMT-50" x="194.5"/>
     </g>
    </g>
   </g>
   <g id="PolyCollection_2">
    <defs>
     <path id="m4939f093e4" d="M 561.147081 -146.000814 
L 561.147081 -130.700436 
L 572.557152 -130.700436 
L 580.163866 -130.700436 
L 587.770579 -130.700436 
L 595.377293 -130.700436 
L 602.984007 -130.700436 
L 610.590721 -130.700436 
L 618.197435 -130.700436 
L 625.804148 -130.700436 
L 633.410862 -130.700436 
L 641.017576 -130.700436 
L 648.62429 -130.700436 
L 656.231004 -130.700436 
L 663.837718 -130.700436 
L 671.444431 -130.700436 
L 679.051145 -130.700436 
L 686.657859 -130.700436 
L 694.264573 -130.700436 
L 701.871287 -130.700436 
L 709.478 -130.700436 
L 717.084714 -130.700436 
L 724.691428 -130.700436 
L 732.298142 -130.700436 
L 739.904856 -130.700436 
L 747.511569 -130.700436 
L 755.118283 -130.700436 
L 762.724997 -130.700436 
L 770.331711 -130.700436 
L 777.938425 -130.700436 
L 785.545139 -130.700436 
L 793.151852 -130.700436 
L 800.758566 -130.700436 
L 808.36528 -130.700436 
L 815.971994 -130.700436 
L 823.578708 -130.700436 
L 831.185421 -130.700436 
L 838.792135 -130.700436 
L 846.398849 -130.700436 
L 854.005563 -130.700436 
L 861.612277 -130.700436 
L 869.21899 -130.700436 
L 876.825704 -130.700436 
L 884.432418 -130.700436 
L 892.039132 -130.700436 
L 899.645846 -130.700436 
L 907.252559 -130.700436 
L 914.859273 -130.700436 
L 926.269344 -130.700436 
L 926.269344 -146.000814 
L 926.269344 -146.000814 
L 914.859273 -146.000814 
L 907.252559 -146.000814 
L 899.645846 -146.000814 
L 892.039132 -146.000814 
L 884.432418 -146.000814 
L 876.825704 -146.000814 
L 869.21899 -146.000814 
L 861.612277 -146.000814 
L 854.005563 -146.000814 
L 846.398849 -146.000814 
L 838.792135 -146.000814 
L 831.185421 -146.000814 
L 823.578708 -146.000814 
L 815.971994 -146.000814 
L 808.36528 -146.000814 
L 800.758566 -146.000814 
L 793.151852 -146.000814 
L 785.545139 -146.000814 
L 777.938425 -146.000814 
L 770.331711 -146.000814 
L 762.724997 -146.000814 
L 755.118283 -146.000814 
L 747.511569 -146.000814 
L 739.904856 -146.000814 
L 732.298142 -146.000814 
L 724.691428 -146.000814 
L 717.084714 -146.000814 
L 709.478 -146.000814 
L 701.871287 -146.000814 
L 694.264573 -146.000814 
L 686.657859 -146.000814 
L 679.051145 -146.000814 
L 671.444431 -146.000814 
L 663.837718 -146.000814 
L 656.231004 -146.000814 
L 648.62429 -146.000814 
L 641.017576 -146.000814 
L 633.410862 -146.000814 
L 625.804148 -146.000814 
L 618.197435 -146.000814 
L 610.590721 -146.000814 
L 602.984007 -146.000814 
L 595.377293 -146.000814 
L 587.770579 -146.000814 
L 580.163866 -146.000814 
L 572.557152 -146.000814 
L 561.147081 -146.000814 
z
" style="stroke: #ffffff; stroke-opacity: 0.25"/>
    </defs>
    <g clip-path="url(#p3747c3451e)">
     <use xlink:href="#m4939f093e4" x="0" y="296.750625" style="fill: #194a7a; fill-opacity: 0.25; stroke: #ffffff; stroke-opacity: 0.25"/>
    </g>
   </g>
   <g id="LineCollection_2">
    <path d="M 557.343724 158.4 
L 557.343724 59.04 
" clip-path="url(#p3747c3451e)" style="fill: none; stroke: #194a7a; stroke-width: 1.2"/>
    <path d="M 564.950438 158.4 
L 564.950438 139.708333 
" clip-path="url(#p3747c3451e)" style="fill: none; stroke: #194a7a; stroke-width: 1.2"/>
    <path d="M 572.557152 158.4 
L 572.557152 149.065211 
" clip-path="url(#p3747c3451e)" style="fill: none; stroke: #194a7a; stroke-width: 1.2"/>
    <path d="M 580.163866 158.4 
L 580.163866 161.367609 
" clip-path="url(#p3747c3451e)" style="fill: none; stroke: #194a7a; stroke-width: 1.2"/>
    <path d="M 587.770579 158.4 
L 587.770579 161.612143 
" clip-path="url(#p3747c3451e)" style="fill: none; stroke: #194a7a; stroke-width: 1.2"/>
    <path d="M 595.377293 158.4 
L 595.377293 161.881604 
" clip-path="url(#p3747c3451e)" style="fill: none; stroke: #194a7a; stroke-width: 1.2"/>
    <path d="M 602.984007 158.4 
L 602.984007 166.751286 
" clip-path="url(#p3747c3451e)" style="fill: none; stroke: #194a7a; stroke-width: 1.2"/>
    <path d="M 610.590721 158.4 
L 610.590721 159.593637 
" clip-path="url(#p3747c3451e)" style="fill: none; stroke: #194a7a; stroke-width: 1.2"/>
    <path d="M 618.197435 158.4 
L 618.197435 158.283507 
" clip-path="url(#p3747c3451e)" style="fill: none; stroke: #194a7a; stroke-width: 1.2"/>
    <path d="M 625.804148 158.4 
L 625.804148 156.661251 
" clip-path="url(#p3747c3451e)" style="fill: none; stroke: #194a7a; stroke-width: 1.2"/>
    <path d="M 633.410862 158.4 
L 633.410862 160.758549 
" clip-path="url(#p3747c3451e)" style="fill: none; stroke: #194a7a; stroke-width: 1.2"/>
    <path d="M 641.017576 158.4 
L 641.017576 161.144608 
" clip-path="url(#p3747c3451e)" style="fill: none; stroke: #194a7a; stroke-width: 1.2"/>
    <path d="M 648.62429 158.4 
L 648.62429 200.509752 
" clip-path="url(#p3747c3451e)" style="fill: none; stroke: #194a7a; stroke-width: 1.2"/>
    <path d="M 656.231004 158.4 
L 656.231004 150.512375 
" clip-path="url(#p3747c3451e)" style="fill: none; stroke: #194a7a; stroke-width: 1.2"/>
    <path d="M 663.837718 158.4 
L 663.837718 151.762971 
" clip-path="url(#p3747c3451e)" style="fill: none; stroke: #194a7a; stroke-width: 1.2"/>
    <path d="M 671.444431 158.4 
L 671.444431 160.182922 
" clip-path="url(#p3747c3451e)" style="fill: none; stroke: #194a7a; stroke-width: 1.2"/>
    <path d="M 679.051145 158.4 
L 679.051145 165.483337 
" clip-path="url(#p3747c3451e)" style="fill: none; stroke: #194a7a; stroke-width: 1.2"/>
    <path d="M 686.657859 158.4 
L 686.657859 169.307904 
" clip-path="url(#p3747c3451e)" style="fill: none; stroke: #194a7a; stroke-width: 1.2"/>
    <path d="M 694.264573 158.4 
L 694.264573 159.58107 
" clip-path="url(#p3747c3451e)" style="fill: none; stroke: #194a7a; stroke-width: 1.2"/>
    <path d="M 701.871287 158.4 
L 701.871287 160.81018 
" clip-path="url(#p3747c3451e)" style="fill: none; stroke: #194a7a; stroke-width: 1.2"/>
    <path d="M 709.478 158.4 
L 709.478 157.367681 
" clip-path="url(#p3747c3451e)" style="fill: none; stroke: #194a7a; stroke-width: 1.2"/>
    <path d="M 717.084714 158.4 
L 717.084714 160.294341 
" clip-path="url(#p3747c3451e)" style="fill: none; stroke: #194a7a; stroke-width: 1.2"/>
    <path d="M 724.691428 158.4 
L 724.691428 166.350651 
" clip-path="url(#p3747c3451e)" style="fill: none; stroke: #194a7a; stroke-width: 1.2"/>
    <path d="M 732.298142 158.4 
L 732.298142 154.517173 
" clip-path="url(#p3747c3451e)" style="fill: none; stroke: #194a7a; stroke-width: 1.2"/>
    <path d="M 739.904856 158.4 
L 739.904856 184.971888 
" clip-path="url(#p3747c3451e)" style="fill: none; stroke: #194a7a; stroke-width: 1.2"/>
    <path d="M 747.511569 158.4 
L 747.511569 148.352052 
" clip-path="url(#p3747c3451e)" style="fill: none; stroke: #194a7a; stroke-width: 1.2"/>
    <path d="M 755.118283 158.4 
L 755.118283 160.064779 
" clip-path="url(#p3747c3451e)" style="fill: none; stroke: #194a7a; stroke-width: 1.2"/>
    <path d="M 762.724997 158.4 
L 762.724997 160.148496 
" clip-path="url(#p3747c3451e)" style="fill: none; stroke: #194a7a; stroke-width: 1.2"/>
    <path d="M 770.331711 158.4 
L 770.331711 164.129661 
" clip-path="url(#p3747c3451e)" style="fill: none; stroke: #194a7a; stroke-width: 1.2"/>
    <path d="M 777.938425 158.4 
L 777.938425 165.169175 
" clip-path="url(#p3747c3451e)" style="fill: none; stroke: #194a7a; stroke-width: 1.2"/>
    <path d="M 785.545139 158.4 
L 785.545139 167.401803 
" clip-path="url(#p3747c3451e)" style="fill: none; stroke: #194a7a; stroke-width: 1.2"/>
    <path d="M 793.151852 158.4 
L 793.151852 155.545019 
" clip-path="url(#p3747c3451e)" style="fill: none; stroke: #194a7a; stroke-width: 1.2"/>
    <path d="M 800.758566 158.4 
L 800.758566 158.35423 
" clip-path="url(#p3747c3451e)" style="fill: none; stroke: #194a7a; stroke-width: 1.2"/>
    <path d="M 808.36528 158.4 
L 808.36528 148.159009 
" clip-path="url(#p3747c3451e)" style="fill: none; stroke: #194a7a; stroke-width: 1.2"/>
    <path d="M 815.971994 158.4 
L 815.971994 163.000635 
" clip-path="url(#p3747c3451e)" style="fill: none; stroke: #194a7a; stroke-width: 1.2"/>
    <path d="M 823.578708 158.4 
L 823.578708 160.460389 
" clip-path="url(#p3747c3451e)" style="fill: none; stroke: #194a7a; stroke-width: 1.2"/>
    <path d="M 831.185421 158.4 
L 831.185421 171.425311 
" clip-path="url(#p3747c3451e)" style="fill: none; stroke: #194a7a; stroke-width: 1.2"/>
    <path d="M 838.792135 158.4 
L 838.792135 155.677129 
" clip-path="url(#p3747c3451e)" style="fill: none; stroke: #194a7a; stroke-width: 1.2"/>
    <path d="M 846.398849 158.4 
L 846.398849 151.894172 
" clip-path="url(#p3747c3451e)" style="fill: none; stroke: #194a7a; stroke-width: 1.2"/>
    <path d="M 854.005563 158.4 
L 854.005563 158.234286 
" clip-path="url(#p3747c3451e)" style="fill: none; stroke: #194a7a; stroke-width: 1.2"/>
    <path d="M 861.612277 158.4 
L 861.612277 158.874312 
" clip-path="url(#p3747c3451e)" style="fill: none; stroke: #194a7a; stroke-width: 1.2"/>
    <path d="M 869.21899 158.4 
L 869.21899 164.757082 
" clip-path="url(#p3747c3451e)" style="fill: none; stroke: #194a7a; stroke-width: 1.2"/>
    <path d="M 876.825704 158.4 
L 876.825704 168.687358 
" clip-path="url(#p3747c3451e)" style="fill: none; stroke: #194a7a; stroke-width: 1.2"/>
    <path d="M 884.432418 158.4 
L 884.432418 162.097569 
" clip-path="url(#p3747c3451e)" style="fill: none; stroke: #194a7a; stroke-width: 1.2"/>
    <path d="M 892.039132 158.4 
L 892.039132 159.422697 
" clip-path="url(#p3747c3451e)" style="fill: none; stroke: #194a7a; stroke-width: 1.2"/>
    <path d="M 899.645846 158.4 
L 899.645846 158.485877 
" clip-path="url(#p3747c3451e)" style="fill: none; stroke: #194a7a; stroke-width: 1.2"/>
    <path d="M 907.252559 158.4 
L 907.252559 166.529748 
" clip-path="url(#p3747c3451e)" style="fill: none; stroke: #194a7a; stroke-width: 1.2"/>
    <path d="M 914.859273 158.4 
L 914.859273 157.604576 
" clip-path="url(#p3747c3451e)" style="fill: none; stroke: #194a7a; stroke-width: 1.2"/>
    <path d="M 922.465987 158.4 
L 922.465987 172.515021 
" clip-path="url(#p3747c3451e)" style="fill: none; stroke: #194a7a; stroke-width: 1.2"/>
   </g>
   <g id="line2d_39">
    <path d="M 538.897443 158.4 
L 944.715625 158.4 
" clip-path="url(#p3747c3451e)" style="fill: none; stroke: #194a7a; stroke-width: 1.2; stroke-linecap: round"/>
   </g>
   <g id="line2d_40">
    <g clip-path="url(#p3747c3451e)">
     <use xlink:href="#m521dee991d" x="557.343724" y="59.04" style="fill: #194a7a; stroke: #194a7a"/>
     <use xlink:href="#m521dee991d" x="564.950438" y="139.708333" style="fill: #194a7a; stroke: #194a7a"/>
     <use xlink:href="#m521dee991d" x="572.557152" y="149.065211" style="fill: #194a7a; stroke: #194a7a"/>
     <use xlink:href="#m521dee991d" x="580.163866" y="161.367609" style="fill: #194a7a; stroke: #194a7a"/>
     <use xlink:href="#m521dee991d" x="587.770579" y="161.612143" style="fill: #194a7a; stroke: #194a7a"/>
     <use xlink:href="#m521dee991d" x="595.377293" y="161.881604" style="fill: #194a7a; stroke: #194a7a"/>
     <use xlink:href="#m521dee991d" x="602.984007" y="166.751286" style="fill: #194a7a; stroke: #194a7a"/>
     <use xlink:href="#m521dee991d" x="610.590721" y="159.593637" style="fill: #194a7a; stroke: #194a7a"/>
     <use xlink:href="#m521dee991d" x="618.197435" y="158.283507" style="fill: #194a7a; stroke: #194a7a"/>
     <use xlink:href="#m521dee991d" x="625.804148" y="156.661251" style="fill: #194a7a; stroke: #194a7a"/>
     <use xlink:href="#m521dee991d" x="633.410862" y="160.758549" style="fill: #194a7a; stroke: #194a7a"/>
     <use xlink:href="#m521dee991d" x="641.017576" y="161.144608" style="fill: #194a7a; stroke: #194a7a"/>
     <use xlink:href="#m521dee991d" x="648.62429" y="200.509752" style="fill: #194a7a; stroke: #194a7a"/>
     <use xlink:href="#m521dee991d" x="656.231004" y="150.512375" style="fill: #194a7a; stroke: #194a7a"/>
     <use xlink:href="#m521dee991d" x="663.837718" y="151.762971" style="fill: #194a7a; stroke: #194a7a"/>
     <use xlink:href="#m521dee991d" x="671.444431" y="160.182922" style="fill: #194a7a; stroke: #194a7a"/>
     <use xlink:href="#m521dee991d" x="679.051145" y="165.483337" style="fill: #194a7a; stroke: #194a7a"/>
     <use xlink:href="#m521dee991d" x="686.657859" y="169.307904" style="fill: #194a7a; stroke: #194a7a"/>
     <use xlink:href="#m521dee991d" x="694.264573" y="159.58107" style="fill: #194a7a; stroke: #194a7a"/>
     <use xlink:href="#m521dee991d" x="701.871287" y="160.81018" style="fill: #194a7a; stroke: #194a7a"/>
     <use xlink:href="#m521dee991d" x="709.478" y="157.367681" style="fill: #194a7a; stroke: #194a7a"/>
     <use xlink:href="#m521dee991d" x="717.084714" y="160.294341" style="fill: #194a7a; stroke: #194a7a"/>
     <use xlink:href="#m521dee991d" x="724.691428" y="166.350651" style="fill: #194a7a; stroke: #194a7a"/>
     <use xlink:href="#m521dee991d" x="732.298142" y="154.517173" style="fill: #194a7a; stroke: #194a7a"/>
     <use xlink:href="#m521dee991d" x="739.904856" y="184.971888" style="fill: #194a7a; stroke: #194a7a"/>
     <use xlink:href="#m521dee991d" x="747.511569" y="148.352052" style="fill: #194a7a; stroke: #194a7a"/>
     <use xlink:href="#m521dee991d" x="755.118283" y="160.064779" style="fill: #194a7a; stroke: #194a7a"/>
     <use xlink:href="#m521dee991d" x="762.724997" y="160.148496" style="fill: #194a7a; stroke: #194a7a"/>
     <use xlink:href="#m521dee991d" x="770.331711" y="164.129661" style="fill: #194a7a; stroke: #194a7a"/>
     <use xlink:href="#m521dee991d" x="777.938425" y="165.169175" style="fill: #194a7a; stroke: #194a7a"/>
     <use xlink:href="#m521dee991d" x="785.545139" y="167.401803" style="fill: #194a7a; stroke: #194a7a"/>
     <use xlink:href="#m521dee991d" x="793.151852" y="155.545019" style="fill: #194a7a; stroke: #194a7a"/>
     <use xlink:href="#m521dee991d" x="800.758566" y="158.35423" style="fill: #194a7a; stroke: #194a7a"/>
     <use xlink:href="#m521dee991d" x="808.36528" y="148.159009" style="fill: #194a7a; stroke: #194a7a"/>
     <use xlink:href="#m521dee991d" x="815.971994" y="163.000635" style="fill: #194a7a; stroke: #194a7a"/>
     <use xlink:href="#m521dee991d" x="823.578708" y="160.460389" style="fill: #194a7a; stroke: #194a7a"/>
     <use xlink:href="#m521dee991d" x="831.185421" y="171.425311" style="fill: #194a7a; stroke: #194a7a"/>
     <use xlink:href="#m521dee991d" x="838.792135" y="155.677129" style="fill: #194a7a; stroke: #194a7a"/>
     <use xlink:href="#m521dee991d" x="846.398849" y="151.894172" style="fill: #194a7a; stroke: #194a7a"/>
     <use xlink:href="#m521dee991d" x="854.005563" y="158.234286" style="fill: #194a7a; stroke: #194a7a"/>
     <use xlink:href="#m521dee991d" x="861.612277" y="158.874312" style="fill: #194a7a; stroke: #194a7a"/>
     <use xlink:href="#m521dee991d" x="869.21899" y="164.757082" style="fill: #194a7a; stroke: #194a7a"/>
     <use xlink:href="#m521dee991d" x="876.825704" y="168.687358" style="fill: #194a7a; stroke: #194a7a"/>
     <use xlink:href="#m521dee991d" x="884.432418" y="162.097569" style="fill: #194a7a; stroke: #194a7a"/>
     <use xlink:href="#m521dee991d" x="892.039132" y="159.422697" style="fill: #194a7a; stroke: #194a7a"/>
     <use xlink:href="#m521dee991d" x="899.645846" y="158.485877" style="fill: #194a7a; stroke: #194a7a"/>
     <use xlink:href="#m521dee991d" x="907.252559" y="166.529748" style="fill: #194a7a; stroke: #194a7a"/>
     <use xlink:href="#m521dee991d" x="914.859273" y="157.604576" style="fill: #194a7a; stroke: #194a7a"/>
     <use xlink:href="#m521dee991d" x="922.465987" y="172.515021" style="fill: #194a7a; stroke: #194a7a"/>
    </g>
   </g>
   <g id="patch_8">
    <path d="M 538.897443 257.76 
L 538.897443 59.04 
" style="fill: none; stroke: #cccccc; stroke-width: 1.25; stroke-linejoin: miter; stroke-linecap: square"/>
   </g>
   <g id="patch_9">
    <path d="M 944.715625 257.76 
L 944.715625 59.04 
" style="fill: none; stroke: #cccccc; stroke-width: 1.25; stroke-linejoin: miter; stroke-linecap: square"/>
   </g>
   <g id="patch_10">
    <path d="M 538.897443 257.76 
L 944.715625 257.76 
" style="fill: none; stroke: #cccccc; stroke-width: 1.25; stroke-linejoin: miter; stroke-linecap: square"/>
   </g>
   <g id="patch_11">
    <path d="M 538.897443 59.04 
L 944.715625 59.04 
" style="fill: none; stroke: #cccccc; stroke-width: 1.25; stroke-linejoin: miter; stroke-linecap: square"/>
   </g>
   <g id="text_42">
    <!-- Autocorrelaciones Parciales -->
    <g style="fill: #262626" transform="translate(647.657628 53.04) scale(0.14 -0.14)">
     <defs>
      <path id="Arial-BoldMT-50" d="M 466 0 
L 466 4581 
L 1950 4581 
Q 2794 4581 3050 4513 
Q 3444 4409 3709 4064 
Q 3975 3719 3975 3172 
Q 3975 2750 3822 2462 
Q 3669 2175 3433 2011 
Q 3197 1847 2953 1794 
Q 2622 1728 1994 1728 
L 1391 1728 
L 1391 0 
L 466 0 
z
M 1391 3806 
L 1391 2506 
L 1897 2506 
Q 2444 2506 2628 2578 
Q 2813 2650 2917 2803 
Q 3022 2956 3022 3159 
Q 3022 3409 2875 3571 
Q 2728 3734 2503 3775 
Q 2338 3806 1838 3806 
L 1391 3806 
z
" transform="scale(0.015625)"/>
     </defs>
     <use xlink:href="#Arial-BoldMT-41"/>
     <use xlink:href="#Arial-BoldMT-75" x="72.216797"/>
     <use xlink:href="#Arial-BoldMT-74" x="133.300781"/>
     <use xlink:href="#Arial-BoldMT-6f" x="166.601562"/>
     <use xlink:href="#Arial-BoldMT-63" x="227.685547"/>
     <use xlink:href="#Arial-BoldMT-6f" x="283.300781"/>
     <use xlink:href="#Arial-BoldMT-72" x="344.384766"/>
     <use xlink:href="#Arial-BoldMT-72" x="383.300781"/>
     <use xlink:href="#Arial-BoldMT-65" x="422.216797"/>
     <use xlink:href="#Arial-BoldMT-6c" x="477.832031"/>
     <use xlink:href="#Arial-BoldMT-61" x="505.615234"/>
     <use xlink:href="#Arial-BoldMT-63" x="561.230469"/>
     <use xlink:href="#Arial-BoldMT-69" x="616.845703"/>
     <use xlink:href="#Arial-BoldMT-6f" x="644.628906"/>
     <use xlink:href="#Arial-BoldMT-6e" x="705.712891"/>
     <use xlink:href="#Arial-BoldMT-65" x="766.796875"/>
     <use xlink:href="#Arial-BoldMT-73" x="822.412109"/>
     <use xlink:href="#Arial-BoldMT-20" x="878.027344"/>
     <use xlink:href="#Arial-BoldMT-50" x="905.810547"/>
     <use xlink:href="#Arial-BoldMT-61" x="972.509766"/>
     <use xlink:href="#Arial-BoldMT-72" x="1028.125"/>
     <use xlink:href="#Arial-BoldMT-63" x="1067.041016"/>
     <use xlink:href="#Arial-BoldMT-69" x="1122.65625"/>
     <use xlink:href="#Arial-BoldMT-61" x="1150.439453"/>
     <use xlink:href="#Arial-BoldMT-6c" x="1206.054688"/>
     <use xlink:href="#Arial-BoldMT-65" x="1233.837891"/>
     <use xlink:href="#Arial-BoldMT-73" x="1289.453125"/>
    </g>
   </g>
  </g>
  <g id="text_43">
   <!-- FAC y FACP de la Serie Transformada, D=1, de la Precipitación Mensual en Puebla -->
   <g style="fill: #262626" transform="translate(171.740625 18.8475) scale(0.16 -0.16)">
    <defs>
     <path id="Arial-BoldMT-46" d="M 472 0 
L 472 4581 
L 3613 4581 
L 3613 3806 
L 1397 3806 
L 1397 2722 
L 3309 2722 
L 3309 1947 
L 1397 1947 
L 1397 0 
L 472 0 
z
" transform="scale(0.015625)"/>
     <path id="Arial-BoldMT-43" d="M 3397 1684 
L 4294 1400 
Q 4088 650 3608 286 
Q 3128 -78 2391 -78 
Q 1478 -78 890 545 
Q 303 1169 303 2250 
Q 303 3394 893 4026 
Q 1484 4659 2447 4659 
Q 3288 4659 3813 4163 
Q 4125 3869 4281 3319 
L 3366 3100 
Q 3284 3456 3026 3662 
Q 2769 3869 2400 3869 
Q 1891 3869 1573 3503 
Q 1256 3138 1256 2319 
Q 1256 1450 1568 1081 
Q 1881 713 2381 713 
Q 2750 713 3015 947 
Q 3281 1181 3397 1684 
z
" transform="scale(0.015625)"/>
     <path id="Arial-BoldMT-79" d="M 44 3319 
L 978 3319 
L 1772 963 
L 2547 3319 
L 3456 3319 
L 2284 125 
L 2075 -453 
Q 1959 -744 1854 -897 
Q 1750 -1050 1614 -1145 
Q 1478 -1241 1279 -1294 
Q 1081 -1347 831 -1347 
Q 578 -1347 334 -1294 
L 256 -606 
Q 463 -647 628 -647 
Q 934 -647 1081 -467 
Q 1228 -288 1306 -9 
L 44 3319 
z
" transform="scale(0.015625)"/>
     <path id="Arial-BoldMT-64" d="M 3503 0 
L 2688 0 
L 2688 488 
Q 2484 203 2207 64 
Q 1931 -75 1650 -75 
Q 1078 -75 670 386 
Q 263 847 263 1672 
Q 263 2516 659 2955 
Q 1056 3394 1663 3394 
Q 2219 3394 2625 2931 
L 2625 4581 
L 3503 4581 
L 3503 0 
z
M 1159 1731 
Q 1159 1200 1306 963 
Q 1519 619 1900 619 
Q 2203 619 2415 876 
Q 2628 1134 2628 1647 
Q 2628 2219 2422 2470 
Q 2216 2722 1894 2722 
Q 1581 2722 1370 2473 
Q 1159 2225 1159 1731 
z
" transform="scale(0.015625)"/>
     <path id="Arial-BoldMT-54" d="M 1497 0 
L 1497 3806 
L 138 3806 
L 138 4581 
L 3778 4581 
L 3778 3806 
L 2422 3806 
L 2422 0 
L 1497 0 
z
" transform="scale(0.015625)"/>
     <path id="Arial-BoldMT-66" d="M 75 3319 
L 563 3319 
L 563 3569 
Q 563 3988 652 4194 
Q 741 4400 980 4529 
Q 1219 4659 1584 4659 
Q 1959 4659 2319 4547 
L 2200 3934 
Q 1991 3984 1797 3984 
Q 1606 3984 1523 3895 
Q 1441 3806 1441 3553 
L 1441 3319 
L 2097 3319 
L 2097 2628 
L 1441 2628 
L 1441 0 
L 563 0 
L 563 2628 
L 75 2628 
L 75 3319 
z
" transform="scale(0.015625)"/>
     <path id="Arial-BoldMT-2c" d="M 438 878 
L 1316 878 
L 1316 250 
Q 1316 -131 1250 -351 
Q 1184 -572 1001 -747 
Q 819 -922 538 -1022 
L 366 -659 
Q 631 -572 743 -419 
Q 856 -266 863 0 
L 438 0 
L 438 878 
z
" transform="scale(0.015625)"/>
     <path id="Arial-BoldMT-44" d="M 463 4581 
L 2153 4581 
Q 2725 4581 3025 4494 
Q 3428 4375 3715 4072 
Q 4003 3769 4153 3330 
Q 4303 2891 4303 2247 
Q 4303 1681 4163 1272 
Q 3991 772 3672 463 
Q 3431 228 3022 97 
Q 2716 0 2203 0 
L 463 0 
L 463 4581 
z
M 1388 3806 
L 1388 772 
L 2078 772 
Q 2466 772 2638 816 
Q 2863 872 3011 1006 
Q 3159 1141 3253 1448 
Q 3347 1756 3347 2288 
Q 3347 2819 3253 3103 
Q 3159 3388 2990 3547 
Q 2822 3706 2563 3763 
Q 2369 3806 1803 3806 
L 1388 3806 
z
" transform="scale(0.015625)"/>
     <path id="Arial-BoldMT-3d" d="M 266 2550 
L 266 3356 
L 3469 3356 
L 3469 2550 
L 266 2550 
z
M 266 1163 
L 266 1972 
L 3469 1972 
L 3469 1163 
L 266 1163 
z
" transform="scale(0.015625)"/>
     <path id="Arial-BoldMT-31" d="M 2519 0 
L 1641 0 
L 1641 3309 
Q 1159 2859 506 2644 
L 506 3441 
Q 850 3553 1253 3867 
Q 1656 4181 1806 4600 
L 2519 4600 
L 2519 0 
z
" transform="scale(0.015625)"/>
     <path id="Arial-BoldMT-f3" d="M 256 1706 
Q 256 2144 472 2553 
Q 688 2963 1083 3178 
Q 1478 3394 1966 3394 
Q 2719 3394 3200 2905 
Q 3681 2416 3681 1669 
Q 3681 916 3195 420 
Q 2709 -75 1972 -75 
Q 1516 -75 1102 131 
Q 688 338 472 736 
Q 256 1134 256 1706 
z
M 1156 1659 
Q 1156 1166 1390 903 
Q 1625 641 1969 641 
Q 2313 641 2545 903 
Q 2778 1166 2778 1666 
Q 2778 2153 2545 2415 
Q 2313 2678 1969 2678 
Q 1625 2678 1390 2415 
Q 1156 2153 1156 1659 
z
M 1528 3725 
L 1960 4659 
L 2944 4659 
L 2085 3725 
L 1528 3725 
z
" transform="scale(0.015625)"/>
     <path id="Arial-BoldMT-4d" d="M 453 0 
L 453 4581 
L 1838 4581 
L 2669 1456 
L 3491 4581 
L 4878 4581 
L 4878 0 
L 4019 0 
L 4019 3606 
L 3109 0 
L 2219 0 
L 1313 3606 
L 1313 0 
L 453 0 
z
" transform="scale(0.015625)"/>
     <path id="Arial-BoldMT-62" d="M 422 0 
L 422 4581 
L 1300 4581 
L 1300 2931 
Q 1706 3394 2263 3394 
Q 2869 3394 3266 2955 
Q 3663 2516 3663 1694 
Q 3663 844 3258 384 
Q 2853 -75 2275 -75 
Q 1991 -75 1714 67 
Q 1438 209 1238 488 
L 1238 0 
L 422 0 
z
M 1294 1731 
Q 1294 1216 1456 969 
Q 1684 619 2063 619 
Q 2353 619 2558 867 
Q 2763 1116 2763 1650 
Q 2763 2219 2556 2470 
Q 2350 2722 2028 2722 
Q 1713 2722 1503 2476 
Q 1294 2231 1294 1731 
z
" transform="scale(0.015625)"/>
    </defs>
    <use xlink:href="#Arial-BoldMT-46"/>
    <use xlink:href="#Arial-BoldMT-41" x="55.583984"/>
    <use xlink:href="#Arial-BoldMT-43" x="127.800781"/>
    <use xlink:href="#Arial-BoldMT-20" x="200.017578"/>
    <use xlink:href="#Arial-BoldMT-79" x="227.800781"/>
    <use xlink:href="#Arial-BoldMT-20" x="283.416016"/>
    <use xlink:href="#Arial-BoldMT-46" x="311.199219"/>
    <use xlink:href="#Arial-BoldMT-41" x="366.783203"/>
    <use xlink:href="#Arial-BoldMT-43" x="439"/>
    <use xlink:href="#Arial-BoldMT-50" x="511.216797"/>
    <use xlink:href="#Arial-BoldMT-20" x="576.166016"/>
    <use xlink:href="#Arial-BoldMT-64" x="603.949219"/>
    <use xlink:href="#Arial-BoldMT-65" x="665.033203"/>
    <use xlink:href="#Arial-BoldMT-20" x="720.648438"/>
    <use xlink:href="#Arial-BoldMT-6c" x="748.431641"/>
    <use xlink:href="#Arial-BoldMT-61" x="776.214844"/>
    <use xlink:href="#Arial-BoldMT-20" x="831.830078"/>
    <use xlink:href="#Arial-BoldMT-53" x="859.613281"/>
    <use xlink:href="#Arial-BoldMT-65" x="926.3125"/>
    <use xlink:href="#Arial-BoldMT-72" x="981.927734"/>
    <use xlink:href="#Arial-BoldMT-69" x="1020.84375"/>
    <use xlink:href="#Arial-BoldMT-65" x="1048.626953"/>
    <use xlink:href="#Arial-BoldMT-20" x="1104.242188"/>
    <use xlink:href="#Arial-BoldMT-54" x="1132.025391"/>
    <use xlink:href="#Arial-BoldMT-72" x="1187.609375"/>
    <use xlink:href="#Arial-BoldMT-61" x="1226.525391"/>
    <use xlink:href="#Arial-BoldMT-6e" x="1282.140625"/>
    <use xlink:href="#Arial-BoldMT-73" x="1343.224609"/>
    <use xlink:href="#Arial-BoldMT-66" x="1398.839844"/>
    <use xlink:href="#Arial-BoldMT-6f" x="1432.140625"/>
    <use xlink:href="#Arial-BoldMT-72" x="1493.224609"/>
    <use xlink:href="#Arial-BoldMT-6d" x="1532.140625"/>
    <use xlink:href="#Arial-BoldMT-61" x="1621.056641"/>
    <use xlink:href="#Arial-BoldMT-64" x="1676.671875"/>
    <use xlink:href="#Arial-BoldMT-61" x="1737.755859"/>
    <use xlink:href="#Arial-BoldMT-2c" x="1793.371094"/>
    <use xlink:href="#Arial-BoldMT-20" x="1821.154297"/>
    <use xlink:href="#Arial-BoldMT-44" x="1848.9375"/>
    <use xlink:href="#Arial-BoldMT-3d" x="1921.154297"/>
    <use xlink:href="#Arial-BoldMT-31" x="1979.552734"/>
    <use xlink:href="#Arial-BoldMT-2c" x="2035.167969"/>
    <use xlink:href="#Arial-BoldMT-20" x="2062.951172"/>
    <use xlink:href="#Arial-BoldMT-64" x="2090.734375"/>
    <use xlink:href="#Arial-BoldMT-65" x="2151.818359"/>
    <use xlink:href="#Arial-BoldMT-20" x="2207.433594"/>
    <use xlink:href="#Arial-BoldMT-6c" x="2235.216797"/>
    <use xlink:href="#Arial-BoldMT-61" x="2263"/>
    <use xlink:href="#Arial-BoldMT-20" x="2318.615234"/>
    <use xlink:href="#Arial-BoldMT-50" x="2346.398438"/>
    <use xlink:href="#Arial-BoldMT-72" x="2413.097656"/>
    <use xlink:href="#Arial-BoldMT-65" x="2452.013672"/>
    <use xlink:href="#Arial-BoldMT-63" x="2507.628906"/>
    <use xlink:href="#Arial-BoldMT-69" x="2563.244141"/>
    <use xlink:href="#Arial-BoldMT-70" x="2591.027344"/>
    <use xlink:href="#Arial-BoldMT-69" x="2652.111328"/>
    <use xlink:href="#Arial-BoldMT-74" x="2679.894531"/>
    <use xlink:href="#Arial-BoldMT-61" x="2713.195312"/>
    <use xlink:href="#Arial-BoldMT-63" x="2768.810547"/>
    <use xlink:href="#Arial-BoldMT-69" x="2824.425781"/>
    <use xlink:href="#Arial-BoldMT-f3" x="2852.208984"/>
    <use xlink:href="#Arial-BoldMT-6e" x="2913.292969"/>
    <use xlink:href="#Arial-BoldMT-20" x="2974.376953"/>
    <use xlink:href="#Arial-BoldMT-4d" x="3002.160156"/>
    <use xlink:href="#Arial-BoldMT-65" x="3085.460938"/>
    <use xlink:href="#Arial-BoldMT-6e" x="3141.076172"/>
    <use xlink:href="#Arial-BoldMT-73" x="3202.160156"/>
    <use xlink:href="#Arial-BoldMT-75" x="3257.775391"/>
    <use xlink:href="#Arial-BoldMT-61" x="3318.859375"/>
    <use xlink:href="#Arial-BoldMT-6c" x="3374.474609"/>
    <use xlink:href="#Arial-BoldMT-20" x="3402.257812"/>
    <use xlink:href="#Arial-BoldMT-65" x="3430.041016"/>
    <use xlink:href="#Arial-BoldMT-6e" x="3485.65625"/>
    <use xlink:href="#Arial-BoldMT-20" x="3546.740234"/>
    <use xlink:href="#Arial-BoldMT-50" x="3574.523438"/>
    <use xlink:href="#Arial-BoldMT-75" x="3641.222656"/>
    <use xlink:href="#Arial-BoldMT-65" x="3702.306641"/>
    <use xlink:href="#Arial-BoldMT-62" x="3757.921875"/>
    <use xlink:href="#Arial-BoldMT-6c" x="3819.005859"/>
    <use xlink:href="#Arial-BoldMT-61" x="3846.789062"/>
   </g>
  </g>
 </g>
 <defs>
  <clipPath id="p98df9e71f8">
   <rect x="51.915625" y="59.04" width="405.818182" height="198.72"/>
  </clipPath>
  <clipPath id="p3747c3451e">
   <rect x="538.897443" y="59.04" width="405.818182" height="198.72"/>
  </clipPath>
 </defs>
</svg>
