<?xml version="1.0" encoding="utf-8" standalone="no"?>
<!DOCTYPE svg PUBLIC "-//W3C//DTD SVG 1.1//EN"
  "http://www.w3.org/Graphics/SVG/1.1/DTD/svg11.dtd">
<svg xmlns:xlink="http://www.w3.org/1999/xlink" width="936.94125pt" height="281.77625pt" viewBox="0 0 936.94125 281.77625" xmlns="http://www.w3.org/2000/svg" version="1.1">
 <metadata>
  <rdf:RDF xmlns:dc="http://purl.org/dc/elements/1.1/" xmlns:cc="http://creativecommons.org/ns#" xmlns:rdf="http://www.w3.org/1999/02/22-rdf-syntax-ns#">
   <cc:Work>
    <dc:type rdf:resource="http://purl.org/dc/dcmitype/StillImage"/>
    <dc:date>2025-04-24T19:28:53.014539</dc:date>
    <dc:format>image/svg+xml</dc:format>
    <dc:creator>
     <cc:Agent>
      <dc:title>Matplotlib v3.8.4, https://matplotlib.org/</dc:title>
     </cc:Agent>
    </dc:creator>
   </cc:Work>
  </rdf:RDF>
 </metadata>
 <defs>
  <style type="text/css">*{stroke-linejoin: round; stroke-linecap: butt}</style>
 </defs>
 <g id="figure_1">
  <g id="patch_1">
   <path d="M 0 281.77625 
L 936.94125 281.77625 
L 936.94125 0 
L 0 0 
z
" style="fill: #ffffff"/>
  </g>
  <g id="axes_1">
   <g id="patch_2">
    <path d="M 36.94125 257.76 
L 442.759432 257.76 
L 442.759432 36 
L 36.94125 36 
z
" style="fill: #ffffff"/>
   </g>
   <g id="matplotlib.axis_1">
    <g id="xtick_1">
     <g id="line2d_1">
      <path d="M 55.387531 257.76 
L 55.387531 36 
" clip-path="url(#p530e47721d)" style="fill: none; stroke-dasharray: 1.85,0.8; stroke-dashoffset: 0; stroke: #808080; stroke-width: 0.5"/>
     </g>
     <g id="text_1">
      <!-- 0 -->
      <g style="fill: #262626" transform="translate(53.163156 272.98625) scale(0.08 -0.08)">
       <defs>
        <path id="ArialMT-30" d="M 266 2259 
Q 266 3072 433 3567 
Q 600 4063 929 4331 
Q 1259 4600 1759 4600 
Q 2128 4600 2406 4451 
Q 2684 4303 2865 4023 
Q 3047 3744 3150 3342 
Q 3253 2941 3253 2259 
Q 3253 1453 3087 958 
Q 2922 463 2592 192 
Q 2263 -78 1759 -78 
Q 1097 -78 719 397 
Q 266 969 266 2259 
z
M 844 2259 
Q 844 1131 1108 757 
Q 1372 384 1759 384 
Q 2147 384 2411 759 
Q 2675 1134 2675 2259 
Q 2675 3391 2411 3762 
Q 2147 4134 1753 4134 
Q 1366 4134 1134 3806 
Q 844 3388 844 2259 
z
" transform="scale(0.015625)"/>
       </defs>
       <use xlink:href="#ArialMT-30"/>
      </g>
     </g>
    </g>
    <g id="xtick_2">
     <g id="line2d_2">
      <path d="M 101.027814 257.76 
L 101.027814 36 
" clip-path="url(#p530e47721d)" style="fill: none; stroke-dasharray: 1.85,0.8; stroke-dashoffset: 0; stroke: #808080; stroke-width: 0.5"/>
     </g>
     <g id="text_2">
      <!-- 6 -->
      <g style="fill: #262626" transform="translate(98.803439 272.98625) scale(0.08 -0.08)">
       <defs>
        <path id="ArialMT-36" d="M 3184 3459 
L 2625 3416 
Q 2550 3747 2413 3897 
Q 2184 4138 1850 4138 
Q 1581 4138 1378 3988 
Q 1113 3794 959 3422 
Q 806 3050 800 2363 
Q 1003 2672 1297 2822 
Q 1591 2972 1913 2972 
Q 2475 2972 2870 2558 
Q 3266 2144 3266 1488 
Q 3266 1056 3080 686 
Q 2894 316 2569 119 
Q 2244 -78 1831 -78 
Q 1128 -78 684 439 
Q 241 956 241 2144 
Q 241 3472 731 4075 
Q 1159 4600 1884 4600 
Q 2425 4600 2770 4297 
Q 3116 3994 3184 3459 
z
M 888 1484 
Q 888 1194 1011 928 
Q 1134 663 1356 523 
Q 1578 384 1822 384 
Q 2178 384 2434 671 
Q 2691 959 2691 1453 
Q 2691 1928 2437 2201 
Q 2184 2475 1800 2475 
Q 1419 2475 1153 2201 
Q 888 1928 888 1484 
z
" transform="scale(0.015625)"/>
       </defs>
       <use xlink:href="#ArialMT-36"/>
      </g>
     </g>
    </g>
    <g id="xtick_3">
     <g id="line2d_3">
      <path d="M 146.668097 257.76 
L 146.668097 36 
" clip-path="url(#p530e47721d)" style="fill: none; stroke-dasharray: 1.85,0.8; stroke-dashoffset: 0; stroke: #808080; stroke-width: 0.5"/>
     </g>
     <g id="text_3">
      <!-- 12 -->
      <g style="fill: #262626" transform="translate(142.219347 272.98625) scale(0.08 -0.08)">
       <defs>
        <path id="ArialMT-31" d="M 2384 0 
L 1822 0 
L 1822 3584 
Q 1619 3391 1289 3197 
Q 959 3003 697 2906 
L 697 3450 
Q 1169 3672 1522 3987 
Q 1875 4303 2022 4600 
L 2384 4600 
L 2384 0 
z
" transform="scale(0.015625)"/>
        <path id="ArialMT-32" d="M 3222 541 
L 3222 0 
L 194 0 
Q 188 203 259 391 
Q 375 700 629 1000 
Q 884 1300 1366 1694 
Q 2113 2306 2375 2664 
Q 2638 3022 2638 3341 
Q 2638 3675 2398 3904 
Q 2159 4134 1775 4134 
Q 1369 4134 1125 3890 
Q 881 3647 878 3216 
L 300 3275 
Q 359 3922 746 4261 
Q 1134 4600 1788 4600 
Q 2447 4600 2831 4234 
Q 3216 3869 3216 3328 
Q 3216 3053 3103 2787 
Q 2991 2522 2730 2228 
Q 2469 1934 1863 1422 
Q 1356 997 1212 845 
Q 1069 694 975 541 
L 3222 541 
z
" transform="scale(0.015625)"/>
       </defs>
       <use xlink:href="#ArialMT-31"/>
       <use xlink:href="#ArialMT-32" x="55.615234"/>
      </g>
     </g>
    </g>
    <g id="xtick_4">
     <g id="line2d_4">
      <path d="M 192.30838 257.76 
L 192.30838 36 
" clip-path="url(#p530e47721d)" style="fill: none; stroke-dasharray: 1.85,0.8; stroke-dashoffset: 0; stroke: #808080; stroke-width: 0.5"/>
     </g>
     <g id="text_4">
      <!-- 18 -->
      <g style="fill: #262626" transform="translate(187.85963 272.98625) scale(0.08 -0.08)">
       <defs>
        <path id="ArialMT-38" d="M 1131 2484 
Q 781 2613 612 2850 
Q 444 3088 444 3419 
Q 444 3919 803 4259 
Q 1163 4600 1759 4600 
Q 2359 4600 2725 4251 
Q 3091 3903 3091 3403 
Q 3091 3084 2923 2848 
Q 2756 2613 2416 2484 
Q 2838 2347 3058 2040 
Q 3278 1734 3278 1309 
Q 3278 722 2862 322 
Q 2447 -78 1769 -78 
Q 1091 -78 675 323 
Q 259 725 259 1325 
Q 259 1772 486 2073 
Q 713 2375 1131 2484 
z
M 1019 3438 
Q 1019 3113 1228 2906 
Q 1438 2700 1772 2700 
Q 2097 2700 2305 2904 
Q 2513 3109 2513 3406 
Q 2513 3716 2298 3927 
Q 2084 4138 1766 4138 
Q 1444 4138 1231 3931 
Q 1019 3725 1019 3438 
z
M 838 1322 
Q 838 1081 952 856 
Q 1066 631 1291 507 
Q 1516 384 1775 384 
Q 2178 384 2440 643 
Q 2703 903 2703 1303 
Q 2703 1709 2433 1975 
Q 2163 2241 1756 2241 
Q 1359 2241 1098 1978 
Q 838 1716 838 1322 
z
" transform="scale(0.015625)"/>
       </defs>
       <use xlink:href="#ArialMT-31"/>
       <use xlink:href="#ArialMT-38" x="55.615234"/>
      </g>
     </g>
    </g>
    <g id="xtick_5">
     <g id="line2d_5">
      <path d="M 237.948662 257.76 
L 237.948662 36 
" clip-path="url(#p530e47721d)" style="fill: none; stroke-dasharray: 1.85,0.8; stroke-dashoffset: 0; stroke: #808080; stroke-width: 0.5"/>
     </g>
     <g id="text_5">
      <!-- 24 -->
      <g style="fill: #262626" transform="translate(233.499912 272.98625) scale(0.08 -0.08)">
       <defs>
        <path id="ArialMT-34" d="M 2069 0 
L 2069 1097 
L 81 1097 
L 81 1613 
L 2172 4581 
L 2631 4581 
L 2631 1613 
L 3250 1613 
L 3250 1097 
L 2631 1097 
L 2631 0 
L 2069 0 
z
M 2069 1613 
L 2069 3678 
L 634 1613 
L 2069 1613 
z
" transform="scale(0.015625)"/>
       </defs>
       <use xlink:href="#ArialMT-32"/>
       <use xlink:href="#ArialMT-34" x="55.615234"/>
      </g>
     </g>
    </g>
    <g id="xtick_6">
     <g id="line2d_6">
      <path d="M 283.588945 257.76 
L 283.588945 36 
" clip-path="url(#p530e47721d)" style="fill: none; stroke-dasharray: 1.85,0.8; stroke-dashoffset: 0; stroke: #808080; stroke-width: 0.5"/>
     </g>
     <g id="text_6">
      <!-- 30 -->
      <g style="fill: #262626" transform="translate(279.140195 272.98625) scale(0.08 -0.08)">
       <defs>
        <path id="ArialMT-33" d="M 269 1209 
L 831 1284 
Q 928 806 1161 595 
Q 1394 384 1728 384 
Q 2125 384 2398 659 
Q 2672 934 2672 1341 
Q 2672 1728 2419 1979 
Q 2166 2231 1775 2231 
Q 1616 2231 1378 2169 
L 1441 2663 
Q 1497 2656 1531 2656 
Q 1891 2656 2178 2843 
Q 2466 3031 2466 3422 
Q 2466 3731 2256 3934 
Q 2047 4138 1716 4138 
Q 1388 4138 1169 3931 
Q 950 3725 888 3313 
L 325 3413 
Q 428 3978 793 4289 
Q 1159 4600 1703 4600 
Q 2078 4600 2393 4439 
Q 2709 4278 2876 4000 
Q 3044 3722 3044 3409 
Q 3044 3113 2884 2869 
Q 2725 2625 2413 2481 
Q 2819 2388 3044 2092 
Q 3269 1797 3269 1353 
Q 3269 753 2831 336 
Q 2394 -81 1725 -81 
Q 1122 -81 723 278 
Q 325 638 269 1209 
z
" transform="scale(0.015625)"/>
       </defs>
       <use xlink:href="#ArialMT-33"/>
       <use xlink:href="#ArialMT-30" x="55.615234"/>
      </g>
     </g>
    </g>
    <g id="xtick_7">
     <g id="line2d_7">
      <path d="M 329.229228 257.76 
L 329.229228 36 
" clip-path="url(#p530e47721d)" style="fill: none; stroke-dasharray: 1.85,0.8; stroke-dashoffset: 0; stroke: #808080; stroke-width: 0.5"/>
     </g>
     <g id="text_7">
      <!-- 36 -->
      <g style="fill: #262626" transform="translate(324.780478 272.98625) scale(0.08 -0.08)">
       <use xlink:href="#ArialMT-33"/>
       <use xlink:href="#ArialMT-36" x="55.615234"/>
      </g>
     </g>
    </g>
    <g id="xtick_8">
     <g id="line2d_8">
      <path d="M 374.869511 257.76 
L 374.869511 36 
" clip-path="url(#p530e47721d)" style="fill: none; stroke-dasharray: 1.85,0.8; stroke-dashoffset: 0; stroke: #808080; stroke-width: 0.5"/>
     </g>
     <g id="text_8">
      <!-- 42 -->
      <g style="fill: #262626" transform="translate(370.420761 272.98625) scale(0.08 -0.08)">
       <use xlink:href="#ArialMT-34"/>
       <use xlink:href="#ArialMT-32" x="55.615234"/>
      </g>
     </g>
    </g>
    <g id="xtick_9">
     <g id="line2d_9">
      <path d="M 420.509794 257.76 
L 420.509794 36 
" clip-path="url(#p530e47721d)" style="fill: none; stroke-dasharray: 1.85,0.8; stroke-dashoffset: 0; stroke: #808080; stroke-width: 0.5"/>
     </g>
     <g id="text_9">
      <!-- 48 -->
      <g style="fill: #262626" transform="translate(416.061044 272.98625) scale(0.08 -0.08)">
       <use xlink:href="#ArialMT-34"/>
       <use xlink:href="#ArialMT-38" x="55.615234"/>
      </g>
     </g>
    </g>
   </g>
   <g id="matplotlib.axis_2">
    <g id="ytick_1">
     <g id="line2d_10">
      <path d="M 36.94125 257.76 
L 442.759432 257.76 
" clip-path="url(#p530e47721d)" style="fill: none; stroke-dasharray: 1.85,0.8; stroke-dashoffset: 0; stroke: #808080; stroke-width: 0.5"/>
     </g>
     <g id="text_10">
      <!-- −1.00 -->
      <g style="fill: #262626" transform="translate(7.2 260.623125) scale(0.08 -0.08)">
       <defs>
        <path id="ArialMT-2212" d="M 3381 1997 
L 356 1997 
L 356 2522 
L 3381 2522 
L 3381 1997 
z
" transform="scale(0.015625)"/>
        <path id="ArialMT-2e" d="M 581 0 
L 581 641 
L 1222 641 
L 1222 0 
L 581 0 
z
" transform="scale(0.015625)"/>
       </defs>
       <use xlink:href="#ArialMT-2212"/>
       <use xlink:href="#ArialMT-31" x="58.398438"/>
       <use xlink:href="#ArialMT-2e" x="114.013672"/>
       <use xlink:href="#ArialMT-30" x="141.796875"/>
       <use xlink:href="#ArialMT-30" x="197.412109"/>
      </g>
     </g>
    </g>
    <g id="ytick_2">
     <g id="line2d_11">
      <path d="M 36.94125 230.04 
L 442.759432 230.04 
" clip-path="url(#p530e47721d)" style="fill: none; stroke-dasharray: 1.85,0.8; stroke-dashoffset: 0; stroke: #808080; stroke-width: 0.5"/>
     </g>
     <g id="text_11">
      <!-- −0.75 -->
      <g style="fill: #262626" transform="translate(7.2 232.903125) scale(0.08 -0.08)">
       <defs>
        <path id="ArialMT-37" d="M 303 3981 
L 303 4522 
L 3269 4522 
L 3269 4084 
Q 2831 3619 2401 2847 
Q 1972 2075 1738 1259 
Q 1569 684 1522 0 
L 944 0 
Q 953 541 1156 1306 
Q 1359 2072 1739 2783 
Q 2119 3494 2547 3981 
L 303 3981 
z
" transform="scale(0.015625)"/>
        <path id="ArialMT-35" d="M 266 1200 
L 856 1250 
Q 922 819 1161 601 
Q 1400 384 1738 384 
Q 2144 384 2425 690 
Q 2706 997 2706 1503 
Q 2706 1984 2436 2262 
Q 2166 2541 1728 2541 
Q 1456 2541 1237 2417 
Q 1019 2294 894 2097 
L 366 2166 
L 809 4519 
L 3088 4519 
L 3088 3981 
L 1259 3981 
L 1013 2750 
Q 1425 3038 1878 3038 
Q 2478 3038 2890 2622 
Q 3303 2206 3303 1553 
Q 3303 931 2941 478 
Q 2500 -78 1738 -78 
Q 1113 -78 717 272 
Q 322 622 266 1200 
z
" transform="scale(0.015625)"/>
       </defs>
       <use xlink:href="#ArialMT-2212"/>
       <use xlink:href="#ArialMT-30" x="58.398438"/>
       <use xlink:href="#ArialMT-2e" x="114.013672"/>
       <use xlink:href="#ArialMT-37" x="141.796875"/>
       <use xlink:href="#ArialMT-35" x="197.412109"/>
      </g>
     </g>
    </g>
    <g id="ytick_3">
     <g id="line2d_12">
      <path d="M 36.94125 202.32 
L 442.759432 202.32 
" clip-path="url(#p530e47721d)" style="fill: none; stroke-dasharray: 1.85,0.8; stroke-dashoffset: 0; stroke: #808080; stroke-width: 0.5"/>
     </g>
     <g id="text_12">
      <!-- −0.50 -->
      <g style="fill: #262626" transform="translate(7.2 205.183125) scale(0.08 -0.08)">
       <use xlink:href="#ArialMT-2212"/>
       <use xlink:href="#ArialMT-30" x="58.398438"/>
       <use xlink:href="#ArialMT-2e" x="114.013672"/>
       <use xlink:href="#ArialMT-35" x="141.796875"/>
       <use xlink:href="#ArialMT-30" x="197.412109"/>
      </g>
     </g>
    </g>
    <g id="ytick_4">
     <g id="line2d_13">
      <path d="M 36.94125 174.6 
L 442.759432 174.6 
" clip-path="url(#p530e47721d)" style="fill: none; stroke-dasharray: 1.85,0.8; stroke-dashoffset: 0; stroke: #808080; stroke-width: 0.5"/>
     </g>
     <g id="text_13">
      <!-- −0.25 -->
      <g style="fill: #262626" transform="translate(7.2 177.463125) scale(0.08 -0.08)">
       <use xlink:href="#ArialMT-2212"/>
       <use xlink:href="#ArialMT-30" x="58.398438"/>
       <use xlink:href="#ArialMT-2e" x="114.013672"/>
       <use xlink:href="#ArialMT-32" x="141.796875"/>
       <use xlink:href="#ArialMT-35" x="197.412109"/>
      </g>
     </g>
    </g>
    <g id="ytick_5">
     <g id="line2d_14">
      <path d="M 36.94125 146.88 
L 442.759432 146.88 
" clip-path="url(#p530e47721d)" style="fill: none; stroke-dasharray: 1.85,0.8; stroke-dashoffset: 0; stroke: #808080; stroke-width: 0.5"/>
     </g>
     <g id="text_14">
      <!-- 0.00 -->
      <g style="fill: #262626" transform="translate(11.8725 149.743125) scale(0.08 -0.08)">
       <use xlink:href="#ArialMT-30"/>
       <use xlink:href="#ArialMT-2e" x="55.615234"/>
       <use xlink:href="#ArialMT-30" x="83.398438"/>
       <use xlink:href="#ArialMT-30" x="139.013672"/>
      </g>
     </g>
    </g>
    <g id="ytick_6">
     <g id="line2d_15">
      <path d="M 36.94125 119.16 
L 442.759432 119.16 
" clip-path="url(#p530e47721d)" style="fill: none; stroke-dasharray: 1.85,0.8; stroke-dashoffset: 0; stroke: #808080; stroke-width: 0.5"/>
     </g>
     <g id="text_15">
      <!-- 0.25 -->
      <g style="fill: #262626" transform="translate(11.8725 122.023125) scale(0.08 -0.08)">
       <use xlink:href="#ArialMT-30"/>
       <use xlink:href="#ArialMT-2e" x="55.615234"/>
       <use xlink:href="#ArialMT-32" x="83.398438"/>
       <use xlink:href="#ArialMT-35" x="139.013672"/>
      </g>
     </g>
    </g>
    <g id="ytick_7">
     <g id="line2d_16">
      <path d="M 36.94125 91.44 
L 442.759432 91.44 
" clip-path="url(#p530e47721d)" style="fill: none; stroke-dasharray: 1.85,0.8; stroke-dashoffset: 0; stroke: #808080; stroke-width: 0.5"/>
     </g>
     <g id="text_16">
      <!-- 0.50 -->
      <g style="fill: #262626" transform="translate(11.8725 94.303125) scale(0.08 -0.08)">
       <use xlink:href="#ArialMT-30"/>
       <use xlink:href="#ArialMT-2e" x="55.615234"/>
       <use xlink:href="#ArialMT-35" x="83.398438"/>
       <use xlink:href="#ArialMT-30" x="139.013672"/>
      </g>
     </g>
    </g>
    <g id="ytick_8">
     <g id="line2d_17">
      <path d="M 36.94125 63.72 
L 442.759432 63.72 
" clip-path="url(#p530e47721d)" style="fill: none; stroke-dasharray: 1.85,0.8; stroke-dashoffset: 0; stroke: #808080; stroke-width: 0.5"/>
     </g>
     <g id="text_17">
      <!-- 0.75 -->
      <g style="fill: #262626" transform="translate(11.8725 66.583125) scale(0.08 -0.08)">
       <use xlink:href="#ArialMT-30"/>
       <use xlink:href="#ArialMT-2e" x="55.615234"/>
       <use xlink:href="#ArialMT-37" x="83.398438"/>
       <use xlink:href="#ArialMT-35" x="139.013672"/>
      </g>
     </g>
    </g>
    <g id="ytick_9">
     <g id="line2d_18">
      <path d="M 36.94125 36 
L 442.759432 36 
" clip-path="url(#p530e47721d)" style="fill: none; stroke-dasharray: 1.85,0.8; stroke-dashoffset: 0; stroke: #808080; stroke-width: 0.5"/>
     </g>
     <g id="text_18">
      <!-- 1.00 -->
      <g style="fill: #262626" transform="translate(11.8725 38.863125) scale(0.08 -0.08)">
       <use xlink:href="#ArialMT-31"/>
       <use xlink:href="#ArialMT-2e" x="55.615234"/>
       <use xlink:href="#ArialMT-30" x="83.398438"/>
       <use xlink:href="#ArialMT-30" x="139.013672"/>
      </g>
     </g>
    </g>
   </g>
   <g id="PolyCollection_1">
    <defs>
     <path id="me655f8d18b" d="M 59.190888 -143.355451 
L 59.190888 -126.437049 
L 70.600959 -124.45631 
L 78.207672 -124.075393 
L 85.814386 -124.074905 
L 93.4211 -123.451771 
L 101.027814 -121.818583 
L 108.634528 -120.110897 
L 116.241241 -119.144771 
L 123.847955 -118.876138 
L 131.454669 -118.860213 
L 139.061383 -118.473893 
L 146.668097 -117.317856 
L 154.274811 -115.829407 
L 161.881524 -115.165004 
L 169.488238 -115.044384 
L 177.094952 -115.03131 
L 184.701666 -114.667976 
L 192.30838 -113.753024 
L 199.915093 -112.830241 
L 207.521807 -112.268782 
L 215.128521 -112.145169 
L 222.735235 -112.128224 
L 230.341949 -111.845842 
L 237.948662 -111.073853 
L 245.555376 -110.141135 
L 253.16209 -109.684047 
L 260.768804 -109.626017 
L 268.375518 -109.598412 
L 275.982232 -109.263636 
L 283.588945 -108.613918 
L 291.195659 -107.932904 
L 298.802373 -107.537069 
L 306.409087 -107.458197 
L 314.015801 -107.423798 
L 321.622514 -107.176906 
L 329.229228 -106.547468 
L 336.835942 -105.78551 
L 344.442656 -105.46441 
L 352.04937 -105.437373 
L 359.656083 -105.403448 
L 367.262797 -105.115279 
L 374.869511 -104.594764 
L 382.476225 -104.082712 
L 390.082939 -103.81159 
L 397.689652 -103.786658 
L 405.296366 -103.744426 
L 412.90308 -103.477702 
L 424.313151 -102.938602 
L 424.313151 -166.853898 
L 424.313151 -166.853898 
L 412.90308 -166.314798 
L 405.296366 -166.048074 
L 397.689652 -166.005842 
L 390.082939 -165.98091 
L 382.476225 -165.709788 
L 374.869511 -165.197736 
L 367.262797 -164.677221 
L 359.656083 -164.389052 
L 352.04937 -164.355127 
L 344.442656 -164.32809 
L 336.835942 -164.00699 
L 329.229228 -163.245032 
L 321.622514 -162.615594 
L 314.015801 -162.368702 
L 306.409087 -162.334303 
L 298.802373 -162.255431 
L 291.195659 -161.859596 
L 283.588945 -161.178582 
L 275.982232 -160.528864 
L 268.375518 -160.194088 
L 260.768804 -160.166483 
L 253.16209 -160.108453 
L 245.555376 -159.651365 
L 237.948662 -158.718647 
L 230.341949 -157.946658 
L 222.735235 -157.664276 
L 215.128521 -157.647331 
L 207.521807 -157.523718 
L 199.915093 -156.962259 
L 192.30838 -156.039476 
L 184.701666 -155.124524 
L 177.094952 -154.76119 
L 169.488238 -154.748116 
L 161.881524 -154.627496 
L 154.274811 -153.963093 
L 146.668097 -152.474644 
L 139.061383 -151.318607 
L 131.454669 -150.932287 
L 123.847955 -150.916362 
L 116.241241 -150.647729 
L 108.634528 -149.681603 
L 101.027814 -147.973917 
L 93.4211 -146.340729 
L 85.814386 -145.717595 
L 78.207672 -145.717107 
L 70.600959 -145.33619 
L 59.190888 -143.355451 
z
" style="stroke: #ffffff; stroke-opacity: 0.25"/>
    </defs>
    <g clip-path="url(#p530e47721d)">
     <use xlink:href="#me655f8d18b" x="0" y="281.77625" style="fill: #194a7a; fill-opacity: 0.25; stroke: #ffffff; stroke-opacity: 0.25"/>
    </g>
   </g>
   <g id="LineCollection_1">
    <path d="M 55.387531 146.88 
L 55.387531 36 
" clip-path="url(#p530e47721d)" style="fill: none; stroke: #194a7a; stroke-width: 1.2"/>
    <path d="M 62.994245 146.88 
L 62.994245 90.17211 
" clip-path="url(#p530e47721d)" style="fill: none; stroke: #194a7a; stroke-width: 1.2"/>
    <path d="M 70.600959 146.88 
L 70.600959 120.503698 
" clip-path="url(#p530e47721d)" style="fill: none; stroke: #194a7a; stroke-width: 1.2"/>
    <path d="M 78.207672 146.88 
L 78.207672 145.927588 
" clip-path="url(#p530e47721d)" style="fill: none; stroke: #194a7a; stroke-width: 1.2"/>
    <path d="M 85.814386 146.88 
L 85.814386 181.403837 
" clip-path="url(#p530e47721d)" style="fill: none; stroke: #194a7a; stroke-width: 1.2"/>
    <path d="M 93.4211 146.88 
L 93.4211 205.535161 
" clip-path="url(#p530e47721d)" style="fill: none; stroke: #194a7a; stroke-width: 1.2"/>
    <path d="M 101.027814 146.88 
L 101.027814 210.813281 
" clip-path="url(#p530e47721d)" style="fill: none; stroke: #194a7a; stroke-width: 1.2"/>
    <path d="M 108.634528 146.88 
L 108.634528 197.222831 
" clip-path="url(#p530e47721d)" style="fill: none; stroke: #194a7a; stroke-width: 1.2"/>
    <path d="M 116.241241 146.88 
L 116.241241 173.957508 
" clip-path="url(#p530e47721d)" style="fill: none; stroke: #194a7a; stroke-width: 1.2"/>
    <path d="M 123.847955 146.88 
L 123.847955 140.257785 
" clip-path="url(#p530e47721d)" style="fill: none; stroke: #194a7a; stroke-width: 1.2"/>
    <path d="M 131.454669 146.88 
L 131.454669 114.059467 
" clip-path="url(#p530e47721d)" style="fill: none; stroke: #194a7a; stroke-width: 1.2"/>
    <path d="M 139.061383 146.88 
L 139.061383 88.77158 
" clip-path="url(#p530e47721d)" style="fill: none; stroke: #194a7a; stroke-width: 1.2"/>
    <path d="M 146.668097 146.88 
L 146.668097 78.428237 
" clip-path="url(#p530e47721d)" style="fill: none; stroke: #194a7a; stroke-width: 1.2"/>
    <path d="M 154.274811 146.88 
L 154.274811 99.82239 
" clip-path="url(#p530e47721d)" style="fill: none; stroke: #194a7a; stroke-width: 1.2"/>
    <path d="M 161.881524 146.88 
L 161.881524 126.627767 
" clip-path="url(#p530e47721d)" style="fill: none; stroke: #194a7a; stroke-width: 1.2"/>
    <path d="M 169.488238 146.88 
L 169.488238 153.558978 
" clip-path="url(#p530e47721d)" style="fill: none; stroke: #194a7a; stroke-width: 1.2"/>
    <path d="M 177.094952 146.88 
L 177.094952 182.255067 
" clip-path="url(#p530e47721d)" style="fill: none; stroke: #194a7a; stroke-width: 1.2"/>
    <path d="M 184.701666 146.88 
L 184.701666 203.904122 
" clip-path="url(#p530e47721d)" style="fill: none; stroke: #194a7a; stroke-width: 1.2"/>
    <path d="M 192.30838 146.88 
L 192.30838 205.405745 
" clip-path="url(#p530e47721d)" style="fill: none; stroke: #194a7a; stroke-width: 1.2"/>
    <path d="M 199.915093 146.88 
L 199.915093 193.309052 
" clip-path="url(#p530e47721d)" style="fill: none; stroke: #194a7a; stroke-width: 1.2"/>
    <path d="M 207.521807 146.88 
L 207.521807 168.831617 
" clip-path="url(#p530e47721d)" style="fill: none; stroke: #194a7a; stroke-width: 1.2"/>
    <path d="M 215.128521 146.88 
L 215.128521 138.739873 
" clip-path="url(#p530e47721d)" style="fill: none; stroke: #194a7a; stroke-width: 1.2"/>
    <path d="M 222.735235 146.88 
L 222.735235 113.541373 
" clip-path="url(#p530e47721d)" style="fill: none; stroke: #194a7a; stroke-width: 1.2"/>
    <path d="M 230.341949 146.88 
L 230.341949 91.126163 
" clip-path="url(#p530e47721d)" style="fill: none; stroke: #194a7a; stroke-width: 1.2"/>
    <path d="M 237.948662 146.88 
L 237.948662 84.491906 
" clip-path="url(#p530e47721d)" style="fill: none; stroke: #194a7a; stroke-width: 1.2"/>
    <path d="M 245.555376 146.88 
L 245.555376 102.585277 
" clip-path="url(#p530e47721d)" style="fill: none; stroke: #194a7a; stroke-width: 1.2"/>
    <path d="M 253.16209 146.88 
L 253.16209 131.016346 
" clip-path="url(#p530e47721d)" style="fill: none; stroke: #194a7a; stroke-width: 1.2"/>
    <path d="M 260.768804 146.88 
L 260.768804 157.830674 
" clip-path="url(#p530e47721d)" style="fill: none; stroke: #194a7a; stroke-width: 1.2"/>
    <path d="M 268.375518 146.88 
L 268.375518 185.151442 
" clip-path="url(#p530e47721d)" style="fill: none; stroke: #194a7a; stroke-width: 1.2"/>
    <path d="M 275.982232 146.88 
L 275.982232 200.709165 
" clip-path="url(#p530e47721d)" style="fill: none; stroke: #194a7a; stroke-width: 1.2"/>
    <path d="M 283.588945 146.88 
L 283.588945 202.692181 
" clip-path="url(#p530e47721d)" style="fill: none; stroke: #194a7a; stroke-width: 1.2"/>
    <path d="M 291.195659 146.88 
L 291.195659 189.858956 
" clip-path="url(#p530e47721d)" style="fill: none; stroke: #194a7a; stroke-width: 1.2"/>
    <path d="M 298.802373 146.88 
L 298.802373 166.148577 
" clip-path="url(#p530e47721d)" style="fill: none; stroke: #194a7a; stroke-width: 1.2"/>
    <path d="M 306.409087 146.88 
L 306.409087 134.141706 
" clip-path="url(#p530e47721d)" style="fill: none; stroke: #194a7a; stroke-width: 1.2"/>
    <path d="M 314.015801 146.88 
L 314.015801 112.666362 
" clip-path="url(#p530e47721d)" style="fill: none; stroke: #194a7a; stroke-width: 1.2"/>
    <path d="M 321.622514 146.88 
L 321.622514 91.819068 
" clip-path="url(#p530e47721d)" style="fill: none; stroke: #194a7a; stroke-width: 1.2"/>
    <path d="M 329.229228 146.88 
L 329.229228 85.55249 
" clip-path="url(#p530e47721d)" style="fill: none; stroke: #194a7a; stroke-width: 1.2"/>
    <path d="M 336.835942 146.88 
L 336.835942 106.694908 
" clip-path="url(#p530e47721d)" style="fill: none; stroke: #194a7a; stroke-width: 1.2"/>
    <path d="M 344.442656 146.88 
L 344.442656 135.18458 
" clip-path="url(#p530e47721d)" style="fill: none; stroke: #194a7a; stroke-width: 1.2"/>
    <path d="M 352.04937 146.88 
L 352.04937 159.987413 
" clip-path="url(#p530e47721d)" style="fill: none; stroke: #194a7a; stroke-width: 1.2"/>
    <path d="M 359.656083 146.88 
L 359.656083 185.185688 
" clip-path="url(#p530e47721d)" style="fill: none; stroke: #194a7a; stroke-width: 1.2"/>
    <path d="M 367.262797 146.88 
L 367.262797 198.712169 
" clip-path="url(#p530e47721d)" style="fill: none; stroke: #194a7a; stroke-width: 1.2"/>
    <path d="M 374.869511 146.88 
L 374.869511 198.728973 
" clip-path="url(#p530e47721d)" style="fill: none; stroke: #194a7a; stroke-width: 1.2"/>
    <path d="M 382.476225 146.88 
L 382.476225 184.849103 
" clip-path="url(#p530e47721d)" style="fill: none; stroke: #194a7a; stroke-width: 1.2"/>
    <path d="M 390.082939 146.88 
L 390.082939 158.421318 
" clip-path="url(#p530e47721d)" style="fill: none; stroke: #194a7a; stroke-width: 1.2"/>
    <path d="M 397.689652 146.88 
L 397.689652 131.850618 
" clip-path="url(#p530e47721d)" style="fill: none; stroke: #194a7a; stroke-width: 1.2"/>
    <path d="M 405.296366 146.88 
L 405.296366 109.016218 
" clip-path="url(#p530e47721d)" style="fill: none; stroke: #194a7a; stroke-width: 1.2"/>
    <path d="M 412.90308 146.88 
L 412.90308 92.704013 
" clip-path="url(#p530e47721d)" style="fill: none; stroke: #194a7a; stroke-width: 1.2"/>
    <path d="M 420.509794 146.88 
L 420.509794 91.430238 
" clip-path="url(#p530e47721d)" style="fill: none; stroke: #194a7a; stroke-width: 1.2"/>
   </g>
   <g id="line2d_19">
    <path d="M 36.94125 146.88 
L 442.759432 146.88 
" clip-path="url(#p530e47721d)" style="fill: none; stroke: #194a7a; stroke-width: 1.2; stroke-linecap: round"/>
   </g>
   <g id="line2d_20">
    <defs>
     <path id="m75228c074d" d="M 0 2.5 
C 0.663008 2.5 1.29895 2.236584 1.767767 1.767767 
C 2.236584 1.29895 2.5 0.663008 2.5 0 
C 2.5 -0.663008 2.236584 -1.29895 1.767767 -1.767767 
C 1.29895 -2.236584 0.663008 -2.5 0 -2.5 
C -0.663008 -2.5 -1.29895 -2.236584 -1.767767 -1.767767 
C -2.236584 -1.29895 -2.5 -0.663008 -2.5 0 
C -2.5 0.663008 -2.236584 1.29895 -1.767767 1.767767 
C -1.29895 2.236584 -0.663008 2.5 0 2.5 
z
" style="stroke: #194a7a"/>
    </defs>
    <g clip-path="url(#p530e47721d)">
     <use xlink:href="#m75228c074d" x="55.387531" y="36" style="fill: #194a7a; stroke: #194a7a"/>
     <use xlink:href="#m75228c074d" x="62.994245" y="90.17211" style="fill: #194a7a; stroke: #194a7a"/>
     <use xlink:href="#m75228c074d" x="70.600959" y="120.503698" style="fill: #194a7a; stroke: #194a7a"/>
     <use xlink:href="#m75228c074d" x="78.207672" y="145.927588" style="fill: #194a7a; stroke: #194a7a"/>
     <use xlink:href="#m75228c074d" x="85.814386" y="181.403837" style="fill: #194a7a; stroke: #194a7a"/>
     <use xlink:href="#m75228c074d" x="93.4211" y="205.535161" style="fill: #194a7a; stroke: #194a7a"/>
     <use xlink:href="#m75228c074d" x="101.027814" y="210.813281" style="fill: #194a7a; stroke: #194a7a"/>
     <use xlink:href="#m75228c074d" x="108.634528" y="197.222831" style="fill: #194a7a; stroke: #194a7a"/>
     <use xlink:href="#m75228c074d" x="116.241241" y="173.957508" style="fill: #194a7a; stroke: #194a7a"/>
     <use xlink:href="#m75228c074d" x="123.847955" y="140.257785" style="fill: #194a7a; stroke: #194a7a"/>
     <use xlink:href="#m75228c074d" x="131.454669" y="114.059467" style="fill: #194a7a; stroke: #194a7a"/>
     <use xlink:href="#m75228c074d" x="139.061383" y="88.77158" style="fill: #194a7a; stroke: #194a7a"/>
     <use xlink:href="#m75228c074d" x="146.668097" y="78.428237" style="fill: #194a7a; stroke: #194a7a"/>
     <use xlink:href="#m75228c074d" x="154.274811" y="99.82239" style="fill: #194a7a; stroke: #194a7a"/>
     <use xlink:href="#m75228c074d" x="161.881524" y="126.627767" style="fill: #194a7a; stroke: #194a7a"/>
     <use xlink:href="#m75228c074d" x="169.488238" y="153.558978" style="fill: #194a7a; stroke: #194a7a"/>
     <use xlink:href="#m75228c074d" x="177.094952" y="182.255067" style="fill: #194a7a; stroke: #194a7a"/>
     <use xlink:href="#m75228c074d" x="184.701666" y="203.904122" style="fill: #194a7a; stroke: #194a7a"/>
     <use xlink:href="#m75228c074d" x="192.30838" y="205.405745" style="fill: #194a7a; stroke: #194a7a"/>
     <use xlink:href="#m75228c074d" x="199.915093" y="193.309052" style="fill: #194a7a; stroke: #194a7a"/>
     <use xlink:href="#m75228c074d" x="207.521807" y="168.831617" style="fill: #194a7a; stroke: #194a7a"/>
     <use xlink:href="#m75228c074d" x="215.128521" y="138.739873" style="fill: #194a7a; stroke: #194a7a"/>
     <use xlink:href="#m75228c074d" x="222.735235" y="113.541373" style="fill: #194a7a; stroke: #194a7a"/>
     <use xlink:href="#m75228c074d" x="230.341949" y="91.126163" style="fill: #194a7a; stroke: #194a7a"/>
     <use xlink:href="#m75228c074d" x="237.948662" y="84.491906" style="fill: #194a7a; stroke: #194a7a"/>
     <use xlink:href="#m75228c074d" x="245.555376" y="102.585277" style="fill: #194a7a; stroke: #194a7a"/>
     <use xlink:href="#m75228c074d" x="253.16209" y="131.016346" style="fill: #194a7a; stroke: #194a7a"/>
     <use xlink:href="#m75228c074d" x="260.768804" y="157.830674" style="fill: #194a7a; stroke: #194a7a"/>
     <use xlink:href="#m75228c074d" x="268.375518" y="185.151442" style="fill: #194a7a; stroke: #194a7a"/>
     <use xlink:href="#m75228c074d" x="275.982232" y="200.709165" style="fill: #194a7a; stroke: #194a7a"/>
     <use xlink:href="#m75228c074d" x="283.588945" y="202.692181" style="fill: #194a7a; stroke: #194a7a"/>
     <use xlink:href="#m75228c074d" x="291.195659" y="189.858956" style="fill: #194a7a; stroke: #194a7a"/>
     <use xlink:href="#m75228c074d" x="298.802373" y="166.148577" style="fill: #194a7a; stroke: #194a7a"/>
     <use xlink:href="#m75228c074d" x="306.409087" y="134.141706" style="fill: #194a7a; stroke: #194a7a"/>
     <use xlink:href="#m75228c074d" x="314.015801" y="112.666362" style="fill: #194a7a; stroke: #194a7a"/>
     <use xlink:href="#m75228c074d" x="321.622514" y="91.819068" style="fill: #194a7a; stroke: #194a7a"/>
     <use xlink:href="#m75228c074d" x="329.229228" y="85.55249" style="fill: #194a7a; stroke: #194a7a"/>
     <use xlink:href="#m75228c074d" x="336.835942" y="106.694908" style="fill: #194a7a; stroke: #194a7a"/>
     <use xlink:href="#m75228c074d" x="344.442656" y="135.18458" style="fill: #194a7a; stroke: #194a7a"/>
     <use xlink:href="#m75228c074d" x="352.04937" y="159.987413" style="fill: #194a7a; stroke: #194a7a"/>
     <use xlink:href="#m75228c074d" x="359.656083" y="185.185688" style="fill: #194a7a; stroke: #194a7a"/>
     <use xlink:href="#m75228c074d" x="367.262797" y="198.712169" style="fill: #194a7a; stroke: #194a7a"/>
     <use xlink:href="#m75228c074d" x="374.869511" y="198.728973" style="fill: #194a7a; stroke: #194a7a"/>
     <use xlink:href="#m75228c074d" x="382.476225" y="184.849103" style="fill: #194a7a; stroke: #194a7a"/>
     <use xlink:href="#m75228c074d" x="390.082939" y="158.421318" style="fill: #194a7a; stroke: #194a7a"/>
     <use xlink:href="#m75228c074d" x="397.689652" y="131.850618" style="fill: #194a7a; stroke: #194a7a"/>
     <use xlink:href="#m75228c074d" x="405.296366" y="109.016218" style="fill: #194a7a; stroke: #194a7a"/>
     <use xlink:href="#m75228c074d" x="412.90308" y="92.704013" style="fill: #194a7a; stroke: #194a7a"/>
     <use xlink:href="#m75228c074d" x="420.509794" y="91.430238" style="fill: #194a7a; stroke: #194a7a"/>
    </g>
   </g>
   <g id="patch_3">
    <path d="M 36.94125 257.76 
L 36.94125 36 
" style="fill: none; stroke: #cccccc; stroke-width: 1.25; stroke-linejoin: miter; stroke-linecap: square"/>
   </g>
   <g id="patch_4">
    <path d="M 442.759432 257.76 
L 442.759432 36 
" style="fill: none; stroke: #cccccc; stroke-width: 1.25; stroke-linejoin: miter; stroke-linecap: square"/>
   </g>
   <g id="patch_5">
    <path d="M 36.94125 257.76 
L 442.759432 257.76 
" style="fill: none; stroke: #cccccc; stroke-width: 1.25; stroke-linejoin: miter; stroke-linecap: square"/>
   </g>
   <g id="patch_6">
    <path d="M 36.94125 36 
L 442.759432 36 
" style="fill: none; stroke: #cccccc; stroke-width: 1.25; stroke-linejoin: miter; stroke-linecap: square"/>
   </g>
   <g id="text_19">
    <!-- Autocorrelaciones Simples -->
    <g style="fill: #262626" transform="translate(149.603935 30) scale(0.14 -0.14)">
     <defs>
      <path id="Arial-BoldMT-41" d="M 4597 0 
L 3591 0 
L 3191 1041 
L 1359 1041 
L 981 0 
L 0 0 
L 1784 4581 
L 2763 4581 
L 4597 0 
z
M 2894 1813 
L 2263 3513 
L 1644 1813 
L 2894 1813 
z
" transform="scale(0.015625)"/>
      <path id="Arial-BoldMT-75" d="M 2644 0 
L 2644 497 
Q 2463 231 2167 78 
Q 1872 -75 1544 -75 
Q 1209 -75 943 72 
Q 678 219 559 484 
Q 441 750 441 1219 
L 441 3319 
L 1319 3319 
L 1319 1794 
Q 1319 1094 1367 936 
Q 1416 778 1544 686 
Q 1672 594 1869 594 
Q 2094 594 2272 717 
Q 2450 841 2515 1023 
Q 2581 1206 2581 1919 
L 2581 3319 
L 3459 3319 
L 3459 0 
L 2644 0 
z
" transform="scale(0.015625)"/>
      <path id="Arial-BoldMT-74" d="M 1981 3319 
L 1981 2619 
L 1381 2619 
L 1381 1281 
Q 1381 875 1398 808 
Q 1416 741 1477 697 
Q 1538 653 1625 653 
Q 1747 653 1978 738 
L 2053 56 
Q 1747 -75 1359 -75 
Q 1122 -75 931 4 
Q 741 84 652 211 
Q 563 338 528 553 
Q 500 706 500 1172 
L 500 2619 
L 97 2619 
L 97 3319 
L 500 3319 
L 500 3978 
L 1381 4491 
L 1381 3319 
L 1981 3319 
z
" transform="scale(0.015625)"/>
      <path id="Arial-BoldMT-6f" d="M 256 1706 
Q 256 2144 472 2553 
Q 688 2963 1083 3178 
Q 1478 3394 1966 3394 
Q 2719 3394 3200 2905 
Q 3681 2416 3681 1669 
Q 3681 916 3195 420 
Q 2709 -75 1972 -75 
Q 1516 -75 1102 131 
Q 688 338 472 736 
Q 256 1134 256 1706 
z
M 1156 1659 
Q 1156 1166 1390 903 
Q 1625 641 1969 641 
Q 2313 641 2545 903 
Q 2778 1166 2778 1666 
Q 2778 2153 2545 2415 
Q 2313 2678 1969 2678 
Q 1625 2678 1390 2415 
Q 1156 2153 1156 1659 
z
" transform="scale(0.015625)"/>
      <path id="Arial-BoldMT-63" d="M 3353 2338 
L 2488 2181 
Q 2444 2441 2289 2572 
Q 2134 2703 1888 2703 
Q 1559 2703 1364 2476 
Q 1169 2250 1169 1719 
Q 1169 1128 1367 884 
Q 1566 641 1900 641 
Q 2150 641 2309 783 
Q 2469 925 2534 1272 
L 3397 1125 
Q 3263 531 2881 228 
Q 2500 -75 1859 -75 
Q 1131 -75 698 384 
Q 266 844 266 1656 
Q 266 2478 700 2936 
Q 1134 3394 1875 3394 
Q 2481 3394 2839 3133 
Q 3197 2872 3353 2338 
z
" transform="scale(0.015625)"/>
      <path id="Arial-BoldMT-72" d="M 1300 0 
L 422 0 
L 422 3319 
L 1238 3319 
L 1238 2847 
Q 1447 3181 1614 3287 
Q 1781 3394 1994 3394 
Q 2294 3394 2572 3228 
L 2300 2463 
Q 2078 2606 1888 2606 
Q 1703 2606 1575 2504 
Q 1447 2403 1373 2137 
Q 1300 1872 1300 1025 
L 1300 0 
z
" transform="scale(0.015625)"/>
      <path id="Arial-BoldMT-65" d="M 2381 1056 
L 3256 909 
Q 3088 428 2723 176 
Q 2359 -75 1813 -75 
Q 947 -75 531 491 
Q 203 944 203 1634 
Q 203 2459 634 2926 
Q 1066 3394 1725 3394 
Q 2466 3394 2894 2905 
Q 3322 2416 3303 1406 
L 1103 1406 
Q 1113 1016 1316 798 
Q 1519 581 1822 581 
Q 2028 581 2168 693 
Q 2309 806 2381 1056 
z
M 2431 1944 
Q 2422 2325 2234 2523 
Q 2047 2722 1778 2722 
Q 1491 2722 1303 2513 
Q 1116 2303 1119 1944 
L 2431 1944 
z
" transform="scale(0.015625)"/>
      <path id="Arial-BoldMT-6c" d="M 459 0 
L 459 4581 
L 1338 4581 
L 1338 0 
L 459 0 
z
" transform="scale(0.015625)"/>
      <path id="Arial-BoldMT-61" d="M 1116 2306 
L 319 2450 
Q 453 2931 781 3162 
Q 1109 3394 1756 3394 
Q 2344 3394 2631 3255 
Q 2919 3116 3036 2902 
Q 3153 2688 3153 2116 
L 3144 1091 
Q 3144 653 3186 445 
Q 3228 238 3344 0 
L 2475 0 
Q 2441 88 2391 259 
Q 2369 338 2359 363 
Q 2134 144 1878 34 
Q 1622 -75 1331 -75 
Q 819 -75 523 203 
Q 228 481 228 906 
Q 228 1188 362 1408 
Q 497 1628 739 1745 
Q 981 1863 1438 1950 
Q 2053 2066 2291 2166 
L 2291 2253 
Q 2291 2506 2166 2614 
Q 2041 2722 1694 2722 
Q 1459 2722 1328 2630 
Q 1197 2538 1116 2306 
z
M 2291 1594 
Q 2122 1538 1756 1459 
Q 1391 1381 1278 1306 
Q 1106 1184 1106 997 
Q 1106 813 1243 678 
Q 1381 544 1594 544 
Q 1831 544 2047 700 
Q 2206 819 2256 991 
Q 2291 1103 2291 1419 
L 2291 1594 
z
" transform="scale(0.015625)"/>
      <path id="Arial-BoldMT-69" d="M 459 3769 
L 459 4581 
L 1338 4581 
L 1338 3769 
L 459 3769 
z
M 459 0 
L 459 3319 
L 1338 3319 
L 1338 0 
L 459 0 
z
" transform="scale(0.015625)"/>
      <path id="Arial-BoldMT-6e" d="M 3478 0 
L 2600 0 
L 2600 1694 
Q 2600 2231 2544 2389 
Q 2488 2547 2361 2634 
Q 2234 2722 2056 2722 
Q 1828 2722 1647 2597 
Q 1466 2472 1398 2265 
Q 1331 2059 1331 1503 
L 1331 0 
L 453 0 
L 453 3319 
L 1269 3319 
L 1269 2831 
Q 1703 3394 2363 3394 
Q 2653 3394 2893 3289 
Q 3134 3184 3257 3021 
Q 3381 2859 3429 2653 
Q 3478 2447 3478 2063 
L 3478 0 
z
" transform="scale(0.015625)"/>
      <path id="Arial-BoldMT-73" d="M 150 947 
L 1031 1081 
Q 1088 825 1259 692 
Q 1431 559 1741 559 
Q 2081 559 2253 684 
Q 2369 772 2369 919 
Q 2369 1019 2306 1084 
Q 2241 1147 2013 1200 
Q 950 1434 666 1628 
Q 272 1897 272 2375 
Q 272 2806 612 3100 
Q 953 3394 1669 3394 
Q 2350 3394 2681 3172 
Q 3013 2950 3138 2516 
L 2309 2363 
Q 2256 2556 2107 2659 
Q 1959 2763 1684 2763 
Q 1338 2763 1188 2666 
Q 1088 2597 1088 2488 
Q 1088 2394 1175 2328 
Q 1294 2241 1995 2081 
Q 2697 1922 2975 1691 
Q 3250 1456 3250 1038 
Q 3250 581 2869 253 
Q 2488 -75 1741 -75 
Q 1063 -75 667 200 
Q 272 475 150 947 
z
" transform="scale(0.015625)"/>
      <path id="Arial-BoldMT-20" transform="scale(0.015625)"/>
      <path id="Arial-BoldMT-53" d="M 231 1491 
L 1131 1578 
Q 1213 1125 1461 912 
Q 1709 700 2131 700 
Q 2578 700 2804 889 
Q 3031 1078 3031 1331 
Q 3031 1494 2936 1608 
Q 2841 1722 2603 1806 
Q 2441 1863 1863 2006 
Q 1119 2191 819 2459 
Q 397 2838 397 3381 
Q 397 3731 595 4036 
Q 794 4341 1167 4500 
Q 1541 4659 2069 4659 
Q 2931 4659 3367 4281 
Q 3803 3903 3825 3272 
L 2900 3231 
Q 2841 3584 2645 3739 
Q 2450 3894 2059 3894 
Q 1656 3894 1428 3728 
Q 1281 3622 1281 3444 
Q 1281 3281 1419 3166 
Q 1594 3019 2269 2859 
Q 2944 2700 3267 2529 
Q 3591 2359 3773 2064 
Q 3956 1769 3956 1334 
Q 3956 941 3737 597 
Q 3519 253 3119 86 
Q 2719 -81 2122 -81 
Q 1253 -81 787 320 
Q 322 722 231 1491 
z
" transform="scale(0.015625)"/>
      <path id="Arial-BoldMT-6d" d="M 394 3319 
L 1203 3319 
L 1203 2866 
Q 1638 3394 2238 3394 
Q 2556 3394 2790 3262 
Q 3025 3131 3175 2866 
Q 3394 3131 3647 3262 
Q 3900 3394 4188 3394 
Q 4553 3394 4806 3245 
Q 5059 3097 5184 2809 
Q 5275 2597 5275 2122 
L 5275 0 
L 4397 0 
L 4397 1897 
Q 4397 2391 4306 2534 
Q 4184 2722 3931 2722 
Q 3747 2722 3584 2609 
Q 3422 2497 3350 2280 
Q 3278 2063 3278 1594 
L 3278 0 
L 2400 0 
L 2400 1819 
Q 2400 2303 2353 2443 
Q 2306 2584 2207 2653 
Q 2109 2722 1941 2722 
Q 1738 2722 1575 2612 
Q 1413 2503 1342 2297 
Q 1272 2091 1272 1613 
L 1272 0 
L 394 0 
L 394 3319 
z
" transform="scale(0.015625)"/>
      <path id="Arial-BoldMT-70" d="M 434 3319 
L 1253 3319 
L 1253 2831 
Q 1413 3081 1684 3237 
Q 1956 3394 2288 3394 
Q 2866 3394 3269 2941 
Q 3672 2488 3672 1678 
Q 3672 847 3265 386 
Q 2859 -75 2281 -75 
Q 2006 -75 1782 34 
Q 1559 144 1313 409 
L 1313 -1263 
L 434 -1263 
L 434 3319 
z
M 1303 1716 
Q 1303 1156 1525 889 
Q 1747 622 2066 622 
Q 2372 622 2575 867 
Q 2778 1113 2778 1672 
Q 2778 2194 2568 2447 
Q 2359 2700 2050 2700 
Q 1728 2700 1515 2451 
Q 1303 2203 1303 1716 
z
" transform="scale(0.015625)"/>
     </defs>
     <use xlink:href="#Arial-BoldMT-41"/>
     <use xlink:href="#Arial-BoldMT-75" x="72.216797"/>
     <use xlink:href="#Arial-BoldMT-74" x="133.300781"/>
     <use xlink:href="#Arial-BoldMT-6f" x="166.601562"/>
     <use xlink:href="#Arial-BoldMT-63" x="227.685547"/>
     <use xlink:href="#Arial-BoldMT-6f" x="283.300781"/>
     <use xlink:href="#Arial-BoldMT-72" x="344.384766"/>
     <use xlink:href="#Arial-BoldMT-72" x="383.300781"/>
     <use xlink:href="#Arial-BoldMT-65" x="422.216797"/>
     <use xlink:href="#Arial-BoldMT-6c" x="477.832031"/>
     <use xlink:href="#Arial-BoldMT-61" x="505.615234"/>
     <use xlink:href="#Arial-BoldMT-63" x="561.230469"/>
     <use xlink:href="#Arial-BoldMT-69" x="616.845703"/>
     <use xlink:href="#Arial-BoldMT-6f" x="644.628906"/>
     <use xlink:href="#Arial-BoldMT-6e" x="705.712891"/>
     <use xlink:href="#Arial-BoldMT-65" x="766.796875"/>
     <use xlink:href="#Arial-BoldMT-73" x="822.412109"/>
     <use xlink:href="#Arial-BoldMT-20" x="878.027344"/>
     <use xlink:href="#Arial-BoldMT-53" x="905.810547"/>
     <use xlink:href="#Arial-BoldMT-69" x="972.509766"/>
     <use xlink:href="#Arial-BoldMT-6d" x="1000.292969"/>
     <use xlink:href="#Arial-BoldMT-70" x="1089.208984"/>
     <use xlink:href="#Arial-BoldMT-6c" x="1150.292969"/>
     <use xlink:href="#Arial-BoldMT-65" x="1178.076172"/>
     <use xlink:href="#Arial-BoldMT-73" x="1233.691406"/>
    </g>
   </g>
  </g>
  <g id="axes_2">
   <g id="patch_7">
    <path d="M 523.923068 257.76 
L 929.74125 257.76 
L 929.74125 36 
L 523.923068 36 
z
" style="fill: #ffffff"/>
   </g>
   <g id="matplotlib.axis_3">
    <g id="xtick_10">
     <g id="line2d_21">
      <path d="M 542.369349 257.76 
L 542.369349 36 
" clip-path="url(#p2fe8900764)" style="fill: none; stroke-dasharray: 1.85,0.8; stroke-dashoffset: 0; stroke: #808080; stroke-width: 0.5"/>
     </g>
     <g id="text_20">
      <!-- 0 -->
      <g style="fill: #262626" transform="translate(540.144974 272.98625) scale(0.08 -0.08)">
       <use xlink:href="#ArialMT-30"/>
      </g>
     </g>
    </g>
    <g id="xtick_11">
     <g id="line2d_22">
      <path d="M 588.009632 257.76 
L 588.009632 36 
" clip-path="url(#p2fe8900764)" style="fill: none; stroke-dasharray: 1.85,0.8; stroke-dashoffset: 0; stroke: #808080; stroke-width: 0.5"/>
     </g>
     <g id="text_21">
      <!-- 6 -->
      <g style="fill: #262626" transform="translate(585.785257 272.98625) scale(0.08 -0.08)">
       <use xlink:href="#ArialMT-36"/>
      </g>
     </g>
    </g>
    <g id="xtick_12">
     <g id="line2d_23">
      <path d="M 633.649915 257.76 
L 633.649915 36 
" clip-path="url(#p2fe8900764)" style="fill: none; stroke-dasharray: 1.85,0.8; stroke-dashoffset: 0; stroke: #808080; stroke-width: 0.5"/>
     </g>
     <g id="text_22">
      <!-- 12 -->
      <g style="fill: #262626" transform="translate(629.201165 272.98625) scale(0.08 -0.08)">
       <use xlink:href="#ArialMT-31"/>
       <use xlink:href="#ArialMT-32" x="55.615234"/>
      </g>
     </g>
    </g>
    <g id="xtick_13">
     <g id="line2d_24">
      <path d="M 679.290198 257.76 
L 679.290198 36 
" clip-path="url(#p2fe8900764)" style="fill: none; stroke-dasharray: 1.85,0.8; stroke-dashoffset: 0; stroke: #808080; stroke-width: 0.5"/>
     </g>
     <g id="text_23">
      <!-- 18 -->
      <g style="fill: #262626" transform="translate(674.841448 272.98625) scale(0.08 -0.08)">
       <use xlink:href="#ArialMT-31"/>
       <use xlink:href="#ArialMT-38" x="55.615234"/>
      </g>
     </g>
    </g>
    <g id="xtick_14">
     <g id="line2d_25">
      <path d="M 724.930481 257.76 
L 724.930481 36 
" clip-path="url(#p2fe8900764)" style="fill: none; stroke-dasharray: 1.85,0.8; stroke-dashoffset: 0; stroke: #808080; stroke-width: 0.5"/>
     </g>
     <g id="text_24">
      <!-- 24 -->
      <g style="fill: #262626" transform="translate(720.481731 272.98625) scale(0.08 -0.08)">
       <use xlink:href="#ArialMT-32"/>
       <use xlink:href="#ArialMT-34" x="55.615234"/>
      </g>
     </g>
    </g>
    <g id="xtick_15">
     <g id="line2d_26">
      <path d="M 770.570764 257.76 
L 770.570764 36 
" clip-path="url(#p2fe8900764)" style="fill: none; stroke-dasharray: 1.85,0.8; stroke-dashoffset: 0; stroke: #808080; stroke-width: 0.5"/>
     </g>
     <g id="text_25">
      <!-- 30 -->
      <g style="fill: #262626" transform="translate(766.122014 272.98625) scale(0.08 -0.08)">
       <use xlink:href="#ArialMT-33"/>
       <use xlink:href="#ArialMT-30" x="55.615234"/>
      </g>
     </g>
    </g>
    <g id="xtick_16">
     <g id="line2d_27">
      <path d="M 816.211046 257.76 
L 816.211046 36 
" clip-path="url(#p2fe8900764)" style="fill: none; stroke-dasharray: 1.85,0.8; stroke-dashoffset: 0; stroke: #808080; stroke-width: 0.5"/>
     </g>
     <g id="text_26">
      <!-- 36 -->
      <g style="fill: #262626" transform="translate(811.762296 272.98625) scale(0.08 -0.08)">
       <use xlink:href="#ArialMT-33"/>
       <use xlink:href="#ArialMT-36" x="55.615234"/>
      </g>
     </g>
    </g>
    <g id="xtick_17">
     <g id="line2d_28">
      <path d="M 861.851329 257.76 
L 861.851329 36 
" clip-path="url(#p2fe8900764)" style="fill: none; stroke-dasharray: 1.85,0.8; stroke-dashoffset: 0; stroke: #808080; stroke-width: 0.5"/>
     </g>
     <g id="text_27">
      <!-- 42 -->
      <g style="fill: #262626" transform="translate(857.402579 272.98625) scale(0.08 -0.08)">
       <use xlink:href="#ArialMT-34"/>
       <use xlink:href="#ArialMT-32" x="55.615234"/>
      </g>
     </g>
    </g>
    <g id="xtick_18">
     <g id="line2d_29">
      <path d="M 907.491612 257.76 
L 907.491612 36 
" clip-path="url(#p2fe8900764)" style="fill: none; stroke-dasharray: 1.85,0.8; stroke-dashoffset: 0; stroke: #808080; stroke-width: 0.5"/>
     </g>
     <g id="text_28">
      <!-- 48 -->
      <g style="fill: #262626" transform="translate(903.042862 272.98625) scale(0.08 -0.08)">
       <use xlink:href="#ArialMT-34"/>
       <use xlink:href="#ArialMT-38" x="55.615234"/>
      </g>
     </g>
    </g>
   </g>
   <g id="matplotlib.axis_4">
    <g id="ytick_10">
     <g id="line2d_30">
      <path d="M 523.923068 257.76 
L 929.74125 257.76 
" clip-path="url(#p2fe8900764)" style="fill: none; stroke-dasharray: 1.85,0.8; stroke-dashoffset: 0; stroke: #808080; stroke-width: 0.5"/>
     </g>
     <g id="text_29">
      <!-- −1.00 -->
      <g style="fill: #262626" transform="translate(494.181818 260.623125) scale(0.08 -0.08)">
       <use xlink:href="#ArialMT-2212"/>
       <use xlink:href="#ArialMT-31" x="58.398438"/>
       <use xlink:href="#ArialMT-2e" x="114.013672"/>
       <use xlink:href="#ArialMT-30" x="141.796875"/>
       <use xlink:href="#ArialMT-30" x="197.412109"/>
      </g>
     </g>
    </g>
    <g id="ytick_11">
     <g id="line2d_31">
      <path d="M 523.923068 230.04 
L 929.74125 230.04 
" clip-path="url(#p2fe8900764)" style="fill: none; stroke-dasharray: 1.85,0.8; stroke-dashoffset: 0; stroke: #808080; stroke-width: 0.5"/>
     </g>
     <g id="text_30">
      <!-- −0.75 -->
      <g style="fill: #262626" transform="translate(494.181818 232.903125) scale(0.08 -0.08)">
       <use xlink:href="#ArialMT-2212"/>
       <use xlink:href="#ArialMT-30" x="58.398438"/>
       <use xlink:href="#ArialMT-2e" x="114.013672"/>
       <use xlink:href="#ArialMT-37" x="141.796875"/>
       <use xlink:href="#ArialMT-35" x="197.412109"/>
      </g>
     </g>
    </g>
    <g id="ytick_12">
     <g id="line2d_32">
      <path d="M 523.923068 202.32 
L 929.74125 202.32 
" clip-path="url(#p2fe8900764)" style="fill: none; stroke-dasharray: 1.85,0.8; stroke-dashoffset: 0; stroke: #808080; stroke-width: 0.5"/>
     </g>
     <g id="text_31">
      <!-- −0.50 -->
      <g style="fill: #262626" transform="translate(494.181818 205.183125) scale(0.08 -0.08)">
       <use xlink:href="#ArialMT-2212"/>
       <use xlink:href="#ArialMT-30" x="58.398438"/>
       <use xlink:href="#ArialMT-2e" x="114.013672"/>
       <use xlink:href="#ArialMT-35" x="141.796875"/>
       <use xlink:href="#ArialMT-30" x="197.412109"/>
      </g>
     </g>
    </g>
    <g id="ytick_13">
     <g id="line2d_33">
      <path d="M 523.923068 174.6 
L 929.74125 174.6 
" clip-path="url(#p2fe8900764)" style="fill: none; stroke-dasharray: 1.85,0.8; stroke-dashoffset: 0; stroke: #808080; stroke-width: 0.5"/>
     </g>
     <g id="text_32">
      <!-- −0.25 -->
      <g style="fill: #262626" transform="translate(494.181818 177.463125) scale(0.08 -0.08)">
       <use xlink:href="#ArialMT-2212"/>
       <use xlink:href="#ArialMT-30" x="58.398438"/>
       <use xlink:href="#ArialMT-2e" x="114.013672"/>
       <use xlink:href="#ArialMT-32" x="141.796875"/>
       <use xlink:href="#ArialMT-35" x="197.412109"/>
      </g>
     </g>
    </g>
    <g id="ytick_14">
     <g id="line2d_34">
      <path d="M 523.923068 146.88 
L 929.74125 146.88 
" clip-path="url(#p2fe8900764)" style="fill: none; stroke-dasharray: 1.85,0.8; stroke-dashoffset: 0; stroke: #808080; stroke-width: 0.5"/>
     </g>
     <g id="text_33">
      <!-- 0.00 -->
      <g style="fill: #262626" transform="translate(498.854318 149.743125) scale(0.08 -0.08)">
       <use xlink:href="#ArialMT-30"/>
       <use xlink:href="#ArialMT-2e" x="55.615234"/>
       <use xlink:href="#ArialMT-30" x="83.398438"/>
       <use xlink:href="#ArialMT-30" x="139.013672"/>
      </g>
     </g>
    </g>
    <g id="ytick_15">
     <g id="line2d_35">
      <path d="M 523.923068 119.16 
L 929.74125 119.16 
" clip-path="url(#p2fe8900764)" style="fill: none; stroke-dasharray: 1.85,0.8; stroke-dashoffset: 0; stroke: #808080; stroke-width: 0.5"/>
     </g>
     <g id="text_34">
      <!-- 0.25 -->
      <g style="fill: #262626" transform="translate(498.854318 122.023125) scale(0.08 -0.08)">
       <use xlink:href="#ArialMT-30"/>
       <use xlink:href="#ArialMT-2e" x="55.615234"/>
       <use xlink:href="#ArialMT-32" x="83.398438"/>
       <use xlink:href="#ArialMT-35" x="139.013672"/>
      </g>
     </g>
    </g>
    <g id="ytick_16">
     <g id="line2d_36">
      <path d="M 523.923068 91.44 
L 929.74125 91.44 
" clip-path="url(#p2fe8900764)" style="fill: none; stroke-dasharray: 1.85,0.8; stroke-dashoffset: 0; stroke: #808080; stroke-width: 0.5"/>
     </g>
     <g id="text_35">
      <!-- 0.50 -->
      <g style="fill: #262626" transform="translate(498.854318 94.303125) scale(0.08 -0.08)">
       <use xlink:href="#ArialMT-30"/>
       <use xlink:href="#ArialMT-2e" x="55.615234"/>
       <use xlink:href="#ArialMT-35" x="83.398438"/>
       <use xlink:href="#ArialMT-30" x="139.013672"/>
      </g>
     </g>
    </g>
    <g id="ytick_17">
     <g id="line2d_37">
      <path d="M 523.923068 63.72 
L 929.74125 63.72 
" clip-path="url(#p2fe8900764)" style="fill: none; stroke-dasharray: 1.85,0.8; stroke-dashoffset: 0; stroke: #808080; stroke-width: 0.5"/>
     </g>
     <g id="text_36">
      <!-- 0.75 -->
      <g style="fill: #262626" transform="translate(498.854318 66.583125) scale(0.08 -0.08)">
       <use xlink:href="#ArialMT-30"/>
       <use xlink:href="#ArialMT-2e" x="55.615234"/>
       <use xlink:href="#ArialMT-37" x="83.398438"/>
       <use xlink:href="#ArialMT-35" x="139.013672"/>
      </g>
     </g>
    </g>
    <g id="ytick_18">
     <g id="line2d_38">
      <path d="M 523.923068 36 
L 929.74125 36 
" clip-path="url(#p2fe8900764)" style="fill: none; stroke-dasharray: 1.85,0.8; stroke-dashoffset: 0; stroke: #808080; stroke-width: 0.5"/>
     </g>
     <g id="text_37">
      <!-- 1.00 -->
      <g style="fill: #262626" transform="translate(498.854318 38.863125) scale(0.08 -0.08)">
       <use xlink:href="#ArialMT-31"/>
       <use xlink:href="#ArialMT-2e" x="55.615234"/>
       <use xlink:href="#ArialMT-30" x="83.398438"/>
       <use xlink:href="#ArialMT-30" x="139.013672"/>
      </g>
     </g>
    </g>
   </g>
   <g id="PolyCollection_2">
    <defs>
     <path id="m0541beb320" d="M 546.172706 -143.355451 
L 546.172706 -126.437049 
L 557.582777 -126.437049 
L 565.189491 -126.437049 
L 572.796204 -126.437049 
L 580.402918 -126.437049 
L 588.009632 -126.437049 
L 595.616346 -126.437049 
L 603.22306 -126.437049 
L 610.829773 -126.437049 
L 618.436487 -126.437049 
L 626.043201 -126.437049 
L 633.649915 -126.437049 
L 641.256629 -126.437049 
L 648.863343 -126.437049 
L 656.470056 -126.437049 
L 664.07677 -126.437049 
L 671.683484 -126.437049 
L 679.290198 -126.437049 
L 686.896912 -126.437049 
L 694.503625 -126.437049 
L 702.110339 -126.437049 
L 709.717053 -126.437049 
L 717.323767 -126.437049 
L 724.930481 -126.437049 
L 732.537194 -126.437049 
L 740.143908 -126.437049 
L 747.750622 -126.437049 
L 755.357336 -126.437049 
L 762.96405 -126.437049 
L 770.570764 -126.437049 
L 778.177477 -126.437049 
L 785.784191 -126.437049 
L 793.390905 -126.437049 
L 800.997619 -126.437049 
L 808.604333 -126.437049 
L 816.211046 -126.437049 
L 823.81776 -126.437049 
L 831.424474 -126.437049 
L 839.031188 -126.437049 
L 846.637902 -126.437049 
L 854.244615 -126.437049 
L 861.851329 -126.437049 
L 869.458043 -126.437049 
L 877.064757 -126.437049 
L 884.671471 -126.437049 
L 892.278184 -126.437049 
L 899.884898 -126.437049 
L 911.294969 -126.437049 
L 911.294969 -143.355451 
L 911.294969 -143.355451 
L 899.884898 -143.355451 
L 892.278184 -143.355451 
L 884.671471 -143.355451 
L 877.064757 -143.355451 
L 869.458043 -143.355451 
L 861.851329 -143.355451 
L 854.244615 -143.355451 
L 846.637902 -143.355451 
L 839.031188 -143.355451 
L 831.424474 -143.355451 
L 823.81776 -143.355451 
L 816.211046 -143.355451 
L 808.604333 -143.355451 
L 800.997619 -143.355451 
L 793.390905 -143.355451 
L 785.784191 -143.355451 
L 778.177477 -143.355451 
L 770.570764 -143.355451 
L 762.96405 -143.355451 
L 755.357336 -143.355451 
L 747.750622 -143.355451 
L 740.143908 -143.355451 
L 732.537194 -143.355451 
L 724.930481 -143.355451 
L 717.323767 -143.355451 
L 709.717053 -143.355451 
L 702.110339 -143.355451 
L 694.503625 -143.355451 
L 686.896912 -143.355451 
L 679.290198 -143.355451 
L 671.683484 -143.355451 
L 664.07677 -143.355451 
L 656.470056 -143.355451 
L 648.863343 -143.355451 
L 641.256629 -143.355451 
L 633.649915 -143.355451 
L 626.043201 -143.355451 
L 618.436487 -143.355451 
L 610.829773 -143.355451 
L 603.22306 -143.355451 
L 595.616346 -143.355451 
L 588.009632 -143.355451 
L 580.402918 -143.355451 
L 572.796204 -143.355451 
L 565.189491 -143.355451 
L 557.582777 -143.355451 
L 546.172706 -143.355451 
z
" style="stroke: #ffffff; stroke-opacity: 0.25"/>
    </defs>
    <g clip-path="url(#p2fe8900764)">
     <use xlink:href="#m0541beb320" x="0" y="281.77625" style="fill: #194a7a; fill-opacity: 0.25; stroke: #ffffff; stroke-opacity: 0.25"/>
    </g>
   </g>
   <g id="LineCollection_2">
    <path d="M 542.369349 146.88 
L 542.369349 36 
" clip-path="url(#p2fe8900764)" style="fill: none; stroke: #194a7a; stroke-width: 1.2"/>
    <path d="M 549.976063 146.88 
L 549.976063 90.17211 
" clip-path="url(#p2fe8900764)" style="fill: none; stroke: #194a7a; stroke-width: 1.2"/>
    <path d="M 557.582777 146.88 
L 557.582777 150.436289 
" clip-path="url(#p2fe8900764)" style="fill: none; stroke: #194a7a; stroke-width: 1.2"/>
    <path d="M 565.189491 146.88 
L 565.189491 161.996684 
" clip-path="url(#p2fe8900764)" style="fill: none; stroke: #194a7a; stroke-width: 1.2"/>
    <path d="M 572.796204 146.88 
L 572.796204 186.030184 
" clip-path="url(#p2fe8900764)" style="fill: none; stroke: #194a7a; stroke-width: 1.2"/>
    <path d="M 580.402918 146.88 
L 580.402918 184.046624 
" clip-path="url(#p2fe8900764)" style="fill: none; stroke: #194a7a; stroke-width: 1.2"/>
    <path d="M 588.009632 146.88 
L 588.009632 176.239384 
" clip-path="url(#p2fe8900764)" style="fill: none; stroke: #194a7a; stroke-width: 1.2"/>
    <path d="M 595.616346 146.88 
L 595.616346 161.499166 
" clip-path="url(#p2fe8900764)" style="fill: none; stroke: #194a7a; stroke-width: 1.2"/>
    <path d="M 603.22306 146.88 
L 603.22306 155.586348 
" clip-path="url(#p2fe8900764)" style="fill: none; stroke: #194a7a; stroke-width: 1.2"/>
    <path d="M 610.829773 146.88 
L 610.829773 140.907748 
" clip-path="url(#p2fe8900764)" style="fill: none; stroke: #194a7a; stroke-width: 1.2"/>
    <path d="M 618.436487 146.88 
L 618.436487 144.573799 
" clip-path="url(#p2fe8900764)" style="fill: none; stroke: #194a7a; stroke-width: 1.2"/>
    <path d="M 626.043201 146.88 
L 626.043201 126.054702 
" clip-path="url(#p2fe8900764)" style="fill: none; stroke: #194a7a; stroke-width: 1.2"/>
    <path d="M 633.649915 146.88 
L 633.649915 120.441457 
" clip-path="url(#p2fe8900764)" style="fill: none; stroke: #194a7a; stroke-width: 1.2"/>
    <path d="M 641.256629 146.88 
L 641.256629 143.971731 
" clip-path="url(#p2fe8900764)" style="fill: none; stroke: #194a7a; stroke-width: 1.2"/>
    <path d="M 648.863343 146.88 
L 648.863343 147.624772 
" clip-path="url(#p2fe8900764)" style="fill: none; stroke: #194a7a; stroke-width: 1.2"/>
    <path d="M 656.470056 146.88 
L 656.470056 144.840385 
" clip-path="url(#p2fe8900764)" style="fill: none; stroke: #194a7a; stroke-width: 1.2"/>
    <path d="M 664.07677 146.88 
L 664.07677 146.175986 
" clip-path="url(#p2fe8900764)" style="fill: none; stroke: #194a7a; stroke-width: 1.2"/>
    <path d="M 671.683484 146.88 
L 671.683484 153.372312 
" clip-path="url(#p2fe8900764)" style="fill: none; stroke: #194a7a; stroke-width: 1.2"/>
    <path d="M 679.290198 146.88 
L 679.290198 152.897252 
" clip-path="url(#p2fe8900764)" style="fill: none; stroke: #194a7a; stroke-width: 1.2"/>
    <path d="M 686.896912 146.88 
L 686.896912 156.07518 
" clip-path="url(#p2fe8900764)" style="fill: none; stroke: #194a7a; stroke-width: 1.2"/>
    <path d="M 694.503625 146.88 
L 694.503625 152.096459 
" clip-path="url(#p2fe8900764)" style="fill: none; stroke: #194a7a; stroke-width: 1.2"/>
    <path d="M 702.110339 146.88 
L 702.110339 150.780477 
" clip-path="url(#p2fe8900764)" style="fill: none; stroke: #194a7a; stroke-width: 1.2"/>
    <path d="M 709.717053 146.88 
L 709.717053 151.561965 
" clip-path="url(#p2fe8900764)" style="fill: none; stroke: #194a7a; stroke-width: 1.2"/>
    <path d="M 717.323767 146.88 
L 717.323767 140.93603 
" clip-path="url(#p2fe8900764)" style="fill: none; stroke: #194a7a; stroke-width: 1.2"/>
    <path d="M 724.930481 146.88 
L 724.930481 134.517374 
" clip-path="url(#p2fe8900764)" style="fill: none; stroke: #194a7a; stroke-width: 1.2"/>
    <path d="M 732.537194 146.88 
L 732.537194 142.860025 
" clip-path="url(#p2fe8900764)" style="fill: none; stroke: #194a7a; stroke-width: 1.2"/>
    <path d="M 740.143908 146.88 
L 740.143908 150.583975 
" clip-path="url(#p2fe8900764)" style="fill: none; stroke: #194a7a; stroke-width: 1.2"/>
    <path d="M 747.750622 146.88 
L 747.750622 148.469005 
" clip-path="url(#p2fe8900764)" style="fill: none; stroke: #194a7a; stroke-width: 1.2"/>
    <path d="M 755.357336 146.88 
L 755.357336 148.99511 
" clip-path="url(#p2fe8900764)" style="fill: none; stroke: #194a7a; stroke-width: 1.2"/>
    <path d="M 762.96405 146.88 
L 762.96405 143.787608 
" clip-path="url(#p2fe8900764)" style="fill: none; stroke: #194a7a; stroke-width: 1.2"/>
    <path d="M 770.570764 146.88 
L 770.570764 150.696753 
" clip-path="url(#p2fe8900764)" style="fill: none; stroke: #194a7a; stroke-width: 1.2"/>
    <path d="M 778.177477 146.88 
L 778.177477 152.625961 
" clip-path="url(#p2fe8900764)" style="fill: none; stroke: #194a7a; stroke-width: 1.2"/>
    <path d="M 785.784191 146.88 
L 785.784191 154.899703 
" clip-path="url(#p2fe8900764)" style="fill: none; stroke: #194a7a; stroke-width: 1.2"/>
    <path d="M 793.390905 146.88 
L 793.390905 144.44285 
" clip-path="url(#p2fe8900764)" style="fill: none; stroke: #194a7a; stroke-width: 1.2"/>
    <path d="M 800.997619 146.88 
L 800.997619 154.061211 
" clip-path="url(#p2fe8900764)" style="fill: none; stroke: #194a7a; stroke-width: 1.2"/>
    <path d="M 808.604333 146.88 
L 808.604333 141.218034 
" clip-path="url(#p2fe8900764)" style="fill: none; stroke: #194a7a; stroke-width: 1.2"/>
    <path d="M 816.211046 146.88 
L 816.211046 136.180307 
" clip-path="url(#p2fe8900764)" style="fill: none; stroke: #194a7a; stroke-width: 1.2"/>
    <path d="M 823.81776 146.88 
L 823.81776 146.015974 
" clip-path="url(#p2fe8900764)" style="fill: none; stroke: #194a7a; stroke-width: 1.2"/>
    <path d="M 831.424474 146.88 
L 831.424474 151.264201 
" clip-path="url(#p2fe8900764)" style="fill: none; stroke: #194a7a; stroke-width: 1.2"/>
    <path d="M 839.031188 146.88 
L 839.031188 145.427186 
" clip-path="url(#p2fe8900764)" style="fill: none; stroke: #194a7a; stroke-width: 1.2"/>
    <path d="M 846.637902 146.88 
L 846.637902 146.212142 
" clip-path="url(#p2fe8900764)" style="fill: none; stroke: #194a7a; stroke-width: 1.2"/>
    <path d="M 854.244615 146.88 
L 854.244615 140.669016 
" clip-path="url(#p2fe8900764)" style="fill: none; stroke: #194a7a; stroke-width: 1.2"/>
    <path d="M 861.851329 146.88 
L 861.851329 146.523156 
" clip-path="url(#p2fe8900764)" style="fill: none; stroke: #194a7a; stroke-width: 1.2"/>
    <path d="M 869.458043 146.88 
L 869.458043 147.764701 
" clip-path="url(#p2fe8900764)" style="fill: none; stroke: #194a7a; stroke-width: 1.2"/>
    <path d="M 877.064757 146.88 
L 877.064757 144.621861 
" clip-path="url(#p2fe8900764)" style="fill: none; stroke: #194a7a; stroke-width: 1.2"/>
    <path d="M 884.671471 146.88 
L 884.671471 148.31589 
" clip-path="url(#p2fe8900764)" style="fill: none; stroke: #194a7a; stroke-width: 1.2"/>
    <path d="M 892.278184 146.88 
L 892.278184 145.15708 
" clip-path="url(#p2fe8900764)" style="fill: none; stroke: #194a7a; stroke-width: 1.2"/>
    <path d="M 899.884898 146.88 
L 899.884898 144.494649 
" clip-path="url(#p2fe8900764)" style="fill: none; stroke: #194a7a; stroke-width: 1.2"/>
    <path d="M 907.491612 146.88 
L 907.491612 142.376206 
" clip-path="url(#p2fe8900764)" style="fill: none; stroke: #194a7a; stroke-width: 1.2"/>
   </g>
   <g id="line2d_39">
    <path d="M 523.923068 146.88 
L 929.74125 146.88 
" clip-path="url(#p2fe8900764)" style="fill: none; stroke: #194a7a; stroke-width: 1.2; stroke-linecap: round"/>
   </g>
   <g id="line2d_40">
    <g clip-path="url(#p2fe8900764)">
     <use xlink:href="#m75228c074d" x="542.369349" y="36" style="fill: #194a7a; stroke: #194a7a"/>
     <use xlink:href="#m75228c074d" x="549.976063" y="90.17211" style="fill: #194a7a; stroke: #194a7a"/>
     <use xlink:href="#m75228c074d" x="557.582777" y="150.436289" style="fill: #194a7a; stroke: #194a7a"/>
     <use xlink:href="#m75228c074d" x="565.189491" y="161.996684" style="fill: #194a7a; stroke: #194a7a"/>
     <use xlink:href="#m75228c074d" x="572.796204" y="186.030184" style="fill: #194a7a; stroke: #194a7a"/>
     <use xlink:href="#m75228c074d" x="580.402918" y="184.046624" style="fill: #194a7a; stroke: #194a7a"/>
     <use xlink:href="#m75228c074d" x="588.009632" y="176.239384" style="fill: #194a7a; stroke: #194a7a"/>
     <use xlink:href="#m75228c074d" x="595.616346" y="161.499166" style="fill: #194a7a; stroke: #194a7a"/>
     <use xlink:href="#m75228c074d" x="603.22306" y="155.586348" style="fill: #194a7a; stroke: #194a7a"/>
     <use xlink:href="#m75228c074d" x="610.829773" y="140.907748" style="fill: #194a7a; stroke: #194a7a"/>
     <use xlink:href="#m75228c074d" x="618.436487" y="144.573799" style="fill: #194a7a; stroke: #194a7a"/>
     <use xlink:href="#m75228c074d" x="626.043201" y="126.054702" style="fill: #194a7a; stroke: #194a7a"/>
     <use xlink:href="#m75228c074d" x="633.649915" y="120.441457" style="fill: #194a7a; stroke: #194a7a"/>
     <use xlink:href="#m75228c074d" x="641.256629" y="143.971731" style="fill: #194a7a; stroke: #194a7a"/>
     <use xlink:href="#m75228c074d" x="648.863343" y="147.624772" style="fill: #194a7a; stroke: #194a7a"/>
     <use xlink:href="#m75228c074d" x="656.470056" y="144.840385" style="fill: #194a7a; stroke: #194a7a"/>
     <use xlink:href="#m75228c074d" x="664.07677" y="146.175986" style="fill: #194a7a; stroke: #194a7a"/>
     <use xlink:href="#m75228c074d" x="671.683484" y="153.372312" style="fill: #194a7a; stroke: #194a7a"/>
     <use xlink:href="#m75228c074d" x="679.290198" y="152.897252" style="fill: #194a7a; stroke: #194a7a"/>
     <use xlink:href="#m75228c074d" x="686.896912" y="156.07518" style="fill: #194a7a; stroke: #194a7a"/>
     <use xlink:href="#m75228c074d" x="694.503625" y="152.096459" style="fill: #194a7a; stroke: #194a7a"/>
     <use xlink:href="#m75228c074d" x="702.110339" y="150.780477" style="fill: #194a7a; stroke: #194a7a"/>
     <use xlink:href="#m75228c074d" x="709.717053" y="151.561965" style="fill: #194a7a; stroke: #194a7a"/>
     <use xlink:href="#m75228c074d" x="717.323767" y="140.93603" style="fill: #194a7a; stroke: #194a7a"/>
     <use xlink:href="#m75228c074d" x="724.930481" y="134.517374" style="fill: #194a7a; stroke: #194a7a"/>
     <use xlink:href="#m75228c074d" x="732.537194" y="142.860025" style="fill: #194a7a; stroke: #194a7a"/>
     <use xlink:href="#m75228c074d" x="740.143908" y="150.583975" style="fill: #194a7a; stroke: #194a7a"/>
     <use xlink:href="#m75228c074d" x="747.750622" y="148.469005" style="fill: #194a7a; stroke: #194a7a"/>
     <use xlink:href="#m75228c074d" x="755.357336" y="148.99511" style="fill: #194a7a; stroke: #194a7a"/>
     <use xlink:href="#m75228c074d" x="762.96405" y="143.787608" style="fill: #194a7a; stroke: #194a7a"/>
     <use xlink:href="#m75228c074d" x="770.570764" y="150.696753" style="fill: #194a7a; stroke: #194a7a"/>
     <use xlink:href="#m75228c074d" x="778.177477" y="152.625961" style="fill: #194a7a; stroke: #194a7a"/>
     <use xlink:href="#m75228c074d" x="785.784191" y="154.899703" style="fill: #194a7a; stroke: #194a7a"/>
     <use xlink:href="#m75228c074d" x="793.390905" y="144.44285" style="fill: #194a7a; stroke: #194a7a"/>
     <use xlink:href="#m75228c074d" x="800.997619" y="154.061211" style="fill: #194a7a; stroke: #194a7a"/>
     <use xlink:href="#m75228c074d" x="808.604333" y="141.218034" style="fill: #194a7a; stroke: #194a7a"/>
     <use xlink:href="#m75228c074d" x="816.211046" y="136.180307" style="fill: #194a7a; stroke: #194a7a"/>
     <use xlink:href="#m75228c074d" x="823.81776" y="146.015974" style="fill: #194a7a; stroke: #194a7a"/>
     <use xlink:href="#m75228c074d" x="831.424474" y="151.264201" style="fill: #194a7a; stroke: #194a7a"/>
     <use xlink:href="#m75228c074d" x="839.031188" y="145.427186" style="fill: #194a7a; stroke: #194a7a"/>
     <use xlink:href="#m75228c074d" x="846.637902" y="146.212142" style="fill: #194a7a; stroke: #194a7a"/>
     <use xlink:href="#m75228c074d" x="854.244615" y="140.669016" style="fill: #194a7a; stroke: #194a7a"/>
     <use xlink:href="#m75228c074d" x="861.851329" y="146.523156" style="fill: #194a7a; stroke: #194a7a"/>
     <use xlink:href="#m75228c074d" x="869.458043" y="147.764701" style="fill: #194a7a; stroke: #194a7a"/>
     <use xlink:href="#m75228c074d" x="877.064757" y="144.621861" style="fill: #194a7a; stroke: #194a7a"/>
     <use xlink:href="#m75228c074d" x="884.671471" y="148.31589" style="fill: #194a7a; stroke: #194a7a"/>
     <use xlink:href="#m75228c074d" x="892.278184" y="145.15708" style="fill: #194a7a; stroke: #194a7a"/>
     <use xlink:href="#m75228c074d" x="899.884898" y="144.494649" style="fill: #194a7a; stroke: #194a7a"/>
     <use xlink:href="#m75228c074d" x="907.491612" y="142.376206" style="fill: #194a7a; stroke: #194a7a"/>
    </g>
   </g>
   <g id="patch_8">
    <path d="M 523.923068 257.76 
L 523.923068 36 
" style="fill: none; stroke: #cccccc; stroke-width: 1.25; stroke-linejoin: miter; stroke-linecap: square"/>
   </g>
   <g id="patch_9">
    <path d="M 929.74125 257.76 
L 929.74125 36 
" style="fill: none; stroke: #cccccc; stroke-width: 1.25; stroke-linejoin: miter; stroke-linecap: square"/>
   </g>
   <g id="patch_10">
    <path d="M 523.923068 257.76 
L 929.74125 257.76 
" style="fill: none; stroke: #cccccc; stroke-width: 1.25; stroke-linejoin: miter; stroke-linecap: square"/>
   </g>
   <g id="patch_11">
    <path d="M 523.923068 36 
L 929.74125 36 
" style="fill: none; stroke: #cccccc; stroke-width: 1.25; stroke-linejoin: miter; stroke-linecap: square"/>
   </g>
   <g id="text_38">
    <!-- Autocorrelaciones Parciales -->
    <g style="fill: #262626" transform="translate(632.683253 30) scale(0.14 -0.14)">
     <defs>
      <path id="Arial-BoldMT-50" d="M 466 0 
L 466 4581 
L 1950 4581 
Q 2794 4581 3050 4513 
Q 3444 4409 3709 4064 
Q 3975 3719 3975 3172 
Q 3975 2750 3822 2462 
Q 3669 2175 3433 2011 
Q 3197 1847 2953 1794 
Q 2622 1728 1994 1728 
L 1391 1728 
L 1391 0 
L 466 0 
z
M 1391 3806 
L 1391 2506 
L 1897 2506 
Q 2444 2506 2628 2578 
Q 2813 2650 2917 2803 
Q 3022 2956 3022 3159 
Q 3022 3409 2875 3571 
Q 2728 3734 2503 3775 
Q 2338 3806 1838 3806 
L 1391 3806 
z
" transform="scale(0.015625)"/>
     </defs>
     <use xlink:href="#Arial-BoldMT-41"/>
     <use xlink:href="#Arial-BoldMT-75" x="72.216797"/>
     <use xlink:href="#Arial-BoldMT-74" x="133.300781"/>
     <use xlink:href="#Arial-BoldMT-6f" x="166.601562"/>
     <use xlink:href="#Arial-BoldMT-63" x="227.685547"/>
     <use xlink:href="#Arial-BoldMT-6f" x="283.300781"/>
     <use xlink:href="#Arial-BoldMT-72" x="344.384766"/>
     <use xlink:href="#Arial-BoldMT-72" x="383.300781"/>
     <use xlink:href="#Arial-BoldMT-65" x="422.216797"/>
     <use xlink:href="#Arial-BoldMT-6c" x="477.832031"/>
     <use xlink:href="#Arial-BoldMT-61" x="505.615234"/>
     <use xlink:href="#Arial-BoldMT-63" x="561.230469"/>
     <use xlink:href="#Arial-BoldMT-69" x="616.845703"/>
     <use xlink:href="#Arial-BoldMT-6f" x="644.628906"/>
     <use xlink:href="#Arial-BoldMT-6e" x="705.712891"/>
     <use xlink:href="#Arial-BoldMT-65" x="766.796875"/>
     <use xlink:href="#Arial-BoldMT-73" x="822.412109"/>
     <use xlink:href="#Arial-BoldMT-20" x="878.027344"/>
     <use xlink:href="#Arial-BoldMT-50" x="905.810547"/>
     <use xlink:href="#Arial-BoldMT-61" x="972.509766"/>
     <use xlink:href="#Arial-BoldMT-72" x="1028.125"/>
     <use xlink:href="#Arial-BoldMT-63" x="1067.041016"/>
     <use xlink:href="#Arial-BoldMT-69" x="1122.65625"/>
     <use xlink:href="#Arial-BoldMT-61" x="1150.439453"/>
     <use xlink:href="#Arial-BoldMT-6c" x="1206.054688"/>
     <use xlink:href="#Arial-BoldMT-65" x="1233.837891"/>
     <use xlink:href="#Arial-BoldMT-73" x="1289.453125"/>
    </g>
   </g>
  </g>
  <g id="text_39">
   <!-- ACF y PACF de la serie de Precipitación Mensual en Puebla -->
   <g style="fill: #262626" transform="translate(276.186 17.68275) scale(0.144 -0.144)">
    <defs>
     <path id="ArialMT-41" d="M -9 0 
L 1750 4581 
L 2403 4581 
L 4278 0 
L 3588 0 
L 3053 1388 
L 1138 1388 
L 634 0 
L -9 0 
z
M 1313 1881 
L 2866 1881 
L 2388 3150 
Q 2169 3728 2063 4100 
Q 1975 3659 1816 3225 
L 1313 1881 
z
" transform="scale(0.015625)"/>
     <path id="ArialMT-43" d="M 3763 1606 
L 4369 1453 
Q 4178 706 3683 314 
Q 3188 -78 2472 -78 
Q 1731 -78 1267 223 
Q 803 525 561 1097 
Q 319 1669 319 2325 
Q 319 3041 592 3573 
Q 866 4106 1370 4382 
Q 1875 4659 2481 4659 
Q 3169 4659 3637 4309 
Q 4106 3959 4291 3325 
L 3694 3184 
Q 3534 3684 3231 3912 
Q 2928 4141 2469 4141 
Q 1941 4141 1586 3887 
Q 1231 3634 1087 3207 
Q 944 2781 944 2328 
Q 944 1744 1114 1308 
Q 1284 872 1643 656 
Q 2003 441 2422 441 
Q 2931 441 3284 734 
Q 3638 1028 3763 1606 
z
" transform="scale(0.015625)"/>
     <path id="ArialMT-46" d="M 525 0 
L 525 4581 
L 3616 4581 
L 3616 4041 
L 1131 4041 
L 1131 2622 
L 3281 2622 
L 3281 2081 
L 1131 2081 
L 1131 0 
L 525 0 
z
" transform="scale(0.015625)"/>
     <path id="ArialMT-20" transform="scale(0.015625)"/>
     <path id="ArialMT-79" d="M 397 -1278 
L 334 -750 
Q 519 -800 656 -800 
Q 844 -800 956 -737 
Q 1069 -675 1141 -563 
Q 1194 -478 1313 -144 
Q 1328 -97 1363 -6 
L 103 3319 
L 709 3319 
L 1400 1397 
Q 1534 1031 1641 628 
Q 1738 1016 1872 1384 
L 2581 3319 
L 3144 3319 
L 1881 -56 
Q 1678 -603 1566 -809 
Q 1416 -1088 1222 -1217 
Q 1028 -1347 759 -1347 
Q 597 -1347 397 -1278 
z
" transform="scale(0.015625)"/>
     <path id="ArialMT-50" d="M 494 0 
L 494 4581 
L 2222 4581 
Q 2678 4581 2919 4538 
Q 3256 4481 3484 4323 
Q 3713 4166 3852 3881 
Q 3991 3597 3991 3256 
Q 3991 2672 3619 2267 
Q 3247 1863 2275 1863 
L 1100 1863 
L 1100 0 
L 494 0 
z
M 1100 2403 
L 2284 2403 
Q 2872 2403 3119 2622 
Q 3366 2841 3366 3238 
Q 3366 3525 3220 3729 
Q 3075 3934 2838 4000 
Q 2684 4041 2272 4041 
L 1100 4041 
L 1100 2403 
z
" transform="scale(0.015625)"/>
     <path id="ArialMT-64" d="M 2575 0 
L 2575 419 
Q 2259 -75 1647 -75 
Q 1250 -75 917 144 
Q 584 363 401 755 
Q 219 1147 219 1656 
Q 219 2153 384 2558 
Q 550 2963 881 3178 
Q 1213 3394 1622 3394 
Q 1922 3394 2156 3267 
Q 2391 3141 2538 2938 
L 2538 4581 
L 3097 4581 
L 3097 0 
L 2575 0 
z
M 797 1656 
Q 797 1019 1065 703 
Q 1334 388 1700 388 
Q 2069 388 2326 689 
Q 2584 991 2584 1609 
Q 2584 2291 2321 2609 
Q 2059 2928 1675 2928 
Q 1300 2928 1048 2622 
Q 797 2316 797 1656 
z
" transform="scale(0.015625)"/>
     <path id="ArialMT-65" d="M 2694 1069 
L 3275 997 
Q 3138 488 2766 206 
Q 2394 -75 1816 -75 
Q 1088 -75 661 373 
Q 234 822 234 1631 
Q 234 2469 665 2931 
Q 1097 3394 1784 3394 
Q 2450 3394 2872 2941 
Q 3294 2488 3294 1666 
Q 3294 1616 3291 1516 
L 816 1516 
Q 847 969 1125 678 
Q 1403 388 1819 388 
Q 2128 388 2347 550 
Q 2566 713 2694 1069 
z
M 847 1978 
L 2700 1978 
Q 2663 2397 2488 2606 
Q 2219 2931 1791 2931 
Q 1403 2931 1139 2672 
Q 875 2413 847 1978 
z
" transform="scale(0.015625)"/>
     <path id="ArialMT-6c" d="M 409 0 
L 409 4581 
L 972 4581 
L 972 0 
L 409 0 
z
" transform="scale(0.015625)"/>
     <path id="ArialMT-61" d="M 2588 409 
Q 2275 144 1986 34 
Q 1697 -75 1366 -75 
Q 819 -75 525 192 
Q 231 459 231 875 
Q 231 1119 342 1320 
Q 453 1522 633 1644 
Q 813 1766 1038 1828 
Q 1203 1872 1538 1913 
Q 2219 1994 2541 2106 
Q 2544 2222 2544 2253 
Q 2544 2597 2384 2738 
Q 2169 2928 1744 2928 
Q 1347 2928 1158 2789 
Q 969 2650 878 2297 
L 328 2372 
Q 403 2725 575 2942 
Q 747 3159 1072 3276 
Q 1397 3394 1825 3394 
Q 2250 3394 2515 3294 
Q 2781 3194 2906 3042 
Q 3031 2891 3081 2659 
Q 3109 2516 3109 2141 
L 3109 1391 
Q 3109 606 3145 398 
Q 3181 191 3288 0 
L 2700 0 
Q 2613 175 2588 409 
z
M 2541 1666 
Q 2234 1541 1622 1453 
Q 1275 1403 1131 1340 
Q 988 1278 909 1158 
Q 831 1038 831 891 
Q 831 666 1001 516 
Q 1172 366 1500 366 
Q 1825 366 2078 508 
Q 2331 650 2450 897 
Q 2541 1088 2541 1459 
L 2541 1666 
z
" transform="scale(0.015625)"/>
     <path id="ArialMT-73" d="M 197 991 
L 753 1078 
Q 800 744 1014 566 
Q 1228 388 1613 388 
Q 2000 388 2187 545 
Q 2375 703 2375 916 
Q 2375 1106 2209 1216 
Q 2094 1291 1634 1406 
Q 1016 1563 777 1677 
Q 538 1791 414 1992 
Q 291 2194 291 2438 
Q 291 2659 392 2848 
Q 494 3038 669 3163 
Q 800 3259 1026 3326 
Q 1253 3394 1513 3394 
Q 1903 3394 2198 3281 
Q 2494 3169 2634 2976 
Q 2775 2784 2828 2463 
L 2278 2388 
Q 2241 2644 2061 2787 
Q 1881 2931 1553 2931 
Q 1166 2931 1000 2803 
Q 834 2675 834 2503 
Q 834 2394 903 2306 
Q 972 2216 1119 2156 
Q 1203 2125 1616 2013 
Q 2213 1853 2448 1751 
Q 2684 1650 2818 1456 
Q 2953 1263 2953 975 
Q 2953 694 2789 445 
Q 2625 197 2315 61 
Q 2006 -75 1616 -75 
Q 969 -75 630 194 
Q 291 463 197 991 
z
" transform="scale(0.015625)"/>
     <path id="ArialMT-72" d="M 416 0 
L 416 3319 
L 922 3319 
L 922 2816 
Q 1116 3169 1280 3281 
Q 1444 3394 1641 3394 
Q 1925 3394 2219 3213 
L 2025 2691 
Q 1819 2813 1613 2813 
Q 1428 2813 1281 2702 
Q 1134 2591 1072 2394 
Q 978 2094 978 1738 
L 978 0 
L 416 0 
z
" transform="scale(0.015625)"/>
     <path id="ArialMT-69" d="M 425 3934 
L 425 4581 
L 988 4581 
L 988 3934 
L 425 3934 
z
M 425 0 
L 425 3319 
L 988 3319 
L 988 0 
L 425 0 
z
" transform="scale(0.015625)"/>
     <path id="ArialMT-63" d="M 2588 1216 
L 3141 1144 
Q 3050 572 2676 248 
Q 2303 -75 1759 -75 
Q 1078 -75 664 370 
Q 250 816 250 1647 
Q 250 2184 428 2587 
Q 606 2991 970 3192 
Q 1334 3394 1763 3394 
Q 2303 3394 2647 3120 
Q 2991 2847 3088 2344 
L 2541 2259 
Q 2463 2594 2264 2762 
Q 2066 2931 1784 2931 
Q 1359 2931 1093 2626 
Q 828 2322 828 1663 
Q 828 994 1084 691 
Q 1341 388 1753 388 
Q 2084 388 2306 591 
Q 2528 794 2588 1216 
z
" transform="scale(0.015625)"/>
     <path id="ArialMT-70" d="M 422 -1272 
L 422 3319 
L 934 3319 
L 934 2888 
Q 1116 3141 1344 3267 
Q 1572 3394 1897 3394 
Q 2322 3394 2647 3175 
Q 2972 2956 3137 2557 
Q 3303 2159 3303 1684 
Q 3303 1175 3120 767 
Q 2938 359 2589 142 
Q 2241 -75 1856 -75 
Q 1575 -75 1351 44 
Q 1128 163 984 344 
L 984 -1272 
L 422 -1272 
z
M 931 1641 
Q 931 1000 1190 694 
Q 1450 388 1819 388 
Q 2194 388 2461 705 
Q 2728 1022 2728 1688 
Q 2728 2322 2467 2637 
Q 2206 2953 1844 2953 
Q 1484 2953 1207 2617 
Q 931 2281 931 1641 
z
" transform="scale(0.015625)"/>
     <path id="ArialMT-74" d="M 1650 503 
L 1731 6 
Q 1494 -44 1306 -44 
Q 1000 -44 831 53 
Q 663 150 594 308 
Q 525 466 525 972 
L 525 2881 
L 113 2881 
L 113 3319 
L 525 3319 
L 525 4141 
L 1084 4478 
L 1084 3319 
L 1650 3319 
L 1650 2881 
L 1084 2881 
L 1084 941 
Q 1084 700 1114 631 
Q 1144 563 1211 522 
Q 1278 481 1403 481 
Q 1497 481 1650 503 
z
" transform="scale(0.015625)"/>
     <path id="ArialMT-f3" d="M 213 1659 
Q 213 2581 725 3025 
Q 1153 3394 1769 3394 
Q 2453 3394 2887 2945 
Q 3322 2497 3322 1706 
Q 3322 1066 3130 698 
Q 2938 331 2570 128 
Q 2203 -75 1769 -75 
Q 1072 -75 642 372 
Q 213 819 213 1659 
z
M 791 1659 
Q 791 1022 1069 705 
Q 1347 388 1769 388 
Q 2188 388 2466 706 
Q 2744 1025 2744 1678 
Q 2744 2294 2464 2611 
Q 2184 2928 1769 2928 
Q 1347 2928 1069 2612 
Q 791 2297 791 1659 
z
M 1454 3731 
L 1869 4606 
L 2607 4606 
L 1919 3731 
L 1454 3731 
z
" transform="scale(0.015625)"/>
     <path id="ArialMT-6e" d="M 422 0 
L 422 3319 
L 928 3319 
L 928 2847 
Q 1294 3394 1984 3394 
Q 2284 3394 2536 3286 
Q 2788 3178 2913 3003 
Q 3038 2828 3088 2588 
Q 3119 2431 3119 2041 
L 3119 0 
L 2556 0 
L 2556 2019 
Q 2556 2363 2490 2533 
Q 2425 2703 2258 2804 
Q 2091 2906 1866 2906 
Q 1506 2906 1245 2678 
Q 984 2450 984 1813 
L 984 0 
L 422 0 
z
" transform="scale(0.015625)"/>
     <path id="ArialMT-4d" d="M 475 0 
L 475 4581 
L 1388 4581 
L 2472 1338 
Q 2622 884 2691 659 
Q 2769 909 2934 1394 
L 4031 4581 
L 4847 4581 
L 4847 0 
L 4263 0 
L 4263 3834 
L 2931 0 
L 2384 0 
L 1059 3900 
L 1059 0 
L 475 0 
z
" transform="scale(0.015625)"/>
     <path id="ArialMT-75" d="M 2597 0 
L 2597 488 
Q 2209 -75 1544 -75 
Q 1250 -75 995 37 
Q 741 150 617 320 
Q 494 491 444 738 
Q 409 903 409 1263 
L 409 3319 
L 972 3319 
L 972 1478 
Q 972 1038 1006 884 
Q 1059 663 1231 536 
Q 1403 409 1656 409 
Q 1909 409 2131 539 
Q 2353 669 2445 892 
Q 2538 1116 2538 1541 
L 2538 3319 
L 3100 3319 
L 3100 0 
L 2597 0 
z
" transform="scale(0.015625)"/>
     <path id="ArialMT-62" d="M 941 0 
L 419 0 
L 419 4581 
L 981 4581 
L 981 2947 
Q 1338 3394 1891 3394 
Q 2197 3394 2470 3270 
Q 2744 3147 2920 2923 
Q 3097 2700 3197 2384 
Q 3297 2069 3297 1709 
Q 3297 856 2875 390 
Q 2453 -75 1863 -75 
Q 1275 -75 941 416 
L 941 0 
z
M 934 1684 
Q 934 1088 1097 822 
Q 1363 388 1816 388 
Q 2184 388 2453 708 
Q 2722 1028 2722 1663 
Q 2722 2313 2464 2622 
Q 2206 2931 1841 2931 
Q 1472 2931 1203 2611 
Q 934 2291 934 1684 
z
" transform="scale(0.015625)"/>
    </defs>
    <use xlink:href="#ArialMT-41"/>
    <use xlink:href="#ArialMT-43" x="66.699219"/>
    <use xlink:href="#ArialMT-46" x="138.916016"/>
    <use xlink:href="#ArialMT-20" x="200"/>
    <use xlink:href="#ArialMT-79" x="227.783203"/>
    <use xlink:href="#ArialMT-20" x="277.783203"/>
    <use xlink:href="#ArialMT-50" x="305.566406"/>
    <use xlink:href="#ArialMT-41" x="364.890625"/>
    <use xlink:href="#ArialMT-43" x="431.589844"/>
    <use xlink:href="#ArialMT-46" x="503.806641"/>
    <use xlink:href="#ArialMT-20" x="564.890625"/>
    <use xlink:href="#ArialMT-64" x="592.673828"/>
    <use xlink:href="#ArialMT-65" x="648.289062"/>
    <use xlink:href="#ArialMT-20" x="703.904297"/>
    <use xlink:href="#ArialMT-6c" x="731.6875"/>
    <use xlink:href="#ArialMT-61" x="753.904297"/>
    <use xlink:href="#ArialMT-20" x="809.519531"/>
    <use xlink:href="#ArialMT-73" x="837.302734"/>
    <use xlink:href="#ArialMT-65" x="887.302734"/>
    <use xlink:href="#ArialMT-72" x="942.917969"/>
    <use xlink:href="#ArialMT-69" x="976.21875"/>
    <use xlink:href="#ArialMT-65" x="998.435547"/>
    <use xlink:href="#ArialMT-20" x="1054.050781"/>
    <use xlink:href="#ArialMT-64" x="1081.833984"/>
    <use xlink:href="#ArialMT-65" x="1137.449219"/>
    <use xlink:href="#ArialMT-20" x="1193.064453"/>
    <use xlink:href="#ArialMT-50" x="1220.847656"/>
    <use xlink:href="#ArialMT-72" x="1287.546875"/>
    <use xlink:href="#ArialMT-65" x="1320.847656"/>
    <use xlink:href="#ArialMT-63" x="1376.462891"/>
    <use xlink:href="#ArialMT-69" x="1426.462891"/>
    <use xlink:href="#ArialMT-70" x="1448.679688"/>
    <use xlink:href="#ArialMT-69" x="1504.294922"/>
    <use xlink:href="#ArialMT-74" x="1526.511719"/>
    <use xlink:href="#ArialMT-61" x="1554.294922"/>
    <use xlink:href="#ArialMT-63" x="1609.910156"/>
    <use xlink:href="#ArialMT-69" x="1659.910156"/>
    <use xlink:href="#ArialMT-f3" x="1682.126953"/>
    <use xlink:href="#ArialMT-6e" x="1737.742188"/>
    <use xlink:href="#ArialMT-20" x="1793.357422"/>
    <use xlink:href="#ArialMT-4d" x="1821.140625"/>
    <use xlink:href="#ArialMT-65" x="1904.441406"/>
    <use xlink:href="#ArialMT-6e" x="1960.056641"/>
    <use xlink:href="#ArialMT-73" x="2015.671875"/>
    <use xlink:href="#ArialMT-75" x="2065.671875"/>
    <use xlink:href="#ArialMT-61" x="2121.287109"/>
    <use xlink:href="#ArialMT-6c" x="2176.902344"/>
    <use xlink:href="#ArialMT-20" x="2199.119141"/>
    <use xlink:href="#ArialMT-65" x="2226.902344"/>
    <use xlink:href="#ArialMT-6e" x="2282.517578"/>
    <use xlink:href="#ArialMT-20" x="2338.132812"/>
    <use xlink:href="#ArialMT-50" x="2365.916016"/>
    <use xlink:href="#ArialMT-75" x="2432.615234"/>
    <use xlink:href="#ArialMT-65" x="2488.230469"/>
    <use xlink:href="#ArialMT-62" x="2543.845703"/>
    <use xlink:href="#ArialMT-6c" x="2599.460938"/>
    <use xlink:href="#ArialMT-61" x="2621.677734"/>
   </g>
  </g>
 </g>
 <defs>
  <clipPath id="p530e47721d">
   <rect x="36.94125" y="36" width="405.818182" height="221.76"/>
  </clipPath>
  <clipPath id="p2fe8900764">
   <rect x="523.923068" y="36" width="405.818182" height="221.76"/>
  </clipPath>
 </defs>
</svg>
