<?xml version="1.0" encoding="utf-8" standalone="no"?>
<!DOCTYPE svg PUBLIC "-//W3C//DTD SVG 1.1//EN"
  "http://www.w3.org/Graphics/SVG/1.1/DTD/svg11.dtd">
<svg xmlns:xlink="http://www.w3.org/1999/xlink" width="724.55375pt" height="395.022187pt" viewBox="0 0 724.55375 395.022187" xmlns="http://www.w3.org/2000/svg" version="1.1">
 <metadata>
  <rdf:RDF xmlns:dc="http://purl.org/dc/elements/1.1/" xmlns:cc="http://creativecommons.org/ns#" xmlns:rdf="http://www.w3.org/1999/02/22-rdf-syntax-ns#">
   <cc:Work>
    <dc:type rdf:resource="http://purl.org/dc/dcmitype/StillImage"/>
    <dc:date>2025-04-24T10:27:40.089699</dc:date>
    <dc:format>image/svg+xml</dc:format>
    <dc:creator>
     <cc:Agent>
      <dc:title>Matplotlib v3.8.4, https://matplotlib.org/</dc:title>
     </cc:Agent>
    </dc:creator>
   </cc:Work>
  </rdf:RDF>
 </metadata>
 <defs>
  <style type="text/css">*{stroke-linejoin: round; stroke-linecap: butt}</style>
 </defs>
 <g id="figure_1">
  <g id="patch_1">
   <path d="M -0 395.022187 
L 724.55375 395.022187 
L 724.55375 0 
L -0 0 
z
" style="fill: #ffffff"/>
  </g>
  <g id="axes_1">
   <g id="patch_2">
    <path d="M 47.75375 356.031562 
L 717.35375 356.031562 
L 717.35375 23.391562 
L 47.75375 23.391562 
z
" style="fill: #ffffff"/>
   </g>
   <g id="matplotlib.axis_1">
    <g id="xtick_1">
     <g id="line2d_1">
      <path d="M 48.919894 356.031562 
L 48.919894 23.391562 
" clip-path="url(#pfdce824646)" style="fill: none; stroke-dasharray: 1.85,0.8; stroke-dashoffset: 0; stroke: #808080; stroke-width: 0.5"/>
     </g>
     <g id="text_1">
      <!-- 1950 -->
      <g style="fill: #262626" transform="translate(40.022394 371.257812) scale(0.08 -0.08)">
       <defs>
        <path id="ArialMT-31" d="M 2384 0 
L 1822 0 
L 1822 3584 
Q 1619 3391 1289 3197 
Q 959 3003 697 2906 
L 697 3450 
Q 1169 3672 1522 3987 
Q 1875 4303 2022 4600 
L 2384 4600 
L 2384 0 
z
" transform="scale(0.015625)"/>
        <path id="ArialMT-39" d="M 350 1059 
L 891 1109 
Q 959 728 1153 556 
Q 1347 384 1650 384 
Q 1909 384 2104 503 
Q 2300 622 2425 820 
Q 2550 1019 2634 1356 
Q 2719 1694 2719 2044 
Q 2719 2081 2716 2156 
Q 2547 1888 2255 1720 
Q 1963 1553 1622 1553 
Q 1053 1553 659 1965 
Q 266 2378 266 3053 
Q 266 3750 677 4175 
Q 1088 4600 1706 4600 
Q 2153 4600 2523 4359 
Q 2894 4119 3086 3673 
Q 3278 3228 3278 2384 
Q 3278 1506 3087 986 
Q 2897 466 2520 194 
Q 2144 -78 1638 -78 
Q 1100 -78 759 220 
Q 419 519 350 1059 
z
M 2653 3081 
Q 2653 3566 2395 3850 
Q 2138 4134 1775 4134 
Q 1400 4134 1122 3828 
Q 844 3522 844 3034 
Q 844 2597 1108 2323 
Q 1372 2050 1759 2050 
Q 2150 2050 2401 2323 
Q 2653 2597 2653 3081 
z
" transform="scale(0.015625)"/>
        <path id="ArialMT-35" d="M 266 1200 
L 856 1250 
Q 922 819 1161 601 
Q 1400 384 1738 384 
Q 2144 384 2425 690 
Q 2706 997 2706 1503 
Q 2706 1984 2436 2262 
Q 2166 2541 1728 2541 
Q 1456 2541 1237 2417 
Q 1019 2294 894 2097 
L 366 2166 
L 809 4519 
L 3088 4519 
L 3088 3981 
L 1259 3981 
L 1013 2750 
Q 1425 3038 1878 3038 
Q 2478 3038 2890 2622 
Q 3303 2206 3303 1553 
Q 3303 931 2941 478 
Q 2500 -78 1738 -78 
Q 1113 -78 717 272 
Q 322 622 266 1200 
z
" transform="scale(0.015625)"/>
        <path id="ArialMT-30" d="M 266 2259 
Q 266 3072 433 3567 
Q 600 4063 929 4331 
Q 1259 4600 1759 4600 
Q 2128 4600 2406 4451 
Q 2684 4303 2865 4023 
Q 3047 3744 3150 3342 
Q 3253 2941 3253 2259 
Q 3253 1453 3087 958 
Q 2922 463 2592 192 
Q 2263 -78 1759 -78 
Q 1097 -78 719 397 
Q 266 969 266 2259 
z
M 844 2259 
Q 844 1131 1108 757 
Q 1372 384 1759 384 
Q 2147 384 2411 759 
Q 2675 1134 2675 2259 
Q 2675 3391 2411 3762 
Q 2147 4134 1753 4134 
Q 1366 4134 1134 3806 
Q 844 3388 844 2259 
z
" transform="scale(0.015625)"/>
       </defs>
       <use xlink:href="#ArialMT-31"/>
       <use xlink:href="#ArialMT-39" x="55.615234"/>
       <use xlink:href="#ArialMT-35" x="111.230469"/>
       <use xlink:href="#ArialMT-30" x="166.845703"/>
      </g>
     </g>
    </g>
    <g id="xtick_2">
     <g id="line2d_2">
      <path d="M 155.38886 356.031562 
L 155.38886 23.391562 
" clip-path="url(#pfdce824646)" style="fill: none; stroke-dasharray: 1.85,0.8; stroke-dashoffset: 0; stroke: #808080; stroke-width: 0.5"/>
     </g>
     <g id="text_2">
      <!-- 1960 -->
      <g style="fill: #262626" transform="translate(146.49136 371.257812) scale(0.08 -0.08)">
       <defs>
        <path id="ArialMT-36" d="M 3184 3459 
L 2625 3416 
Q 2550 3747 2413 3897 
Q 2184 4138 1850 4138 
Q 1581 4138 1378 3988 
Q 1113 3794 959 3422 
Q 806 3050 800 2363 
Q 1003 2672 1297 2822 
Q 1591 2972 1913 2972 
Q 2475 2972 2870 2558 
Q 3266 2144 3266 1488 
Q 3266 1056 3080 686 
Q 2894 316 2569 119 
Q 2244 -78 1831 -78 
Q 1128 -78 684 439 
Q 241 956 241 2144 
Q 241 3472 731 4075 
Q 1159 4600 1884 4600 
Q 2425 4600 2770 4297 
Q 3116 3994 3184 3459 
z
M 888 1484 
Q 888 1194 1011 928 
Q 1134 663 1356 523 
Q 1578 384 1822 384 
Q 2178 384 2434 671 
Q 2691 959 2691 1453 
Q 2691 1928 2437 2201 
Q 2184 2475 1800 2475 
Q 1419 2475 1153 2201 
Q 888 1928 888 1484 
z
" transform="scale(0.015625)"/>
       </defs>
       <use xlink:href="#ArialMT-31"/>
       <use xlink:href="#ArialMT-39" x="55.615234"/>
       <use xlink:href="#ArialMT-36" x="111.230469"/>
       <use xlink:href="#ArialMT-30" x="166.845703"/>
      </g>
     </g>
    </g>
    <g id="xtick_3">
     <g id="line2d_3">
      <path d="M 261.886979 356.031562 
L 261.886979 23.391562 
" clip-path="url(#pfdce824646)" style="fill: none; stroke-dasharray: 1.85,0.8; stroke-dashoffset: 0; stroke: #808080; stroke-width: 0.5"/>
     </g>
     <g id="text_3">
      <!-- 1970 -->
      <g style="fill: #262626" transform="translate(252.989479 371.257812) scale(0.08 -0.08)">
       <defs>
        <path id="ArialMT-37" d="M 303 3981 
L 303 4522 
L 3269 4522 
L 3269 4084 
Q 2831 3619 2401 2847 
Q 1972 2075 1738 1259 
Q 1569 684 1522 0 
L 944 0 
Q 953 541 1156 1306 
Q 1359 2072 1739 2783 
Q 2119 3494 2547 3981 
L 303 3981 
z
" transform="scale(0.015625)"/>
       </defs>
       <use xlink:href="#ArialMT-31"/>
       <use xlink:href="#ArialMT-39" x="55.615234"/>
       <use xlink:href="#ArialMT-37" x="111.230469"/>
       <use xlink:href="#ArialMT-30" x="166.845703"/>
      </g>
     </g>
    </g>
    <g id="xtick_4">
     <g id="line2d_4">
      <path d="M 368.355944 356.031562 
L 368.355944 23.391562 
" clip-path="url(#pfdce824646)" style="fill: none; stroke-dasharray: 1.85,0.8; stroke-dashoffset: 0; stroke: #808080; stroke-width: 0.5"/>
     </g>
     <g id="text_4">
      <!-- 1980 -->
      <g style="fill: #262626" transform="translate(359.458444 371.257812) scale(0.08 -0.08)">
       <defs>
        <path id="ArialMT-38" d="M 1131 2484 
Q 781 2613 612 2850 
Q 444 3088 444 3419 
Q 444 3919 803 4259 
Q 1163 4600 1759 4600 
Q 2359 4600 2725 4251 
Q 3091 3903 3091 3403 
Q 3091 3084 2923 2848 
Q 2756 2613 2416 2484 
Q 2838 2347 3058 2040 
Q 3278 1734 3278 1309 
Q 3278 722 2862 322 
Q 2447 -78 1769 -78 
Q 1091 -78 675 323 
Q 259 725 259 1325 
Q 259 1772 486 2073 
Q 713 2375 1131 2484 
z
M 1019 3438 
Q 1019 3113 1228 2906 
Q 1438 2700 1772 2700 
Q 2097 2700 2305 2904 
Q 2513 3109 2513 3406 
Q 2513 3716 2298 3927 
Q 2084 4138 1766 4138 
Q 1444 4138 1231 3931 
Q 1019 3725 1019 3438 
z
M 838 1322 
Q 838 1081 952 856 
Q 1066 631 1291 507 
Q 1516 384 1775 384 
Q 2178 384 2440 643 
Q 2703 903 2703 1303 
Q 2703 1709 2433 1975 
Q 2163 2241 1756 2241 
Q 1359 2241 1098 1978 
Q 838 1716 838 1322 
z
" transform="scale(0.015625)"/>
       </defs>
       <use xlink:href="#ArialMT-31"/>
       <use xlink:href="#ArialMT-39" x="55.615234"/>
       <use xlink:href="#ArialMT-38" x="111.230469"/>
       <use xlink:href="#ArialMT-30" x="166.845703"/>
      </g>
     </g>
    </g>
    <g id="xtick_5">
     <g id="line2d_5">
      <path d="M 474.854063 356.031562 
L 474.854063 23.391562 
" clip-path="url(#pfdce824646)" style="fill: none; stroke-dasharray: 1.85,0.8; stroke-dashoffset: 0; stroke: #808080; stroke-width: 0.5"/>
     </g>
     <g id="text_5">
      <!-- 1990 -->
      <g style="fill: #262626" transform="translate(465.956563 371.257812) scale(0.08 -0.08)">
       <use xlink:href="#ArialMT-31"/>
       <use xlink:href="#ArialMT-39" x="55.615234"/>
       <use xlink:href="#ArialMT-39" x="111.230469"/>
       <use xlink:href="#ArialMT-30" x="166.845703"/>
      </g>
     </g>
    </g>
    <g id="xtick_6">
     <g id="line2d_6">
      <path d="M 581.323029 356.031562 
L 581.323029 23.391562 
" clip-path="url(#pfdce824646)" style="fill: none; stroke-dasharray: 1.85,0.8; stroke-dashoffset: 0; stroke: #808080; stroke-width: 0.5"/>
     </g>
     <g id="text_6">
      <!-- 2000 -->
      <g style="fill: #262626" transform="translate(572.425529 371.257812) scale(0.08 -0.08)">
       <defs>
        <path id="ArialMT-32" d="M 3222 541 
L 3222 0 
L 194 0 
Q 188 203 259 391 
Q 375 700 629 1000 
Q 884 1300 1366 1694 
Q 2113 2306 2375 2664 
Q 2638 3022 2638 3341 
Q 2638 3675 2398 3904 
Q 2159 4134 1775 4134 
Q 1369 4134 1125 3890 
Q 881 3647 878 3216 
L 300 3275 
Q 359 3922 746 4261 
Q 1134 4600 1788 4600 
Q 2447 4600 2831 4234 
Q 3216 3869 3216 3328 
Q 3216 3053 3103 2787 
Q 2991 2522 2730 2228 
Q 2469 1934 1863 1422 
Q 1356 997 1212 845 
Q 1069 694 975 541 
L 3222 541 
z
" transform="scale(0.015625)"/>
       </defs>
       <use xlink:href="#ArialMT-32"/>
       <use xlink:href="#ArialMT-30" x="55.615234"/>
       <use xlink:href="#ArialMT-30" x="111.230469"/>
       <use xlink:href="#ArialMT-30" x="166.845703"/>
      </g>
     </g>
    </g>
    <g id="xtick_7">
     <g id="line2d_7">
      <path d="M 687.821148 356.031562 
L 687.821148 23.391562 
" clip-path="url(#pfdce824646)" style="fill: none; stroke-dasharray: 1.85,0.8; stroke-dashoffset: 0; stroke: #808080; stroke-width: 0.5"/>
     </g>
     <g id="text_7">
      <!-- 2010 -->
      <g style="fill: #262626" transform="translate(678.923648 371.257812) scale(0.08 -0.08)">
       <use xlink:href="#ArialMT-32"/>
       <use xlink:href="#ArialMT-30" x="55.615234"/>
       <use xlink:href="#ArialMT-31" x="111.230469"/>
       <use xlink:href="#ArialMT-30" x="166.845703"/>
      </g>
     </g>
    </g>
    <g id="text_8">
     <!-- Fecha -->
     <g style="fill: #262626" transform="translate(365.879375 385.437187) scale(0.12 -0.12)">
      <defs>
       <path id="ArialMT-46" d="M 525 0 
L 525 4581 
L 3616 4581 
L 3616 4041 
L 1131 4041 
L 1131 2622 
L 3281 2622 
L 3281 2081 
L 1131 2081 
L 1131 0 
L 525 0 
z
" transform="scale(0.015625)"/>
       <path id="ArialMT-65" d="M 2694 1069 
L 3275 997 
Q 3138 488 2766 206 
Q 2394 -75 1816 -75 
Q 1088 -75 661 373 
Q 234 822 234 1631 
Q 234 2469 665 2931 
Q 1097 3394 1784 3394 
Q 2450 3394 2872 2941 
Q 3294 2488 3294 1666 
Q 3294 1616 3291 1516 
L 816 1516 
Q 847 969 1125 678 
Q 1403 388 1819 388 
Q 2128 388 2347 550 
Q 2566 713 2694 1069 
z
M 847 1978 
L 2700 1978 
Q 2663 2397 2488 2606 
Q 2219 2931 1791 2931 
Q 1403 2931 1139 2672 
Q 875 2413 847 1978 
z
" transform="scale(0.015625)"/>
       <path id="ArialMT-63" d="M 2588 1216 
L 3141 1144 
Q 3050 572 2676 248 
Q 2303 -75 1759 -75 
Q 1078 -75 664 370 
Q 250 816 250 1647 
Q 250 2184 428 2587 
Q 606 2991 970 3192 
Q 1334 3394 1763 3394 
Q 2303 3394 2647 3120 
Q 2991 2847 3088 2344 
L 2541 2259 
Q 2463 2594 2264 2762 
Q 2066 2931 1784 2931 
Q 1359 2931 1093 2626 
Q 828 2322 828 1663 
Q 828 994 1084 691 
Q 1341 388 1753 388 
Q 2084 388 2306 591 
Q 2528 794 2588 1216 
z
" transform="scale(0.015625)"/>
       <path id="ArialMT-68" d="M 422 0 
L 422 4581 
L 984 4581 
L 984 2938 
Q 1378 3394 1978 3394 
Q 2347 3394 2619 3248 
Q 2891 3103 3008 2847 
Q 3125 2591 3125 2103 
L 3125 0 
L 2563 0 
L 2563 2103 
Q 2563 2525 2380 2717 
Q 2197 2909 1863 2909 
Q 1613 2909 1392 2779 
Q 1172 2650 1078 2428 
Q 984 2206 984 1816 
L 984 0 
L 422 0 
z
" transform="scale(0.015625)"/>
       <path id="ArialMT-61" d="M 2588 409 
Q 2275 144 1986 34 
Q 1697 -75 1366 -75 
Q 819 -75 525 192 
Q 231 459 231 875 
Q 231 1119 342 1320 
Q 453 1522 633 1644 
Q 813 1766 1038 1828 
Q 1203 1872 1538 1913 
Q 2219 1994 2541 2106 
Q 2544 2222 2544 2253 
Q 2544 2597 2384 2738 
Q 2169 2928 1744 2928 
Q 1347 2928 1158 2789 
Q 969 2650 878 2297 
L 328 2372 
Q 403 2725 575 2942 
Q 747 3159 1072 3276 
Q 1397 3394 1825 3394 
Q 2250 3394 2515 3294 
Q 2781 3194 2906 3042 
Q 3031 2891 3081 2659 
Q 3109 2516 3109 2141 
L 3109 1391 
Q 3109 606 3145 398 
Q 3181 191 3288 0 
L 2700 0 
Q 2613 175 2588 409 
z
M 2541 1666 
Q 2234 1541 1622 1453 
Q 1275 1403 1131 1340 
Q 988 1278 909 1158 
Q 831 1038 831 891 
Q 831 666 1001 516 
Q 1172 366 1500 366 
Q 1825 366 2078 508 
Q 2331 650 2450 897 
Q 2541 1088 2541 1459 
L 2541 1666 
z
" transform="scale(0.015625)"/>
      </defs>
      <use xlink:href="#ArialMT-46"/>
      <use xlink:href="#ArialMT-65" x="61.083984"/>
      <use xlink:href="#ArialMT-63" x="116.699219"/>
      <use xlink:href="#ArialMT-68" x="166.699219"/>
      <use xlink:href="#ArialMT-61" x="222.314453"/>
     </g>
    </g>
   </g>
   <g id="matplotlib.axis_2">
    <g id="ytick_1">
     <g id="line2d_8">
      <path d="M 47.75375 329.383359 
L 717.35375 329.383359 
" clip-path="url(#pfdce824646)" style="fill: none; stroke-dasharray: 1.85,0.8; stroke-dashoffset: 0; stroke: #808080; stroke-width: 0.5"/>
     </g>
     <g id="text_9">
      <!-- −1.5 -->
      <g style="fill: #262626" transform="translate(22.46125 332.246484) scale(0.08 -0.08)">
       <defs>
        <path id="ArialMT-2212" d="M 3381 1997 
L 356 1997 
L 356 2522 
L 3381 2522 
L 3381 1997 
z
" transform="scale(0.015625)"/>
        <path id="ArialMT-2e" d="M 581 0 
L 581 641 
L 1222 641 
L 1222 0 
L 581 0 
z
" transform="scale(0.015625)"/>
       </defs>
       <use xlink:href="#ArialMT-2212"/>
       <use xlink:href="#ArialMT-31" x="58.398438"/>
       <use xlink:href="#ArialMT-2e" x="114.013672"/>
       <use xlink:href="#ArialMT-35" x="141.796875"/>
      </g>
     </g>
    </g>
    <g id="ytick_2">
     <g id="line2d_9">
      <path d="M 47.75375 286.948324 
L 717.35375 286.948324 
" clip-path="url(#pfdce824646)" style="fill: none; stroke-dasharray: 1.85,0.8; stroke-dashoffset: 0; stroke: #808080; stroke-width: 0.5"/>
     </g>
     <g id="text_10">
      <!-- −1.0 -->
      <g style="fill: #262626" transform="translate(22.46125 289.811449) scale(0.08 -0.08)">
       <use xlink:href="#ArialMT-2212"/>
       <use xlink:href="#ArialMT-31" x="58.398438"/>
       <use xlink:href="#ArialMT-2e" x="114.013672"/>
       <use xlink:href="#ArialMT-30" x="141.796875"/>
      </g>
     </g>
    </g>
    <g id="ytick_3">
     <g id="line2d_10">
      <path d="M 47.75375 244.513288 
L 717.35375 244.513288 
" clip-path="url(#pfdce824646)" style="fill: none; stroke-dasharray: 1.85,0.8; stroke-dashoffset: 0; stroke: #808080; stroke-width: 0.5"/>
     </g>
     <g id="text_11">
      <!-- −0.5 -->
      <g style="fill: #262626" transform="translate(22.46125 247.376413) scale(0.08 -0.08)">
       <use xlink:href="#ArialMT-2212"/>
       <use xlink:href="#ArialMT-30" x="58.398438"/>
       <use xlink:href="#ArialMT-2e" x="114.013672"/>
       <use xlink:href="#ArialMT-35" x="141.796875"/>
      </g>
     </g>
    </g>
    <g id="ytick_4">
     <g id="line2d_11">
      <path d="M 47.75375 202.078253 
L 717.35375 202.078253 
" clip-path="url(#pfdce824646)" style="fill: none; stroke-dasharray: 1.85,0.8; stroke-dashoffset: 0; stroke: #808080; stroke-width: 0.5"/>
     </g>
     <g id="text_12">
      <!-- 0.0 -->
      <g style="fill: #262626" transform="translate(27.13375 204.941378) scale(0.08 -0.08)">
       <use xlink:href="#ArialMT-30"/>
       <use xlink:href="#ArialMT-2e" x="55.615234"/>
       <use xlink:href="#ArialMT-30" x="83.398438"/>
      </g>
     </g>
    </g>
    <g id="ytick_5">
     <g id="line2d_12">
      <path d="M 47.75375 159.643217 
L 717.35375 159.643217 
" clip-path="url(#pfdce824646)" style="fill: none; stroke-dasharray: 1.85,0.8; stroke-dashoffset: 0; stroke: #808080; stroke-width: 0.5"/>
     </g>
     <g id="text_13">
      <!-- 0.5 -->
      <g style="fill: #262626" transform="translate(27.13375 162.506342) scale(0.08 -0.08)">
       <use xlink:href="#ArialMT-30"/>
       <use xlink:href="#ArialMT-2e" x="55.615234"/>
       <use xlink:href="#ArialMT-35" x="83.398438"/>
      </g>
     </g>
    </g>
    <g id="ytick_6">
     <g id="line2d_13">
      <path d="M 47.75375 117.208182 
L 717.35375 117.208182 
" clip-path="url(#pfdce824646)" style="fill: none; stroke-dasharray: 1.85,0.8; stroke-dashoffset: 0; stroke: #808080; stroke-width: 0.5"/>
     </g>
     <g id="text_14">
      <!-- 1.0 -->
      <g style="fill: #262626" transform="translate(27.13375 120.071307) scale(0.08 -0.08)">
       <use xlink:href="#ArialMT-31"/>
       <use xlink:href="#ArialMT-2e" x="55.615234"/>
       <use xlink:href="#ArialMT-30" x="83.398438"/>
      </g>
     </g>
    </g>
    <g id="ytick_7">
     <g id="line2d_14">
      <path d="M 47.75375 74.773146 
L 717.35375 74.773146 
" clip-path="url(#pfdce824646)" style="fill: none; stroke-dasharray: 1.85,0.8; stroke-dashoffset: 0; stroke: #808080; stroke-width: 0.5"/>
     </g>
     <g id="text_15">
      <!-- 1.5 -->
      <g style="fill: #262626" transform="translate(27.13375 77.636271) scale(0.08 -0.08)">
       <use xlink:href="#ArialMT-31"/>
       <use xlink:href="#ArialMT-2e" x="55.615234"/>
       <use xlink:href="#ArialMT-35" x="83.398438"/>
      </g>
     </g>
    </g>
    <g id="ytick_8">
     <g id="line2d_15">
      <path d="M 47.75375 32.338111 
L 717.35375 32.338111 
" clip-path="url(#pfdce824646)" style="fill: none; stroke-dasharray: 1.85,0.8; stroke-dashoffset: 0; stroke: #808080; stroke-width: 0.5"/>
     </g>
     <g id="text_16">
      <!-- 2.0 -->
      <g style="fill: #262626" transform="translate(27.13375 35.201236) scale(0.08 -0.08)">
       <use xlink:href="#ArialMT-32"/>
       <use xlink:href="#ArialMT-2e" x="55.615234"/>
       <use xlink:href="#ArialMT-30" x="83.398438"/>
      </g>
     </g>
    </g>
    <g id="text_17">
     <!-- Precipitación (mm) -->
     <g style="fill: #262626" transform="translate(15.935625 239.71875) rotate(-90) scale(0.12 -0.12)">
      <defs>
       <path id="ArialMT-50" d="M 494 0 
L 494 4581 
L 2222 4581 
Q 2678 4581 2919 4538 
Q 3256 4481 3484 4323 
Q 3713 4166 3852 3881 
Q 3991 3597 3991 3256 
Q 3991 2672 3619 2267 
Q 3247 1863 2275 1863 
L 1100 1863 
L 1100 0 
L 494 0 
z
M 1100 2403 
L 2284 2403 
Q 2872 2403 3119 2622 
Q 3366 2841 3366 3238 
Q 3366 3525 3220 3729 
Q 3075 3934 2838 4000 
Q 2684 4041 2272 4041 
L 1100 4041 
L 1100 2403 
z
" transform="scale(0.015625)"/>
       <path id="ArialMT-72" d="M 416 0 
L 416 3319 
L 922 3319 
L 922 2816 
Q 1116 3169 1280 3281 
Q 1444 3394 1641 3394 
Q 1925 3394 2219 3213 
L 2025 2691 
Q 1819 2813 1613 2813 
Q 1428 2813 1281 2702 
Q 1134 2591 1072 2394 
Q 978 2094 978 1738 
L 978 0 
L 416 0 
z
" transform="scale(0.015625)"/>
       <path id="ArialMT-69" d="M 425 3934 
L 425 4581 
L 988 4581 
L 988 3934 
L 425 3934 
z
M 425 0 
L 425 3319 
L 988 3319 
L 988 0 
L 425 0 
z
" transform="scale(0.015625)"/>
       <path id="ArialMT-70" d="M 422 -1272 
L 422 3319 
L 934 3319 
L 934 2888 
Q 1116 3141 1344 3267 
Q 1572 3394 1897 3394 
Q 2322 3394 2647 3175 
Q 2972 2956 3137 2557 
Q 3303 2159 3303 1684 
Q 3303 1175 3120 767 
Q 2938 359 2589 142 
Q 2241 -75 1856 -75 
Q 1575 -75 1351 44 
Q 1128 163 984 344 
L 984 -1272 
L 422 -1272 
z
M 931 1641 
Q 931 1000 1190 694 
Q 1450 388 1819 388 
Q 2194 388 2461 705 
Q 2728 1022 2728 1688 
Q 2728 2322 2467 2637 
Q 2206 2953 1844 2953 
Q 1484 2953 1207 2617 
Q 931 2281 931 1641 
z
" transform="scale(0.015625)"/>
       <path id="ArialMT-74" d="M 1650 503 
L 1731 6 
Q 1494 -44 1306 -44 
Q 1000 -44 831 53 
Q 663 150 594 308 
Q 525 466 525 972 
L 525 2881 
L 113 2881 
L 113 3319 
L 525 3319 
L 525 4141 
L 1084 4478 
L 1084 3319 
L 1650 3319 
L 1650 2881 
L 1084 2881 
L 1084 941 
Q 1084 700 1114 631 
Q 1144 563 1211 522 
Q 1278 481 1403 481 
Q 1497 481 1650 503 
z
" transform="scale(0.015625)"/>
       <path id="ArialMT-f3" d="M 213 1659 
Q 213 2581 725 3025 
Q 1153 3394 1769 3394 
Q 2453 3394 2887 2945 
Q 3322 2497 3322 1706 
Q 3322 1066 3130 698 
Q 2938 331 2570 128 
Q 2203 -75 1769 -75 
Q 1072 -75 642 372 
Q 213 819 213 1659 
z
M 791 1659 
Q 791 1022 1069 705 
Q 1347 388 1769 388 
Q 2188 388 2466 706 
Q 2744 1025 2744 1678 
Q 2744 2294 2464 2611 
Q 2184 2928 1769 2928 
Q 1347 2928 1069 2612 
Q 791 2297 791 1659 
z
M 1454 3731 
L 1869 4606 
L 2607 4606 
L 1919 3731 
L 1454 3731 
z
" transform="scale(0.015625)"/>
       <path id="ArialMT-6e" d="M 422 0 
L 422 3319 
L 928 3319 
L 928 2847 
Q 1294 3394 1984 3394 
Q 2284 3394 2536 3286 
Q 2788 3178 2913 3003 
Q 3038 2828 3088 2588 
Q 3119 2431 3119 2041 
L 3119 0 
L 2556 0 
L 2556 2019 
Q 2556 2363 2490 2533 
Q 2425 2703 2258 2804 
Q 2091 2906 1866 2906 
Q 1506 2906 1245 2678 
Q 984 2450 984 1813 
L 984 0 
L 422 0 
z
" transform="scale(0.015625)"/>
       <path id="ArialMT-20" transform="scale(0.015625)"/>
       <path id="ArialMT-28" d="M 1497 -1347 
Q 1031 -759 709 28 
Q 388 816 388 1659 
Q 388 2403 628 3084 
Q 909 3875 1497 4659 
L 1900 4659 
Q 1522 4009 1400 3731 
Q 1209 3300 1100 2831 
Q 966 2247 966 1656 
Q 966 153 1900 -1347 
L 1497 -1347 
z
" transform="scale(0.015625)"/>
       <path id="ArialMT-6d" d="M 422 0 
L 422 3319 
L 925 3319 
L 925 2853 
Q 1081 3097 1340 3245 
Q 1600 3394 1931 3394 
Q 2300 3394 2536 3241 
Q 2772 3088 2869 2813 
Q 3263 3394 3894 3394 
Q 4388 3394 4653 3120 
Q 4919 2847 4919 2278 
L 4919 0 
L 4359 0 
L 4359 2091 
Q 4359 2428 4304 2576 
Q 4250 2725 4106 2815 
Q 3963 2906 3769 2906 
Q 3419 2906 3187 2673 
Q 2956 2441 2956 1928 
L 2956 0 
L 2394 0 
L 2394 2156 
Q 2394 2531 2256 2718 
Q 2119 2906 1806 2906 
Q 1569 2906 1367 2781 
Q 1166 2656 1075 2415 
Q 984 2175 984 1722 
L 984 0 
L 422 0 
z
" transform="scale(0.015625)"/>
       <path id="ArialMT-29" d="M 791 -1347 
L 388 -1347 
Q 1322 153 1322 1656 
Q 1322 2244 1188 2822 
Q 1081 3291 891 3722 
Q 769 4003 388 4659 
L 791 4659 
Q 1378 3875 1659 3084 
Q 1900 2403 1900 1659 
Q 1900 816 1576 28 
Q 1253 -759 791 -1347 
z
" transform="scale(0.015625)"/>
      </defs>
      <use xlink:href="#ArialMT-50"/>
      <use xlink:href="#ArialMT-72" x="66.699219"/>
      <use xlink:href="#ArialMT-65" x="100"/>
      <use xlink:href="#ArialMT-63" x="155.615234"/>
      <use xlink:href="#ArialMT-69" x="205.615234"/>
      <use xlink:href="#ArialMT-70" x="227.832031"/>
      <use xlink:href="#ArialMT-69" x="283.447266"/>
      <use xlink:href="#ArialMT-74" x="305.664062"/>
      <use xlink:href="#ArialMT-61" x="333.447266"/>
      <use xlink:href="#ArialMT-63" x="389.0625"/>
      <use xlink:href="#ArialMT-69" x="439.0625"/>
      <use xlink:href="#ArialMT-f3" x="461.279297"/>
      <use xlink:href="#ArialMT-6e" x="516.894531"/>
      <use xlink:href="#ArialMT-20" x="572.509766"/>
      <use xlink:href="#ArialMT-28" x="600.292969"/>
      <use xlink:href="#ArialMT-6d" x="633.59375"/>
      <use xlink:href="#ArialMT-6d" x="716.894531"/>
      <use xlink:href="#ArialMT-29" x="800.195312"/>
     </g>
    </g>
   </g>
   <g id="line2d_16">
    <path d="M 78.190114 227.901661 
L 79.093875 174.062158 
L 79.968484 340.911562 
L 83.49607 270.231318 
L 84.370678 236.681725 
L 85.27444 112.910667 
L 86.149048 148.591327 
L 87.05281 137.543653 
L 87.956571 110.755726 
L 88.831179 119.888735 
L 89.734941 198.61378 
L 90.609549 340.911562 
L 92.417073 237.20533 
L 93.233374 272.020955 
L 94.137136 203.777598 
L 95.011744 115.593872 
L 95.915505 75.204651 
L 96.790114 105.362962 
L 97.693875 113.025594 
L 98.597637 100.513577 
L 99.472245 122.164293 
L 100.376007 187.427442 
L 101.250615 340.911562 
L 102.154377 304.956641 
L 103.058139 340.911562 
L 103.87444 340.911562 
L 105.65281 146.180213 
L 106.556571 121.018742 
L 107.431179 82.252064 
L 108.334941 63.116099 
L 109.238703 59.866935 
L 110.113311 160.574422 
L 111.017073 218.235231 
L 111.891681 212.927711 
L 112.795443 179.509459 
L 114.544659 340.911562 
L 115.448421 144.012344 
L 116.323029 112.034631 
L 117.226791 91.263091 
L 118.101399 131.33076 
L 119.005161 107.207448 
L 119.908922 116.347814 
L 120.783531 188.705537 
L 121.687292 278.733688 
L 122.5619 340.911562 
L 123.465662 340.911562 
L 124.369424 196.742684 
L 125.185725 316.063779 
L 126.089487 161.639299 
L 126.964095 211.005035 
L 127.867857 121.06089 
L 128.742465 136.159633 
L 129.646226 143.507842 
L 130.549988 97.025474 
L 131.424596 163.230787 
L 132.328358 340.911562 
L 133.202966 340.911562 
L 134.106728 148.651115 
L 135.826791 340.911562 
L 136.730553 249.865253 
L 137.605161 211.638476 
L 138.508922 136.771736 
L 139.383531 129.25427 
L 140.287292 100.380721 
L 141.191054 64.632218 
L 142.065662 126.101725 
L 142.969424 121.950959 
L 143.844032 200.67724 
L 145.651556 281.834314 
L 146.467857 340.911562 
L 147.371618 158.765644 
L 148.246226 162.502917 
L 149.149988 75.738722 
L 150.024596 126.281183 
L 150.928358 86.378507 
L 151.83212 144.974521 
L 152.706728 134.749653 
L 153.61049 340.911562 
L 154.485098 340.911562 
L 155.38886 269.085057 
L 156.292621 340.911562 
L 158.041838 239.636884 
L 158.916446 204.194555 
L 159.820208 143.563733 
L 160.694816 93.205288 
L 161.598578 109.790349 
L 162.502339 109.495459 
L 163.376947 146.702892 
L 164.280709 230.350828 
L 165.155317 290.127148 
L 166.059079 239.915084 
L 166.962841 340.911562 
L 167.779142 250.568656 
L 168.682904 252.379591 
L 169.557512 204.194555 
L 170.461274 128.097847 
L 171.335882 112.75767 
L 172.239643 158.628389 
L 173.143405 105.433193 
L 174.018013 170.636554 
L 174.921775 179.230716 
L 175.796383 244.613393 
L 176.700145 340.911562 
L 178.420208 340.911562 
L 179.323969 163.524064 
L 181.102339 120.096845 
L 181.976947 174.233823 
L 182.880709 130.711646 
L 183.784471 122.078894 
L 184.659079 142.729633 
L 185.562841 182.170601 
L 186.437449 245.236649 
L 187.341211 340.911562 
L 188.244973 340.911562 
L 189.061274 250.924735 
L 189.965035 265.843845 
L 190.839643 160.78612 
L 191.743405 108.616743 
L 192.618013 85.527398 
L 193.521775 99.062851 
L 194.425537 141.631456 
L 195.300145 120.64037 
L 197.078515 340.911562 
L 197.982277 275.892402 
L 198.886038 340.911562 
L 199.731493 243.694504 
L 200.635255 203.089324 
L 201.509863 115.003346 
L 202.413625 93.420221 
L 203.288233 137.2855 
L 204.191995 98.964784 
L 205.095756 94.907765 
L 205.970364 227.469044 
L 206.874126 214.415481 
L 207.748734 322.647838 
L 208.652496 229.222527 
L 209.556258 244.304998 
L 210.372559 266.893505 
L 212.150929 140.98001 
L 213.05469 149.735584 
L 213.929299 127.411834 
L 214.83306 61.268821 
L 215.736822 128.928801 
L 216.61143 139.587142 
L 219.293562 279.482447 
L 223.695756 121.568333 
L 224.570364 106.885425 
L 225.474126 105.047612 
L 226.377888 123.412589 
L 228.156258 288.086753 
L 229.030866 304.956641 
L 229.934628 180.164548 
L 230.838389 340.911562 
L 231.65469 246.834196 
L 232.558452 178.584917 
L 233.43306 180.164548 
L 234.336822 90.039965 
L 235.21143 223.534449 
L 236.115192 111.732002 
L 237.018954 130.097272 
L 237.893562 126.596187 
L 238.797324 272.637697 
L 239.671932 297.2446 
L 240.575694 288.086753 
L 241.479455 241.331882 
L 242.32491 290.127148 
L 243.228672 168.314187 
L 244.10328 165.310062 
L 245.007042 84.348592 
L 245.88165 154.368995 
L 246.785411 166.220564 
L 247.689173 171.045106 
L 248.563781 135.300568 
L 249.467543 266.365039 
L 250.342151 231.505653 
L 251.245913 229.896404 
L 252.149675 340.911562 
L 252.965976 199.379109 
L 253.869737 245.236649 
L 254.744346 173.976491 
L 255.648107 171.045106 
L 256.522716 120.13853 
L 257.426477 38.511562 
L 258.330239 87.237384 
L 259.204847 167.765247 
L 260.108609 340.911562 
L 260.983217 194.928526 
L 261.886979 340.911562 
L 262.790741 322.647838 
L 263.607042 340.911562 
L 264.510803 322.647838 
L 265.385411 198.36086 
L 266.289173 88.861983 
L 267.163781 103.900862 
L 268.067543 133.511668 
L 268.971305 97.893024 
L 269.845913 181.303211 
L 270.749675 243.092188 
L 271.624283 340.911562 
L 273.431806 340.911562 
L 274.248107 246.510032 
L 275.151869 236.422089 
L 276.026477 192.134837 
L 276.930239 112.300307 
L 277.804847 147.936796 
L 278.708609 106.280366 
L 279.612371 73.047444 
L 280.486979 134.252134 
L 281.390741 265.329695 
L 282.265349 238.001849 
L 283.169111 262.857382 
L 284.072872 340.911562 
L 284.918327 219.510488 
L 285.822089 206.181628 
L 287.600458 65.870961 
L 288.475067 87.06498 
L 289.378828 145.718632 
L 290.28259 81.328876 
L 291.157198 160.433641 
L 292.935568 260.532636 
L 293.83933 340.911562 
L 294.743092 259.200599 
L 295.559393 340.911562 
L 296.463154 209.299593 
L 297.337763 157.539716 
L 298.241524 95.346224 
L 299.116132 78.061416 
L 300.019894 119.267493 
L 300.923656 106.671398 
L 301.798264 136.159633 
L 302.702026 304.956641 
L 303.576634 291.200818 
L 304.480396 295.930884 
L 305.384158 340.911562 
L 306.200458 249.517821 
L 307.10422 208.390932 
L 307.978828 177.132328 
L 308.88259 103.590673 
L 309.757198 111.09242 
L 310.66096 189.463405 
L 311.564722 109.201566 
L 312.43933 231.975339 
L 313.343092 283.50045 
L 314.2177 340.911562 
L 315.121462 281.031802 
L 316.025223 340.911562 
L 317.745286 340.911562 
L 318.619894 143.619665 
L 319.523656 99.818265 
L 320.398264 83.074127 
L 321.302026 151.828299 
L 322.205788 108.216942 
L 323.080396 141.250776 
L 323.984158 249.517821 
L 324.858766 340.911562 
L 325.762527 340.911562 
L 326.666289 269.085057 
L 327.511744 316.063779 
L 328.415505 215.945323 
L 329.290114 163.011633 
L 331.068484 78.979947 
L 331.972245 139.269241 
L 332.876007 156.400787 
L 333.750615 115.633387 
L 334.654377 199.379109 
L 335.528985 303.226568 
L 336.432747 235.907056 
L 337.336509 256.661917 
L 338.15281 221.387808 
L 339.056571 255.053149 
L 339.931179 110.420338 
L 340.834941 63.79215 
L 341.709549 175.887123 
L 342.613311 122.893766 
L 343.517073 91.835428 
L 344.391681 191.343596 
L 345.295443 242.794019 
L 346.170051 266.365039 
L 347.073813 261.446126 
L 347.977574 266.365039 
L 348.793875 189.354569 
L 349.697637 243.694504 
L 350.572245 200.154531 
L 351.476007 74.195384 
L 352.350615 165.460985 
L 353.254377 155.27954 
L 354.158139 71.252782 
L 355.032747 202.680271 
L 355.936509 262.381292 
L 356.811117 340.911562 
L 357.714879 340.911562 
L 358.61864 226.614865 
L 359.434941 322.647838 
L 360.338703 204.194555 
L 361.213311 155.27954 
L 362.117073 173.549798 
L 362.991681 119.143795 
L 363.895443 136.720545 
L 364.799205 107.963473 
L 365.673813 235.144846 
L 366.577574 260.532636 
L 367.452183 257.911377 
L 368.355944 179.976704 
L 369.259706 340.911562 
L 370.105161 340.911562 
L 371.008922 237.734835 
L 371.883531 158.286399 
L 372.787292 142.45361 
L 373.6619 112.490579 
L 374.565662 98.443555 
L 375.469424 125.077414 
L 376.344032 201.736921 
L 377.247794 185.149922 
L 378.122402 316.063779 
L 379.026164 217.697976 
L 379.929926 213.749216 
L 380.746226 196.010413 
L 381.649988 192.821298 
L 382.524596 159.455903 
L 383.428358 58.505453 
L 386.11049 152.960724 
L 386.985098 194.217929 
L 387.88886 304.956641 
L 388.763468 297.2446 
L 389.66723 340.911562 
L 390.570991 216.814453 
L 391.387292 264.321672 
L 392.291054 215.260023 
L 393.165662 127.411834 
L 394.069424 154.239842 
L 394.944032 158.696984 
L 395.847794 132.244323 
L 396.751556 188.063214 
L 397.626164 145.661132 
L 398.529926 313.389142 
L 399.404534 340.911562 
L 400.308295 250.568656 
L 401.212057 192.70635 
L 402.028358 228.557705 
L 402.93212 340.911562 
L 403.806728 244.613393 
L 404.71049 121.525928 
L 406.48886 144.860689 
L 407.392621 92.016905 
L 408.26723 181.207552 
L 409.170991 229.446133 
L 410.0456 236.681725 
L 410.949361 209.299593 
L 411.853123 245.868764 
L 412.698578 234.643403 
L 413.602339 340.911562 
L 414.476947 151.765895 
L 415.380709 94.253992 
L 416.255317 119.681142 
L 417.159079 109.164899 
L 418.062841 69.084106 
L 418.937449 186.278373 
L 419.841211 340.911562 
L 420.715819 340.911562 
L 421.619581 322.647838 
L 422.523342 261.910925 
L 423.339643 244.923932 
L 424.243405 185.762936 
L 425.118013 157.068563 
L 426.021775 99.653504 
L 426.896383 110.345984 
L 427.800145 148.890748 
L 428.703907 103.797345 
L 429.578515 211.797982 
L 430.482277 228.778324 
L 431.356885 297.2446 
L 432.260647 340.911562 
L 433.164408 239.360348 
L 433.980709 340.911562 
L 434.884471 168.788233 
L 435.759079 153.725506 
L 436.662841 102.836964 
L 437.537449 112.948959 
L 438.441211 166.06798 
L 439.344973 146.761192 
L 440.219581 168.788233 
L 441.997951 316.063779 
L 442.901712 340.911562 
L 443.805474 340.911562 
L 444.621775 202.139334 
L 445.525537 202.544562 
L 446.400145 183.246922 
L 447.303907 80.602051 
L 448.178515 120.55652 
L 449.082277 171.621256 
L 449.986038 138.062533 
L 450.860647 300.072182 
L 451.764408 308.812642 
L 452.639016 340.911562 
L 453.542778 340.911562 
L 454.44654 229.896404 
L 455.291995 253.126214 
L 456.195756 340.911562 
L 457.070364 194.572181 
L 457.974126 103.110301 
L 458.848734 139.058028 
L 459.752496 91.805217 
L 460.656258 115.989848 
L 461.530866 257.07416 
L 462.434628 340.911562 
L 464.212998 340.911562 
L 465.116759 300.072182 
L 465.93306 269.085057 
L 466.836822 247.8213 
L 467.71143 153.151171 
L 468.615192 118.896946 
L 469.4898 166.06798 
L 470.393562 70.210718 
L 471.297324 144.520213 
L 472.171932 149.070979 
L 473.075694 304.956641 
L 473.950302 273.903952 
L 474.854063 316.063779 
L 475.757825 233.900963 
L 476.574126 283.50045 
L 477.477888 199.250861 
L 478.352496 137.028197 
L 479.256258 98.378612 
L 480.130866 91.323171 
L 481.034628 161.854214 
L 481.938389 112.41442 
L 482.812998 145.431569 
L 483.716759 283.50045 
L 484.591368 340.911562 
L 487.215192 340.911562 
L 488.118954 234.643403 
L 488.993562 150.774543 
L 489.897324 84.65591 
L 491.675694 145.776175 
L 492.579455 106.174022 
L 493.454063 130.522107 
L 494.357825 220.440713 
L 495.232433 340.911562 
L 496.136195 149.493222 
L 497.039957 230.123091 
L 497.885411 250.568656 
L 498.789173 215.945323 
L 499.663781 125.743987 
L 500.567543 151.454665 
L 501.442151 78.821862 
L 502.345913 91.986634 
L 503.249675 115.081846 
L 504.124283 132.437991 
L 505.028045 175.185972 
L 505.902653 283.50045 
L 506.806415 340.911562 
L 507.710176 285.256585 
L 508.526477 283.50045 
L 509.430239 232.211893 
L 510.304847 253.886346 
L 511.208609 89.921493 
L 512.083217 119.764117 
L 512.986979 143.899943 
L 513.890741 87.785433 
L 514.765349 202.680271 
L 515.669111 227.254131 
L 516.543719 340.911562 
L 517.44748 244.304998 
L 518.351242 340.911562 
L 519.167543 340.911562 
L 520.945913 138.532496 
L 521.849675 96.833807 
L 522.724283 135.552262 
L 523.628045 96.801902 
L 524.531806 122.292558 
L 525.406415 133.168469 
L 526.310176 272.020955 
L 527.184784 340.911562 
L 528.088546 207.054984 
L 528.992308 297.2446 
L 529.808609 214.081325 
L 530.712371 227.469044 
L 531.586979 92.016905 
L 532.490741 116.827466 
L 533.365349 115.870862 
L 534.269111 56.002839 
L 535.172872 119.061432 
L 537.82585 184.643577 
L 538.729612 340.911562 
L 540.478828 340.911562 
L 541.38259 209.913704 
L 542.257198 175.098847 
L 543.16096 107.064181 
L 544.035568 129.161145 
L 544.93933 87.843309 
L 545.843092 113.718412 
L 546.7177 169.826761 
L 547.621462 340.911562 
L 548.49607 252.011175 
L 549.399832 340.911562 
L 550.303593 322.647838 
L 551.119894 178.676784 
L 552.023656 168.946981 
L 552.898264 143.956123 
L 553.802026 130.806584 
L 554.676634 130.522107 
L 555.580396 116.188531 
L 556.484158 96.41991 
L 557.358766 133.856358 
L 558.262527 247.160768 
L 559.137136 235.39756 
L 560.040897 340.911562 
L 560.944659 300.072182 
L 561.76096 340.911562 
L 562.664722 279.482447 
L 563.53933 246.188235 
L 564.443092 140.495016 
L 565.3177 149.493222 
L 566.221462 100.913332 
L 567.125223 62.243918 
L 567.999832 145.661132 
L 568.903593 210.223324 
L 569.778201 340.911562 
L 570.681963 340.911562 
L 571.585725 308.812642 
L 572.402026 290.127148 
L 573.305788 210.378785 
L 574.180396 149.917875 
L 575.084158 128.558435 
L 575.958766 95.126731 
L 576.862527 98.119307 
L 577.766289 137.337062 
L 578.640897 139.322134 
L 579.544659 279.482447 
L 580.419267 340.911562 
L 581.323029 340.911562 
L 582.226791 288.086753 
L 583.072245 304.956641 
L 583.976007 205.463976 
L 584.850615 131.666122 
L 585.754377 112.034631 
L 586.628985 141.795184 
L 587.532747 146.528263 
L 588.436509 63.273441 
L 589.311117 188.598021 
L 590.214879 272.020955 
L 591.089487 288.086753 
L 591.993248 279.482447 
L 592.89701 308.812642 
L 593.713311 239.360348 
L 594.617073 174.319821 
L 595.491681 165.159467 
L 596.395443 107.530659 
L 597.270051 113.5254 
L 598.173813 139.428028 
L 599.077574 81.166882 
L 599.952183 219.880598 
L 600.855944 283.50045 
L 601.730553 279.482447 
L 602.634314 212.118391 
L 603.538076 228.778324 
L 604.354377 234.147167 
L 605.258139 220.253341 
L 606.132747 186.693786 
L 607.036509 104.524518 
L 607.911117 151.828299 
L 608.814879 175.53562 
L 609.71864 104.385548 
L 610.593248 164.11433 
L 611.49701 201.20467 
L 612.371618 340.911562 
L 614.179142 340.911562 
L 614.995443 278.733688 
L 615.899205 255.053149 
L 616.773813 173.549798 
L 617.677574 62.377613 
L 618.552183 187.111965 
L 619.455944 91.413363 
L 620.359706 110.383153 
L 621.234314 107.386862 
L 622.138076 207.054984 
L 623.012684 340.911562 
L 623.916446 212.927711 
L 624.820208 304.956641 
L 625.665662 246.188235 
L 627.444032 134.004542 
L 628.347794 108.108222 
L 629.222402 110.086244 
L 630.126164 136.669387 
L 631.029926 76.481096 
L 631.904534 164.560328 
L 632.808295 316.063779 
L 633.682904 340.911562 
L 635.490427 340.911562 
L 636.306728 218.777998 
L 637.21049 221.771531 
L 638.085098 155.018218 
L 638.98886 163.011633 
L 639.863468 127.411834 
L 640.76723 122.506774 
L 641.670991 183.246922 
L 642.5456 192.021173 
L 643.449361 231.505653 
L 644.323969 340.911562 
L 645.227731 308.812642 
L 646.131493 340.911562 
L 646.947794 232.211893 
L 647.851556 172.536698 
L 648.726164 143.340414 
L 650.504534 104.733384 
L 651.408295 114.729163 
L 652.312057 143.340414 
L 653.186665 162.069785 
L 654.090427 218.05554 
L 654.965035 308.812642 
L 655.868797 264.321672 
L 656.772559 199.894917 
L 657.58886 340.911562 
L 658.492621 193.399324 
L 659.36723 118.979149 
L 663.827731 189.137469 
L 664.731493 293.470811 
L 665.606101 340.911562 
L 666.509863 340.911562 
L 667.413625 277.283772 
L 668.259079 275.892402 
L 669.162841 224.744299 
L 670.037449 212.2793 
L 670.941211 79.455762 
L 671.815819 107.999638 
L 672.719581 141.849837 
L 673.623342 105.714679 
L 676.276321 340.911562 
L 677.180082 257.07416 
L 678.083844 233.900963 
L 678.900145 308.812642 
L 679.803907 261.446126 
L 680.678515 189.029204 
L 681.582277 83.239395 
L 682.456885 147.346692 
L 683.360647 122.335357 
L 684.264408 69.538008 
L 685.139016 135.501859 
L 686.042778 232.211893 
L 686.917386 267.97322 
L 686.917386 267.97322 
" clip-path="url(#pfdce824646)" style="fill: none; stroke: #194a7a; stroke-width: 1.2; stroke-linecap: round"/>
   </g>
   <g id="patch_3">
    <path d="M 47.75375 356.031562 
L 47.75375 23.391562 
" style="fill: none; stroke: #cccccc; stroke-width: 1.25; stroke-linejoin: miter; stroke-linecap: square"/>
   </g>
   <g id="patch_4">
    <path d="M 717.35375 356.031562 
L 717.35375 23.391562 
" style="fill: none; stroke: #cccccc; stroke-width: 1.25; stroke-linejoin: miter; stroke-linecap: square"/>
   </g>
   <g id="patch_5">
    <path d="M 47.75375 356.031562 
L 717.35375 356.031562 
" style="fill: none; stroke: #cccccc; stroke-width: 1.25; stroke-linejoin: miter; stroke-linecap: square"/>
   </g>
   <g id="patch_6">
    <path d="M 47.75375 23.391562 
L 717.35375 23.391562 
" style="fill: none; stroke: #cccccc; stroke-width: 1.25; stroke-linejoin: miter; stroke-linecap: square"/>
   </g>
   <g id="text_18">
    <!-- Yeo-Johnson Estandarizado Precipitación Mensual en Puebla -->
    <g style="fill: #262626" transform="translate(177.964531 17.391562) scale(0.14 -0.14)">
     <defs>
      <path id="Arial-BoldMT-59" d="M 1669 0 
L 1669 1928 
L -9 4581 
L 1075 4581 
L 2153 2769 
L 3209 4581 
L 4275 4581 
L 2591 1922 
L 2591 0 
L 1669 0 
z
" transform="scale(0.015625)"/>
      <path id="Arial-BoldMT-65" d="M 2381 1056 
L 3256 909 
Q 3088 428 2723 176 
Q 2359 -75 1813 -75 
Q 947 -75 531 491 
Q 203 944 203 1634 
Q 203 2459 634 2926 
Q 1066 3394 1725 3394 
Q 2466 3394 2894 2905 
Q 3322 2416 3303 1406 
L 1103 1406 
Q 1113 1016 1316 798 
Q 1519 581 1822 581 
Q 2028 581 2168 693 
Q 2309 806 2381 1056 
z
M 2431 1944 
Q 2422 2325 2234 2523 
Q 2047 2722 1778 2722 
Q 1491 2722 1303 2513 
Q 1116 2303 1119 1944 
L 2431 1944 
z
" transform="scale(0.015625)"/>
      <path id="Arial-BoldMT-6f" d="M 256 1706 
Q 256 2144 472 2553 
Q 688 2963 1083 3178 
Q 1478 3394 1966 3394 
Q 2719 3394 3200 2905 
Q 3681 2416 3681 1669 
Q 3681 916 3195 420 
Q 2709 -75 1972 -75 
Q 1516 -75 1102 131 
Q 688 338 472 736 
Q 256 1134 256 1706 
z
M 1156 1659 
Q 1156 1166 1390 903 
Q 1625 641 1969 641 
Q 2313 641 2545 903 
Q 2778 1166 2778 1666 
Q 2778 2153 2545 2415 
Q 2313 2678 1969 2678 
Q 1625 2678 1390 2415 
Q 1156 2153 1156 1659 
z
" transform="scale(0.015625)"/>
      <path id="Arial-BoldMT-2d" d="M 359 1222 
L 359 2100 
L 2084 2100 
L 2084 1222 
L 359 1222 
z
" transform="scale(0.015625)"/>
      <path id="Arial-BoldMT-4a" d="M 2119 4581 
L 3041 4581 
L 3041 1681 
Q 3041 1113 2941 806 
Q 2806 406 2453 164 
Q 2100 -78 1522 -78 
Q 844 -78 478 301 
Q 113 681 109 1416 
L 981 1516 
Q 997 1122 1097 959 
Q 1247 713 1553 713 
Q 1863 713 1991 889 
Q 2119 1066 2119 1622 
L 2119 4581 
z
" transform="scale(0.015625)"/>
      <path id="Arial-BoldMT-68" d="M 1334 4581 
L 1334 2897 
Q 1759 3394 2350 3394 
Q 2653 3394 2897 3281 
Q 3141 3169 3264 2994 
Q 3388 2819 3433 2606 
Q 3478 2394 3478 1947 
L 3478 0 
L 2600 0 
L 2600 1753 
Q 2600 2275 2550 2415 
Q 2500 2556 2373 2639 
Q 2247 2722 2056 2722 
Q 1838 2722 1666 2615 
Q 1494 2509 1414 2295 
Q 1334 2081 1334 1663 
L 1334 0 
L 456 0 
L 456 4581 
L 1334 4581 
z
" transform="scale(0.015625)"/>
      <path id="Arial-BoldMT-6e" d="M 3478 0 
L 2600 0 
L 2600 1694 
Q 2600 2231 2544 2389 
Q 2488 2547 2361 2634 
Q 2234 2722 2056 2722 
Q 1828 2722 1647 2597 
Q 1466 2472 1398 2265 
Q 1331 2059 1331 1503 
L 1331 0 
L 453 0 
L 453 3319 
L 1269 3319 
L 1269 2831 
Q 1703 3394 2363 3394 
Q 2653 3394 2893 3289 
Q 3134 3184 3257 3021 
Q 3381 2859 3429 2653 
Q 3478 2447 3478 2063 
L 3478 0 
z
" transform="scale(0.015625)"/>
      <path id="Arial-BoldMT-73" d="M 150 947 
L 1031 1081 
Q 1088 825 1259 692 
Q 1431 559 1741 559 
Q 2081 559 2253 684 
Q 2369 772 2369 919 
Q 2369 1019 2306 1084 
Q 2241 1147 2013 1200 
Q 950 1434 666 1628 
Q 272 1897 272 2375 
Q 272 2806 612 3100 
Q 953 3394 1669 3394 
Q 2350 3394 2681 3172 
Q 3013 2950 3138 2516 
L 2309 2363 
Q 2256 2556 2107 2659 
Q 1959 2763 1684 2763 
Q 1338 2763 1188 2666 
Q 1088 2597 1088 2488 
Q 1088 2394 1175 2328 
Q 1294 2241 1995 2081 
Q 2697 1922 2975 1691 
Q 3250 1456 3250 1038 
Q 3250 581 2869 253 
Q 2488 -75 1741 -75 
Q 1063 -75 667 200 
Q 272 475 150 947 
z
" transform="scale(0.015625)"/>
      <path id="Arial-BoldMT-20" transform="scale(0.015625)"/>
      <path id="Arial-BoldMT-45" d="M 466 0 
L 466 4581 
L 3863 4581 
L 3863 3806 
L 1391 3806 
L 1391 2791 
L 3691 2791 
L 3691 2019 
L 1391 2019 
L 1391 772 
L 3950 772 
L 3950 0 
L 466 0 
z
" transform="scale(0.015625)"/>
      <path id="Arial-BoldMT-74" d="M 1981 3319 
L 1981 2619 
L 1381 2619 
L 1381 1281 
Q 1381 875 1398 808 
Q 1416 741 1477 697 
Q 1538 653 1625 653 
Q 1747 653 1978 738 
L 2053 56 
Q 1747 -75 1359 -75 
Q 1122 -75 931 4 
Q 741 84 652 211 
Q 563 338 528 553 
Q 500 706 500 1172 
L 500 2619 
L 97 2619 
L 97 3319 
L 500 3319 
L 500 3978 
L 1381 4491 
L 1381 3319 
L 1981 3319 
z
" transform="scale(0.015625)"/>
      <path id="Arial-BoldMT-61" d="M 1116 2306 
L 319 2450 
Q 453 2931 781 3162 
Q 1109 3394 1756 3394 
Q 2344 3394 2631 3255 
Q 2919 3116 3036 2902 
Q 3153 2688 3153 2116 
L 3144 1091 
Q 3144 653 3186 445 
Q 3228 238 3344 0 
L 2475 0 
Q 2441 88 2391 259 
Q 2369 338 2359 363 
Q 2134 144 1878 34 
Q 1622 -75 1331 -75 
Q 819 -75 523 203 
Q 228 481 228 906 
Q 228 1188 362 1408 
Q 497 1628 739 1745 
Q 981 1863 1438 1950 
Q 2053 2066 2291 2166 
L 2291 2253 
Q 2291 2506 2166 2614 
Q 2041 2722 1694 2722 
Q 1459 2722 1328 2630 
Q 1197 2538 1116 2306 
z
M 2291 1594 
Q 2122 1538 1756 1459 
Q 1391 1381 1278 1306 
Q 1106 1184 1106 997 
Q 1106 813 1243 678 
Q 1381 544 1594 544 
Q 1831 544 2047 700 
Q 2206 819 2256 991 
Q 2291 1103 2291 1419 
L 2291 1594 
z
" transform="scale(0.015625)"/>
      <path id="Arial-BoldMT-64" d="M 3503 0 
L 2688 0 
L 2688 488 
Q 2484 203 2207 64 
Q 1931 -75 1650 -75 
Q 1078 -75 670 386 
Q 263 847 263 1672 
Q 263 2516 659 2955 
Q 1056 3394 1663 3394 
Q 2219 3394 2625 2931 
L 2625 4581 
L 3503 4581 
L 3503 0 
z
M 1159 1731 
Q 1159 1200 1306 963 
Q 1519 619 1900 619 
Q 2203 619 2415 876 
Q 2628 1134 2628 1647 
Q 2628 2219 2422 2470 
Q 2216 2722 1894 2722 
Q 1581 2722 1370 2473 
Q 1159 2225 1159 1731 
z
" transform="scale(0.015625)"/>
      <path id="Arial-BoldMT-72" d="M 1300 0 
L 422 0 
L 422 3319 
L 1238 3319 
L 1238 2847 
Q 1447 3181 1614 3287 
Q 1781 3394 1994 3394 
Q 2294 3394 2572 3228 
L 2300 2463 
Q 2078 2606 1888 2606 
Q 1703 2606 1575 2504 
Q 1447 2403 1373 2137 
Q 1300 1872 1300 1025 
L 1300 0 
z
" transform="scale(0.015625)"/>
      <path id="Arial-BoldMT-69" d="M 459 3769 
L 459 4581 
L 1338 4581 
L 1338 3769 
L 459 3769 
z
M 459 0 
L 459 3319 
L 1338 3319 
L 1338 0 
L 459 0 
z
" transform="scale(0.015625)"/>
      <path id="Arial-BoldMT-7a" d="M 106 0 
L 106 684 
L 1350 2113 
Q 1656 2463 1803 2609 
Q 1650 2600 1400 2597 
L 228 2591 
L 228 3319 
L 2972 3319 
L 2972 2697 
L 1703 1234 
L 1256 750 
Q 1622 772 1709 772 
L 3069 772 
L 3069 0 
L 106 0 
z
" transform="scale(0.015625)"/>
      <path id="Arial-BoldMT-50" d="M 466 0 
L 466 4581 
L 1950 4581 
Q 2794 4581 3050 4513 
Q 3444 4409 3709 4064 
Q 3975 3719 3975 3172 
Q 3975 2750 3822 2462 
Q 3669 2175 3433 2011 
Q 3197 1847 2953 1794 
Q 2622 1728 1994 1728 
L 1391 1728 
L 1391 0 
L 466 0 
z
M 1391 3806 
L 1391 2506 
L 1897 2506 
Q 2444 2506 2628 2578 
Q 2813 2650 2917 2803 
Q 3022 2956 3022 3159 
Q 3022 3409 2875 3571 
Q 2728 3734 2503 3775 
Q 2338 3806 1838 3806 
L 1391 3806 
z
" transform="scale(0.015625)"/>
      <path id="Arial-BoldMT-63" d="M 3353 2338 
L 2488 2181 
Q 2444 2441 2289 2572 
Q 2134 2703 1888 2703 
Q 1559 2703 1364 2476 
Q 1169 2250 1169 1719 
Q 1169 1128 1367 884 
Q 1566 641 1900 641 
Q 2150 641 2309 783 
Q 2469 925 2534 1272 
L 3397 1125 
Q 3263 531 2881 228 
Q 2500 -75 1859 -75 
Q 1131 -75 698 384 
Q 266 844 266 1656 
Q 266 2478 700 2936 
Q 1134 3394 1875 3394 
Q 2481 3394 2839 3133 
Q 3197 2872 3353 2338 
z
" transform="scale(0.015625)"/>
      <path id="Arial-BoldMT-70" d="M 434 3319 
L 1253 3319 
L 1253 2831 
Q 1413 3081 1684 3237 
Q 1956 3394 2288 3394 
Q 2866 3394 3269 2941 
Q 3672 2488 3672 1678 
Q 3672 847 3265 386 
Q 2859 -75 2281 -75 
Q 2006 -75 1782 34 
Q 1559 144 1313 409 
L 1313 -1263 
L 434 -1263 
L 434 3319 
z
M 1303 1716 
Q 1303 1156 1525 889 
Q 1747 622 2066 622 
Q 2372 622 2575 867 
Q 2778 1113 2778 1672 
Q 2778 2194 2568 2447 
Q 2359 2700 2050 2700 
Q 1728 2700 1515 2451 
Q 1303 2203 1303 1716 
z
" transform="scale(0.015625)"/>
      <path id="Arial-BoldMT-f3" d="M 256 1706 
Q 256 2144 472 2553 
Q 688 2963 1083 3178 
Q 1478 3394 1966 3394 
Q 2719 3394 3200 2905 
Q 3681 2416 3681 1669 
Q 3681 916 3195 420 
Q 2709 -75 1972 -75 
Q 1516 -75 1102 131 
Q 688 338 472 736 
Q 256 1134 256 1706 
z
M 1156 1659 
Q 1156 1166 1390 903 
Q 1625 641 1969 641 
Q 2313 641 2545 903 
Q 2778 1166 2778 1666 
Q 2778 2153 2545 2415 
Q 2313 2678 1969 2678 
Q 1625 2678 1390 2415 
Q 1156 2153 1156 1659 
z
M 1528 3725 
L 1960 4659 
L 2944 4659 
L 2085 3725 
L 1528 3725 
z
" transform="scale(0.015625)"/>
      <path id="Arial-BoldMT-4d" d="M 453 0 
L 453 4581 
L 1838 4581 
L 2669 1456 
L 3491 4581 
L 4878 4581 
L 4878 0 
L 4019 0 
L 4019 3606 
L 3109 0 
L 2219 0 
L 1313 3606 
L 1313 0 
L 453 0 
z
" transform="scale(0.015625)"/>
      <path id="Arial-BoldMT-75" d="M 2644 0 
L 2644 497 
Q 2463 231 2167 78 
Q 1872 -75 1544 -75 
Q 1209 -75 943 72 
Q 678 219 559 484 
Q 441 750 441 1219 
L 441 3319 
L 1319 3319 
L 1319 1794 
Q 1319 1094 1367 936 
Q 1416 778 1544 686 
Q 1672 594 1869 594 
Q 2094 594 2272 717 
Q 2450 841 2515 1023 
Q 2581 1206 2581 1919 
L 2581 3319 
L 3459 3319 
L 3459 0 
L 2644 0 
z
" transform="scale(0.015625)"/>
      <path id="Arial-BoldMT-6c" d="M 459 0 
L 459 4581 
L 1338 4581 
L 1338 0 
L 459 0 
z
" transform="scale(0.015625)"/>
      <path id="Arial-BoldMT-62" d="M 422 0 
L 422 4581 
L 1300 4581 
L 1300 2931 
Q 1706 3394 2263 3394 
Q 2869 3394 3266 2955 
Q 3663 2516 3663 1694 
Q 3663 844 3258 384 
Q 2853 -75 2275 -75 
Q 1991 -75 1714 67 
Q 1438 209 1238 488 
L 1238 0 
L 422 0 
z
M 1294 1731 
Q 1294 1216 1456 969 
Q 1684 619 2063 619 
Q 2353 619 2558 867 
Q 2763 1116 2763 1650 
Q 2763 2219 2556 2470 
Q 2350 2722 2028 2722 
Q 1713 2722 1503 2476 
Q 1294 2231 1294 1731 
z
" transform="scale(0.015625)"/>
     </defs>
     <use xlink:href="#Arial-BoldMT-59"/>
     <use xlink:href="#Arial-BoldMT-65" x="61.199219"/>
     <use xlink:href="#Arial-BoldMT-6f" x="116.814453"/>
     <use xlink:href="#Arial-BoldMT-2d" x="177.898438"/>
     <use xlink:href="#Arial-BoldMT-4a" x="211.199219"/>
     <use xlink:href="#Arial-BoldMT-6f" x="266.814453"/>
     <use xlink:href="#Arial-BoldMT-68" x="327.898438"/>
     <use xlink:href="#Arial-BoldMT-6e" x="388.982422"/>
     <use xlink:href="#Arial-BoldMT-73" x="450.066406"/>
     <use xlink:href="#Arial-BoldMT-6f" x="505.681641"/>
     <use xlink:href="#Arial-BoldMT-6e" x="566.765625"/>
     <use xlink:href="#Arial-BoldMT-20" x="627.849609"/>
     <use xlink:href="#Arial-BoldMT-45" x="655.632812"/>
     <use xlink:href="#Arial-BoldMT-73" x="722.332031"/>
     <use xlink:href="#Arial-BoldMT-74" x="777.947266"/>
     <use xlink:href="#Arial-BoldMT-61" x="811.248047"/>
     <use xlink:href="#Arial-BoldMT-6e" x="866.863281"/>
     <use xlink:href="#Arial-BoldMT-64" x="927.947266"/>
     <use xlink:href="#Arial-BoldMT-61" x="989.03125"/>
     <use xlink:href="#Arial-BoldMT-72" x="1044.646484"/>
     <use xlink:href="#Arial-BoldMT-69" x="1083.5625"/>
     <use xlink:href="#Arial-BoldMT-7a" x="1111.345703"/>
     <use xlink:href="#Arial-BoldMT-61" x="1161.345703"/>
     <use xlink:href="#Arial-BoldMT-64" x="1216.960938"/>
     <use xlink:href="#Arial-BoldMT-6f" x="1278.044922"/>
     <use xlink:href="#Arial-BoldMT-20" x="1339.128906"/>
     <use xlink:href="#Arial-BoldMT-50" x="1366.912109"/>
     <use xlink:href="#Arial-BoldMT-72" x="1433.611328"/>
     <use xlink:href="#Arial-BoldMT-65" x="1472.527344"/>
     <use xlink:href="#Arial-BoldMT-63" x="1528.142578"/>
     <use xlink:href="#Arial-BoldMT-69" x="1583.757812"/>
     <use xlink:href="#Arial-BoldMT-70" x="1611.541016"/>
     <use xlink:href="#Arial-BoldMT-69" x="1672.625"/>
     <use xlink:href="#Arial-BoldMT-74" x="1700.408203"/>
     <use xlink:href="#Arial-BoldMT-61" x="1733.708984"/>
     <use xlink:href="#Arial-BoldMT-63" x="1789.324219"/>
     <use xlink:href="#Arial-BoldMT-69" x="1844.939453"/>
     <use xlink:href="#Arial-BoldMT-f3" x="1872.722656"/>
     <use xlink:href="#Arial-BoldMT-6e" x="1933.806641"/>
     <use xlink:href="#Arial-BoldMT-20" x="1994.890625"/>
     <use xlink:href="#Arial-BoldMT-4d" x="2022.673828"/>
     <use xlink:href="#Arial-BoldMT-65" x="2105.974609"/>
     <use xlink:href="#Arial-BoldMT-6e" x="2161.589844"/>
     <use xlink:href="#Arial-BoldMT-73" x="2222.673828"/>
     <use xlink:href="#Arial-BoldMT-75" x="2278.289062"/>
     <use xlink:href="#Arial-BoldMT-61" x="2339.373047"/>
     <use xlink:href="#Arial-BoldMT-6c" x="2394.988281"/>
     <use xlink:href="#Arial-BoldMT-20" x="2422.771484"/>
     <use xlink:href="#Arial-BoldMT-65" x="2450.554688"/>
     <use xlink:href="#Arial-BoldMT-6e" x="2506.169922"/>
     <use xlink:href="#Arial-BoldMT-20" x="2567.253906"/>
     <use xlink:href="#Arial-BoldMT-50" x="2595.037109"/>
     <use xlink:href="#Arial-BoldMT-75" x="2661.736328"/>
     <use xlink:href="#Arial-BoldMT-65" x="2722.820312"/>
     <use xlink:href="#Arial-BoldMT-62" x="2778.435547"/>
     <use xlink:href="#Arial-BoldMT-6c" x="2839.519531"/>
     <use xlink:href="#Arial-BoldMT-61" x="2867.302734"/>
    </g>
   </g>
  </g>
 </g>
 <defs>
  <clipPath id="pfdce824646">
   <rect x="47.75375" y="23.391562" width="669.6" height="332.64"/>
  </clipPath>
 </defs>
</svg>
