<?xml version="1.0" encoding="utf-8" standalone="no"?>
<!DOCTYPE svg PUBLIC "-//W3C//DTD SVG 1.1//EN"
  "http://www.w3.org/Graphics/SVG/1.1/DTD/svg11.dtd">
<svg xmlns:xlink="http://www.w3.org/1999/xlink" width="715.9675pt" height="387.673437pt" viewBox="0 0 715.9675 387.673437" xmlns="http://www.w3.org/2000/svg" version="1.1">
 <metadata>
  <rdf:RDF xmlns:dc="http://purl.org/dc/elements/1.1/" xmlns:cc="http://creativecommons.org/ns#" xmlns:rdf="http://www.w3.org/1999/02/22-rdf-syntax-ns#">
   <cc:Work>
    <dc:type rdf:resource="http://purl.org/dc/dcmitype/StillImage"/>
    <dc:date>2025-04-24T17:25:58.416252</dc:date>
    <dc:format>image/svg+xml</dc:format>
    <dc:creator>
     <cc:Agent>
      <dc:title>Matplotlib v3.8.4, https://matplotlib.org/</dc:title>
     </cc:Agent>
    </dc:creator>
   </cc:Work>
  </rdf:RDF>
 </metadata>
 <defs>
  <style type="text/css">*{stroke-linejoin: round; stroke-linecap: butt}</style>
 </defs>
 <g id="figure_1">
  <g id="patch_1">
   <path d="M 0 387.673437 
L 715.9675 387.673437 
L 715.9675 0 
L 0 0 
z
" style="fill: #ffffff"/>
  </g>
  <g id="axes_1">
   <g id="patch_2">
    <path d="M 39.1675 355.860937 
L 708.7675 355.860937 
L 708.7675 23.220937 
L 39.1675 23.220937 
z
" style="fill: #ffffff"/>
   </g>
   <g id="matplotlib.axis_1">
    <g id="xtick_1">
     <g id="line2d_1">
      <path d="M 48.91731 355.860937 
L 48.91731 23.220937 
" clip-path="url(#pa1f658e9db)" style="fill: none; stroke-dasharray: 1.85,0.8; stroke-dashoffset: 0; stroke: #808080; stroke-width: 0.5"/>
     </g>
     <g id="text_1">
      <!-- Nov -->
      <g style="fill: #262626" transform="translate(46.849185 365.360937) rotate(-270) scale(0.08 -0.08)">
       <defs>
        <path id="ArialMT-4e" d="M 488 0 
L 488 4581 
L 1109 4581 
L 3516 984 
L 3516 4581 
L 4097 4581 
L 4097 0 
L 3475 0 
L 1069 3600 
L 1069 0 
L 488 0 
z
" transform="scale(0.015625)"/>
        <path id="ArialMT-6f" d="M 213 1659 
Q 213 2581 725 3025 
Q 1153 3394 1769 3394 
Q 2453 3394 2887 2945 
Q 3322 2497 3322 1706 
Q 3322 1066 3130 698 
Q 2938 331 2570 128 
Q 2203 -75 1769 -75 
Q 1072 -75 642 372 
Q 213 819 213 1659 
z
M 791 1659 
Q 791 1022 1069 705 
Q 1347 388 1769 388 
Q 2188 388 2466 706 
Q 2744 1025 2744 1678 
Q 2744 2294 2464 2611 
Q 2184 2928 1769 2928 
Q 1347 2928 1069 2612 
Q 791 2297 791 1659 
z
" transform="scale(0.015625)"/>
        <path id="ArialMT-76" d="M 1344 0 
L 81 3319 
L 675 3319 
L 1388 1331 
Q 1503 1009 1600 663 
Q 1675 925 1809 1294 
L 2547 3319 
L 3125 3319 
L 1869 0 
L 1344 0 
z
" transform="scale(0.015625)"/>
       </defs>
       <use xlink:href="#ArialMT-4e"/>
       <use xlink:href="#ArialMT-6f" x="72.216797"/>
       <use xlink:href="#ArialMT-76" x="127.832031"/>
      </g>
     </g>
    </g>
    <g id="xtick_2">
     <g id="line2d_2">
      <path d="M 59.091025 355.860937 
L 59.091025 23.220937 
" clip-path="url(#pa1f658e9db)" style="fill: none; stroke-dasharray: 1.85,0.8; stroke-dashoffset: 0; stroke: #808080; stroke-width: 0.5"/>
     </g>
     <g id="text_2">
      <!-- Dec -->
      <g style="fill: #262626" transform="translate(57.0229 365.360937) rotate(-270) scale(0.08 -0.08)">
       <defs>
        <path id="ArialMT-44" d="M 494 0 
L 494 4581 
L 2072 4581 
Q 2606 4581 2888 4516 
Q 3281 4425 3559 4188 
Q 3922 3881 4101 3404 
Q 4281 2928 4281 2316 
Q 4281 1794 4159 1391 
Q 4038 988 3847 723 
Q 3656 459 3429 307 
Q 3203 156 2883 78 
Q 2563 0 2147 0 
L 494 0 
z
M 1100 541 
L 2078 541 
Q 2531 541 2789 625 
Q 3047 709 3200 863 
Q 3416 1078 3536 1442 
Q 3656 1806 3656 2325 
Q 3656 3044 3420 3430 
Q 3184 3816 2847 3947 
Q 2603 4041 2063 4041 
L 1100 4041 
L 1100 541 
z
" transform="scale(0.015625)"/>
        <path id="ArialMT-65" d="M 2694 1069 
L 3275 997 
Q 3138 488 2766 206 
Q 2394 -75 1816 -75 
Q 1088 -75 661 373 
Q 234 822 234 1631 
Q 234 2469 665 2931 
Q 1097 3394 1784 3394 
Q 2450 3394 2872 2941 
Q 3294 2488 3294 1666 
Q 3294 1616 3291 1516 
L 816 1516 
Q 847 969 1125 678 
Q 1403 388 1819 388 
Q 2128 388 2347 550 
Q 2566 713 2694 1069 
z
M 847 1978 
L 2700 1978 
Q 2663 2397 2488 2606 
Q 2219 2931 1791 2931 
Q 1403 2931 1139 2672 
Q 875 2413 847 1978 
z
" transform="scale(0.015625)"/>
        <path id="ArialMT-63" d="M 2588 1216 
L 3141 1144 
Q 3050 572 2676 248 
Q 2303 -75 1759 -75 
Q 1078 -75 664 370 
Q 250 816 250 1647 
Q 250 2184 428 2587 
Q 606 2991 970 3192 
Q 1334 3394 1763 3394 
Q 2303 3394 2647 3120 
Q 2991 2847 3088 2344 
L 2541 2259 
Q 2463 2594 2264 2762 
Q 2066 2931 1784 2931 
Q 1359 2931 1093 2626 
Q 828 2322 828 1663 
Q 828 994 1084 691 
Q 1341 388 1753 388 
Q 2084 388 2306 591 
Q 2528 794 2588 1216 
z
" transform="scale(0.015625)"/>
       </defs>
       <use xlink:href="#ArialMT-44"/>
       <use xlink:href="#ArialMT-65" x="72.216797"/>
       <use xlink:href="#ArialMT-63" x="127.832031"/>
      </g>
     </g>
    </g>
    <g id="xtick_3">
     <g id="line2d_3">
      <path d="M 69.603864 355.860937 
L 69.603864 23.220937 
" clip-path="url(#pa1f658e9db)" style="fill: none; stroke-dasharray: 1.85,0.8; stroke-dashoffset: 0; stroke: #808080; stroke-width: 0.5"/>
     </g>
     <g id="text_3">
      <!-- Jan -->
      <g style="fill: #262626" transform="translate(67.535739 365.360937) rotate(-270) scale(0.08 -0.08)">
       <defs>
        <path id="ArialMT-4a" d="M 184 1300 
L 731 1375 
Q 753 850 928 656 
Q 1103 463 1413 463 
Q 1641 463 1806 567 
Q 1972 672 2034 851 
Q 2097 1031 2097 1425 
L 2097 4581 
L 2703 4581 
L 2703 1459 
Q 2703 884 2564 568 
Q 2425 253 2123 87 
Q 1822 -78 1416 -78 
Q 813 -78 492 269 
Q 172 616 184 1300 
z
" transform="scale(0.015625)"/>
        <path id="ArialMT-61" d="M 2588 409 
Q 2275 144 1986 34 
Q 1697 -75 1366 -75 
Q 819 -75 525 192 
Q 231 459 231 875 
Q 231 1119 342 1320 
Q 453 1522 633 1644 
Q 813 1766 1038 1828 
Q 1203 1872 1538 1913 
Q 2219 1994 2541 2106 
Q 2544 2222 2544 2253 
Q 2544 2597 2384 2738 
Q 2169 2928 1744 2928 
Q 1347 2928 1158 2789 
Q 969 2650 878 2297 
L 328 2372 
Q 403 2725 575 2942 
Q 747 3159 1072 3276 
Q 1397 3394 1825 3394 
Q 2250 3394 2515 3294 
Q 2781 3194 2906 3042 
Q 3031 2891 3081 2659 
Q 3109 2516 3109 2141 
L 3109 1391 
Q 3109 606 3145 398 
Q 3181 191 3288 0 
L 2700 0 
Q 2613 175 2588 409 
z
M 2541 1666 
Q 2234 1541 1622 1453 
Q 1275 1403 1131 1340 
Q 988 1278 909 1158 
Q 831 1038 831 891 
Q 831 666 1001 516 
Q 1172 366 1500 366 
Q 1825 366 2078 508 
Q 2331 650 2450 897 
Q 2541 1088 2541 1459 
L 2541 1666 
z
" transform="scale(0.015625)"/>
        <path id="ArialMT-6e" d="M 422 0 
L 422 3319 
L 928 3319 
L 928 2847 
Q 1294 3394 1984 3394 
Q 2284 3394 2536 3286 
Q 2788 3178 2913 3003 
Q 3038 2828 3088 2588 
Q 3119 2431 3119 2041 
L 3119 0 
L 2556 0 
L 2556 2019 
Q 2556 2363 2490 2533 
Q 2425 2703 2258 2804 
Q 2091 2906 1866 2906 
Q 1506 2906 1245 2678 
Q 984 2450 984 1813 
L 984 0 
L 422 0 
z
" transform="scale(0.015625)"/>
       </defs>
       <use xlink:href="#ArialMT-4a"/>
       <use xlink:href="#ArialMT-61" x="50"/>
       <use xlink:href="#ArialMT-6e" x="105.615234"/>
      </g>
     </g>
    </g>
    <g id="xtick_4">
     <g id="line2d_4">
      <path d="M 80.116702 355.860937 
L 80.116702 23.220937 
" clip-path="url(#pa1f658e9db)" style="fill: none; stroke-dasharray: 1.85,0.8; stroke-dashoffset: 0; stroke: #808080; stroke-width: 0.5"/>
     </g>
     <g id="text_4">
      <!-- Feb -->
      <g style="fill: #262626" transform="translate(78.048577 365.360937) rotate(-270) scale(0.08 -0.08)">
       <defs>
        <path id="ArialMT-46" d="M 525 0 
L 525 4581 
L 3616 4581 
L 3616 4041 
L 1131 4041 
L 1131 2622 
L 3281 2622 
L 3281 2081 
L 1131 2081 
L 1131 0 
L 525 0 
z
" transform="scale(0.015625)"/>
        <path id="ArialMT-62" d="M 941 0 
L 419 0 
L 419 4581 
L 981 4581 
L 981 2947 
Q 1338 3394 1891 3394 
Q 2197 3394 2470 3270 
Q 2744 3147 2920 2923 
Q 3097 2700 3197 2384 
Q 3297 2069 3297 1709 
Q 3297 856 2875 390 
Q 2453 -75 1863 -75 
Q 1275 -75 941 416 
L 941 0 
z
M 934 1684 
Q 934 1088 1097 822 
Q 1363 388 1816 388 
Q 2184 388 2453 708 
Q 2722 1028 2722 1663 
Q 2722 2313 2464 2622 
Q 2206 2931 1841 2931 
Q 1472 2931 1203 2611 
Q 934 2291 934 1684 
z
" transform="scale(0.015625)"/>
       </defs>
       <use xlink:href="#ArialMT-46"/>
       <use xlink:href="#ArialMT-65" x="61.083984"/>
       <use xlink:href="#ArialMT-62" x="116.699219"/>
      </g>
     </g>
    </g>
    <g id="xtick_5">
     <g id="line2d_5">
      <path d="M 89.61217 355.860937 
L 89.61217 23.220937 
" clip-path="url(#pa1f658e9db)" style="fill: none; stroke-dasharray: 1.85,0.8; stroke-dashoffset: 0; stroke: #808080; stroke-width: 0.5"/>
     </g>
     <g id="text_5">
      <!-- Mar -->
      <g style="fill: #262626" transform="translate(87.544045 365.360937) rotate(-270) scale(0.08 -0.08)">
       <defs>
        <path id="ArialMT-4d" d="M 475 0 
L 475 4581 
L 1388 4581 
L 2472 1338 
Q 2622 884 2691 659 
Q 2769 909 2934 1394 
L 4031 4581 
L 4847 4581 
L 4847 0 
L 4263 0 
L 4263 3834 
L 2931 0 
L 2384 0 
L 1059 3900 
L 1059 0 
L 475 0 
z
" transform="scale(0.015625)"/>
        <path id="ArialMT-72" d="M 416 0 
L 416 3319 
L 922 3319 
L 922 2816 
Q 1116 3169 1280 3281 
Q 1444 3394 1641 3394 
Q 1925 3394 2219 3213 
L 2025 2691 
Q 1819 2813 1613 2813 
Q 1428 2813 1281 2702 
Q 1134 2591 1072 2394 
Q 978 2094 978 1738 
L 978 0 
L 416 0 
z
" transform="scale(0.015625)"/>
       </defs>
       <use xlink:href="#ArialMT-4d"/>
       <use xlink:href="#ArialMT-61" x="83.300781"/>
       <use xlink:href="#ArialMT-72" x="138.916016"/>
      </g>
     </g>
    </g>
    <g id="xtick_6">
     <g id="line2d_6">
      <path d="M 100.125008 355.860937 
L 100.125008 23.220937 
" clip-path="url(#pa1f658e9db)" style="fill: none; stroke-dasharray: 1.85,0.8; stroke-dashoffset: 0; stroke: #808080; stroke-width: 0.5"/>
     </g>
     <g id="text_6">
      <!-- Apr -->
      <g style="fill: #262626" transform="translate(98.056883 365.360937) rotate(-270) scale(0.08 -0.08)">
       <defs>
        <path id="ArialMT-41" d="M -9 0 
L 1750 4581 
L 2403 4581 
L 4278 0 
L 3588 0 
L 3053 1388 
L 1138 1388 
L 634 0 
L -9 0 
z
M 1313 1881 
L 2866 1881 
L 2388 3150 
Q 2169 3728 2063 4100 
Q 1975 3659 1816 3225 
L 1313 1881 
z
" transform="scale(0.015625)"/>
        <path id="ArialMT-70" d="M 422 -1272 
L 422 3319 
L 934 3319 
L 934 2888 
Q 1116 3141 1344 3267 
Q 1572 3394 1897 3394 
Q 2322 3394 2647 3175 
Q 2972 2956 3137 2557 
Q 3303 2159 3303 1684 
Q 3303 1175 3120 767 
Q 2938 359 2589 142 
Q 2241 -75 1856 -75 
Q 1575 -75 1351 44 
Q 1128 163 984 344 
L 984 -1272 
L 422 -1272 
z
M 931 1641 
Q 931 1000 1190 694 
Q 1450 388 1819 388 
Q 2194 388 2461 705 
Q 2728 1022 2728 1688 
Q 2728 2322 2467 2637 
Q 2206 2953 1844 2953 
Q 1484 2953 1207 2617 
Q 931 2281 931 1641 
z
" transform="scale(0.015625)"/>
       </defs>
       <use xlink:href="#ArialMT-41"/>
       <use xlink:href="#ArialMT-70" x="66.699219"/>
       <use xlink:href="#ArialMT-72" x="122.314453"/>
      </g>
     </g>
    </g>
    <g id="xtick_7">
     <g id="line2d_7">
      <path d="M 110.298723 355.860937 
L 110.298723 23.220937 
" clip-path="url(#pa1f658e9db)" style="fill: none; stroke-dasharray: 1.85,0.8; stroke-dashoffset: 0; stroke: #808080; stroke-width: 0.5"/>
     </g>
     <g id="text_7">
      <!-- May -->
      <g style="fill: #262626" transform="translate(108.277473 365.360937) rotate(-270) scale(0.08 -0.08)">
       <defs>
        <path id="ArialMT-79" d="M 397 -1278 
L 334 -750 
Q 519 -800 656 -800 
Q 844 -800 956 -737 
Q 1069 -675 1141 -563 
Q 1194 -478 1313 -144 
Q 1328 -97 1363 -6 
L 103 3319 
L 709 3319 
L 1400 1397 
Q 1534 1031 1641 628 
Q 1738 1016 1872 1384 
L 2581 3319 
L 3144 3319 
L 1881 -56 
Q 1678 -603 1566 -809 
Q 1416 -1088 1222 -1217 
Q 1028 -1347 759 -1347 
Q 597 -1347 397 -1278 
z
" transform="scale(0.015625)"/>
       </defs>
       <use xlink:href="#ArialMT-4d"/>
       <use xlink:href="#ArialMT-61" x="83.300781"/>
       <use xlink:href="#ArialMT-79" x="138.916016"/>
      </g>
     </g>
    </g>
    <g id="xtick_8">
     <g id="line2d_8">
      <path d="M 120.811562 355.860937 
L 120.811562 23.220937 
" clip-path="url(#pa1f658e9db)" style="fill: none; stroke-dasharray: 1.85,0.8; stroke-dashoffset: 0; stroke: #808080; stroke-width: 0.5"/>
     </g>
     <g id="text_8">
      <!-- Jun -->
      <g style="fill: #262626" transform="translate(118.743437 365.360937) rotate(-270) scale(0.08 -0.08)">
       <defs>
        <path id="ArialMT-75" d="M 2597 0 
L 2597 488 
Q 2209 -75 1544 -75 
Q 1250 -75 995 37 
Q 741 150 617 320 
Q 494 491 444 738 
Q 409 903 409 1263 
L 409 3319 
L 972 3319 
L 972 1478 
Q 972 1038 1006 884 
Q 1059 663 1231 536 
Q 1403 409 1656 409 
Q 1909 409 2131 539 
Q 2353 669 2445 892 
Q 2538 1116 2538 1541 
L 2538 3319 
L 3100 3319 
L 3100 0 
L 2597 0 
z
" transform="scale(0.015625)"/>
       </defs>
       <use xlink:href="#ArialMT-4a"/>
       <use xlink:href="#ArialMT-75" x="50"/>
       <use xlink:href="#ArialMT-6e" x="105.615234"/>
      </g>
     </g>
    </g>
    <g id="xtick_9">
     <g id="line2d_9">
      <path d="M 130.985277 355.860937 
L 130.985277 23.220937 
" clip-path="url(#pa1f658e9db)" style="fill: none; stroke-dasharray: 1.85,0.8; stroke-dashoffset: 0; stroke: #808080; stroke-width: 0.5"/>
     </g>
     <g id="text_9">
      <!-- Jul -->
      <g style="fill: #262626" transform="translate(128.917152 365.360937) rotate(-270) scale(0.08 -0.08)">
       <defs>
        <path id="ArialMT-6c" d="M 409 0 
L 409 4581 
L 972 4581 
L 972 0 
L 409 0 
z
" transform="scale(0.015625)"/>
       </defs>
       <use xlink:href="#ArialMT-4a"/>
       <use xlink:href="#ArialMT-75" x="50"/>
       <use xlink:href="#ArialMT-6c" x="105.615234"/>
      </g>
     </g>
    </g>
    <g id="xtick_10">
     <g id="line2d_10">
      <path d="M 141.498115 355.860937 
L 141.498115 23.220937 
" clip-path="url(#pa1f658e9db)" style="fill: none; stroke-dasharray: 1.85,0.8; stroke-dashoffset: 0; stroke: #808080; stroke-width: 0.5"/>
     </g>
     <g id="text_10">
      <!-- Aug -->
      <g style="fill: #262626" transform="translate(139.476865 365.360937) rotate(-270) scale(0.08 -0.08)">
       <defs>
        <path id="ArialMT-67" d="M 319 -275 
L 866 -356 
Q 900 -609 1056 -725 
Q 1266 -881 1628 -881 
Q 2019 -881 2231 -725 
Q 2444 -569 2519 -288 
Q 2563 -116 2559 434 
Q 2191 0 1641 0 
Q 956 0 581 494 
Q 206 988 206 1678 
Q 206 2153 378 2554 
Q 550 2956 876 3175 
Q 1203 3394 1644 3394 
Q 2231 3394 2613 2919 
L 2613 3319 
L 3131 3319 
L 3131 450 
Q 3131 -325 2973 -648 
Q 2816 -972 2473 -1159 
Q 2131 -1347 1631 -1347 
Q 1038 -1347 672 -1080 
Q 306 -813 319 -275 
z
M 784 1719 
Q 784 1066 1043 766 
Q 1303 466 1694 466 
Q 2081 466 2343 764 
Q 2606 1063 2606 1700 
Q 2606 2309 2336 2618 
Q 2066 2928 1684 2928 
Q 1309 2928 1046 2623 
Q 784 2319 784 1719 
z
" transform="scale(0.015625)"/>
       </defs>
       <use xlink:href="#ArialMT-41"/>
       <use xlink:href="#ArialMT-75" x="66.699219"/>
       <use xlink:href="#ArialMT-67" x="122.314453"/>
      </g>
     </g>
    </g>
    <g id="xtick_11">
     <g id="line2d_11">
      <path d="M 152.010954 355.860937 
L 152.010954 23.220937 
" clip-path="url(#pa1f658e9db)" style="fill: none; stroke-dasharray: 1.85,0.8; stroke-dashoffset: 0; stroke: #808080; stroke-width: 0.5"/>
     </g>
     <g id="text_11">
      <!-- Sep -->
      <g style="fill: #262626" transform="translate(149.894079 365.360937) rotate(-270) scale(0.08 -0.08)">
       <defs>
        <path id="ArialMT-53" d="M 288 1472 
L 859 1522 
Q 900 1178 1048 958 
Q 1197 738 1509 602 
Q 1822 466 2213 466 
Q 2559 466 2825 569 
Q 3091 672 3220 851 
Q 3350 1031 3350 1244 
Q 3350 1459 3225 1620 
Q 3100 1781 2813 1891 
Q 2628 1963 1997 2114 
Q 1366 2266 1113 2400 
Q 784 2572 623 2826 
Q 463 3081 463 3397 
Q 463 3744 659 4045 
Q 856 4347 1234 4503 
Q 1613 4659 2075 4659 
Q 2584 4659 2973 4495 
Q 3363 4331 3572 4012 
Q 3781 3694 3797 3291 
L 3216 3247 
Q 3169 3681 2898 3903 
Q 2628 4125 2100 4125 
Q 1550 4125 1298 3923 
Q 1047 3722 1047 3438 
Q 1047 3191 1225 3031 
Q 1400 2872 2139 2705 
Q 2878 2538 3153 2413 
Q 3553 2228 3743 1945 
Q 3934 1663 3934 1294 
Q 3934 928 3725 604 
Q 3516 281 3123 101 
Q 2731 -78 2241 -78 
Q 1619 -78 1198 103 
Q 778 284 539 648 
Q 300 1013 288 1472 
z
" transform="scale(0.015625)"/>
       </defs>
       <use xlink:href="#ArialMT-53"/>
       <use xlink:href="#ArialMT-65" x="66.699219"/>
       <use xlink:href="#ArialMT-70" x="122.314453"/>
      </g>
     </g>
    </g>
    <g id="xtick_12">
     <g id="line2d_12">
      <path d="M 162.184669 355.860937 
L 162.184669 23.220937 
" clip-path="url(#pa1f658e9db)" style="fill: none; stroke-dasharray: 1.85,0.8; stroke-dashoffset: 0; stroke: #808080; stroke-width: 0.5"/>
     </g>
     <g id="text_12">
      <!-- Oct -->
      <g style="fill: #262626" transform="translate(160.116544 365.360937) rotate(-270) scale(0.08 -0.08)">
       <defs>
        <path id="ArialMT-4f" d="M 309 2231 
Q 309 3372 921 4017 
Q 1534 4663 2503 4663 
Q 3138 4663 3647 4359 
Q 4156 4056 4423 3514 
Q 4691 2972 4691 2284 
Q 4691 1588 4409 1038 
Q 4128 488 3612 205 
Q 3097 -78 2500 -78 
Q 1853 -78 1343 234 
Q 834 547 571 1087 
Q 309 1628 309 2231 
z
M 934 2222 
Q 934 1394 1379 917 
Q 1825 441 2497 441 
Q 3181 441 3623 922 
Q 4066 1403 4066 2288 
Q 4066 2847 3877 3264 
Q 3688 3681 3323 3911 
Q 2959 4141 2506 4141 
Q 1863 4141 1398 3698 
Q 934 3256 934 2222 
z
" transform="scale(0.015625)"/>
        <path id="ArialMT-74" d="M 1650 503 
L 1731 6 
Q 1494 -44 1306 -44 
Q 1000 -44 831 53 
Q 663 150 594 308 
Q 525 466 525 972 
L 525 2881 
L 113 2881 
L 113 3319 
L 525 3319 
L 525 4141 
L 1084 4478 
L 1084 3319 
L 1650 3319 
L 1650 2881 
L 1084 2881 
L 1084 941 
Q 1084 700 1114 631 
Q 1144 563 1211 522 
Q 1278 481 1403 481 
Q 1497 481 1650 503 
z
" transform="scale(0.015625)"/>
       </defs>
       <use xlink:href="#ArialMT-4f"/>
       <use xlink:href="#ArialMT-63" x="77.783203"/>
       <use xlink:href="#ArialMT-74" x="127.783203"/>
      </g>
     </g>
    </g>
    <g id="xtick_13">
     <g id="line2d_13">
      <path d="M 172.697508 355.860937 
L 172.697508 23.220937 
" clip-path="url(#pa1f658e9db)" style="fill: none; stroke-dasharray: 1.85,0.8; stroke-dashoffset: 0; stroke: #808080; stroke-width: 0.5"/>
     </g>
     <g id="text_13">
      <!-- Nov -->
      <g style="fill: #262626" transform="translate(170.629383 365.360937) rotate(-270) scale(0.08 -0.08)">
       <use xlink:href="#ArialMT-4e"/>
       <use xlink:href="#ArialMT-6f" x="72.216797"/>
       <use xlink:href="#ArialMT-76" x="127.832031"/>
      </g>
     </g>
    </g>
    <g id="xtick_14">
     <g id="line2d_14">
      <path d="M 182.871222 355.860937 
L 182.871222 23.220937 
" clip-path="url(#pa1f658e9db)" style="fill: none; stroke-dasharray: 1.85,0.8; stroke-dashoffset: 0; stroke: #808080; stroke-width: 0.5"/>
     </g>
     <g id="text_14">
      <!-- Dec -->
      <g style="fill: #262626" transform="translate(180.803097 365.360937) rotate(-270) scale(0.08 -0.08)">
       <use xlink:href="#ArialMT-44"/>
       <use xlink:href="#ArialMT-65" x="72.216797"/>
       <use xlink:href="#ArialMT-63" x="127.832031"/>
      </g>
     </g>
    </g>
    <g id="xtick_15">
     <g id="line2d_15">
      <path d="M 193.384061 355.860937 
L 193.384061 23.220937 
" clip-path="url(#pa1f658e9db)" style="fill: none; stroke-dasharray: 1.85,0.8; stroke-dashoffset: 0; stroke: #808080; stroke-width: 0.5"/>
     </g>
     <g id="text_15">
      <!-- Jan -->
      <g style="fill: #262626" transform="translate(191.315936 365.360937) rotate(-270) scale(0.08 -0.08)">
       <use xlink:href="#ArialMT-4a"/>
       <use xlink:href="#ArialMT-61" x="50"/>
       <use xlink:href="#ArialMT-6e" x="105.615234"/>
      </g>
     </g>
    </g>
    <g id="xtick_16">
     <g id="line2d_16">
      <path d="M 203.8969 355.860937 
L 203.8969 23.220937 
" clip-path="url(#pa1f658e9db)" style="fill: none; stroke-dasharray: 1.85,0.8; stroke-dashoffset: 0; stroke: #808080; stroke-width: 0.5"/>
     </g>
     <g id="text_16">
      <!-- Feb -->
      <g style="fill: #262626" transform="translate(201.828775 365.360937) rotate(-270) scale(0.08 -0.08)">
       <use xlink:href="#ArialMT-46"/>
       <use xlink:href="#ArialMT-65" x="61.083984"/>
       <use xlink:href="#ArialMT-62" x="116.699219"/>
      </g>
     </g>
    </g>
    <g id="xtick_17">
     <g id="line2d_17">
      <path d="M 213.392367 355.860937 
L 213.392367 23.220937 
" clip-path="url(#pa1f658e9db)" style="fill: none; stroke-dasharray: 1.85,0.8; stroke-dashoffset: 0; stroke: #808080; stroke-width: 0.5"/>
     </g>
     <g id="text_17">
      <!-- Mar -->
      <g style="fill: #262626" transform="translate(211.324242 365.360937) rotate(-270) scale(0.08 -0.08)">
       <use xlink:href="#ArialMT-4d"/>
       <use xlink:href="#ArialMT-61" x="83.300781"/>
       <use xlink:href="#ArialMT-72" x="138.916016"/>
      </g>
     </g>
    </g>
    <g id="xtick_18">
     <g id="line2d_18">
      <path d="M 223.905206 355.860937 
L 223.905206 23.220937 
" clip-path="url(#pa1f658e9db)" style="fill: none; stroke-dasharray: 1.85,0.8; stroke-dashoffset: 0; stroke: #808080; stroke-width: 0.5"/>
     </g>
     <g id="text_18">
      <!-- Apr -->
      <g style="fill: #262626" transform="translate(221.837081 365.360937) rotate(-270) scale(0.08 -0.08)">
       <use xlink:href="#ArialMT-41"/>
       <use xlink:href="#ArialMT-70" x="66.699219"/>
       <use xlink:href="#ArialMT-72" x="122.314453"/>
      </g>
     </g>
    </g>
    <g id="xtick_19">
     <g id="line2d_19">
      <path d="M 234.078921 355.860937 
L 234.078921 23.220937 
" clip-path="url(#pa1f658e9db)" style="fill: none; stroke-dasharray: 1.85,0.8; stroke-dashoffset: 0; stroke: #808080; stroke-width: 0.5"/>
     </g>
     <g id="text_19">
      <!-- May -->
      <g style="fill: #262626" transform="translate(232.057671 365.360937) rotate(-270) scale(0.08 -0.08)">
       <use xlink:href="#ArialMT-4d"/>
       <use xlink:href="#ArialMT-61" x="83.300781"/>
       <use xlink:href="#ArialMT-79" x="138.916016"/>
      </g>
     </g>
    </g>
    <g id="xtick_20">
     <g id="line2d_20">
      <path d="M 244.591759 355.860937 
L 244.591759 23.220937 
" clip-path="url(#pa1f658e9db)" style="fill: none; stroke-dasharray: 1.85,0.8; stroke-dashoffset: 0; stroke: #808080; stroke-width: 0.5"/>
     </g>
     <g id="text_20">
      <!-- Jun -->
      <g style="fill: #262626" transform="translate(242.523634 365.360937) rotate(-270) scale(0.08 -0.08)">
       <use xlink:href="#ArialMT-4a"/>
       <use xlink:href="#ArialMT-75" x="50"/>
       <use xlink:href="#ArialMT-6e" x="105.615234"/>
      </g>
     </g>
    </g>
    <g id="xtick_21">
     <g id="line2d_21">
      <path d="M 254.765474 355.860937 
L 254.765474 23.220937 
" clip-path="url(#pa1f658e9db)" style="fill: none; stroke-dasharray: 1.85,0.8; stroke-dashoffset: 0; stroke: #808080; stroke-width: 0.5"/>
     </g>
     <g id="text_21">
      <!-- Jul -->
      <g style="fill: #262626" transform="translate(252.697349 365.360937) rotate(-270) scale(0.08 -0.08)">
       <use xlink:href="#ArialMT-4a"/>
       <use xlink:href="#ArialMT-75" x="50"/>
       <use xlink:href="#ArialMT-6c" x="105.615234"/>
      </g>
     </g>
    </g>
    <g id="xtick_22">
     <g id="line2d_22">
      <path d="M 265.278313 355.860937 
L 265.278313 23.220937 
" clip-path="url(#pa1f658e9db)" style="fill: none; stroke-dasharray: 1.85,0.8; stroke-dashoffset: 0; stroke: #808080; stroke-width: 0.5"/>
     </g>
     <g id="text_22">
      <!-- Aug -->
      <g style="fill: #262626" transform="translate(263.257063 365.360937) rotate(-270) scale(0.08 -0.08)">
       <use xlink:href="#ArialMT-41"/>
       <use xlink:href="#ArialMT-75" x="66.699219"/>
       <use xlink:href="#ArialMT-67" x="122.314453"/>
      </g>
     </g>
    </g>
    <g id="xtick_23">
     <g id="line2d_23">
      <path d="M 275.791152 355.860937 
L 275.791152 23.220937 
" clip-path="url(#pa1f658e9db)" style="fill: none; stroke-dasharray: 1.85,0.8; stroke-dashoffset: 0; stroke: #808080; stroke-width: 0.5"/>
     </g>
     <g id="text_23">
      <!-- Sep -->
      <g style="fill: #262626" transform="translate(273.674277 365.360937) rotate(-270) scale(0.08 -0.08)">
       <use xlink:href="#ArialMT-53"/>
       <use xlink:href="#ArialMT-65" x="66.699219"/>
       <use xlink:href="#ArialMT-70" x="122.314453"/>
      </g>
     </g>
    </g>
    <g id="xtick_24">
     <g id="line2d_24">
      <path d="M 285.964866 355.860937 
L 285.964866 23.220937 
" clip-path="url(#pa1f658e9db)" style="fill: none; stroke-dasharray: 1.85,0.8; stroke-dashoffset: 0; stroke: #808080; stroke-width: 0.5"/>
     </g>
     <g id="text_24">
      <!-- Oct -->
      <g style="fill: #262626" transform="translate(283.896741 365.360937) rotate(-270) scale(0.08 -0.08)">
       <use xlink:href="#ArialMT-4f"/>
       <use xlink:href="#ArialMT-63" x="77.783203"/>
       <use xlink:href="#ArialMT-74" x="127.783203"/>
      </g>
     </g>
    </g>
    <g id="xtick_25">
     <g id="line2d_25">
      <path d="M 296.477705 355.860937 
L 296.477705 23.220937 
" clip-path="url(#pa1f658e9db)" style="fill: none; stroke-dasharray: 1.85,0.8; stroke-dashoffset: 0; stroke: #808080; stroke-width: 0.5"/>
     </g>
     <g id="text_25">
      <!-- Nov -->
      <g style="fill: #262626" transform="translate(294.40958 365.360937) rotate(-270) scale(0.08 -0.08)">
       <use xlink:href="#ArialMT-4e"/>
       <use xlink:href="#ArialMT-6f" x="72.216797"/>
       <use xlink:href="#ArialMT-76" x="127.832031"/>
      </g>
     </g>
    </g>
    <g id="xtick_26">
     <g id="line2d_26">
      <path d="M 306.65142 355.860937 
L 306.65142 23.220937 
" clip-path="url(#pa1f658e9db)" style="fill: none; stroke-dasharray: 1.85,0.8; stroke-dashoffset: 0; stroke: #808080; stroke-width: 0.5"/>
     </g>
     <g id="text_26">
      <!-- Dec -->
      <g style="fill: #262626" transform="translate(304.583295 365.360937) rotate(-270) scale(0.08 -0.08)">
       <use xlink:href="#ArialMT-44"/>
       <use xlink:href="#ArialMT-65" x="72.216797"/>
       <use xlink:href="#ArialMT-63" x="127.832031"/>
      </g>
     </g>
    </g>
    <g id="xtick_27">
     <g id="line2d_27">
      <path d="M 317.164259 355.860937 
L 317.164259 23.220937 
" clip-path="url(#pa1f658e9db)" style="fill: none; stroke-dasharray: 1.85,0.8; stroke-dashoffset: 0; stroke: #808080; stroke-width: 0.5"/>
     </g>
     <g id="text_27">
      <!-- Jan -->
      <g style="fill: #262626" transform="translate(315.096134 365.360937) rotate(-270) scale(0.08 -0.08)">
       <use xlink:href="#ArialMT-4a"/>
       <use xlink:href="#ArialMT-61" x="50"/>
       <use xlink:href="#ArialMT-6e" x="105.615234"/>
      </g>
     </g>
    </g>
    <g id="xtick_28">
     <g id="line2d_28">
      <path d="M 327.677097 355.860937 
L 327.677097 23.220937 
" clip-path="url(#pa1f658e9db)" style="fill: none; stroke-dasharray: 1.85,0.8; stroke-dashoffset: 0; stroke: #808080; stroke-width: 0.5"/>
     </g>
     <g id="text_28">
      <!-- Feb -->
      <g style="fill: #262626" transform="translate(325.608972 365.360937) rotate(-270) scale(0.08 -0.08)">
       <use xlink:href="#ArialMT-46"/>
       <use xlink:href="#ArialMT-65" x="61.083984"/>
       <use xlink:href="#ArialMT-62" x="116.699219"/>
      </g>
     </g>
    </g>
    <g id="xtick_29">
     <g id="line2d_29">
      <path d="M 337.172565 355.860937 
L 337.172565 23.220937 
" clip-path="url(#pa1f658e9db)" style="fill: none; stroke-dasharray: 1.85,0.8; stroke-dashoffset: 0; stroke: #808080; stroke-width: 0.5"/>
     </g>
     <g id="text_29">
      <!-- Mar -->
      <g style="fill: #262626" transform="translate(335.10444 365.360937) rotate(-270) scale(0.08 -0.08)">
       <use xlink:href="#ArialMT-4d"/>
       <use xlink:href="#ArialMT-61" x="83.300781"/>
       <use xlink:href="#ArialMT-72" x="138.916016"/>
      </g>
     </g>
    </g>
    <g id="xtick_30">
     <g id="line2d_30">
      <path d="M 347.685403 355.860937 
L 347.685403 23.220937 
" clip-path="url(#pa1f658e9db)" style="fill: none; stroke-dasharray: 1.85,0.8; stroke-dashoffset: 0; stroke: #808080; stroke-width: 0.5"/>
     </g>
     <g id="text_30">
      <!-- Apr -->
      <g style="fill: #262626" transform="translate(345.617278 365.360937) rotate(-270) scale(0.08 -0.08)">
       <use xlink:href="#ArialMT-41"/>
       <use xlink:href="#ArialMT-70" x="66.699219"/>
       <use xlink:href="#ArialMT-72" x="122.314453"/>
      </g>
     </g>
    </g>
    <g id="xtick_31">
     <g id="line2d_31">
      <path d="M 357.859118 355.860937 
L 357.859118 23.220937 
" clip-path="url(#pa1f658e9db)" style="fill: none; stroke-dasharray: 1.85,0.8; stroke-dashoffset: 0; stroke: #808080; stroke-width: 0.5"/>
     </g>
     <g id="text_31">
      <!-- May -->
      <g style="fill: #262626" transform="translate(355.837868 365.360937) rotate(-270) scale(0.08 -0.08)">
       <use xlink:href="#ArialMT-4d"/>
       <use xlink:href="#ArialMT-61" x="83.300781"/>
       <use xlink:href="#ArialMT-79" x="138.916016"/>
      </g>
     </g>
    </g>
    <g id="xtick_32">
     <g id="line2d_32">
      <path d="M 368.371957 355.860937 
L 368.371957 23.220937 
" clip-path="url(#pa1f658e9db)" style="fill: none; stroke-dasharray: 1.85,0.8; stroke-dashoffset: 0; stroke: #808080; stroke-width: 0.5"/>
     </g>
     <g id="text_32">
      <!-- Jun -->
      <g style="fill: #262626" transform="translate(366.303832 365.360937) rotate(-270) scale(0.08 -0.08)">
       <use xlink:href="#ArialMT-4a"/>
       <use xlink:href="#ArialMT-75" x="50"/>
       <use xlink:href="#ArialMT-6e" x="105.615234"/>
      </g>
     </g>
    </g>
    <g id="xtick_33">
     <g id="line2d_33">
      <path d="M 378.545672 355.860937 
L 378.545672 23.220937 
" clip-path="url(#pa1f658e9db)" style="fill: none; stroke-dasharray: 1.85,0.8; stroke-dashoffset: 0; stroke: #808080; stroke-width: 0.5"/>
     </g>
     <g id="text_33">
      <!-- Jul -->
      <g style="fill: #262626" transform="translate(376.477547 365.360937) rotate(-270) scale(0.08 -0.08)">
       <use xlink:href="#ArialMT-4a"/>
       <use xlink:href="#ArialMT-75" x="50"/>
       <use xlink:href="#ArialMT-6c" x="105.615234"/>
      </g>
     </g>
    </g>
    <g id="xtick_34">
     <g id="line2d_34">
      <path d="M 389.05851 355.860937 
L 389.05851 23.220937 
" clip-path="url(#pa1f658e9db)" style="fill: none; stroke-dasharray: 1.85,0.8; stroke-dashoffset: 0; stroke: #808080; stroke-width: 0.5"/>
     </g>
     <g id="text_34">
      <!-- Aug -->
      <g style="fill: #262626" transform="translate(387.03726 365.360937) rotate(-270) scale(0.08 -0.08)">
       <use xlink:href="#ArialMT-41"/>
       <use xlink:href="#ArialMT-75" x="66.699219"/>
       <use xlink:href="#ArialMT-67" x="122.314453"/>
      </g>
     </g>
    </g>
    <g id="xtick_35">
     <g id="line2d_35">
      <path d="M 399.571349 355.860937 
L 399.571349 23.220937 
" clip-path="url(#pa1f658e9db)" style="fill: none; stroke-dasharray: 1.85,0.8; stroke-dashoffset: 0; stroke: #808080; stroke-width: 0.5"/>
     </g>
     <g id="text_35">
      <!-- Sep -->
      <g style="fill: #262626" transform="translate(397.454474 365.360937) rotate(-270) scale(0.08 -0.08)">
       <use xlink:href="#ArialMT-53"/>
       <use xlink:href="#ArialMT-65" x="66.699219"/>
       <use xlink:href="#ArialMT-70" x="122.314453"/>
      </g>
     </g>
    </g>
    <g id="xtick_36">
     <g id="line2d_36">
      <path d="M 409.745064 355.860937 
L 409.745064 23.220937 
" clip-path="url(#pa1f658e9db)" style="fill: none; stroke-dasharray: 1.85,0.8; stroke-dashoffset: 0; stroke: #808080; stroke-width: 0.5"/>
     </g>
     <g id="text_36">
      <!-- Oct -->
      <g style="fill: #262626" transform="translate(407.676939 365.360937) rotate(-270) scale(0.08 -0.08)">
       <use xlink:href="#ArialMT-4f"/>
       <use xlink:href="#ArialMT-63" x="77.783203"/>
       <use xlink:href="#ArialMT-74" x="127.783203"/>
      </g>
     </g>
    </g>
    <g id="xtick_37">
     <g id="line2d_37">
      <path d="M 420.257903 355.860937 
L 420.257903 23.220937 
" clip-path="url(#pa1f658e9db)" style="fill: none; stroke-dasharray: 1.85,0.8; stroke-dashoffset: 0; stroke: #808080; stroke-width: 0.5"/>
     </g>
     <g id="text_37">
      <!-- Nov -->
      <g style="fill: #262626" transform="translate(418.189778 365.360937) rotate(-270) scale(0.08 -0.08)">
       <use xlink:href="#ArialMT-4e"/>
       <use xlink:href="#ArialMT-6f" x="72.216797"/>
       <use xlink:href="#ArialMT-76" x="127.832031"/>
      </g>
     </g>
    </g>
    <g id="xtick_38">
     <g id="line2d_38">
      <path d="M 430.431617 355.860937 
L 430.431617 23.220937 
" clip-path="url(#pa1f658e9db)" style="fill: none; stroke-dasharray: 1.85,0.8; stroke-dashoffset: 0; stroke: #808080; stroke-width: 0.5"/>
     </g>
     <g id="text_38">
      <!-- Dec -->
      <g style="fill: #262626" transform="translate(428.363492 365.360937) rotate(-270) scale(0.08 -0.08)">
       <use xlink:href="#ArialMT-44"/>
       <use xlink:href="#ArialMT-65" x="72.216797"/>
       <use xlink:href="#ArialMT-63" x="127.832031"/>
      </g>
     </g>
    </g>
    <g id="xtick_39">
     <g id="line2d_39">
      <path d="M 440.944456 355.860937 
L 440.944456 23.220937 
" clip-path="url(#pa1f658e9db)" style="fill: none; stroke-dasharray: 1.85,0.8; stroke-dashoffset: 0; stroke: #808080; stroke-width: 0.5"/>
     </g>
     <g id="text_39">
      <!-- Jan -->
      <g style="fill: #262626" transform="translate(438.876331 365.360937) rotate(-270) scale(0.08 -0.08)">
       <use xlink:href="#ArialMT-4a"/>
       <use xlink:href="#ArialMT-61" x="50"/>
       <use xlink:href="#ArialMT-6e" x="105.615234"/>
      </g>
     </g>
    </g>
    <g id="xtick_40">
     <g id="line2d_40">
      <path d="M 451.457295 355.860937 
L 451.457295 23.220937 
" clip-path="url(#pa1f658e9db)" style="fill: none; stroke-dasharray: 1.85,0.8; stroke-dashoffset: 0; stroke: #808080; stroke-width: 0.5"/>
     </g>
     <g id="text_40">
      <!-- Feb -->
      <g style="fill: #262626" transform="translate(449.38917 365.360937) rotate(-270) scale(0.08 -0.08)">
       <use xlink:href="#ArialMT-46"/>
       <use xlink:href="#ArialMT-65" x="61.083984"/>
       <use xlink:href="#ArialMT-62" x="116.699219"/>
      </g>
     </g>
    </g>
    <g id="xtick_41">
     <g id="line2d_41">
      <path d="M 461.291886 355.860937 
L 461.291886 23.220937 
" clip-path="url(#pa1f658e9db)" style="fill: none; stroke-dasharray: 1.85,0.8; stroke-dashoffset: 0; stroke: #808080; stroke-width: 0.5"/>
     </g>
     <g id="text_41">
      <!-- Mar -->
      <g style="fill: #262626" transform="translate(459.223761 365.360937) rotate(-270) scale(0.08 -0.08)">
       <use xlink:href="#ArialMT-4d"/>
       <use xlink:href="#ArialMT-61" x="83.300781"/>
       <use xlink:href="#ArialMT-72" x="138.916016"/>
      </g>
     </g>
    </g>
    <g id="xtick_42">
     <g id="line2d_42">
      <path d="M 471.804725 355.860937 
L 471.804725 23.220937 
" clip-path="url(#pa1f658e9db)" style="fill: none; stroke-dasharray: 1.85,0.8; stroke-dashoffset: 0; stroke: #808080; stroke-width: 0.5"/>
     </g>
     <g id="text_42">
      <!-- Apr -->
      <g style="fill: #262626" transform="translate(469.7366 365.360937) rotate(-270) scale(0.08 -0.08)">
       <use xlink:href="#ArialMT-41"/>
       <use xlink:href="#ArialMT-70" x="66.699219"/>
       <use xlink:href="#ArialMT-72" x="122.314453"/>
      </g>
     </g>
    </g>
    <g id="xtick_43">
     <g id="line2d_43">
      <path d="M 481.978439 355.860937 
L 481.978439 23.220937 
" clip-path="url(#pa1f658e9db)" style="fill: none; stroke-dasharray: 1.85,0.8; stroke-dashoffset: 0; stroke: #808080; stroke-width: 0.5"/>
     </g>
     <g id="text_43">
      <!-- May -->
      <g style="fill: #262626" transform="translate(479.957189 365.360937) rotate(-270) scale(0.08 -0.08)">
       <use xlink:href="#ArialMT-4d"/>
       <use xlink:href="#ArialMT-61" x="83.300781"/>
       <use xlink:href="#ArialMT-79" x="138.916016"/>
      </g>
     </g>
    </g>
    <g id="xtick_44">
     <g id="line2d_44">
      <path d="M 492.491278 355.860937 
L 492.491278 23.220937 
" clip-path="url(#pa1f658e9db)" style="fill: none; stroke-dasharray: 1.85,0.8; stroke-dashoffset: 0; stroke: #808080; stroke-width: 0.5"/>
     </g>
     <g id="text_44">
      <!-- Jun -->
      <g style="fill: #262626" transform="translate(490.423153 365.360937) rotate(-270) scale(0.08 -0.08)">
       <use xlink:href="#ArialMT-4a"/>
       <use xlink:href="#ArialMT-75" x="50"/>
       <use xlink:href="#ArialMT-6e" x="105.615234"/>
      </g>
     </g>
    </g>
    <g id="xtick_45">
     <g id="line2d_45">
      <path d="M 502.664993 355.860937 
L 502.664993 23.220937 
" clip-path="url(#pa1f658e9db)" style="fill: none; stroke-dasharray: 1.85,0.8; stroke-dashoffset: 0; stroke: #808080; stroke-width: 0.5"/>
     </g>
     <g id="text_45">
      <!-- Jul -->
      <g style="fill: #262626" transform="translate(500.596868 365.360937) rotate(-270) scale(0.08 -0.08)">
       <use xlink:href="#ArialMT-4a"/>
       <use xlink:href="#ArialMT-75" x="50"/>
       <use xlink:href="#ArialMT-6c" x="105.615234"/>
      </g>
     </g>
    </g>
    <g id="xtick_46">
     <g id="line2d_46">
      <path d="M 513.177832 355.860937 
L 513.177832 23.220937 
" clip-path="url(#pa1f658e9db)" style="fill: none; stroke-dasharray: 1.85,0.8; stroke-dashoffset: 0; stroke: #808080; stroke-width: 0.5"/>
     </g>
     <g id="text_46">
      <!-- Aug -->
      <g style="fill: #262626" transform="translate(511.156582 365.360937) rotate(-270) scale(0.08 -0.08)">
       <use xlink:href="#ArialMT-41"/>
       <use xlink:href="#ArialMT-75" x="66.699219"/>
       <use xlink:href="#ArialMT-67" x="122.314453"/>
      </g>
     </g>
    </g>
    <g id="xtick_47">
     <g id="line2d_47">
      <path d="M 523.69067 355.860937 
L 523.69067 23.220937 
" clip-path="url(#pa1f658e9db)" style="fill: none; stroke-dasharray: 1.85,0.8; stroke-dashoffset: 0; stroke: #808080; stroke-width: 0.5"/>
     </g>
     <g id="text_47">
      <!-- Sep -->
      <g style="fill: #262626" transform="translate(521.573795 365.360937) rotate(-270) scale(0.08 -0.08)">
       <use xlink:href="#ArialMT-53"/>
       <use xlink:href="#ArialMT-65" x="66.699219"/>
       <use xlink:href="#ArialMT-70" x="122.314453"/>
      </g>
     </g>
    </g>
    <g id="xtick_48">
     <g id="line2d_48">
      <path d="M 533.864385 355.860937 
L 533.864385 23.220937 
" clip-path="url(#pa1f658e9db)" style="fill: none; stroke-dasharray: 1.85,0.8; stroke-dashoffset: 0; stroke: #808080; stroke-width: 0.5"/>
     </g>
     <g id="text_48">
      <!-- Oct -->
      <g style="fill: #262626" transform="translate(531.79626 365.360937) rotate(-270) scale(0.08 -0.08)">
       <use xlink:href="#ArialMT-4f"/>
       <use xlink:href="#ArialMT-63" x="77.783203"/>
       <use xlink:href="#ArialMT-74" x="127.783203"/>
      </g>
     </g>
    </g>
    <g id="xtick_49">
     <g id="line2d_49">
      <path d="M 544.377224 355.860937 
L 544.377224 23.220937 
" clip-path="url(#pa1f658e9db)" style="fill: none; stroke-dasharray: 1.85,0.8; stroke-dashoffset: 0; stroke: #808080; stroke-width: 0.5"/>
     </g>
     <g id="text_49">
      <!-- Nov -->
      <g style="fill: #262626" transform="translate(542.309099 365.360937) rotate(-270) scale(0.08 -0.08)">
       <use xlink:href="#ArialMT-4e"/>
       <use xlink:href="#ArialMT-6f" x="72.216797"/>
       <use xlink:href="#ArialMT-76" x="127.832031"/>
      </g>
     </g>
    </g>
    <g id="xtick_50">
     <g id="line2d_50">
      <path d="M 554.550939 355.860937 
L 554.550939 23.220937 
" clip-path="url(#pa1f658e9db)" style="fill: none; stroke-dasharray: 1.85,0.8; stroke-dashoffset: 0; stroke: #808080; stroke-width: 0.5"/>
     </g>
     <g id="text_50">
      <!-- Dec -->
      <g style="fill: #262626" transform="translate(552.482814 365.360937) rotate(-270) scale(0.08 -0.08)">
       <use xlink:href="#ArialMT-44"/>
       <use xlink:href="#ArialMT-65" x="72.216797"/>
       <use xlink:href="#ArialMT-63" x="127.832031"/>
      </g>
     </g>
    </g>
    <g id="xtick_51">
     <g id="line2d_51">
      <path d="M 565.063778 355.860937 
L 565.063778 23.220937 
" clip-path="url(#pa1f658e9db)" style="fill: none; stroke-dasharray: 1.85,0.8; stroke-dashoffset: 0; stroke: #808080; stroke-width: 0.5"/>
     </g>
     <g id="text_51">
      <!-- Jan -->
      <g style="fill: #262626" transform="translate(562.995653 365.360937) rotate(-270) scale(0.08 -0.08)">
       <use xlink:href="#ArialMT-4a"/>
       <use xlink:href="#ArialMT-61" x="50"/>
       <use xlink:href="#ArialMT-6e" x="105.615234"/>
      </g>
     </g>
    </g>
    <g id="xtick_52">
     <g id="line2d_52">
      <path d="M 575.576616 355.860937 
L 575.576616 23.220937 
" clip-path="url(#pa1f658e9db)" style="fill: none; stroke-dasharray: 1.85,0.8; stroke-dashoffset: 0; stroke: #808080; stroke-width: 0.5"/>
     </g>
     <g id="text_52">
      <!-- Feb -->
      <g style="fill: #262626" transform="translate(573.508491 365.360937) rotate(-270) scale(0.08 -0.08)">
       <use xlink:href="#ArialMT-46"/>
       <use xlink:href="#ArialMT-65" x="61.083984"/>
       <use xlink:href="#ArialMT-62" x="116.699219"/>
      </g>
     </g>
    </g>
    <g id="xtick_53">
     <g id="line2d_53">
      <path d="M 585.072083 355.860937 
L 585.072083 23.220937 
" clip-path="url(#pa1f658e9db)" style="fill: none; stroke-dasharray: 1.85,0.8; stroke-dashoffset: 0; stroke: #808080; stroke-width: 0.5"/>
     </g>
     <g id="text_53">
      <!-- Mar -->
      <g style="fill: #262626" transform="translate(583.003958 365.360937) rotate(-270) scale(0.08 -0.08)">
       <use xlink:href="#ArialMT-4d"/>
       <use xlink:href="#ArialMT-61" x="83.300781"/>
       <use xlink:href="#ArialMT-72" x="138.916016"/>
      </g>
     </g>
    </g>
    <g id="xtick_54">
     <g id="line2d_54">
      <path d="M 595.584922 355.860937 
L 595.584922 23.220937 
" clip-path="url(#pa1f658e9db)" style="fill: none; stroke-dasharray: 1.85,0.8; stroke-dashoffset: 0; stroke: #808080; stroke-width: 0.5"/>
     </g>
     <g id="text_54">
      <!-- Apr -->
      <g style="fill: #262626" transform="translate(593.516797 365.360937) rotate(-270) scale(0.08 -0.08)">
       <use xlink:href="#ArialMT-41"/>
       <use xlink:href="#ArialMT-70" x="66.699219"/>
       <use xlink:href="#ArialMT-72" x="122.314453"/>
      </g>
     </g>
    </g>
    <g id="xtick_55">
     <g id="line2d_55">
      <path d="M 605.758637 355.860937 
L 605.758637 23.220937 
" clip-path="url(#pa1f658e9db)" style="fill: none; stroke-dasharray: 1.85,0.8; stroke-dashoffset: 0; stroke: #808080; stroke-width: 0.5"/>
     </g>
     <g id="text_55">
      <!-- May -->
      <g style="fill: #262626" transform="translate(603.737387 365.360937) rotate(-270) scale(0.08 -0.08)">
       <use xlink:href="#ArialMT-4d"/>
       <use xlink:href="#ArialMT-61" x="83.300781"/>
       <use xlink:href="#ArialMT-79" x="138.916016"/>
      </g>
     </g>
    </g>
    <g id="xtick_56">
     <g id="line2d_56">
      <path d="M 616.271476 355.860937 
L 616.271476 23.220937 
" clip-path="url(#pa1f658e9db)" style="fill: none; stroke-dasharray: 1.85,0.8; stroke-dashoffset: 0; stroke: #808080; stroke-width: 0.5"/>
     </g>
     <g id="text_56">
      <!-- Jun -->
      <g style="fill: #262626" transform="translate(614.203351 365.360937) rotate(-270) scale(0.08 -0.08)">
       <use xlink:href="#ArialMT-4a"/>
       <use xlink:href="#ArialMT-75" x="50"/>
       <use xlink:href="#ArialMT-6e" x="105.615234"/>
      </g>
     </g>
    </g>
    <g id="xtick_57">
     <g id="line2d_57">
      <path d="M 626.445191 355.860937 
L 626.445191 23.220937 
" clip-path="url(#pa1f658e9db)" style="fill: none; stroke-dasharray: 1.85,0.8; stroke-dashoffset: 0; stroke: #808080; stroke-width: 0.5"/>
     </g>
     <g id="text_57">
      <!-- Jul -->
      <g style="fill: #262626" transform="translate(624.377066 365.360937) rotate(-270) scale(0.08 -0.08)">
       <use xlink:href="#ArialMT-4a"/>
       <use xlink:href="#ArialMT-75" x="50"/>
       <use xlink:href="#ArialMT-6c" x="105.615234"/>
      </g>
     </g>
    </g>
    <g id="xtick_58">
     <g id="line2d_58">
      <path d="M 636.958029 355.860937 
L 636.958029 23.220937 
" clip-path="url(#pa1f658e9db)" style="fill: none; stroke-dasharray: 1.85,0.8; stroke-dashoffset: 0; stroke: #808080; stroke-width: 0.5"/>
     </g>
     <g id="text_58">
      <!-- Aug -->
      <g style="fill: #262626" transform="translate(634.936779 365.360937) rotate(-270) scale(0.08 -0.08)">
       <use xlink:href="#ArialMT-41"/>
       <use xlink:href="#ArialMT-75" x="66.699219"/>
       <use xlink:href="#ArialMT-67" x="122.314453"/>
      </g>
     </g>
    </g>
    <g id="xtick_59">
     <g id="line2d_59">
      <path d="M 647.470868 355.860937 
L 647.470868 23.220937 
" clip-path="url(#pa1f658e9db)" style="fill: none; stroke-dasharray: 1.85,0.8; stroke-dashoffset: 0; stroke: #808080; stroke-width: 0.5"/>
     </g>
     <g id="text_59">
      <!-- Sep -->
      <g style="fill: #262626" transform="translate(645.353993 365.360937) rotate(-270) scale(0.08 -0.08)">
       <use xlink:href="#ArialMT-53"/>
       <use xlink:href="#ArialMT-65" x="66.699219"/>
       <use xlink:href="#ArialMT-70" x="122.314453"/>
      </g>
     </g>
    </g>
    <g id="xtick_60">
     <g id="line2d_60">
      <path d="M 657.644583 355.860937 
L 657.644583 23.220937 
" clip-path="url(#pa1f658e9db)" style="fill: none; stroke-dasharray: 1.85,0.8; stroke-dashoffset: 0; stroke: #808080; stroke-width: 0.5"/>
     </g>
     <g id="text_60">
      <!-- Oct -->
      <g style="fill: #262626" transform="translate(655.576458 365.360937) rotate(-270) scale(0.08 -0.08)">
       <use xlink:href="#ArialMT-4f"/>
       <use xlink:href="#ArialMT-63" x="77.783203"/>
       <use xlink:href="#ArialMT-74" x="127.783203"/>
      </g>
     </g>
    </g>
    <g id="xtick_61">
     <g id="line2d_61">
      <path d="M 668.157421 355.860937 
L 668.157421 23.220937 
" clip-path="url(#pa1f658e9db)" style="fill: none; stroke-dasharray: 1.85,0.8; stroke-dashoffset: 0; stroke: #808080; stroke-width: 0.5"/>
     </g>
     <g id="text_61">
      <!-- Nov -->
      <g style="fill: #262626" transform="translate(666.089296 365.360937) rotate(-270) scale(0.08 -0.08)">
       <use xlink:href="#ArialMT-4e"/>
       <use xlink:href="#ArialMT-6f" x="72.216797"/>
       <use xlink:href="#ArialMT-76" x="127.832031"/>
      </g>
     </g>
    </g>
    <g id="xtick_62">
     <g id="line2d_62">
      <path d="M 678.331136 355.860937 
L 678.331136 23.220937 
" clip-path="url(#pa1f658e9db)" style="fill: none; stroke-dasharray: 1.85,0.8; stroke-dashoffset: 0; stroke: #808080; stroke-width: 0.5"/>
     </g>
     <g id="text_62">
      <!-- Dec -->
      <g style="fill: #262626" transform="translate(676.263011 365.360937) rotate(-270) scale(0.08 -0.08)">
       <use xlink:href="#ArialMT-44"/>
       <use xlink:href="#ArialMT-65" x="72.216797"/>
       <use xlink:href="#ArialMT-63" x="127.832031"/>
      </g>
     </g>
    </g>
    <g id="xtick_63">
     <g id="line2d_63">
      <path d="M 688.843975 355.860937 
L 688.843975 23.220937 
" clip-path="url(#pa1f658e9db)" style="fill: none; stroke-dasharray: 1.85,0.8; stroke-dashoffset: 0; stroke: #808080; stroke-width: 0.5"/>
     </g>
     <g id="text_63">
      <!-- Jan -->
      <g style="fill: #262626" transform="translate(686.77585 365.360937) rotate(-270) scale(0.08 -0.08)">
       <use xlink:href="#ArialMT-4a"/>
       <use xlink:href="#ArialMT-61" x="50"/>
       <use xlink:href="#ArialMT-6e" x="105.615234"/>
      </g>
     </g>
    </g>
    <g id="xtick_64">
     <g id="line2d_64">
      <path d="M 699.356814 355.860937 
L 699.356814 23.220937 
" clip-path="url(#pa1f658e9db)" style="fill: none; stroke-dasharray: 1.85,0.8; stroke-dashoffset: 0; stroke: #808080; stroke-width: 0.5"/>
     </g>
     <g id="text_64">
      <!-- Feb -->
      <g style="fill: #262626" transform="translate(697.288689 365.360937) rotate(-270) scale(0.08 -0.08)">
       <use xlink:href="#ArialMT-46"/>
       <use xlink:href="#ArialMT-65" x="61.083984"/>
       <use xlink:href="#ArialMT-62" x="116.699219"/>
      </g>
     </g>
    </g>
   </g>
   <g id="matplotlib.axis_2">
    <g id="ytick_1">
     <g id="line2d_65">
      <path d="M 39.1675 327.413868 
L 708.7675 327.413868 
" clip-path="url(#pa1f658e9db)" style="fill: none; stroke-dasharray: 1.85,0.8; stroke-dashoffset: 0; stroke: #808080; stroke-width: 0.5"/>
     </g>
     <g id="text_65">
      <!-- −1000 -->
      <g style="fill: #262626" transform="translate(7.2 330.276993) scale(0.08 -0.08)">
       <defs>
        <path id="ArialMT-2212" d="M 3381 1997 
L 356 1997 
L 356 2522 
L 3381 2522 
L 3381 1997 
z
" transform="scale(0.015625)"/>
        <path id="ArialMT-31" d="M 2384 0 
L 1822 0 
L 1822 3584 
Q 1619 3391 1289 3197 
Q 959 3003 697 2906 
L 697 3450 
Q 1169 3672 1522 3987 
Q 1875 4303 2022 4600 
L 2384 4600 
L 2384 0 
z
" transform="scale(0.015625)"/>
        <path id="ArialMT-30" d="M 266 2259 
Q 266 3072 433 3567 
Q 600 4063 929 4331 
Q 1259 4600 1759 4600 
Q 2128 4600 2406 4451 
Q 2684 4303 2865 4023 
Q 3047 3744 3150 3342 
Q 3253 2941 3253 2259 
Q 3253 1453 3087 958 
Q 2922 463 2592 192 
Q 2263 -78 1759 -78 
Q 1097 -78 719 397 
Q 266 969 266 2259 
z
M 844 2259 
Q 844 1131 1108 757 
Q 1372 384 1759 384 
Q 2147 384 2411 759 
Q 2675 1134 2675 2259 
Q 2675 3391 2411 3762 
Q 2147 4134 1753 4134 
Q 1366 4134 1134 3806 
Q 844 3388 844 2259 
z
" transform="scale(0.015625)"/>
       </defs>
       <use xlink:href="#ArialMT-2212"/>
       <use xlink:href="#ArialMT-31" x="58.398438"/>
       <use xlink:href="#ArialMT-30" x="114.013672"/>
       <use xlink:href="#ArialMT-30" x="169.628906"/>
       <use xlink:href="#ArialMT-30" x="225.244141"/>
      </g>
     </g>
    </g>
    <g id="ytick_2">
     <g id="line2d_66">
      <path d="M 39.1675 257.941883 
L 708.7675 257.941883 
" clip-path="url(#pa1f658e9db)" style="fill: none; stroke-dasharray: 1.85,0.8; stroke-dashoffset: 0; stroke: #808080; stroke-width: 0.5"/>
     </g>
     <g id="text_66">
      <!-- 0 -->
      <g style="fill: #262626" transform="translate(25.21875 260.805008) scale(0.08 -0.08)">
       <use xlink:href="#ArialMT-30"/>
      </g>
     </g>
    </g>
    <g id="ytick_3">
     <g id="line2d_67">
      <path d="M 39.1675 188.469898 
L 708.7675 188.469898 
" clip-path="url(#pa1f658e9db)" style="fill: none; stroke-dasharray: 1.85,0.8; stroke-dashoffset: 0; stroke: #808080; stroke-width: 0.5"/>
     </g>
     <g id="text_67">
      <!-- 1000 -->
      <g style="fill: #262626" transform="translate(11.8725 191.333023) scale(0.08 -0.08)">
       <use xlink:href="#ArialMT-31"/>
       <use xlink:href="#ArialMT-30" x="55.615234"/>
       <use xlink:href="#ArialMT-30" x="111.230469"/>
       <use xlink:href="#ArialMT-30" x="166.845703"/>
      </g>
     </g>
    </g>
    <g id="ytick_4">
     <g id="line2d_68">
      <path d="M 39.1675 118.997912 
L 708.7675 118.997912 
" clip-path="url(#pa1f658e9db)" style="fill: none; stroke-dasharray: 1.85,0.8; stroke-dashoffset: 0; stroke: #808080; stroke-width: 0.5"/>
     </g>
     <g id="text_68">
      <!-- 2000 -->
      <g style="fill: #262626" transform="translate(11.8725 121.861037) scale(0.08 -0.08)">
       <defs>
        <path id="ArialMT-32" d="M 3222 541 
L 3222 0 
L 194 0 
Q 188 203 259 391 
Q 375 700 629 1000 
Q 884 1300 1366 1694 
Q 2113 2306 2375 2664 
Q 2638 3022 2638 3341 
Q 2638 3675 2398 3904 
Q 2159 4134 1775 4134 
Q 1369 4134 1125 3890 
Q 881 3647 878 3216 
L 300 3275 
Q 359 3922 746 4261 
Q 1134 4600 1788 4600 
Q 2447 4600 2831 4234 
Q 3216 3869 3216 3328 
Q 3216 3053 3103 2787 
Q 2991 2522 2730 2228 
Q 2469 1934 1863 1422 
Q 1356 997 1212 845 
Q 1069 694 975 541 
L 3222 541 
z
" transform="scale(0.015625)"/>
       </defs>
       <use xlink:href="#ArialMT-32"/>
       <use xlink:href="#ArialMT-30" x="55.615234"/>
       <use xlink:href="#ArialMT-30" x="111.230469"/>
       <use xlink:href="#ArialMT-30" x="166.845703"/>
      </g>
     </g>
    </g>
    <g id="ytick_5">
     <g id="line2d_69">
      <path d="M 39.1675 49.525927 
L 708.7675 49.525927 
" clip-path="url(#pa1f658e9db)" style="fill: none; stroke-dasharray: 1.85,0.8; stroke-dashoffset: 0; stroke: #808080; stroke-width: 0.5"/>
     </g>
     <g id="text_69">
      <!-- 3000 -->
      <g style="fill: #262626" transform="translate(11.8725 52.389052) scale(0.08 -0.08)">
       <defs>
        <path id="ArialMT-33" d="M 269 1209 
L 831 1284 
Q 928 806 1161 595 
Q 1394 384 1728 384 
Q 2125 384 2398 659 
Q 2672 934 2672 1341 
Q 2672 1728 2419 1979 
Q 2166 2231 1775 2231 
Q 1616 2231 1378 2169 
L 1441 2663 
Q 1497 2656 1531 2656 
Q 1891 2656 2178 2843 
Q 2466 3031 2466 3422 
Q 2466 3731 2256 3934 
Q 2047 4138 1716 4138 
Q 1388 4138 1169 3931 
Q 950 3725 888 3313 
L 325 3413 
Q 428 3978 793 4289 
Q 1159 4600 1703 4600 
Q 2078 4600 2393 4439 
Q 2709 4278 2876 4000 
Q 3044 3722 3044 3409 
Q 3044 3113 2884 2869 
Q 2725 2625 2413 2481 
Q 2819 2388 3044 2092 
Q 3269 1797 3269 1353 
Q 3269 753 2831 336 
Q 2394 -81 1725 -81 
Q 1122 -81 723 278 
Q 325 638 269 1209 
z
" transform="scale(0.015625)"/>
       </defs>
       <use xlink:href="#ArialMT-33"/>
       <use xlink:href="#ArialMT-30" x="55.615234"/>
       <use xlink:href="#ArialMT-30" x="111.230469"/>
       <use xlink:href="#ArialMT-30" x="166.845703"/>
      </g>
     </g>
    </g>
   </g>
   <g id="PolyCollection_1">
    <defs>
     <path id="m080302009d" d="M 564.724654 -278.331072 
L 564.724654 -105.23709 
L 575.237492 -78.153587 
L 584.73296 -51.627109 
L 595.245798 -46.9325 
L 605.419513 -50.442181 
L 615.932352 -107.750241 
L 626.106067 -86.547646 
L 636.618905 -83.301324 
L 647.131744 -135.919858 
L 657.305459 -111.07694 
L 667.818298 -92.305302 
L 677.992013 -91.632299 
L 677.992013 -267.257849 
L 677.992013 -267.257849 
L 667.818298 -267.930852 
L 657.305459 -286.70249 
L 647.131744 -311.545408 
L 636.618905 -258.926875 
L 626.106067 -262.173196 
L 615.932352 -283.375791 
L 605.419513 -226.067729 
L 595.245798 -222.557991 
L 584.73296 -227.250601 
L 575.237492 -253.707188 
L 564.724654 -278.331072 
z
" style="stroke: #b9445f; stroke-opacity: 0.3"/>
    </defs>
    <g clip-path="url(#pa1f658e9db)">
     <use xlink:href="#m080302009d" x="0" y="387.673437" style="fill: #b9445f; fill-opacity: 0.3; stroke: #b9445f; stroke-opacity: 0.3"/>
    </g>
   </g>
   <g id="line2d_70">
    <path d="M 69.603864 257.941883 
L 80.116702 257.941883 
L 89.61217 242.658046 
L 100.125008 243.769598 
L 110.298723 199.029639 
L 120.811562 207.08839 
L 130.985277 163.529455 
L 141.498115 155.818064 
L 152.010954 223.761666 
L 162.184669 229.527841 
L 172.697508 246.965309 
L 182.871222 257.941883 
L 193.384061 257.386107 
L 203.8969 257.941883 
L 213.392367 247.173725 
L 223.905206 215.563972 
L 234.078921 185.552074 
L 244.591759 156.790672 
L 254.765474 123.791479 
L 265.278313 142.618387 
L 275.791152 185.552074 
L 285.964866 206.185254 
L 296.477705 242.380158 
L 306.65142 257.386107 
L 317.164259 253.912508 
L 327.677097 234.04352 
L 337.172565 257.941883 
L 347.685403 230.361505 
L 357.859118 149.982418 
L 409.745064 227.721569 
L 420.257903 256.691387 
L 430.431617 257.941883 
L 440.944456 257.941883 
L 451.457295 255.440891 
L 461.291886 255.301947 
L 471.804725 244.811678 
L 481.978439 240.018111 
L 492.491278 65.7129 
L 502.664993 130.182902 
L 513.177832 183.676331 
L 523.69067 125.736695 
L 533.864385 224.734274 
L 544.377224 254.259868 
L 554.550939 257.941883 
L 565.063778 252.800956 
L 575.576616 247.660029 
L 585.072083 257.386107 
L 595.584922 253.495676 
L 605.758637 227.652097 
L 616.271476 75.438978 
L 626.445191 190.415113 
L 636.958029 155.540177 
L 647.470868 38.340937 
L 657.644583 175.27022 
L 668.157421 247.173725 
L 678.331136 254.398811 
" clip-path="url(#pa1f658e9db)" style="fill: none; stroke: #194a7a; stroke-width: 1.2; stroke-linecap: round"/>
   </g>
   <g id="line2d_71">
    <path d="M 564.724654 195.889357 
L 575.237492 221.74305 
L 584.73296 248.234582 
L 595.245798 252.928192 
L 605.419513 249.418482 
L 615.932352 192.110421 
L 626.106067 213.313017 
L 636.618905 216.559338 
L 647.131744 163.940805 
L 657.305459 188.783723 
L 667.818298 207.555361 
L 677.992013 208.228364 
" clip-path="url(#pa1f658e9db)" style="fill: none; stroke: #b60033; stroke-width: 1.2; stroke-linecap: round"/>
   </g>
   <g id="line2d_72">
    <path d="M 554.550939 257.941883 
L 564.724654 195.889357 
" clip-path="url(#pa1f658e9db)" style="fill: none; stroke: #b60033; stroke-width: 1.5; stroke-linecap: round"/>
   </g>
   <g id="patch_3">
    <path d="M 39.1675 355.860937 
L 39.1675 23.220937 
" style="fill: none; stroke: #cccccc; stroke-width: 1.25; stroke-linejoin: miter; stroke-linecap: square"/>
   </g>
   <g id="patch_4">
    <path d="M 708.7675 355.860937 
L 708.7675 23.220937 
" style="fill: none; stroke: #cccccc; stroke-width: 1.25; stroke-linejoin: miter; stroke-linecap: square"/>
   </g>
   <g id="patch_5">
    <path d="M 39.1675 355.860937 
L 708.7675 355.860937 
" style="fill: none; stroke: #cccccc; stroke-width: 1.25; stroke-linejoin: miter; stroke-linecap: square"/>
   </g>
   <g id="patch_6">
    <path d="M 39.1675 23.220937 
L 708.7675 23.220937 
" style="fill: none; stroke: #cccccc; stroke-width: 1.25; stroke-linejoin: miter; stroke-linecap: square"/>
   </g>
   <g id="text_70">
    <!-- Pronóstico con SARIMAX -->
    <g style="fill: #262626" transform="translate(288.798281 17.220937) scale(0.14 -0.14)">
     <defs>
      <path id="Arial-BoldMT-50" d="M 466 0 
L 466 4581 
L 1950 4581 
Q 2794 4581 3050 4513 
Q 3444 4409 3709 4064 
Q 3975 3719 3975 3172 
Q 3975 2750 3822 2462 
Q 3669 2175 3433 2011 
Q 3197 1847 2953 1794 
Q 2622 1728 1994 1728 
L 1391 1728 
L 1391 0 
L 466 0 
z
M 1391 3806 
L 1391 2506 
L 1897 2506 
Q 2444 2506 2628 2578 
Q 2813 2650 2917 2803 
Q 3022 2956 3022 3159 
Q 3022 3409 2875 3571 
Q 2728 3734 2503 3775 
Q 2338 3806 1838 3806 
L 1391 3806 
z
" transform="scale(0.015625)"/>
      <path id="Arial-BoldMT-72" d="M 1300 0 
L 422 0 
L 422 3319 
L 1238 3319 
L 1238 2847 
Q 1447 3181 1614 3287 
Q 1781 3394 1994 3394 
Q 2294 3394 2572 3228 
L 2300 2463 
Q 2078 2606 1888 2606 
Q 1703 2606 1575 2504 
Q 1447 2403 1373 2137 
Q 1300 1872 1300 1025 
L 1300 0 
z
" transform="scale(0.015625)"/>
      <path id="Arial-BoldMT-6f" d="M 256 1706 
Q 256 2144 472 2553 
Q 688 2963 1083 3178 
Q 1478 3394 1966 3394 
Q 2719 3394 3200 2905 
Q 3681 2416 3681 1669 
Q 3681 916 3195 420 
Q 2709 -75 1972 -75 
Q 1516 -75 1102 131 
Q 688 338 472 736 
Q 256 1134 256 1706 
z
M 1156 1659 
Q 1156 1166 1390 903 
Q 1625 641 1969 641 
Q 2313 641 2545 903 
Q 2778 1166 2778 1666 
Q 2778 2153 2545 2415 
Q 2313 2678 1969 2678 
Q 1625 2678 1390 2415 
Q 1156 2153 1156 1659 
z
" transform="scale(0.015625)"/>
      <path id="Arial-BoldMT-6e" d="M 3478 0 
L 2600 0 
L 2600 1694 
Q 2600 2231 2544 2389 
Q 2488 2547 2361 2634 
Q 2234 2722 2056 2722 
Q 1828 2722 1647 2597 
Q 1466 2472 1398 2265 
Q 1331 2059 1331 1503 
L 1331 0 
L 453 0 
L 453 3319 
L 1269 3319 
L 1269 2831 
Q 1703 3394 2363 3394 
Q 2653 3394 2893 3289 
Q 3134 3184 3257 3021 
Q 3381 2859 3429 2653 
Q 3478 2447 3478 2063 
L 3478 0 
z
" transform="scale(0.015625)"/>
      <path id="Arial-BoldMT-f3" d="M 256 1706 
Q 256 2144 472 2553 
Q 688 2963 1083 3178 
Q 1478 3394 1966 3394 
Q 2719 3394 3200 2905 
Q 3681 2416 3681 1669 
Q 3681 916 3195 420 
Q 2709 -75 1972 -75 
Q 1516 -75 1102 131 
Q 688 338 472 736 
Q 256 1134 256 1706 
z
M 1156 1659 
Q 1156 1166 1390 903 
Q 1625 641 1969 641 
Q 2313 641 2545 903 
Q 2778 1166 2778 1666 
Q 2778 2153 2545 2415 
Q 2313 2678 1969 2678 
Q 1625 2678 1390 2415 
Q 1156 2153 1156 1659 
z
M 1528 3725 
L 1960 4659 
L 2944 4659 
L 2085 3725 
L 1528 3725 
z
" transform="scale(0.015625)"/>
      <path id="Arial-BoldMT-73" d="M 150 947 
L 1031 1081 
Q 1088 825 1259 692 
Q 1431 559 1741 559 
Q 2081 559 2253 684 
Q 2369 772 2369 919 
Q 2369 1019 2306 1084 
Q 2241 1147 2013 1200 
Q 950 1434 666 1628 
Q 272 1897 272 2375 
Q 272 2806 612 3100 
Q 953 3394 1669 3394 
Q 2350 3394 2681 3172 
Q 3013 2950 3138 2516 
L 2309 2363 
Q 2256 2556 2107 2659 
Q 1959 2763 1684 2763 
Q 1338 2763 1188 2666 
Q 1088 2597 1088 2488 
Q 1088 2394 1175 2328 
Q 1294 2241 1995 2081 
Q 2697 1922 2975 1691 
Q 3250 1456 3250 1038 
Q 3250 581 2869 253 
Q 2488 -75 1741 -75 
Q 1063 -75 667 200 
Q 272 475 150 947 
z
" transform="scale(0.015625)"/>
      <path id="Arial-BoldMT-74" d="M 1981 3319 
L 1981 2619 
L 1381 2619 
L 1381 1281 
Q 1381 875 1398 808 
Q 1416 741 1477 697 
Q 1538 653 1625 653 
Q 1747 653 1978 738 
L 2053 56 
Q 1747 -75 1359 -75 
Q 1122 -75 931 4 
Q 741 84 652 211 
Q 563 338 528 553 
Q 500 706 500 1172 
L 500 2619 
L 97 2619 
L 97 3319 
L 500 3319 
L 500 3978 
L 1381 4491 
L 1381 3319 
L 1981 3319 
z
" transform="scale(0.015625)"/>
      <path id="Arial-BoldMT-69" d="M 459 3769 
L 459 4581 
L 1338 4581 
L 1338 3769 
L 459 3769 
z
M 459 0 
L 459 3319 
L 1338 3319 
L 1338 0 
L 459 0 
z
" transform="scale(0.015625)"/>
      <path id="Arial-BoldMT-63" d="M 3353 2338 
L 2488 2181 
Q 2444 2441 2289 2572 
Q 2134 2703 1888 2703 
Q 1559 2703 1364 2476 
Q 1169 2250 1169 1719 
Q 1169 1128 1367 884 
Q 1566 641 1900 641 
Q 2150 641 2309 783 
Q 2469 925 2534 1272 
L 3397 1125 
Q 3263 531 2881 228 
Q 2500 -75 1859 -75 
Q 1131 -75 698 384 
Q 266 844 266 1656 
Q 266 2478 700 2936 
Q 1134 3394 1875 3394 
Q 2481 3394 2839 3133 
Q 3197 2872 3353 2338 
z
" transform="scale(0.015625)"/>
      <path id="Arial-BoldMT-20" transform="scale(0.015625)"/>
      <path id="Arial-BoldMT-53" d="M 231 1491 
L 1131 1578 
Q 1213 1125 1461 912 
Q 1709 700 2131 700 
Q 2578 700 2804 889 
Q 3031 1078 3031 1331 
Q 3031 1494 2936 1608 
Q 2841 1722 2603 1806 
Q 2441 1863 1863 2006 
Q 1119 2191 819 2459 
Q 397 2838 397 3381 
Q 397 3731 595 4036 
Q 794 4341 1167 4500 
Q 1541 4659 2069 4659 
Q 2931 4659 3367 4281 
Q 3803 3903 3825 3272 
L 2900 3231 
Q 2841 3584 2645 3739 
Q 2450 3894 2059 3894 
Q 1656 3894 1428 3728 
Q 1281 3622 1281 3444 
Q 1281 3281 1419 3166 
Q 1594 3019 2269 2859 
Q 2944 2700 3267 2529 
Q 3591 2359 3773 2064 
Q 3956 1769 3956 1334 
Q 3956 941 3737 597 
Q 3519 253 3119 86 
Q 2719 -81 2122 -81 
Q 1253 -81 787 320 
Q 322 722 231 1491 
z
" transform="scale(0.015625)"/>
      <path id="Arial-BoldMT-41" d="M 4597 0 
L 3591 0 
L 3191 1041 
L 1359 1041 
L 981 0 
L 0 0 
L 1784 4581 
L 2763 4581 
L 4597 0 
z
M 2894 1813 
L 2263 3513 
L 1644 1813 
L 2894 1813 
z
" transform="scale(0.015625)"/>
      <path id="Arial-BoldMT-52" d="M 469 0 
L 469 4581 
L 2416 4581 
Q 3150 4581 3483 4457 
Q 3816 4334 4016 4018 
Q 4216 3703 4216 3297 
Q 4216 2781 3912 2445 
Q 3609 2109 3006 2022 
Q 3306 1847 3501 1637 
Q 3697 1428 4028 894 
L 4588 0 
L 3481 0 
L 2813 997 
Q 2456 1531 2325 1670 
Q 2194 1809 2047 1861 
Q 1900 1913 1581 1913 
L 1394 1913 
L 1394 0 
L 469 0 
z
M 1394 2644 
L 2078 2644 
Q 2744 2644 2909 2700 
Q 3075 2756 3169 2893 
Q 3263 3031 3263 3238 
Q 3263 3469 3139 3611 
Q 3016 3753 2791 3791 
Q 2678 3806 2116 3806 
L 1394 3806 
L 1394 2644 
z
" transform="scale(0.015625)"/>
      <path id="Arial-BoldMT-49" d="M 438 0 
L 438 4581 
L 1363 4581 
L 1363 0 
L 438 0 
z
" transform="scale(0.015625)"/>
      <path id="Arial-BoldMT-4d" d="M 453 0 
L 453 4581 
L 1838 4581 
L 2669 1456 
L 3491 4581 
L 4878 4581 
L 4878 0 
L 4019 0 
L 4019 3606 
L 3109 0 
L 2219 0 
L 1313 3606 
L 1313 0 
L 453 0 
z
" transform="scale(0.015625)"/>
      <path id="Arial-BoldMT-58" d="M 0 0 
L 1566 2391 
L 147 4581 
L 1228 4581 
L 2147 3109 
L 3047 4581 
L 4119 4581 
L 2694 2356 
L 4259 0 
L 3144 0 
L 2128 1584 
L 1109 0 
L 0 0 
z
" transform="scale(0.015625)"/>
     </defs>
     <use xlink:href="#Arial-BoldMT-50"/>
     <use xlink:href="#Arial-BoldMT-72" x="66.699219"/>
     <use xlink:href="#Arial-BoldMT-6f" x="105.615234"/>
     <use xlink:href="#Arial-BoldMT-6e" x="166.699219"/>
     <use xlink:href="#Arial-BoldMT-f3" x="227.783203"/>
     <use xlink:href="#Arial-BoldMT-73" x="288.867188"/>
     <use xlink:href="#Arial-BoldMT-74" x="344.482422"/>
     <use xlink:href="#Arial-BoldMT-69" x="377.783203"/>
     <use xlink:href="#Arial-BoldMT-63" x="405.566406"/>
     <use xlink:href="#Arial-BoldMT-6f" x="461.181641"/>
     <use xlink:href="#Arial-BoldMT-20" x="522.265625"/>
     <use xlink:href="#Arial-BoldMT-63" x="550.048828"/>
     <use xlink:href="#Arial-BoldMT-6f" x="605.664062"/>
     <use xlink:href="#Arial-BoldMT-6e" x="666.748047"/>
     <use xlink:href="#Arial-BoldMT-20" x="727.832031"/>
     <use xlink:href="#Arial-BoldMT-53" x="755.615234"/>
     <use xlink:href="#Arial-BoldMT-41" x="822.314453"/>
     <use xlink:href="#Arial-BoldMT-52" x="894.53125"/>
     <use xlink:href="#Arial-BoldMT-49" x="966.748047"/>
     <use xlink:href="#Arial-BoldMT-4d" x="994.53125"/>
     <use xlink:href="#Arial-BoldMT-41" x="1077.832031"/>
     <use xlink:href="#Arial-BoldMT-58" x="1150.048828"/>
    </g>
   </g>
   <g id="legend_1">
    <g id="patch_7">
     <path d="M 46.8675 78.700469 
L 217.200781 78.700469 
Q 219.400781 78.700469 219.400781 76.500469 
L 219.400781 30.920937 
Q 219.400781 28.720937 217.200781 28.720937 
L 46.8675 28.720937 
Q 44.6675 28.720937 44.6675 30.920937 
L 44.6675 76.500469 
Q 44.6675 78.700469 46.8675 78.700469 
z
" style="fill: #ffffff; opacity: 0.8; stroke: #cccccc; stroke-linejoin: miter"/>
    </g>
    <g id="line2d_73">
     <path d="M 49.0675 37.144531 
L 60.0675 37.144531 
L 71.0675 37.144531 
" style="fill: none; stroke: #194a7a; stroke-width: 1.2; stroke-linecap: round"/>
    </g>
    <g id="text_71">
     <!-- Observado -->
     <g style="fill: #262626" transform="translate(79.8675 40.994531) scale(0.11 -0.11)">
      <defs>
       <path id="ArialMT-73" d="M 197 991 
L 753 1078 
Q 800 744 1014 566 
Q 1228 388 1613 388 
Q 2000 388 2187 545 
Q 2375 703 2375 916 
Q 2375 1106 2209 1216 
Q 2094 1291 1634 1406 
Q 1016 1563 777 1677 
Q 538 1791 414 1992 
Q 291 2194 291 2438 
Q 291 2659 392 2848 
Q 494 3038 669 3163 
Q 800 3259 1026 3326 
Q 1253 3394 1513 3394 
Q 1903 3394 2198 3281 
Q 2494 3169 2634 2976 
Q 2775 2784 2828 2463 
L 2278 2388 
Q 2241 2644 2061 2787 
Q 1881 2931 1553 2931 
Q 1166 2931 1000 2803 
Q 834 2675 834 2503 
Q 834 2394 903 2306 
Q 972 2216 1119 2156 
Q 1203 2125 1616 2013 
Q 2213 1853 2448 1751 
Q 2684 1650 2818 1456 
Q 2953 1263 2953 975 
Q 2953 694 2789 445 
Q 2625 197 2315 61 
Q 2006 -75 1616 -75 
Q 969 -75 630 194 
Q 291 463 197 991 
z
" transform="scale(0.015625)"/>
       <path id="ArialMT-64" d="M 2575 0 
L 2575 419 
Q 2259 -75 1647 -75 
Q 1250 -75 917 144 
Q 584 363 401 755 
Q 219 1147 219 1656 
Q 219 2153 384 2558 
Q 550 2963 881 3178 
Q 1213 3394 1622 3394 
Q 1922 3394 2156 3267 
Q 2391 3141 2538 2938 
L 2538 4581 
L 3097 4581 
L 3097 0 
L 2575 0 
z
M 797 1656 
Q 797 1019 1065 703 
Q 1334 388 1700 388 
Q 2069 388 2326 689 
Q 2584 991 2584 1609 
Q 2584 2291 2321 2609 
Q 2059 2928 1675 2928 
Q 1300 2928 1048 2622 
Q 797 2316 797 1656 
z
" transform="scale(0.015625)"/>
      </defs>
      <use xlink:href="#ArialMT-4f"/>
      <use xlink:href="#ArialMT-62" x="77.783203"/>
      <use xlink:href="#ArialMT-73" x="133.398438"/>
      <use xlink:href="#ArialMT-65" x="183.398438"/>
      <use xlink:href="#ArialMT-72" x="239.013672"/>
      <use xlink:href="#ArialMT-76" x="272.314453"/>
      <use xlink:href="#ArialMT-61" x="322.314453"/>
      <use xlink:href="#ArialMT-64" x="377.929688"/>
      <use xlink:href="#ArialMT-6f" x="433.544922"/>
     </g>
    </g>
    <g id="line2d_74">
     <path d="M 49.0675 52.704375 
L 60.0675 52.704375 
L 71.0675 52.704375 
" style="fill: none; stroke: #b60033; stroke-width: 1.2; stroke-linecap: round"/>
    </g>
    <g id="text_72">
     <!-- Pronóstico -->
     <g style="fill: #262626" transform="translate(79.8675 56.554375) scale(0.11 -0.11)">
      <defs>
       <path id="ArialMT-50" d="M 494 0 
L 494 4581 
L 2222 4581 
Q 2678 4581 2919 4538 
Q 3256 4481 3484 4323 
Q 3713 4166 3852 3881 
Q 3991 3597 3991 3256 
Q 3991 2672 3619 2267 
Q 3247 1863 2275 1863 
L 1100 1863 
L 1100 0 
L 494 0 
z
M 1100 2403 
L 2284 2403 
Q 2872 2403 3119 2622 
Q 3366 2841 3366 3238 
Q 3366 3525 3220 3729 
Q 3075 3934 2838 4000 
Q 2684 4041 2272 4041 
L 1100 4041 
L 1100 2403 
z
" transform="scale(0.015625)"/>
       <path id="ArialMT-f3" d="M 213 1659 
Q 213 2581 725 3025 
Q 1153 3394 1769 3394 
Q 2453 3394 2887 2945 
Q 3322 2497 3322 1706 
Q 3322 1066 3130 698 
Q 2938 331 2570 128 
Q 2203 -75 1769 -75 
Q 1072 -75 642 372 
Q 213 819 213 1659 
z
M 791 1659 
Q 791 1022 1069 705 
Q 1347 388 1769 388 
Q 2188 388 2466 706 
Q 2744 1025 2744 1678 
Q 2744 2294 2464 2611 
Q 2184 2928 1769 2928 
Q 1347 2928 1069 2612 
Q 791 2297 791 1659 
z
M 1454 3731 
L 1869 4606 
L 2607 4606 
L 1919 3731 
L 1454 3731 
z
" transform="scale(0.015625)"/>
       <path id="ArialMT-69" d="M 425 3934 
L 425 4581 
L 988 4581 
L 988 3934 
L 425 3934 
z
M 425 0 
L 425 3319 
L 988 3319 
L 988 0 
L 425 0 
z
" transform="scale(0.015625)"/>
      </defs>
      <use xlink:href="#ArialMT-50"/>
      <use xlink:href="#ArialMT-72" x="66.699219"/>
      <use xlink:href="#ArialMT-6f" x="100"/>
      <use xlink:href="#ArialMT-6e" x="155.615234"/>
      <use xlink:href="#ArialMT-f3" x="211.230469"/>
      <use xlink:href="#ArialMT-73" x="266.845703"/>
      <use xlink:href="#ArialMT-74" x="316.845703"/>
      <use xlink:href="#ArialMT-69" x="344.628906"/>
      <use xlink:href="#ArialMT-63" x="366.845703"/>
      <use xlink:href="#ArialMT-6f" x="416.845703"/>
     </g>
    </g>
    <g id="patch_8">
     <path d="M 49.0675 72.114219 
L 71.0675 72.114219 
L 71.0675 64.414219 
L 49.0675 64.414219 
z
" style="fill: #b9445f; fill-opacity: 0.3; stroke: #b9445f; stroke-opacity: 0.3; stroke-linejoin: miter"/>
    </g>
    <g id="text_73">
     <!-- Intervalo de Confianza 95% -->
     <g style="fill: #262626" transform="translate(79.8675 72.114219) scale(0.11 -0.11)">
      <defs>
       <path id="ArialMT-49" d="M 597 0 
L 597 4581 
L 1203 4581 
L 1203 0 
L 597 0 
z
" transform="scale(0.015625)"/>
       <path id="ArialMT-20" transform="scale(0.015625)"/>
       <path id="ArialMT-43" d="M 3763 1606 
L 4369 1453 
Q 4178 706 3683 314 
Q 3188 -78 2472 -78 
Q 1731 -78 1267 223 
Q 803 525 561 1097 
Q 319 1669 319 2325 
Q 319 3041 592 3573 
Q 866 4106 1370 4382 
Q 1875 4659 2481 4659 
Q 3169 4659 3637 4309 
Q 4106 3959 4291 3325 
L 3694 3184 
Q 3534 3684 3231 3912 
Q 2928 4141 2469 4141 
Q 1941 4141 1586 3887 
Q 1231 3634 1087 3207 
Q 944 2781 944 2328 
Q 944 1744 1114 1308 
Q 1284 872 1643 656 
Q 2003 441 2422 441 
Q 2931 441 3284 734 
Q 3638 1028 3763 1606 
z
" transform="scale(0.015625)"/>
       <path id="ArialMT-66" d="M 556 0 
L 556 2881 
L 59 2881 
L 59 3319 
L 556 3319 
L 556 3672 
Q 556 4006 616 4169 
Q 697 4388 901 4523 
Q 1106 4659 1475 4659 
Q 1713 4659 2000 4603 
L 1916 4113 
Q 1741 4144 1584 4144 
Q 1328 4144 1222 4034 
Q 1116 3925 1116 3625 
L 1116 3319 
L 1763 3319 
L 1763 2881 
L 1116 2881 
L 1116 0 
L 556 0 
z
" transform="scale(0.015625)"/>
       <path id="ArialMT-7a" d="M 125 0 
L 125 456 
L 2238 2881 
Q 1878 2863 1603 2863 
L 250 2863 
L 250 3319 
L 2963 3319 
L 2963 2947 
L 1166 841 
L 819 456 
Q 1197 484 1528 484 
L 3063 484 
L 3063 0 
L 125 0 
z
" transform="scale(0.015625)"/>
       <path id="ArialMT-39" d="M 350 1059 
L 891 1109 
Q 959 728 1153 556 
Q 1347 384 1650 384 
Q 1909 384 2104 503 
Q 2300 622 2425 820 
Q 2550 1019 2634 1356 
Q 2719 1694 2719 2044 
Q 2719 2081 2716 2156 
Q 2547 1888 2255 1720 
Q 1963 1553 1622 1553 
Q 1053 1553 659 1965 
Q 266 2378 266 3053 
Q 266 3750 677 4175 
Q 1088 4600 1706 4600 
Q 2153 4600 2523 4359 
Q 2894 4119 3086 3673 
Q 3278 3228 3278 2384 
Q 3278 1506 3087 986 
Q 2897 466 2520 194 
Q 2144 -78 1638 -78 
Q 1100 -78 759 220 
Q 419 519 350 1059 
z
M 2653 3081 
Q 2653 3566 2395 3850 
Q 2138 4134 1775 4134 
Q 1400 4134 1122 3828 
Q 844 3522 844 3034 
Q 844 2597 1108 2323 
Q 1372 2050 1759 2050 
Q 2150 2050 2401 2323 
Q 2653 2597 2653 3081 
z
" transform="scale(0.015625)"/>
       <path id="ArialMT-35" d="M 266 1200 
L 856 1250 
Q 922 819 1161 601 
Q 1400 384 1738 384 
Q 2144 384 2425 690 
Q 2706 997 2706 1503 
Q 2706 1984 2436 2262 
Q 2166 2541 1728 2541 
Q 1456 2541 1237 2417 
Q 1019 2294 894 2097 
L 366 2166 
L 809 4519 
L 3088 4519 
L 3088 3981 
L 1259 3981 
L 1013 2750 
Q 1425 3038 1878 3038 
Q 2478 3038 2890 2622 
Q 3303 2206 3303 1553 
Q 3303 931 2941 478 
Q 2500 -78 1738 -78 
Q 1113 -78 717 272 
Q 322 622 266 1200 
z
" transform="scale(0.015625)"/>
       <path id="ArialMT-25" d="M 372 3481 
Q 372 3972 619 4315 
Q 866 4659 1334 4659 
Q 1766 4659 2048 4351 
Q 2331 4044 2331 3447 
Q 2331 2866 2045 2552 
Q 1759 2238 1341 2238 
Q 925 2238 648 2547 
Q 372 2856 372 3481 
z
M 1350 4272 
Q 1141 4272 1002 4090 
Q 863 3909 863 3425 
Q 863 2984 1003 2804 
Q 1144 2625 1350 2625 
Q 1563 2625 1702 2806 
Q 1841 2988 1841 3469 
Q 1841 3913 1700 4092 
Q 1559 4272 1350 4272 
z
M 1353 -169 
L 3859 4659 
L 4316 4659 
L 1819 -169 
L 1353 -169 
z
M 3334 1075 
Q 3334 1569 3581 1911 
Q 3828 2253 4300 2253 
Q 4731 2253 5014 1945 
Q 5297 1638 5297 1041 
Q 5297 459 5011 145 
Q 4725 -169 4303 -169 
Q 3888 -169 3611 142 
Q 3334 453 3334 1075 
z
M 4316 1866 
Q 4103 1866 3964 1684 
Q 3825 1503 3825 1019 
Q 3825 581 3965 400 
Q 4106 219 4313 219 
Q 4528 219 4667 400 
Q 4806 581 4806 1063 
Q 4806 1506 4665 1686 
Q 4525 1866 4316 1866 
z
" transform="scale(0.015625)"/>
      </defs>
      <use xlink:href="#ArialMT-49"/>
      <use xlink:href="#ArialMT-6e" x="27.783203"/>
      <use xlink:href="#ArialMT-74" x="83.398438"/>
      <use xlink:href="#ArialMT-65" x="111.181641"/>
      <use xlink:href="#ArialMT-72" x="166.796875"/>
      <use xlink:href="#ArialMT-76" x="200.097656"/>
      <use xlink:href="#ArialMT-61" x="250.097656"/>
      <use xlink:href="#ArialMT-6c" x="305.712891"/>
      <use xlink:href="#ArialMT-6f" x="327.929688"/>
      <use xlink:href="#ArialMT-20" x="383.544922"/>
      <use xlink:href="#ArialMT-64" x="411.328125"/>
      <use xlink:href="#ArialMT-65" x="466.943359"/>
      <use xlink:href="#ArialMT-20" x="522.558594"/>
      <use xlink:href="#ArialMT-43" x="550.341797"/>
      <use xlink:href="#ArialMT-6f" x="622.558594"/>
      <use xlink:href="#ArialMT-6e" x="678.173828"/>
      <use xlink:href="#ArialMT-66" x="733.789062"/>
      <use xlink:href="#ArialMT-69" x="761.572266"/>
      <use xlink:href="#ArialMT-61" x="783.789062"/>
      <use xlink:href="#ArialMT-6e" x="839.404297"/>
      <use xlink:href="#ArialMT-7a" x="895.019531"/>
      <use xlink:href="#ArialMT-61" x="945.019531"/>
      <use xlink:href="#ArialMT-20" x="1000.634766"/>
      <use xlink:href="#ArialMT-39" x="1028.417969"/>
      <use xlink:href="#ArialMT-35" x="1084.033203"/>
      <use xlink:href="#ArialMT-25" x="1139.648438"/>
     </g>
    </g>
   </g>
  </g>
 </g>
 <defs>
  <clipPath id="pa1f658e9db">
   <rect x="39.1675" y="23.220937" width="669.6" height="332.64"/>
  </clipPath>
 </defs>
</svg>
