<?xml version="1.0" encoding="utf-8" standalone="no"?>
<!DOCTYPE svg PUBLIC "-//W3C//DTD SVG 1.1//EN"
  "http://www.w3.org/Graphics/SVG/1.1/DTD/svg11.dtd">
<svg xmlns:xlink="http://www.w3.org/1999/xlink" width="715.9675pt" height="379.877187pt" viewBox="0 0 715.9675 379.877187" xmlns="http://www.w3.org/2000/svg" version="1.1">
 <metadata>
  <rdf:RDF xmlns:dc="http://purl.org/dc/elements/1.1/" xmlns:cc="http://creativecommons.org/ns#" xmlns:rdf="http://www.w3.org/1999/02/22-rdf-syntax-ns#">
   <cc:Work>
    <dc:type rdf:resource="http://purl.org/dc/dcmitype/StillImage"/>
    <dc:date>2025-04-24T19:28:57.994955</dc:date>
    <dc:format>image/svg+xml</dc:format>
    <dc:creator>
     <cc:Agent>
      <dc:title>Matplotlib v3.8.4, https://matplotlib.org/</dc:title>
     </cc:Agent>
    </dc:creator>
   </cc:Work>
  </rdf:RDF>
 </metadata>
 <defs>
  <style type="text/css">*{stroke-linejoin: round; stroke-linecap: butt}</style>
 </defs>
 <g id="figure_1">
  <g id="patch_1">
   <path d="M 0 379.877187 
L 715.9675 379.877187 
L 715.9675 0 
L 0 0 
z
" style="fill: #ffffff"/>
  </g>
  <g id="axes_1">
   <g id="patch_2">
    <path d="M 39.1675 355.860937 
L 708.7675 355.860937 
L 708.7675 23.220937 
L 39.1675 23.220937 
z
" style="fill: #ffffff"/>
   </g>
   <g id="matplotlib.axis_1">
    <g id="xtick_1">
     <g id="line2d_1">
      <path d="M 40.333644 355.860937 
L 40.333644 23.220937 
" clip-path="url(#p8bc13ad77f)" style="fill: none; stroke-dasharray: 1.85,0.8; stroke-dashoffset: 0; stroke: #808080; stroke-width: 0.5"/>
     </g>
     <g id="text_1">
      <!-- 1950 -->
      <g style="fill: #262626" transform="translate(31.436144 371.087187) scale(0.08 -0.08)">
       <defs>
        <path id="ArialMT-31" d="M 2384 0 
L 1822 0 
L 1822 3584 
Q 1619 3391 1289 3197 
Q 959 3003 697 2906 
L 697 3450 
Q 1169 3672 1522 3987 
Q 1875 4303 2022 4600 
L 2384 4600 
L 2384 0 
z
" transform="scale(0.015625)"/>
        <path id="ArialMT-39" d="M 350 1059 
L 891 1109 
Q 959 728 1153 556 
Q 1347 384 1650 384 
Q 1909 384 2104 503 
Q 2300 622 2425 820 
Q 2550 1019 2634 1356 
Q 2719 1694 2719 2044 
Q 2719 2081 2716 2156 
Q 2547 1888 2255 1720 
Q 1963 1553 1622 1553 
Q 1053 1553 659 1965 
Q 266 2378 266 3053 
Q 266 3750 677 4175 
Q 1088 4600 1706 4600 
Q 2153 4600 2523 4359 
Q 2894 4119 3086 3673 
Q 3278 3228 3278 2384 
Q 3278 1506 3087 986 
Q 2897 466 2520 194 
Q 2144 -78 1638 -78 
Q 1100 -78 759 220 
Q 419 519 350 1059 
z
M 2653 3081 
Q 2653 3566 2395 3850 
Q 2138 4134 1775 4134 
Q 1400 4134 1122 3828 
Q 844 3522 844 3034 
Q 844 2597 1108 2323 
Q 1372 2050 1759 2050 
Q 2150 2050 2401 2323 
Q 2653 2597 2653 3081 
z
" transform="scale(0.015625)"/>
        <path id="ArialMT-35" d="M 266 1200 
L 856 1250 
Q 922 819 1161 601 
Q 1400 384 1738 384 
Q 2144 384 2425 690 
Q 2706 997 2706 1503 
Q 2706 1984 2436 2262 
Q 2166 2541 1728 2541 
Q 1456 2541 1237 2417 
Q 1019 2294 894 2097 
L 366 2166 
L 809 4519 
L 3088 4519 
L 3088 3981 
L 1259 3981 
L 1013 2750 
Q 1425 3038 1878 3038 
Q 2478 3038 2890 2622 
Q 3303 2206 3303 1553 
Q 3303 931 2941 478 
Q 2500 -78 1738 -78 
Q 1113 -78 717 272 
Q 322 622 266 1200 
z
" transform="scale(0.015625)"/>
        <path id="ArialMT-30" d="M 266 2259 
Q 266 3072 433 3567 
Q 600 4063 929 4331 
Q 1259 4600 1759 4600 
Q 2128 4600 2406 4451 
Q 2684 4303 2865 4023 
Q 3047 3744 3150 3342 
Q 3253 2941 3253 2259 
Q 3253 1453 3087 958 
Q 2922 463 2592 192 
Q 2263 -78 1759 -78 
Q 1097 -78 719 397 
Q 266 969 266 2259 
z
M 844 2259 
Q 844 1131 1108 757 
Q 1372 384 1759 384 
Q 2147 384 2411 759 
Q 2675 1134 2675 2259 
Q 2675 3391 2411 3762 
Q 2147 4134 1753 4134 
Q 1366 4134 1134 3806 
Q 844 3388 844 2259 
z
" transform="scale(0.015625)"/>
       </defs>
       <use xlink:href="#ArialMT-31"/>
       <use xlink:href="#ArialMT-39" x="55.615234"/>
       <use xlink:href="#ArialMT-35" x="111.230469"/>
       <use xlink:href="#ArialMT-30" x="166.845703"/>
      </g>
     </g>
    </g>
    <g id="xtick_2">
     <g id="line2d_2">
      <path d="M 146.80261 355.860937 
L 146.80261 23.220937 
" clip-path="url(#p8bc13ad77f)" style="fill: none; stroke-dasharray: 1.85,0.8; stroke-dashoffset: 0; stroke: #808080; stroke-width: 0.5"/>
     </g>
     <g id="text_2">
      <!-- 1960 -->
      <g style="fill: #262626" transform="translate(137.90511 371.087187) scale(0.08 -0.08)">
       <defs>
        <path id="ArialMT-36" d="M 3184 3459 
L 2625 3416 
Q 2550 3747 2413 3897 
Q 2184 4138 1850 4138 
Q 1581 4138 1378 3988 
Q 1113 3794 959 3422 
Q 806 3050 800 2363 
Q 1003 2672 1297 2822 
Q 1591 2972 1913 2972 
Q 2475 2972 2870 2558 
Q 3266 2144 3266 1488 
Q 3266 1056 3080 686 
Q 2894 316 2569 119 
Q 2244 -78 1831 -78 
Q 1128 -78 684 439 
Q 241 956 241 2144 
Q 241 3472 731 4075 
Q 1159 4600 1884 4600 
Q 2425 4600 2770 4297 
Q 3116 3994 3184 3459 
z
M 888 1484 
Q 888 1194 1011 928 
Q 1134 663 1356 523 
Q 1578 384 1822 384 
Q 2178 384 2434 671 
Q 2691 959 2691 1453 
Q 2691 1928 2437 2201 
Q 2184 2475 1800 2475 
Q 1419 2475 1153 2201 
Q 888 1928 888 1484 
z
" transform="scale(0.015625)"/>
       </defs>
       <use xlink:href="#ArialMT-31"/>
       <use xlink:href="#ArialMT-39" x="55.615234"/>
       <use xlink:href="#ArialMT-36" x="111.230469"/>
       <use xlink:href="#ArialMT-30" x="166.845703"/>
      </g>
     </g>
    </g>
    <g id="xtick_3">
     <g id="line2d_3">
      <path d="M 253.300729 355.860937 
L 253.300729 23.220937 
" clip-path="url(#p8bc13ad77f)" style="fill: none; stroke-dasharray: 1.85,0.8; stroke-dashoffset: 0; stroke: #808080; stroke-width: 0.5"/>
     </g>
     <g id="text_3">
      <!-- 1970 -->
      <g style="fill: #262626" transform="translate(244.403229 371.087187) scale(0.08 -0.08)">
       <defs>
        <path id="ArialMT-37" d="M 303 3981 
L 303 4522 
L 3269 4522 
L 3269 4084 
Q 2831 3619 2401 2847 
Q 1972 2075 1738 1259 
Q 1569 684 1522 0 
L 944 0 
Q 953 541 1156 1306 
Q 1359 2072 1739 2783 
Q 2119 3494 2547 3981 
L 303 3981 
z
" transform="scale(0.015625)"/>
       </defs>
       <use xlink:href="#ArialMT-31"/>
       <use xlink:href="#ArialMT-39" x="55.615234"/>
       <use xlink:href="#ArialMT-37" x="111.230469"/>
       <use xlink:href="#ArialMT-30" x="166.845703"/>
      </g>
     </g>
    </g>
    <g id="xtick_4">
     <g id="line2d_4">
      <path d="M 359.769694 355.860937 
L 359.769694 23.220937 
" clip-path="url(#p8bc13ad77f)" style="fill: none; stroke-dasharray: 1.85,0.8; stroke-dashoffset: 0; stroke: #808080; stroke-width: 0.5"/>
     </g>
     <g id="text_4">
      <!-- 1980 -->
      <g style="fill: #262626" transform="translate(350.872194 371.087187) scale(0.08 -0.08)">
       <defs>
        <path id="ArialMT-38" d="M 1131 2484 
Q 781 2613 612 2850 
Q 444 3088 444 3419 
Q 444 3919 803 4259 
Q 1163 4600 1759 4600 
Q 2359 4600 2725 4251 
Q 3091 3903 3091 3403 
Q 3091 3084 2923 2848 
Q 2756 2613 2416 2484 
Q 2838 2347 3058 2040 
Q 3278 1734 3278 1309 
Q 3278 722 2862 322 
Q 2447 -78 1769 -78 
Q 1091 -78 675 323 
Q 259 725 259 1325 
Q 259 1772 486 2073 
Q 713 2375 1131 2484 
z
M 1019 3438 
Q 1019 3113 1228 2906 
Q 1438 2700 1772 2700 
Q 2097 2700 2305 2904 
Q 2513 3109 2513 3406 
Q 2513 3716 2298 3927 
Q 2084 4138 1766 4138 
Q 1444 4138 1231 3931 
Q 1019 3725 1019 3438 
z
M 838 1322 
Q 838 1081 952 856 
Q 1066 631 1291 507 
Q 1516 384 1775 384 
Q 2178 384 2440 643 
Q 2703 903 2703 1303 
Q 2703 1709 2433 1975 
Q 2163 2241 1756 2241 
Q 1359 2241 1098 1978 
Q 838 1716 838 1322 
z
" transform="scale(0.015625)"/>
       </defs>
       <use xlink:href="#ArialMT-31"/>
       <use xlink:href="#ArialMT-39" x="55.615234"/>
       <use xlink:href="#ArialMT-38" x="111.230469"/>
       <use xlink:href="#ArialMT-30" x="166.845703"/>
      </g>
     </g>
    </g>
    <g id="xtick_5">
     <g id="line2d_5">
      <path d="M 466.267813 355.860937 
L 466.267813 23.220937 
" clip-path="url(#p8bc13ad77f)" style="fill: none; stroke-dasharray: 1.85,0.8; stroke-dashoffset: 0; stroke: #808080; stroke-width: 0.5"/>
     </g>
     <g id="text_5">
      <!-- 1990 -->
      <g style="fill: #262626" transform="translate(457.370313 371.087187) scale(0.08 -0.08)">
       <use xlink:href="#ArialMT-31"/>
       <use xlink:href="#ArialMT-39" x="55.615234"/>
       <use xlink:href="#ArialMT-39" x="111.230469"/>
       <use xlink:href="#ArialMT-30" x="166.845703"/>
      </g>
     </g>
    </g>
    <g id="xtick_6">
     <g id="line2d_6">
      <path d="M 572.736779 355.860937 
L 572.736779 23.220937 
" clip-path="url(#p8bc13ad77f)" style="fill: none; stroke-dasharray: 1.85,0.8; stroke-dashoffset: 0; stroke: #808080; stroke-width: 0.5"/>
     </g>
     <g id="text_6">
      <!-- 2000 -->
      <g style="fill: #262626" transform="translate(563.839279 371.087187) scale(0.08 -0.08)">
       <defs>
        <path id="ArialMT-32" d="M 3222 541 
L 3222 0 
L 194 0 
Q 188 203 259 391 
Q 375 700 629 1000 
Q 884 1300 1366 1694 
Q 2113 2306 2375 2664 
Q 2638 3022 2638 3341 
Q 2638 3675 2398 3904 
Q 2159 4134 1775 4134 
Q 1369 4134 1125 3890 
Q 881 3647 878 3216 
L 300 3275 
Q 359 3922 746 4261 
Q 1134 4600 1788 4600 
Q 2447 4600 2831 4234 
Q 3216 3869 3216 3328 
Q 3216 3053 3103 2787 
Q 2991 2522 2730 2228 
Q 2469 1934 1863 1422 
Q 1356 997 1212 845 
Q 1069 694 975 541 
L 3222 541 
z
" transform="scale(0.015625)"/>
       </defs>
       <use xlink:href="#ArialMT-32"/>
       <use xlink:href="#ArialMT-30" x="55.615234"/>
       <use xlink:href="#ArialMT-30" x="111.230469"/>
       <use xlink:href="#ArialMT-30" x="166.845703"/>
      </g>
     </g>
    </g>
    <g id="xtick_7">
     <g id="line2d_7">
      <path d="M 679.234898 355.860937 
L 679.234898 23.220937 
" clip-path="url(#p8bc13ad77f)" style="fill: none; stroke-dasharray: 1.85,0.8; stroke-dashoffset: 0; stroke: #808080; stroke-width: 0.5"/>
     </g>
     <g id="text_7">
      <!-- 2010 -->
      <g style="fill: #262626" transform="translate(670.337398 371.087187) scale(0.08 -0.08)">
       <use xlink:href="#ArialMT-32"/>
       <use xlink:href="#ArialMT-30" x="55.615234"/>
       <use xlink:href="#ArialMT-31" x="111.230469"/>
       <use xlink:href="#ArialMT-30" x="166.845703"/>
      </g>
     </g>
    </g>
   </g>
   <g id="matplotlib.axis_2">
    <g id="ytick_1">
     <g id="line2d_8">
      <path d="M 39.1675 330.851377 
L 708.7675 330.851377 
" clip-path="url(#p8bc13ad77f)" style="fill: none; stroke-dasharray: 1.85,0.8; stroke-dashoffset: 0; stroke: #808080; stroke-width: 0.5"/>
     </g>
     <g id="text_8">
      <!-- −1000 -->
      <g style="fill: #262626" transform="translate(7.2 333.714502) scale(0.08 -0.08)">
       <defs>
        <path id="ArialMT-2212" d="M 3381 1997 
L 356 1997 
L 356 2522 
L 3381 2522 
L 3381 1997 
z
" transform="scale(0.015625)"/>
       </defs>
       <use xlink:href="#ArialMT-2212"/>
       <use xlink:href="#ArialMT-31" x="58.398438"/>
       <use xlink:href="#ArialMT-30" x="114.013672"/>
       <use xlink:href="#ArialMT-30" x="169.628906"/>
       <use xlink:href="#ArialMT-30" x="225.244141"/>
      </g>
     </g>
    </g>
    <g id="ytick_2">
     <g id="line2d_9">
      <path d="M 39.1675 279.298603 
L 708.7675 279.298603 
" clip-path="url(#p8bc13ad77f)" style="fill: none; stroke-dasharray: 1.85,0.8; stroke-dashoffset: 0; stroke: #808080; stroke-width: 0.5"/>
     </g>
     <g id="text_9">
      <!-- 0 -->
      <g style="fill: #262626" transform="translate(25.21875 282.161728) scale(0.08 -0.08)">
       <use xlink:href="#ArialMT-30"/>
      </g>
     </g>
    </g>
    <g id="ytick_3">
     <g id="line2d_10">
      <path d="M 39.1675 227.745829 
L 708.7675 227.745829 
" clip-path="url(#p8bc13ad77f)" style="fill: none; stroke-dasharray: 1.85,0.8; stroke-dashoffset: 0; stroke: #808080; stroke-width: 0.5"/>
     </g>
     <g id="text_10">
      <!-- 1000 -->
      <g style="fill: #262626" transform="translate(11.8725 230.608954) scale(0.08 -0.08)">
       <use xlink:href="#ArialMT-31"/>
       <use xlink:href="#ArialMT-30" x="55.615234"/>
       <use xlink:href="#ArialMT-30" x="111.230469"/>
       <use xlink:href="#ArialMT-30" x="166.845703"/>
      </g>
     </g>
    </g>
    <g id="ytick_4">
     <g id="line2d_11">
      <path d="M 39.1675 176.193055 
L 708.7675 176.193055 
" clip-path="url(#p8bc13ad77f)" style="fill: none; stroke-dasharray: 1.85,0.8; stroke-dashoffset: 0; stroke: #808080; stroke-width: 0.5"/>
     </g>
     <g id="text_11">
      <!-- 2000 -->
      <g style="fill: #262626" transform="translate(11.8725 179.05618) scale(0.08 -0.08)">
       <use xlink:href="#ArialMT-32"/>
       <use xlink:href="#ArialMT-30" x="55.615234"/>
       <use xlink:href="#ArialMT-30" x="111.230469"/>
       <use xlink:href="#ArialMT-30" x="166.845703"/>
      </g>
     </g>
    </g>
    <g id="ytick_5">
     <g id="line2d_12">
      <path d="M 39.1675 124.640281 
L 708.7675 124.640281 
" clip-path="url(#p8bc13ad77f)" style="fill: none; stroke-dasharray: 1.85,0.8; stroke-dashoffset: 0; stroke: #808080; stroke-width: 0.5"/>
     </g>
     <g id="text_12">
      <!-- 3000 -->
      <g style="fill: #262626" transform="translate(11.8725 127.503406) scale(0.08 -0.08)">
       <defs>
        <path id="ArialMT-33" d="M 269 1209 
L 831 1284 
Q 928 806 1161 595 
Q 1394 384 1728 384 
Q 2125 384 2398 659 
Q 2672 934 2672 1341 
Q 2672 1728 2419 1979 
Q 2166 2231 1775 2231 
Q 1616 2231 1378 2169 
L 1441 2663 
Q 1497 2656 1531 2656 
Q 1891 2656 2178 2843 
Q 2466 3031 2466 3422 
Q 2466 3731 2256 3934 
Q 2047 4138 1716 4138 
Q 1388 4138 1169 3931 
Q 950 3725 888 3313 
L 325 3413 
Q 428 3978 793 4289 
Q 1159 4600 1703 4600 
Q 2078 4600 2393 4439 
Q 2709 4278 2876 4000 
Q 3044 3722 3044 3409 
Q 3044 3113 2884 2869 
Q 2725 2625 2413 2481 
Q 2819 2388 3044 2092 
Q 3269 1797 3269 1353 
Q 3269 753 2831 336 
Q 2394 -81 1725 -81 
Q 1122 -81 723 278 
Q 325 638 269 1209 
z
" transform="scale(0.015625)"/>
       </defs>
       <use xlink:href="#ArialMT-33"/>
       <use xlink:href="#ArialMT-30" x="55.615234"/>
       <use xlink:href="#ArialMT-30" x="111.230469"/>
       <use xlink:href="#ArialMT-30" x="166.845703"/>
      </g>
     </g>
    </g>
    <g id="ytick_6">
     <g id="line2d_13">
      <path d="M 39.1675 73.087507 
L 708.7675 73.087507 
" clip-path="url(#p8bc13ad77f)" style="fill: none; stroke-dasharray: 1.85,0.8; stroke-dashoffset: 0; stroke: #808080; stroke-width: 0.5"/>
     </g>
     <g id="text_13">
      <!-- 4000 -->
      <g style="fill: #262626" transform="translate(11.8725 75.950632) scale(0.08 -0.08)">
       <defs>
        <path id="ArialMT-34" d="M 2069 0 
L 2069 1097 
L 81 1097 
L 81 1613 
L 2172 4581 
L 2631 4581 
L 2631 1613 
L 3250 1613 
L 3250 1097 
L 2631 1097 
L 2631 0 
L 2069 0 
z
M 2069 1613 
L 2069 3678 
L 634 1613 
L 2069 1613 
z
" transform="scale(0.015625)"/>
       </defs>
       <use xlink:href="#ArialMT-34"/>
       <use xlink:href="#ArialMT-30" x="55.615234"/>
       <use xlink:href="#ArialMT-30" x="111.230469"/>
       <use xlink:href="#ArialMT-30" x="166.845703"/>
      </g>
     </g>
    </g>
   </g>
   <g id="PolyCollection_1">
    <defs>
     <path id="m1a4b07740e" d="M 668.564679 -210.849182 
L 668.564679 -82.402083 
L 669.46844 -62.304347 
L 670.284741 -42.619958 
L 671.188503 -39.13625 
L 672.063111 -41.740664 
L 672.966873 -84.267007 
L 673.841481 -68.533289 
L 674.745243 -66.124305 
L 675.649005 -105.170712 
L 676.523613 -86.735636 
L 677.427375 -72.805848 
L 678.301983 -72.306435 
L 678.301983 -202.632124 
L 678.301983 -202.632124 
L 677.427375 -203.131536 
L 676.523613 -217.061324 
L 675.649005 -235.4964 
L 674.745243 -196.449994 
L 673.841481 -198.858977 
L 672.966873 -214.592695 
L 672.063111 -172.066351 
L 671.188503 -169.461895 
L 670.284741 -172.944119 
L 669.46844 -192.576644 
L 668.564679 -210.849182 
z
" style="stroke: #b9445f; stroke-opacity: 0.3"/>
    </defs>
    <g clip-path="url(#p8bc13ad77f)">
     <use xlink:href="#m1a4b07740e" x="0" y="379.877187" style="fill: #b9445f; fill-opacity: 0.3; stroke: #b9445f; stroke-opacity: 0.3"/>
    </g>
   </g>
   <g id="line2d_14">
    <path d="M 69.603864 270.32842 
L 70.507625 248.779361 
L 71.382234 279.298603 
L 74.90982 276.875623 
L 75.784428 272.235873 
L 76.68819 191.298018 
L 77.562798 230.271915 
L 78.46656 220.012913 
L 79.370321 188.35951 
L 80.244929 200.319753 
L 81.148691 261.048921 
L 82.023299 279.298603 
L 83.830823 272.338978 
L 84.647124 277.030281 
L 85.550886 263.059479 
L 87.329255 128.197423 
L 88.203864 180.678146 
L 89.107625 191.452676 
L 90.011387 173.357652 
L 90.885995 203.103603 
L 91.789757 256.048302 
L 92.664365 279.298603 
L 93.568127 278.783075 
L 94.471889 279.298603 
L 95.28819 279.298603 
L 96.191951 273.834009 
L 97.06656 228.158251 
L 97.970321 201.711678 
L 98.844929 142.013566 
L 99.748691 102.060166 
L 100.652453 94.481908 
L 101.527061 239.809178 
L 102.430823 267.802334 
L 103.305431 266.204198 
L 104.209193 251.92408 
L 105.112955 276.4632 
L 105.958409 279.298603 
L 106.862171 226.199246 
L 107.736779 190.112304 
L 108.640541 158.25269 
L 109.515149 213.568816 
L 110.418911 183.358891 
L 111.322672 195.834662 
L 112.197281 256.666935 
L 113.101042 277.545809 
L 113.97565 279.298603 
L 114.879412 279.298603 
L 115.783174 260.275629 
L 116.599475 279.040839 
L 117.503237 240.58247 
L 118.377845 265.585565 
L 119.281607 201.763231 
L 120.156215 218.620988 
L 121.059976 225.735271 
L 121.963738 167.841506 
L 122.838346 241.716631 
L 123.742108 279.298603 
L 124.616716 279.298603 
L 125.520478 230.323468 
L 127.240541 279.298603 
L 128.144303 274.504195 
L 129.018911 265.791776 
L 129.922672 219.239621 
L 130.797281 211.300494 
L 131.701042 173.151441 
L 132.604804 105.514202 
L 133.479412 207.743353 
L 134.383174 202.845839 
L 135.257782 261.873765 
L 136.161544 273.266928 
L 137.065306 277.75202 
L 137.881607 279.298603 
L 138.785368 238.468806 
L 139.659976 241.201103 
L 140.563738 129.280031 
L 141.438346 207.949564 
L 142.342108 149.643376 
L 143.24587 227.075643 
L 144.120478 217.17751 
L 145.02424 279.298603 
L 145.898848 279.298603 
L 146.80261 276.772517 
L 147.706371 279.298603 
L 148.551826 278.370653 
L 149.455588 272.802953 
L 150.330196 263.214137 
L 151.233958 225.786824 
L 152.108566 161.552067 
L 153.012328 187.019138 
L 153.916089 186.606715 
L 155.694459 270.895501 
L 156.569067 278.215995 
L 157.472829 272.854506 
L 158.376591 279.298603 
L 159.192892 274.607301 
L 160.096654 274.865064 
L 160.971262 263.214137 
L 161.875024 210.011675 
L 162.749632 191.091807 
L 163.653393 238.3657 
L 164.557155 180.781252 
L 165.431763 246.665697 
L 166.335525 251.769422 
L 167.210133 273.679351 
L 168.113895 279.298603 
L 169.833958 279.298603 
L 170.737719 241.922842 
L 171.612328 224.291793 
L 172.516089 200.577517 
L 173.390697 248.882466 
L 174.294459 212.89863 
L 175.198221 203.000498 
L 176.072829 225.013532 
L 176.976591 253.367558 
L 177.851199 273.782456 
L 178.754961 279.298603 
L 179.658723 279.298603 
L 180.475024 274.658853 
L 181.378785 276.4632 
L 182.253393 239.963836 
L 183.157155 185.369449 
L 184.031763 148.096793 
L 184.935525 171.08933 
L 185.839287 223.982477 
L 186.713895 201.247703 
L 187.617657 272.751401 
L 188.492265 279.298603 
L 189.396027 277.339598 
L 190.299788 279.298603 
L 191.145243 273.524692 
L 192.049005 262.801715 
L 192.923613 194.081868 
L 193.827375 161.912937 
L 194.701983 219.755149 
L 195.605745 170.934672 
L 196.509506 164.38747 
L 197.384114 270.225315 
L 198.287876 266.668173 
L 199.162484 279.143945 
L 200.066246 270.637737 
L 201.786309 276.566306 
L 202.690071 262.904821 
L 203.564679 223.363843 
L 204.46844 231.251418 
L 205.343049 209.238383 
L 206.24681 97.781286 
L 207.150572 210.939625 
L 208.02518 222.023471 
L 208.928942 255.584327 
L 209.80355 271.720345 
L 210.707312 277.597361 
L 211.611074 274.194878 
L 215.984114 182.894916 
L 216.887876 180.214171 
L 217.791638 204.598634 
L 218.666246 263.007926 
L 219.570008 278.112889 
L 220.444616 278.783075 
L 221.348378 252.284949 
L 222.252139 279.298603 
L 223.06844 274.04022 
L 223.972202 251.408552 
L 224.84681 252.284949 
L 225.750572 156.139026 
L 226.62518 269.245812 
L 227.528942 189.699882 
L 228.432704 212.228444 
L 229.307312 208.310433 
L 230.211074 277.081834 
L 231.085682 278.525311 
L 231.989444 278.112889 
L 232.893205 273.11227 
L 233.73866 278.215995 
L 234.642422 245.170667 
L 235.51703 243.160108 
L 236.420792 145.931577 
L 237.2954 235.066323 
L 238.199161 243.778742 
L 239.102923 246.923461 
L 239.977531 217.744591 
L 240.881293 276.514753 
L 241.755901 271.153265 
L 242.659663 270.792395 
L 243.563425 279.298603 
L 244.379726 261.358238 
L 245.283487 273.782456 
L 246.158096 248.727808 
L 247.061857 246.923461 
L 247.936466 200.62907 
L 248.840227 38.340937 
L 249.743989 151.18996 
L 250.618597 244.809797 
L 251.522359 279.298603 
L 252.396967 259.502338 
L 253.300729 279.298603 
L 254.204491 279.143945 
L 255.020792 279.298603 
L 255.924553 279.143945 
L 256.799161 260.945815 
L 257.702923 154.076915 
L 258.577531 178.51293 
L 259.481293 215.888691 
L 260.385055 169.233431 
L 261.259663 252.903583 
L 262.163425 273.421587 
L 263.038033 279.298603 
L 264.845556 279.298603 
L 265.661857 273.988667 
L 266.565619 272.18432 
L 267.440227 258.265071 
L 268.343989 190.473173 
L 269.218597 229.704834 
L 270.122359 182.018519 
L 271.026121 123.763884 
L 271.900729 216.661983 
L 272.804491 276.411648 
L 273.679099 272.493637 
L 274.582861 276.153884 
L 275.486622 279.298603 
L 276.332077 268.163204 
L 277.235839 263.935876 
L 278.110447 223.209185 
L 279.014208 108.298052 
L 279.888817 150.880643 
L 280.792578 227.745829 
L 281.69634 140.260772 
L 282.570948 239.706073 
L 283.47471 266.565068 
L 284.349318 275.89612 
L 285.25308 279.298603 
L 286.156842 275.741462 
L 286.973143 279.298603 
L 287.876904 265.018485 
L 288.751513 237.540856 
L 289.655274 165.109209 
L 290.529882 133.91978 
L 291.433644 199.546462 
L 292.337406 182.585599 
L 293.212014 218.620988 
L 294.115776 278.783075 
L 294.990384 278.267547 
L 295.894146 278.473759 
L 296.797908 279.298603 
L 297.614208 274.452642 
L 298.51797 264.709168 
L 299.392578 250.583708 
L 300.29634 178.048955 
L 301.170948 188.823485 
L 302.07471 257.027805 
L 302.978472 186.194293 
L 303.85308 271.25637 
L 304.756842 277.855125 
L 305.63145 279.298603 
L 306.535212 277.700467 
L 307.438973 279.298603 
L 309.159036 279.298603 
L 310.937406 172.275044 
L 311.812014 143.560149 
L 312.715776 233.004212 
L 313.619538 184.802368 
L 314.494146 223.621607 
L 315.397908 274.452642 
L 316.272516 279.298603 
L 317.176277 279.298603 
L 318.080039 276.772517 
L 318.925494 279.040839 
L 319.829255 267.132148 
L 320.703864 241.561972 
L 321.607625 203.567578 
L 322.482234 135.724128 
L 323.385995 221.714154 
L 324.289757 236.664459 
L 325.164365 194.906712 
L 326.068127 261.358238 
L 326.942735 278.731522 
L 327.846497 272.081215 
L 328.750259 275.432145 
L 329.56656 268.678732 
L 330.470321 275.225934 
L 332.248691 103.606749 
L 333.123299 249.861969 
L 334.930823 159.232192 
L 335.805431 257.904202 
L 336.709193 273.370034 
L 337.583801 276.514753 
L 338.487563 275.999225 
L 339.391324 276.514753 
L 340.207625 256.976252 
L 341.111387 273.524692 
L 341.985995 261.667554 
L 342.889757 126.135312 
L 343.764365 243.263214 
L 344.668127 235.788062 
L 345.571889 120.000531 
L 346.446497 262.647057 
L 347.350259 276.102331 
L 348.224867 279.298603 
L 349.128629 279.298603 
L 350.03239 270.019104 
L 350.848691 279.143945 
L 351.752453 263.214137 
L 352.627061 235.788062 
L 353.530823 248.470044 
L 354.405431 199.391803 
L 355.309193 219.188069 
L 356.212955 184.441499 
L 357.087563 271.926556 
L 357.991324 275.89612 
L 358.865933 275.586803 
L 359.769694 252.181844 
L 360.673456 279.298603 
L 361.518911 279.298603 
L 362.422672 272.442084 
L 363.297281 238.107937 
L 364.201042 224.755768 
L 365.07565 190.730937 
L 365.979412 170.109828 
L 366.883174 206.557639 
L 367.757782 262.286188 
L 368.661544 254.914141 
L 369.536152 279.040839 
L 370.439914 267.647676 
L 371.343676 266.461962 
L 372.159976 259.966313 
L 373.063738 258.574388 
L 373.938346 238.984334 
L 374.842108 91.234084 
L 375.716716 153.303623 
L 376.620478 202.381864 
L 377.52424 233.932162 
L 378.398848 259.193021 
L 379.30261 278.783075 
L 380.177218 278.525311 
L 381.08098 279.298603 
L 381.984741 267.389912 
L 382.801042 276.308542 
L 383.704804 266.925937 
L 384.579412 209.238383 
L 385.483174 234.963217 
L 386.357782 238.417253 
L 387.261544 214.548319 
L 388.165306 256.357619 
L 389.039914 227.694276 
L 389.943676 278.989286 
L 390.818284 279.298603 
L 391.722045 274.607301 
L 392.625807 258.522835 
L 393.442108 270.483079 
L 394.34587 279.298603 
L 395.220478 273.679351 
L 396.12424 202.330311 
L 397.90261 226.972537 
L 398.806371 159.541509 
L 399.68098 252.85203 
L 400.584741 270.68929 
L 401.45935 272.235873 
L 402.363111 265.018485 
L 403.266873 273.885562 
L 404.112328 271.823451 
L 405.016089 279.298603 
L 405.890697 232.952659 
L 406.794459 163.304862 
L 407.669067 200.061989 
L 408.572829 186.14274 
L 409.476591 115.360782 
L 410.351199 255.481221 
L 411.254961 279.298603 
L 412.129569 279.298603 
L 413.033331 279.143945 
L 413.937092 276.050778 
L 414.753393 273.730903 
L 416.531763 237.179987 
L 417.435525 172.01728 
L 418.310133 187.792429 
L 419.213895 230.529679 
L 420.117657 178.358272 
L 420.992265 265.843329 
L 421.896027 270.534631 
L 422.770635 278.525311 
L 423.674397 279.298603 
L 424.578158 272.751401 
L 425.394459 279.298603 
L 426.298221 245.479983 
L 427.172829 234.550795 
L 428.076591 176.914794 
L 428.951199 191.349571 
L 429.854961 243.675636 
L 430.758723 228.673779 
L 433.411701 279.040839 
L 434.315462 279.298603 
L 435.219224 279.298603 
L 436.035525 262.440846 
L 436.939287 262.595504 
L 437.813895 253.934638 
L 438.717657 138.868847 
L 439.592265 201.144598 
L 440.496027 247.28433 
L 441.399788 220.528441 
L 442.274397 278.628417 
L 443.178158 278.886181 
L 444.052766 279.298603 
L 444.956528 279.298603 
L 445.86029 270.792395 
L 447.609506 279.298603 
L 448.484114 259.347679 
L 449.387876 177.327216 
L 450.262484 221.507943 
L 451.166246 159.18064 
L 452.070008 195.370687 
L 452.944616 275.483698 
L 453.848378 279.298603 
L 455.626748 279.298603 
L 456.530509 278.628417 
L 457.34681 276.772517 
L 458.250572 274.194878 
L 459.12518 234.08682 
L 460.028942 199.082487 
L 460.90355 243.675636 
L 461.807312 117.783762 
L 462.711074 226.663221 
L 463.585682 230.684337 
L 464.489444 278.783075 
L 465.364052 277.184939 
L 466.267813 279.040839 
L 467.171575 271.668792 
L 467.987876 277.855125 
L 468.891638 261.306685 
L 469.766246 219.497385 
L 470.670008 170.006722 
L 471.544616 158.355795 
L 472.448378 240.737128 
L 473.352139 190.627832 
L 474.226748 227.488065 
L 475.130509 277.855125 
L 476.005118 279.298603 
L 478.628942 279.298603 
L 479.532704 271.823451 
L 480.407312 232.127815 
L 481.311074 146.498657 
L 482.185682 195.370687 
L 483.089444 227.797382 
L 483.993205 181.86386 
L 484.867813 212.692419 
L 485.771575 268.420968 
L 486.646183 279.298603 
L 487.549945 231.045207 
L 488.453707 270.843948 
L 489.299161 274.607301 
L 490.202923 267.132148 
L 491.077531 207.330931 
L 491.981293 232.694895 
L 492.855901 135.414811 
L 493.759663 159.489956 
L 494.663425 194.184973 
L 495.538033 214.75453 
L 496.441795 249.449547 
L 497.316403 277.855125 
L 498.220165 279.298603 
L 499.123926 277.958231 
L 499.940227 277.855125 
L 500.843989 271.307923 
L 501.718597 275.071276 
L 502.622359 155.932815 
L 503.496967 200.165095 
L 504.400729 226.09614 
L 505.304491 152.169462 
L 506.179099 262.647057 
L 507.082861 270.173762 
L 507.957469 279.298603 
L 508.86123 273.627798 
L 509.764992 279.298603 
L 510.581293 279.298603 
L 511.485055 271.514134 
L 513.263425 167.532189 
L 514.138033 218.002355 
L 515.041795 167.480636 
L 515.945556 203.258261 
L 516.820165 215.527822 
L 517.723926 277.030281 
L 518.598534 279.298603 
L 519.502296 264.245193 
L 520.406058 278.525311 
L 521.222359 266.565068 
L 522.126121 270.225315 
L 523.000729 159.541509 
L 523.904491 196.453295 
L 524.779099 195.216029 
L 525.682861 85.150856 
L 526.586622 199.288698 
L 529.2396 254.656377 
L 530.143362 279.298603 
L 531.892578 279.298603 
L 532.79634 265.224696 
L 533.670948 249.397994 
L 534.57471 183.15268 
L 535.449318 211.197389 
L 536.35308 152.272568 
L 537.256842 192.380626 
L 538.13145 246.150169 
L 539.035212 279.298603 
L 539.90982 274.813512 
L 540.813582 279.298603 
L 541.717343 279.143945 
L 542.533644 251.460105 
L 543.437406 245.583089 
L 544.312014 226.147693 
L 545.215776 213.001736 
L 546.090384 212.692419 
L 546.994146 195.628451 
L 547.897908 166.862003 
L 548.772516 216.24956 
L 549.676277 274.091773 
L 550.550886 271.978109 
L 551.454647 279.298603 
L 552.358409 278.628417 
L 553.17471 279.298603 
L 554.078472 277.597361 
L 554.95308 273.937114 
L 555.856842 222.899868 
L 556.73145 231.045207 
L 557.635212 173.976286 
L 558.538973 100.049608 
L 559.413582 227.694276 
L 560.317343 265.327801 
L 561.191951 279.298603 
L 562.095713 279.298603 
L 562.999475 278.886181 
L 563.815776 278.215995 
L 564.719538 265.379354 
L 565.594146 231.406076 
L 566.497908 210.527203 
L 567.372516 164.748339 
L 568.276277 169.5943 
L 569.180039 219.806702 
L 570.054647 221.765707 
L 570.958409 277.597361 
L 571.833017 279.298603 
L 572.736779 279.298603 
L 573.640541 278.112889 
L 574.485995 278.783075 
L 575.389757 263.678112 
L 576.264365 213.929686 
L 577.168127 190.112304 
L 578.042735 224.137135 
L 578.946497 228.467568 
L 579.850259 102.421036 
L 580.724867 256.615382 
L 581.628629 277.030281 
L 582.503237 278.112889 
L 583.406998 277.597361 
L 584.31076 278.886181 
L 585.127061 272.751401 
L 586.030823 248.934019 
L 586.905431 243.057003 
L 587.809193 183.822866 
L 588.683801 192.122862 
L 589.587563 221.868813 
L 590.491324 139.951455 
L 591.365933 268.266309 
L 592.269694 277.855125 
L 593.144303 277.597361 
L 594.048064 265.946435 
L 594.951826 270.534631 
L 595.768127 271.720345 
L 596.671889 268.369415 
L 597.546497 255.687432 
L 598.450259 179.44088 
L 599.324867 233.004212 
L 600.228629 249.655758 
L 601.13239 179.234669 
L 602.006998 242.335264 
L 603.785368 279.298603 
L 605.592892 279.298603 
L 606.409193 277.545809 
L 607.312955 275.225934 
L 608.187563 248.470044 
L 609.091324 100.358925 
L 609.965933 255.893644 
L 610.869694 158.510454 
L 611.773456 187.843982 
L 612.648064 183.616655 
L 613.551826 264.245193 
L 614.426434 279.298603 
L 615.330196 266.204198 
L 616.233958 278.783075 
L 617.079412 273.937114 
L 617.983174 258.368177 
L 618.857782 216.404219 
L 619.761544 184.64771 
L 620.636152 187.43156 
L 621.539914 219.136516 
L 622.443676 130.775061 
L 623.318284 242.644581 
L 624.222045 279.040839 
L 625.096654 279.298603 
L 626.904177 279.298603 
L 627.720478 267.956993 
L 628.62424 268.781837 
L 629.498848 235.581851 
L 630.40261 241.561972 
L 631.277218 209.238383 
L 632.18098 203.516025 
L 633.084741 253.934638 
L 633.95935 258.213518 
L 634.863111 271.153265 
L 635.737719 279.298603 
L 636.641481 278.886181 
L 637.545243 279.298603 
L 638.361544 271.307923 
L 641.918284 179.750196 
L 642.822045 193.720998 
L 643.725807 225.580613 
L 644.600415 240.891786 
L 645.504177 267.750782 
L 646.378785 278.886181 
L 647.282547 276.308542 
L 648.186309 261.564449 
L 649.00261 279.298603 
L 649.906371 258.832152 
L 650.78098 199.185592 
L 655.241481 256.873146 
L 656.145243 278.370653 
L 657.019851 279.298603 
L 657.923613 279.298603 
L 658.827375 277.442703 
L 659.672829 277.339598 
L 660.576591 269.555129 
L 661.451199 265.997987 
L 662.354961 136.652077 
L 663.229569 184.493052 
L 664.133331 224.188688 
L 665.037092 181.193674 
L 665.911701 254.656377 
L 666.815462 276.566306 
L 667.690071 279.298603 
L 669.497594 271.668792 
L 670.313895 278.886181 
L 671.217657 275.999225 
L 672.092265 256.821594 
L 672.996027 143.869466 
L 673.870635 229.189307 
L 674.774397 203.309814 
L 675.678158 116.340284 
L 676.552766 217.950802 
L 677.456528 271.307923 
L 678.331136 276.669411 
L 678.331136 276.669411 
" clip-path="url(#p8bc13ad77f)" style="fill: none; stroke: #194a7a; stroke-width: 1.2; stroke-linecap: round"/>
   </g>
   <g id="line2d_15">
    <path d="M 668.564679 233.251555 
L 669.46844 252.436692 
L 670.284741 272.095149 
L 671.188503 275.578115 
L 672.063111 272.97368 
L 672.966873 230.447337 
L 673.841481 246.181054 
L 674.745243 248.590038 
L 675.649005 209.543632 
L 676.523613 227.978708 
L 677.427375 241.908496 
L 678.301983 242.407908 
" clip-path="url(#p8bc13ad77f)" style="fill: none; stroke: #b60033; stroke-width: 1.2; stroke-linecap: round"/>
   </g>
   <g id="line2d_16">
    <path d="M 667.690071 279.298603 
L 668.564679 233.251555 
" clip-path="url(#p8bc13ad77f)" style="fill: none; stroke: #b60033; stroke-width: 1.5; stroke-linecap: round"/>
   </g>
   <g id="patch_3">
    <path d="M 39.1675 355.860937 
L 39.1675 23.220937 
" style="fill: none; stroke: #cccccc; stroke-width: 1.25; stroke-linejoin: miter; stroke-linecap: square"/>
   </g>
   <g id="patch_4">
    <path d="M 708.7675 355.860937 
L 708.7675 23.220937 
" style="fill: none; stroke: #cccccc; stroke-width: 1.25; stroke-linejoin: miter; stroke-linecap: square"/>
   </g>
   <g id="patch_5">
    <path d="M 39.1675 355.860937 
L 708.7675 355.860937 
" style="fill: none; stroke: #cccccc; stroke-width: 1.25; stroke-linejoin: miter; stroke-linecap: square"/>
   </g>
   <g id="patch_6">
    <path d="M 39.1675 23.220937 
L 708.7675 23.220937 
" style="fill: none; stroke: #cccccc; stroke-width: 1.25; stroke-linejoin: miter; stroke-linecap: square"/>
   </g>
   <g id="text_14">
    <!-- Método Forecast -->
    <g style="fill: #262626" transform="translate(317.965313 17.220937) scale(0.14 -0.14)">
     <defs>
      <path id="Arial-BoldMT-4d" d="M 453 0 
L 453 4581 
L 1838 4581 
L 2669 1456 
L 3491 4581 
L 4878 4581 
L 4878 0 
L 4019 0 
L 4019 3606 
L 3109 0 
L 2219 0 
L 1313 3606 
L 1313 0 
L 453 0 
z
" transform="scale(0.015625)"/>
      <path id="Arial-BoldMT-e9" d="M 2381 1056 
L 3256 909 
Q 3088 428 2723 176 
Q 2359 -75 1813 -75 
Q 947 -75 531 491 
Q 203 944 203 1634 
Q 203 2459 634 2926 
Q 1066 3394 1725 3394 
Q 2466 3394 2894 2905 
Q 3322 2416 3303 1406 
L 1103 1406 
Q 1113 1016 1316 798 
Q 1519 581 1822 581 
Q 2028 581 2168 693 
Q 2309 806 2381 1056 
z
M 2431 1944 
Q 2422 2325 2234 2523 
Q 2047 2722 1778 2722 
Q 1491 2722 1303 2513 
Q 1116 2303 1119 1944 
L 2431 1944 
z
M 1312 3725 
L 1744 4659 
L 2728 4659 
L 1869 3725 
L 1312 3725 
z
" transform="scale(0.015625)"/>
      <path id="Arial-BoldMT-74" d="M 1981 3319 
L 1981 2619 
L 1381 2619 
L 1381 1281 
Q 1381 875 1398 808 
Q 1416 741 1477 697 
Q 1538 653 1625 653 
Q 1747 653 1978 738 
L 2053 56 
Q 1747 -75 1359 -75 
Q 1122 -75 931 4 
Q 741 84 652 211 
Q 563 338 528 553 
Q 500 706 500 1172 
L 500 2619 
L 97 2619 
L 97 3319 
L 500 3319 
L 500 3978 
L 1381 4491 
L 1381 3319 
L 1981 3319 
z
" transform="scale(0.015625)"/>
      <path id="Arial-BoldMT-6f" d="M 256 1706 
Q 256 2144 472 2553 
Q 688 2963 1083 3178 
Q 1478 3394 1966 3394 
Q 2719 3394 3200 2905 
Q 3681 2416 3681 1669 
Q 3681 916 3195 420 
Q 2709 -75 1972 -75 
Q 1516 -75 1102 131 
Q 688 338 472 736 
Q 256 1134 256 1706 
z
M 1156 1659 
Q 1156 1166 1390 903 
Q 1625 641 1969 641 
Q 2313 641 2545 903 
Q 2778 1166 2778 1666 
Q 2778 2153 2545 2415 
Q 2313 2678 1969 2678 
Q 1625 2678 1390 2415 
Q 1156 2153 1156 1659 
z
" transform="scale(0.015625)"/>
      <path id="Arial-BoldMT-64" d="M 3503 0 
L 2688 0 
L 2688 488 
Q 2484 203 2207 64 
Q 1931 -75 1650 -75 
Q 1078 -75 670 386 
Q 263 847 263 1672 
Q 263 2516 659 2955 
Q 1056 3394 1663 3394 
Q 2219 3394 2625 2931 
L 2625 4581 
L 3503 4581 
L 3503 0 
z
M 1159 1731 
Q 1159 1200 1306 963 
Q 1519 619 1900 619 
Q 2203 619 2415 876 
Q 2628 1134 2628 1647 
Q 2628 2219 2422 2470 
Q 2216 2722 1894 2722 
Q 1581 2722 1370 2473 
Q 1159 2225 1159 1731 
z
" transform="scale(0.015625)"/>
      <path id="Arial-BoldMT-20" transform="scale(0.015625)"/>
      <path id="Arial-BoldMT-46" d="M 472 0 
L 472 4581 
L 3613 4581 
L 3613 3806 
L 1397 3806 
L 1397 2722 
L 3309 2722 
L 3309 1947 
L 1397 1947 
L 1397 0 
L 472 0 
z
" transform="scale(0.015625)"/>
      <path id="Arial-BoldMT-72" d="M 1300 0 
L 422 0 
L 422 3319 
L 1238 3319 
L 1238 2847 
Q 1447 3181 1614 3287 
Q 1781 3394 1994 3394 
Q 2294 3394 2572 3228 
L 2300 2463 
Q 2078 2606 1888 2606 
Q 1703 2606 1575 2504 
Q 1447 2403 1373 2137 
Q 1300 1872 1300 1025 
L 1300 0 
z
" transform="scale(0.015625)"/>
      <path id="Arial-BoldMT-65" d="M 2381 1056 
L 3256 909 
Q 3088 428 2723 176 
Q 2359 -75 1813 -75 
Q 947 -75 531 491 
Q 203 944 203 1634 
Q 203 2459 634 2926 
Q 1066 3394 1725 3394 
Q 2466 3394 2894 2905 
Q 3322 2416 3303 1406 
L 1103 1406 
Q 1113 1016 1316 798 
Q 1519 581 1822 581 
Q 2028 581 2168 693 
Q 2309 806 2381 1056 
z
M 2431 1944 
Q 2422 2325 2234 2523 
Q 2047 2722 1778 2722 
Q 1491 2722 1303 2513 
Q 1116 2303 1119 1944 
L 2431 1944 
z
" transform="scale(0.015625)"/>
      <path id="Arial-BoldMT-63" d="M 3353 2338 
L 2488 2181 
Q 2444 2441 2289 2572 
Q 2134 2703 1888 2703 
Q 1559 2703 1364 2476 
Q 1169 2250 1169 1719 
Q 1169 1128 1367 884 
Q 1566 641 1900 641 
Q 2150 641 2309 783 
Q 2469 925 2534 1272 
L 3397 1125 
Q 3263 531 2881 228 
Q 2500 -75 1859 -75 
Q 1131 -75 698 384 
Q 266 844 266 1656 
Q 266 2478 700 2936 
Q 1134 3394 1875 3394 
Q 2481 3394 2839 3133 
Q 3197 2872 3353 2338 
z
" transform="scale(0.015625)"/>
      <path id="Arial-BoldMT-61" d="M 1116 2306 
L 319 2450 
Q 453 2931 781 3162 
Q 1109 3394 1756 3394 
Q 2344 3394 2631 3255 
Q 2919 3116 3036 2902 
Q 3153 2688 3153 2116 
L 3144 1091 
Q 3144 653 3186 445 
Q 3228 238 3344 0 
L 2475 0 
Q 2441 88 2391 259 
Q 2369 338 2359 363 
Q 2134 144 1878 34 
Q 1622 -75 1331 -75 
Q 819 -75 523 203 
Q 228 481 228 906 
Q 228 1188 362 1408 
Q 497 1628 739 1745 
Q 981 1863 1438 1950 
Q 2053 2066 2291 2166 
L 2291 2253 
Q 2291 2506 2166 2614 
Q 2041 2722 1694 2722 
Q 1459 2722 1328 2630 
Q 1197 2538 1116 2306 
z
M 2291 1594 
Q 2122 1538 1756 1459 
Q 1391 1381 1278 1306 
Q 1106 1184 1106 997 
Q 1106 813 1243 678 
Q 1381 544 1594 544 
Q 1831 544 2047 700 
Q 2206 819 2256 991 
Q 2291 1103 2291 1419 
L 2291 1594 
z
" transform="scale(0.015625)"/>
      <path id="Arial-BoldMT-73" d="M 150 947 
L 1031 1081 
Q 1088 825 1259 692 
Q 1431 559 1741 559 
Q 2081 559 2253 684 
Q 2369 772 2369 919 
Q 2369 1019 2306 1084 
Q 2241 1147 2013 1200 
Q 950 1434 666 1628 
Q 272 1897 272 2375 
Q 272 2806 612 3100 
Q 953 3394 1669 3394 
Q 2350 3394 2681 3172 
Q 3013 2950 3138 2516 
L 2309 2363 
Q 2256 2556 2107 2659 
Q 1959 2763 1684 2763 
Q 1338 2763 1188 2666 
Q 1088 2597 1088 2488 
Q 1088 2394 1175 2328 
Q 1294 2241 1995 2081 
Q 2697 1922 2975 1691 
Q 3250 1456 3250 1038 
Q 3250 581 2869 253 
Q 2488 -75 1741 -75 
Q 1063 -75 667 200 
Q 272 475 150 947 
z
" transform="scale(0.015625)"/>
     </defs>
     <use xlink:href="#Arial-BoldMT-4d"/>
     <use xlink:href="#Arial-BoldMT-e9" x="83.300781"/>
     <use xlink:href="#Arial-BoldMT-74" x="138.916016"/>
     <use xlink:href="#Arial-BoldMT-6f" x="172.216797"/>
     <use xlink:href="#Arial-BoldMT-64" x="233.300781"/>
     <use xlink:href="#Arial-BoldMT-6f" x="294.384766"/>
     <use xlink:href="#Arial-BoldMT-20" x="355.46875"/>
     <use xlink:href="#Arial-BoldMT-46" x="383.251953"/>
     <use xlink:href="#Arial-BoldMT-6f" x="444.335938"/>
     <use xlink:href="#Arial-BoldMT-72" x="505.419922"/>
     <use xlink:href="#Arial-BoldMT-65" x="544.335938"/>
     <use xlink:href="#Arial-BoldMT-63" x="599.951172"/>
     <use xlink:href="#Arial-BoldMT-61" x="655.566406"/>
     <use xlink:href="#Arial-BoldMT-73" x="711.181641"/>
     <use xlink:href="#Arial-BoldMT-74" x="766.796875"/>
    </g>
   </g>
   <g id="legend_1">
    <g id="patch_7">
     <path d="M 530.734219 78.700469 
L 701.0675 78.700469 
Q 703.2675 78.700469 703.2675 76.500469 
L 703.2675 30.920937 
Q 703.2675 28.720937 701.0675 28.720937 
L 530.734219 28.720937 
Q 528.534219 28.720937 528.534219 30.920937 
L 528.534219 76.500469 
Q 528.534219 78.700469 530.734219 78.700469 
z
" style="fill: #ffffff; opacity: 0.8; stroke: #cccccc; stroke-linejoin: miter"/>
    </g>
    <g id="line2d_17">
     <path d="M 532.934219 37.144531 
L 543.934219 37.144531 
L 554.934219 37.144531 
" style="fill: none; stroke: #194a7a; stroke-width: 1.2; stroke-linecap: round"/>
    </g>
    <g id="text_15">
     <!-- Observado -->
     <g style="fill: #262626" transform="translate(563.734219 40.994531) scale(0.11 -0.11)">
      <defs>
       <path id="ArialMT-4f" d="M 309 2231 
Q 309 3372 921 4017 
Q 1534 4663 2503 4663 
Q 3138 4663 3647 4359 
Q 4156 4056 4423 3514 
Q 4691 2972 4691 2284 
Q 4691 1588 4409 1038 
Q 4128 488 3612 205 
Q 3097 -78 2500 -78 
Q 1853 -78 1343 234 
Q 834 547 571 1087 
Q 309 1628 309 2231 
z
M 934 2222 
Q 934 1394 1379 917 
Q 1825 441 2497 441 
Q 3181 441 3623 922 
Q 4066 1403 4066 2288 
Q 4066 2847 3877 3264 
Q 3688 3681 3323 3911 
Q 2959 4141 2506 4141 
Q 1863 4141 1398 3698 
Q 934 3256 934 2222 
z
" transform="scale(0.015625)"/>
       <path id="ArialMT-62" d="M 941 0 
L 419 0 
L 419 4581 
L 981 4581 
L 981 2947 
Q 1338 3394 1891 3394 
Q 2197 3394 2470 3270 
Q 2744 3147 2920 2923 
Q 3097 2700 3197 2384 
Q 3297 2069 3297 1709 
Q 3297 856 2875 390 
Q 2453 -75 1863 -75 
Q 1275 -75 941 416 
L 941 0 
z
M 934 1684 
Q 934 1088 1097 822 
Q 1363 388 1816 388 
Q 2184 388 2453 708 
Q 2722 1028 2722 1663 
Q 2722 2313 2464 2622 
Q 2206 2931 1841 2931 
Q 1472 2931 1203 2611 
Q 934 2291 934 1684 
z
" transform="scale(0.015625)"/>
       <path id="ArialMT-73" d="M 197 991 
L 753 1078 
Q 800 744 1014 566 
Q 1228 388 1613 388 
Q 2000 388 2187 545 
Q 2375 703 2375 916 
Q 2375 1106 2209 1216 
Q 2094 1291 1634 1406 
Q 1016 1563 777 1677 
Q 538 1791 414 1992 
Q 291 2194 291 2438 
Q 291 2659 392 2848 
Q 494 3038 669 3163 
Q 800 3259 1026 3326 
Q 1253 3394 1513 3394 
Q 1903 3394 2198 3281 
Q 2494 3169 2634 2976 
Q 2775 2784 2828 2463 
L 2278 2388 
Q 2241 2644 2061 2787 
Q 1881 2931 1553 2931 
Q 1166 2931 1000 2803 
Q 834 2675 834 2503 
Q 834 2394 903 2306 
Q 972 2216 1119 2156 
Q 1203 2125 1616 2013 
Q 2213 1853 2448 1751 
Q 2684 1650 2818 1456 
Q 2953 1263 2953 975 
Q 2953 694 2789 445 
Q 2625 197 2315 61 
Q 2006 -75 1616 -75 
Q 969 -75 630 194 
Q 291 463 197 991 
z
" transform="scale(0.015625)"/>
       <path id="ArialMT-65" d="M 2694 1069 
L 3275 997 
Q 3138 488 2766 206 
Q 2394 -75 1816 -75 
Q 1088 -75 661 373 
Q 234 822 234 1631 
Q 234 2469 665 2931 
Q 1097 3394 1784 3394 
Q 2450 3394 2872 2941 
Q 3294 2488 3294 1666 
Q 3294 1616 3291 1516 
L 816 1516 
Q 847 969 1125 678 
Q 1403 388 1819 388 
Q 2128 388 2347 550 
Q 2566 713 2694 1069 
z
M 847 1978 
L 2700 1978 
Q 2663 2397 2488 2606 
Q 2219 2931 1791 2931 
Q 1403 2931 1139 2672 
Q 875 2413 847 1978 
z
" transform="scale(0.015625)"/>
       <path id="ArialMT-72" d="M 416 0 
L 416 3319 
L 922 3319 
L 922 2816 
Q 1116 3169 1280 3281 
Q 1444 3394 1641 3394 
Q 1925 3394 2219 3213 
L 2025 2691 
Q 1819 2813 1613 2813 
Q 1428 2813 1281 2702 
Q 1134 2591 1072 2394 
Q 978 2094 978 1738 
L 978 0 
L 416 0 
z
" transform="scale(0.015625)"/>
       <path id="ArialMT-76" d="M 1344 0 
L 81 3319 
L 675 3319 
L 1388 1331 
Q 1503 1009 1600 663 
Q 1675 925 1809 1294 
L 2547 3319 
L 3125 3319 
L 1869 0 
L 1344 0 
z
" transform="scale(0.015625)"/>
       <path id="ArialMT-61" d="M 2588 409 
Q 2275 144 1986 34 
Q 1697 -75 1366 -75 
Q 819 -75 525 192 
Q 231 459 231 875 
Q 231 1119 342 1320 
Q 453 1522 633 1644 
Q 813 1766 1038 1828 
Q 1203 1872 1538 1913 
Q 2219 1994 2541 2106 
Q 2544 2222 2544 2253 
Q 2544 2597 2384 2738 
Q 2169 2928 1744 2928 
Q 1347 2928 1158 2789 
Q 969 2650 878 2297 
L 328 2372 
Q 403 2725 575 2942 
Q 747 3159 1072 3276 
Q 1397 3394 1825 3394 
Q 2250 3394 2515 3294 
Q 2781 3194 2906 3042 
Q 3031 2891 3081 2659 
Q 3109 2516 3109 2141 
L 3109 1391 
Q 3109 606 3145 398 
Q 3181 191 3288 0 
L 2700 0 
Q 2613 175 2588 409 
z
M 2541 1666 
Q 2234 1541 1622 1453 
Q 1275 1403 1131 1340 
Q 988 1278 909 1158 
Q 831 1038 831 891 
Q 831 666 1001 516 
Q 1172 366 1500 366 
Q 1825 366 2078 508 
Q 2331 650 2450 897 
Q 2541 1088 2541 1459 
L 2541 1666 
z
" transform="scale(0.015625)"/>
       <path id="ArialMT-64" d="M 2575 0 
L 2575 419 
Q 2259 -75 1647 -75 
Q 1250 -75 917 144 
Q 584 363 401 755 
Q 219 1147 219 1656 
Q 219 2153 384 2558 
Q 550 2963 881 3178 
Q 1213 3394 1622 3394 
Q 1922 3394 2156 3267 
Q 2391 3141 2538 2938 
L 2538 4581 
L 3097 4581 
L 3097 0 
L 2575 0 
z
M 797 1656 
Q 797 1019 1065 703 
Q 1334 388 1700 388 
Q 2069 388 2326 689 
Q 2584 991 2584 1609 
Q 2584 2291 2321 2609 
Q 2059 2928 1675 2928 
Q 1300 2928 1048 2622 
Q 797 2316 797 1656 
z
" transform="scale(0.015625)"/>
       <path id="ArialMT-6f" d="M 213 1659 
Q 213 2581 725 3025 
Q 1153 3394 1769 3394 
Q 2453 3394 2887 2945 
Q 3322 2497 3322 1706 
Q 3322 1066 3130 698 
Q 2938 331 2570 128 
Q 2203 -75 1769 -75 
Q 1072 -75 642 372 
Q 213 819 213 1659 
z
M 791 1659 
Q 791 1022 1069 705 
Q 1347 388 1769 388 
Q 2188 388 2466 706 
Q 2744 1025 2744 1678 
Q 2744 2294 2464 2611 
Q 2184 2928 1769 2928 
Q 1347 2928 1069 2612 
Q 791 2297 791 1659 
z
" transform="scale(0.015625)"/>
      </defs>
      <use xlink:href="#ArialMT-4f"/>
      <use xlink:href="#ArialMT-62" x="77.783203"/>
      <use xlink:href="#ArialMT-73" x="133.398438"/>
      <use xlink:href="#ArialMT-65" x="183.398438"/>
      <use xlink:href="#ArialMT-72" x="239.013672"/>
      <use xlink:href="#ArialMT-76" x="272.314453"/>
      <use xlink:href="#ArialMT-61" x="322.314453"/>
      <use xlink:href="#ArialMT-64" x="377.929688"/>
      <use xlink:href="#ArialMT-6f" x="433.544922"/>
     </g>
    </g>
    <g id="line2d_18">
     <path d="M 532.934219 52.704375 
L 543.934219 52.704375 
L 554.934219 52.704375 
" style="fill: none; stroke: #b60033; stroke-width: 1.2; stroke-linecap: round"/>
    </g>
    <g id="text_16">
     <!-- Pronóstico -->
     <g style="fill: #262626" transform="translate(563.734219 56.554375) scale(0.11 -0.11)">
      <defs>
       <path id="ArialMT-50" d="M 494 0 
L 494 4581 
L 2222 4581 
Q 2678 4581 2919 4538 
Q 3256 4481 3484 4323 
Q 3713 4166 3852 3881 
Q 3991 3597 3991 3256 
Q 3991 2672 3619 2267 
Q 3247 1863 2275 1863 
L 1100 1863 
L 1100 0 
L 494 0 
z
M 1100 2403 
L 2284 2403 
Q 2872 2403 3119 2622 
Q 3366 2841 3366 3238 
Q 3366 3525 3220 3729 
Q 3075 3934 2838 4000 
Q 2684 4041 2272 4041 
L 1100 4041 
L 1100 2403 
z
" transform="scale(0.015625)"/>
       <path id="ArialMT-6e" d="M 422 0 
L 422 3319 
L 928 3319 
L 928 2847 
Q 1294 3394 1984 3394 
Q 2284 3394 2536 3286 
Q 2788 3178 2913 3003 
Q 3038 2828 3088 2588 
Q 3119 2431 3119 2041 
L 3119 0 
L 2556 0 
L 2556 2019 
Q 2556 2363 2490 2533 
Q 2425 2703 2258 2804 
Q 2091 2906 1866 2906 
Q 1506 2906 1245 2678 
Q 984 2450 984 1813 
L 984 0 
L 422 0 
z
" transform="scale(0.015625)"/>
       <path id="ArialMT-f3" d="M 213 1659 
Q 213 2581 725 3025 
Q 1153 3394 1769 3394 
Q 2453 3394 2887 2945 
Q 3322 2497 3322 1706 
Q 3322 1066 3130 698 
Q 2938 331 2570 128 
Q 2203 -75 1769 -75 
Q 1072 -75 642 372 
Q 213 819 213 1659 
z
M 791 1659 
Q 791 1022 1069 705 
Q 1347 388 1769 388 
Q 2188 388 2466 706 
Q 2744 1025 2744 1678 
Q 2744 2294 2464 2611 
Q 2184 2928 1769 2928 
Q 1347 2928 1069 2612 
Q 791 2297 791 1659 
z
M 1454 3731 
L 1869 4606 
L 2607 4606 
L 1919 3731 
L 1454 3731 
z
" transform="scale(0.015625)"/>
       <path id="ArialMT-74" d="M 1650 503 
L 1731 6 
Q 1494 -44 1306 -44 
Q 1000 -44 831 53 
Q 663 150 594 308 
Q 525 466 525 972 
L 525 2881 
L 113 2881 
L 113 3319 
L 525 3319 
L 525 4141 
L 1084 4478 
L 1084 3319 
L 1650 3319 
L 1650 2881 
L 1084 2881 
L 1084 941 
Q 1084 700 1114 631 
Q 1144 563 1211 522 
Q 1278 481 1403 481 
Q 1497 481 1650 503 
z
" transform="scale(0.015625)"/>
       <path id="ArialMT-69" d="M 425 3934 
L 425 4581 
L 988 4581 
L 988 3934 
L 425 3934 
z
M 425 0 
L 425 3319 
L 988 3319 
L 988 0 
L 425 0 
z
" transform="scale(0.015625)"/>
       <path id="ArialMT-63" d="M 2588 1216 
L 3141 1144 
Q 3050 572 2676 248 
Q 2303 -75 1759 -75 
Q 1078 -75 664 370 
Q 250 816 250 1647 
Q 250 2184 428 2587 
Q 606 2991 970 3192 
Q 1334 3394 1763 3394 
Q 2303 3394 2647 3120 
Q 2991 2847 3088 2344 
L 2541 2259 
Q 2463 2594 2264 2762 
Q 2066 2931 1784 2931 
Q 1359 2931 1093 2626 
Q 828 2322 828 1663 
Q 828 994 1084 691 
Q 1341 388 1753 388 
Q 2084 388 2306 591 
Q 2528 794 2588 1216 
z
" transform="scale(0.015625)"/>
      </defs>
      <use xlink:href="#ArialMT-50"/>
      <use xlink:href="#ArialMT-72" x="66.699219"/>
      <use xlink:href="#ArialMT-6f" x="100"/>
      <use xlink:href="#ArialMT-6e" x="155.615234"/>
      <use xlink:href="#ArialMT-f3" x="211.230469"/>
      <use xlink:href="#ArialMT-73" x="266.845703"/>
      <use xlink:href="#ArialMT-74" x="316.845703"/>
      <use xlink:href="#ArialMT-69" x="344.628906"/>
      <use xlink:href="#ArialMT-63" x="366.845703"/>
      <use xlink:href="#ArialMT-6f" x="416.845703"/>
     </g>
    </g>
    <g id="patch_8">
     <path d="M 532.934219 72.114219 
L 554.934219 72.114219 
L 554.934219 64.414219 
L 532.934219 64.414219 
z
" style="fill: #b9445f; fill-opacity: 0.3; stroke: #b9445f; stroke-opacity: 0.3; stroke-linejoin: miter"/>
    </g>
    <g id="text_17">
     <!-- Intervalo de Confianza 95% -->
     <g style="fill: #262626" transform="translate(563.734219 72.114219) scale(0.11 -0.11)">
      <defs>
       <path id="ArialMT-49" d="M 597 0 
L 597 4581 
L 1203 4581 
L 1203 0 
L 597 0 
z
" transform="scale(0.015625)"/>
       <path id="ArialMT-6c" d="M 409 0 
L 409 4581 
L 972 4581 
L 972 0 
L 409 0 
z
" transform="scale(0.015625)"/>
       <path id="ArialMT-20" transform="scale(0.015625)"/>
       <path id="ArialMT-43" d="M 3763 1606 
L 4369 1453 
Q 4178 706 3683 314 
Q 3188 -78 2472 -78 
Q 1731 -78 1267 223 
Q 803 525 561 1097 
Q 319 1669 319 2325 
Q 319 3041 592 3573 
Q 866 4106 1370 4382 
Q 1875 4659 2481 4659 
Q 3169 4659 3637 4309 
Q 4106 3959 4291 3325 
L 3694 3184 
Q 3534 3684 3231 3912 
Q 2928 4141 2469 4141 
Q 1941 4141 1586 3887 
Q 1231 3634 1087 3207 
Q 944 2781 944 2328 
Q 944 1744 1114 1308 
Q 1284 872 1643 656 
Q 2003 441 2422 441 
Q 2931 441 3284 734 
Q 3638 1028 3763 1606 
z
" transform="scale(0.015625)"/>
       <path id="ArialMT-66" d="M 556 0 
L 556 2881 
L 59 2881 
L 59 3319 
L 556 3319 
L 556 3672 
Q 556 4006 616 4169 
Q 697 4388 901 4523 
Q 1106 4659 1475 4659 
Q 1713 4659 2000 4603 
L 1916 4113 
Q 1741 4144 1584 4144 
Q 1328 4144 1222 4034 
Q 1116 3925 1116 3625 
L 1116 3319 
L 1763 3319 
L 1763 2881 
L 1116 2881 
L 1116 0 
L 556 0 
z
" transform="scale(0.015625)"/>
       <path id="ArialMT-7a" d="M 125 0 
L 125 456 
L 2238 2881 
Q 1878 2863 1603 2863 
L 250 2863 
L 250 3319 
L 2963 3319 
L 2963 2947 
L 1166 841 
L 819 456 
Q 1197 484 1528 484 
L 3063 484 
L 3063 0 
L 125 0 
z
" transform="scale(0.015625)"/>
       <path id="ArialMT-25" d="M 372 3481 
Q 372 3972 619 4315 
Q 866 4659 1334 4659 
Q 1766 4659 2048 4351 
Q 2331 4044 2331 3447 
Q 2331 2866 2045 2552 
Q 1759 2238 1341 2238 
Q 925 2238 648 2547 
Q 372 2856 372 3481 
z
M 1350 4272 
Q 1141 4272 1002 4090 
Q 863 3909 863 3425 
Q 863 2984 1003 2804 
Q 1144 2625 1350 2625 
Q 1563 2625 1702 2806 
Q 1841 2988 1841 3469 
Q 1841 3913 1700 4092 
Q 1559 4272 1350 4272 
z
M 1353 -169 
L 3859 4659 
L 4316 4659 
L 1819 -169 
L 1353 -169 
z
M 3334 1075 
Q 3334 1569 3581 1911 
Q 3828 2253 4300 2253 
Q 4731 2253 5014 1945 
Q 5297 1638 5297 1041 
Q 5297 459 5011 145 
Q 4725 -169 4303 -169 
Q 3888 -169 3611 142 
Q 3334 453 3334 1075 
z
M 4316 1866 
Q 4103 1866 3964 1684 
Q 3825 1503 3825 1019 
Q 3825 581 3965 400 
Q 4106 219 4313 219 
Q 4528 219 4667 400 
Q 4806 581 4806 1063 
Q 4806 1506 4665 1686 
Q 4525 1866 4316 1866 
z
" transform="scale(0.015625)"/>
      </defs>
      <use xlink:href="#ArialMT-49"/>
      <use xlink:href="#ArialMT-6e" x="27.783203"/>
      <use xlink:href="#ArialMT-74" x="83.398438"/>
      <use xlink:href="#ArialMT-65" x="111.181641"/>
      <use xlink:href="#ArialMT-72" x="166.796875"/>
      <use xlink:href="#ArialMT-76" x="200.097656"/>
      <use xlink:href="#ArialMT-61" x="250.097656"/>
      <use xlink:href="#ArialMT-6c" x="305.712891"/>
      <use xlink:href="#ArialMT-6f" x="327.929688"/>
      <use xlink:href="#ArialMT-20" x="383.544922"/>
      <use xlink:href="#ArialMT-64" x="411.328125"/>
      <use xlink:href="#ArialMT-65" x="466.943359"/>
      <use xlink:href="#ArialMT-20" x="522.558594"/>
      <use xlink:href="#ArialMT-43" x="550.341797"/>
      <use xlink:href="#ArialMT-6f" x="622.558594"/>
      <use xlink:href="#ArialMT-6e" x="678.173828"/>
      <use xlink:href="#ArialMT-66" x="733.789062"/>
      <use xlink:href="#ArialMT-69" x="761.572266"/>
      <use xlink:href="#ArialMT-61" x="783.789062"/>
      <use xlink:href="#ArialMT-6e" x="839.404297"/>
      <use xlink:href="#ArialMT-7a" x="895.019531"/>
      <use xlink:href="#ArialMT-61" x="945.019531"/>
      <use xlink:href="#ArialMT-20" x="1000.634766"/>
      <use xlink:href="#ArialMT-39" x="1028.417969"/>
      <use xlink:href="#ArialMT-35" x="1084.033203"/>
      <use xlink:href="#ArialMT-25" x="1139.648438"/>
     </g>
    </g>
   </g>
  </g>
 </g>
 <defs>
  <clipPath id="p8bc13ad77f">
   <rect x="39.1675" y="23.220937" width="669.6" height="332.64"/>
  </clipPath>
 </defs>
</svg>
