<?xml version="1.0" encoding="utf-8" standalone="no"?>
<!DOCTYPE svg PUBLIC "-//W3C//DTD SVG 1.1//EN"
  "http://www.w3.org/Graphics/SVG/1.1/DTD/svg11.dtd">
<svg xmlns:xlink="http://www.w3.org/1999/xlink" width="621.629375pt" height="396.210469pt" viewBox="0 0 621.629375 396.210469" xmlns="http://www.w3.org/2000/svg" version="1.1">
 <metadata>
  <rdf:RDF xmlns:dc="http://purl.org/dc/elements/1.1/" xmlns:cc="http://creativecommons.org/ns#" xmlns:rdf="http://www.w3.org/1999/02/22-rdf-syntax-ns#">
   <cc:Work>
    <dc:type rdf:resource="http://purl.org/dc/dcmitype/StillImage"/>
    <dc:date>2025-04-24T00:22:13.849196</dc:date>
    <dc:format>image/svg+xml</dc:format>
    <dc:creator>
     <cc:Agent>
      <dc:title>Matplotlib v3.8.4, https://matplotlib.org/</dc:title>
     </cc:Agent>
    </dc:creator>
   </cc:Work>
  </rdf:RDF>
 </metadata>
 <defs>
  <style type="text/css">*{stroke-linejoin: round; stroke-linecap: butt}</style>
 </defs>
 <g id="figure_1">
  <g id="patch_1">
   <path d="M 0 396.210469 
L 621.629375 396.210469 
L 621.629375 0 
L 0 0 
z
" style="fill: #ffffff"/>
  </g>
  <g id="axes_1">
   <g id="patch_2">
    <path d="M 56.429375 354.47625 
L 614.429375 354.47625 
L 614.429375 21.83625 
L 56.429375 21.83625 
z
" style="fill: #ffffff"/>
   </g>
   <g id="matplotlib.axis_1">
    <g id="xtick_1">
     <g id="line2d_1">
      <path d="M 57.401162 354.47625 
L 57.401162 21.83625 
" clip-path="url(#p6c0789d93a)" style="fill: none; stroke: #cccccc; stroke-linecap: round"/>
     </g>
     <g id="text_1">
      <!-- 1950 -->
      <g style="fill: #262626" transform="translate(45.167099 371.849844) scale(0.11 -0.11)">
       <defs>
        <path id="ArialMT-31" d="M 2384 0 
L 1822 0 
L 1822 3584 
Q 1619 3391 1289 3197 
Q 959 3003 697 2906 
L 697 3450 
Q 1169 3672 1522 3987 
Q 1875 4303 2022 4600 
L 2384 4600 
L 2384 0 
z
" transform="scale(0.015625)"/>
        <path id="ArialMT-39" d="M 350 1059 
L 891 1109 
Q 959 728 1153 556 
Q 1347 384 1650 384 
Q 1909 384 2104 503 
Q 2300 622 2425 820 
Q 2550 1019 2634 1356 
Q 2719 1694 2719 2044 
Q 2719 2081 2716 2156 
Q 2547 1888 2255 1720 
Q 1963 1553 1622 1553 
Q 1053 1553 659 1965 
Q 266 2378 266 3053 
Q 266 3750 677 4175 
Q 1088 4600 1706 4600 
Q 2153 4600 2523 4359 
Q 2894 4119 3086 3673 
Q 3278 3228 3278 2384 
Q 3278 1506 3087 986 
Q 2897 466 2520 194 
Q 2144 -78 1638 -78 
Q 1100 -78 759 220 
Q 419 519 350 1059 
z
M 2653 3081 
Q 2653 3566 2395 3850 
Q 2138 4134 1775 4134 
Q 1400 4134 1122 3828 
Q 844 3522 844 3034 
Q 844 2597 1108 2323 
Q 1372 2050 1759 2050 
Q 2150 2050 2401 2323 
Q 2653 2597 2653 3081 
z
" transform="scale(0.015625)"/>
        <path id="ArialMT-35" d="M 266 1200 
L 856 1250 
Q 922 819 1161 601 
Q 1400 384 1738 384 
Q 2144 384 2425 690 
Q 2706 997 2706 1503 
Q 2706 1984 2436 2262 
Q 2166 2541 1728 2541 
Q 1456 2541 1237 2417 
Q 1019 2294 894 2097 
L 366 2166 
L 809 4519 
L 3088 4519 
L 3088 3981 
L 1259 3981 
L 1013 2750 
Q 1425 3038 1878 3038 
Q 2478 3038 2890 2622 
Q 3303 2206 3303 1553 
Q 3303 931 2941 478 
Q 2500 -78 1738 -78 
Q 1113 -78 717 272 
Q 322 622 266 1200 
z
" transform="scale(0.015625)"/>
        <path id="ArialMT-30" d="M 266 2259 
Q 266 3072 433 3567 
Q 600 4063 929 4331 
Q 1259 4600 1759 4600 
Q 2128 4600 2406 4451 
Q 2684 4303 2865 4023 
Q 3047 3744 3150 3342 
Q 3253 2941 3253 2259 
Q 3253 1453 3087 958 
Q 2922 463 2592 192 
Q 2263 -78 1759 -78 
Q 1097 -78 719 397 
Q 266 969 266 2259 
z
M 844 2259 
Q 844 1131 1108 757 
Q 1372 384 1759 384 
Q 2147 384 2411 759 
Q 2675 1134 2675 2259 
Q 2675 3391 2411 3762 
Q 2147 4134 1753 4134 
Q 1366 4134 1134 3806 
Q 844 3388 844 2259 
z
" transform="scale(0.015625)"/>
       </defs>
       <use xlink:href="#ArialMT-31"/>
       <use xlink:href="#ArialMT-39" x="55.615234"/>
       <use xlink:href="#ArialMT-35" x="111.230469"/>
       <use xlink:href="#ArialMT-30" x="166.845703"/>
      </g>
     </g>
    </g>
    <g id="xtick_2">
     <g id="line2d_2">
      <path d="M 146.1253 354.47625 
L 146.1253 21.83625 
" clip-path="url(#p6c0789d93a)" style="fill: none; stroke: #cccccc; stroke-linecap: round"/>
     </g>
     <g id="text_2">
      <!-- 1960 -->
      <g style="fill: #262626" transform="translate(133.891237 371.849844) scale(0.11 -0.11)">
       <defs>
        <path id="ArialMT-36" d="M 3184 3459 
L 2625 3416 
Q 2550 3747 2413 3897 
Q 2184 4138 1850 4138 
Q 1581 4138 1378 3988 
Q 1113 3794 959 3422 
Q 806 3050 800 2363 
Q 1003 2672 1297 2822 
Q 1591 2972 1913 2972 
Q 2475 2972 2870 2558 
Q 3266 2144 3266 1488 
Q 3266 1056 3080 686 
Q 2894 316 2569 119 
Q 2244 -78 1831 -78 
Q 1128 -78 684 439 
Q 241 956 241 2144 
Q 241 3472 731 4075 
Q 1159 4600 1884 4600 
Q 2425 4600 2770 4297 
Q 3116 3994 3184 3459 
z
M 888 1484 
Q 888 1194 1011 928 
Q 1134 663 1356 523 
Q 1578 384 1822 384 
Q 2178 384 2434 671 
Q 2691 959 2691 1453 
Q 2691 1928 2437 2201 
Q 2184 2475 1800 2475 
Q 1419 2475 1153 2201 
Q 888 1928 888 1484 
z
" transform="scale(0.015625)"/>
       </defs>
       <use xlink:href="#ArialMT-31"/>
       <use xlink:href="#ArialMT-39" x="55.615234"/>
       <use xlink:href="#ArialMT-36" x="111.230469"/>
       <use xlink:href="#ArialMT-30" x="166.845703"/>
      </g>
     </g>
    </g>
    <g id="xtick_3">
     <g id="line2d_3">
      <path d="M 234.873732 354.47625 
L 234.873732 21.83625 
" clip-path="url(#p6c0789d93a)" style="fill: none; stroke: #cccccc; stroke-linecap: round"/>
     </g>
     <g id="text_3">
      <!-- 1970 -->
      <g style="fill: #262626" transform="translate(222.63967 371.849844) scale(0.11 -0.11)">
       <defs>
        <path id="ArialMT-37" d="M 303 3981 
L 303 4522 
L 3269 4522 
L 3269 4084 
Q 2831 3619 2401 2847 
Q 1972 2075 1738 1259 
Q 1569 684 1522 0 
L 944 0 
Q 953 541 1156 1306 
Q 1359 2072 1739 2783 
Q 2119 3494 2547 3981 
L 303 3981 
z
" transform="scale(0.015625)"/>
       </defs>
       <use xlink:href="#ArialMT-31"/>
       <use xlink:href="#ArialMT-39" x="55.615234"/>
       <use xlink:href="#ArialMT-37" x="111.230469"/>
       <use xlink:href="#ArialMT-30" x="166.845703"/>
      </g>
     </g>
    </g>
    <g id="xtick_4">
     <g id="line2d_4">
      <path d="M 323.59787 354.47625 
L 323.59787 21.83625 
" clip-path="url(#p6c0789d93a)" style="fill: none; stroke: #cccccc; stroke-linecap: round"/>
     </g>
     <g id="text_4">
      <!-- 1980 -->
      <g style="fill: #262626" transform="translate(311.363808 371.849844) scale(0.11 -0.11)">
       <defs>
        <path id="ArialMT-38" d="M 1131 2484 
Q 781 2613 612 2850 
Q 444 3088 444 3419 
Q 444 3919 803 4259 
Q 1163 4600 1759 4600 
Q 2359 4600 2725 4251 
Q 3091 3903 3091 3403 
Q 3091 3084 2923 2848 
Q 2756 2613 2416 2484 
Q 2838 2347 3058 2040 
Q 3278 1734 3278 1309 
Q 3278 722 2862 322 
Q 2447 -78 1769 -78 
Q 1091 -78 675 323 
Q 259 725 259 1325 
Q 259 1772 486 2073 
Q 713 2375 1131 2484 
z
M 1019 3438 
Q 1019 3113 1228 2906 
Q 1438 2700 1772 2700 
Q 2097 2700 2305 2904 
Q 2513 3109 2513 3406 
Q 2513 3716 2298 3927 
Q 2084 4138 1766 4138 
Q 1444 4138 1231 3931 
Q 1019 3725 1019 3438 
z
M 838 1322 
Q 838 1081 952 856 
Q 1066 631 1291 507 
Q 1516 384 1775 384 
Q 2178 384 2440 643 
Q 2703 903 2703 1303 
Q 2703 1709 2433 1975 
Q 2163 2241 1756 2241 
Q 1359 2241 1098 1978 
Q 838 1716 838 1322 
z
" transform="scale(0.015625)"/>
       </defs>
       <use xlink:href="#ArialMT-31"/>
       <use xlink:href="#ArialMT-39" x="55.615234"/>
       <use xlink:href="#ArialMT-38" x="111.230469"/>
       <use xlink:href="#ArialMT-30" x="166.845703"/>
      </g>
     </g>
    </g>
    <g id="xtick_5">
     <g id="line2d_5">
      <path d="M 412.346303 354.47625 
L 412.346303 21.83625 
" clip-path="url(#p6c0789d93a)" style="fill: none; stroke: #cccccc; stroke-linecap: round"/>
     </g>
     <g id="text_5">
      <!-- 1990 -->
      <g style="fill: #262626" transform="translate(400.11224 371.849844) scale(0.11 -0.11)">
       <use xlink:href="#ArialMT-31"/>
       <use xlink:href="#ArialMT-39" x="55.615234"/>
       <use xlink:href="#ArialMT-39" x="111.230469"/>
       <use xlink:href="#ArialMT-30" x="166.845703"/>
      </g>
     </g>
    </g>
    <g id="xtick_6">
     <g id="line2d_6">
      <path d="M 501.070441 354.47625 
L 501.070441 21.83625 
" clip-path="url(#p6c0789d93a)" style="fill: none; stroke: #cccccc; stroke-linecap: round"/>
     </g>
     <g id="text_6">
      <!-- 2000 -->
      <g style="fill: #262626" transform="translate(488.836378 371.849844) scale(0.11 -0.11)">
       <defs>
        <path id="ArialMT-32" d="M 3222 541 
L 3222 0 
L 194 0 
Q 188 203 259 391 
Q 375 700 629 1000 
Q 884 1300 1366 1694 
Q 2113 2306 2375 2664 
Q 2638 3022 2638 3341 
Q 2638 3675 2398 3904 
Q 2159 4134 1775 4134 
Q 1369 4134 1125 3890 
Q 881 3647 878 3216 
L 300 3275 
Q 359 3922 746 4261 
Q 1134 4600 1788 4600 
Q 2447 4600 2831 4234 
Q 3216 3869 3216 3328 
Q 3216 3053 3103 2787 
Q 2991 2522 2730 2228 
Q 2469 1934 1863 1422 
Q 1356 997 1212 845 
Q 1069 694 975 541 
L 3222 541 
z
" transform="scale(0.015625)"/>
       </defs>
       <use xlink:href="#ArialMT-32"/>
       <use xlink:href="#ArialMT-30" x="55.615234"/>
       <use xlink:href="#ArialMT-30" x="111.230469"/>
       <use xlink:href="#ArialMT-30" x="166.845703"/>
      </g>
     </g>
    </g>
    <g id="xtick_7">
     <g id="line2d_7">
      <path d="M 589.818873 354.47625 
L 589.818873 21.83625 
" clip-path="url(#p6c0789d93a)" style="fill: none; stroke: #cccccc; stroke-linecap: round"/>
     </g>
     <g id="text_7">
      <!-- 2010 -->
      <g style="fill: #262626" transform="translate(577.584811 371.849844) scale(0.11 -0.11)">
       <use xlink:href="#ArialMT-32"/>
       <use xlink:href="#ArialMT-30" x="55.615234"/>
       <use xlink:href="#ArialMT-31" x="111.230469"/>
       <use xlink:href="#ArialMT-30" x="166.845703"/>
      </g>
     </g>
    </g>
    <g id="text_8">
     <!-- Fecha -->
     <g style="fill: #262626" transform="translate(318.755 386.625469) scale(0.12 -0.12)">
      <defs>
       <path id="ArialMT-46" d="M 525 0 
L 525 4581 
L 3616 4581 
L 3616 4041 
L 1131 4041 
L 1131 2622 
L 3281 2622 
L 3281 2081 
L 1131 2081 
L 1131 0 
L 525 0 
z
" transform="scale(0.015625)"/>
       <path id="ArialMT-65" d="M 2694 1069 
L 3275 997 
Q 3138 488 2766 206 
Q 2394 -75 1816 -75 
Q 1088 -75 661 373 
Q 234 822 234 1631 
Q 234 2469 665 2931 
Q 1097 3394 1784 3394 
Q 2450 3394 2872 2941 
Q 3294 2488 3294 1666 
Q 3294 1616 3291 1516 
L 816 1516 
Q 847 969 1125 678 
Q 1403 388 1819 388 
Q 2128 388 2347 550 
Q 2566 713 2694 1069 
z
M 847 1978 
L 2700 1978 
Q 2663 2397 2488 2606 
Q 2219 2931 1791 2931 
Q 1403 2931 1139 2672 
Q 875 2413 847 1978 
z
" transform="scale(0.015625)"/>
       <path id="ArialMT-63" d="M 2588 1216 
L 3141 1144 
Q 3050 572 2676 248 
Q 2303 -75 1759 -75 
Q 1078 -75 664 370 
Q 250 816 250 1647 
Q 250 2184 428 2587 
Q 606 2991 970 3192 
Q 1334 3394 1763 3394 
Q 2303 3394 2647 3120 
Q 2991 2847 3088 2344 
L 2541 2259 
Q 2463 2594 2264 2762 
Q 2066 2931 1784 2931 
Q 1359 2931 1093 2626 
Q 828 2322 828 1663 
Q 828 994 1084 691 
Q 1341 388 1753 388 
Q 2084 388 2306 591 
Q 2528 794 2588 1216 
z
" transform="scale(0.015625)"/>
       <path id="ArialMT-68" d="M 422 0 
L 422 4581 
L 984 4581 
L 984 2938 
Q 1378 3394 1978 3394 
Q 2347 3394 2619 3248 
Q 2891 3103 3008 2847 
Q 3125 2591 3125 2103 
L 3125 0 
L 2563 0 
L 2563 2103 
Q 2563 2525 2380 2717 
Q 2197 2909 1863 2909 
Q 1613 2909 1392 2779 
Q 1172 2650 1078 2428 
Q 984 2206 984 1816 
L 984 0 
L 422 0 
z
" transform="scale(0.015625)"/>
       <path id="ArialMT-61" d="M 2588 409 
Q 2275 144 1986 34 
Q 1697 -75 1366 -75 
Q 819 -75 525 192 
Q 231 459 231 875 
Q 231 1119 342 1320 
Q 453 1522 633 1644 
Q 813 1766 1038 1828 
Q 1203 1872 1538 1913 
Q 2219 1994 2541 2106 
Q 2544 2222 2544 2253 
Q 2544 2597 2384 2738 
Q 2169 2928 1744 2928 
Q 1347 2928 1158 2789 
Q 969 2650 878 2297 
L 328 2372 
Q 403 2725 575 2942 
Q 747 3159 1072 3276 
Q 1397 3394 1825 3394 
Q 2250 3394 2515 3294 
Q 2781 3194 2906 3042 
Q 3031 2891 3081 2659 
Q 3109 2516 3109 2141 
L 3109 1391 
Q 3109 606 3145 398 
Q 3181 191 3288 0 
L 2700 0 
Q 2613 175 2588 409 
z
M 2541 1666 
Q 2234 1541 1622 1453 
Q 1275 1403 1131 1340 
Q 988 1278 909 1158 
Q 831 1038 831 891 
Q 831 666 1001 516 
Q 1172 366 1500 366 
Q 1825 366 2078 508 
Q 2331 650 2450 897 
Q 2541 1088 2541 1459 
L 2541 1666 
z
" transform="scale(0.015625)"/>
      </defs>
      <use xlink:href="#ArialMT-46"/>
      <use xlink:href="#ArialMT-65" x="61.083984"/>
      <use xlink:href="#ArialMT-63" x="116.699219"/>
      <use xlink:href="#ArialMT-68" x="166.699219"/>
      <use xlink:href="#ArialMT-61" x="222.314453"/>
     </g>
    </g>
   </g>
   <g id="matplotlib.axis_2">
    <g id="ytick_1">
     <g id="line2d_8">
      <path d="M 56.429375 339.35625 
L 614.429375 339.35625 
" clip-path="url(#p6c0789d93a)" style="fill: none; stroke: #cccccc; stroke-linecap: round"/>
     </g>
     <g id="text_9">
      <!-- 0 -->
      <g style="fill: #262626" transform="translate(40.812344 343.293047) scale(0.11 -0.11)">
       <use xlink:href="#ArialMT-30"/>
      </g>
     </g>
    </g>
    <g id="ytick_2">
     <g id="line2d_9">
      <path d="M 56.429375 274.657919 
L 614.429375 274.657919 
" clip-path="url(#p6c0789d93a)" style="fill: none; stroke: #cccccc; stroke-linecap: round"/>
     </g>
     <g id="text_10">
      <!-- 1000 -->
      <g style="fill: #262626" transform="translate(22.46125 278.594716) scale(0.11 -0.11)">
       <use xlink:href="#ArialMT-31"/>
       <use xlink:href="#ArialMT-30" x="55.615234"/>
       <use xlink:href="#ArialMT-30" x="111.230469"/>
       <use xlink:href="#ArialMT-30" x="166.845703"/>
      </g>
     </g>
    </g>
    <g id="ytick_3">
     <g id="line2d_10">
      <path d="M 56.429375 209.959588 
L 614.429375 209.959588 
" clip-path="url(#p6c0789d93a)" style="fill: none; stroke: #cccccc; stroke-linecap: round"/>
     </g>
     <g id="text_11">
      <!-- 2000 -->
      <g style="fill: #262626" transform="translate(22.46125 213.896384) scale(0.11 -0.11)">
       <use xlink:href="#ArialMT-32"/>
       <use xlink:href="#ArialMT-30" x="55.615234"/>
       <use xlink:href="#ArialMT-30" x="111.230469"/>
       <use xlink:href="#ArialMT-30" x="166.845703"/>
      </g>
     </g>
    </g>
    <g id="ytick_4">
     <g id="line2d_11">
      <path d="M 56.429375 145.261256 
L 614.429375 145.261256 
" clip-path="url(#p6c0789d93a)" style="fill: none; stroke: #cccccc; stroke-linecap: round"/>
     </g>
     <g id="text_12">
      <!-- 3000 -->
      <g style="fill: #262626" transform="translate(22.46125 149.198053) scale(0.11 -0.11)">
       <defs>
        <path id="ArialMT-33" d="M 269 1209 
L 831 1284 
Q 928 806 1161 595 
Q 1394 384 1728 384 
Q 2125 384 2398 659 
Q 2672 934 2672 1341 
Q 2672 1728 2419 1979 
Q 2166 2231 1775 2231 
Q 1616 2231 1378 2169 
L 1441 2663 
Q 1497 2656 1531 2656 
Q 1891 2656 2178 2843 
Q 2466 3031 2466 3422 
Q 2466 3731 2256 3934 
Q 2047 4138 1716 4138 
Q 1388 4138 1169 3931 
Q 950 3725 888 3313 
L 325 3413 
Q 428 3978 793 4289 
Q 1159 4600 1703 4600 
Q 2078 4600 2393 4439 
Q 2709 4278 2876 4000 
Q 3044 3722 3044 3409 
Q 3044 3113 2884 2869 
Q 2725 2625 2413 2481 
Q 2819 2388 3044 2092 
Q 3269 1797 3269 1353 
Q 3269 753 2831 336 
Q 2394 -81 1725 -81 
Q 1122 -81 723 278 
Q 325 638 269 1209 
z
" transform="scale(0.015625)"/>
       </defs>
       <use xlink:href="#ArialMT-33"/>
       <use xlink:href="#ArialMT-30" x="55.615234"/>
       <use xlink:href="#ArialMT-30" x="111.230469"/>
       <use xlink:href="#ArialMT-30" x="166.845703"/>
      </g>
     </g>
    </g>
    <g id="ytick_5">
     <g id="line2d_12">
      <path d="M 56.429375 80.562925 
L 614.429375 80.562925 
" clip-path="url(#p6c0789d93a)" style="fill: none; stroke: #cccccc; stroke-linecap: round"/>
     </g>
     <g id="text_13">
      <!-- 4000 -->
      <g style="fill: #262626" transform="translate(22.46125 84.499722) scale(0.11 -0.11)">
       <defs>
        <path id="ArialMT-34" d="M 2069 0 
L 2069 1097 
L 81 1097 
L 81 1613 
L 2172 4581 
L 2631 4581 
L 2631 1613 
L 3250 1613 
L 3250 1097 
L 2631 1097 
L 2631 0 
L 2069 0 
z
M 2069 1613 
L 2069 3678 
L 634 1613 
L 2069 1613 
z
" transform="scale(0.015625)"/>
       </defs>
       <use xlink:href="#ArialMT-34"/>
       <use xlink:href="#ArialMT-30" x="55.615234"/>
       <use xlink:href="#ArialMT-30" x="111.230469"/>
       <use xlink:href="#ArialMT-30" x="166.845703"/>
      </g>
     </g>
    </g>
    <g id="text_14">
     <!-- Precipitación (mm) -->
     <g style="fill: #262626" transform="translate(15.935625 238.163437) rotate(-90) scale(0.12 -0.12)">
      <defs>
       <path id="ArialMT-50" d="M 494 0 
L 494 4581 
L 2222 4581 
Q 2678 4581 2919 4538 
Q 3256 4481 3484 4323 
Q 3713 4166 3852 3881 
Q 3991 3597 3991 3256 
Q 3991 2672 3619 2267 
Q 3247 1863 2275 1863 
L 1100 1863 
L 1100 0 
L 494 0 
z
M 1100 2403 
L 2284 2403 
Q 2872 2403 3119 2622 
Q 3366 2841 3366 3238 
Q 3366 3525 3220 3729 
Q 3075 3934 2838 4000 
Q 2684 4041 2272 4041 
L 1100 4041 
L 1100 2403 
z
" transform="scale(0.015625)"/>
       <path id="ArialMT-72" d="M 416 0 
L 416 3319 
L 922 3319 
L 922 2816 
Q 1116 3169 1280 3281 
Q 1444 3394 1641 3394 
Q 1925 3394 2219 3213 
L 2025 2691 
Q 1819 2813 1613 2813 
Q 1428 2813 1281 2702 
Q 1134 2591 1072 2394 
Q 978 2094 978 1738 
L 978 0 
L 416 0 
z
" transform="scale(0.015625)"/>
       <path id="ArialMT-69" d="M 425 3934 
L 425 4581 
L 988 4581 
L 988 3934 
L 425 3934 
z
M 425 0 
L 425 3319 
L 988 3319 
L 988 0 
L 425 0 
z
" transform="scale(0.015625)"/>
       <path id="ArialMT-70" d="M 422 -1272 
L 422 3319 
L 934 3319 
L 934 2888 
Q 1116 3141 1344 3267 
Q 1572 3394 1897 3394 
Q 2322 3394 2647 3175 
Q 2972 2956 3137 2557 
Q 3303 2159 3303 1684 
Q 3303 1175 3120 767 
Q 2938 359 2589 142 
Q 2241 -75 1856 -75 
Q 1575 -75 1351 44 
Q 1128 163 984 344 
L 984 -1272 
L 422 -1272 
z
M 931 1641 
Q 931 1000 1190 694 
Q 1450 388 1819 388 
Q 2194 388 2461 705 
Q 2728 1022 2728 1688 
Q 2728 2322 2467 2637 
Q 2206 2953 1844 2953 
Q 1484 2953 1207 2617 
Q 931 2281 931 1641 
z
" transform="scale(0.015625)"/>
       <path id="ArialMT-74" d="M 1650 503 
L 1731 6 
Q 1494 -44 1306 -44 
Q 1000 -44 831 53 
Q 663 150 594 308 
Q 525 466 525 972 
L 525 2881 
L 113 2881 
L 113 3319 
L 525 3319 
L 525 4141 
L 1084 4478 
L 1084 3319 
L 1650 3319 
L 1650 2881 
L 1084 2881 
L 1084 941 
Q 1084 700 1114 631 
Q 1144 563 1211 522 
Q 1278 481 1403 481 
Q 1497 481 1650 503 
z
" transform="scale(0.015625)"/>
       <path id="ArialMT-f3" d="M 213 1659 
Q 213 2581 725 3025 
Q 1153 3394 1769 3394 
Q 2453 3394 2887 2945 
Q 3322 2497 3322 1706 
Q 3322 1066 3130 698 
Q 2938 331 2570 128 
Q 2203 -75 1769 -75 
Q 1072 -75 642 372 
Q 213 819 213 1659 
z
M 791 1659 
Q 791 1022 1069 705 
Q 1347 388 1769 388 
Q 2188 388 2466 706 
Q 2744 1025 2744 1678 
Q 2744 2294 2464 2611 
Q 2184 2928 1769 2928 
Q 1347 2928 1069 2612 
Q 791 2297 791 1659 
z
M 1454 3731 
L 1869 4606 
L 2607 4606 
L 1919 3731 
L 1454 3731 
z
" transform="scale(0.015625)"/>
       <path id="ArialMT-6e" d="M 422 0 
L 422 3319 
L 928 3319 
L 928 2847 
Q 1294 3394 1984 3394 
Q 2284 3394 2536 3286 
Q 2788 3178 2913 3003 
Q 3038 2828 3088 2588 
Q 3119 2431 3119 2041 
L 3119 0 
L 2556 0 
L 2556 2019 
Q 2556 2363 2490 2533 
Q 2425 2703 2258 2804 
Q 2091 2906 1866 2906 
Q 1506 2906 1245 2678 
Q 984 2450 984 1813 
L 984 0 
L 422 0 
z
" transform="scale(0.015625)"/>
       <path id="ArialMT-20" transform="scale(0.015625)"/>
       <path id="ArialMT-28" d="M 1497 -1347 
Q 1031 -759 709 28 
Q 388 816 388 1659 
Q 388 2403 628 3084 
Q 909 3875 1497 4659 
L 1900 4659 
Q 1522 4009 1400 3731 
Q 1209 3300 1100 2831 
Q 966 2247 966 1656 
Q 966 153 1900 -1347 
L 1497 -1347 
z
" transform="scale(0.015625)"/>
       <path id="ArialMT-6d" d="M 422 0 
L 422 3319 
L 925 3319 
L 925 2853 
Q 1081 3097 1340 3245 
Q 1600 3394 1931 3394 
Q 2300 3394 2536 3241 
Q 2772 3088 2869 2813 
Q 3263 3394 3894 3394 
Q 4388 3394 4653 3120 
Q 4919 2847 4919 2278 
L 4919 0 
L 4359 0 
L 4359 2091 
Q 4359 2428 4304 2576 
Q 4250 2725 4106 2815 
Q 3963 2906 3769 2906 
Q 3419 2906 3187 2673 
Q 2956 2441 2956 1928 
L 2956 0 
L 2394 0 
L 2394 2156 
Q 2394 2531 2256 2718 
Q 2119 2906 1806 2906 
Q 1569 2906 1367 2781 
Q 1166 2656 1075 2415 
Q 984 2175 984 1722 
L 984 0 
L 422 0 
z
" transform="scale(0.015625)"/>
       <path id="ArialMT-29" d="M 791 -1347 
L 388 -1347 
Q 1322 153 1322 1656 
Q 1322 2244 1188 2822 
Q 1081 3291 891 3722 
Q 769 4003 388 4659 
L 791 4659 
Q 1378 3875 1659 3084 
Q 1900 2403 1900 1659 
Q 1900 816 1576 28 
Q 1253 -759 791 -1347 
z
" transform="scale(0.015625)"/>
      </defs>
      <use xlink:href="#ArialMT-50"/>
      <use xlink:href="#ArialMT-72" x="66.699219"/>
      <use xlink:href="#ArialMT-65" x="100"/>
      <use xlink:href="#ArialMT-63" x="155.615234"/>
      <use xlink:href="#ArialMT-69" x="205.615234"/>
      <use xlink:href="#ArialMT-70" x="227.832031"/>
      <use xlink:href="#ArialMT-69" x="283.447266"/>
      <use xlink:href="#ArialMT-74" x="305.664062"/>
      <use xlink:href="#ArialMT-61" x="333.447266"/>
      <use xlink:href="#ArialMT-63" x="389.0625"/>
      <use xlink:href="#ArialMT-69" x="439.0625"/>
      <use xlink:href="#ArialMT-f3" x="461.279297"/>
      <use xlink:href="#ArialMT-6e" x="516.894531"/>
      <use xlink:href="#ArialMT-20" x="572.509766"/>
      <use xlink:href="#ArialMT-28" x="600.292969"/>
      <use xlink:href="#ArialMT-6d" x="633.59375"/>
      <use xlink:href="#ArialMT-6d" x="716.894531"/>
      <use xlink:href="#ArialMT-29" x="800.195312"/>
     </g>
    </g>
   </g>
   <g id="line2d_13">
    <path d="M 81.793011 328.09874 
L 82.546146 301.054838 
L 83.274986 339.35625 
L 86.214641 336.315428 
L 86.943482 330.492579 
L 87.696616 228.916199 
L 88.425457 277.828137 
L 89.178591 264.953169 
L 89.931726 225.228394 
L 90.660566 240.238407 
L 91.413701 316.453041 
L 92.142541 339.35625 
L 93.648811 330.621975 
L 94.329062 336.509523 
L 95.082196 318.976276 
L 96.564171 149.725441 
L 97.293011 215.588342 
L 98.046146 229.110294 
L 98.799281 206.401179 
L 99.528121 243.732116 
L 100.281256 310.177303 
L 101.010096 339.35625 
L 101.763231 338.709267 
L 102.516366 339.35625 
L 103.196616 339.35625 
L 103.949751 332.498227 
L 104.678591 275.175505 
L 105.431726 241.985262 
L 106.160566 167.064594 
L 106.913701 116.923387 
L 107.666836 107.412733 
L 108.395676 289.797328 
L 109.148811 324.928522 
L 109.877651 322.922874 
L 110.630786 305.001436 
L 111.38392 335.797842 
L 112.088466 339.35625 
L 112.841601 272.716969 
L 114.323576 187.444568 
L 115.052416 256.865878 
L 115.805551 218.952656 
L 116.558685 234.609652 
L 117.287525 310.953683 
L 118.04066 337.156507 
L 118.7695 339.35625 
L 119.522635 339.35625 
L 120.27577 315.482566 
L 120.956021 339.032758 
L 121.709156 290.767803 
L 122.437996 322.146494 
L 123.19113 242.04996 
L 123.919971 263.206314 
L 124.673105 272.134684 
L 125.42624 199.478458 
L 126.15508 292.191167 
L 126.908215 339.35625 
L 127.637055 339.35625 
L 128.39019 277.892835 
L 129.823576 339.35625 
L 130.57671 333.339305 
L 131.305551 322.405287 
L 132.058685 263.982694 
L 132.787525 254.019151 
L 133.54066 206.142386 
L 134.293795 121.258176 
L 135.022635 249.554966 
L 135.77577 243.408625 
L 136.50461 317.488214 
L 137.257745 331.786545 
L 138.01088 337.4153 
L 138.69113 339.35625 
L 139.444265 288.115172 
L 140.173105 291.544183 
L 140.92624 151.084106 
L 141.65508 249.81376 
L 142.408215 176.639947 
L 143.16135 273.816841 
L 143.89019 261.394761 
L 144.643325 339.35625 
L 145.372165 339.35625 
L 146.1253 336.186032 
L 146.878435 339.35625 
L 147.58298 338.19168 
L 148.336115 331.20426 
L 149.064955 319.170371 
L 149.81809 272.199382 
L 150.54693 191.585262 
L 151.300065 223.546237 
L 152.053199 223.028651 
L 153.535174 328.810422 
L 154.264014 337.997585 
L 155.017149 331.268959 
L 155.770284 339.35625 
L 156.450535 333.468702 
L 157.20367 333.792194 
L 157.93251 319.170371 
L 158.685645 252.401693 
L 159.414485 228.657405 
L 160.16762 287.985775 
L 160.920754 215.717739 
L 161.649594 298.402206 
L 162.402729 304.807341 
L 163.131569 332.304132 
L 163.884704 339.35625 
L 165.31809 339.35625 
L 166.071225 292.44996 
L 166.800065 270.323131 
L 167.553199 240.561898 
L 168.28204 301.184235 
L 169.035174 256.024799 
L 169.788309 243.60272 
L 170.517149 271.228907 
L 171.270284 306.812989 
L 171.999124 332.433529 
L 172.752259 339.35625 
L 173.505394 339.35625 
L 174.185645 333.5334 
L 174.938779 335.797842 
L 175.66762 289.991423 
L 176.420754 221.475891 
L 177.149594 174.698997 
L 177.902729 203.554453 
L 178.655864 269.934941 
L 179.384704 241.402977 
L 180.137839 331.139562 
L 180.866679 339.35625 
L 181.619814 336.897713 
L 182.372949 339.35625 
L 183.077494 332.110037 
L 183.830629 318.652784 
L 184.559469 232.409909 
L 185.312604 192.03815 
L 186.041444 264.629677 
L 186.794579 203.360358 
L 187.547714 195.14367 
L 188.276554 327.969344 
L 189.029688 323.505159 
L 189.758529 339.162155 
L 190.511663 328.48693 
L 191.945049 335.927238 
L 192.698184 318.782181 
L 193.427024 269.158561 
L 194.180159 279.057405 
L 194.908999 251.431218 
L 195.662134 111.553426 
L 196.415268 253.566263 
L 197.144109 267.476404 
L 197.897243 309.595018 
L 198.626083 329.845595 
L 199.379218 337.221205 
L 200.132353 332.951115 
L 203.776554 218.370371 
L 204.529688 215.006057 
L 205.282823 245.608368 
L 206.011663 318.911577 
L 206.764798 337.868188 
L 207.493638 338.709267 
L 208.246773 305.454324 
L 208.999908 339.35625 
L 209.680159 332.75702 
L 210.433293 304.354453 
L 211.162134 305.454324 
L 211.915268 184.791937 
L 212.644109 326.740075 
L 213.397243 226.91055 
L 214.150378 255.183721 
L 214.879218 250.266648 
L 215.632353 336.574222 
L 216.361193 338.385775 
L 217.114328 337.868188 
L 217.867463 331.59245 
L 218.572008 337.997585 
L 219.325143 296.525955 
L 220.053983 294.00272 
L 220.807118 171.981667 
L 221.535958 283.845082 
L 222.289093 294.7791 
L 223.042228 298.725698 
L 223.771068 262.106443 
L 224.524203 335.86254 
L 225.253043 329.133914 
L 226.006178 328.681025 
L 226.759312 339.35625 
L 227.439563 316.841231 
L 228.192698 332.433529 
L 228.921538 300.99014 
L 229.674673 298.725698 
L 230.403513 240.626597 
L 231.156648 36.95625 
L 232.638623 296.073066 
L 233.391757 339.35625 
L 234.120598 314.512091 
L 234.873732 339.35625 
L 235.626867 339.162155 
L 236.307118 339.35625 
L 237.060253 339.162155 
L 237.789093 316.323644 
L 238.542228 182.204004 
L 239.271068 212.871013 
L 240.024203 259.777303 
L 240.777337 201.225313 
L 241.506178 306.230704 
L 242.259312 331.98064 
L 242.988152 339.35625 
L 244.494422 339.35625 
L 245.174673 332.692322 
L 245.927808 330.42788 
L 246.656648 312.959331 
L 247.409783 227.881025 
L 248.138623 277.116455 
L 248.891757 217.270499 
L 249.644892 144.161385 
L 250.373732 260.747778 
L 251.126867 335.733143 
L 251.855707 330.81607 
L 253.361977 339.35625 
L 254.066522 325.38141 
L 254.819657 320.076147 
L 255.548497 268.964466 
L 256.301632 124.751885 
L 257.030472 178.192707 
L 257.783607 274.657919 
L 258.536742 164.864851 
L 259.265582 289.667932 
L 260.018717 323.375762 
L 260.747557 335.08616 
L 261.500692 339.35625 
L 262.253826 334.892065 
L 262.934077 339.35625 
L 263.687212 321.434812 
L 264.416052 286.950602 
L 265.169187 196.049446 
L 265.898027 156.906956 
L 266.651162 239.267932 
L 267.404297 217.982181 
L 268.133137 263.206314 
L 268.886272 338.709267 
L 269.615112 338.062283 
L 270.368246 338.321077 
L 271.121381 339.35625 
L 271.801632 333.274607 
L 272.554767 321.046622 
L 273.283607 303.31928 
L 274.036742 212.288728 
L 274.765582 225.810679 
L 275.518717 311.406571 
L 276.271851 222.511064 
L 277.000692 329.26331 
L 277.753826 337.544697 
L 278.482667 339.35625 
L 279.235801 337.350602 
L 279.988936 339.35625 
L 281.422322 339.35625 
L 282.904297 205.042514 
L 283.633137 169.005544 
L 284.386272 281.257149 
L 285.139406 220.764209 
L 285.868246 269.482052 
L 286.621381 333.274607 
L 287.350221 339.35625 
L 288.103356 339.35625 
L 288.856491 336.186032 
L 289.561036 339.032758 
L 290.314171 324.087444 
L 291.043011 291.997072 
L 291.796146 244.314401 
L 292.524986 159.171398 
L 293.278121 267.088214 
L 294.031256 285.85073 
L 294.760096 233.445082 
L 295.513231 316.841231 
L 296.242071 338.644568 
L 296.995206 330.298484 
L 297.748341 334.503875 
L 298.428591 326.028394 
L 299.181726 334.245082 
L 300.663701 118.864337 
L 301.392541 302.413503 
L 302.898811 188.673837 
L 303.627651 312.506443 
L 304.380786 331.915942 
L 305.109626 335.86254 
L 305.862761 335.215557 
L 306.615895 335.86254 
L 307.296146 311.341873 
L 308.049281 332.110037 
L 308.778121 317.229421 
L 309.531256 147.137508 
L 310.260096 294.132116 
L 311.013231 284.750858 
L 311.766366 139.438407 
L 312.495206 318.458689 
L 313.248341 335.344953 
L 313.977181 339.35625 
L 314.730315 339.35625 
L 315.48345 327.71055 
L 316.163701 339.162155 
L 316.916836 319.170371 
L 317.645676 284.750858 
L 318.398811 300.666648 
L 319.127651 239.073837 
L 319.880786 263.917996 
L 320.63392 220.311321 
L 321.362761 330.104389 
L 322.115895 335.08616 
L 322.844736 334.69797 
L 323.59787 305.324928 
L 324.351005 339.35625 
L 325.055551 339.35625 
L 325.808685 330.751372 
L 326.537525 287.662283 
L 327.29066 270.905416 
L 328.0195 228.204517 
L 328.772635 202.325185 
L 329.52577 248.066905 
L 330.25461 318.005801 
L 331.007745 308.753939 
L 331.736585 339.032758 
L 332.48972 324.734427 
L 333.242855 323.246366 
L 333.923105 315.094376 
L 334.67624 313.347521 
L 335.40508 288.762155 
L 336.158215 103.336738 
L 336.887055 181.233529 
L 337.64019 242.82634 
L 338.393325 282.421719 
L 339.122165 314.123901 
L 339.8753 338.709267 
L 340.60414 338.385775 
L 341.357275 339.35625 
L 342.110409 324.410935 
L 342.79066 335.603747 
L 343.543795 323.828651 
L 344.272635 251.431218 
L 345.02577 283.715685 
L 345.75461 288.050473 
L 346.507745 258.095146 
L 347.26088 310.565493 
L 347.98972 274.59322 
L 348.742855 338.96806 
L 349.471695 339.35625 
L 350.22483 333.468702 
L 350.977964 313.282823 
L 351.658215 328.292835 
L 352.41135 339.35625 
L 353.14019 332.304132 
L 353.893325 242.761642 
L 355.3753 273.687444 
L 356.128435 189.062027 
L 356.857275 306.166006 
L 357.610409 328.551629 
L 358.33925 330.492579 
L 359.092384 321.434812 
L 359.845519 332.562925 
L 360.550065 329.974992 
L 361.303199 339.35625 
L 362.03204 281.19245 
L 362.785174 193.785005 
L 363.514014 239.914915 
L 364.267149 222.446366 
L 365.020284 133.615557 
L 365.749124 309.465621 
L 366.502259 339.35625 
L 367.231099 339.35625 
L 367.984234 339.162155 
L 368.737369 335.280255 
L 369.41762 332.36883 
L 370.899594 286.497713 
L 371.652729 204.719023 
L 372.381569 224.516712 
L 373.134704 278.151629 
L 373.887839 212.676918 
L 374.616679 322.469986 
L 375.369814 328.357534 
L 376.098654 338.385775 
L 376.851789 339.35625 
L 377.604924 331.139562 
L 378.285174 339.35625 
L 379.038309 296.914145 
L 379.767149 283.198099 
L 380.520284 210.865364 
L 381.249124 228.980897 
L 382.002259 294.649703 
L 382.755394 275.822489 
L 384.966209 339.032758 
L 385.719344 339.35625 
L 386.472478 339.35625 
L 387.152729 318.199896 
L 387.905864 318.393991 
L 388.634704 307.524671 
L 389.387839 163.117996 
L 390.116679 241.27358 
L 390.869814 299.178586 
L 391.622949 265.600152 
L 392.351789 338.515172 
L 393.104924 338.838663 
L 393.833764 339.35625 
L 394.586899 339.35625 
L 395.340033 328.681025 
L 396.797714 339.35625 
L 397.526554 314.317996 
L 398.279688 211.382951 
L 399.008529 266.829421 
L 399.761663 188.609138 
L 400.514798 234.027367 
L 401.243638 334.568573 
L 401.996773 339.35625 
L 403.478748 339.35625 
L 404.231883 338.515172 
L 404.912134 336.186032 
L 405.665268 332.951115 
L 406.394109 282.615814 
L 407.147243 238.685647 
L 407.876083 294.649703 
L 408.629218 136.656378 
L 409.382353 273.299254 
L 410.111193 278.345724 
L 410.864328 338.709267 
L 411.593168 336.703618 
L 412.346303 339.032758 
L 413.099438 329.780897 
L 413.779688 337.544697 
L 414.532823 316.776532 
L 416.014798 202.195788 
L 416.743638 187.573965 
L 417.496773 290.961898 
L 418.249908 228.07512 
L 418.978748 274.334427 
L 419.731883 337.544697 
L 420.460723 339.35625 
L 422.647243 339.35625 
L 423.400378 329.974992 
L 424.129218 280.157277 
L 424.882353 172.693349 
L 425.611193 234.027367 
L 426.364328 274.722617 
L 427.117463 217.076404 
L 427.846303 255.766006 
L 428.599438 325.704902 
L 429.328278 339.35625 
L 430.081413 278.798612 
L 430.834547 328.745724 
L 431.539093 333.468702 
L 432.292228 324.087444 
L 433.021068 249.03738 
L 433.774203 280.868959 
L 434.503043 158.783208 
L 435.256178 188.997328 
L 436.009312 232.539305 
L 436.738152 258.353939 
L 437.491287 301.895916 
L 438.220127 337.544697 
L 438.973262 339.35625 
L 439.726397 337.674093 
L 440.406648 337.544697 
L 441.159783 329.328009 
L 441.888623 334.050987 
L 442.641757 184.533143 
L 443.370598 240.044312 
L 444.123732 272.587572 
L 444.876867 179.810165 
L 445.605707 318.458689 
L 446.358842 327.904645 
L 447.087682 339.35625 
L 447.840817 332.239434 
L 448.593952 339.35625 
L 449.274203 339.35625 
L 450.027337 329.586802 
L 451.509312 199.090268 
L 452.238152 262.429934 
L 452.991287 199.02557 
L 453.744422 243.926211 
L 454.473262 259.324414 
L 455.226397 336.509523 
L 455.955237 339.35625 
L 456.708372 320.464337 
L 457.461507 338.385775 
L 458.141757 323.375762 
L 458.894892 327.969344 
L 459.623732 189.062027 
L 460.376867 235.386032 
L 461.105707 233.833272 
L 461.858842 95.702335 
L 462.611977 238.94444 
L 464.822792 308.430448 
L 465.575927 339.35625 
L 467.033607 339.35625 
L 467.786742 321.693606 
L 468.515582 301.831218 
L 469.268717 218.693862 
L 469.997557 253.889754 
L 470.750692 179.939562 
L 471.503826 230.274864 
L 472.232667 297.755223 
L 472.985801 339.35625 
L 473.714641 333.727495 
L 474.467776 339.35625 
L 475.220911 339.162155 
L 475.901162 304.419151 
L 476.654297 297.043541 
L 477.383137 272.652271 
L 478.136272 256.154196 
L 478.865112 255.766006 
L 479.618246 234.350858 
L 480.371381 198.24919 
L 481.853356 332.821719 
L 482.582196 330.169087 
L 483.335331 339.35625 
L 484.088466 338.515172 
L 484.768717 339.35625 
L 485.521851 337.221205 
L 486.250692 332.627624 
L 487.003826 268.576276 
L 487.732667 278.798612 
L 488.485801 207.177559 
L 489.238936 114.400152 
L 489.967776 274.59322 
L 490.720911 321.823002 
L 491.449751 339.35625 
L 492.202886 339.35625 
L 492.956021 338.838663 
L 493.636272 337.997585 
L 494.389406 321.887701 
L 495.118246 279.2515 
L 495.871381 253.048676 
L 496.600221 195.596558 
L 497.353356 201.678201 
L 498.106491 264.694376 
L 498.835331 267.152912 
L 499.588466 337.221205 
L 500.317306 339.35625 
L 501.070441 339.35625 
L 501.823576 337.868188 
L 502.528121 338.709267 
L 503.281256 319.752656 
L 504.010096 257.318766 
L 504.763231 227.428137 
L 505.492071 270.129036 
L 506.245206 275.563695 
L 506.998341 117.376276 
L 507.727181 310.888984 
L 508.480315 336.509523 
L 509.209156 337.868188 
L 509.96229 337.221205 
L 510.715425 338.838663 
L 511.395676 331.139562 
L 512.148811 301.248933 
L 512.877651 293.873323 
L 513.630786 219.534941 
L 514.359626 229.951372 
L 515.112761 267.282309 
L 515.865895 164.476661 
L 516.594736 325.510807 
L 517.34787 337.544697 
L 518.07671 337.221205 
L 518.829845 322.599382 
L 519.58298 328.357534 
L 520.263231 329.845595 
L 521.016366 325.640204 
L 521.745206 309.724414 
L 522.498341 214.035582 
L 523.227181 281.257149 
L 523.980315 302.15471 
L 524.73345 213.776789 
L 525.46229 292.967547 
L 526.944265 339.35625 
L 528.450535 339.35625 
L 529.130786 337.156507 
L 529.88392 334.245082 
L 530.612761 300.666648 
L 531.365895 114.788342 
L 532.094736 309.983208 
L 532.84787 187.76806 
L 533.601005 224.58141 
L 534.329845 219.276147 
L 535.08298 320.464337 
L 535.81182 339.35625 
L 536.564955 322.922874 
L 537.31809 338.709267 
L 538.022635 332.627624 
L 538.77577 313.088728 
L 539.50461 260.424286 
L 540.257745 220.570114 
L 540.986585 224.063824 
L 541.73972 263.853297 
L 542.492855 152.960358 
L 543.221695 293.355737 
L 543.97483 339.032758 
L 544.70367 339.35625 
L 546.209939 339.35625 
L 546.89019 325.122617 
L 547.643325 326.15779 
L 548.372165 284.492065 
L 549.1253 291.997072 
L 549.85414 251.431218 
L 550.607275 244.249703 
L 551.360409 307.524671 
L 552.08925 312.894633 
L 552.842384 329.133914 
L 553.571225 339.35625 
L 554.324359 338.838663 
L 555.077494 339.35625 
L 555.757745 329.328009 
L 558.721695 214.423772 
L 559.47483 231.95702 
L 560.227964 271.940589 
L 560.956804 291.155993 
L 561.709939 324.863824 
L 562.438779 338.838663 
L 563.191914 335.603747 
L 563.945049 317.100024 
L 564.6253 339.35625 
L 565.378435 313.671013 
L 566.107275 238.815043 
L 569.824359 311.212476 
L 570.577494 338.19168 
L 571.306334 339.35625 
L 572.059469 339.35625 
L 572.812604 337.02711 
L 573.517149 336.897713 
L 574.270284 327.128265 
L 574.999124 322.664081 
L 575.752259 160.335968 
L 576.481099 220.376019 
L 577.234234 270.193734 
L 577.987369 216.235326 
L 578.716209 308.430448 
L 579.469344 335.927238 
L 580.198184 339.35625 
L 581.704453 329.780897 
L 582.384704 338.838663 
L 583.137839 335.215557 
L 583.866679 311.147778 
L 584.619814 169.393734 
L 585.348654 276.469472 
L 586.101789 243.99091 
L 586.854924 134.844825 
L 587.583764 262.365236 
L 588.336899 329.328009 
L 589.065739 336.056635 
L 589.065739 336.056635 
" clip-path="url(#p6c0789d93a)" style="fill: none; stroke: #4c72b0; stroke-width: 1.5; stroke-linecap: round"/>
   </g>
   <g id="patch_3">
    <path d="M 56.429375 354.47625 
L 56.429375 21.83625 
" style="fill: none; stroke: #cccccc; stroke-width: 1.25; stroke-linejoin: miter; stroke-linecap: square"/>
   </g>
   <g id="patch_4">
    <path d="M 614.429375 354.47625 
L 614.429375 21.83625 
" style="fill: none; stroke: #cccccc; stroke-width: 1.25; stroke-linejoin: miter; stroke-linecap: square"/>
   </g>
   <g id="patch_5">
    <path d="M 56.429375 354.47625 
L 614.429375 354.47625 
" style="fill: none; stroke: #cccccc; stroke-width: 1.25; stroke-linejoin: miter; stroke-linecap: square"/>
   </g>
   <g id="patch_6">
    <path d="M 56.429375 21.83625 
L 614.429375 21.83625 
" style="fill: none; stroke: #cccccc; stroke-width: 1.25; stroke-linejoin: miter; stroke-linecap: square"/>
   </g>
   <g id="text_15">
    <!-- Precipitación Mensual en el Zócalo de Puebla -->
    <g style="fill: #262626" transform="translate(213.696875 15.83625) scale(0.12 -0.12)">
     <defs>
      <path id="ArialMT-4d" d="M 475 0 
L 475 4581 
L 1388 4581 
L 2472 1338 
Q 2622 884 2691 659 
Q 2769 909 2934 1394 
L 4031 4581 
L 4847 4581 
L 4847 0 
L 4263 0 
L 4263 3834 
L 2931 0 
L 2384 0 
L 1059 3900 
L 1059 0 
L 475 0 
z
" transform="scale(0.015625)"/>
      <path id="ArialMT-73" d="M 197 991 
L 753 1078 
Q 800 744 1014 566 
Q 1228 388 1613 388 
Q 2000 388 2187 545 
Q 2375 703 2375 916 
Q 2375 1106 2209 1216 
Q 2094 1291 1634 1406 
Q 1016 1563 777 1677 
Q 538 1791 414 1992 
Q 291 2194 291 2438 
Q 291 2659 392 2848 
Q 494 3038 669 3163 
Q 800 3259 1026 3326 
Q 1253 3394 1513 3394 
Q 1903 3394 2198 3281 
Q 2494 3169 2634 2976 
Q 2775 2784 2828 2463 
L 2278 2388 
Q 2241 2644 2061 2787 
Q 1881 2931 1553 2931 
Q 1166 2931 1000 2803 
Q 834 2675 834 2503 
Q 834 2394 903 2306 
Q 972 2216 1119 2156 
Q 1203 2125 1616 2013 
Q 2213 1853 2448 1751 
Q 2684 1650 2818 1456 
Q 2953 1263 2953 975 
Q 2953 694 2789 445 
Q 2625 197 2315 61 
Q 2006 -75 1616 -75 
Q 969 -75 630 194 
Q 291 463 197 991 
z
" transform="scale(0.015625)"/>
      <path id="ArialMT-75" d="M 2597 0 
L 2597 488 
Q 2209 -75 1544 -75 
Q 1250 -75 995 37 
Q 741 150 617 320 
Q 494 491 444 738 
Q 409 903 409 1263 
L 409 3319 
L 972 3319 
L 972 1478 
Q 972 1038 1006 884 
Q 1059 663 1231 536 
Q 1403 409 1656 409 
Q 1909 409 2131 539 
Q 2353 669 2445 892 
Q 2538 1116 2538 1541 
L 2538 3319 
L 3100 3319 
L 3100 0 
L 2597 0 
z
" transform="scale(0.015625)"/>
      <path id="ArialMT-6c" d="M 409 0 
L 409 4581 
L 972 4581 
L 972 0 
L 409 0 
z
" transform="scale(0.015625)"/>
      <path id="ArialMT-5a" d="M 128 0 
L 128 563 
L 2475 3497 
Q 2725 3809 2950 4041 
L 394 4041 
L 394 4581 
L 3675 4581 
L 3675 4041 
L 1103 863 
L 825 541 
L 3750 541 
L 3750 0 
L 128 0 
z
" transform="scale(0.015625)"/>
      <path id="ArialMT-6f" d="M 213 1659 
Q 213 2581 725 3025 
Q 1153 3394 1769 3394 
Q 2453 3394 2887 2945 
Q 3322 2497 3322 1706 
Q 3322 1066 3130 698 
Q 2938 331 2570 128 
Q 2203 -75 1769 -75 
Q 1072 -75 642 372 
Q 213 819 213 1659 
z
M 791 1659 
Q 791 1022 1069 705 
Q 1347 388 1769 388 
Q 2188 388 2466 706 
Q 2744 1025 2744 1678 
Q 2744 2294 2464 2611 
Q 2184 2928 1769 2928 
Q 1347 2928 1069 2612 
Q 791 2297 791 1659 
z
" transform="scale(0.015625)"/>
      <path id="ArialMT-64" d="M 2575 0 
L 2575 419 
Q 2259 -75 1647 -75 
Q 1250 -75 917 144 
Q 584 363 401 755 
Q 219 1147 219 1656 
Q 219 2153 384 2558 
Q 550 2963 881 3178 
Q 1213 3394 1622 3394 
Q 1922 3394 2156 3267 
Q 2391 3141 2538 2938 
L 2538 4581 
L 3097 4581 
L 3097 0 
L 2575 0 
z
M 797 1656 
Q 797 1019 1065 703 
Q 1334 388 1700 388 
Q 2069 388 2326 689 
Q 2584 991 2584 1609 
Q 2584 2291 2321 2609 
Q 2059 2928 1675 2928 
Q 1300 2928 1048 2622 
Q 797 2316 797 1656 
z
" transform="scale(0.015625)"/>
      <path id="ArialMT-62" d="M 941 0 
L 419 0 
L 419 4581 
L 981 4581 
L 981 2947 
Q 1338 3394 1891 3394 
Q 2197 3394 2470 3270 
Q 2744 3147 2920 2923 
Q 3097 2700 3197 2384 
Q 3297 2069 3297 1709 
Q 3297 856 2875 390 
Q 2453 -75 1863 -75 
Q 1275 -75 941 416 
L 941 0 
z
M 934 1684 
Q 934 1088 1097 822 
Q 1363 388 1816 388 
Q 2184 388 2453 708 
Q 2722 1028 2722 1663 
Q 2722 2313 2464 2622 
Q 2206 2931 1841 2931 
Q 1472 2931 1203 2611 
Q 934 2291 934 1684 
z
" transform="scale(0.015625)"/>
     </defs>
     <use xlink:href="#ArialMT-50"/>
     <use xlink:href="#ArialMT-72" x="66.699219"/>
     <use xlink:href="#ArialMT-65" x="100"/>
     <use xlink:href="#ArialMT-63" x="155.615234"/>
     <use xlink:href="#ArialMT-69" x="205.615234"/>
     <use xlink:href="#ArialMT-70" x="227.832031"/>
     <use xlink:href="#ArialMT-69" x="283.447266"/>
     <use xlink:href="#ArialMT-74" x="305.664062"/>
     <use xlink:href="#ArialMT-61" x="333.447266"/>
     <use xlink:href="#ArialMT-63" x="389.0625"/>
     <use xlink:href="#ArialMT-69" x="439.0625"/>
     <use xlink:href="#ArialMT-f3" x="461.279297"/>
     <use xlink:href="#ArialMT-6e" x="516.894531"/>
     <use xlink:href="#ArialMT-20" x="572.509766"/>
     <use xlink:href="#ArialMT-4d" x="600.292969"/>
     <use xlink:href="#ArialMT-65" x="683.59375"/>
     <use xlink:href="#ArialMT-6e" x="739.208984"/>
     <use xlink:href="#ArialMT-73" x="794.824219"/>
     <use xlink:href="#ArialMT-75" x="844.824219"/>
     <use xlink:href="#ArialMT-61" x="900.439453"/>
     <use xlink:href="#ArialMT-6c" x="956.054688"/>
     <use xlink:href="#ArialMT-20" x="978.271484"/>
     <use xlink:href="#ArialMT-65" x="1006.054688"/>
     <use xlink:href="#ArialMT-6e" x="1061.669922"/>
     <use xlink:href="#ArialMT-20" x="1117.285156"/>
     <use xlink:href="#ArialMT-65" x="1145.068359"/>
     <use xlink:href="#ArialMT-6c" x="1200.683594"/>
     <use xlink:href="#ArialMT-20" x="1222.900391"/>
     <use xlink:href="#ArialMT-5a" x="1250.683594"/>
     <use xlink:href="#ArialMT-f3" x="1311.767578"/>
     <use xlink:href="#ArialMT-63" x="1367.382812"/>
     <use xlink:href="#ArialMT-61" x="1417.382812"/>
     <use xlink:href="#ArialMT-6c" x="1472.998047"/>
     <use xlink:href="#ArialMT-6f" x="1495.214844"/>
     <use xlink:href="#ArialMT-20" x="1550.830078"/>
     <use xlink:href="#ArialMT-64" x="1578.613281"/>
     <use xlink:href="#ArialMT-65" x="1634.228516"/>
     <use xlink:href="#ArialMT-20" x="1689.84375"/>
     <use xlink:href="#ArialMT-50" x="1717.626953"/>
     <use xlink:href="#ArialMT-75" x="1784.326172"/>
     <use xlink:href="#ArialMT-65" x="1839.941406"/>
     <use xlink:href="#ArialMT-62" x="1895.556641"/>
     <use xlink:href="#ArialMT-6c" x="1951.171875"/>
     <use xlink:href="#ArialMT-61" x="1973.388672"/>
    </g>
   </g>
  </g>
 </g>
 <defs>
  <clipPath id="p6c0789d93a">
   <rect x="56.429375" y="21.83625" width="558" height="332.64"/>
  </clipPath>
 </defs>
</svg>
