<?xml version="1.0" encoding="utf-8" standalone="no"?>
<!DOCTYPE svg PUBLIC "-//W3C//DTD SVG 1.1//EN"
  "http://www.w3.org/Graphics/SVG/1.1/DTD/svg11.dtd">
<svg xmlns:xlink="http://www.w3.org/1999/xlink" width="724.55375pt" height="395.022187pt" viewBox="0 0 724.55375 395.022187" xmlns="http://www.w3.org/2000/svg" version="1.1">
 <metadata>
  <rdf:RDF xmlns:dc="http://purl.org/dc/elements/1.1/" xmlns:cc="http://creativecommons.org/ns#" xmlns:rdf="http://www.w3.org/1999/02/22-rdf-syntax-ns#">
   <cc:Work>
    <dc:type rdf:resource="http://purl.org/dc/dcmitype/StillImage"/>
    <dc:date>2025-05-01T14:47:12.017788</dc:date>
    <dc:format>image/svg+xml</dc:format>
    <dc:creator>
     <cc:Agent>
      <dc:title>Matplotlib v3.8.4, https://matplotlib.org/</dc:title>
     </cc:Agent>
    </dc:creator>
   </cc:Work>
  </rdf:RDF>
 </metadata>
 <defs>
  <style type="text/css">*{stroke-linejoin: round; stroke-linecap: butt}</style>
 </defs>
 <g id="figure_1">
  <g id="patch_1">
   <path d="M -0 395.022187 
L 724.55375 395.022187 
L 724.55375 0 
L -0 0 
z
" style="fill: #ffffff"/>
  </g>
  <g id="axes_1">
   <g id="patch_2">
    <path d="M 47.75375 356.031562 
L 717.35375 356.031562 
L 717.35375 23.391562 
L 47.75375 23.391562 
z
" style="fill: #ffffff"/>
   </g>
   <g id="matplotlib.axis_1">
    <g id="xtick_1">
     <g id="line2d_1">
      <path d="M 48.399123 356.031562 
L 48.399123 23.391562 
" clip-path="url(#p175c2ffa17)" style="fill: none; stroke-dasharray: 1.85,0.8; stroke-dashoffset: 0; stroke: #808080; stroke-width: 0.5"/>
     </g>
     <g id="text_1">
      <!-- 1950 -->
      <g style="fill: #262626" transform="translate(39.501623 371.257812) scale(0.08 -0.08)">
       <defs>
        <path id="ArialMT-31" d="M 2384 0 
L 1822 0 
L 1822 3584 
Q 1619 3391 1289 3197 
Q 959 3003 697 2906 
L 697 3450 
Q 1169 3672 1522 3987 
Q 1875 4303 2022 4600 
L 2384 4600 
L 2384 0 
z
" transform="scale(0.015625)"/>
        <path id="ArialMT-39" d="M 350 1059 
L 891 1109 
Q 959 728 1153 556 
Q 1347 384 1650 384 
Q 1909 384 2104 503 
Q 2300 622 2425 820 
Q 2550 1019 2634 1356 
Q 2719 1694 2719 2044 
Q 2719 2081 2716 2156 
Q 2547 1888 2255 1720 
Q 1963 1553 1622 1553 
Q 1053 1553 659 1965 
Q 266 2378 266 3053 
Q 266 3750 677 4175 
Q 1088 4600 1706 4600 
Q 2153 4600 2523 4359 
Q 2894 4119 3086 3673 
Q 3278 3228 3278 2384 
Q 3278 1506 3087 986 
Q 2897 466 2520 194 
Q 2144 -78 1638 -78 
Q 1100 -78 759 220 
Q 419 519 350 1059 
z
M 2653 3081 
Q 2653 3566 2395 3850 
Q 2138 4134 1775 4134 
Q 1400 4134 1122 3828 
Q 844 3522 844 3034 
Q 844 2597 1108 2323 
Q 1372 2050 1759 2050 
Q 2150 2050 2401 2323 
Q 2653 2597 2653 3081 
z
" transform="scale(0.015625)"/>
        <path id="ArialMT-35" d="M 266 1200 
L 856 1250 
Q 922 819 1161 601 
Q 1400 384 1738 384 
Q 2144 384 2425 690 
Q 2706 997 2706 1503 
Q 2706 1984 2436 2262 
Q 2166 2541 1728 2541 
Q 1456 2541 1237 2417 
Q 1019 2294 894 2097 
L 366 2166 
L 809 4519 
L 3088 4519 
L 3088 3981 
L 1259 3981 
L 1013 2750 
Q 1425 3038 1878 3038 
Q 2478 3038 2890 2622 
Q 3303 2206 3303 1553 
Q 3303 931 2941 478 
Q 2500 -78 1738 -78 
Q 1113 -78 717 272 
Q 322 622 266 1200 
z
" transform="scale(0.015625)"/>
        <path id="ArialMT-30" d="M 266 2259 
Q 266 3072 433 3567 
Q 600 4063 929 4331 
Q 1259 4600 1759 4600 
Q 2128 4600 2406 4451 
Q 2684 4303 2865 4023 
Q 3047 3744 3150 3342 
Q 3253 2941 3253 2259 
Q 3253 1453 3087 958 
Q 2922 463 2592 192 
Q 2263 -78 1759 -78 
Q 1097 -78 719 397 
Q 266 969 266 2259 
z
M 844 2259 
Q 844 1131 1108 757 
Q 1372 384 1759 384 
Q 2147 384 2411 759 
Q 2675 1134 2675 2259 
Q 2675 3391 2411 3762 
Q 2147 4134 1753 4134 
Q 1366 4134 1134 3806 
Q 844 3388 844 2259 
z
" transform="scale(0.015625)"/>
       </defs>
       <use xlink:href="#ArialMT-31"/>
       <use xlink:href="#ArialMT-39" x="55.615234"/>
       <use xlink:href="#ArialMT-35" x="111.230469"/>
       <use xlink:href="#ArialMT-30" x="166.845703"/>
      </g>
     </g>
    </g>
    <g id="xtick_2">
     <g id="line2d_2">
      <path d="M 156.762369 356.031562 
L 156.762369 23.391562 
" clip-path="url(#p175c2ffa17)" style="fill: none; stroke-dasharray: 1.85,0.8; stroke-dashoffset: 0; stroke: #808080; stroke-width: 0.5"/>
     </g>
     <g id="text_2">
      <!-- 1960 -->
      <g style="fill: #262626" transform="translate(147.864869 371.257812) scale(0.08 -0.08)">
       <defs>
        <path id="ArialMT-36" d="M 3184 3459 
L 2625 3416 
Q 2550 3747 2413 3897 
Q 2184 4138 1850 4138 
Q 1581 4138 1378 3988 
Q 1113 3794 959 3422 
Q 806 3050 800 2363 
Q 1003 2672 1297 2822 
Q 1591 2972 1913 2972 
Q 2475 2972 2870 2558 
Q 3266 2144 3266 1488 
Q 3266 1056 3080 686 
Q 2894 316 2569 119 
Q 2244 -78 1831 -78 
Q 1128 -78 684 439 
Q 241 956 241 2144 
Q 241 3472 731 4075 
Q 1159 4600 1884 4600 
Q 2425 4600 2770 4297 
Q 3116 3994 3184 3459 
z
M 888 1484 
Q 888 1194 1011 928 
Q 1134 663 1356 523 
Q 1578 384 1822 384 
Q 2178 384 2434 671 
Q 2691 959 2691 1453 
Q 2691 1928 2437 2201 
Q 2184 2475 1800 2475 
Q 1419 2475 1153 2201 
Q 888 1928 888 1484 
z
" transform="scale(0.015625)"/>
       </defs>
       <use xlink:href="#ArialMT-31"/>
       <use xlink:href="#ArialMT-39" x="55.615234"/>
       <use xlink:href="#ArialMT-36" x="111.230469"/>
       <use xlink:href="#ArialMT-30" x="166.845703"/>
      </g>
     </g>
    </g>
    <g id="xtick_3">
     <g id="line2d_3">
      <path d="M 265.155288 356.031562 
L 265.155288 23.391562 
" clip-path="url(#p175c2ffa17)" style="fill: none; stroke-dasharray: 1.85,0.8; stroke-dashoffset: 0; stroke: #808080; stroke-width: 0.5"/>
     </g>
     <g id="text_3">
      <!-- 1970 -->
      <g style="fill: #262626" transform="translate(256.257788 371.257812) scale(0.08 -0.08)">
       <defs>
        <path id="ArialMT-37" d="M 303 3981 
L 303 4522 
L 3269 4522 
L 3269 4084 
Q 2831 3619 2401 2847 
Q 1972 2075 1738 1259 
Q 1569 684 1522 0 
L 944 0 
Q 953 541 1156 1306 
Q 1359 2072 1739 2783 
Q 2119 3494 2547 3981 
L 303 3981 
z
" transform="scale(0.015625)"/>
       </defs>
       <use xlink:href="#ArialMT-31"/>
       <use xlink:href="#ArialMT-39" x="55.615234"/>
       <use xlink:href="#ArialMT-37" x="111.230469"/>
       <use xlink:href="#ArialMT-30" x="166.845703"/>
      </g>
     </g>
    </g>
    <g id="xtick_4">
     <g id="line2d_4">
      <path d="M 373.518534 356.031562 
L 373.518534 23.391562 
" clip-path="url(#p175c2ffa17)" style="fill: none; stroke-dasharray: 1.85,0.8; stroke-dashoffset: 0; stroke: #808080; stroke-width: 0.5"/>
     </g>
     <g id="text_4">
      <!-- 1980 -->
      <g style="fill: #262626" transform="translate(364.621034 371.257812) scale(0.08 -0.08)">
       <defs>
        <path id="ArialMT-38" d="M 1131 2484 
Q 781 2613 612 2850 
Q 444 3088 444 3419 
Q 444 3919 803 4259 
Q 1163 4600 1759 4600 
Q 2359 4600 2725 4251 
Q 3091 3903 3091 3403 
Q 3091 3084 2923 2848 
Q 2756 2613 2416 2484 
Q 2838 2347 3058 2040 
Q 3278 1734 3278 1309 
Q 3278 722 2862 322 
Q 2447 -78 1769 -78 
Q 1091 -78 675 323 
Q 259 725 259 1325 
Q 259 1772 486 2073 
Q 713 2375 1131 2484 
z
M 1019 3438 
Q 1019 3113 1228 2906 
Q 1438 2700 1772 2700 
Q 2097 2700 2305 2904 
Q 2513 3109 2513 3406 
Q 2513 3716 2298 3927 
Q 2084 4138 1766 4138 
Q 1444 4138 1231 3931 
Q 1019 3725 1019 3438 
z
M 838 1322 
Q 838 1081 952 856 
Q 1066 631 1291 507 
Q 1516 384 1775 384 
Q 2178 384 2440 643 
Q 2703 903 2703 1303 
Q 2703 1709 2433 1975 
Q 2163 2241 1756 2241 
Q 1359 2241 1098 1978 
Q 838 1716 838 1322 
z
" transform="scale(0.015625)"/>
       </defs>
       <use xlink:href="#ArialMT-31"/>
       <use xlink:href="#ArialMT-39" x="55.615234"/>
       <use xlink:href="#ArialMT-38" x="111.230469"/>
       <use xlink:href="#ArialMT-30" x="166.845703"/>
      </g>
     </g>
    </g>
    <g id="xtick_5">
     <g id="line2d_5">
      <path d="M 481.911453 356.031562 
L 481.911453 23.391562 
" clip-path="url(#p175c2ffa17)" style="fill: none; stroke-dasharray: 1.85,0.8; stroke-dashoffset: 0; stroke: #808080; stroke-width: 0.5"/>
     </g>
     <g id="text_5">
      <!-- 1990 -->
      <g style="fill: #262626" transform="translate(473.013953 371.257812) scale(0.08 -0.08)">
       <use xlink:href="#ArialMT-31"/>
       <use xlink:href="#ArialMT-39" x="55.615234"/>
       <use xlink:href="#ArialMT-39" x="111.230469"/>
       <use xlink:href="#ArialMT-30" x="166.845703"/>
      </g>
     </g>
    </g>
    <g id="xtick_6">
     <g id="line2d_6">
      <path d="M 590.274699 356.031562 
L 590.274699 23.391562 
" clip-path="url(#p175c2ffa17)" style="fill: none; stroke-dasharray: 1.85,0.8; stroke-dashoffset: 0; stroke: #808080; stroke-width: 0.5"/>
     </g>
     <g id="text_6">
      <!-- 2000 -->
      <g style="fill: #262626" transform="translate(581.377199 371.257812) scale(0.08 -0.08)">
       <defs>
        <path id="ArialMT-32" d="M 3222 541 
L 3222 0 
L 194 0 
Q 188 203 259 391 
Q 375 700 629 1000 
Q 884 1300 1366 1694 
Q 2113 2306 2375 2664 
Q 2638 3022 2638 3341 
Q 2638 3675 2398 3904 
Q 2159 4134 1775 4134 
Q 1369 4134 1125 3890 
Q 881 3647 878 3216 
L 300 3275 
Q 359 3922 746 4261 
Q 1134 4600 1788 4600 
Q 2447 4600 2831 4234 
Q 3216 3869 3216 3328 
Q 3216 3053 3103 2787 
Q 2991 2522 2730 2228 
Q 2469 1934 1863 1422 
Q 1356 997 1212 845 
Q 1069 694 975 541 
L 3222 541 
z
" transform="scale(0.015625)"/>
       </defs>
       <use xlink:href="#ArialMT-32"/>
       <use xlink:href="#ArialMT-30" x="55.615234"/>
       <use xlink:href="#ArialMT-30" x="111.230469"/>
       <use xlink:href="#ArialMT-30" x="166.845703"/>
      </g>
     </g>
    </g>
    <g id="xtick_7">
     <g id="line2d_7">
      <path d="M 698.667618 356.031562 
L 698.667618 23.391562 
" clip-path="url(#p175c2ffa17)" style="fill: none; stroke-dasharray: 1.85,0.8; stroke-dashoffset: 0; stroke: #808080; stroke-width: 0.5"/>
     </g>
     <g id="text_7">
      <!-- 2010 -->
      <g style="fill: #262626" transform="translate(689.770118 371.257812) scale(0.08 -0.08)">
       <use xlink:href="#ArialMT-32"/>
       <use xlink:href="#ArialMT-30" x="55.615234"/>
       <use xlink:href="#ArialMT-31" x="111.230469"/>
       <use xlink:href="#ArialMT-30" x="166.845703"/>
      </g>
     </g>
    </g>
    <g id="text_8">
     <!-- Fecha -->
     <g style="fill: #262626" transform="translate(365.879375 385.437187) scale(0.12 -0.12)">
      <defs>
       <path id="ArialMT-46" d="M 525 0 
L 525 4581 
L 3616 4581 
L 3616 4041 
L 1131 4041 
L 1131 2622 
L 3281 2622 
L 3281 2081 
L 1131 2081 
L 1131 0 
L 525 0 
z
" transform="scale(0.015625)"/>
       <path id="ArialMT-65" d="M 2694 1069 
L 3275 997 
Q 3138 488 2766 206 
Q 2394 -75 1816 -75 
Q 1088 -75 661 373 
Q 234 822 234 1631 
Q 234 2469 665 2931 
Q 1097 3394 1784 3394 
Q 2450 3394 2872 2941 
Q 3294 2488 3294 1666 
Q 3294 1616 3291 1516 
L 816 1516 
Q 847 969 1125 678 
Q 1403 388 1819 388 
Q 2128 388 2347 550 
Q 2566 713 2694 1069 
z
M 847 1978 
L 2700 1978 
Q 2663 2397 2488 2606 
Q 2219 2931 1791 2931 
Q 1403 2931 1139 2672 
Q 875 2413 847 1978 
z
" transform="scale(0.015625)"/>
       <path id="ArialMT-63" d="M 2588 1216 
L 3141 1144 
Q 3050 572 2676 248 
Q 2303 -75 1759 -75 
Q 1078 -75 664 370 
Q 250 816 250 1647 
Q 250 2184 428 2587 
Q 606 2991 970 3192 
Q 1334 3394 1763 3394 
Q 2303 3394 2647 3120 
Q 2991 2847 3088 2344 
L 2541 2259 
Q 2463 2594 2264 2762 
Q 2066 2931 1784 2931 
Q 1359 2931 1093 2626 
Q 828 2322 828 1663 
Q 828 994 1084 691 
Q 1341 388 1753 388 
Q 2084 388 2306 591 
Q 2528 794 2588 1216 
z
" transform="scale(0.015625)"/>
       <path id="ArialMT-68" d="M 422 0 
L 422 4581 
L 984 4581 
L 984 2938 
Q 1378 3394 1978 3394 
Q 2347 3394 2619 3248 
Q 2891 3103 3008 2847 
Q 3125 2591 3125 2103 
L 3125 0 
L 2563 0 
L 2563 2103 
Q 2563 2525 2380 2717 
Q 2197 2909 1863 2909 
Q 1613 2909 1392 2779 
Q 1172 2650 1078 2428 
Q 984 2206 984 1816 
L 984 0 
L 422 0 
z
" transform="scale(0.015625)"/>
       <path id="ArialMT-61" d="M 2588 409 
Q 2275 144 1986 34 
Q 1697 -75 1366 -75 
Q 819 -75 525 192 
Q 231 459 231 875 
Q 231 1119 342 1320 
Q 453 1522 633 1644 
Q 813 1766 1038 1828 
Q 1203 1872 1538 1913 
Q 2219 1994 2541 2106 
Q 2544 2222 2544 2253 
Q 2544 2597 2384 2738 
Q 2169 2928 1744 2928 
Q 1347 2928 1158 2789 
Q 969 2650 878 2297 
L 328 2372 
Q 403 2725 575 2942 
Q 747 3159 1072 3276 
Q 1397 3394 1825 3394 
Q 2250 3394 2515 3294 
Q 2781 3194 2906 3042 
Q 3031 2891 3081 2659 
Q 3109 2516 3109 2141 
L 3109 1391 
Q 3109 606 3145 398 
Q 3181 191 3288 0 
L 2700 0 
Q 2613 175 2588 409 
z
M 2541 1666 
Q 2234 1541 1622 1453 
Q 1275 1403 1131 1340 
Q 988 1278 909 1158 
Q 831 1038 831 891 
Q 831 666 1001 516 
Q 1172 366 1500 366 
Q 1825 366 2078 508 
Q 2331 650 2450 897 
Q 2541 1088 2541 1459 
L 2541 1666 
z
" transform="scale(0.015625)"/>
      </defs>
      <use xlink:href="#ArialMT-46"/>
      <use xlink:href="#ArialMT-65" x="61.083984"/>
      <use xlink:href="#ArialMT-63" x="116.699219"/>
      <use xlink:href="#ArialMT-68" x="166.699219"/>
      <use xlink:href="#ArialMT-61" x="222.314453"/>
     </g>
    </g>
   </g>
   <g id="matplotlib.axis_2">
    <g id="ytick_1">
     <g id="line2d_8">
      <path d="M 47.75375 329.845417 
L 717.35375 329.845417 
" clip-path="url(#p175c2ffa17)" style="fill: none; stroke-dasharray: 1.85,0.8; stroke-dashoffset: 0; stroke: #808080; stroke-width: 0.5"/>
     </g>
     <g id="text_9">
      <!-- −1.5 -->
      <g style="fill: #262626" transform="translate(22.46125 332.708542) scale(0.08 -0.08)">
       <defs>
        <path id="ArialMT-2212" d="M 3381 1997 
L 356 1997 
L 356 2522 
L 3381 2522 
L 3381 1997 
z
" transform="scale(0.015625)"/>
        <path id="ArialMT-2e" d="M 581 0 
L 581 641 
L 1222 641 
L 1222 0 
L 581 0 
z
" transform="scale(0.015625)"/>
       </defs>
       <use xlink:href="#ArialMT-2212"/>
       <use xlink:href="#ArialMT-31" x="58.398438"/>
       <use xlink:href="#ArialMT-2e" x="114.013672"/>
       <use xlink:href="#ArialMT-35" x="141.796875"/>
      </g>
     </g>
    </g>
    <g id="ytick_2">
     <g id="line2d_9">
      <path d="M 47.75375 287.344868 
L 717.35375 287.344868 
" clip-path="url(#p175c2ffa17)" style="fill: none; stroke-dasharray: 1.85,0.8; stroke-dashoffset: 0; stroke: #808080; stroke-width: 0.5"/>
     </g>
     <g id="text_10">
      <!-- −1.0 -->
      <g style="fill: #262626" transform="translate(22.46125 290.207993) scale(0.08 -0.08)">
       <use xlink:href="#ArialMT-2212"/>
       <use xlink:href="#ArialMT-31" x="58.398438"/>
       <use xlink:href="#ArialMT-2e" x="114.013672"/>
       <use xlink:href="#ArialMT-30" x="141.796875"/>
      </g>
     </g>
    </g>
    <g id="ytick_3">
     <g id="line2d_10">
      <path d="M 47.75375 244.84432 
L 717.35375 244.84432 
" clip-path="url(#p175c2ffa17)" style="fill: none; stroke-dasharray: 1.85,0.8; stroke-dashoffset: 0; stroke: #808080; stroke-width: 0.5"/>
     </g>
     <g id="text_11">
      <!-- −0.5 -->
      <g style="fill: #262626" transform="translate(22.46125 247.707445) scale(0.08 -0.08)">
       <use xlink:href="#ArialMT-2212"/>
       <use xlink:href="#ArialMT-30" x="58.398438"/>
       <use xlink:href="#ArialMT-2e" x="114.013672"/>
       <use xlink:href="#ArialMT-35" x="141.796875"/>
      </g>
     </g>
    </g>
    <g id="ytick_4">
     <g id="line2d_11">
      <path d="M 47.75375 202.343771 
L 717.35375 202.343771 
" clip-path="url(#p175c2ffa17)" style="fill: none; stroke-dasharray: 1.85,0.8; stroke-dashoffset: 0; stroke: #808080; stroke-width: 0.5"/>
     </g>
     <g id="text_12">
      <!-- 0.0 -->
      <g style="fill: #262626" transform="translate(27.13375 205.206896) scale(0.08 -0.08)">
       <use xlink:href="#ArialMT-30"/>
       <use xlink:href="#ArialMT-2e" x="55.615234"/>
       <use xlink:href="#ArialMT-30" x="83.398438"/>
      </g>
     </g>
    </g>
    <g id="ytick_5">
     <g id="line2d_12">
      <path d="M 47.75375 159.843222 
L 717.35375 159.843222 
" clip-path="url(#p175c2ffa17)" style="fill: none; stroke-dasharray: 1.85,0.8; stroke-dashoffset: 0; stroke: #808080; stroke-width: 0.5"/>
     </g>
     <g id="text_13">
      <!-- 0.5 -->
      <g style="fill: #262626" transform="translate(27.13375 162.706347) scale(0.08 -0.08)">
       <use xlink:href="#ArialMT-30"/>
       <use xlink:href="#ArialMT-2e" x="55.615234"/>
       <use xlink:href="#ArialMT-35" x="83.398438"/>
      </g>
     </g>
    </g>
    <g id="ytick_6">
     <g id="line2d_13">
      <path d="M 47.75375 117.342673 
L 717.35375 117.342673 
" clip-path="url(#p175c2ffa17)" style="fill: none; stroke-dasharray: 1.85,0.8; stroke-dashoffset: 0; stroke: #808080; stroke-width: 0.5"/>
     </g>
     <g id="text_14">
      <!-- 1.0 -->
      <g style="fill: #262626" transform="translate(27.13375 120.205798) scale(0.08 -0.08)">
       <use xlink:href="#ArialMT-31"/>
       <use xlink:href="#ArialMT-2e" x="55.615234"/>
       <use xlink:href="#ArialMT-30" x="83.398438"/>
      </g>
     </g>
    </g>
    <g id="ytick_7">
     <g id="line2d_14">
      <path d="M 47.75375 74.842125 
L 717.35375 74.842125 
" clip-path="url(#p175c2ffa17)" style="fill: none; stroke-dasharray: 1.85,0.8; stroke-dashoffset: 0; stroke: #808080; stroke-width: 0.5"/>
     </g>
     <g id="text_15">
      <!-- 1.5 -->
      <g style="fill: #262626" transform="translate(27.13375 77.70525) scale(0.08 -0.08)">
       <use xlink:href="#ArialMT-31"/>
       <use xlink:href="#ArialMT-2e" x="55.615234"/>
       <use xlink:href="#ArialMT-35" x="83.398438"/>
      </g>
     </g>
    </g>
    <g id="ytick_8">
     <g id="line2d_15">
      <path d="M 47.75375 32.341576 
L 717.35375 32.341576 
" clip-path="url(#p175c2ffa17)" style="fill: none; stroke-dasharray: 1.85,0.8; stroke-dashoffset: 0; stroke: #808080; stroke-width: 0.5"/>
     </g>
     <g id="text_16">
      <!-- 2.0 -->
      <g style="fill: #262626" transform="translate(27.13375 35.204701) scale(0.08 -0.08)">
       <use xlink:href="#ArialMT-32"/>
       <use xlink:href="#ArialMT-2e" x="55.615234"/>
       <use xlink:href="#ArialMT-30" x="83.398438"/>
      </g>
     </g>
    </g>
    <g id="text_17">
     <!-- Precipitación (mm) -->
     <g style="fill: #262626" transform="translate(15.935625 239.71875) rotate(-90) scale(0.12 -0.12)">
      <defs>
       <path id="ArialMT-50" d="M 494 0 
L 494 4581 
L 2222 4581 
Q 2678 4581 2919 4538 
Q 3256 4481 3484 4323 
Q 3713 4166 3852 3881 
Q 3991 3597 3991 3256 
Q 3991 2672 3619 2267 
Q 3247 1863 2275 1863 
L 1100 1863 
L 1100 0 
L 494 0 
z
M 1100 2403 
L 2284 2403 
Q 2872 2403 3119 2622 
Q 3366 2841 3366 3238 
Q 3366 3525 3220 3729 
Q 3075 3934 2838 4000 
Q 2684 4041 2272 4041 
L 1100 4041 
L 1100 2403 
z
" transform="scale(0.015625)"/>
       <path id="ArialMT-72" d="M 416 0 
L 416 3319 
L 922 3319 
L 922 2816 
Q 1116 3169 1280 3281 
Q 1444 3394 1641 3394 
Q 1925 3394 2219 3213 
L 2025 2691 
Q 1819 2813 1613 2813 
Q 1428 2813 1281 2702 
Q 1134 2591 1072 2394 
Q 978 2094 978 1738 
L 978 0 
L 416 0 
z
" transform="scale(0.015625)"/>
       <path id="ArialMT-69" d="M 425 3934 
L 425 4581 
L 988 4581 
L 988 3934 
L 425 3934 
z
M 425 0 
L 425 3319 
L 988 3319 
L 988 0 
L 425 0 
z
" transform="scale(0.015625)"/>
       <path id="ArialMT-70" d="M 422 -1272 
L 422 3319 
L 934 3319 
L 934 2888 
Q 1116 3141 1344 3267 
Q 1572 3394 1897 3394 
Q 2322 3394 2647 3175 
Q 2972 2956 3137 2557 
Q 3303 2159 3303 1684 
Q 3303 1175 3120 767 
Q 2938 359 2589 142 
Q 2241 -75 1856 -75 
Q 1575 -75 1351 44 
Q 1128 163 984 344 
L 984 -1272 
L 422 -1272 
z
M 931 1641 
Q 931 1000 1190 694 
Q 1450 388 1819 388 
Q 2194 388 2461 705 
Q 2728 1022 2728 1688 
Q 2728 2322 2467 2637 
Q 2206 2953 1844 2953 
Q 1484 2953 1207 2617 
Q 931 2281 931 1641 
z
" transform="scale(0.015625)"/>
       <path id="ArialMT-74" d="M 1650 503 
L 1731 6 
Q 1494 -44 1306 -44 
Q 1000 -44 831 53 
Q 663 150 594 308 
Q 525 466 525 972 
L 525 2881 
L 113 2881 
L 113 3319 
L 525 3319 
L 525 4141 
L 1084 4478 
L 1084 3319 
L 1650 3319 
L 1650 2881 
L 1084 2881 
L 1084 941 
Q 1084 700 1114 631 
Q 1144 563 1211 522 
Q 1278 481 1403 481 
Q 1497 481 1650 503 
z
" transform="scale(0.015625)"/>
       <path id="ArialMT-f3" d="M 213 1659 
Q 213 2581 725 3025 
Q 1153 3394 1769 3394 
Q 2453 3394 2887 2945 
Q 3322 2497 3322 1706 
Q 3322 1066 3130 698 
Q 2938 331 2570 128 
Q 2203 -75 1769 -75 
Q 1072 -75 642 372 
Q 213 819 213 1659 
z
M 791 1659 
Q 791 1022 1069 705 
Q 1347 388 1769 388 
Q 2188 388 2466 706 
Q 2744 1025 2744 1678 
Q 2744 2294 2464 2611 
Q 2184 2928 1769 2928 
Q 1347 2928 1069 2612 
Q 791 2297 791 1659 
z
M 1454 3731 
L 1869 4606 
L 2607 4606 
L 1919 3731 
L 1454 3731 
z
" transform="scale(0.015625)"/>
       <path id="ArialMT-6e" d="M 422 0 
L 422 3319 
L 928 3319 
L 928 2847 
Q 1294 3394 1984 3394 
Q 2284 3394 2536 3286 
Q 2788 3178 2913 3003 
Q 3038 2828 3088 2588 
Q 3119 2431 3119 2041 
L 3119 0 
L 2556 0 
L 2556 2019 
Q 2556 2363 2490 2533 
Q 2425 2703 2258 2804 
Q 2091 2906 1866 2906 
Q 1506 2906 1245 2678 
Q 984 2450 984 1813 
L 984 0 
L 422 0 
z
" transform="scale(0.015625)"/>
       <path id="ArialMT-20" transform="scale(0.015625)"/>
       <path id="ArialMT-28" d="M 1497 -1347 
Q 1031 -759 709 28 
Q 388 816 388 1659 
Q 388 2403 628 3084 
Q 909 3875 1497 4659 
L 1900 4659 
Q 1522 4009 1400 3731 
Q 1209 3300 1100 2831 
Q 966 2247 966 1656 
Q 966 153 1900 -1347 
L 1497 -1347 
z
" transform="scale(0.015625)"/>
       <path id="ArialMT-6d" d="M 422 0 
L 422 3319 
L 925 3319 
L 925 2853 
Q 1081 3097 1340 3245 
Q 1600 3394 1931 3394 
Q 2300 3394 2536 3241 
Q 2772 3088 2869 2813 
Q 3263 3394 3894 3394 
Q 4388 3394 4653 3120 
Q 4919 2847 4919 2278 
L 4919 0 
L 4359 0 
L 4359 2091 
Q 4359 2428 4304 2576 
Q 4250 2725 4106 2815 
Q 3963 2906 3769 2906 
Q 3419 2906 3187 2673 
Q 2956 2441 2956 1928 
L 2956 0 
L 2394 0 
L 2394 2156 
Q 2394 2531 2256 2718 
Q 2119 2906 1806 2906 
Q 1569 2906 1367 2781 
Q 1166 2656 1075 2415 
Q 984 2175 984 1722 
L 984 0 
L 422 0 
z
" transform="scale(0.015625)"/>
       <path id="ArialMT-29" d="M 791 -1347 
L 388 -1347 
Q 1322 153 1322 1656 
Q 1322 2244 1188 2822 
Q 1081 3291 891 3722 
Q 769 4003 388 4659 
L 791 4659 
Q 1378 3875 1659 3084 
Q 1900 2403 1900 1659 
Q 1900 816 1576 28 
Q 1253 -759 791 -1347 
z
" transform="scale(0.015625)"/>
      </defs>
      <use xlink:href="#ArialMT-50"/>
      <use xlink:href="#ArialMT-72" x="66.699219"/>
      <use xlink:href="#ArialMT-65" x="100"/>
      <use xlink:href="#ArialMT-63" x="155.615234"/>
      <use xlink:href="#ArialMT-69" x="205.615234"/>
      <use xlink:href="#ArialMT-70" x="227.832031"/>
      <use xlink:href="#ArialMT-69" x="283.447266"/>
      <use xlink:href="#ArialMT-74" x="305.664062"/>
      <use xlink:href="#ArialMT-61" x="333.447266"/>
      <use xlink:href="#ArialMT-63" x="389.0625"/>
      <use xlink:href="#ArialMT-69" x="439.0625"/>
      <use xlink:href="#ArialMT-f3" x="461.279297"/>
      <use xlink:href="#ArialMT-6e" x="516.894531"/>
      <use xlink:href="#ArialMT-20" x="572.509766"/>
      <use xlink:href="#ArialMT-28" x="600.292969"/>
      <use xlink:href="#ArialMT-6d" x="633.59375"/>
      <use xlink:href="#ArialMT-6d" x="716.894531"/>
      <use xlink:href="#ArialMT-29" x="800.195312"/>
     </g>
    </g>
   </g>
   <g id="line2d_16">
    <path d="M 78.190114 228.034461 
L 79.109955 174.188534 
L 80.000124 340.911562 
L 83.590473 270.343775 
L 84.480642 236.81239 
L 85.400483 112.9966 
L 86.290652 148.70464 
L 87.210493 137.649565 
L 88.130335 110.839694 
L 89.020504 119.980798 
L 89.940345 198.746957 
L 90.830514 340.911562 
L 92.670197 237.335835 
L 93.501021 272.131943 
L 94.420863 203.911415 
L 95.311032 115.682205 
L 96.230873 75.251507 
L 97.121042 105.441864 
L 98.040884 113.111631 
L 98.960725 100.587747 
L 99.850894 122.258276 
L 100.770735 187.55827 
L 101.660904 340.911562 
L 102.580746 305.029594 
L 103.500587 340.911562 
L 104.331412 340.911562 
L 106.141422 146.291997 
L 107.061263 121.111763 
L 107.951432 82.306955 
L 108.871274 63.148429 
L 109.791115 59.895206 
L 110.681284 160.694599 
L 111.601126 218.369262 
L 112.491295 213.061941 
L 113.411136 179.637859 
L 115.191474 340.911562 
L 116.111315 144.122711 
L 117.001484 112.119769 
L 117.921326 91.327778 
L 118.811495 131.432076 
L 119.731336 107.288106 
L 120.651178 116.436811 
L 121.541347 188.836698 
L 122.461188 278.838659 
L 123.351357 340.911562 
L 124.271198 340.911562 
L 125.19104 196.875559 
L 126.021864 316.118387 
L 126.941706 161.760025 
L 127.831875 211.139257 
L 128.751716 121.153946 
L 129.641885 136.264547 
L 130.561726 143.617874 
L 131.481568 97.096137 
L 132.371737 163.352316 
L 133.291578 340.911562 
L 134.181747 340.911562 
L 135.101589 148.764466 
L 136.852254 340.911562 
L 137.772096 249.990762 
L 138.662265 211.772705 
L 139.582106 136.877094 
L 140.472275 129.353982 
L 141.392117 100.454759 
L 142.311958 64.666421 
L 143.202127 126.198936 
L 144.121968 122.044763 
L 145.012137 200.810707 
L 146.85182 281.936229 
L 147.682645 340.911562 
L 148.602486 158.884865 
L 149.492655 162.624081 
L 150.412496 75.786198 
L 151.302665 126.378539 
L 152.222507 86.437952 
L 153.142348 145.085522 
L 154.032517 134.853536 
L 154.952359 340.911562 
L 155.842528 340.911562 
L 156.762369 269.198428 
L 157.68221 340.911562 
L 159.462548 239.766601 
L 160.352717 204.328412 
L 161.272559 143.673802 
L 162.162728 93.272015 
L 163.082569 109.873425 
L 164.002411 109.578262 
L 164.89258 146.815012 
L 165.812421 230.483132 
L 166.70259 290.219975 
L 167.622431 240.044706 
L 168.542273 340.911562 
L 169.373097 250.69382 
L 170.292939 252.503836 
L 171.183108 204.328412 
L 172.102949 128.19665 
L 172.993118 112.843465 
L 173.912959 158.747536 
L 174.832801 105.512163 
L 175.72297 170.761514 
L 176.642811 179.359019 
L 177.53298 244.741247 
L 178.452822 340.911562 
L 180.203487 340.911562 
L 181.123329 163.645737 
L 182.933339 120.189085 
L 183.823508 174.360267 
L 184.74335 130.812487 
L 185.663191 122.172805 
L 186.55336 142.839144 
L 187.473201 182.299885 
L 188.36337 245.364246 
L 189.283212 340.911562 
L 190.203053 340.911562 
L 191.033878 251.049722 
L 191.953719 265.959675 
L 192.843888 160.906407 
L 193.763729 108.698727 
L 194.653898 85.585913 
L 195.57374 99.135573 
L 196.493581 141.740224 
L 197.38375 120.733071 
L 199.193761 340.911562 
L 200.113602 276.000019 
L 201.033443 340.911562 
L 201.89394 243.822727 
L 202.813781 203.223072 
L 203.703951 115.091155 
L 204.623792 93.487172 
L 205.513961 137.391227 
L 206.433802 99.037408 
L 207.353644 94.976258 
L 208.243813 227.601924 
L 209.163654 214.549688 
L 210.053823 322.689966 
L 210.973664 229.35507 
L 211.893506 244.432977 
L 212.72433 267.008558 
L 214.534341 141.088331 
L 215.454182 149.849605 
L 216.344351 127.510094 
L 217.264192 61.298851 
L 218.184034 129.028258 
L 219.074203 139.694498 
L 221.804055 279.586697 
L 226.284572 121.661816 
L 227.174741 106.965779 
L 228.094583 105.126211 
L 229.014424 123.507608 
L 230.824434 288.181943 
L 231.714603 305.029594 
L 232.634445 180.293172 
L 233.554286 340.911562 
L 234.385111 246.961107 
L 235.304952 178.712993 
L 236.195121 180.293172 
L 237.114962 90.103354 
L 238.005131 223.667946 
L 238.924973 111.816864 
L 239.844814 130.197639 
L 240.734983 126.693796 
L 241.654825 272.748166 
L 242.544994 297.3285 
L 243.464835 288.181943 
L 244.384676 241.461003 
L 245.245173 290.219975 
L 246.165014 168.438124 
L 247.055184 165.432604 
L 247.975025 84.40581 
L 248.865194 154.485772 
L 249.785035 166.343537 
L 250.704877 171.17024 
L 251.595046 135.404856 
L 252.514887 266.480486 
L 253.405056 231.637697 
L 254.324897 230.028806 
L 255.244739 340.911562 
L 256.075563 199.512399 
L 256.995405 245.364246 
L 257.885574 174.102833 
L 258.805415 171.17024 
L 259.695584 120.230804 
L 260.615425 38.511562 
L 261.535267 87.297762 
L 262.425436 167.888935 
L 263.345277 340.911562 
L 264.235446 195.061073 
L 265.155288 340.911562 
L 266.075129 322.689966 
L 266.905953 340.911562 
L 267.825795 322.689966 
L 268.715964 198.493999 
L 269.635805 88.924113 
L 270.525974 103.978355 
L 271.445816 133.614632 
L 272.365657 97.964567 
L 273.255826 181.432214 
L 274.175667 243.220648 
L 275.065836 340.911562 
L 276.905519 340.911562 
L 277.736344 246.637085 
L 278.656185 236.552831 
L 279.546354 192.26681 
L 280.466195 112.385687 
L 281.356364 148.049698 
L 282.276206 106.360145 
L 283.196047 73.091775 
L 284.086216 134.355649 
L 285.006058 265.445899 
L 285.896227 238.132105 
L 286.816068 262.975327 
L 287.735909 340.911562 
L 288.596406 219.644421 
L 289.516248 206.315645 
L 291.326258 65.906683 
L 292.216427 87.125171 
L 293.136268 145.830117 
L 294.05611 81.382733 
L 294.946279 160.553744 
L 296.756289 260.652125 
L 297.676131 340.911562 
L 298.595972 259.320936 
L 299.426796 340.911562 
L 300.346638 209.433772 
L 301.236807 157.658272 
L 302.156648 95.415169 
L 303.046817 78.111568 
L 303.966659 119.359024 
L 304.8865 106.751549 
L 305.776669 136.264547 
L 306.69651 305.029594 
L 307.586679 291.292368 
L 308.506521 296.016515 
L 309.426362 340.911562 
L 310.257187 249.643497 
L 311.177028 208.525074 
L 312.067197 177.259879 
L 312.987038 103.667865 
L 313.877207 111.176697 
L 314.797049 189.594755 
L 315.71689 109.284096 
L 316.607059 232.107272 
L 317.5269 283.600647 
L 318.41707 340.911562 
L 319.336911 281.134526 
L 320.256752 340.911562 
L 322.007418 340.911562 
L 322.897587 143.729772 
L 323.817428 99.891742 
L 324.707598 83.129934 
L 325.627439 151.943588 
L 326.54728 108.298551 
L 327.437449 141.359283 
L 328.357291 249.643497 
L 329.24746 340.911562 
L 330.167301 340.911562 
L 331.087142 269.198428 
L 331.947639 316.118387 
L 332.867481 216.07948 
L 333.75765 163.133052 
L 335.56766 79.031147 
L 336.487501 139.376374 
L 337.407343 156.518714 
L 338.297512 115.721755 
L 339.217353 199.512399 
L 340.107522 303.302098 
L 341.027364 236.03795 
L 341.947205 256.783791 
L 342.778029 221.521562 
L 343.697871 255.175947 
L 344.58804 110.503997 
L 345.507881 63.825317 
L 346.39805 176.014208 
L 347.317892 122.988356 
L 348.237733 91.900719 
L 349.127902 191.475392 
L 350.047743 242.922594 
L 350.937912 266.480486 
L 351.857754 261.565019 
L 352.777595 266.480486 
L 353.60842 189.485893 
L 354.528261 243.822727 
L 355.41843 200.287929 
L 356.338271 74.241063 
L 357.22844 165.583599 
L 358.148282 155.396837 
L 359.068123 71.294991 
L 359.958292 202.813977 
L 360.878133 262.49956 
L 361.768303 340.911562 
L 362.688144 340.911562 
L 363.607985 226.747895 
L 364.43881 322.689966 
L 365.358651 204.328412 
L 366.24882 155.396837 
L 367.168661 173.675969 
L 368.058831 119.235221 
L 368.978672 136.825865 
L 369.898513 108.044844 
L 370.788682 235.275957 
L 371.708524 260.652125 
L 372.598693 258.032507 
L 373.518534 180.105264 
L 374.438375 340.911562 
L 375.298872 340.911562 
L 376.218714 237.865176 
L 377.108883 158.405362 
L 378.028724 142.562935 
L 378.918893 112.576132 
L 379.838734 98.515654 
L 380.758576 125.173797 
L 381.648745 201.870519 
L 382.568586 185.280114 
L 383.458755 316.118387 
L 384.378597 217.832042 
L 385.298438 213.883436 
L 386.129262 196.14316 
L 387.049104 192.95342 
L 387.939273 159.575492 
L 388.859114 58.532003 
L 391.588966 153.076683 
L 392.479135 194.350337 
L 393.398976 305.029594 
L 394.289145 297.3285 
L 395.208987 340.911562 
L 396.128828 216.948569 
L 396.959653 264.438598 
L 397.879494 215.394206 
L 398.769663 127.510094 
L 399.689504 154.356545 
L 400.579673 158.816168 
L 401.499515 132.346333 
L 402.419356 188.194209 
L 403.309525 145.77258 
L 404.229367 313.448465 
L 405.119536 340.911562 
L 406.039377 250.69382 
L 406.959218 192.838447 
L 407.790043 228.69038 
L 408.709884 340.911562 
L 409.600053 244.741247 
L 410.519895 121.619375 
L 412.329905 144.971615 
L 413.249746 92.082387 
L 414.139915 181.336524 
L 415.059757 229.578629 
L 415.949926 236.81239 
L 416.869767 209.433772 
L 417.789608 245.996093 
L 418.650105 234.774653 
L 419.569947 340.911562 
L 420.460116 151.881147 
L 421.379957 94.321809 
L 422.270126 119.773027 
L 423.189967 109.247395 
L 424.109809 69.123723 
L 424.999978 186.408887 
L 425.919819 340.911562 
L 426.809988 340.911562 
L 427.72983 322.689966 
L 428.649671 262.029509 
L 429.480495 245.051658 
L 430.400337 185.893305 
L 431.290506 157.18686 
L 432.210347 99.726817 
L 433.100516 110.429574 
L 434.020358 149.004247 
L 434.940199 103.874737 
L 435.830368 211.932212 
L 436.750209 228.910955 
L 437.640378 297.3285 
L 438.56022 340.911562 
L 439.480061 239.490159 
L 440.310886 340.911562 
L 441.230727 168.912383 
L 442.120896 153.841911 
L 443.040737 102.913422 
L 443.930906 113.034927 
L 444.850748 166.190882 
L 445.770589 146.873349 
L 446.660758 168.912383 
L 448.470769 316.118387 
L 449.39061 340.911562 
L 450.310451 340.911562 
L 451.141276 202.27298 
L 452.061117 202.678253 
L 452.951286 183.376544 
L 453.871128 80.655089 
L 454.761297 120.64915 
L 455.681138 171.746634 
L 456.600979 138.168814 
L 457.491148 300.152229 
L 458.41099 308.879588 
L 459.301159 340.911562 
L 460.221 340.911562 
L 461.140841 230.028806 
L 462.001338 253.250065 
L 462.92118 340.911562 
L 463.811349 194.704659 
L 464.73119 103.187025 
L 465.621359 139.165013 
L 466.5412 91.870476 
L 467.461042 116.078531 
L 468.351211 257.195791 
L 469.271052 340.911562 
L 471.081063 340.911562 
L 472.000904 300.152229 
L 472.831728 269.198428 
L 473.75157 247.947768 
L 474.641739 153.267242 
L 475.56158 118.988159 
L 476.451749 166.190882 
L 477.371591 70.251685 
L 478.291432 144.630916 
L 479.181601 149.18459 
L 480.101442 305.029594 
L 480.991611 274.013333 
L 481.911453 316.118387 
L 482.831294 234.032412 
L 483.662119 283.600647 
L 484.58196 199.384133 
L 485.472129 137.133739 
L 486.39197 98.450646 
L 487.282139 91.387921 
L 488.201981 161.975049 
L 489.121822 112.499903 
L 490.011991 145.542868 
L 490.931833 283.600647 
L 491.822002 340.911562 
L 494.492509 340.911562 
L 495.41235 234.774653 
L 496.302519 150.889198 
L 497.222361 84.713467 
L 499.032371 145.887698 
L 499.952212 106.2537 
L 500.842381 130.622802 
L 501.762223 220.574563 
L 502.652392 340.911562 
L 503.572233 149.607094 
L 504.492075 230.255445 
L 505.352571 250.69382 
L 506.272413 216.07948 
L 507.162582 125.84091 
L 508.082423 151.56973 
L 508.972592 78.872882 
L 509.892433 92.052084 
L 510.812275 115.169725 
L 511.702444 132.540148 
L 512.622285 175.312788 
L 513.512454 283.600647 
L 514.432296 340.911562 
L 515.352137 285.354914 
L 516.182961 283.600647 
L 517.102803 232.34377 
L 517.992972 254.009788 
L 518.912813 89.984757 
L 519.802982 119.856073 
L 520.722824 144.010236 
L 521.642665 87.846404 
L 522.532834 202.813977 
L 523.452675 227.38705 
L 524.342844 340.911562 
L 525.262686 244.432977 
L 526.182527 340.911562 
L 527.013352 340.911562 
L 528.823362 138.639111 
L 529.743203 96.904275 
L 530.633372 135.656734 
L 531.553214 96.872337 
L 532.473055 122.386647 
L 533.363224 133.271176 
L 534.283066 272.131943 
L 535.173235 340.911562 
L 536.093076 207.189057 
L 537.012917 297.3285 
L 537.843742 214.215539 
L 538.763583 227.601924 
L 539.653752 92.082387 
L 540.573594 116.916883 
L 541.463763 115.959439 
L 542.383604 56.026197 
L 543.303445 119.152786 
L 546.003625 184.773621 
L 546.923466 340.911562 
L 548.703804 340.911562 
L 549.623646 210.047902 
L 550.513815 175.22563 
L 551.433656 107.144703 
L 552.323825 129.260784 
L 553.243666 87.904343 
L 554.163508 113.805073 
L 555.053677 169.95137 
L 555.973518 340.911562 
L 556.863687 252.13561 
L 557.783529 340.911562 
L 558.70337 322.689966 
L 559.534194 178.804892 
L 560.454036 169.071202 
L 561.344205 144.066453 
L 562.264046 130.907498 
L 563.154215 130.622802 
L 564.074057 116.277389 
L 564.993898 96.489956 
L 565.884067 133.959579 
L 566.803908 247.287534 
L 567.694077 235.5286 
L 568.613919 340.911562 
L 569.53376 300.152229 
L 570.364585 340.911562 
L 571.284426 279.586697 
L 572.174595 246.315427 
L 573.094436 140.603003 
L 573.984605 149.607094 
L 574.904447 100.987898 
L 575.824288 62.275165 
L 576.714457 145.77258 
L 577.634299 210.35753 
L 578.524468 340.911562 
L 579.444309 340.911562 
L 580.36415 308.879588 
L 581.194975 290.219975 
L 582.114816 210.512995 
L 583.004985 150.032009 
L 583.924827 128.657601 
L 584.814996 95.195451 
L 585.734837 98.191079 
L 586.654678 137.442826 
L 587.544847 139.429304 
L 588.464689 279.586697 
L 589.354858 340.911562 
L 590.274699 340.911562 
L 591.194541 288.181943 
L 592.055037 305.029594 
L 592.974879 205.597939 
L 593.865048 131.767694 
L 594.784889 112.119769 
L 595.675058 141.904063 
L 596.594899 146.64027 
L 597.514741 63.305966 
L 598.40491 188.729155 
L 599.324751 272.131943 
L 600.21492 288.181943 
L 601.134762 279.586697 
L 602.054603 308.879588 
L 602.885427 239.490159 
L 603.805269 174.446299 
L 604.695438 165.281937 
L 605.615279 107.611623 
L 606.505448 113.611888 
L 607.42529 139.535273 
L 608.345131 81.220557 
L 609.2353 220.014499 
L 610.155141 283.600647 
L 611.04531 279.586697 
L 611.965152 212.252623 
L 612.884993 228.910955 
L 613.715818 234.278551 
L 614.635659 220.387208 
L 615.525828 186.824414 
L 616.445669 104.602614 
L 617.335838 151.943588 
L 618.25568 175.662571 
L 619.175521 104.463509 
L 620.06569 164.236294 
L 620.985532 201.338204 
L 621.875701 340.911562 
L 623.715383 340.911562 
L 624.546208 278.838659 
L 625.466049 255.175947 
L 626.356218 173.675969 
L 627.27606 62.409027 
L 628.166229 187.242708 
L 629.08607 91.478209 
L 630.005911 110.466778 
L 630.89608 107.46769 
L 631.815922 207.189057 
L 632.706091 340.911562 
L 633.625932 213.061941 
L 634.545774 305.029594 
L 635.40627 246.315427 
L 637.216281 134.107874 
L 638.136122 108.189729 
L 639.026291 110.169595 
L 639.946133 136.77467 
L 640.865974 76.529431 
L 641.756143 164.682509 
L 642.675984 316.118387 
L 643.566153 340.911562 
L 645.405836 340.911562 
L 646.236661 218.911989 
L 647.156502 221.905243 
L 648.046671 155.135367 
L 648.966512 163.133052 
L 649.856681 127.510094 
L 650.776523 122.601042 
L 651.696364 183.376544 
L 652.586533 192.153122 
L 653.506374 231.637697 
L 654.396544 340.911562 
L 655.316385 308.879588 
L 656.236226 340.911562 
L 657.067051 232.34377 
L 657.986892 172.662456 
L 658.877061 143.450334 
L 660.687072 104.811681 
L 661.606913 114.816728 
L 662.526754 143.450334 
L 663.416923 162.19073 
L 664.336765 218.189583 
L 665.226934 308.879588 
L 666.146775 264.438598 
L 667.066616 200.028279 
L 667.897441 340.911562 
L 668.817282 193.531567 
L 669.707451 119.070433 
L 674.247313 189.268739 
L 675.167155 293.559579 
L 676.057324 340.911562 
L 676.977165 340.911562 
L 677.897007 277.390112 
L 678.757503 276.000019 
L 679.677345 224.877627 
L 680.567514 212.413532 
L 681.487355 79.507503 
L 682.377524 108.081043 
L 683.297366 141.958753 
L 684.217207 105.793918 
L 686.917386 340.911562 
L 686.917386 340.911562 
" clip-path="url(#p175c2ffa17)" style="fill: none; stroke: #194a7a; stroke-width: 1.2; stroke-linecap: round"/>
   </g>
   <g id="patch_3">
    <path d="M 47.75375 356.031562 
L 47.75375 23.391562 
" style="fill: none; stroke: #cccccc; stroke-width: 1.25; stroke-linejoin: miter; stroke-linecap: square"/>
   </g>
   <g id="patch_4">
    <path d="M 717.35375 356.031562 
L 717.35375 23.391562 
" style="fill: none; stroke: #cccccc; stroke-width: 1.25; stroke-linejoin: miter; stroke-linecap: square"/>
   </g>
   <g id="patch_5">
    <path d="M 47.75375 356.031562 
L 717.35375 356.031562 
" style="fill: none; stroke: #cccccc; stroke-width: 1.25; stroke-linejoin: miter; stroke-linecap: square"/>
   </g>
   <g id="patch_6">
    <path d="M 47.75375 23.391562 
L 717.35375 23.391562 
" style="fill: none; stroke: #cccccc; stroke-width: 1.25; stroke-linejoin: miter; stroke-linecap: square"/>
   </g>
   <g id="text_18">
    <!-- Yeo-Johnson Estandarizado Precipitación Mensual en Puebla -->
    <g style="fill: #262626" transform="translate(177.964531 17.391562) scale(0.14 -0.14)">
     <defs>
      <path id="Arial-BoldMT-59" d="M 1669 0 
L 1669 1928 
L -9 4581 
L 1075 4581 
L 2153 2769 
L 3209 4581 
L 4275 4581 
L 2591 1922 
L 2591 0 
L 1669 0 
z
" transform="scale(0.015625)"/>
      <path id="Arial-BoldMT-65" d="M 2381 1056 
L 3256 909 
Q 3088 428 2723 176 
Q 2359 -75 1813 -75 
Q 947 -75 531 491 
Q 203 944 203 1634 
Q 203 2459 634 2926 
Q 1066 3394 1725 3394 
Q 2466 3394 2894 2905 
Q 3322 2416 3303 1406 
L 1103 1406 
Q 1113 1016 1316 798 
Q 1519 581 1822 581 
Q 2028 581 2168 693 
Q 2309 806 2381 1056 
z
M 2431 1944 
Q 2422 2325 2234 2523 
Q 2047 2722 1778 2722 
Q 1491 2722 1303 2513 
Q 1116 2303 1119 1944 
L 2431 1944 
z
" transform="scale(0.015625)"/>
      <path id="Arial-BoldMT-6f" d="M 256 1706 
Q 256 2144 472 2553 
Q 688 2963 1083 3178 
Q 1478 3394 1966 3394 
Q 2719 3394 3200 2905 
Q 3681 2416 3681 1669 
Q 3681 916 3195 420 
Q 2709 -75 1972 -75 
Q 1516 -75 1102 131 
Q 688 338 472 736 
Q 256 1134 256 1706 
z
M 1156 1659 
Q 1156 1166 1390 903 
Q 1625 641 1969 641 
Q 2313 641 2545 903 
Q 2778 1166 2778 1666 
Q 2778 2153 2545 2415 
Q 2313 2678 1969 2678 
Q 1625 2678 1390 2415 
Q 1156 2153 1156 1659 
z
" transform="scale(0.015625)"/>
      <path id="Arial-BoldMT-2d" d="M 359 1222 
L 359 2100 
L 2084 2100 
L 2084 1222 
L 359 1222 
z
" transform="scale(0.015625)"/>
      <path id="Arial-BoldMT-4a" d="M 2119 4581 
L 3041 4581 
L 3041 1681 
Q 3041 1113 2941 806 
Q 2806 406 2453 164 
Q 2100 -78 1522 -78 
Q 844 -78 478 301 
Q 113 681 109 1416 
L 981 1516 
Q 997 1122 1097 959 
Q 1247 713 1553 713 
Q 1863 713 1991 889 
Q 2119 1066 2119 1622 
L 2119 4581 
z
" transform="scale(0.015625)"/>
      <path id="Arial-BoldMT-68" d="M 1334 4581 
L 1334 2897 
Q 1759 3394 2350 3394 
Q 2653 3394 2897 3281 
Q 3141 3169 3264 2994 
Q 3388 2819 3433 2606 
Q 3478 2394 3478 1947 
L 3478 0 
L 2600 0 
L 2600 1753 
Q 2600 2275 2550 2415 
Q 2500 2556 2373 2639 
Q 2247 2722 2056 2722 
Q 1838 2722 1666 2615 
Q 1494 2509 1414 2295 
Q 1334 2081 1334 1663 
L 1334 0 
L 456 0 
L 456 4581 
L 1334 4581 
z
" transform="scale(0.015625)"/>
      <path id="Arial-BoldMT-6e" d="M 3478 0 
L 2600 0 
L 2600 1694 
Q 2600 2231 2544 2389 
Q 2488 2547 2361 2634 
Q 2234 2722 2056 2722 
Q 1828 2722 1647 2597 
Q 1466 2472 1398 2265 
Q 1331 2059 1331 1503 
L 1331 0 
L 453 0 
L 453 3319 
L 1269 3319 
L 1269 2831 
Q 1703 3394 2363 3394 
Q 2653 3394 2893 3289 
Q 3134 3184 3257 3021 
Q 3381 2859 3429 2653 
Q 3478 2447 3478 2063 
L 3478 0 
z
" transform="scale(0.015625)"/>
      <path id="Arial-BoldMT-73" d="M 150 947 
L 1031 1081 
Q 1088 825 1259 692 
Q 1431 559 1741 559 
Q 2081 559 2253 684 
Q 2369 772 2369 919 
Q 2369 1019 2306 1084 
Q 2241 1147 2013 1200 
Q 950 1434 666 1628 
Q 272 1897 272 2375 
Q 272 2806 612 3100 
Q 953 3394 1669 3394 
Q 2350 3394 2681 3172 
Q 3013 2950 3138 2516 
L 2309 2363 
Q 2256 2556 2107 2659 
Q 1959 2763 1684 2763 
Q 1338 2763 1188 2666 
Q 1088 2597 1088 2488 
Q 1088 2394 1175 2328 
Q 1294 2241 1995 2081 
Q 2697 1922 2975 1691 
Q 3250 1456 3250 1038 
Q 3250 581 2869 253 
Q 2488 -75 1741 -75 
Q 1063 -75 667 200 
Q 272 475 150 947 
z
" transform="scale(0.015625)"/>
      <path id="Arial-BoldMT-20" transform="scale(0.015625)"/>
      <path id="Arial-BoldMT-45" d="M 466 0 
L 466 4581 
L 3863 4581 
L 3863 3806 
L 1391 3806 
L 1391 2791 
L 3691 2791 
L 3691 2019 
L 1391 2019 
L 1391 772 
L 3950 772 
L 3950 0 
L 466 0 
z
" transform="scale(0.015625)"/>
      <path id="Arial-BoldMT-74" d="M 1981 3319 
L 1981 2619 
L 1381 2619 
L 1381 1281 
Q 1381 875 1398 808 
Q 1416 741 1477 697 
Q 1538 653 1625 653 
Q 1747 653 1978 738 
L 2053 56 
Q 1747 -75 1359 -75 
Q 1122 -75 931 4 
Q 741 84 652 211 
Q 563 338 528 553 
Q 500 706 500 1172 
L 500 2619 
L 97 2619 
L 97 3319 
L 500 3319 
L 500 3978 
L 1381 4491 
L 1381 3319 
L 1981 3319 
z
" transform="scale(0.015625)"/>
      <path id="Arial-BoldMT-61" d="M 1116 2306 
L 319 2450 
Q 453 2931 781 3162 
Q 1109 3394 1756 3394 
Q 2344 3394 2631 3255 
Q 2919 3116 3036 2902 
Q 3153 2688 3153 2116 
L 3144 1091 
Q 3144 653 3186 445 
Q 3228 238 3344 0 
L 2475 0 
Q 2441 88 2391 259 
Q 2369 338 2359 363 
Q 2134 144 1878 34 
Q 1622 -75 1331 -75 
Q 819 -75 523 203 
Q 228 481 228 906 
Q 228 1188 362 1408 
Q 497 1628 739 1745 
Q 981 1863 1438 1950 
Q 2053 2066 2291 2166 
L 2291 2253 
Q 2291 2506 2166 2614 
Q 2041 2722 1694 2722 
Q 1459 2722 1328 2630 
Q 1197 2538 1116 2306 
z
M 2291 1594 
Q 2122 1538 1756 1459 
Q 1391 1381 1278 1306 
Q 1106 1184 1106 997 
Q 1106 813 1243 678 
Q 1381 544 1594 544 
Q 1831 544 2047 700 
Q 2206 819 2256 991 
Q 2291 1103 2291 1419 
L 2291 1594 
z
" transform="scale(0.015625)"/>
      <path id="Arial-BoldMT-64" d="M 3503 0 
L 2688 0 
L 2688 488 
Q 2484 203 2207 64 
Q 1931 -75 1650 -75 
Q 1078 -75 670 386 
Q 263 847 263 1672 
Q 263 2516 659 2955 
Q 1056 3394 1663 3394 
Q 2219 3394 2625 2931 
L 2625 4581 
L 3503 4581 
L 3503 0 
z
M 1159 1731 
Q 1159 1200 1306 963 
Q 1519 619 1900 619 
Q 2203 619 2415 876 
Q 2628 1134 2628 1647 
Q 2628 2219 2422 2470 
Q 2216 2722 1894 2722 
Q 1581 2722 1370 2473 
Q 1159 2225 1159 1731 
z
" transform="scale(0.015625)"/>
      <path id="Arial-BoldMT-72" d="M 1300 0 
L 422 0 
L 422 3319 
L 1238 3319 
L 1238 2847 
Q 1447 3181 1614 3287 
Q 1781 3394 1994 3394 
Q 2294 3394 2572 3228 
L 2300 2463 
Q 2078 2606 1888 2606 
Q 1703 2606 1575 2504 
Q 1447 2403 1373 2137 
Q 1300 1872 1300 1025 
L 1300 0 
z
" transform="scale(0.015625)"/>
      <path id="Arial-BoldMT-69" d="M 459 3769 
L 459 4581 
L 1338 4581 
L 1338 3769 
L 459 3769 
z
M 459 0 
L 459 3319 
L 1338 3319 
L 1338 0 
L 459 0 
z
" transform="scale(0.015625)"/>
      <path id="Arial-BoldMT-7a" d="M 106 0 
L 106 684 
L 1350 2113 
Q 1656 2463 1803 2609 
Q 1650 2600 1400 2597 
L 228 2591 
L 228 3319 
L 2972 3319 
L 2972 2697 
L 1703 1234 
L 1256 750 
Q 1622 772 1709 772 
L 3069 772 
L 3069 0 
L 106 0 
z
" transform="scale(0.015625)"/>
      <path id="Arial-BoldMT-50" d="M 466 0 
L 466 4581 
L 1950 4581 
Q 2794 4581 3050 4513 
Q 3444 4409 3709 4064 
Q 3975 3719 3975 3172 
Q 3975 2750 3822 2462 
Q 3669 2175 3433 2011 
Q 3197 1847 2953 1794 
Q 2622 1728 1994 1728 
L 1391 1728 
L 1391 0 
L 466 0 
z
M 1391 3806 
L 1391 2506 
L 1897 2506 
Q 2444 2506 2628 2578 
Q 2813 2650 2917 2803 
Q 3022 2956 3022 3159 
Q 3022 3409 2875 3571 
Q 2728 3734 2503 3775 
Q 2338 3806 1838 3806 
L 1391 3806 
z
" transform="scale(0.015625)"/>
      <path id="Arial-BoldMT-63" d="M 3353 2338 
L 2488 2181 
Q 2444 2441 2289 2572 
Q 2134 2703 1888 2703 
Q 1559 2703 1364 2476 
Q 1169 2250 1169 1719 
Q 1169 1128 1367 884 
Q 1566 641 1900 641 
Q 2150 641 2309 783 
Q 2469 925 2534 1272 
L 3397 1125 
Q 3263 531 2881 228 
Q 2500 -75 1859 -75 
Q 1131 -75 698 384 
Q 266 844 266 1656 
Q 266 2478 700 2936 
Q 1134 3394 1875 3394 
Q 2481 3394 2839 3133 
Q 3197 2872 3353 2338 
z
" transform="scale(0.015625)"/>
      <path id="Arial-BoldMT-70" d="M 434 3319 
L 1253 3319 
L 1253 2831 
Q 1413 3081 1684 3237 
Q 1956 3394 2288 3394 
Q 2866 3394 3269 2941 
Q 3672 2488 3672 1678 
Q 3672 847 3265 386 
Q 2859 -75 2281 -75 
Q 2006 -75 1782 34 
Q 1559 144 1313 409 
L 1313 -1263 
L 434 -1263 
L 434 3319 
z
M 1303 1716 
Q 1303 1156 1525 889 
Q 1747 622 2066 622 
Q 2372 622 2575 867 
Q 2778 1113 2778 1672 
Q 2778 2194 2568 2447 
Q 2359 2700 2050 2700 
Q 1728 2700 1515 2451 
Q 1303 2203 1303 1716 
z
" transform="scale(0.015625)"/>
      <path id="Arial-BoldMT-f3" d="M 256 1706 
Q 256 2144 472 2553 
Q 688 2963 1083 3178 
Q 1478 3394 1966 3394 
Q 2719 3394 3200 2905 
Q 3681 2416 3681 1669 
Q 3681 916 3195 420 
Q 2709 -75 1972 -75 
Q 1516 -75 1102 131 
Q 688 338 472 736 
Q 256 1134 256 1706 
z
M 1156 1659 
Q 1156 1166 1390 903 
Q 1625 641 1969 641 
Q 2313 641 2545 903 
Q 2778 1166 2778 1666 
Q 2778 2153 2545 2415 
Q 2313 2678 1969 2678 
Q 1625 2678 1390 2415 
Q 1156 2153 1156 1659 
z
M 1528 3725 
L 1960 4659 
L 2944 4659 
L 2085 3725 
L 1528 3725 
z
" transform="scale(0.015625)"/>
      <path id="Arial-BoldMT-4d" d="M 453 0 
L 453 4581 
L 1838 4581 
L 2669 1456 
L 3491 4581 
L 4878 4581 
L 4878 0 
L 4019 0 
L 4019 3606 
L 3109 0 
L 2219 0 
L 1313 3606 
L 1313 0 
L 453 0 
z
" transform="scale(0.015625)"/>
      <path id="Arial-BoldMT-75" d="M 2644 0 
L 2644 497 
Q 2463 231 2167 78 
Q 1872 -75 1544 -75 
Q 1209 -75 943 72 
Q 678 219 559 484 
Q 441 750 441 1219 
L 441 3319 
L 1319 3319 
L 1319 1794 
Q 1319 1094 1367 936 
Q 1416 778 1544 686 
Q 1672 594 1869 594 
Q 2094 594 2272 717 
Q 2450 841 2515 1023 
Q 2581 1206 2581 1919 
L 2581 3319 
L 3459 3319 
L 3459 0 
L 2644 0 
z
" transform="scale(0.015625)"/>
      <path id="Arial-BoldMT-6c" d="M 459 0 
L 459 4581 
L 1338 4581 
L 1338 0 
L 459 0 
z
" transform="scale(0.015625)"/>
      <path id="Arial-BoldMT-62" d="M 422 0 
L 422 4581 
L 1300 4581 
L 1300 2931 
Q 1706 3394 2263 3394 
Q 2869 3394 3266 2955 
Q 3663 2516 3663 1694 
Q 3663 844 3258 384 
Q 2853 -75 2275 -75 
Q 1991 -75 1714 67 
Q 1438 209 1238 488 
L 1238 0 
L 422 0 
z
M 1294 1731 
Q 1294 1216 1456 969 
Q 1684 619 2063 619 
Q 2353 619 2558 867 
Q 2763 1116 2763 1650 
Q 2763 2219 2556 2470 
Q 2350 2722 2028 2722 
Q 1713 2722 1503 2476 
Q 1294 2231 1294 1731 
z
" transform="scale(0.015625)"/>
     </defs>
     <use xlink:href="#Arial-BoldMT-59"/>
     <use xlink:href="#Arial-BoldMT-65" x="61.199219"/>
     <use xlink:href="#Arial-BoldMT-6f" x="116.814453"/>
     <use xlink:href="#Arial-BoldMT-2d" x="177.898438"/>
     <use xlink:href="#Arial-BoldMT-4a" x="211.199219"/>
     <use xlink:href="#Arial-BoldMT-6f" x="266.814453"/>
     <use xlink:href="#Arial-BoldMT-68" x="327.898438"/>
     <use xlink:href="#Arial-BoldMT-6e" x="388.982422"/>
     <use xlink:href="#Arial-BoldMT-73" x="450.066406"/>
     <use xlink:href="#Arial-BoldMT-6f" x="505.681641"/>
     <use xlink:href="#Arial-BoldMT-6e" x="566.765625"/>
     <use xlink:href="#Arial-BoldMT-20" x="627.849609"/>
     <use xlink:href="#Arial-BoldMT-45" x="655.632812"/>
     <use xlink:href="#Arial-BoldMT-73" x="722.332031"/>
     <use xlink:href="#Arial-BoldMT-74" x="777.947266"/>
     <use xlink:href="#Arial-BoldMT-61" x="811.248047"/>
     <use xlink:href="#Arial-BoldMT-6e" x="866.863281"/>
     <use xlink:href="#Arial-BoldMT-64" x="927.947266"/>
     <use xlink:href="#Arial-BoldMT-61" x="989.03125"/>
     <use xlink:href="#Arial-BoldMT-72" x="1044.646484"/>
     <use xlink:href="#Arial-BoldMT-69" x="1083.5625"/>
     <use xlink:href="#Arial-BoldMT-7a" x="1111.345703"/>
     <use xlink:href="#Arial-BoldMT-61" x="1161.345703"/>
     <use xlink:href="#Arial-BoldMT-64" x="1216.960938"/>
     <use xlink:href="#Arial-BoldMT-6f" x="1278.044922"/>
     <use xlink:href="#Arial-BoldMT-20" x="1339.128906"/>
     <use xlink:href="#Arial-BoldMT-50" x="1366.912109"/>
     <use xlink:href="#Arial-BoldMT-72" x="1433.611328"/>
     <use xlink:href="#Arial-BoldMT-65" x="1472.527344"/>
     <use xlink:href="#Arial-BoldMT-63" x="1528.142578"/>
     <use xlink:href="#Arial-BoldMT-69" x="1583.757812"/>
     <use xlink:href="#Arial-BoldMT-70" x="1611.541016"/>
     <use xlink:href="#Arial-BoldMT-69" x="1672.625"/>
     <use xlink:href="#Arial-BoldMT-74" x="1700.408203"/>
     <use xlink:href="#Arial-BoldMT-61" x="1733.708984"/>
     <use xlink:href="#Arial-BoldMT-63" x="1789.324219"/>
     <use xlink:href="#Arial-BoldMT-69" x="1844.939453"/>
     <use xlink:href="#Arial-BoldMT-f3" x="1872.722656"/>
     <use xlink:href="#Arial-BoldMT-6e" x="1933.806641"/>
     <use xlink:href="#Arial-BoldMT-20" x="1994.890625"/>
     <use xlink:href="#Arial-BoldMT-4d" x="2022.673828"/>
     <use xlink:href="#Arial-BoldMT-65" x="2105.974609"/>
     <use xlink:href="#Arial-BoldMT-6e" x="2161.589844"/>
     <use xlink:href="#Arial-BoldMT-73" x="2222.673828"/>
     <use xlink:href="#Arial-BoldMT-75" x="2278.289062"/>
     <use xlink:href="#Arial-BoldMT-61" x="2339.373047"/>
     <use xlink:href="#Arial-BoldMT-6c" x="2394.988281"/>
     <use xlink:href="#Arial-BoldMT-20" x="2422.771484"/>
     <use xlink:href="#Arial-BoldMT-65" x="2450.554688"/>
     <use xlink:href="#Arial-BoldMT-6e" x="2506.169922"/>
     <use xlink:href="#Arial-BoldMT-20" x="2567.253906"/>
     <use xlink:href="#Arial-BoldMT-50" x="2595.037109"/>
     <use xlink:href="#Arial-BoldMT-75" x="2661.736328"/>
     <use xlink:href="#Arial-BoldMT-65" x="2722.820312"/>
     <use xlink:href="#Arial-BoldMT-62" x="2778.435547"/>
     <use xlink:href="#Arial-BoldMT-6c" x="2839.519531"/>
     <use xlink:href="#Arial-BoldMT-61" x="2867.302734"/>
    </g>
   </g>
  </g>
 </g>
 <defs>
  <clipPath id="p175c2ffa17">
   <rect x="47.75375" y="23.391562" width="669.6" height="332.64"/>
  </clipPath>
 </defs>
</svg>
