<?xml version="1.0" encoding="utf-8" standalone="no"?>
<!DOCTYPE svg PUBLIC "-//W3C//DTD SVG 1.1//EN"
  "http://www.w3.org/Graphics/SVG/1.1/DTD/svg11.dtd">
<svg xmlns:xlink="http://www.w3.org/1999/xlink" width="624.611707pt" height="396.210469pt" viewBox="0 0 624.611707 396.210469" xmlns="http://www.w3.org/2000/svg" version="1.1">
 <metadata>
  <rdf:RDF xmlns:dc="http://purl.org/dc/elements/1.1/" xmlns:cc="http://creativecommons.org/ns#" xmlns:rdf="http://www.w3.org/1999/02/22-rdf-syntax-ns#">
   <cc:Work>
    <dc:type rdf:resource="http://purl.org/dc/dcmitype/StillImage"/>
    <dc:date>2025-04-23T22:39:59.264498</dc:date>
    <dc:format>image/svg+xml</dc:format>
    <dc:creator>
     <cc:Agent>
      <dc:title>Matplotlib v3.8.4, https://matplotlib.org/</dc:title>
     </cc:Agent>
    </dc:creator>
   </cc:Work>
  </rdf:RDF>
 </metadata>
 <defs>
  <style type="text/css">*{stroke-linejoin: round; stroke-linecap: butt}</style>
 </defs>
 <g id="figure_1">
  <g id="patch_1">
   <path d="M 0 396.210469 
L 624.611707 396.210469 
L 624.611707 0 
L 0 0 
z
" style="fill: #ffffff"/>
  </g>
  <g id="axes_1">
   <g id="patch_2">
    <path d="M 53.675938 354.47625 
L 611.675938 354.47625 
L 611.675938 21.83625 
L 53.675938 21.83625 
z
" style="fill: #ffffff"/>
   </g>
   <g id="matplotlib.axis_1">
    <g id="xtick_1">
     <g id="line2d_1">
      <path d="M 79.039574 354.47625 
L 79.039574 21.83625 
" clip-path="url(#p1b3f63cd86)" style="fill: none; stroke: #cccccc; stroke-linecap: round"/>
     </g>
     <g id="text_1">
      <!-- 0 -->
      <g style="fill: #262626" transform="translate(75.981058 371.849844) scale(0.11 -0.11)">
       <defs>
        <path id="ArialMT-30" d="M 266 2259 
Q 266 3072 433 3567 
Q 600 4063 929 4331 
Q 1259 4600 1759 4600 
Q 2128 4600 2406 4451 
Q 2684 4303 2865 4023 
Q 3047 3744 3150 3342 
Q 3253 2941 3253 2259 
Q 3253 1453 3087 958 
Q 2922 463 2592 192 
Q 2263 -78 1759 -78 
Q 1097 -78 719 397 
Q 266 969 266 2259 
z
M 844 2259 
Q 844 1131 1108 757 
Q 1372 384 1759 384 
Q 2147 384 2411 759 
Q 2675 1134 2675 2259 
Q 2675 3391 2411 3762 
Q 2147 4134 1753 4134 
Q 1366 4134 1134 3806 
Q 844 3388 844 2259 
z
" transform="scale(0.015625)"/>
       </defs>
       <use xlink:href="#ArialMT-30"/>
      </g>
     </g>
    </g>
    <g id="xtick_2">
     <g id="line2d_2">
      <path d="M 154.639086 354.47625 
L 154.639086 21.83625 
" clip-path="url(#p1b3f63cd86)" style="fill: none; stroke: #cccccc; stroke-linecap: round"/>
     </g>
     <g id="text_2">
      <!-- 100 -->
      <g style="fill: #262626" transform="translate(145.463539 371.849844) scale(0.11 -0.11)">
       <defs>
        <path id="ArialMT-31" d="M 2384 0 
L 1822 0 
L 1822 3584 
Q 1619 3391 1289 3197 
Q 959 3003 697 2906 
L 697 3450 
Q 1169 3672 1522 3987 
Q 1875 4303 2022 4600 
L 2384 4600 
L 2384 0 
z
" transform="scale(0.015625)"/>
       </defs>
       <use xlink:href="#ArialMT-31"/>
       <use xlink:href="#ArialMT-30" x="55.615234"/>
       <use xlink:href="#ArialMT-30" x="111.230469"/>
      </g>
     </g>
    </g>
    <g id="xtick_3">
     <g id="line2d_3">
      <path d="M 230.238598 354.47625 
L 230.238598 21.83625 
" clip-path="url(#p1b3f63cd86)" style="fill: none; stroke: #cccccc; stroke-linecap: round"/>
     </g>
     <g id="text_3">
      <!-- 200 -->
      <g style="fill: #262626" transform="translate(221.063052 371.849844) scale(0.11 -0.11)">
       <defs>
        <path id="ArialMT-32" d="M 3222 541 
L 3222 0 
L 194 0 
Q 188 203 259 391 
Q 375 700 629 1000 
Q 884 1300 1366 1694 
Q 2113 2306 2375 2664 
Q 2638 3022 2638 3341 
Q 2638 3675 2398 3904 
Q 2159 4134 1775 4134 
Q 1369 4134 1125 3890 
Q 881 3647 878 3216 
L 300 3275 
Q 359 3922 746 4261 
Q 1134 4600 1788 4600 
Q 2447 4600 2831 4234 
Q 3216 3869 3216 3328 
Q 3216 3053 3103 2787 
Q 2991 2522 2730 2228 
Q 2469 1934 1863 1422 
Q 1356 997 1212 845 
Q 1069 694 975 541 
L 3222 541 
z
" transform="scale(0.015625)"/>
       </defs>
       <use xlink:href="#ArialMT-32"/>
       <use xlink:href="#ArialMT-30" x="55.615234"/>
       <use xlink:href="#ArialMT-30" x="111.230469"/>
      </g>
     </g>
    </g>
    <g id="xtick_4">
     <g id="line2d_4">
      <path d="M 305.838111 354.47625 
L 305.838111 21.83625 
" clip-path="url(#p1b3f63cd86)" style="fill: none; stroke: #cccccc; stroke-linecap: round"/>
     </g>
     <g id="text_4">
      <!-- 300 -->
      <g style="fill: #262626" transform="translate(296.662564 371.849844) scale(0.11 -0.11)">
       <defs>
        <path id="ArialMT-33" d="M 269 1209 
L 831 1284 
Q 928 806 1161 595 
Q 1394 384 1728 384 
Q 2125 384 2398 659 
Q 2672 934 2672 1341 
Q 2672 1728 2419 1979 
Q 2166 2231 1775 2231 
Q 1616 2231 1378 2169 
L 1441 2663 
Q 1497 2656 1531 2656 
Q 1891 2656 2178 2843 
Q 2466 3031 2466 3422 
Q 2466 3731 2256 3934 
Q 2047 4138 1716 4138 
Q 1388 4138 1169 3931 
Q 950 3725 888 3313 
L 325 3413 
Q 428 3978 793 4289 
Q 1159 4600 1703 4600 
Q 2078 4600 2393 4439 
Q 2709 4278 2876 4000 
Q 3044 3722 3044 3409 
Q 3044 3113 2884 2869 
Q 2725 2625 2413 2481 
Q 2819 2388 3044 2092 
Q 3269 1797 3269 1353 
Q 3269 753 2831 336 
Q 2394 -81 1725 -81 
Q 1122 -81 723 278 
Q 325 638 269 1209 
z
" transform="scale(0.015625)"/>
       </defs>
       <use xlink:href="#ArialMT-33"/>
       <use xlink:href="#ArialMT-30" x="55.615234"/>
       <use xlink:href="#ArialMT-30" x="111.230469"/>
      </g>
     </g>
    </g>
    <g id="xtick_5">
     <g id="line2d_5">
      <path d="M 381.437623 354.47625 
L 381.437623 21.83625 
" clip-path="url(#p1b3f63cd86)" style="fill: none; stroke: #cccccc; stroke-linecap: round"/>
     </g>
     <g id="text_5">
      <!-- 400 -->
      <g style="fill: #262626" transform="translate(372.262076 371.849844) scale(0.11 -0.11)">
       <defs>
        <path id="ArialMT-34" d="M 2069 0 
L 2069 1097 
L 81 1097 
L 81 1613 
L 2172 4581 
L 2631 4581 
L 2631 1613 
L 3250 1613 
L 3250 1097 
L 2631 1097 
L 2631 0 
L 2069 0 
z
M 2069 1613 
L 2069 3678 
L 634 1613 
L 2069 1613 
z
" transform="scale(0.015625)"/>
       </defs>
       <use xlink:href="#ArialMT-34"/>
       <use xlink:href="#ArialMT-30" x="55.615234"/>
       <use xlink:href="#ArialMT-30" x="111.230469"/>
      </g>
     </g>
    </g>
    <g id="xtick_6">
     <g id="line2d_6">
      <path d="M 457.037135 354.47625 
L 457.037135 21.83625 
" clip-path="url(#p1b3f63cd86)" style="fill: none; stroke: #cccccc; stroke-linecap: round"/>
     </g>
     <g id="text_6">
      <!-- 500 -->
      <g style="fill: #262626" transform="translate(447.861588 371.849844) scale(0.11 -0.11)">
       <defs>
        <path id="ArialMT-35" d="M 266 1200 
L 856 1250 
Q 922 819 1161 601 
Q 1400 384 1738 384 
Q 2144 384 2425 690 
Q 2706 997 2706 1503 
Q 2706 1984 2436 2262 
Q 2166 2541 1728 2541 
Q 1456 2541 1237 2417 
Q 1019 2294 894 2097 
L 366 2166 
L 809 4519 
L 3088 4519 
L 3088 3981 
L 1259 3981 
L 1013 2750 
Q 1425 3038 1878 3038 
Q 2478 3038 2890 2622 
Q 3303 2206 3303 1553 
Q 3303 931 2941 478 
Q 2500 -78 1738 -78 
Q 1113 -78 717 272 
Q 322 622 266 1200 
z
" transform="scale(0.015625)"/>
       </defs>
       <use xlink:href="#ArialMT-35"/>
       <use xlink:href="#ArialMT-30" x="55.615234"/>
       <use xlink:href="#ArialMT-30" x="111.230469"/>
      </g>
     </g>
    </g>
    <g id="xtick_7">
     <g id="line2d_7">
      <path d="M 532.636647 354.47625 
L 532.636647 21.83625 
" clip-path="url(#p1b3f63cd86)" style="fill: none; stroke: #cccccc; stroke-linecap: round"/>
     </g>
     <g id="text_7">
      <!-- 600 -->
      <g style="fill: #262626" transform="translate(523.461101 371.849844) scale(0.11 -0.11)">
       <defs>
        <path id="ArialMT-36" d="M 3184 3459 
L 2625 3416 
Q 2550 3747 2413 3897 
Q 2184 4138 1850 4138 
Q 1581 4138 1378 3988 
Q 1113 3794 959 3422 
Q 806 3050 800 2363 
Q 1003 2672 1297 2822 
Q 1591 2972 1913 2972 
Q 2475 2972 2870 2558 
Q 3266 2144 3266 1488 
Q 3266 1056 3080 686 
Q 2894 316 2569 119 
Q 2244 -78 1831 -78 
Q 1128 -78 684 439 
Q 241 956 241 2144 
Q 241 3472 731 4075 
Q 1159 4600 1884 4600 
Q 2425 4600 2770 4297 
Q 3116 3994 3184 3459 
z
M 888 1484 
Q 888 1194 1011 928 
Q 1134 663 1356 523 
Q 1578 384 1822 384 
Q 2178 384 2434 671 
Q 2691 959 2691 1453 
Q 2691 1928 2437 2201 
Q 2184 2475 1800 2475 
Q 1419 2475 1153 2201 
Q 888 1928 888 1484 
z
" transform="scale(0.015625)"/>
       </defs>
       <use xlink:href="#ArialMT-36"/>
       <use xlink:href="#ArialMT-30" x="55.615234"/>
       <use xlink:href="#ArialMT-30" x="111.230469"/>
      </g>
     </g>
    </g>
    <g id="xtick_8">
     <g id="line2d_8">
      <path d="M 608.23616 354.47625 
L 608.23616 21.83625 
" clip-path="url(#p1b3f63cd86)" style="fill: none; stroke: #cccccc; stroke-linecap: round"/>
     </g>
     <g id="text_8">
      <!-- 700 -->
      <g style="fill: #262626" transform="translate(599.060613 371.849844) scale(0.11 -0.11)">
       <defs>
        <path id="ArialMT-37" d="M 303 3981 
L 303 4522 
L 3269 4522 
L 3269 4084 
Q 2831 3619 2401 2847 
Q 1972 2075 1738 1259 
Q 1569 684 1522 0 
L 944 0 
Q 953 541 1156 1306 
Q 1359 2072 1739 2783 
Q 2119 3494 2547 3981 
L 303 3981 
z
" transform="scale(0.015625)"/>
       </defs>
       <use xlink:href="#ArialMT-37"/>
       <use xlink:href="#ArialMT-30" x="55.615234"/>
       <use xlink:href="#ArialMT-30" x="111.230469"/>
      </g>
     </g>
    </g>
    <g id="text_9">
     <!-- Fecha -->
     <g style="fill: #262626" transform="translate(316.001563 386.625469) scale(0.12 -0.12)">
      <defs>
       <path id="ArialMT-46" d="M 525 0 
L 525 4581 
L 3616 4581 
L 3616 4041 
L 1131 4041 
L 1131 2622 
L 3281 2622 
L 3281 2081 
L 1131 2081 
L 1131 0 
L 525 0 
z
" transform="scale(0.015625)"/>
       <path id="ArialMT-65" d="M 2694 1069 
L 3275 997 
Q 3138 488 2766 206 
Q 2394 -75 1816 -75 
Q 1088 -75 661 373 
Q 234 822 234 1631 
Q 234 2469 665 2931 
Q 1097 3394 1784 3394 
Q 2450 3394 2872 2941 
Q 3294 2488 3294 1666 
Q 3294 1616 3291 1516 
L 816 1516 
Q 847 969 1125 678 
Q 1403 388 1819 388 
Q 2128 388 2347 550 
Q 2566 713 2694 1069 
z
M 847 1978 
L 2700 1978 
Q 2663 2397 2488 2606 
Q 2219 2931 1791 2931 
Q 1403 2931 1139 2672 
Q 875 2413 847 1978 
z
" transform="scale(0.015625)"/>
       <path id="ArialMT-63" d="M 2588 1216 
L 3141 1144 
Q 3050 572 2676 248 
Q 2303 -75 1759 -75 
Q 1078 -75 664 370 
Q 250 816 250 1647 
Q 250 2184 428 2587 
Q 606 2991 970 3192 
Q 1334 3394 1763 3394 
Q 2303 3394 2647 3120 
Q 2991 2847 3088 2344 
L 2541 2259 
Q 2463 2594 2264 2762 
Q 2066 2931 1784 2931 
Q 1359 2931 1093 2626 
Q 828 2322 828 1663 
Q 828 994 1084 691 
Q 1341 388 1753 388 
Q 2084 388 2306 591 
Q 2528 794 2588 1216 
z
" transform="scale(0.015625)"/>
       <path id="ArialMT-68" d="M 422 0 
L 422 4581 
L 984 4581 
L 984 2938 
Q 1378 3394 1978 3394 
Q 2347 3394 2619 3248 
Q 2891 3103 3008 2847 
Q 3125 2591 3125 2103 
L 3125 0 
L 2563 0 
L 2563 2103 
Q 2563 2525 2380 2717 
Q 2197 2909 1863 2909 
Q 1613 2909 1392 2779 
Q 1172 2650 1078 2428 
Q 984 2206 984 1816 
L 984 0 
L 422 0 
z
" transform="scale(0.015625)"/>
       <path id="ArialMT-61" d="M 2588 409 
Q 2275 144 1986 34 
Q 1697 -75 1366 -75 
Q 819 -75 525 192 
Q 231 459 231 875 
Q 231 1119 342 1320 
Q 453 1522 633 1644 
Q 813 1766 1038 1828 
Q 1203 1872 1538 1913 
Q 2219 1994 2541 2106 
Q 2544 2222 2544 2253 
Q 2544 2597 2384 2738 
Q 2169 2928 1744 2928 
Q 1347 2928 1158 2789 
Q 969 2650 878 2297 
L 328 2372 
Q 403 2725 575 2942 
Q 747 3159 1072 3276 
Q 1397 3394 1825 3394 
Q 2250 3394 2515 3294 
Q 2781 3194 2906 3042 
Q 3031 2891 3081 2659 
Q 3109 2516 3109 2141 
L 3109 1391 
Q 3109 606 3145 398 
Q 3181 191 3288 0 
L 2700 0 
Q 2613 175 2588 409 
z
M 2541 1666 
Q 2234 1541 1622 1453 
Q 1275 1403 1131 1340 
Q 988 1278 909 1158 
Q 831 1038 831 891 
Q 831 666 1001 516 
Q 1172 366 1500 366 
Q 1825 366 2078 508 
Q 2331 650 2450 897 
Q 2541 1088 2541 1459 
L 2541 1666 
z
" transform="scale(0.015625)"/>
      </defs>
      <use xlink:href="#ArialMT-46"/>
      <use xlink:href="#ArialMT-65" x="61.083984"/>
      <use xlink:href="#ArialMT-63" x="116.699219"/>
      <use xlink:href="#ArialMT-68" x="166.699219"/>
      <use xlink:href="#ArialMT-61" x="222.314453"/>
     </g>
    </g>
   </g>
   <g id="matplotlib.axis_2">
    <g id="ytick_1">
     <g id="line2d_9">
      <path d="M 53.675938 327.828047 
L 611.675938 327.828047 
" clip-path="url(#p1b3f63cd86)" style="fill: none; stroke: #cccccc; stroke-linecap: round"/>
     </g>
     <g id="text_10">
      <!-- −1.5 -->
      <g style="fill: #262626" transform="translate(22.46125 331.764844) scale(0.11 -0.11)">
       <defs>
        <path id="ArialMT-2212" d="M 3381 1997 
L 356 1997 
L 356 2522 
L 3381 2522 
L 3381 1997 
z
" transform="scale(0.015625)"/>
        <path id="ArialMT-2e" d="M 581 0 
L 581 641 
L 1222 641 
L 1222 0 
L 581 0 
z
" transform="scale(0.015625)"/>
       </defs>
       <use xlink:href="#ArialMT-2212"/>
       <use xlink:href="#ArialMT-31" x="58.398438"/>
       <use xlink:href="#ArialMT-2e" x="114.013672"/>
       <use xlink:href="#ArialMT-35" x="141.796875"/>
      </g>
     </g>
    </g>
    <g id="ytick_2">
     <g id="line2d_10">
      <path d="M 53.675938 285.393011 
L 611.675938 285.393011 
" clip-path="url(#p1b3f63cd86)" style="fill: none; stroke: #cccccc; stroke-linecap: round"/>
     </g>
     <g id="text_11">
      <!-- −1.0 -->
      <g style="fill: #262626" transform="translate(22.46125 289.329808) scale(0.11 -0.11)">
       <use xlink:href="#ArialMT-2212"/>
       <use xlink:href="#ArialMT-31" x="58.398438"/>
       <use xlink:href="#ArialMT-2e" x="114.013672"/>
       <use xlink:href="#ArialMT-30" x="141.796875"/>
      </g>
     </g>
    </g>
    <g id="ytick_3">
     <g id="line2d_11">
      <path d="M 53.675938 242.957976 
L 611.675938 242.957976 
" clip-path="url(#p1b3f63cd86)" style="fill: none; stroke: #cccccc; stroke-linecap: round"/>
     </g>
     <g id="text_12">
      <!-- −0.5 -->
      <g style="fill: #262626" transform="translate(22.46125 246.894773) scale(0.11 -0.11)">
       <use xlink:href="#ArialMT-2212"/>
       <use xlink:href="#ArialMT-30" x="58.398438"/>
       <use xlink:href="#ArialMT-2e" x="114.013672"/>
       <use xlink:href="#ArialMT-35" x="141.796875"/>
      </g>
     </g>
    </g>
    <g id="ytick_4">
     <g id="line2d_12">
      <path d="M 53.675938 200.52294 
L 611.675938 200.52294 
" clip-path="url(#p1b3f63cd86)" style="fill: none; stroke: #cccccc; stroke-linecap: round"/>
     </g>
     <g id="text_13">
      <!-- 0.0 -->
      <g style="fill: #262626" transform="translate(28.885938 204.459737) scale(0.11 -0.11)">
       <use xlink:href="#ArialMT-30"/>
       <use xlink:href="#ArialMT-2e" x="55.615234"/>
       <use xlink:href="#ArialMT-30" x="83.398438"/>
      </g>
     </g>
    </g>
    <g id="ytick_5">
     <g id="line2d_13">
      <path d="M 53.675938 158.087905 
L 611.675938 158.087905 
" clip-path="url(#p1b3f63cd86)" style="fill: none; stroke: #cccccc; stroke-linecap: round"/>
     </g>
     <g id="text_14">
      <!-- 0.5 -->
      <g style="fill: #262626" transform="translate(28.885938 162.024702) scale(0.11 -0.11)">
       <use xlink:href="#ArialMT-30"/>
       <use xlink:href="#ArialMT-2e" x="55.615234"/>
       <use xlink:href="#ArialMT-35" x="83.398438"/>
      </g>
     </g>
    </g>
    <g id="ytick_6">
     <g id="line2d_14">
      <path d="M 53.675938 115.652869 
L 611.675938 115.652869 
" clip-path="url(#p1b3f63cd86)" style="fill: none; stroke: #cccccc; stroke-linecap: round"/>
     </g>
     <g id="text_15">
      <!-- 1.0 -->
      <g style="fill: #262626" transform="translate(28.885938 119.589666) scale(0.11 -0.11)">
       <use xlink:href="#ArialMT-31"/>
       <use xlink:href="#ArialMT-2e" x="55.615234"/>
       <use xlink:href="#ArialMT-30" x="83.398438"/>
      </g>
     </g>
    </g>
    <g id="ytick_7">
     <g id="line2d_15">
      <path d="M 53.675938 73.217834 
L 611.675938 73.217834 
" clip-path="url(#p1b3f63cd86)" style="fill: none; stroke: #cccccc; stroke-linecap: round"/>
     </g>
     <g id="text_16">
      <!-- 1.5 -->
      <g style="fill: #262626" transform="translate(28.885938 77.154631) scale(0.11 -0.11)">
       <use xlink:href="#ArialMT-31"/>
       <use xlink:href="#ArialMT-2e" x="55.615234"/>
       <use xlink:href="#ArialMT-35" x="83.398438"/>
      </g>
     </g>
    </g>
    <g id="ytick_8">
     <g id="line2d_16">
      <path d="M 53.675938 30.782798 
L 611.675938 30.782798 
" clip-path="url(#p1b3f63cd86)" style="fill: none; stroke: #cccccc; stroke-linecap: round"/>
     </g>
     <g id="text_17">
      <!-- 2.0 -->
      <g style="fill: #262626" transform="translate(28.885938 34.719595) scale(0.11 -0.11)">
       <use xlink:href="#ArialMT-32"/>
       <use xlink:href="#ArialMT-2e" x="55.615234"/>
       <use xlink:href="#ArialMT-30" x="83.398438"/>
      </g>
     </g>
    </g>
    <g id="text_18">
     <!-- Precipitación (mm) -->
     <g style="fill: #262626" transform="translate(15.935625 238.163437) rotate(-90) scale(0.12 -0.12)">
      <defs>
       <path id="ArialMT-50" d="M 494 0 
L 494 4581 
L 2222 4581 
Q 2678 4581 2919 4538 
Q 3256 4481 3484 4323 
Q 3713 4166 3852 3881 
Q 3991 3597 3991 3256 
Q 3991 2672 3619 2267 
Q 3247 1863 2275 1863 
L 1100 1863 
L 1100 0 
L 494 0 
z
M 1100 2403 
L 2284 2403 
Q 2872 2403 3119 2622 
Q 3366 2841 3366 3238 
Q 3366 3525 3220 3729 
Q 3075 3934 2838 4000 
Q 2684 4041 2272 4041 
L 1100 4041 
L 1100 2403 
z
" transform="scale(0.015625)"/>
       <path id="ArialMT-72" d="M 416 0 
L 416 3319 
L 922 3319 
L 922 2816 
Q 1116 3169 1280 3281 
Q 1444 3394 1641 3394 
Q 1925 3394 2219 3213 
L 2025 2691 
Q 1819 2813 1613 2813 
Q 1428 2813 1281 2702 
Q 1134 2591 1072 2394 
Q 978 2094 978 1738 
L 978 0 
L 416 0 
z
" transform="scale(0.015625)"/>
       <path id="ArialMT-69" d="M 425 3934 
L 425 4581 
L 988 4581 
L 988 3934 
L 425 3934 
z
M 425 0 
L 425 3319 
L 988 3319 
L 988 0 
L 425 0 
z
" transform="scale(0.015625)"/>
       <path id="ArialMT-70" d="M 422 -1272 
L 422 3319 
L 934 3319 
L 934 2888 
Q 1116 3141 1344 3267 
Q 1572 3394 1897 3394 
Q 2322 3394 2647 3175 
Q 2972 2956 3137 2557 
Q 3303 2159 3303 1684 
Q 3303 1175 3120 767 
Q 2938 359 2589 142 
Q 2241 -75 1856 -75 
Q 1575 -75 1351 44 
Q 1128 163 984 344 
L 984 -1272 
L 422 -1272 
z
M 931 1641 
Q 931 1000 1190 694 
Q 1450 388 1819 388 
Q 2194 388 2461 705 
Q 2728 1022 2728 1688 
Q 2728 2322 2467 2637 
Q 2206 2953 1844 2953 
Q 1484 2953 1207 2617 
Q 931 2281 931 1641 
z
" transform="scale(0.015625)"/>
       <path id="ArialMT-74" d="M 1650 503 
L 1731 6 
Q 1494 -44 1306 -44 
Q 1000 -44 831 53 
Q 663 150 594 308 
Q 525 466 525 972 
L 525 2881 
L 113 2881 
L 113 3319 
L 525 3319 
L 525 4141 
L 1084 4478 
L 1084 3319 
L 1650 3319 
L 1650 2881 
L 1084 2881 
L 1084 941 
Q 1084 700 1114 631 
Q 1144 563 1211 522 
Q 1278 481 1403 481 
Q 1497 481 1650 503 
z
" transform="scale(0.015625)"/>
       <path id="ArialMT-f3" d="M 213 1659 
Q 213 2581 725 3025 
Q 1153 3394 1769 3394 
Q 2453 3394 2887 2945 
Q 3322 2497 3322 1706 
Q 3322 1066 3130 698 
Q 2938 331 2570 128 
Q 2203 -75 1769 -75 
Q 1072 -75 642 372 
Q 213 819 213 1659 
z
M 791 1659 
Q 791 1022 1069 705 
Q 1347 388 1769 388 
Q 2188 388 2466 706 
Q 2744 1025 2744 1678 
Q 2744 2294 2464 2611 
Q 2184 2928 1769 2928 
Q 1347 2928 1069 2612 
Q 791 2297 791 1659 
z
M 1454 3731 
L 1869 4606 
L 2607 4606 
L 1919 3731 
L 1454 3731 
z
" transform="scale(0.015625)"/>
       <path id="ArialMT-6e" d="M 422 0 
L 422 3319 
L 928 3319 
L 928 2847 
Q 1294 3394 1984 3394 
Q 2284 3394 2536 3286 
Q 2788 3178 2913 3003 
Q 3038 2828 3088 2588 
Q 3119 2431 3119 2041 
L 3119 0 
L 2556 0 
L 2556 2019 
Q 2556 2363 2490 2533 
Q 2425 2703 2258 2804 
Q 2091 2906 1866 2906 
Q 1506 2906 1245 2678 
Q 984 2450 984 1813 
L 984 0 
L 422 0 
z
" transform="scale(0.015625)"/>
       <path id="ArialMT-20" transform="scale(0.015625)"/>
       <path id="ArialMT-28" d="M 1497 -1347 
Q 1031 -759 709 28 
Q 388 816 388 1659 
Q 388 2403 628 3084 
Q 909 3875 1497 4659 
L 1900 4659 
Q 1522 4009 1400 3731 
Q 1209 3300 1100 2831 
Q 966 2247 966 1656 
Q 966 153 1900 -1347 
L 1497 -1347 
z
" transform="scale(0.015625)"/>
       <path id="ArialMT-6d" d="M 422 0 
L 422 3319 
L 925 3319 
L 925 2853 
Q 1081 3097 1340 3245 
Q 1600 3394 1931 3394 
Q 2300 3394 2536 3241 
Q 2772 3088 2869 2813 
Q 3263 3394 3894 3394 
Q 4388 3394 4653 3120 
Q 4919 2847 4919 2278 
L 4919 0 
L 4359 0 
L 4359 2091 
Q 4359 2428 4304 2576 
Q 4250 2725 4106 2815 
Q 3963 2906 3769 2906 
Q 3419 2906 3187 2673 
Q 2956 2441 2956 1928 
L 2956 0 
L 2394 0 
L 2394 2156 
Q 2394 2531 2256 2718 
Q 2119 2906 1806 2906 
Q 1569 2906 1367 2781 
Q 1166 2656 1075 2415 
Q 984 2175 984 1722 
L 984 0 
L 422 0 
z
" transform="scale(0.015625)"/>
       <path id="ArialMT-29" d="M 791 -1347 
L 388 -1347 
Q 1322 153 1322 1656 
Q 1322 2244 1188 2822 
Q 1081 3291 891 3722 
Q 769 4003 388 4659 
L 791 4659 
Q 1378 3875 1659 3084 
Q 1900 2403 1900 1659 
Q 1900 816 1576 28 
Q 1253 -759 791 -1347 
z
" transform="scale(0.015625)"/>
      </defs>
      <use xlink:href="#ArialMT-50"/>
      <use xlink:href="#ArialMT-72" x="66.699219"/>
      <use xlink:href="#ArialMT-65" x="100"/>
      <use xlink:href="#ArialMT-63" x="155.615234"/>
      <use xlink:href="#ArialMT-69" x="205.615234"/>
      <use xlink:href="#ArialMT-70" x="227.832031"/>
      <use xlink:href="#ArialMT-69" x="283.447266"/>
      <use xlink:href="#ArialMT-74" x="305.664062"/>
      <use xlink:href="#ArialMT-61" x="333.447266"/>
      <use xlink:href="#ArialMT-63" x="389.0625"/>
      <use xlink:href="#ArialMT-69" x="439.0625"/>
      <use xlink:href="#ArialMT-f3" x="461.279297"/>
      <use xlink:href="#ArialMT-6e" x="516.894531"/>
      <use xlink:href="#ArialMT-20" x="572.509766"/>
      <use xlink:href="#ArialMT-28" x="600.292969"/>
      <use xlink:href="#ArialMT-6d" x="633.59375"/>
      <use xlink:href="#ArialMT-6d" x="716.894531"/>
      <use xlink:href="#ArialMT-29" x="800.195312"/>
     </g>
    </g>
   </g>
   <g id="line2d_17">
    <path d="M 79.039574 226.346349 
L 79.795569 172.506846 
L 80.551564 339.35625 
L 81.307559 268.676005 
L 82.063554 235.126413 
L 82.819549 111.355355 
L 83.575545 147.036015 
L 84.33154 135.98834 
L 85.087535 109.200414 
L 85.84353 118.333423 
L 86.599525 197.058467 
L 87.35552 339.35625 
L 88.111515 235.650017 
L 88.86751 270.465643 
L 89.623506 202.222285 
L 90.379501 114.03856 
L 91.135496 73.649339 
L 91.891491 103.80765 
L 92.647486 111.470282 
L 93.403481 98.958265 
L 94.159476 120.608981 
L 94.915471 185.87213 
L 95.671467 339.35625 
L 96.427462 303.401328 
L 97.183457 339.35625 
L 97.939452 339.35625 
L 99.451442 144.624901 
L 100.207437 119.46343 
L 100.963432 80.696751 
L 101.719428 61.560786 
L 102.475423 58.311623 
L 103.231418 159.01911 
L 103.987413 216.679919 
L 104.743408 211.372399 
L 105.499403 177.954147 
L 107.011393 339.35625 
L 107.767389 142.457031 
L 108.523384 110.479318 
L 109.279379 89.707779 
L 110.035374 129.775448 
L 110.791369 105.652136 
L 111.547364 114.792501 
L 112.303359 187.150224 
L 113.059354 277.178375 
L 113.81535 339.35625 
L 114.571345 339.35625 
L 115.32734 195.187371 
L 116.083335 314.508467 
L 116.83933 160.083987 
L 117.595325 209.449723 
L 118.35132 119.505577 
L 119.107315 134.60432 
L 119.86331 141.952529 
L 120.619306 95.470161 
L 121.375301 161.675475 
L 122.131296 339.35625 
L 122.887291 339.35625 
L 123.643286 147.095803 
L 124.399281 339.35625 
L 125.155276 248.309941 
L 125.911271 210.083163 
L 126.667267 135.216424 
L 127.423262 127.698958 
L 128.179257 98.825408 
L 128.935252 63.076906 
L 129.691247 124.546412 
L 130.447242 120.395646 
L 131.203237 199.121927 
L 132.715228 280.279001 
L 133.471223 339.35625 
L 134.227218 157.210332 
L 134.983213 160.947604 
L 135.739208 74.183409 
L 136.495203 124.72587 
L 137.251198 84.823195 
L 138.007193 143.419209 
L 138.763189 133.19434 
L 139.519184 339.35625 
L 140.275179 339.35625 
L 141.031174 267.529745 
L 141.787169 339.35625 
L 144.055154 202.639243 
L 144.81115 142.00842 
L 145.567145 91.649976 
L 146.32314 108.235036 
L 147.079135 107.940146 
L 147.83513 145.14758 
L 148.591125 228.795516 
L 149.34712 288.571835 
L 150.103115 238.359771 
L 150.859111 339.35625 
L 151.615106 249.013343 
L 152.371101 250.824279 
L 153.127096 202.639243 
L 153.883091 126.542534 
L 154.639086 111.202358 
L 155.395081 157.073077 
L 156.151076 103.877881 
L 156.907071 169.081242 
L 157.663067 177.675404 
L 158.419062 243.05808 
L 159.175057 339.35625 
L 160.687047 339.35625 
L 161.443042 161.968751 
L 162.955032 118.541533 
L 163.711028 172.67851 
L 164.467023 129.156334 
L 165.223018 120.523581 
L 165.979013 141.174321 
L 166.735008 180.615289 
L 167.491003 243.681337 
L 168.246998 339.35625 
L 169.002993 339.35625 
L 169.758989 249.369422 
L 170.514984 264.288532 
L 171.270979 159.230808 
L 172.026974 107.06143 
L 172.782969 83.972086 
L 173.538964 97.507539 
L 174.294959 140.076144 
L 175.050954 119.085058 
L 176.562945 339.35625 
L 177.31894 274.33709 
L 178.074935 339.35625 
L 178.83093 242.139191 
L 179.586925 201.534011 
L 180.34292 113.448033 
L 181.098915 91.864909 
L 181.854911 135.730187 
L 182.610906 97.409472 
L 183.366901 93.352452 
L 184.122896 225.913732 
L 184.878891 212.860169 
L 185.634886 321.092525 
L 186.390881 227.667215 
L 187.146876 242.749685 
L 187.902872 265.338192 
L 189.414862 139.424698 
L 190.170857 148.180271 
L 190.926852 125.856521 
L 191.682847 59.713508 
L 192.438842 127.373489 
L 193.194837 138.031829 
L 195.462823 277.927134 
L 196.218818 246.265987 
L 196.974813 120.013021 
L 197.730808 105.330113 
L 198.486803 103.492299 
L 199.242798 121.857277 
L 200.754789 286.53144 
L 201.510784 303.401328 
L 202.266779 178.609236 
L 203.022774 339.35625 
L 203.778769 245.278884 
L 204.534764 177.029605 
L 205.290759 178.609236 
L 206.046754 88.484652 
L 206.80275 221.979136 
L 207.558745 110.176689 
L 208.31474 128.541959 
L 209.070735 125.040874 
L 209.82673 271.082385 
L 210.582725 295.689287 
L 211.33872 286.53144 
L 212.094715 239.77657 
L 212.850711 288.571835 
L 213.606706 166.758874 
L 214.362701 163.75475 
L 215.118696 82.793279 
L 215.874691 152.813683 
L 216.630686 164.665251 
L 217.386681 169.489793 
L 218.142676 133.745256 
L 218.898672 264.809726 
L 219.654667 229.95034 
L 220.410662 228.341092 
L 221.166657 339.35625 
L 221.922652 197.823797 
L 222.678647 243.681337 
L 223.434642 172.421179 
L 224.190637 169.489793 
L 224.946633 118.583217 
L 225.702628 36.95625 
L 226.458623 85.682072 
L 227.214618 166.209934 
L 227.970613 339.35625 
L 228.726608 193.373214 
L 229.482603 339.35625 
L 230.238598 321.092525 
L 230.994594 339.35625 
L 231.750589 321.092525 
L 233.262579 87.306671 
L 234.018574 102.34555 
L 234.774569 131.956356 
L 235.530564 96.337711 
L 236.286559 179.747898 
L 237.042554 241.536876 
L 237.79855 339.35625 
L 239.31054 339.35625 
L 240.066535 244.95472 
L 240.82253 234.866776 
L 241.578525 190.579524 
L 242.33452 110.744994 
L 243.090515 146.381483 
L 243.846511 104.725054 
L 244.602506 71.492131 
L 245.358501 132.696821 
L 246.114496 263.774382 
L 246.870491 236.446536 
L 247.626486 261.30207 
L 248.382481 339.35625 
L 249.138476 217.955176 
L 249.894472 204.626316 
L 251.406462 64.315649 
L 252.162457 85.509667 
L 252.918452 144.163319 
L 253.674447 79.773563 
L 254.430442 158.878328 
L 255.942433 258.977323 
L 256.698428 339.35625 
L 257.454423 257.645287 
L 258.210418 339.35625 
L 258.966413 207.744281 
L 259.722408 155.984403 
L 260.478403 93.790911 
L 261.234398 76.506103 
L 261.990394 117.71218 
L 262.746389 105.116086 
L 263.502384 134.60432 
L 264.258379 303.401328 
L 265.014374 289.645506 
L 265.770369 294.375572 
L 266.526364 339.35625 
L 267.282359 247.962508 
L 268.038355 206.835619 
L 268.79435 175.577015 
L 269.550345 102.03536 
L 270.30634 109.537108 
L 271.062335 187.908092 
L 271.81833 107.646254 
L 272.574325 230.420026 
L 274.086315 339.35625 
L 274.842311 279.47649 
L 275.598306 339.35625 
L 277.110296 339.35625 
L 277.866291 142.064352 
L 278.622286 98.262952 
L 279.378281 81.518815 
L 280.134276 150.272987 
L 280.890272 106.661629 
L 281.646267 139.695464 
L 282.402262 247.962508 
L 283.158257 339.35625 
L 283.914252 339.35625 
L 284.670247 267.529745 
L 285.426242 314.508467 
L 286.182237 214.39001 
L 286.938233 161.45632 
L 288.450223 77.424634 
L 289.206218 137.713928 
L 289.962213 154.845475 
L 290.718208 114.078075 
L 291.474203 197.823797 
L 292.230198 301.671255 
L 292.986194 234.351744 
L 293.742189 255.106604 
L 294.498184 219.832496 
L 295.254179 253.497837 
L 296.010174 108.865026 
L 296.766169 62.236837 
L 297.522164 174.33181 
L 298.278159 121.338454 
L 299.034155 90.280116 
L 299.79015 189.788283 
L 300.546145 241.238707 
L 301.30214 264.809726 
L 302.058135 259.890814 
L 302.81413 264.809726 
L 303.570125 187.799256 
L 304.32612 242.139191 
L 305.082116 198.599218 
L 305.838111 72.640072 
L 306.594106 163.905672 
L 307.350101 153.724227 
L 308.106096 69.697469 
L 308.862091 201.124959 
L 309.618086 260.825979 
L 310.374081 339.35625 
L 311.130077 339.35625 
L 311.886072 225.059552 
L 312.642067 321.092525 
L 313.398062 202.639243 
L 314.154057 153.724227 
L 314.910052 171.994486 
L 315.666047 117.588483 
L 316.422042 135.165232 
L 317.178037 106.408161 
L 317.934033 233.589534 
L 318.690028 258.977323 
L 319.446023 256.356065 
L 320.202018 178.421392 
L 320.958013 339.35625 
L 321.714008 339.35625 
L 322.470003 236.179522 
L 323.225998 156.731087 
L 323.981994 140.898298 
L 324.737989 110.935267 
L 325.493984 96.888242 
L 326.249979 123.522102 
L 327.005974 200.181608 
L 327.761969 183.594609 
L 328.517964 314.508467 
L 329.273959 216.142664 
L 330.029955 212.193903 
L 330.78595 194.455101 
L 331.541945 191.265986 
L 332.29794 157.900591 
L 333.053935 56.95014 
L 334.565925 120.013021 
L 335.32192 151.405411 
L 336.077916 192.662616 
L 336.833911 303.401328 
L 337.589906 295.689287 
L 338.345901 339.35625 
L 339.101896 215.259141 
L 339.857891 262.76636 
L 340.613886 213.70471 
L 341.369881 125.856521 
L 342.125877 152.68453 
L 342.881872 157.141671 
L 343.637867 130.68901 
L 344.393862 186.507902 
L 345.149857 144.105819 
L 345.905852 311.83383 
L 346.661847 339.35625 
L 347.417842 249.013343 
L 348.173838 191.151037 
L 348.929833 227.002393 
L 349.685828 339.35625 
L 350.441823 243.05808 
L 351.197818 119.970615 
L 352.709808 143.305376 
L 353.465803 90.461593 
L 354.221798 179.652239 
L 354.977794 227.89082 
L 355.733789 235.126413 
L 356.489784 207.744281 
L 357.245779 244.313451 
L 358.001774 233.088091 
L 358.757769 339.35625 
L 359.513764 150.210583 
L 360.269759 92.698679 
L 361.025755 118.125829 
L 361.78175 107.609587 
L 362.537745 67.528794 
L 363.29374 184.723061 
L 364.049735 339.35625 
L 364.80573 339.35625 
L 365.561725 321.092525 
L 366.31772 260.355613 
L 367.073716 243.368619 
L 367.829711 184.207624 
L 368.585706 155.51325 
L 369.341701 98.098192 
L 370.097696 108.790671 
L 370.853691 147.335436 
L 371.609686 102.242033 
L 372.365681 210.242669 
L 373.121677 227.223011 
L 373.877672 295.689287 
L 374.633667 339.35625 
L 375.389662 237.805035 
L 376.145657 339.35625 
L 376.901652 167.23292 
L 377.657647 152.170193 
L 378.413642 101.281652 
L 379.169638 111.393647 
L 379.925633 164.512667 
L 380.681628 145.20588 
L 381.437623 167.23292 
L 382.193618 314.508467 
L 382.949613 339.35625 
L 383.705608 339.35625 
L 384.461603 200.584022 
L 385.217599 200.98925 
L 385.973594 181.691609 
L 386.729589 79.046738 
L 387.485584 119.001208 
L 388.241579 170.065943 
L 388.997574 136.50722 
L 389.753569 298.51687 
L 390.509564 307.257329 
L 391.26556 339.35625 
L 392.021555 339.35625 
L 392.77755 228.341092 
L 393.533545 251.570902 
L 394.28954 339.35625 
L 395.045535 193.016868 
L 395.80153 101.554988 
L 396.557525 137.502715 
L 397.31352 90.249904 
L 398.069516 114.434536 
L 398.825511 255.518848 
L 399.581506 339.35625 
L 401.093496 339.35625 
L 401.849491 298.51687 
L 402.605486 267.529745 
L 403.361481 246.265987 
L 404.117477 151.595859 
L 404.873472 117.341634 
L 405.629467 164.512667 
L 406.385462 68.655406 
L 407.141457 142.9649 
L 407.897452 147.515667 
L 408.653447 303.401328 
L 409.409442 272.348639 
L 410.165438 314.508467 
L 410.921433 232.34565 
L 411.677428 281.945137 
L 412.433423 197.695549 
L 413.189418 135.472884 
L 413.945413 96.8233 
L 414.701408 89.767858 
L 415.457403 160.298901 
L 416.213399 110.859107 
L 416.969394 143.876256 
L 417.725389 281.945137 
L 418.481384 339.35625 
L 420.749369 339.35625 
L 421.505364 233.088091 
L 422.26136 149.21923 
L 423.017355 83.100597 
L 424.529345 144.220863 
L 425.28534 104.61871 
L 426.041335 128.966795 
L 426.79733 218.8854 
L 427.553325 339.35625 
L 428.309321 147.937909 
L 429.065316 228.567779 
L 429.821311 249.013343 
L 430.577306 214.39001 
L 431.333301 124.188674 
L 432.089296 149.899352 
L 432.845291 77.26655 
L 433.601286 90.431322 
L 434.357281 113.526534 
L 435.113277 130.882678 
L 435.869272 173.630659 
L 436.625267 281.945137 
L 437.381262 339.35625 
L 438.137257 283.701273 
L 438.893252 281.945137 
L 439.649247 230.656581 
L 440.405242 252.331033 
L 441.161238 88.366181 
L 441.917233 118.208805 
L 442.673228 142.344631 
L 443.429223 86.230121 
L 444.185218 201.124959 
L 444.941213 225.698819 
L 445.697208 339.35625 
L 446.453203 242.749685 
L 447.209199 339.35625 
L 447.965194 339.35625 
L 449.477184 136.977183 
L 450.233179 95.278494 
L 450.989174 133.99695 
L 451.745169 95.246589 
L 452.501164 120.737245 
L 453.25716 131.613156 
L 454.013155 270.465643 
L 454.76915 339.35625 
L 455.525145 205.499672 
L 456.28114 295.689287 
L 457.037135 212.526012 
L 457.79313 225.913732 
L 458.549125 90.461593 
L 459.305121 115.272153 
L 460.061116 114.315549 
L 460.817111 54.447526 
L 462.329101 183.088264 
L 463.085096 339.35625 
L 464.597086 339.35625 
L 465.353082 208.358391 
L 466.109077 173.543534 
L 466.865072 105.508868 
L 467.621067 127.605833 
L 468.377062 86.287997 
L 469.133057 112.1631 
L 469.889052 168.271449 
L 470.645047 339.35625 
L 471.401042 250.455862 
L 472.157038 339.35625 
L 472.913033 321.092525 
L 473.669028 177.121471 
L 474.425023 167.391669 
L 475.181018 142.40081 
L 475.937013 129.251271 
L 476.693008 128.966795 
L 477.449003 114.633219 
L 478.204999 94.864597 
L 478.960994 132.301046 
L 479.716989 245.605455 
L 480.472984 233.842248 
L 481.228979 339.35625 
L 481.984974 298.51687 
L 482.740969 339.35625 
L 483.496964 277.927134 
L 484.25296 244.632922 
L 485.008955 138.939703 
L 485.76495 147.937909 
L 486.520945 99.358019 
L 487.27694 60.688606 
L 488.032935 144.105819 
L 488.78893 208.668011 
L 489.544925 339.35625 
L 490.300921 339.35625 
L 491.056916 307.257329 
L 491.812911 288.571835 
L 492.568906 208.823472 
L 493.324901 148.362563 
L 494.080896 127.003122 
L 494.836891 93.571419 
L 495.592886 96.563995 
L 496.348882 135.78175 
L 497.104877 137.766821 
L 497.860872 277.927134 
L 498.616867 339.35625 
L 499.372862 339.35625 
L 500.128857 286.53144 
L 500.884852 303.401328 
L 501.640847 203.908663 
L 502.396843 130.11081 
L 503.152838 110.479318 
L 503.908833 140.239871 
L 504.664828 144.97295 
L 505.420823 61.718128 
L 506.176818 187.042709 
L 506.932813 270.465643 
L 507.688808 286.53144 
L 508.444804 277.927134 
L 509.200799 307.257329 
L 510.712789 172.764508 
L 511.468784 163.604155 
L 512.224779 105.975347 
L 512.980774 111.970088 
L 513.736769 137.872716 
L 514.492764 79.611569 
L 515.24876 218.325286 
L 516.004755 281.945137 
L 516.76075 277.927134 
L 517.516745 210.563079 
L 518.27274 227.223011 
L 519.028735 232.591854 
L 519.78473 218.698028 
L 520.540725 185.138473 
L 521.296721 102.969205 
L 522.052716 150.272987 
L 522.808711 173.980307 
L 523.564706 102.830235 
L 524.320701 162.559018 
L 525.076696 199.649357 
L 525.832691 339.35625 
L 527.344682 339.35625 
L 528.100677 277.178375 
L 528.856672 253.497837 
L 529.612667 171.994486 
L 530.368662 60.822301 
L 531.124657 185.556653 
L 531.880652 89.858051 
L 532.636647 108.827841 
L 533.392643 105.83155 
L 534.148638 205.499672 
L 534.904633 339.35625 
L 535.660628 211.372399 
L 536.416623 303.401328 
L 538.684608 132.44923 
L 539.440604 106.55291 
L 540.196599 108.530932 
L 540.952594 135.114074 
L 541.708589 74.925784 
L 542.464584 163.005015 
L 543.220579 314.508467 
L 543.976574 339.35625 
L 545.488565 339.35625 
L 546.24456 217.222685 
L 547.000555 220.216218 
L 547.75655 153.462906 
L 548.512545 161.45632 
L 549.26854 125.856521 
L 550.024535 120.951462 
L 550.78053 181.691609 
L 551.536525 190.465861 
L 552.292521 229.95034 
L 553.048516 339.35625 
L 553.804511 307.257329 
L 554.560506 339.35625 
L 555.316501 230.656581 
L 556.072496 170.981385 
L 556.828491 141.785101 
L 558.340482 103.178071 
L 559.096477 113.17385 
L 559.852472 141.785101 
L 560.608467 160.514472 
L 561.364462 216.500228 
L 562.120457 307.257329 
L 562.876452 262.76636 
L 563.632447 198.339604 
L 564.388443 339.35625 
L 565.144438 191.844012 
L 565.900433 117.423836 
L 566.656428 187.582157 
L 567.412423 291.915498 
L 568.168418 339.35625 
L 568.924413 339.35625 
L 569.680408 275.72846 
L 570.436404 274.33709 
L 571.192399 223.188987 
L 571.948394 210.723988 
L 572.704389 77.900449 
L 573.460384 106.444326 
L 574.216379 140.294525 
L 574.972374 104.159367 
L 577.24036 339.35625 
L 577.996355 255.518848 
L 578.75235 232.34565 
L 579.508345 307.257329 
L 580.26434 259.890814 
L 581.020335 187.473892 
L 581.77633 81.684083 
L 582.532326 145.79138 
L 583.288321 120.780044 
L 584.044316 67.982695 
L 584.800311 133.946547 
L 585.556306 230.656581 
L 586.312301 266.417907 
L 586.312301 266.417907 
" clip-path="url(#p1b3f63cd86)" style="fill: none; stroke: #4c72b0; stroke-width: 1.5; stroke-linecap: round"/>
   </g>
   <g id="patch_3">
    <path d="M 53.675938 354.47625 
L 53.675938 21.83625 
" style="fill: none; stroke: #cccccc; stroke-width: 1.25; stroke-linejoin: miter; stroke-linecap: square"/>
   </g>
   <g id="patch_4">
    <path d="M 611.675938 354.47625 
L 611.675938 21.83625 
" style="fill: none; stroke: #cccccc; stroke-width: 1.25; stroke-linejoin: miter; stroke-linecap: square"/>
   </g>
   <g id="patch_5">
    <path d="M 53.675938 354.47625 
L 611.675938 354.47625 
" style="fill: none; stroke: #cccccc; stroke-width: 1.25; stroke-linejoin: miter; stroke-linecap: square"/>
   </g>
   <g id="patch_6">
    <path d="M 53.675938 21.83625 
L 611.675938 21.83625 
" style="fill: none; stroke: #cccccc; stroke-width: 1.25; stroke-linejoin: miter; stroke-linecap: square"/>
   </g>
   <g id="text_19">
    <!-- Yeo-Johnson Estandarizado Precipitación Mensual en el Zócalo de Puebla -->
    <g style="fill: #262626" transform="translate(134.445313 15.83625) scale(0.12 -0.12)">
     <defs>
      <path id="ArialMT-59" d="M 1784 0 
L 1784 1941 
L 19 4581 
L 756 4581 
L 1659 3200 
Q 1909 2813 2125 2425 
Q 2331 2784 2625 3234 
L 3513 4581 
L 4219 4581 
L 2391 1941 
L 2391 0 
L 1784 0 
z
" transform="scale(0.015625)"/>
      <path id="ArialMT-6f" d="M 213 1659 
Q 213 2581 725 3025 
Q 1153 3394 1769 3394 
Q 2453 3394 2887 2945 
Q 3322 2497 3322 1706 
Q 3322 1066 3130 698 
Q 2938 331 2570 128 
Q 2203 -75 1769 -75 
Q 1072 -75 642 372 
Q 213 819 213 1659 
z
M 791 1659 
Q 791 1022 1069 705 
Q 1347 388 1769 388 
Q 2188 388 2466 706 
Q 2744 1025 2744 1678 
Q 2744 2294 2464 2611 
Q 2184 2928 1769 2928 
Q 1347 2928 1069 2612 
Q 791 2297 791 1659 
z
" transform="scale(0.015625)"/>
      <path id="ArialMT-2d" d="M 203 1375 
L 203 1941 
L 1931 1941 
L 1931 1375 
L 203 1375 
z
" transform="scale(0.015625)"/>
      <path id="ArialMT-4a" d="M 184 1300 
L 731 1375 
Q 753 850 928 656 
Q 1103 463 1413 463 
Q 1641 463 1806 567 
Q 1972 672 2034 851 
Q 2097 1031 2097 1425 
L 2097 4581 
L 2703 4581 
L 2703 1459 
Q 2703 884 2564 568 
Q 2425 253 2123 87 
Q 1822 -78 1416 -78 
Q 813 -78 492 269 
Q 172 616 184 1300 
z
" transform="scale(0.015625)"/>
      <path id="ArialMT-73" d="M 197 991 
L 753 1078 
Q 800 744 1014 566 
Q 1228 388 1613 388 
Q 2000 388 2187 545 
Q 2375 703 2375 916 
Q 2375 1106 2209 1216 
Q 2094 1291 1634 1406 
Q 1016 1563 777 1677 
Q 538 1791 414 1992 
Q 291 2194 291 2438 
Q 291 2659 392 2848 
Q 494 3038 669 3163 
Q 800 3259 1026 3326 
Q 1253 3394 1513 3394 
Q 1903 3394 2198 3281 
Q 2494 3169 2634 2976 
Q 2775 2784 2828 2463 
L 2278 2388 
Q 2241 2644 2061 2787 
Q 1881 2931 1553 2931 
Q 1166 2931 1000 2803 
Q 834 2675 834 2503 
Q 834 2394 903 2306 
Q 972 2216 1119 2156 
Q 1203 2125 1616 2013 
Q 2213 1853 2448 1751 
Q 2684 1650 2818 1456 
Q 2953 1263 2953 975 
Q 2953 694 2789 445 
Q 2625 197 2315 61 
Q 2006 -75 1616 -75 
Q 969 -75 630 194 
Q 291 463 197 991 
z
" transform="scale(0.015625)"/>
      <path id="ArialMT-45" d="M 506 0 
L 506 4581 
L 3819 4581 
L 3819 4041 
L 1113 4041 
L 1113 2638 
L 3647 2638 
L 3647 2100 
L 1113 2100 
L 1113 541 
L 3925 541 
L 3925 0 
L 506 0 
z
" transform="scale(0.015625)"/>
      <path id="ArialMT-64" d="M 2575 0 
L 2575 419 
Q 2259 -75 1647 -75 
Q 1250 -75 917 144 
Q 584 363 401 755 
Q 219 1147 219 1656 
Q 219 2153 384 2558 
Q 550 2963 881 3178 
Q 1213 3394 1622 3394 
Q 1922 3394 2156 3267 
Q 2391 3141 2538 2938 
L 2538 4581 
L 3097 4581 
L 3097 0 
L 2575 0 
z
M 797 1656 
Q 797 1019 1065 703 
Q 1334 388 1700 388 
Q 2069 388 2326 689 
Q 2584 991 2584 1609 
Q 2584 2291 2321 2609 
Q 2059 2928 1675 2928 
Q 1300 2928 1048 2622 
Q 797 2316 797 1656 
z
" transform="scale(0.015625)"/>
      <path id="ArialMT-7a" d="M 125 0 
L 125 456 
L 2238 2881 
Q 1878 2863 1603 2863 
L 250 2863 
L 250 3319 
L 2963 3319 
L 2963 2947 
L 1166 841 
L 819 456 
Q 1197 484 1528 484 
L 3063 484 
L 3063 0 
L 125 0 
z
" transform="scale(0.015625)"/>
      <path id="ArialMT-4d" d="M 475 0 
L 475 4581 
L 1388 4581 
L 2472 1338 
Q 2622 884 2691 659 
Q 2769 909 2934 1394 
L 4031 4581 
L 4847 4581 
L 4847 0 
L 4263 0 
L 4263 3834 
L 2931 0 
L 2384 0 
L 1059 3900 
L 1059 0 
L 475 0 
z
" transform="scale(0.015625)"/>
      <path id="ArialMT-75" d="M 2597 0 
L 2597 488 
Q 2209 -75 1544 -75 
Q 1250 -75 995 37 
Q 741 150 617 320 
Q 494 491 444 738 
Q 409 903 409 1263 
L 409 3319 
L 972 3319 
L 972 1478 
Q 972 1038 1006 884 
Q 1059 663 1231 536 
Q 1403 409 1656 409 
Q 1909 409 2131 539 
Q 2353 669 2445 892 
Q 2538 1116 2538 1541 
L 2538 3319 
L 3100 3319 
L 3100 0 
L 2597 0 
z
" transform="scale(0.015625)"/>
      <path id="ArialMT-6c" d="M 409 0 
L 409 4581 
L 972 4581 
L 972 0 
L 409 0 
z
" transform="scale(0.015625)"/>
      <path id="ArialMT-5a" d="M 128 0 
L 128 563 
L 2475 3497 
Q 2725 3809 2950 4041 
L 394 4041 
L 394 4581 
L 3675 4581 
L 3675 4041 
L 1103 863 
L 825 541 
L 3750 541 
L 3750 0 
L 128 0 
z
" transform="scale(0.015625)"/>
      <path id="ArialMT-62" d="M 941 0 
L 419 0 
L 419 4581 
L 981 4581 
L 981 2947 
Q 1338 3394 1891 3394 
Q 2197 3394 2470 3270 
Q 2744 3147 2920 2923 
Q 3097 2700 3197 2384 
Q 3297 2069 3297 1709 
Q 3297 856 2875 390 
Q 2453 -75 1863 -75 
Q 1275 -75 941 416 
L 941 0 
z
M 934 1684 
Q 934 1088 1097 822 
Q 1363 388 1816 388 
Q 2184 388 2453 708 
Q 2722 1028 2722 1663 
Q 2722 2313 2464 2622 
Q 2206 2931 1841 2931 
Q 1472 2931 1203 2611 
Q 934 2291 934 1684 
z
" transform="scale(0.015625)"/>
     </defs>
     <use xlink:href="#ArialMT-59"/>
     <use xlink:href="#ArialMT-65" x="57.574219"/>
     <use xlink:href="#ArialMT-6f" x="113.189453"/>
     <use xlink:href="#ArialMT-2d" x="168.804688"/>
     <use xlink:href="#ArialMT-4a" x="202.105469"/>
     <use xlink:href="#ArialMT-6f" x="252.105469"/>
     <use xlink:href="#ArialMT-68" x="307.720703"/>
     <use xlink:href="#ArialMT-6e" x="363.335938"/>
     <use xlink:href="#ArialMT-73" x="418.951172"/>
     <use xlink:href="#ArialMT-6f" x="468.951172"/>
     <use xlink:href="#ArialMT-6e" x="524.566406"/>
     <use xlink:href="#ArialMT-20" x="580.181641"/>
     <use xlink:href="#ArialMT-45" x="607.964844"/>
     <use xlink:href="#ArialMT-73" x="674.664062"/>
     <use xlink:href="#ArialMT-74" x="724.664062"/>
     <use xlink:href="#ArialMT-61" x="752.447266"/>
     <use xlink:href="#ArialMT-6e" x="808.0625"/>
     <use xlink:href="#ArialMT-64" x="863.677734"/>
     <use xlink:href="#ArialMT-61" x="919.292969"/>
     <use xlink:href="#ArialMT-72" x="974.908203"/>
     <use xlink:href="#ArialMT-69" x="1008.208984"/>
     <use xlink:href="#ArialMT-7a" x="1030.425781"/>
     <use xlink:href="#ArialMT-61" x="1080.425781"/>
     <use xlink:href="#ArialMT-64" x="1136.041016"/>
     <use xlink:href="#ArialMT-6f" x="1191.65625"/>
     <use xlink:href="#ArialMT-20" x="1247.271484"/>
     <use xlink:href="#ArialMT-50" x="1275.054688"/>
     <use xlink:href="#ArialMT-72" x="1341.753906"/>
     <use xlink:href="#ArialMT-65" x="1375.054688"/>
     <use xlink:href="#ArialMT-63" x="1430.669922"/>
     <use xlink:href="#ArialMT-69" x="1480.669922"/>
     <use xlink:href="#ArialMT-70" x="1502.886719"/>
     <use xlink:href="#ArialMT-69" x="1558.501953"/>
     <use xlink:href="#ArialMT-74" x="1580.71875"/>
     <use xlink:href="#ArialMT-61" x="1608.501953"/>
     <use xlink:href="#ArialMT-63" x="1664.117188"/>
     <use xlink:href="#ArialMT-69" x="1714.117188"/>
     <use xlink:href="#ArialMT-f3" x="1736.333984"/>
     <use xlink:href="#ArialMT-6e" x="1791.949219"/>
     <use xlink:href="#ArialMT-20" x="1847.564453"/>
     <use xlink:href="#ArialMT-4d" x="1875.347656"/>
     <use xlink:href="#ArialMT-65" x="1958.648438"/>
     <use xlink:href="#ArialMT-6e" x="2014.263672"/>
     <use xlink:href="#ArialMT-73" x="2069.878906"/>
     <use xlink:href="#ArialMT-75" x="2119.878906"/>
     <use xlink:href="#ArialMT-61" x="2175.494141"/>
     <use xlink:href="#ArialMT-6c" x="2231.109375"/>
     <use xlink:href="#ArialMT-20" x="2253.326172"/>
     <use xlink:href="#ArialMT-65" x="2281.109375"/>
     <use xlink:href="#ArialMT-6e" x="2336.724609"/>
     <use xlink:href="#ArialMT-20" x="2392.339844"/>
     <use xlink:href="#ArialMT-65" x="2420.123047"/>
     <use xlink:href="#ArialMT-6c" x="2475.738281"/>
     <use xlink:href="#ArialMT-20" x="2497.955078"/>
     <use xlink:href="#ArialMT-5a" x="2525.738281"/>
     <use xlink:href="#ArialMT-f3" x="2586.822266"/>
     <use xlink:href="#ArialMT-63" x="2642.4375"/>
     <use xlink:href="#ArialMT-61" x="2692.4375"/>
     <use xlink:href="#ArialMT-6c" x="2748.052734"/>
     <use xlink:href="#ArialMT-6f" x="2770.269531"/>
     <use xlink:href="#ArialMT-20" x="2825.884766"/>
     <use xlink:href="#ArialMT-64" x="2853.667969"/>
     <use xlink:href="#ArialMT-65" x="2909.283203"/>
     <use xlink:href="#ArialMT-20" x="2964.898438"/>
     <use xlink:href="#ArialMT-50" x="2992.681641"/>
     <use xlink:href="#ArialMT-75" x="3059.380859"/>
     <use xlink:href="#ArialMT-65" x="3114.996094"/>
     <use xlink:href="#ArialMT-62" x="3170.611328"/>
     <use xlink:href="#ArialMT-6c" x="3226.226562"/>
     <use xlink:href="#ArialMT-61" x="3248.443359"/>
    </g>
   </g>
  </g>
 </g>
 <defs>
  <clipPath id="p1b3f63cd86">
   <rect x="53.675938" y="21.83625" width="558" height="332.64"/>
  </clipPath>
 </defs>
</svg>
