<?xml version="1.0" encoding="utf-8" standalone="no"?>
<!DOCTYPE svg PUBLIC "-//W3C//DTD SVG 1.1//EN"
  "http://www.w3.org/Graphics/SVG/1.1/DTD/svg11.dtd">
<svg xmlns:xlink="http://www.w3.org/1999/xlink" width="729.02pt" height="397.094062pt" viewBox="0 0 729.02 397.094062" xmlns="http://www.w3.org/2000/svg" version="1.1">
 <metadata>
  <rdf:RDF xmlns:dc="http://purl.org/dc/elements/1.1/" xmlns:cc="http://creativecommons.org/ns#" xmlns:rdf="http://www.w3.org/1999/02/22-rdf-syntax-ns#">
   <cc:Work>
    <dc:type rdf:resource="http://purl.org/dc/dcmitype/StillImage"/>
    <dc:date>2025-04-24T15:30:37.455076</dc:date>
    <dc:format>image/svg+xml</dc:format>
    <dc:creator>
     <cc:Agent>
      <dc:title>Matplotlib v3.10.1, https://matplotlib.org/</dc:title>
     </cc:Agent>
    </dc:creator>
   </cc:Work>
  </rdf:RDF>
 </metadata>
 <defs>
  <style type="text/css">*{stroke-linejoin: round; stroke-linecap: butt}</style>
 </defs>
 <g id="figure_1">
  <g id="patch_1">
   <path d="M 0 397.094062 
L 729.02 397.094062 
L 729.02 0 
L 0 0 
z
" style="fill: #ffffff"/>
  </g>
  <g id="axes_1">
   <g id="patch_2">
    <path d="M 52.22 357.037812 
L 721.82 357.037812 
L 721.82 24.397812 
L 52.22 24.397812 
z
" style="fill: #ffffff"/>
   </g>
   <g id="matplotlib.axis_1">
    <g id="xtick_1">
     <g id="line2d_1">
      <path d="M 53.386144 357.037812 
L 53.386144 24.397812 
" clip-path="url(#p44774a44e0)" style="fill: none; stroke-dasharray: 1.85,0.8; stroke-dashoffset: 0; stroke: #808080; stroke-width: 0.5"/>
     </g>
     <g id="text_1">
      <!-- 1950 -->
      <g style="fill: #262626" transform="translate(43.206144 372.616562) scale(0.08 -0.08)">
       <defs>
        <path id="DejaVuSans-31" d="M 794 531 
L 1825 531 
L 1825 4091 
L 703 3866 
L 703 4441 
L 1819 4666 
L 2450 4666 
L 2450 531 
L 3481 531 
L 3481 0 
L 794 0 
L 794 531 
z
" transform="scale(0.015625)"/>
        <path id="DejaVuSans-39" d="M 703 97 
L 703 672 
Q 941 559 1184 500 
Q 1428 441 1663 441 
Q 2288 441 2617 861 
Q 2947 1281 2994 2138 
Q 2813 1869 2534 1725 
Q 2256 1581 1919 1581 
Q 1219 1581 811 2004 
Q 403 2428 403 3163 
Q 403 3881 828 4315 
Q 1253 4750 1959 4750 
Q 2769 4750 3195 4129 
Q 3622 3509 3622 2328 
Q 3622 1225 3098 567 
Q 2575 -91 1691 -91 
Q 1453 -91 1209 -44 
Q 966 3 703 97 
z
M 1959 2075 
Q 2384 2075 2632 2365 
Q 2881 2656 2881 3163 
Q 2881 3666 2632 3958 
Q 2384 4250 1959 4250 
Q 1534 4250 1286 3958 
Q 1038 3666 1038 3163 
Q 1038 2656 1286 2365 
Q 1534 2075 1959 2075 
z
" transform="scale(0.015625)"/>
        <path id="DejaVuSans-35" d="M 691 4666 
L 3169 4666 
L 3169 4134 
L 1269 4134 
L 1269 2991 
Q 1406 3038 1543 3061 
Q 1681 3084 1819 3084 
Q 2600 3084 3056 2656 
Q 3513 2228 3513 1497 
Q 3513 744 3044 326 
Q 2575 -91 1722 -91 
Q 1428 -91 1123 -41 
Q 819 9 494 109 
L 494 744 
Q 775 591 1075 516 
Q 1375 441 1709 441 
Q 2250 441 2565 725 
Q 2881 1009 2881 1497 
Q 2881 1984 2565 2268 
Q 2250 2553 1709 2553 
Q 1456 2553 1204 2497 
Q 953 2441 691 2322 
L 691 4666 
z
" transform="scale(0.015625)"/>
        <path id="DejaVuSans-30" d="M 2034 4250 
Q 1547 4250 1301 3770 
Q 1056 3291 1056 2328 
Q 1056 1369 1301 889 
Q 1547 409 2034 409 
Q 2525 409 2770 889 
Q 3016 1369 3016 2328 
Q 3016 3291 2770 3770 
Q 2525 4250 2034 4250 
z
M 2034 4750 
Q 2819 4750 3233 4129 
Q 3647 3509 3647 2328 
Q 3647 1150 3233 529 
Q 2819 -91 2034 -91 
Q 1250 -91 836 529 
Q 422 1150 422 2328 
Q 422 3509 836 4129 
Q 1250 4750 2034 4750 
z
" transform="scale(0.015625)"/>
       </defs>
       <use xlink:href="#DejaVuSans-31"/>
       <use xlink:href="#DejaVuSans-39" transform="translate(63.623047 0)"/>
       <use xlink:href="#DejaVuSans-35" transform="translate(127.246094 0)"/>
       <use xlink:href="#DejaVuSans-30" transform="translate(190.869141 0)"/>
      </g>
     </g>
    </g>
    <g id="xtick_2">
     <g id="line2d_2">
      <path d="M 159.85511 357.037812 
L 159.85511 24.397812 
" clip-path="url(#p44774a44e0)" style="fill: none; stroke-dasharray: 1.85,0.8; stroke-dashoffset: 0; stroke: #808080; stroke-width: 0.5"/>
     </g>
     <g id="text_2">
      <!-- 1960 -->
      <g style="fill: #262626" transform="translate(149.67511 372.616562) scale(0.08 -0.08)">
       <defs>
        <path id="DejaVuSans-36" d="M 2113 2584 
Q 1688 2584 1439 2293 
Q 1191 2003 1191 1497 
Q 1191 994 1439 701 
Q 1688 409 2113 409 
Q 2538 409 2786 701 
Q 3034 994 3034 1497 
Q 3034 2003 2786 2293 
Q 2538 2584 2113 2584 
z
M 3366 4563 
L 3366 3988 
Q 3128 4100 2886 4159 
Q 2644 4219 2406 4219 
Q 1781 4219 1451 3797 
Q 1122 3375 1075 2522 
Q 1259 2794 1537 2939 
Q 1816 3084 2150 3084 
Q 2853 3084 3261 2657 
Q 3669 2231 3669 1497 
Q 3669 778 3244 343 
Q 2819 -91 2113 -91 
Q 1303 -91 875 529 
Q 447 1150 447 2328 
Q 447 3434 972 4092 
Q 1497 4750 2381 4750 
Q 2619 4750 2861 4703 
Q 3103 4656 3366 4563 
z
" transform="scale(0.015625)"/>
       </defs>
       <use xlink:href="#DejaVuSans-31"/>
       <use xlink:href="#DejaVuSans-39" transform="translate(63.623047 0)"/>
       <use xlink:href="#DejaVuSans-36" transform="translate(127.246094 0)"/>
       <use xlink:href="#DejaVuSans-30" transform="translate(190.869141 0)"/>
      </g>
     </g>
    </g>
    <g id="xtick_3">
     <g id="line2d_3">
      <path d="M 266.353229 357.037812 
L 266.353229 24.397812 
" clip-path="url(#p44774a44e0)" style="fill: none; stroke-dasharray: 1.85,0.8; stroke-dashoffset: 0; stroke: #808080; stroke-width: 0.5"/>
     </g>
     <g id="text_3">
      <!-- 1970 -->
      <g style="fill: #262626" transform="translate(256.173229 372.616562) scale(0.08 -0.08)">
       <defs>
        <path id="DejaVuSans-37" d="M 525 4666 
L 3525 4666 
L 3525 4397 
L 1831 0 
L 1172 0 
L 2766 4134 
L 525 4134 
L 525 4666 
z
" transform="scale(0.015625)"/>
       </defs>
       <use xlink:href="#DejaVuSans-31"/>
       <use xlink:href="#DejaVuSans-39" transform="translate(63.623047 0)"/>
       <use xlink:href="#DejaVuSans-37" transform="translate(127.246094 0)"/>
       <use xlink:href="#DejaVuSans-30" transform="translate(190.869141 0)"/>
      </g>
     </g>
    </g>
    <g id="xtick_4">
     <g id="line2d_4">
      <path d="M 372.822194 357.037812 
L 372.822194 24.397812 
" clip-path="url(#p44774a44e0)" style="fill: none; stroke-dasharray: 1.85,0.8; stroke-dashoffset: 0; stroke: #808080; stroke-width: 0.5"/>
     </g>
     <g id="text_4">
      <!-- 1980 -->
      <g style="fill: #262626" transform="translate(362.642194 372.616562) scale(0.08 -0.08)">
       <defs>
        <path id="DejaVuSans-38" d="M 2034 2216 
Q 1584 2216 1326 1975 
Q 1069 1734 1069 1313 
Q 1069 891 1326 650 
Q 1584 409 2034 409 
Q 2484 409 2743 651 
Q 3003 894 3003 1313 
Q 3003 1734 2745 1975 
Q 2488 2216 2034 2216 
z
M 1403 2484 
Q 997 2584 770 2862 
Q 544 3141 544 3541 
Q 544 4100 942 4425 
Q 1341 4750 2034 4750 
Q 2731 4750 3128 4425 
Q 3525 4100 3525 3541 
Q 3525 3141 3298 2862 
Q 3072 2584 2669 2484 
Q 3125 2378 3379 2068 
Q 3634 1759 3634 1313 
Q 3634 634 3220 271 
Q 2806 -91 2034 -91 
Q 1263 -91 848 271 
Q 434 634 434 1313 
Q 434 1759 690 2068 
Q 947 2378 1403 2484 
z
M 1172 3481 
Q 1172 3119 1398 2916 
Q 1625 2713 2034 2713 
Q 2441 2713 2670 2916 
Q 2900 3119 2900 3481 
Q 2900 3844 2670 4047 
Q 2441 4250 2034 4250 
Q 1625 4250 1398 4047 
Q 1172 3844 1172 3481 
z
" transform="scale(0.015625)"/>
       </defs>
       <use xlink:href="#DejaVuSans-31"/>
       <use xlink:href="#DejaVuSans-39" transform="translate(63.623047 0)"/>
       <use xlink:href="#DejaVuSans-38" transform="translate(127.246094 0)"/>
       <use xlink:href="#DejaVuSans-30" transform="translate(190.869141 0)"/>
      </g>
     </g>
    </g>
    <g id="xtick_5">
     <g id="line2d_5">
      <path d="M 479.320313 357.037812 
L 479.320313 24.397812 
" clip-path="url(#p44774a44e0)" style="fill: none; stroke-dasharray: 1.85,0.8; stroke-dashoffset: 0; stroke: #808080; stroke-width: 0.5"/>
     </g>
     <g id="text_5">
      <!-- 1990 -->
      <g style="fill: #262626" transform="translate(469.140313 372.616562) scale(0.08 -0.08)">
       <use xlink:href="#DejaVuSans-31"/>
       <use xlink:href="#DejaVuSans-39" transform="translate(63.623047 0)"/>
       <use xlink:href="#DejaVuSans-39" transform="translate(127.246094 0)"/>
       <use xlink:href="#DejaVuSans-30" transform="translate(190.869141 0)"/>
      </g>
     </g>
    </g>
    <g id="xtick_6">
     <g id="line2d_6">
      <path d="M 585.789279 357.037812 
L 585.789279 24.397812 
" clip-path="url(#p44774a44e0)" style="fill: none; stroke-dasharray: 1.85,0.8; stroke-dashoffset: 0; stroke: #808080; stroke-width: 0.5"/>
     </g>
     <g id="text_6">
      <!-- 2000 -->
      <g style="fill: #262626" transform="translate(575.609279 372.616562) scale(0.08 -0.08)">
       <defs>
        <path id="DejaVuSans-32" d="M 1228 531 
L 3431 531 
L 3431 0 
L 469 0 
L 469 531 
Q 828 903 1448 1529 
Q 2069 2156 2228 2338 
Q 2531 2678 2651 2914 
Q 2772 3150 2772 3378 
Q 2772 3750 2511 3984 
Q 2250 4219 1831 4219 
Q 1534 4219 1204 4116 
Q 875 4013 500 3803 
L 500 4441 
Q 881 4594 1212 4672 
Q 1544 4750 1819 4750 
Q 2544 4750 2975 4387 
Q 3406 4025 3406 3419 
Q 3406 3131 3298 2873 
Q 3191 2616 2906 2266 
Q 2828 2175 2409 1742 
Q 1991 1309 1228 531 
z
" transform="scale(0.015625)"/>
       </defs>
       <use xlink:href="#DejaVuSans-32"/>
       <use xlink:href="#DejaVuSans-30" transform="translate(63.623047 0)"/>
       <use xlink:href="#DejaVuSans-30" transform="translate(127.246094 0)"/>
       <use xlink:href="#DejaVuSans-30" transform="translate(190.869141 0)"/>
      </g>
     </g>
    </g>
    <g id="xtick_7">
     <g id="line2d_7">
      <path d="M 692.287398 357.037812 
L 692.287398 24.397812 
" clip-path="url(#p44774a44e0)" style="fill: none; stroke-dasharray: 1.85,0.8; stroke-dashoffset: 0; stroke: #808080; stroke-width: 0.5"/>
     </g>
     <g id="text_7">
      <!-- 2010 -->
      <g style="fill: #262626" transform="translate(682.107398 372.616562) scale(0.08 -0.08)">
       <use xlink:href="#DejaVuSans-32"/>
       <use xlink:href="#DejaVuSans-30" transform="translate(63.623047 0)"/>
       <use xlink:href="#DejaVuSans-31" transform="translate(127.246094 0)"/>
       <use xlink:href="#DejaVuSans-30" transform="translate(190.869141 0)"/>
      </g>
     </g>
    </g>
    <g id="text_8">
     <!-- Fecha -->
     <g style="fill: #262626" transform="translate(369.42875 387.398437) scale(0.12 -0.12)">
      <defs>
       <path id="DejaVuSans-46" d="M 628 4666 
L 3309 4666 
L 3309 4134 
L 1259 4134 
L 1259 2759 
L 3109 2759 
L 3109 2228 
L 1259 2228 
L 1259 0 
L 628 0 
L 628 4666 
z
" transform="scale(0.015625)"/>
       <path id="DejaVuSans-65" d="M 3597 1894 
L 3597 1613 
L 953 1613 
Q 991 1019 1311 708 
Q 1631 397 2203 397 
Q 2534 397 2845 478 
Q 3156 559 3463 722 
L 3463 178 
Q 3153 47 2828 -22 
Q 2503 -91 2169 -91 
Q 1331 -91 842 396 
Q 353 884 353 1716 
Q 353 2575 817 3079 
Q 1281 3584 2069 3584 
Q 2775 3584 3186 3129 
Q 3597 2675 3597 1894 
z
M 3022 2063 
Q 3016 2534 2758 2815 
Q 2500 3097 2075 3097 
Q 1594 3097 1305 2825 
Q 1016 2553 972 2059 
L 3022 2063 
z
" transform="scale(0.015625)"/>
       <path id="DejaVuSans-63" d="M 3122 3366 
L 3122 2828 
Q 2878 2963 2633 3030 
Q 2388 3097 2138 3097 
Q 1578 3097 1268 2742 
Q 959 2388 959 1747 
Q 959 1106 1268 751 
Q 1578 397 2138 397 
Q 2388 397 2633 464 
Q 2878 531 3122 666 
L 3122 134 
Q 2881 22 2623 -34 
Q 2366 -91 2075 -91 
Q 1284 -91 818 406 
Q 353 903 353 1747 
Q 353 2603 823 3093 
Q 1294 3584 2113 3584 
Q 2378 3584 2631 3529 
Q 2884 3475 3122 3366 
z
" transform="scale(0.015625)"/>
       <path id="DejaVuSans-68" d="M 3513 2113 
L 3513 0 
L 2938 0 
L 2938 2094 
Q 2938 2591 2744 2837 
Q 2550 3084 2163 3084 
Q 1697 3084 1428 2787 
Q 1159 2491 1159 1978 
L 1159 0 
L 581 0 
L 581 4863 
L 1159 4863 
L 1159 2956 
Q 1366 3272 1645 3428 
Q 1925 3584 2291 3584 
Q 2894 3584 3203 3211 
Q 3513 2838 3513 2113 
z
" transform="scale(0.015625)"/>
       <path id="DejaVuSans-61" d="M 2194 1759 
Q 1497 1759 1228 1600 
Q 959 1441 959 1056 
Q 959 750 1161 570 
Q 1363 391 1709 391 
Q 2188 391 2477 730 
Q 2766 1069 2766 1631 
L 2766 1759 
L 2194 1759 
z
M 3341 1997 
L 3341 0 
L 2766 0 
L 2766 531 
Q 2569 213 2275 61 
Q 1981 -91 1556 -91 
Q 1019 -91 701 211 
Q 384 513 384 1019 
Q 384 1609 779 1909 
Q 1175 2209 1959 2209 
L 2766 2209 
L 2766 2266 
Q 2766 2663 2505 2880 
Q 2244 3097 1772 3097 
Q 1472 3097 1187 3025 
Q 903 2953 641 2809 
L 641 3341 
Q 956 3463 1253 3523 
Q 1550 3584 1831 3584 
Q 2591 3584 2966 3190 
Q 3341 2797 3341 1997 
z
" transform="scale(0.015625)"/>
      </defs>
      <use xlink:href="#DejaVuSans-46"/>
      <use xlink:href="#DejaVuSans-65" transform="translate(52.019531 0)"/>
      <use xlink:href="#DejaVuSans-63" transform="translate(113.542969 0)"/>
      <use xlink:href="#DejaVuSans-68" transform="translate(168.523438 0)"/>
      <use xlink:href="#DejaVuSans-61" transform="translate(231.902344 0)"/>
     </g>
    </g>
   </g>
   <g id="matplotlib.axis_2">
    <g id="ytick_1">
     <g id="line2d_8">
      <path d="M 52.22 330.389609 
L 721.82 330.389609 
" clip-path="url(#p44774a44e0)" style="fill: none; stroke-dasharray: 1.85,0.8; stroke-dashoffset: 0; stroke: #808080; stroke-width: 0.5"/>
     </g>
     <g id="text_9">
      <!-- −1.5 -->
      <g style="fill: #262626" transform="translate(23.29375 333.428984) scale(0.08 -0.08)">
       <defs>
        <path id="DejaVuSans-2212" d="M 678 2272 
L 4684 2272 
L 4684 1741 
L 678 1741 
L 678 2272 
z
" transform="scale(0.015625)"/>
        <path id="DejaVuSans-2e" d="M 684 794 
L 1344 794 
L 1344 0 
L 684 0 
L 684 794 
z
" transform="scale(0.015625)"/>
       </defs>
       <use xlink:href="#DejaVuSans-2212"/>
       <use xlink:href="#DejaVuSans-31" transform="translate(83.789062 0)"/>
       <use xlink:href="#DejaVuSans-2e" transform="translate(147.412109 0)"/>
       <use xlink:href="#DejaVuSans-35" transform="translate(179.199219 0)"/>
      </g>
     </g>
    </g>
    <g id="ytick_2">
     <g id="line2d_9">
      <path d="M 52.22 287.954574 
L 721.82 287.954574 
" clip-path="url(#p44774a44e0)" style="fill: none; stroke-dasharray: 1.85,0.8; stroke-dashoffset: 0; stroke: #808080; stroke-width: 0.5"/>
     </g>
     <g id="text_10">
      <!-- −1.0 -->
      <g style="fill: #262626" transform="translate(23.29375 290.993949) scale(0.08 -0.08)">
       <use xlink:href="#DejaVuSans-2212"/>
       <use xlink:href="#DejaVuSans-31" transform="translate(83.789062 0)"/>
       <use xlink:href="#DejaVuSans-2e" transform="translate(147.412109 0)"/>
       <use xlink:href="#DejaVuSans-30" transform="translate(179.199219 0)"/>
      </g>
     </g>
    </g>
    <g id="ytick_3">
     <g id="line2d_10">
      <path d="M 52.22 245.519538 
L 721.82 245.519538 
" clip-path="url(#p44774a44e0)" style="fill: none; stroke-dasharray: 1.85,0.8; stroke-dashoffset: 0; stroke: #808080; stroke-width: 0.5"/>
     </g>
     <g id="text_11">
      <!-- −0.5 -->
      <g style="fill: #262626" transform="translate(23.29375 248.558913) scale(0.08 -0.08)">
       <use xlink:href="#DejaVuSans-2212"/>
       <use xlink:href="#DejaVuSans-30" transform="translate(83.789062 0)"/>
       <use xlink:href="#DejaVuSans-2e" transform="translate(147.412109 0)"/>
       <use xlink:href="#DejaVuSans-35" transform="translate(179.199219 0)"/>
      </g>
     </g>
    </g>
    <g id="ytick_4">
     <g id="line2d_11">
      <path d="M 52.22 203.084503 
L 721.82 203.084503 
" clip-path="url(#p44774a44e0)" style="fill: none; stroke-dasharray: 1.85,0.8; stroke-dashoffset: 0; stroke: #808080; stroke-width: 0.5"/>
     </g>
     <g id="text_12">
      <!-- 0.0 -->
      <g style="fill: #262626" transform="translate(29.9975 206.123878) scale(0.08 -0.08)">
       <use xlink:href="#DejaVuSans-30"/>
       <use xlink:href="#DejaVuSans-2e" transform="translate(63.623047 0)"/>
       <use xlink:href="#DejaVuSans-30" transform="translate(95.410156 0)"/>
      </g>
     </g>
    </g>
    <g id="ytick_5">
     <g id="line2d_12">
      <path d="M 52.22 160.649467 
L 721.82 160.649467 
" clip-path="url(#p44774a44e0)" style="fill: none; stroke-dasharray: 1.85,0.8; stroke-dashoffset: 0; stroke: #808080; stroke-width: 0.5"/>
     </g>
     <g id="text_13">
      <!-- 0.5 -->
      <g style="fill: #262626" transform="translate(29.9975 163.688842) scale(0.08 -0.08)">
       <use xlink:href="#DejaVuSans-30"/>
       <use xlink:href="#DejaVuSans-2e" transform="translate(63.623047 0)"/>
       <use xlink:href="#DejaVuSans-35" transform="translate(95.410156 0)"/>
      </g>
     </g>
    </g>
    <g id="ytick_6">
     <g id="line2d_13">
      <path d="M 52.22 118.214432 
L 721.82 118.214432 
" clip-path="url(#p44774a44e0)" style="fill: none; stroke-dasharray: 1.85,0.8; stroke-dashoffset: 0; stroke: #808080; stroke-width: 0.5"/>
     </g>
     <g id="text_14">
      <!-- 1.0 -->
      <g style="fill: #262626" transform="translate(29.9975 121.253807) scale(0.08 -0.08)">
       <use xlink:href="#DejaVuSans-31"/>
       <use xlink:href="#DejaVuSans-2e" transform="translate(63.623047 0)"/>
       <use xlink:href="#DejaVuSans-30" transform="translate(95.410156 0)"/>
      </g>
     </g>
    </g>
    <g id="ytick_7">
     <g id="line2d_14">
      <path d="M 52.22 75.779396 
L 721.82 75.779396 
" clip-path="url(#p44774a44e0)" style="fill: none; stroke-dasharray: 1.85,0.8; stroke-dashoffset: 0; stroke: #808080; stroke-width: 0.5"/>
     </g>
     <g id="text_15">
      <!-- 1.5 -->
      <g style="fill: #262626" transform="translate(29.9975 78.818771) scale(0.08 -0.08)">
       <use xlink:href="#DejaVuSans-31"/>
       <use xlink:href="#DejaVuSans-2e" transform="translate(63.623047 0)"/>
       <use xlink:href="#DejaVuSans-35" transform="translate(95.410156 0)"/>
      </g>
     </g>
    </g>
    <g id="ytick_8">
     <g id="line2d_15">
      <path d="M 52.22 33.344361 
L 721.82 33.344361 
" clip-path="url(#p44774a44e0)" style="fill: none; stroke-dasharray: 1.85,0.8; stroke-dashoffset: 0; stroke: #808080; stroke-width: 0.5"/>
     </g>
     <g id="text_16">
      <!-- 2.0 -->
      <g style="fill: #262626" transform="translate(29.9975 36.383736) scale(0.08 -0.08)">
       <use xlink:href="#DejaVuSans-32"/>
       <use xlink:href="#DejaVuSans-2e" transform="translate(63.623047 0)"/>
       <use xlink:href="#DejaVuSans-30" transform="translate(95.410156 0)"/>
      </g>
     </g>
    </g>
    <g id="text_17">
     <!-- Precipitación (mm) -->
     <g style="fill: #262626" transform="translate(16.798125 247.442187) rotate(-90) scale(0.12 -0.12)">
      <defs>
       <path id="DejaVuSans-50" d="M 1259 4147 
L 1259 2394 
L 2053 2394 
Q 2494 2394 2734 2622 
Q 2975 2850 2975 3272 
Q 2975 3691 2734 3919 
Q 2494 4147 2053 4147 
L 1259 4147 
z
M 628 4666 
L 2053 4666 
Q 2838 4666 3239 4311 
Q 3641 3956 3641 3272 
Q 3641 2581 3239 2228 
Q 2838 1875 2053 1875 
L 1259 1875 
L 1259 0 
L 628 0 
L 628 4666 
z
" transform="scale(0.015625)"/>
       <path id="DejaVuSans-72" d="M 2631 2963 
Q 2534 3019 2420 3045 
Q 2306 3072 2169 3072 
Q 1681 3072 1420 2755 
Q 1159 2438 1159 1844 
L 1159 0 
L 581 0 
L 581 3500 
L 1159 3500 
L 1159 2956 
Q 1341 3275 1631 3429 
Q 1922 3584 2338 3584 
Q 2397 3584 2469 3576 
Q 2541 3569 2628 3553 
L 2631 2963 
z
" transform="scale(0.015625)"/>
       <path id="DejaVuSans-69" d="M 603 3500 
L 1178 3500 
L 1178 0 
L 603 0 
L 603 3500 
z
M 603 4863 
L 1178 4863 
L 1178 4134 
L 603 4134 
L 603 4863 
z
" transform="scale(0.015625)"/>
       <path id="DejaVuSans-70" d="M 1159 525 
L 1159 -1331 
L 581 -1331 
L 581 3500 
L 1159 3500 
L 1159 2969 
Q 1341 3281 1617 3432 
Q 1894 3584 2278 3584 
Q 2916 3584 3314 3078 
Q 3713 2572 3713 1747 
Q 3713 922 3314 415 
Q 2916 -91 2278 -91 
Q 1894 -91 1617 61 
Q 1341 213 1159 525 
z
M 3116 1747 
Q 3116 2381 2855 2742 
Q 2594 3103 2138 3103 
Q 1681 3103 1420 2742 
Q 1159 2381 1159 1747 
Q 1159 1113 1420 752 
Q 1681 391 2138 391 
Q 2594 391 2855 752 
Q 3116 1113 3116 1747 
z
" transform="scale(0.015625)"/>
       <path id="DejaVuSans-74" d="M 1172 4494 
L 1172 3500 
L 2356 3500 
L 2356 3053 
L 1172 3053 
L 1172 1153 
Q 1172 725 1289 603 
Q 1406 481 1766 481 
L 2356 481 
L 2356 0 
L 1766 0 
Q 1100 0 847 248 
Q 594 497 594 1153 
L 594 3053 
L 172 3053 
L 172 3500 
L 594 3500 
L 594 4494 
L 1172 4494 
z
" transform="scale(0.015625)"/>
       <path id="DejaVuSans-f3" d="M 1959 3097 
Q 1497 3097 1228 2736 
Q 959 2375 959 1747 
Q 959 1119 1226 758 
Q 1494 397 1959 397 
Q 2419 397 2687 759 
Q 2956 1122 2956 1747 
Q 2956 2369 2687 2733 
Q 2419 3097 1959 3097 
z
M 1959 3584 
Q 2709 3584 3137 3096 
Q 3566 2609 3566 1747 
Q 3566 888 3137 398 
Q 2709 -91 1959 -91 
Q 1206 -91 779 398 
Q 353 888 353 1747 
Q 353 2609 779 3096 
Q 1206 3584 1959 3584 
z
M 2394 5119 
L 3016 5119 
L 1998 3944 
L 1519 3944 
L 2394 5119 
z
" transform="scale(0.015625)"/>
       <path id="DejaVuSans-6e" d="M 3513 2113 
L 3513 0 
L 2938 0 
L 2938 2094 
Q 2938 2591 2744 2837 
Q 2550 3084 2163 3084 
Q 1697 3084 1428 2787 
Q 1159 2491 1159 1978 
L 1159 0 
L 581 0 
L 581 3500 
L 1159 3500 
L 1159 2956 
Q 1366 3272 1645 3428 
Q 1925 3584 2291 3584 
Q 2894 3584 3203 3211 
Q 3513 2838 3513 2113 
z
" transform="scale(0.015625)"/>
       <path id="DejaVuSans-20" transform="scale(0.015625)"/>
       <path id="DejaVuSans-28" d="M 1984 4856 
Q 1566 4138 1362 3434 
Q 1159 2731 1159 2009 
Q 1159 1288 1364 580 
Q 1569 -128 1984 -844 
L 1484 -844 
Q 1016 -109 783 600 
Q 550 1309 550 2009 
Q 550 2706 781 3412 
Q 1013 4119 1484 4856 
L 1984 4856 
z
" transform="scale(0.015625)"/>
       <path id="DejaVuSans-6d" d="M 3328 2828 
Q 3544 3216 3844 3400 
Q 4144 3584 4550 3584 
Q 5097 3584 5394 3201 
Q 5691 2819 5691 2113 
L 5691 0 
L 5113 0 
L 5113 2094 
Q 5113 2597 4934 2840 
Q 4756 3084 4391 3084 
Q 3944 3084 3684 2787 
Q 3425 2491 3425 1978 
L 3425 0 
L 2847 0 
L 2847 2094 
Q 2847 2600 2669 2842 
Q 2491 3084 2119 3084 
Q 1678 3084 1418 2786 
Q 1159 2488 1159 1978 
L 1159 0 
L 581 0 
L 581 3500 
L 1159 3500 
L 1159 2956 
Q 1356 3278 1631 3431 
Q 1906 3584 2284 3584 
Q 2666 3584 2933 3390 
Q 3200 3197 3328 2828 
z
" transform="scale(0.015625)"/>
       <path id="DejaVuSans-29" d="M 513 4856 
L 1013 4856 
Q 1481 4119 1714 3412 
Q 1947 2706 1947 2009 
Q 1947 1309 1714 600 
Q 1481 -109 1013 -844 
L 513 -844 
Q 928 -128 1133 580 
Q 1338 1288 1338 2009 
Q 1338 2731 1133 3434 
Q 928 4138 513 4856 
z
" transform="scale(0.015625)"/>
      </defs>
      <use xlink:href="#DejaVuSans-50"/>
      <use xlink:href="#DejaVuSans-72" transform="translate(58.552734 0)"/>
      <use xlink:href="#DejaVuSans-65" transform="translate(97.416016 0)"/>
      <use xlink:href="#DejaVuSans-63" transform="translate(158.939453 0)"/>
      <use xlink:href="#DejaVuSans-69" transform="translate(213.919922 0)"/>
      <use xlink:href="#DejaVuSans-70" transform="translate(241.703125 0)"/>
      <use xlink:href="#DejaVuSans-69" transform="translate(305.179688 0)"/>
      <use xlink:href="#DejaVuSans-74" transform="translate(332.962891 0)"/>
      <use xlink:href="#DejaVuSans-61" transform="translate(372.171875 0)"/>
      <use xlink:href="#DejaVuSans-63" transform="translate(433.451172 0)"/>
      <use xlink:href="#DejaVuSans-69" transform="translate(488.431641 0)"/>
      <use xlink:href="#DejaVuSans-f3" transform="translate(516.214844 0)"/>
      <use xlink:href="#DejaVuSans-6e" transform="translate(577.396484 0)"/>
      <use xlink:href="#DejaVuSans-20" transform="translate(640.775391 0)"/>
      <use xlink:href="#DejaVuSans-28" transform="translate(672.5625 0)"/>
      <use xlink:href="#DejaVuSans-6d" transform="translate(711.576172 0)"/>
      <use xlink:href="#DejaVuSans-6d" transform="translate(808.988281 0)"/>
      <use xlink:href="#DejaVuSans-29" transform="translate(906.400391 0)"/>
     </g>
    </g>
   </g>
   <g id="line2d_16">
    <path d="M 82.656364 228.907911 
L 83.560125 175.068408 
L 84.434734 341.917812 
L 87.96232 271.237568 
L 88.836928 237.687975 
L 89.74069 113.916917 
L 90.615298 149.597577 
L 91.51906 138.549903 
L 92.422821 111.761976 
L 93.297429 120.894985 
L 94.201191 199.62003 
L 95.075799 341.917812 
L 96.883323 238.21158 
L 97.699624 273.027205 
L 98.603386 204.783848 
L 99.477994 116.600122 
L 100.381755 76.210901 
L 101.256364 106.369212 
L 102.160125 114.031844 
L 103.063887 101.519827 
L 103.938495 123.170543 
L 104.842257 188.433692 
L 105.716865 341.917812 
L 106.620627 305.962891 
L 107.524389 341.917812 
L 108.34069 341.917812 
L 110.11906 147.186463 
L 111.022821 122.024992 
L 111.897429 83.258314 
L 112.801191 64.122349 
L 113.704953 60.873185 
L 114.579561 161.580672 
L 115.483323 219.241481 
L 116.357931 213.933961 
L 117.261693 180.515709 
L 119.010909 341.917812 
L 119.914671 145.018594 
L 120.789279 113.040881 
L 121.693041 92.269341 
L 122.567649 132.33701 
L 123.471411 108.213698 
L 124.375172 117.354064 
L 125.249781 189.711787 
L 126.153542 279.739938 
L 127.02815 341.917812 
L 127.931912 341.917812 
L 128.835674 197.748934 
L 129.651975 317.070029 
L 130.555737 162.645549 
L 131.430345 212.011285 
L 132.334107 122.06714 
L 133.208715 137.165883 
L 134.112476 144.514092 
L 135.016238 98.031724 
L 135.890846 164.237037 
L 136.794608 341.917812 
L 137.669216 341.917812 
L 138.572978 149.657365 
L 140.293041 341.917812 
L 141.196803 250.871503 
L 142.071411 212.644726 
L 142.975172 137.777986 
L 143.849781 130.26052 
L 144.753542 101.386971 
L 145.657304 65.638468 
L 146.531912 127.107975 
L 147.435674 122.957209 
L 148.310282 201.68349 
L 150.117806 282.840564 
L 150.934107 341.917812 
L 151.837868 159.771894 
L 152.712476 163.509167 
L 153.616238 76.744972 
L 154.490846 127.287433 
L 155.394608 87.384757 
L 156.29837 145.980771 
L 157.172978 135.755903 
L 158.07674 341.917812 
L 158.951348 341.917812 
L 159.85511 270.091307 
L 160.758871 341.917812 
L 162.508088 240.643134 
L 163.382696 205.200805 
L 164.286458 144.569983 
L 165.161066 94.211538 
L 166.064828 110.796599 
L 166.968589 110.501709 
L 167.843197 147.709142 
L 168.746959 231.357078 
L 169.621567 291.133398 
L 170.525329 240.921334 
L 171.429091 341.917812 
L 172.245392 251.574906 
L 173.149154 253.385841 
L 174.023762 205.200805 
L 174.927524 129.104097 
L 175.802132 113.76392 
L 176.705893 159.634639 
L 177.609655 106.439443 
L 178.484263 171.642804 
L 179.388025 180.236966 
L 180.262633 245.619643 
L 181.166395 341.917812 
L 182.886458 341.917812 
L 183.790219 164.530314 
L 185.568589 121.103095 
L 186.443197 175.240073 
L 187.346959 131.717896 
L 188.250721 123.085144 
L 189.125329 143.735883 
L 190.029091 183.176851 
L 190.903699 246.242899 
L 191.807461 341.917812 
L 192.711223 341.917812 
L 193.527524 251.930985 
L 194.431285 266.850095 
L 195.305893 161.79237 
L 196.209655 109.622993 
L 197.084263 86.533648 
L 197.988025 100.069101 
L 198.891787 142.637706 
L 199.766395 121.64662 
L 201.544765 341.917812 
L 202.448527 276.898652 
L 203.352288 341.917812 
L 204.197743 244.700754 
L 205.101505 204.095574 
L 205.976113 116.009596 
L 206.879875 94.426471 
L 207.754483 138.29175 
L 208.658245 99.971034 
L 209.562006 95.914015 
L 210.436614 228.475294 
L 211.340376 215.421731 
L 212.214984 323.654088 
L 213.118746 230.228777 
L 214.022508 245.311248 
L 214.838809 267.899755 
L 216.617179 141.98626 
L 217.52094 150.741834 
L 218.395549 128.418084 
L 219.29931 62.275071 
L 220.203072 129.935051 
L 221.07768 140.593392 
L 223.759812 280.488697 
L 228.162006 122.574583 
L 229.036614 107.891675 
L 229.940376 106.053862 
L 230.844138 124.418839 
L 232.622508 289.093003 
L 233.497116 305.962891 
L 234.400878 181.170798 
L 235.304639 341.917812 
L 236.12094 247.840446 
L 237.024702 179.591167 
L 237.89931 181.170798 
L 238.803072 91.046215 
L 239.67768 224.540699 
L 240.581442 112.738252 
L 241.485204 131.103522 
L 242.359812 127.602437 
L 243.263574 273.643947 
L 244.138182 298.25085 
L 245.041944 289.093003 
L 245.945705 242.338132 
L 246.79116 291.133398 
L 247.694922 169.320437 
L 248.56953 166.316312 
L 249.473292 85.354842 
L 250.3479 155.375245 
L 251.251661 167.226814 
L 252.155423 172.051356 
L 253.030031 136.306818 
L 253.933793 267.371289 
L 254.808401 232.511903 
L 255.712163 230.902654 
L 256.615925 341.917812 
L 257.432226 200.385359 
L 258.335987 246.242899 
L 259.210596 174.982741 
L 260.114357 172.051356 
L 260.988966 121.14478 
L 261.892727 39.517812 
L 262.796489 88.243634 
L 263.671097 168.771497 
L 264.574859 341.917812 
L 265.449467 195.934776 
L 266.353229 341.917812 
L 267.256991 323.654088 
L 268.073292 341.917812 
L 268.977053 323.654088 
L 269.851661 199.36711 
L 270.755423 89.868233 
L 271.630031 104.907112 
L 272.533793 134.517918 
L 273.437555 98.899274 
L 274.312163 182.309461 
L 275.215925 244.098438 
L 276.090533 341.917812 
L 277.898056 341.917812 
L 278.714357 247.516282 
L 279.618119 237.428339 
L 280.492727 193.141087 
L 281.396489 113.306557 
L 282.271097 148.943046 
L 283.174859 107.286616 
L 284.078621 74.053694 
L 284.953229 135.258384 
L 285.856991 266.335945 
L 286.731599 239.008099 
L 287.635361 263.863632 
L 288.539122 341.917812 
L 289.384577 220.516738 
L 290.288339 207.187878 
L 292.066708 66.877211 
L 292.941317 88.07123 
L 293.845078 146.724882 
L 294.74884 82.335126 
L 295.623448 161.439891 
L 297.401818 261.538886 
L 298.30558 341.917812 
L 299.209342 260.206849 
L 300.025643 341.917812 
L 300.929404 210.305843 
L 301.804013 158.545966 
L 302.707774 96.352474 
L 303.582382 79.067666 
L 304.486144 120.273743 
L 305.389906 107.677648 
L 306.264514 137.165883 
L 307.168276 305.962891 
L 308.042884 292.207068 
L 308.946646 296.937134 
L 309.850408 341.917812 
L 310.666708 250.524071 
L 311.57047 209.397182 
L 312.445078 178.138578 
L 313.34884 104.596923 
L 314.223448 112.09867 
L 315.12721 190.469655 
L 316.030972 110.207816 
L 316.90558 232.981589 
L 317.809342 284.5067 
L 318.68395 341.917812 
L 319.587712 282.038052 
L 320.491473 341.917812 
L 322.211536 341.917812 
L 323.086144 144.625915 
L 323.989906 100.824515 
L 324.864514 84.080377 
L 325.768276 152.834549 
L 326.672038 109.223192 
L 327.546646 142.257026 
L 328.450408 250.524071 
L 329.325016 341.917812 
L 330.228777 341.917812 
L 331.132539 270.091307 
L 331.977994 317.070029 
L 332.881755 216.951573 
L 333.756364 164.017883 
L 335.534734 79.986197 
L 336.438495 140.275491 
L 337.342257 157.407037 
L 338.216865 116.639637 
L 339.120627 200.385359 
L 339.995235 304.232818 
L 340.898997 236.913306 
L 341.802759 257.668167 
L 342.61906 222.394058 
L 343.522821 256.059399 
L 344.397429 111.426588 
L 345.301191 64.7984 
L 346.175799 176.893373 
L 347.079561 123.900016 
L 347.983323 92.841678 
L 348.857931 192.349846 
L 349.761693 243.800269 
L 350.636301 267.371289 
L 351.540063 262.452376 
L 352.443824 267.371289 
L 353.260125 190.360819 
L 354.163887 244.700754 
L 355.038495 201.160781 
L 355.942257 75.201634 
L 356.816865 166.467235 
L 357.720627 156.28579 
L 358.624389 72.259032 
L 359.498997 203.686521 
L 360.402759 263.387542 
L 361.277367 341.917812 
L 362.181129 341.917812 
L 363.08489 227.621115 
L 363.901191 323.654088 
L 364.804953 205.200805 
L 365.679561 156.28579 
L 366.583323 174.556048 
L 367.457931 120.150045 
L 368.361693 137.726795 
L 369.265455 108.969723 
L 370.140063 236.151096 
L 371.043824 261.538886 
L 371.918433 258.917627 
L 372.822194 180.982954 
L 373.725956 341.917812 
L 374.571411 341.917812 
L 375.475172 238.741085 
L 376.349781 159.292649 
L 377.253542 143.45986 
L 378.12815 113.496829 
L 379.031912 99.449805 
L 379.935674 126.083664 
L 380.810282 202.743171 
L 381.714044 186.156172 
L 382.588652 317.070029 
L 383.492414 218.704226 
L 384.396176 214.755466 
L 385.212476 197.016663 
L 386.116238 193.827548 
L 386.990846 160.462153 
L 387.894608 59.511703 
L 390.57674 153.966974 
L 391.451348 195.224179 
L 392.35511 305.962891 
L 393.229718 298.25085 
L 394.13348 341.917812 
L 395.037241 217.820703 
L 395.853542 265.327922 
L 396.757304 216.266273 
L 397.631912 128.418084 
L 398.535674 155.246092 
L 399.410282 159.703234 
L 400.314044 133.250573 
L 401.217806 189.069464 
L 402.092414 146.667382 
L 402.996176 314.395392 
L 403.870784 341.917812 
L 404.774545 251.574906 
L 405.678307 193.7126 
L 406.494608 229.563955 
L 407.39837 341.917812 
L 408.272978 245.619643 
L 409.17674 122.532178 
L 410.95511 145.866939 
L 411.858871 93.023155 
L 412.73348 182.213802 
L 413.637241 230.452383 
L 414.51185 237.687975 
L 415.415611 210.305843 
L 416.319373 246.875014 
L 417.164828 235.649653 
L 418.068589 341.917812 
L 418.943197 152.772145 
L 419.846959 95.260242 
L 420.721567 120.687392 
L 421.625329 110.171149 
L 422.529091 70.090356 
L 423.403699 187.284623 
L 424.307461 341.917812 
L 425.182069 341.917812 
L 426.085831 323.654088 
L 426.989592 262.917175 
L 427.805893 245.930182 
L 428.709655 186.769186 
L 429.584263 158.074813 
L 430.488025 100.659754 
L 431.362633 111.352234 
L 432.266395 149.896998 
L 433.170157 104.803595 
L 434.044765 212.804232 
L 434.948527 229.784574 
L 435.823135 298.25085 
L 436.726897 341.917812 
L 437.630658 240.366598 
L 438.446959 341.917812 
L 439.350721 169.794483 
L 440.225329 154.731756 
L 441.129091 103.843214 
L 442.003699 113.955209 
L 442.907461 167.07423 
L 443.811223 147.767442 
L 444.685831 169.794483 
L 446.464201 317.070029 
L 447.367962 341.917812 
L 448.271724 341.917812 
L 449.088025 203.145584 
L 449.991787 203.550812 
L 450.866395 184.253172 
L 451.770157 81.608301 
L 452.644765 121.56277 
L 453.548527 172.627506 
L 454.452288 139.068783 
L 455.326897 301.078432 
L 456.230658 309.818892 
L 457.105266 341.917812 
L 458.009028 341.917812 
L 458.91279 230.902654 
L 459.758245 254.132464 
L 460.662006 341.917812 
L 461.536614 195.578431 
L 462.440376 104.116551 
L 463.314984 140.064278 
L 464.218746 92.811467 
L 465.122508 116.996098 
L 465.997116 258.08041 
L 466.900878 341.917812 
L 468.679248 341.917812 
L 469.583009 301.078432 
L 470.39931 270.091307 
L 471.303072 248.82755 
L 472.17768 154.157421 
L 473.081442 119.903196 
L 473.95605 167.07423 
L 474.859812 71.216968 
L 475.763574 145.526463 
L 476.638182 150.077229 
L 477.541944 305.962891 
L 478.416552 274.910202 
L 479.320313 317.070029 
L 480.224075 234.907213 
L 481.040376 284.5067 
L 481.944138 200.257111 
L 482.818746 138.034447 
L 483.722508 99.384862 
L 484.597116 92.329421 
L 485.500878 162.860464 
L 486.404639 113.42067 
L 487.279248 146.437819 
L 488.183009 284.5067 
L 489.057618 341.917812 
L 491.681442 341.917812 
L 492.585204 235.649653 
L 493.459812 151.780793 
L 494.363574 85.66216 
L 496.141944 146.782425 
L 497.045705 107.180272 
L 497.920313 131.528357 
L 498.824075 221.446963 
L 499.698683 341.917812 
L 500.602445 150.499472 
L 501.506207 231.129341 
L 502.351661 251.574906 
L 503.255423 216.951573 
L 504.130031 126.750237 
L 505.033793 152.460915 
L 505.908401 79.828112 
L 506.812163 92.992884 
L 507.715925 116.088096 
L 508.590533 133.444241 
L 509.494295 176.192222 
L 510.368903 284.5067 
L 511.272665 341.917812 
L 512.176426 286.262835 
L 512.992727 284.5067 
L 513.896489 233.218143 
L 514.771097 254.892596 
L 515.674859 90.927743 
L 516.549467 120.770367 
L 517.453229 144.906193 
L 518.356991 88.791683 
L 519.231599 203.686521 
L 520.135361 228.260381 
L 521.009969 341.917812 
L 521.91373 245.311248 
L 522.817492 341.917812 
L 523.633793 341.917812 
L 525.412163 139.538746 
L 526.315925 97.840057 
L 527.190533 136.558512 
L 528.094295 97.808152 
L 528.998056 123.298808 
L 529.872665 134.174719 
L 530.776426 273.027205 
L 531.651034 341.917812 
L 532.554796 208.061234 
L 533.458558 298.25085 
L 534.274859 215.087575 
L 535.178621 228.475294 
L 536.053229 93.023155 
L 536.956991 117.833716 
L 537.831599 116.877112 
L 538.735361 57.009089 
L 539.639122 120.067682 
L 542.2921 185.649827 
L 543.195862 341.917812 
L 544.945078 341.917812 
L 545.84884 210.919954 
L 546.723448 176.105097 
L 547.62721 108.070431 
L 548.501818 130.167395 
L 549.40558 88.849559 
L 550.309342 114.724662 
L 551.18395 170.833011 
L 552.087712 341.917812 
L 552.96232 253.017425 
L 553.866082 341.917812 
L 554.769843 323.654088 
L 555.586144 179.683034 
L 556.489906 169.953231 
L 557.364514 144.962373 
L 558.268276 131.812834 
L 559.142884 131.528357 
L 560.046646 117.194781 
L 560.950408 97.42616 
L 561.825016 134.862608 
L 562.728777 248.167018 
L 563.603386 236.40381 
L 564.507147 341.917812 
L 565.410909 301.078432 
L 566.22721 341.917812 
L 567.130972 280.488697 
L 568.00558 247.194485 
L 568.909342 141.501266 
L 569.78395 150.499472 
L 570.687712 101.919582 
L 571.591473 63.250168 
L 572.466082 146.667382 
L 573.369843 211.229574 
L 574.244451 341.917812 
L 575.148213 341.917812 
L 576.051975 309.818892 
L 576.868276 291.133398 
L 577.772038 211.385035 
L 578.646646 150.924125 
L 579.550408 129.564685 
L 580.425016 96.132981 
L 581.328777 99.125557 
L 582.232539 138.343312 
L 583.107147 140.328384 
L 584.010909 280.488697 
L 584.885517 341.917812 
L 585.789279 341.917812 
L 586.693041 289.093003 
L 587.538495 305.962891 
L 588.442257 206.470226 
L 589.316865 132.672372 
L 590.220627 113.040881 
L 591.095235 142.801434 
L 591.998997 147.534513 
L 592.902759 64.279691 
L 593.777367 189.604271 
L 594.681129 273.027205 
L 595.555737 289.093003 
L 596.459498 280.488697 
L 597.36326 309.818892 
L 598.179561 240.366598 
L 599.083323 175.326071 
L 599.957931 166.165717 
L 600.861693 108.536909 
L 601.736301 114.53165 
L 602.640063 140.434278 
L 603.543824 82.173132 
L 604.418433 220.886848 
L 605.322194 284.5067 
L 606.196803 280.488697 
L 607.100564 213.124641 
L 608.004326 229.784574 
L 608.820627 235.153417 
L 609.724389 221.259591 
L 610.598997 187.700036 
L 611.502759 105.530768 
L 612.377367 152.834549 
L 613.281129 176.54187 
L 614.18489 105.391798 
L 615.059498 165.12058 
L 615.96326 202.21092 
L 616.837868 341.917812 
L 618.645392 341.917812 
L 619.461693 279.739938 
L 620.365455 256.059399 
L 621.240063 174.556048 
L 622.143824 63.383863 
L 623.018433 188.118215 
L 623.922194 92.419613 
L 624.825956 111.389403 
L 625.700564 108.393112 
L 626.604326 208.061234 
L 627.478934 341.917812 
L 628.382696 213.933961 
L 629.286458 305.962891 
L 630.131912 247.194485 
L 631.910282 135.010792 
L 632.814044 109.114472 
L 633.688652 111.092494 
L 634.592414 137.675637 
L 635.496176 77.487346 
L 636.370784 165.566578 
L 637.274545 317.070029 
L 638.149154 341.917812 
L 639.956677 341.917812 
L 640.772978 219.784248 
L 641.67674 222.777781 
L 642.551348 156.024468 
L 643.45511 164.017883 
L 644.329718 128.418084 
L 645.23348 123.513024 
L 646.137241 184.253172 
L 647.01185 193.027423 
L 647.915611 232.511903 
L 648.790219 341.917812 
L 649.693981 309.818892 
L 650.597743 341.917812 
L 651.414044 233.218143 
L 652.317806 173.542948 
L 653.192414 144.346664 
L 654.970784 105.739634 
L 655.874545 115.735413 
L 656.778307 144.346664 
L 657.652915 163.076035 
L 658.556677 219.06179 
L 659.431285 309.818892 
L 660.335047 265.327922 
L 661.238809 200.901167 
L 662.05511 341.917812 
L 662.958871 194.405574 
L 663.83348 119.985399 
L 668.293981 190.143719 
L 669.197743 294.477061 
L 670.072351 341.917812 
L 670.976113 341.917812 
L 671.879875 278.290022 
L 672.725329 276.898652 
L 673.629091 225.750549 
L 674.503699 213.28555 
L 675.407461 80.462012 
L 676.282069 109.005888 
L 677.185831 142.856087 
L 678.089592 106.720929 
L 680.742571 341.917812 
L 681.646332 258.08041 
L 682.550094 234.907213 
L 683.366395 309.818892 
L 684.270157 262.452376 
L 685.144765 190.035454 
L 686.048527 84.245645 
L 686.923135 148.352942 
L 687.826897 123.341607 
L 688.730658 70.544258 
L 689.605266 136.508109 
L 690.509028 233.218143 
L 691.383636 268.97947 
L 691.383636 268.97947 
" clip-path="url(#p44774a44e0)" style="fill: none; stroke: #194a7a; stroke-width: 1.2; stroke-linecap: round"/>
   </g>
   <g id="patch_3">
    <path d="M 52.22 357.037812 
L 52.22 24.397812 
" style="fill: none; stroke: #cccccc; stroke-width: 1.25; stroke-linejoin: miter; stroke-linecap: square"/>
   </g>
   <g id="patch_4">
    <path d="M 721.82 357.037812 
L 721.82 24.397812 
" style="fill: none; stroke: #cccccc; stroke-width: 1.25; stroke-linejoin: miter; stroke-linecap: square"/>
   </g>
   <g id="patch_5">
    <path d="M 52.22 357.037812 
L 721.82 357.037812 
" style="fill: none; stroke: #cccccc; stroke-width: 1.25; stroke-linejoin: miter; stroke-linecap: square"/>
   </g>
   <g id="patch_6">
    <path d="M 52.22 24.397812 
L 721.82 24.397812 
" style="fill: none; stroke: #cccccc; stroke-width: 1.25; stroke-linejoin: miter; stroke-linecap: square"/>
   </g>
   <g id="text_18">
    <!-- Yeo-Johnson Estandarizado Precipitación Mensual en Puebla -->
    <g style="fill: #262626" transform="translate(149.0025 18.397812) scale(0.14 -0.14)">
     <defs>
      <path id="DejaVuSans-Bold-59" d="M -63 4666 
L 1253 4666 
L 2316 3003 
L 3378 4666 
L 4697 4666 
L 2919 1966 
L 2919 0 
L 1716 0 
L 1716 1966 
L -63 4666 
z
" transform="scale(0.015625)"/>
      <path id="DejaVuSans-Bold-65" d="M 4031 1759 
L 4031 1441 
L 1416 1441 
Q 1456 1047 1700 850 
Q 1944 653 2381 653 
Q 2734 653 3104 758 
Q 3475 863 3866 1075 
L 3866 213 
Q 3469 63 3072 -14 
Q 2675 -91 2278 -91 
Q 1328 -91 801 392 
Q 275 875 275 1747 
Q 275 2603 792 3093 
Q 1309 3584 2216 3584 
Q 3041 3584 3536 3087 
Q 4031 2591 4031 1759 
z
M 2881 2131 
Q 2881 2450 2695 2645 
Q 2509 2841 2209 2841 
Q 1884 2841 1681 2658 
Q 1478 2475 1428 2131 
L 2881 2131 
z
" transform="scale(0.015625)"/>
      <path id="DejaVuSans-Bold-6f" d="M 2203 2784 
Q 1831 2784 1636 2517 
Q 1441 2250 1441 1747 
Q 1441 1244 1636 976 
Q 1831 709 2203 709 
Q 2569 709 2762 976 
Q 2956 1244 2956 1747 
Q 2956 2250 2762 2517 
Q 2569 2784 2203 2784 
z
M 2203 3584 
Q 3106 3584 3614 3096 
Q 4122 2609 4122 1747 
Q 4122 884 3614 396 
Q 3106 -91 2203 -91 
Q 1297 -91 786 396 
Q 275 884 275 1747 
Q 275 2609 786 3096 
Q 1297 3584 2203 3584 
z
" transform="scale(0.015625)"/>
      <path id="DejaVuSans-Bold-2d" d="M 347 2297 
L 2309 2297 
L 2309 1388 
L 347 1388 
L 347 2297 
z
" transform="scale(0.015625)"/>
      <path id="DejaVuSans-Bold-4a" d="M 588 4666 
L 1791 4666 
L 1791 453 
Q 1791 -419 1317 -850 
Q 844 -1281 -116 -1281 
L -359 -1281 
L -359 -372 
L -172 -372 
Q 203 -372 395 -162 
Q 588 47 588 453 
L 588 4666 
z
" transform="scale(0.015625)"/>
      <path id="DejaVuSans-Bold-68" d="M 4056 2131 
L 4056 0 
L 2931 0 
L 2931 347 
L 2931 1625 
Q 2931 2084 2911 2256 
Q 2891 2428 2841 2509 
Q 2775 2619 2662 2680 
Q 2550 2741 2406 2741 
Q 2056 2741 1856 2470 
Q 1656 2200 1656 1722 
L 1656 0 
L 538 0 
L 538 4863 
L 1656 4863 
L 1656 2988 
Q 1909 3294 2193 3439 
Q 2478 3584 2822 3584 
Q 3428 3584 3742 3212 
Q 4056 2841 4056 2131 
z
" transform="scale(0.015625)"/>
      <path id="DejaVuSans-Bold-6e" d="M 4056 2131 
L 4056 0 
L 2931 0 
L 2931 347 
L 2931 1631 
Q 2931 2084 2911 2256 
Q 2891 2428 2841 2509 
Q 2775 2619 2662 2680 
Q 2550 2741 2406 2741 
Q 2056 2741 1856 2470 
Q 1656 2200 1656 1722 
L 1656 0 
L 538 0 
L 538 3500 
L 1656 3500 
L 1656 2988 
Q 1909 3294 2193 3439 
Q 2478 3584 2822 3584 
Q 3428 3584 3742 3212 
Q 4056 2841 4056 2131 
z
" transform="scale(0.015625)"/>
      <path id="DejaVuSans-Bold-73" d="M 3272 3391 
L 3272 2541 
Q 2913 2691 2578 2766 
Q 2244 2841 1947 2841 
Q 1628 2841 1473 2761 
Q 1319 2681 1319 2516 
Q 1319 2381 1436 2309 
Q 1553 2238 1856 2203 
L 2053 2175 
Q 2913 2066 3209 1816 
Q 3506 1566 3506 1031 
Q 3506 472 3093 190 
Q 2681 -91 1863 -91 
Q 1516 -91 1145 -36 
Q 775 19 384 128 
L 384 978 
Q 719 816 1070 734 
Q 1422 653 1784 653 
Q 2113 653 2278 743 
Q 2444 834 2444 1013 
Q 2444 1163 2330 1236 
Q 2216 1309 1875 1350 
L 1678 1375 
Q 931 1469 631 1722 
Q 331 1975 331 2491 
Q 331 3047 712 3315 
Q 1094 3584 1881 3584 
Q 2191 3584 2531 3537 
Q 2872 3491 3272 3391 
z
" transform="scale(0.015625)"/>
      <path id="DejaVuSans-Bold-20" transform="scale(0.015625)"/>
      <path id="DejaVuSans-Bold-45" d="M 588 4666 
L 3834 4666 
L 3834 3756 
L 1791 3756 
L 1791 2888 
L 3713 2888 
L 3713 1978 
L 1791 1978 
L 1791 909 
L 3903 909 
L 3903 0 
L 588 0 
L 588 4666 
z
" transform="scale(0.015625)"/>
      <path id="DejaVuSans-Bold-74" d="M 1759 4494 
L 1759 3500 
L 2913 3500 
L 2913 2700 
L 1759 2700 
L 1759 1216 
Q 1759 972 1856 886 
Q 1953 800 2241 800 
L 2816 800 
L 2816 0 
L 1856 0 
Q 1194 0 917 276 
Q 641 553 641 1216 
L 641 2700 
L 84 2700 
L 84 3500 
L 641 3500 
L 641 4494 
L 1759 4494 
z
" transform="scale(0.015625)"/>
      <path id="DejaVuSans-Bold-61" d="M 2106 1575 
Q 1756 1575 1579 1456 
Q 1403 1338 1403 1106 
Q 1403 894 1545 773 
Q 1688 653 1941 653 
Q 2256 653 2472 879 
Q 2688 1106 2688 1447 
L 2688 1575 
L 2106 1575 
z
M 3816 1997 
L 3816 0 
L 2688 0 
L 2688 519 
Q 2463 200 2181 54 
Q 1900 -91 1497 -91 
Q 953 -91 614 226 
Q 275 544 275 1050 
Q 275 1666 698 1953 
Q 1122 2241 2028 2241 
L 2688 2241 
L 2688 2328 
Q 2688 2594 2478 2717 
Q 2269 2841 1825 2841 
Q 1466 2841 1156 2769 
Q 847 2697 581 2553 
L 581 3406 
Q 941 3494 1303 3539 
Q 1666 3584 2028 3584 
Q 2975 3584 3395 3211 
Q 3816 2838 3816 1997 
z
" transform="scale(0.015625)"/>
      <path id="DejaVuSans-Bold-64" d="M 2919 2988 
L 2919 4863 
L 4044 4863 
L 4044 0 
L 2919 0 
L 2919 506 
Q 2688 197 2409 53 
Q 2131 -91 1766 -91 
Q 1119 -91 703 423 
Q 288 938 288 1747 
Q 288 2556 703 3070 
Q 1119 3584 1766 3584 
Q 2128 3584 2408 3439 
Q 2688 3294 2919 2988 
z
M 2181 722 
Q 2541 722 2730 984 
Q 2919 1247 2919 1747 
Q 2919 2247 2730 2509 
Q 2541 2772 2181 2772 
Q 1825 2772 1636 2509 
Q 1447 2247 1447 1747 
Q 1447 1247 1636 984 
Q 1825 722 2181 722 
z
" transform="scale(0.015625)"/>
      <path id="DejaVuSans-Bold-72" d="M 3138 2547 
Q 2991 2616 2845 2648 
Q 2700 2681 2553 2681 
Q 2122 2681 1889 2404 
Q 1656 2128 1656 1613 
L 1656 0 
L 538 0 
L 538 3500 
L 1656 3500 
L 1656 2925 
Q 1872 3269 2151 3426 
Q 2431 3584 2822 3584 
Q 2878 3584 2943 3579 
Q 3009 3575 3134 3559 
L 3138 2547 
z
" transform="scale(0.015625)"/>
      <path id="DejaVuSans-Bold-69" d="M 538 3500 
L 1656 3500 
L 1656 0 
L 538 0 
L 538 3500 
z
M 538 4863 
L 1656 4863 
L 1656 3950 
L 538 3950 
L 538 4863 
z
" transform="scale(0.015625)"/>
      <path id="DejaVuSans-Bold-7a" d="M 366 3500 
L 3419 3500 
L 3419 2719 
L 1575 800 
L 3419 800 
L 3419 0 
L 288 0 
L 288 781 
L 2131 2700 
L 366 2700 
L 366 3500 
z
" transform="scale(0.015625)"/>
      <path id="DejaVuSans-Bold-50" d="M 588 4666 
L 2584 4666 
Q 3475 4666 3951 4270 
Q 4428 3875 4428 3144 
Q 4428 2409 3951 2014 
Q 3475 1619 2584 1619 
L 1791 1619 
L 1791 0 
L 588 0 
L 588 4666 
z
M 1791 3794 
L 1791 2491 
L 2456 2491 
Q 2806 2491 2997 2661 
Q 3188 2831 3188 3144 
Q 3188 3456 2997 3625 
Q 2806 3794 2456 3794 
L 1791 3794 
z
" transform="scale(0.015625)"/>
      <path id="DejaVuSans-Bold-63" d="M 3366 3391 
L 3366 2478 
Q 3138 2634 2908 2709 
Q 2678 2784 2431 2784 
Q 1963 2784 1702 2511 
Q 1441 2238 1441 1747 
Q 1441 1256 1702 982 
Q 1963 709 2431 709 
Q 2694 709 2930 787 
Q 3166 866 3366 1019 
L 3366 103 
Q 3103 6 2833 -42 
Q 2563 -91 2291 -91 
Q 1344 -91 809 395 
Q 275 881 275 1747 
Q 275 2613 809 3098 
Q 1344 3584 2291 3584 
Q 2566 3584 2833 3536 
Q 3100 3488 3366 3391 
z
" transform="scale(0.015625)"/>
      <path id="DejaVuSans-Bold-70" d="M 1656 506 
L 1656 -1331 
L 538 -1331 
L 538 3500 
L 1656 3500 
L 1656 2988 
Q 1888 3294 2169 3439 
Q 2450 3584 2816 3584 
Q 3463 3584 3878 3070 
Q 4294 2556 4294 1747 
Q 4294 938 3878 423 
Q 3463 -91 2816 -91 
Q 2450 -91 2169 54 
Q 1888 200 1656 506 
z
M 2400 2772 
Q 2041 2772 1848 2508 
Q 1656 2244 1656 1747 
Q 1656 1250 1848 986 
Q 2041 722 2400 722 
Q 2759 722 2948 984 
Q 3138 1247 3138 1747 
Q 3138 2247 2948 2509 
Q 2759 2772 2400 2772 
z
" transform="scale(0.015625)"/>
      <path id="DejaVuSans-Bold-f3" d="M 2203 2784 
Q 1831 2784 1636 2517 
Q 1441 2250 1441 1747 
Q 1441 1244 1636 976 
Q 1831 709 2203 709 
Q 2569 709 2762 976 
Q 2956 1244 2956 1747 
Q 2956 2250 2762 2517 
Q 2569 2784 2203 2784 
z
M 2203 3584 
Q 3106 3584 3614 3096 
Q 4122 2609 4122 1747 
Q 4122 884 3614 396 
Q 3106 -91 2203 -91 
Q 1297 -91 786 396 
Q 275 884 275 1747 
Q 275 2609 786 3096 
Q 1297 3584 2203 3584 
z
M 2694 5119 
L 3578 5119 
L 2425 3944 
L 1813 3944 
L 2694 5119 
z
" transform="scale(0.015625)"/>
      <path id="DejaVuSans-Bold-4d" d="M 588 4666 
L 2119 4666 
L 3181 2169 
L 4250 4666 
L 5778 4666 
L 5778 0 
L 4641 0 
L 4641 3413 
L 3566 897 
L 2803 897 
L 1728 3413 
L 1728 0 
L 588 0 
L 588 4666 
z
" transform="scale(0.015625)"/>
      <path id="DejaVuSans-Bold-75" d="M 500 1363 
L 500 3500 
L 1625 3500 
L 1625 3150 
Q 1625 2866 1622 2436 
Q 1619 2006 1619 1863 
Q 1619 1441 1641 1255 
Q 1663 1069 1716 984 
Q 1784 875 1895 815 
Q 2006 756 2150 756 
Q 2500 756 2700 1025 
Q 2900 1294 2900 1772 
L 2900 3500 
L 4019 3500 
L 4019 0 
L 2900 0 
L 2900 506 
Q 2647 200 2364 54 
Q 2081 -91 1741 -91 
Q 1134 -91 817 281 
Q 500 653 500 1363 
z
" transform="scale(0.015625)"/>
      <path id="DejaVuSans-Bold-6c" d="M 538 4863 
L 1656 4863 
L 1656 0 
L 538 0 
L 538 4863 
z
" transform="scale(0.015625)"/>
      <path id="DejaVuSans-Bold-62" d="M 2400 722 
Q 2759 722 2948 984 
Q 3138 1247 3138 1747 
Q 3138 2247 2948 2509 
Q 2759 2772 2400 2772 
Q 2041 2772 1848 2508 
Q 1656 2244 1656 1747 
Q 1656 1250 1848 986 
Q 2041 722 2400 722 
z
M 1656 2988 
Q 1888 3294 2169 3439 
Q 2450 3584 2816 3584 
Q 3463 3584 3878 3070 
Q 4294 2556 4294 1747 
Q 4294 938 3878 423 
Q 3463 -91 2816 -91 
Q 2450 -91 2169 54 
Q 1888 200 1656 506 
L 1656 0 
L 538 0 
L 538 4863 
L 1656 4863 
L 1656 2988 
z
" transform="scale(0.015625)"/>
     </defs>
     <use xlink:href="#DejaVuSans-Bold-59"/>
     <use xlink:href="#DejaVuSans-Bold-65" transform="translate(63.287109 0)"/>
     <use xlink:href="#DejaVuSans-Bold-6f" transform="translate(131.109375 0)"/>
     <use xlink:href="#DejaVuSans-Bold-2d" transform="translate(199.810547 0)"/>
     <use xlink:href="#DejaVuSans-Bold-4a" transform="translate(241.314453 0)"/>
     <use xlink:href="#DejaVuSans-Bold-6f" transform="translate(278.521484 0)"/>
     <use xlink:href="#DejaVuSans-Bold-68" transform="translate(347.222656 0)"/>
     <use xlink:href="#DejaVuSans-Bold-6e" transform="translate(418.414062 0)"/>
     <use xlink:href="#DejaVuSans-Bold-73" transform="translate(489.605469 0)"/>
     <use xlink:href="#DejaVuSans-Bold-6f" transform="translate(549.126953 0)"/>
     <use xlink:href="#DejaVuSans-Bold-6e" transform="translate(617.828125 0)"/>
     <use xlink:href="#DejaVuSans-Bold-20" transform="translate(689.019531 0)"/>
     <use xlink:href="#DejaVuSans-Bold-45" transform="translate(723.833984 0)"/>
     <use xlink:href="#DejaVuSans-Bold-73" transform="translate(792.144531 0)"/>
     <use xlink:href="#DejaVuSans-Bold-74" transform="translate(851.666016 0)"/>
     <use xlink:href="#DejaVuSans-Bold-61" transform="translate(899.46875 0)"/>
     <use xlink:href="#DejaVuSans-Bold-6e" transform="translate(966.949219 0)"/>
     <use xlink:href="#DejaVuSans-Bold-64" transform="translate(1038.140625 0)"/>
     <use xlink:href="#DejaVuSans-Bold-61" transform="translate(1109.722656 0)"/>
     <use xlink:href="#DejaVuSans-Bold-72" transform="translate(1177.203125 0)"/>
     <use xlink:href="#DejaVuSans-Bold-69" transform="translate(1226.519531 0)"/>
     <use xlink:href="#DejaVuSans-Bold-7a" transform="translate(1260.796875 0)"/>
     <use xlink:href="#DejaVuSans-Bold-61" transform="translate(1319 0)"/>
     <use xlink:href="#DejaVuSans-Bold-64" transform="translate(1386.480469 0)"/>
     <use xlink:href="#DejaVuSans-Bold-6f" transform="translate(1458.0625 0)"/>
     <use xlink:href="#DejaVuSans-Bold-20" transform="translate(1526.763672 0)"/>
     <use xlink:href="#DejaVuSans-Bold-50" transform="translate(1561.578125 0)"/>
     <use xlink:href="#DejaVuSans-Bold-72" transform="translate(1634.869141 0)"/>
     <use xlink:href="#DejaVuSans-Bold-65" transform="translate(1684.185547 0)"/>
     <use xlink:href="#DejaVuSans-Bold-63" transform="translate(1752.007812 0)"/>
     <use xlink:href="#DejaVuSans-Bold-69" transform="translate(1811.285156 0)"/>
     <use xlink:href="#DejaVuSans-Bold-70" transform="translate(1845.5625 0)"/>
     <use xlink:href="#DejaVuSans-Bold-69" transform="translate(1917.144531 0)"/>
     <use xlink:href="#DejaVuSans-Bold-74" transform="translate(1951.421875 0)"/>
     <use xlink:href="#DejaVuSans-Bold-61" transform="translate(1999.224609 0)"/>
     <use xlink:href="#DejaVuSans-Bold-63" transform="translate(2066.705078 0)"/>
     <use xlink:href="#DejaVuSans-Bold-69" transform="translate(2125.982422 0)"/>
     <use xlink:href="#DejaVuSans-Bold-f3" transform="translate(2160.259766 0)"/>
     <use xlink:href="#DejaVuSans-Bold-6e" transform="translate(2228.960938 0)"/>
     <use xlink:href="#DejaVuSans-Bold-20" transform="translate(2300.152344 0)"/>
     <use xlink:href="#DejaVuSans-Bold-4d" transform="translate(2334.966797 0)"/>
     <use xlink:href="#DejaVuSans-Bold-65" transform="translate(2434.478516 0)"/>
     <use xlink:href="#DejaVuSans-Bold-6e" transform="translate(2502.300781 0)"/>
     <use xlink:href="#DejaVuSans-Bold-73" transform="translate(2573.492188 0)"/>
     <use xlink:href="#DejaVuSans-Bold-75" transform="translate(2633.013672 0)"/>
     <use xlink:href="#DejaVuSans-Bold-61" transform="translate(2704.205078 0)"/>
     <use xlink:href="#DejaVuSans-Bold-6c" transform="translate(2771.685547 0)"/>
     <use xlink:href="#DejaVuSans-Bold-20" transform="translate(2805.962891 0)"/>
     <use xlink:href="#DejaVuSans-Bold-65" transform="translate(2840.777344 0)"/>
     <use xlink:href="#DejaVuSans-Bold-6e" transform="translate(2908.599609 0)"/>
     <use xlink:href="#DejaVuSans-Bold-20" transform="translate(2979.791016 0)"/>
     <use xlink:href="#DejaVuSans-Bold-50" transform="translate(3014.605469 0)"/>
     <use xlink:href="#DejaVuSans-Bold-75" transform="translate(3087.896484 0)"/>
     <use xlink:href="#DejaVuSans-Bold-65" transform="translate(3159.087891 0)"/>
     <use xlink:href="#DejaVuSans-Bold-62" transform="translate(3226.910156 0)"/>
     <use xlink:href="#DejaVuSans-Bold-6c" transform="translate(3298.492188 0)"/>
     <use xlink:href="#DejaVuSans-Bold-61" transform="translate(3332.769531 0)"/>
    </g>
   </g>
  </g>
 </g>
 <defs>
  <clipPath id="p44774a44e0">
   <rect x="52.22" y="24.397812" width="669.6" height="332.64"/>
  </clipPath>
 </defs>
</svg>
