<?xml version="1.0" encoding="utf-8" standalone="no"?>
<!DOCTYPE svg PUBLIC "-//W3C//DTD SVG 1.1//EN"
  "http://www.w3.org/Graphics/SVG/1.1/DTD/svg11.dtd">
<svg xmlns:xlink="http://www.w3.org/1999/xlink" width="1140.42625pt" height="276.860312pt" viewBox="0 0 1140.42625 276.860312" xmlns="http://www.w3.org/2000/svg" version="1.1">
 <metadata>
  <rdf:RDF xmlns:dc="http://purl.org/dc/elements/1.1/" xmlns:cc="http://creativecommons.org/ns#" xmlns:rdf="http://www.w3.org/1999/02/22-rdf-syntax-ns#">
   <cc:Work>
    <dc:type rdf:resource="http://purl.org/dc/dcmitype/StillImage"/>
    <dc:date>2025-04-24T15:33:18.171199</dc:date>
    <dc:format>image/svg+xml</dc:format>
    <dc:creator>
     <cc:Agent>
      <dc:title>Matplotlib v3.10.1, https://matplotlib.org/</dc:title>
     </cc:Agent>
    </dc:creator>
   </cc:Work>
  </rdf:RDF>
 </metadata>
 <defs>
  <style type="text/css">*{stroke-linejoin: round; stroke-linecap: butt}</style>
 </defs>
 <g id="figure_1">
  <g id="patch_1">
   <path d="M 0 276.860312 
L 1140.42625 276.860312 
L 1140.42625 0 
L 0 0 
z
" style="fill: #ffffff"/>
  </g>
  <g id="axes_1">
   <g id="patch_2">
    <path d="M 41.21625 252.417812 
L 563.70625 252.417812 
L 563.70625 23.837812 
L 41.21625 23.837812 
z
" style="fill: #ffffff"/>
   </g>
   <g id="matplotlib.axis_1">
    <g id="xtick_1">
     <g id="line2d_1">
      <path d="M 64.965795 252.417812 
L 64.965795 23.837812 
" clip-path="url(#pacf56664e8)" style="fill: none; stroke-dasharray: 1.85,0.8; stroke-dashoffset: 0; stroke: #808080; stroke-width: 0.5"/>
     </g>
     <g id="text_1">
      <!-- 0 -->
      <g style="fill: #262626" transform="translate(62.420795 267.996562) scale(0.08 -0.08)">
       <defs>
        <path id="DejaVuSans-30" d="M 2034 4250 
Q 1547 4250 1301 3770 
Q 1056 3291 1056 2328 
Q 1056 1369 1301 889 
Q 1547 409 2034 409 
Q 2525 409 2770 889 
Q 3016 1369 3016 2328 
Q 3016 3291 2770 3770 
Q 2525 4250 2034 4250 
z
M 2034 4750 
Q 2819 4750 3233 4129 
Q 3647 3509 3647 2328 
Q 3647 1150 3233 529 
Q 2819 -91 2034 -91 
Q 1250 -91 836 529 
Q 422 1150 422 2328 
Q 422 3509 836 4129 
Q 1250 4750 2034 4750 
z
" transform="scale(0.015625)"/>
       </defs>
       <use xlink:href="#DejaVuSans-30"/>
      </g>
     </g>
    </g>
    <g id="xtick_2">
     <g id="line2d_2">
      <path d="M 123.727557 252.417812 
L 123.727557 23.837812 
" clip-path="url(#pacf56664e8)" style="fill: none; stroke-dasharray: 1.85,0.8; stroke-dashoffset: 0; stroke: #808080; stroke-width: 0.5"/>
     </g>
     <g id="text_2">
      <!-- 6 -->
      <g style="fill: #262626" transform="translate(121.182557 267.996562) scale(0.08 -0.08)">
       <defs>
        <path id="DejaVuSans-36" d="M 2113 2584 
Q 1688 2584 1439 2293 
Q 1191 2003 1191 1497 
Q 1191 994 1439 701 
Q 1688 409 2113 409 
Q 2538 409 2786 701 
Q 3034 994 3034 1497 
Q 3034 2003 2786 2293 
Q 2538 2584 2113 2584 
z
M 3366 4563 
L 3366 3988 
Q 3128 4100 2886 4159 
Q 2644 4219 2406 4219 
Q 1781 4219 1451 3797 
Q 1122 3375 1075 2522 
Q 1259 2794 1537 2939 
Q 1816 3084 2150 3084 
Q 2853 3084 3261 2657 
Q 3669 2231 3669 1497 
Q 3669 778 3244 343 
Q 2819 -91 2113 -91 
Q 1303 -91 875 529 
Q 447 1150 447 2328 
Q 447 3434 972 4092 
Q 1497 4750 2381 4750 
Q 2619 4750 2861 4703 
Q 3103 4656 3366 4563 
z
" transform="scale(0.015625)"/>
       </defs>
       <use xlink:href="#DejaVuSans-36"/>
      </g>
     </g>
    </g>
    <g id="xtick_3">
     <g id="line2d_3">
      <path d="M 182.489319 252.417812 
L 182.489319 23.837812 
" clip-path="url(#pacf56664e8)" style="fill: none; stroke-dasharray: 1.85,0.8; stroke-dashoffset: 0; stroke: #808080; stroke-width: 0.5"/>
     </g>
     <g id="text_3">
      <!-- 12 -->
      <g style="fill: #262626" transform="translate(177.399319 267.996562) scale(0.08 -0.08)">
       <defs>
        <path id="DejaVuSans-31" d="M 794 531 
L 1825 531 
L 1825 4091 
L 703 3866 
L 703 4441 
L 1819 4666 
L 2450 4666 
L 2450 531 
L 3481 531 
L 3481 0 
L 794 0 
L 794 531 
z
" transform="scale(0.015625)"/>
        <path id="DejaVuSans-32" d="M 1228 531 
L 3431 531 
L 3431 0 
L 469 0 
L 469 531 
Q 828 903 1448 1529 
Q 2069 2156 2228 2338 
Q 2531 2678 2651 2914 
Q 2772 3150 2772 3378 
Q 2772 3750 2511 3984 
Q 2250 4219 1831 4219 
Q 1534 4219 1204 4116 
Q 875 4013 500 3803 
L 500 4441 
Q 881 4594 1212 4672 
Q 1544 4750 1819 4750 
Q 2544 4750 2975 4387 
Q 3406 4025 3406 3419 
Q 3406 3131 3298 2873 
Q 3191 2616 2906 2266 
Q 2828 2175 2409 1742 
Q 1991 1309 1228 531 
z
" transform="scale(0.015625)"/>
       </defs>
       <use xlink:href="#DejaVuSans-31"/>
       <use xlink:href="#DejaVuSans-32" transform="translate(63.623047 0)"/>
      </g>
     </g>
    </g>
    <g id="xtick_4">
     <g id="line2d_4">
      <path d="M 241.251081 252.417812 
L 241.251081 23.837812 
" clip-path="url(#pacf56664e8)" style="fill: none; stroke-dasharray: 1.85,0.8; stroke-dashoffset: 0; stroke: #808080; stroke-width: 0.5"/>
     </g>
     <g id="text_4">
      <!-- 18 -->
      <g style="fill: #262626" transform="translate(236.161081 267.996562) scale(0.08 -0.08)">
       <defs>
        <path id="DejaVuSans-38" d="M 2034 2216 
Q 1584 2216 1326 1975 
Q 1069 1734 1069 1313 
Q 1069 891 1326 650 
Q 1584 409 2034 409 
Q 2484 409 2743 651 
Q 3003 894 3003 1313 
Q 3003 1734 2745 1975 
Q 2488 2216 2034 2216 
z
M 1403 2484 
Q 997 2584 770 2862 
Q 544 3141 544 3541 
Q 544 4100 942 4425 
Q 1341 4750 2034 4750 
Q 2731 4750 3128 4425 
Q 3525 4100 3525 3541 
Q 3525 3141 3298 2862 
Q 3072 2584 2669 2484 
Q 3125 2378 3379 2068 
Q 3634 1759 3634 1313 
Q 3634 634 3220 271 
Q 2806 -91 2034 -91 
Q 1263 -91 848 271 
Q 434 634 434 1313 
Q 434 1759 690 2068 
Q 947 2378 1403 2484 
z
M 1172 3481 
Q 1172 3119 1398 2916 
Q 1625 2713 2034 2713 
Q 2441 2713 2670 2916 
Q 2900 3119 2900 3481 
Q 2900 3844 2670 4047 
Q 2441 4250 2034 4250 
Q 1625 4250 1398 4047 
Q 1172 3844 1172 3481 
z
" transform="scale(0.015625)"/>
       </defs>
       <use xlink:href="#DejaVuSans-31"/>
       <use xlink:href="#DejaVuSans-38" transform="translate(63.623047 0)"/>
      </g>
     </g>
    </g>
    <g id="xtick_5">
     <g id="line2d_5">
      <path d="M 300.012843 252.417812 
L 300.012843 23.837812 
" clip-path="url(#pacf56664e8)" style="fill: none; stroke-dasharray: 1.85,0.8; stroke-dashoffset: 0; stroke: #808080; stroke-width: 0.5"/>
     </g>
     <g id="text_5">
      <!-- 24 -->
      <g style="fill: #262626" transform="translate(294.922843 267.996562) scale(0.08 -0.08)">
       <defs>
        <path id="DejaVuSans-34" d="M 2419 4116 
L 825 1625 
L 2419 1625 
L 2419 4116 
z
M 2253 4666 
L 3047 4666 
L 3047 1625 
L 3713 1625 
L 3713 1100 
L 3047 1100 
L 3047 0 
L 2419 0 
L 2419 1100 
L 313 1100 
L 313 1709 
L 2253 4666 
z
" transform="scale(0.015625)"/>
       </defs>
       <use xlink:href="#DejaVuSans-32"/>
       <use xlink:href="#DejaVuSans-34" transform="translate(63.623047 0)"/>
      </g>
     </g>
    </g>
    <g id="xtick_6">
     <g id="line2d_6">
      <path d="M 358.774605 252.417812 
L 358.774605 23.837812 
" clip-path="url(#pacf56664e8)" style="fill: none; stroke-dasharray: 1.85,0.8; stroke-dashoffset: 0; stroke: #808080; stroke-width: 0.5"/>
     </g>
     <g id="text_6">
      <!-- 30 -->
      <g style="fill: #262626" transform="translate(353.684605 267.996562) scale(0.08 -0.08)">
       <defs>
        <path id="DejaVuSans-33" d="M 2597 2516 
Q 3050 2419 3304 2112 
Q 3559 1806 3559 1356 
Q 3559 666 3084 287 
Q 2609 -91 1734 -91 
Q 1441 -91 1130 -33 
Q 819 25 488 141 
L 488 750 
Q 750 597 1062 519 
Q 1375 441 1716 441 
Q 2309 441 2620 675 
Q 2931 909 2931 1356 
Q 2931 1769 2642 2001 
Q 2353 2234 1838 2234 
L 1294 2234 
L 1294 2753 
L 1863 2753 
Q 2328 2753 2575 2939 
Q 2822 3125 2822 3475 
Q 2822 3834 2567 4026 
Q 2313 4219 1838 4219 
Q 1578 4219 1281 4162 
Q 984 4106 628 3988 
L 628 4550 
Q 988 4650 1302 4700 
Q 1616 4750 1894 4750 
Q 2613 4750 3031 4423 
Q 3450 4097 3450 3541 
Q 3450 3153 3228 2886 
Q 3006 2619 2597 2516 
z
" transform="scale(0.015625)"/>
       </defs>
       <use xlink:href="#DejaVuSans-33"/>
       <use xlink:href="#DejaVuSans-30" transform="translate(63.623047 0)"/>
      </g>
     </g>
    </g>
    <g id="xtick_7">
     <g id="line2d_7">
      <path d="M 417.536367 252.417812 
L 417.536367 23.837812 
" clip-path="url(#pacf56664e8)" style="fill: none; stroke-dasharray: 1.85,0.8; stroke-dashoffset: 0; stroke: #808080; stroke-width: 0.5"/>
     </g>
     <g id="text_7">
      <!-- 36 -->
      <g style="fill: #262626" transform="translate(412.446367 267.996562) scale(0.08 -0.08)">
       <use xlink:href="#DejaVuSans-33"/>
       <use xlink:href="#DejaVuSans-36" transform="translate(63.623047 0)"/>
      </g>
     </g>
    </g>
    <g id="xtick_8">
     <g id="line2d_8">
      <path d="M 476.298129 252.417812 
L 476.298129 23.837812 
" clip-path="url(#pacf56664e8)" style="fill: none; stroke-dasharray: 1.85,0.8; stroke-dashoffset: 0; stroke: #808080; stroke-width: 0.5"/>
     </g>
     <g id="text_8">
      <!-- 42 -->
      <g style="fill: #262626" transform="translate(471.208129 267.996562) scale(0.08 -0.08)">
       <use xlink:href="#DejaVuSans-34"/>
       <use xlink:href="#DejaVuSans-32" transform="translate(63.623047 0)"/>
      </g>
     </g>
    </g>
    <g id="xtick_9">
     <g id="line2d_9">
      <path d="M 535.059891 252.417812 
L 535.059891 23.837812 
" clip-path="url(#pacf56664e8)" style="fill: none; stroke-dasharray: 1.85,0.8; stroke-dashoffset: 0; stroke: #808080; stroke-width: 0.5"/>
     </g>
     <g id="text_9">
      <!-- 48 -->
      <g style="fill: #262626" transform="translate(529.969891 267.996562) scale(0.08 -0.08)">
       <use xlink:href="#DejaVuSans-34"/>
       <use xlink:href="#DejaVuSans-38" transform="translate(63.623047 0)"/>
      </g>
     </g>
    </g>
   </g>
   <g id="matplotlib.axis_2">
    <g id="ytick_1">
     <g id="line2d_10">
      <path d="M 41.21625 252.417812 
L 563.70625 252.417812 
" clip-path="url(#pacf56664e8)" style="fill: none; stroke-dasharray: 1.85,0.8; stroke-dashoffset: 0; stroke: #808080; stroke-width: 0.5"/>
     </g>
     <g id="text_10">
      <!-- −1.00 -->
      <g style="fill: #262626" transform="translate(7.2 255.457187) scale(0.08 -0.08)">
       <defs>
        <path id="DejaVuSans-2212" d="M 678 2272 
L 4684 2272 
L 4684 1741 
L 678 1741 
L 678 2272 
z
" transform="scale(0.015625)"/>
        <path id="DejaVuSans-2e" d="M 684 794 
L 1344 794 
L 1344 0 
L 684 0 
L 684 794 
z
" transform="scale(0.015625)"/>
       </defs>
       <use xlink:href="#DejaVuSans-2212"/>
       <use xlink:href="#DejaVuSans-31" transform="translate(83.789062 0)"/>
       <use xlink:href="#DejaVuSans-2e" transform="translate(147.412109 0)"/>
       <use xlink:href="#DejaVuSans-30" transform="translate(179.199219 0)"/>
       <use xlink:href="#DejaVuSans-30" transform="translate(242.822266 0)"/>
      </g>
     </g>
    </g>
    <g id="ytick_2">
     <g id="line2d_11">
      <path d="M 41.21625 223.845312 
L 563.70625 223.845312 
" clip-path="url(#pacf56664e8)" style="fill: none; stroke-dasharray: 1.85,0.8; stroke-dashoffset: 0; stroke: #808080; stroke-width: 0.5"/>
     </g>
     <g id="text_11">
      <!-- −0.75 -->
      <g style="fill: #262626" transform="translate(7.2 226.884687) scale(0.08 -0.08)">
       <defs>
        <path id="DejaVuSans-37" d="M 525 4666 
L 3525 4666 
L 3525 4397 
L 1831 0 
L 1172 0 
L 2766 4134 
L 525 4134 
L 525 4666 
z
" transform="scale(0.015625)"/>
        <path id="DejaVuSans-35" d="M 691 4666 
L 3169 4666 
L 3169 4134 
L 1269 4134 
L 1269 2991 
Q 1406 3038 1543 3061 
Q 1681 3084 1819 3084 
Q 2600 3084 3056 2656 
Q 3513 2228 3513 1497 
Q 3513 744 3044 326 
Q 2575 -91 1722 -91 
Q 1428 -91 1123 -41 
Q 819 9 494 109 
L 494 744 
Q 775 591 1075 516 
Q 1375 441 1709 441 
Q 2250 441 2565 725 
Q 2881 1009 2881 1497 
Q 2881 1984 2565 2268 
Q 2250 2553 1709 2553 
Q 1456 2553 1204 2497 
Q 953 2441 691 2322 
L 691 4666 
z
" transform="scale(0.015625)"/>
       </defs>
       <use xlink:href="#DejaVuSans-2212"/>
       <use xlink:href="#DejaVuSans-30" transform="translate(83.789062 0)"/>
       <use xlink:href="#DejaVuSans-2e" transform="translate(147.412109 0)"/>
       <use xlink:href="#DejaVuSans-37" transform="translate(179.199219 0)"/>
       <use xlink:href="#DejaVuSans-35" transform="translate(242.822266 0)"/>
      </g>
     </g>
    </g>
    <g id="ytick_3">
     <g id="line2d_12">
      <path d="M 41.21625 195.272812 
L 563.70625 195.272812 
" clip-path="url(#pacf56664e8)" style="fill: none; stroke-dasharray: 1.85,0.8; stroke-dashoffset: 0; stroke: #808080; stroke-width: 0.5"/>
     </g>
     <g id="text_12">
      <!-- −0.50 -->
      <g style="fill: #262626" transform="translate(7.2 198.312187) scale(0.08 -0.08)">
       <use xlink:href="#DejaVuSans-2212"/>
       <use xlink:href="#DejaVuSans-30" transform="translate(83.789062 0)"/>
       <use xlink:href="#DejaVuSans-2e" transform="translate(147.412109 0)"/>
       <use xlink:href="#DejaVuSans-35" transform="translate(179.199219 0)"/>
       <use xlink:href="#DejaVuSans-30" transform="translate(242.822266 0)"/>
      </g>
     </g>
    </g>
    <g id="ytick_4">
     <g id="line2d_13">
      <path d="M 41.21625 166.700312 
L 563.70625 166.700312 
" clip-path="url(#pacf56664e8)" style="fill: none; stroke-dasharray: 1.85,0.8; stroke-dashoffset: 0; stroke: #808080; stroke-width: 0.5"/>
     </g>
     <g id="text_13">
      <!-- −0.25 -->
      <g style="fill: #262626" transform="translate(7.2 169.739687) scale(0.08 -0.08)">
       <use xlink:href="#DejaVuSans-2212"/>
       <use xlink:href="#DejaVuSans-30" transform="translate(83.789062 0)"/>
       <use xlink:href="#DejaVuSans-2e" transform="translate(147.412109 0)"/>
       <use xlink:href="#DejaVuSans-32" transform="translate(179.199219 0)"/>
       <use xlink:href="#DejaVuSans-35" transform="translate(242.822266 0)"/>
      </g>
     </g>
    </g>
    <g id="ytick_5">
     <g id="line2d_14">
      <path d="M 41.21625 138.127812 
L 563.70625 138.127812 
" clip-path="url(#pacf56664e8)" style="fill: none; stroke-dasharray: 1.85,0.8; stroke-dashoffset: 0; stroke: #808080; stroke-width: 0.5"/>
     </g>
     <g id="text_14">
      <!-- 0.00 -->
      <g style="fill: #262626" transform="translate(13.90375 141.167187) scale(0.08 -0.08)">
       <use xlink:href="#DejaVuSans-30"/>
       <use xlink:href="#DejaVuSans-2e" transform="translate(63.623047 0)"/>
       <use xlink:href="#DejaVuSans-30" transform="translate(95.410156 0)"/>
       <use xlink:href="#DejaVuSans-30" transform="translate(159.033203 0)"/>
      </g>
     </g>
    </g>
    <g id="ytick_6">
     <g id="line2d_15">
      <path d="M 41.21625 109.555312 
L 563.70625 109.555312 
" clip-path="url(#pacf56664e8)" style="fill: none; stroke-dasharray: 1.85,0.8; stroke-dashoffset: 0; stroke: #808080; stroke-width: 0.5"/>
     </g>
     <g id="text_15">
      <!-- 0.25 -->
      <g style="fill: #262626" transform="translate(13.90375 112.594687) scale(0.08 -0.08)">
       <use xlink:href="#DejaVuSans-30"/>
       <use xlink:href="#DejaVuSans-2e" transform="translate(63.623047 0)"/>
       <use xlink:href="#DejaVuSans-32" transform="translate(95.410156 0)"/>
       <use xlink:href="#DejaVuSans-35" transform="translate(159.033203 0)"/>
      </g>
     </g>
    </g>
    <g id="ytick_7">
     <g id="line2d_16">
      <path d="M 41.21625 80.982812 
L 563.70625 80.982812 
" clip-path="url(#pacf56664e8)" style="fill: none; stroke-dasharray: 1.85,0.8; stroke-dashoffset: 0; stroke: #808080; stroke-width: 0.5"/>
     </g>
     <g id="text_16">
      <!-- 0.50 -->
      <g style="fill: #262626" transform="translate(13.90375 84.022187) scale(0.08 -0.08)">
       <use xlink:href="#DejaVuSans-30"/>
       <use xlink:href="#DejaVuSans-2e" transform="translate(63.623047 0)"/>
       <use xlink:href="#DejaVuSans-35" transform="translate(95.410156 0)"/>
       <use xlink:href="#DejaVuSans-30" transform="translate(159.033203 0)"/>
      </g>
     </g>
    </g>
    <g id="ytick_8">
     <g id="line2d_17">
      <path d="M 41.21625 52.410312 
L 563.70625 52.410312 
" clip-path="url(#pacf56664e8)" style="fill: none; stroke-dasharray: 1.85,0.8; stroke-dashoffset: 0; stroke: #808080; stroke-width: 0.5"/>
     </g>
     <g id="text_17">
      <!-- 0.75 -->
      <g style="fill: #262626" transform="translate(13.90375 55.449687) scale(0.08 -0.08)">
       <use xlink:href="#DejaVuSans-30"/>
       <use xlink:href="#DejaVuSans-2e" transform="translate(63.623047 0)"/>
       <use xlink:href="#DejaVuSans-37" transform="translate(95.410156 0)"/>
       <use xlink:href="#DejaVuSans-35" transform="translate(159.033203 0)"/>
      </g>
     </g>
    </g>
    <g id="ytick_9">
     <g id="line2d_18">
      <path d="M 41.21625 23.837812 
L 563.70625 23.837812 
" clip-path="url(#pacf56664e8)" style="fill: none; stroke-dasharray: 1.85,0.8; stroke-dashoffset: 0; stroke: #808080; stroke-width: 0.5"/>
     </g>
     <g id="text_18">
      <!-- 1.00 -->
      <g style="fill: #262626" transform="translate(13.90375 26.877187) scale(0.08 -0.08)">
       <use xlink:href="#DejaVuSans-31"/>
       <use xlink:href="#DejaVuSans-2e" transform="translate(63.623047 0)"/>
       <use xlink:href="#DejaVuSans-30" transform="translate(95.410156 0)"/>
       <use xlink:href="#DejaVuSans-30" transform="translate(159.033203 0)"/>
      </g>
     </g>
    </g>
   </g>
   <g id="FillBetweenPolyCollection_1">
    <defs>
     <path id="m69ed011342" d="M 69.862609 -147.380089 
L 69.862609 -130.084911 
L 84.553049 -130.021099 
L 94.346676 -129.993076 
L 104.140303 -129.989583 
L 113.93393 -129.941327 
L 123.727557 -129.51651 
L 133.521184 -128.563313 
L 143.314811 -128.309106 
L 153.108438 -128.276085 
L 162.902065 -128.252437 
L 172.695692 -128.247108 
L 182.489319 -127.743659 
L 192.282946 -127.067592 
L 202.076573 -126.875256 
L 211.8702 -126.864658 
L 221.663827 -126.862266 
L 231.457454 -126.822351 
L 241.251081 -126.361142 
L 251.044708 -125.94444 
L 260.838335 -125.74705 
L 270.631962 -125.739093 
L 280.425589 -125.704758 
L 290.219216 -125.703867 
L 300.012843 -125.211702 
L 309.80647 -124.849144 
L 319.600097 -124.657989 
L 329.393724 -124.657258 
L 339.187351 -124.631283 
L 348.980978 -124.591629 
L 358.774605 -124.369813 
L 368.568232 -123.888944 
L 378.361859 -123.821906 
L 388.155486 -123.799893 
L 397.949113 -123.741266 
L 407.74274 -123.71593 
L 417.536367 -123.439817 
L 427.329994 -123.039482 
L 437.123621 -122.999209 
L 446.917248 -122.978546 
L 456.710875 -122.908486 
L 466.504502 -122.883617 
L 476.298129 -122.61187 
L 486.091756 -122.36312 
L 495.885383 -122.279233 
L 505.67901 -122.277606 
L 515.472637 -122.271861 
L 525.266264 -122.253314 
L 539.956705 -121.8598 
L 539.956705 -155.6052 
L 539.956705 -155.6052 
L 525.266264 -155.211686 
L 515.472637 -155.193139 
L 505.67901 -155.187394 
L 495.885383 -155.185767 
L 486.091756 -155.10188 
L 476.298129 -154.85313 
L 466.504502 -154.581383 
L 456.710875 -154.556514 
L 446.917248 -154.486454 
L 437.123621 -154.465791 
L 427.329994 -154.425518 
L 417.536367 -154.025183 
L 407.74274 -153.74907 
L 397.949113 -153.723734 
L 388.155486 -153.665107 
L 378.361859 -153.643094 
L 368.568232 -153.576056 
L 358.774605 -153.095187 
L 348.980978 -152.873371 
L 339.187351 -152.833717 
L 329.393724 -152.807742 
L 319.600097 -152.807011 
L 309.80647 -152.615856 
L 300.012843 -152.253298 
L 290.219216 -151.761133 
L 280.425589 -151.760242 
L 270.631962 -151.725907 
L 260.838335 -151.71795 
L 251.044708 -151.52056 
L 241.251081 -151.103858 
L 231.457454 -150.642649 
L 221.663827 -150.602734 
L 211.8702 -150.600342 
L 202.076573 -150.589744 
L 192.282946 -150.397408 
L 182.489319 -149.721341 
L 172.695692 -149.217892 
L 162.902065 -149.212563 
L 153.108438 -149.188915 
L 143.314811 -149.155894 
L 133.521184 -148.901687 
L 123.727557 -147.94849 
L 113.93393 -147.523673 
L 104.140303 -147.475417 
L 94.346676 -147.471924 
L 84.553049 -147.443901 
L 69.862609 -147.380089 
z
" style="stroke: #ffffff; stroke-opacity: 0.25"/>
    </defs>
    <g clip-path="url(#pacf56664e8)">
     <use xlink:href="#m69ed011342" x="0" y="276.860312" style="fill: #194a7a; fill-opacity: 0.25; stroke: #ffffff; stroke-opacity: 0.25"/>
    </g>
   </g>
   <g id="LineCollection_1">
    <path d="M 64.965795 138.127812 
L 64.965795 23.837812 
" clip-path="url(#pacf56664e8)" style="fill: none; stroke: #194a7a; stroke-width: 1.2"/>
    <path d="M 74.759422 138.127812 
L 74.759422 147.963653 
" clip-path="url(#pacf56664e8)" style="fill: none; stroke: #194a7a; stroke-width: 1.2"/>
    <path d="M 84.553049 138.127812 
L 84.553049 131.592597 
" clip-path="url(#pacf56664e8)" style="fill: none; stroke: #194a7a; stroke-width: 1.2"/>
    <path d="M 94.346676 138.127812 
L 94.346676 140.437318 
" clip-path="url(#pacf56664e8)" style="fill: none; stroke: #194a7a; stroke-width: 1.2"/>
    <path d="M 104.140303 138.127812 
L 104.140303 146.724155 
" clip-path="url(#pacf56664e8)" style="fill: none; stroke: #194a7a; stroke-width: 1.2"/>
    <path d="M 113.93393 138.127812 
L 113.93393 163.975518 
" clip-path="url(#pacf56664e8)" style="fill: none; stroke: #194a7a; stroke-width: 1.2"/>
    <path d="M 123.727557 138.127812 
L 123.727557 178.299894 
" clip-path="url(#pacf56664e8)" style="fill: none; stroke: #194a7a; stroke-width: 1.2"/>
    <path d="M 133.521184 138.127812 
L 133.521184 159.509742 
" clip-path="url(#pacf56664e8)" style="fill: none; stroke: #194a7a; stroke-width: 1.2"/>
    <path d="M 143.314811 138.127812 
L 143.314811 145.887736 
" clip-path="url(#pacf56664e8)" style="fill: none; stroke: #194a7a; stroke-width: 1.2"/>
    <path d="M 153.108438 138.127812 
L 153.108438 131.551986 
" clip-path="url(#pacf56664e8)" style="fill: none; stroke: #194a7a; stroke-width: 1.2"/>
    <path d="M 162.902065 138.127812 
L 162.902065 135.003978 
" clip-path="url(#pacf56664e8)" style="fill: none; stroke: #194a7a; stroke-width: 1.2"/>
    <path d="M 172.695692 138.127812 
L 172.695692 107.399802 
" clip-path="url(#pacf56664e8)" style="fill: none; stroke: #194a7a; stroke-width: 1.2"/>
    <path d="M 182.489319 138.127812 
L 182.489319 101.554593 
" clip-path="url(#pacf56664e8)" style="fill: none; stroke: #194a7a; stroke-width: 1.2"/>
    <path d="M 192.282946 138.127812 
L 192.282946 118.250058 
" clip-path="url(#pacf56664e8)" style="fill: none; stroke: #194a7a; stroke-width: 1.2"/>
    <path d="M 202.076573 138.127812 
L 202.076573 133.44178 
" clip-path="url(#pacf56664e8)" style="fill: none; stroke: #194a7a; stroke-width: 1.2"/>
    <path d="M 211.8702 138.127812 
L 211.8702 140.35461 
" clip-path="url(#pacf56664e8)" style="fill: none; stroke: #194a7a; stroke-width: 1.2"/>
    <path d="M 221.663827 138.127812 
L 221.663827 147.232795 
" clip-path="url(#pacf56664e8)" style="fill: none; stroke: #194a7a; stroke-width: 1.2"/>
    <path d="M 231.457454 138.127812 
L 231.457454 169.401903 
" clip-path="url(#pacf56664e8)" style="fill: none; stroke: #194a7a; stroke-width: 1.2"/>
    <path d="M 241.251081 138.127812 
L 241.251081 168.387265 
" clip-path="url(#pacf56664e8)" style="fill: none; stroke: #194a7a; stroke-width: 1.2"/>
    <path d="M 251.044708 138.127812 
L 251.044708 159.206708 
" clip-path="url(#pacf56664e8)" style="fill: none; stroke: #194a7a; stroke-width: 1.2"/>
    <path d="M 260.838335 138.127812 
L 260.838335 142.376749 
" clip-path="url(#pacf56664e8)" style="fill: none; stroke: #194a7a; stroke-width: 1.2"/>
    <path d="M 270.631962 138.127812 
L 270.631962 129.294317 
" clip-path="url(#pacf56664e8)" style="fill: none; stroke: #194a7a; stroke-width: 1.2"/>
    <path d="M 280.425589 138.127812 
L 280.425589 136.704151 
" clip-path="url(#pacf56664e8)" style="fill: none; stroke: #194a7a; stroke-width: 1.2"/>
    <path d="M 290.219216 138.127812 
L 290.219216 104.346125 
" clip-path="url(#pacf56664e8)" style="fill: none; stroke: #194a7a; stroke-width: 1.2"/>
    <path d="M 300.012843 138.127812 
L 300.012843 108.67039 
" clip-path="url(#pacf56664e8)" style="fill: none; stroke: #194a7a; stroke-width: 1.2"/>
    <path d="M 309.80647 138.127812 
L 309.80647 116.523378 
" clip-path="url(#pacf56664e8)" style="fill: none; stroke: #194a7a; stroke-width: 1.2"/>
    <path d="M 319.600097 138.127812 
L 319.600097 136.787084 
" clip-path="url(#pacf56664e8)" style="fill: none; stroke: #194a7a; stroke-width: 1.2"/>
    <path d="M 329.393724 138.127812 
L 329.393724 146.122877 
" clip-path="url(#pacf56664e8)" style="fill: none; stroke: #194a7a; stroke-width: 1.2"/>
    <path d="M 339.187351 138.127812 
L 339.187351 148.017649 
" clip-path="url(#pacf56664e8)" style="fill: none; stroke: #194a7a; stroke-width: 1.2"/>
    <path d="M 348.980978 138.127812 
L 348.980978 161.626509 
" clip-path="url(#pacf56664e8)" style="fill: none; stroke: #194a7a; stroke-width: 1.2"/>
    <path d="M 358.774605 138.127812 
L 358.774605 173.150494 
" clip-path="url(#pacf56664e8)" style="fill: none; stroke: #194a7a; stroke-width: 1.2"/>
    <path d="M 368.568232 138.127812 
L 368.568232 151.326628 
" clip-path="url(#pacf56664e8)" style="fill: none; stroke: #194a7a; stroke-width: 1.2"/>
    <path d="M 378.361859 138.127812 
L 378.361859 145.702356 
" clip-path="url(#pacf56664e8)" style="fill: none; stroke: #194a7a; stroke-width: 1.2"/>
    <path d="M 388.155486 138.127812 
L 388.155486 125.749652 
" clip-path="url(#pacf56664e8)" style="fill: none; stroke: #194a7a; stroke-width: 1.2"/>
    <path d="M 397.949113 138.127812 
L 397.949113 129.979271 
" clip-path="url(#pacf56664e8)" style="fill: none; stroke: #194a7a; stroke-width: 1.2"/>
    <path d="M 407.74274 138.127812 
L 407.74274 111.092592 
" clip-path="url(#pacf56664e8)" style="fill: none; stroke: #194a7a; stroke-width: 1.2"/>
    <path d="M 417.536367 138.127812 
L 417.536367 105.213067 
" clip-path="url(#pacf56664e8)" style="fill: none; stroke: #194a7a; stroke-width: 1.2"/>
    <path d="M 427.329994 138.127812 
L 427.329994 127.614218 
" clip-path="url(#pacf56664e8)" style="fill: none; stroke: #194a7a; stroke-width: 1.2"/>
    <path d="M 437.123621 138.127812 
L 437.123621 130.58969 
" clip-path="url(#pacf56664e8)" style="fill: none; stroke: #194a7a; stroke-width: 1.2"/>
    <path d="M 446.917248 138.127812 
L 446.917248 152.028166 
" clip-path="url(#pacf56664e8)" style="fill: none; stroke: #194a7a; stroke-width: 1.2"/>
    <path d="M 456.710875 138.127812 
L 456.710875 146.421818 
" clip-path="url(#pacf56664e8)" style="fill: none; stroke: #194a7a; stroke-width: 1.2"/>
    <path d="M 466.504502 138.127812 
L 466.504502 165.673208 
" clip-path="url(#pacf56664e8)" style="fill: none; stroke: #194a7a; stroke-width: 1.2"/>
    <path d="M 476.298129 138.127812 
L 476.298129 164.695534 
" clip-path="url(#pacf56664e8)" style="fill: none; stroke: #194a7a; stroke-width: 1.2"/>
    <path d="M 486.091756 138.127812 
L 486.091756 153.634997 
" clip-path="url(#pacf56664e8)" style="fill: none; stroke: #194a7a; stroke-width: 1.2"/>
    <path d="M 495.885383 138.127812 
L 495.885383 135.965535 
" clip-path="url(#pacf56664e8)" style="fill: none; stroke: #194a7a; stroke-width: 1.2"/>
    <path d="M 505.67901 138.127812 
L 505.67901 134.063696 
" clip-path="url(#pacf56664e8)" style="fill: none; stroke: #194a7a; stroke-width: 1.2"/>
    <path d="M 515.472637 138.127812 
L 515.472637 130.823314 
" clip-path="url(#pacf56664e8)" style="fill: none; stroke: #194a7a; stroke-width: 1.2"/>
    <path d="M 525.266264 138.127812 
L 525.266264 104.271606 
" clip-path="url(#pacf56664e8)" style="fill: none; stroke: #194a7a; stroke-width: 1.2"/>
    <path d="M 535.059891 138.127812 
L 535.059891 115.898132 
" clip-path="url(#pacf56664e8)" style="fill: none; stroke: #194a7a; stroke-width: 1.2"/>
   </g>
   <g id="line2d_19">
    <path d="M 41.21625 138.127812 
L 563.70625 138.127812 
" clip-path="url(#pacf56664e8)" style="fill: none; stroke: #194a7a; stroke-width: 1.2; stroke-linecap: round"/>
   </g>
   <g id="line2d_20">
    <defs>
     <path id="mcb9ddab8ea" d="M 0 2.5 
C 0.663008 2.5 1.29895 2.236584 1.767767 1.767767 
C 2.236584 1.29895 2.5 0.663008 2.5 0 
C 2.5 -0.663008 2.236584 -1.29895 1.767767 -1.767767 
C 1.29895 -2.236584 0.663008 -2.5 0 -2.5 
C -0.663008 -2.5 -1.29895 -2.236584 -1.767767 -1.767767 
C -2.236584 -1.29895 -2.5 -0.663008 -2.5 0 
C -2.5 0.663008 -2.236584 1.29895 -1.767767 1.767767 
C -1.29895 2.236584 -0.663008 2.5 0 2.5 
z
" style="stroke: #194a7a"/>
    </defs>
    <g clip-path="url(#pacf56664e8)">
     <use xlink:href="#mcb9ddab8ea" x="64.965795" y="23.837812" style="fill: #194a7a; stroke: #194a7a"/>
     <use xlink:href="#mcb9ddab8ea" x="74.759422" y="147.963653" style="fill: #194a7a; stroke: #194a7a"/>
     <use xlink:href="#mcb9ddab8ea" x="84.553049" y="131.592597" style="fill: #194a7a; stroke: #194a7a"/>
     <use xlink:href="#mcb9ddab8ea" x="94.346676" y="140.437318" style="fill: #194a7a; stroke: #194a7a"/>
     <use xlink:href="#mcb9ddab8ea" x="104.140303" y="146.724155" style="fill: #194a7a; stroke: #194a7a"/>
     <use xlink:href="#mcb9ddab8ea" x="113.93393" y="163.975518" style="fill: #194a7a; stroke: #194a7a"/>
     <use xlink:href="#mcb9ddab8ea" x="123.727557" y="178.299894" style="fill: #194a7a; stroke: #194a7a"/>
     <use xlink:href="#mcb9ddab8ea" x="133.521184" y="159.509742" style="fill: #194a7a; stroke: #194a7a"/>
     <use xlink:href="#mcb9ddab8ea" x="143.314811" y="145.887736" style="fill: #194a7a; stroke: #194a7a"/>
     <use xlink:href="#mcb9ddab8ea" x="153.108438" y="131.551986" style="fill: #194a7a; stroke: #194a7a"/>
     <use xlink:href="#mcb9ddab8ea" x="162.902065" y="135.003978" style="fill: #194a7a; stroke: #194a7a"/>
     <use xlink:href="#mcb9ddab8ea" x="172.695692" y="107.399802" style="fill: #194a7a; stroke: #194a7a"/>
     <use xlink:href="#mcb9ddab8ea" x="182.489319" y="101.554593" style="fill: #194a7a; stroke: #194a7a"/>
     <use xlink:href="#mcb9ddab8ea" x="192.282946" y="118.250058" style="fill: #194a7a; stroke: #194a7a"/>
     <use xlink:href="#mcb9ddab8ea" x="202.076573" y="133.44178" style="fill: #194a7a; stroke: #194a7a"/>
     <use xlink:href="#mcb9ddab8ea" x="211.8702" y="140.35461" style="fill: #194a7a; stroke: #194a7a"/>
     <use xlink:href="#mcb9ddab8ea" x="221.663827" y="147.232795" style="fill: #194a7a; stroke: #194a7a"/>
     <use xlink:href="#mcb9ddab8ea" x="231.457454" y="169.401903" style="fill: #194a7a; stroke: #194a7a"/>
     <use xlink:href="#mcb9ddab8ea" x="241.251081" y="168.387265" style="fill: #194a7a; stroke: #194a7a"/>
     <use xlink:href="#mcb9ddab8ea" x="251.044708" y="159.206708" style="fill: #194a7a; stroke: #194a7a"/>
     <use xlink:href="#mcb9ddab8ea" x="260.838335" y="142.376749" style="fill: #194a7a; stroke: #194a7a"/>
     <use xlink:href="#mcb9ddab8ea" x="270.631962" y="129.294317" style="fill: #194a7a; stroke: #194a7a"/>
     <use xlink:href="#mcb9ddab8ea" x="280.425589" y="136.704151" style="fill: #194a7a; stroke: #194a7a"/>
     <use xlink:href="#mcb9ddab8ea" x="290.219216" y="104.346125" style="fill: #194a7a; stroke: #194a7a"/>
     <use xlink:href="#mcb9ddab8ea" x="300.012843" y="108.67039" style="fill: #194a7a; stroke: #194a7a"/>
     <use xlink:href="#mcb9ddab8ea" x="309.80647" y="116.523378" style="fill: #194a7a; stroke: #194a7a"/>
     <use xlink:href="#mcb9ddab8ea" x="319.600097" y="136.787084" style="fill: #194a7a; stroke: #194a7a"/>
     <use xlink:href="#mcb9ddab8ea" x="329.393724" y="146.122877" style="fill: #194a7a; stroke: #194a7a"/>
     <use xlink:href="#mcb9ddab8ea" x="339.187351" y="148.017649" style="fill: #194a7a; stroke: #194a7a"/>
     <use xlink:href="#mcb9ddab8ea" x="348.980978" y="161.626509" style="fill: #194a7a; stroke: #194a7a"/>
     <use xlink:href="#mcb9ddab8ea" x="358.774605" y="173.150494" style="fill: #194a7a; stroke: #194a7a"/>
     <use xlink:href="#mcb9ddab8ea" x="368.568232" y="151.326628" style="fill: #194a7a; stroke: #194a7a"/>
     <use xlink:href="#mcb9ddab8ea" x="378.361859" y="145.702356" style="fill: #194a7a; stroke: #194a7a"/>
     <use xlink:href="#mcb9ddab8ea" x="388.155486" y="125.749652" style="fill: #194a7a; stroke: #194a7a"/>
     <use xlink:href="#mcb9ddab8ea" x="397.949113" y="129.979271" style="fill: #194a7a; stroke: #194a7a"/>
     <use xlink:href="#mcb9ddab8ea" x="407.74274" y="111.092592" style="fill: #194a7a; stroke: #194a7a"/>
     <use xlink:href="#mcb9ddab8ea" x="417.536367" y="105.213067" style="fill: #194a7a; stroke: #194a7a"/>
     <use xlink:href="#mcb9ddab8ea" x="427.329994" y="127.614218" style="fill: #194a7a; stroke: #194a7a"/>
     <use xlink:href="#mcb9ddab8ea" x="437.123621" y="130.58969" style="fill: #194a7a; stroke: #194a7a"/>
     <use xlink:href="#mcb9ddab8ea" x="446.917248" y="152.028166" style="fill: #194a7a; stroke: #194a7a"/>
     <use xlink:href="#mcb9ddab8ea" x="456.710875" y="146.421818" style="fill: #194a7a; stroke: #194a7a"/>
     <use xlink:href="#mcb9ddab8ea" x="466.504502" y="165.673208" style="fill: #194a7a; stroke: #194a7a"/>
     <use xlink:href="#mcb9ddab8ea" x="476.298129" y="164.695534" style="fill: #194a7a; stroke: #194a7a"/>
     <use xlink:href="#mcb9ddab8ea" x="486.091756" y="153.634997" style="fill: #194a7a; stroke: #194a7a"/>
     <use xlink:href="#mcb9ddab8ea" x="495.885383" y="135.965535" style="fill: #194a7a; stroke: #194a7a"/>
     <use xlink:href="#mcb9ddab8ea" x="505.67901" y="134.063696" style="fill: #194a7a; stroke: #194a7a"/>
     <use xlink:href="#mcb9ddab8ea" x="515.472637" y="130.823314" style="fill: #194a7a; stroke: #194a7a"/>
     <use xlink:href="#mcb9ddab8ea" x="525.266264" y="104.271606" style="fill: #194a7a; stroke: #194a7a"/>
     <use xlink:href="#mcb9ddab8ea" x="535.059891" y="115.898132" style="fill: #194a7a; stroke: #194a7a"/>
    </g>
   </g>
   <g id="patch_3">
    <path d="M 41.21625 252.417812 
L 41.21625 23.837812 
" style="fill: none; stroke: #cccccc; stroke-width: 1.25; stroke-linejoin: miter; stroke-linecap: square"/>
   </g>
   <g id="patch_4">
    <path d="M 563.70625 252.417812 
L 563.70625 23.837812 
" style="fill: none; stroke: #cccccc; stroke-width: 1.25; stroke-linejoin: miter; stroke-linecap: square"/>
   </g>
   <g id="patch_5">
    <path d="M 41.21625 252.417812 
L 563.70625 252.417812 
" style="fill: none; stroke: #cccccc; stroke-width: 1.25; stroke-linejoin: miter; stroke-linecap: square"/>
   </g>
   <g id="patch_6">
    <path d="M 41.21625 23.837812 
L 563.70625 23.837812 
" style="fill: none; stroke: #cccccc; stroke-width: 1.25; stroke-linejoin: miter; stroke-linecap: square"/>
   </g>
   <g id="text_19">
    <!-- Autocorrelaciones Simples -->
    <g style="fill: #262626" transform="translate(197.419688 17.837812) scale(0.14 -0.14)">
     <defs>
      <path id="DejaVuSans-Bold-41" d="M 3419 850 
L 1538 850 
L 1241 0 
L 31 0 
L 1759 4666 
L 3194 4666 
L 4922 0 
L 3713 0 
L 3419 850 
z
M 1838 1716 
L 3116 1716 
L 2478 3572 
L 1838 1716 
z
" transform="scale(0.015625)"/>
      <path id="DejaVuSans-Bold-75" d="M 500 1363 
L 500 3500 
L 1625 3500 
L 1625 3150 
Q 1625 2866 1622 2436 
Q 1619 2006 1619 1863 
Q 1619 1441 1641 1255 
Q 1663 1069 1716 984 
Q 1784 875 1895 815 
Q 2006 756 2150 756 
Q 2500 756 2700 1025 
Q 2900 1294 2900 1772 
L 2900 3500 
L 4019 3500 
L 4019 0 
L 2900 0 
L 2900 506 
Q 2647 200 2364 54 
Q 2081 -91 1741 -91 
Q 1134 -91 817 281 
Q 500 653 500 1363 
z
" transform="scale(0.015625)"/>
      <path id="DejaVuSans-Bold-74" d="M 1759 4494 
L 1759 3500 
L 2913 3500 
L 2913 2700 
L 1759 2700 
L 1759 1216 
Q 1759 972 1856 886 
Q 1953 800 2241 800 
L 2816 800 
L 2816 0 
L 1856 0 
Q 1194 0 917 276 
Q 641 553 641 1216 
L 641 2700 
L 84 2700 
L 84 3500 
L 641 3500 
L 641 4494 
L 1759 4494 
z
" transform="scale(0.015625)"/>
      <path id="DejaVuSans-Bold-6f" d="M 2203 2784 
Q 1831 2784 1636 2517 
Q 1441 2250 1441 1747 
Q 1441 1244 1636 976 
Q 1831 709 2203 709 
Q 2569 709 2762 976 
Q 2956 1244 2956 1747 
Q 2956 2250 2762 2517 
Q 2569 2784 2203 2784 
z
M 2203 3584 
Q 3106 3584 3614 3096 
Q 4122 2609 4122 1747 
Q 4122 884 3614 396 
Q 3106 -91 2203 -91 
Q 1297 -91 786 396 
Q 275 884 275 1747 
Q 275 2609 786 3096 
Q 1297 3584 2203 3584 
z
" transform="scale(0.015625)"/>
      <path id="DejaVuSans-Bold-63" d="M 3366 3391 
L 3366 2478 
Q 3138 2634 2908 2709 
Q 2678 2784 2431 2784 
Q 1963 2784 1702 2511 
Q 1441 2238 1441 1747 
Q 1441 1256 1702 982 
Q 1963 709 2431 709 
Q 2694 709 2930 787 
Q 3166 866 3366 1019 
L 3366 103 
Q 3103 6 2833 -42 
Q 2563 -91 2291 -91 
Q 1344 -91 809 395 
Q 275 881 275 1747 
Q 275 2613 809 3098 
Q 1344 3584 2291 3584 
Q 2566 3584 2833 3536 
Q 3100 3488 3366 3391 
z
" transform="scale(0.015625)"/>
      <path id="DejaVuSans-Bold-72" d="M 3138 2547 
Q 2991 2616 2845 2648 
Q 2700 2681 2553 2681 
Q 2122 2681 1889 2404 
Q 1656 2128 1656 1613 
L 1656 0 
L 538 0 
L 538 3500 
L 1656 3500 
L 1656 2925 
Q 1872 3269 2151 3426 
Q 2431 3584 2822 3584 
Q 2878 3584 2943 3579 
Q 3009 3575 3134 3559 
L 3138 2547 
z
" transform="scale(0.015625)"/>
      <path id="DejaVuSans-Bold-65" d="M 4031 1759 
L 4031 1441 
L 1416 1441 
Q 1456 1047 1700 850 
Q 1944 653 2381 653 
Q 2734 653 3104 758 
Q 3475 863 3866 1075 
L 3866 213 
Q 3469 63 3072 -14 
Q 2675 -91 2278 -91 
Q 1328 -91 801 392 
Q 275 875 275 1747 
Q 275 2603 792 3093 
Q 1309 3584 2216 3584 
Q 3041 3584 3536 3087 
Q 4031 2591 4031 1759 
z
M 2881 2131 
Q 2881 2450 2695 2645 
Q 2509 2841 2209 2841 
Q 1884 2841 1681 2658 
Q 1478 2475 1428 2131 
L 2881 2131 
z
" transform="scale(0.015625)"/>
      <path id="DejaVuSans-Bold-6c" d="M 538 4863 
L 1656 4863 
L 1656 0 
L 538 0 
L 538 4863 
z
" transform="scale(0.015625)"/>
      <path id="DejaVuSans-Bold-61" d="M 2106 1575 
Q 1756 1575 1579 1456 
Q 1403 1338 1403 1106 
Q 1403 894 1545 773 
Q 1688 653 1941 653 
Q 2256 653 2472 879 
Q 2688 1106 2688 1447 
L 2688 1575 
L 2106 1575 
z
M 3816 1997 
L 3816 0 
L 2688 0 
L 2688 519 
Q 2463 200 2181 54 
Q 1900 -91 1497 -91 
Q 953 -91 614 226 
Q 275 544 275 1050 
Q 275 1666 698 1953 
Q 1122 2241 2028 2241 
L 2688 2241 
L 2688 2328 
Q 2688 2594 2478 2717 
Q 2269 2841 1825 2841 
Q 1466 2841 1156 2769 
Q 847 2697 581 2553 
L 581 3406 
Q 941 3494 1303 3539 
Q 1666 3584 2028 3584 
Q 2975 3584 3395 3211 
Q 3816 2838 3816 1997 
z
" transform="scale(0.015625)"/>
      <path id="DejaVuSans-Bold-69" d="M 538 3500 
L 1656 3500 
L 1656 0 
L 538 0 
L 538 3500 
z
M 538 4863 
L 1656 4863 
L 1656 3950 
L 538 3950 
L 538 4863 
z
" transform="scale(0.015625)"/>
      <path id="DejaVuSans-Bold-6e" d="M 4056 2131 
L 4056 0 
L 2931 0 
L 2931 347 
L 2931 1631 
Q 2931 2084 2911 2256 
Q 2891 2428 2841 2509 
Q 2775 2619 2662 2680 
Q 2550 2741 2406 2741 
Q 2056 2741 1856 2470 
Q 1656 2200 1656 1722 
L 1656 0 
L 538 0 
L 538 3500 
L 1656 3500 
L 1656 2988 
Q 1909 3294 2193 3439 
Q 2478 3584 2822 3584 
Q 3428 3584 3742 3212 
Q 4056 2841 4056 2131 
z
" transform="scale(0.015625)"/>
      <path id="DejaVuSans-Bold-73" d="M 3272 3391 
L 3272 2541 
Q 2913 2691 2578 2766 
Q 2244 2841 1947 2841 
Q 1628 2841 1473 2761 
Q 1319 2681 1319 2516 
Q 1319 2381 1436 2309 
Q 1553 2238 1856 2203 
L 2053 2175 
Q 2913 2066 3209 1816 
Q 3506 1566 3506 1031 
Q 3506 472 3093 190 
Q 2681 -91 1863 -91 
Q 1516 -91 1145 -36 
Q 775 19 384 128 
L 384 978 
Q 719 816 1070 734 
Q 1422 653 1784 653 
Q 2113 653 2278 743 
Q 2444 834 2444 1013 
Q 2444 1163 2330 1236 
Q 2216 1309 1875 1350 
L 1678 1375 
Q 931 1469 631 1722 
Q 331 1975 331 2491 
Q 331 3047 712 3315 
Q 1094 3584 1881 3584 
Q 2191 3584 2531 3537 
Q 2872 3491 3272 3391 
z
" transform="scale(0.015625)"/>
      <path id="DejaVuSans-Bold-20" transform="scale(0.015625)"/>
      <path id="DejaVuSans-Bold-53" d="M 3834 4519 
L 3834 3531 
Q 3450 3703 3084 3790 
Q 2719 3878 2394 3878 
Q 1963 3878 1756 3759 
Q 1550 3641 1550 3391 
Q 1550 3203 1689 3098 
Q 1828 2994 2194 2919 
L 2706 2816 
Q 3484 2659 3812 2340 
Q 4141 2022 4141 1434 
Q 4141 663 3683 286 
Q 3225 -91 2284 -91 
Q 1841 -91 1394 -6 
Q 947 78 500 244 
L 500 1259 
Q 947 1022 1364 901 
Q 1781 781 2169 781 
Q 2563 781 2772 912 
Q 2981 1044 2981 1288 
Q 2981 1506 2839 1625 
Q 2697 1744 2272 1838 
L 1806 1941 
Q 1106 2091 782 2419 
Q 459 2747 459 3303 
Q 459 4000 909 4375 
Q 1359 4750 2203 4750 
Q 2588 4750 2994 4692 
Q 3400 4634 3834 4519 
z
" transform="scale(0.015625)"/>
      <path id="DejaVuSans-Bold-6d" d="M 3781 2919 
Q 3994 3244 4286 3414 
Q 4578 3584 4928 3584 
Q 5531 3584 5847 3212 
Q 6163 2841 6163 2131 
L 6163 0 
L 5038 0 
L 5038 1825 
Q 5041 1866 5042 1909 
Q 5044 1953 5044 2034 
Q 5044 2406 4934 2573 
Q 4825 2741 4581 2741 
Q 4263 2741 4089 2478 
Q 3916 2216 3909 1719 
L 3909 0 
L 2784 0 
L 2784 1825 
Q 2784 2406 2684 2573 
Q 2584 2741 2328 2741 
Q 2006 2741 1831 2477 
Q 1656 2213 1656 1722 
L 1656 0 
L 531 0 
L 531 3500 
L 1656 3500 
L 1656 2988 
Q 1863 3284 2130 3434 
Q 2397 3584 2719 3584 
Q 3081 3584 3359 3409 
Q 3638 3234 3781 2919 
z
" transform="scale(0.015625)"/>
      <path id="DejaVuSans-Bold-70" d="M 1656 506 
L 1656 -1331 
L 538 -1331 
L 538 3500 
L 1656 3500 
L 1656 2988 
Q 1888 3294 2169 3439 
Q 2450 3584 2816 3584 
Q 3463 3584 3878 3070 
Q 4294 2556 4294 1747 
Q 4294 938 3878 423 
Q 3463 -91 2816 -91 
Q 2450 -91 2169 54 
Q 1888 200 1656 506 
z
M 2400 2772 
Q 2041 2772 1848 2508 
Q 1656 2244 1656 1747 
Q 1656 1250 1848 986 
Q 2041 722 2400 722 
Q 2759 722 2948 984 
Q 3138 1247 3138 1747 
Q 3138 2247 2948 2509 
Q 2759 2772 2400 2772 
z
" transform="scale(0.015625)"/>
     </defs>
     <use xlink:href="#DejaVuSans-Bold-41"/>
     <use xlink:href="#DejaVuSans-Bold-75" transform="translate(77.392578 0)"/>
     <use xlink:href="#DejaVuSans-Bold-74" transform="translate(148.583984 0)"/>
     <use xlink:href="#DejaVuSans-Bold-6f" transform="translate(196.386719 0)"/>
     <use xlink:href="#DejaVuSans-Bold-63" transform="translate(265.087891 0)"/>
     <use xlink:href="#DejaVuSans-Bold-6f" transform="translate(324.365234 0)"/>
     <use xlink:href="#DejaVuSans-Bold-72" transform="translate(393.066406 0)"/>
     <use xlink:href="#DejaVuSans-Bold-72" transform="translate(442.382812 0)"/>
     <use xlink:href="#DejaVuSans-Bold-65" transform="translate(491.699219 0)"/>
     <use xlink:href="#DejaVuSans-Bold-6c" transform="translate(559.521484 0)"/>
     <use xlink:href="#DejaVuSans-Bold-61" transform="translate(593.798828 0)"/>
     <use xlink:href="#DejaVuSans-Bold-63" transform="translate(661.279297 0)"/>
     <use xlink:href="#DejaVuSans-Bold-69" transform="translate(720.556641 0)"/>
     <use xlink:href="#DejaVuSans-Bold-6f" transform="translate(754.833984 0)"/>
     <use xlink:href="#DejaVuSans-Bold-6e" transform="translate(823.535156 0)"/>
     <use xlink:href="#DejaVuSans-Bold-65" transform="translate(894.726562 0)"/>
     <use xlink:href="#DejaVuSans-Bold-73" transform="translate(962.548828 0)"/>
     <use xlink:href="#DejaVuSans-Bold-20" transform="translate(1022.070312 0)"/>
     <use xlink:href="#DejaVuSans-Bold-53" transform="translate(1056.884766 0)"/>
     <use xlink:href="#DejaVuSans-Bold-69" transform="translate(1128.90625 0)"/>
     <use xlink:href="#DejaVuSans-Bold-6d" transform="translate(1163.183594 0)"/>
     <use xlink:href="#DejaVuSans-Bold-70" transform="translate(1267.382812 0)"/>
     <use xlink:href="#DejaVuSans-Bold-6c" transform="translate(1338.964844 0)"/>
     <use xlink:href="#DejaVuSans-Bold-65" transform="translate(1373.242188 0)"/>
     <use xlink:href="#DejaVuSans-Bold-73" transform="translate(1441.064453 0)"/>
    </g>
   </g>
  </g>
  <g id="axes_2">
   <g id="patch_7">
    <path d="M 610.73625 252.417812 
L 1133.22625 252.417812 
L 1133.22625 23.837812 
L 610.73625 23.837812 
z
" style="fill: #ffffff"/>
   </g>
   <g id="matplotlib.axis_3">
    <g id="xtick_10">
     <g id="line2d_21">
      <path d="M 634.485795 252.417812 
L 634.485795 23.837812 
" clip-path="url(#p2337aa3c7f)" style="fill: none; stroke-dasharray: 1.85,0.8; stroke-dashoffset: 0; stroke: #808080; stroke-width: 0.5"/>
     </g>
     <g id="text_20">
      <!-- 0 -->
      <g style="fill: #262626" transform="translate(631.940795 267.996562) scale(0.08 -0.08)">
       <use xlink:href="#DejaVuSans-30"/>
      </g>
     </g>
    </g>
    <g id="xtick_11">
     <g id="line2d_22">
      <path d="M 693.247557 252.417812 
L 693.247557 23.837812 
" clip-path="url(#p2337aa3c7f)" style="fill: none; stroke-dasharray: 1.85,0.8; stroke-dashoffset: 0; stroke: #808080; stroke-width: 0.5"/>
     </g>
     <g id="text_21">
      <!-- 6 -->
      <g style="fill: #262626" transform="translate(690.702557 267.996562) scale(0.08 -0.08)">
       <use xlink:href="#DejaVuSans-36"/>
      </g>
     </g>
    </g>
    <g id="xtick_12">
     <g id="line2d_23">
      <path d="M 752.009319 252.417812 
L 752.009319 23.837812 
" clip-path="url(#p2337aa3c7f)" style="fill: none; stroke-dasharray: 1.85,0.8; stroke-dashoffset: 0; stroke: #808080; stroke-width: 0.5"/>
     </g>
     <g id="text_22">
      <!-- 12 -->
      <g style="fill: #262626" transform="translate(746.919319 267.996562) scale(0.08 -0.08)">
       <use xlink:href="#DejaVuSans-31"/>
       <use xlink:href="#DejaVuSans-32" transform="translate(63.623047 0)"/>
      </g>
     </g>
    </g>
    <g id="xtick_13">
     <g id="line2d_24">
      <path d="M 810.771081 252.417812 
L 810.771081 23.837812 
" clip-path="url(#p2337aa3c7f)" style="fill: none; stroke-dasharray: 1.85,0.8; stroke-dashoffset: 0; stroke: #808080; stroke-width: 0.5"/>
     </g>
     <g id="text_23">
      <!-- 18 -->
      <g style="fill: #262626" transform="translate(805.681081 267.996562) scale(0.08 -0.08)">
       <use xlink:href="#DejaVuSans-31"/>
       <use xlink:href="#DejaVuSans-38" transform="translate(63.623047 0)"/>
      </g>
     </g>
    </g>
    <g id="xtick_14">
     <g id="line2d_25">
      <path d="M 869.532843 252.417812 
L 869.532843 23.837812 
" clip-path="url(#p2337aa3c7f)" style="fill: none; stroke-dasharray: 1.85,0.8; stroke-dashoffset: 0; stroke: #808080; stroke-width: 0.5"/>
     </g>
     <g id="text_24">
      <!-- 24 -->
      <g style="fill: #262626" transform="translate(864.442843 267.996562) scale(0.08 -0.08)">
       <use xlink:href="#DejaVuSans-32"/>
       <use xlink:href="#DejaVuSans-34" transform="translate(63.623047 0)"/>
      </g>
     </g>
    </g>
    <g id="xtick_15">
     <g id="line2d_26">
      <path d="M 928.294605 252.417812 
L 928.294605 23.837812 
" clip-path="url(#p2337aa3c7f)" style="fill: none; stroke-dasharray: 1.85,0.8; stroke-dashoffset: 0; stroke: #808080; stroke-width: 0.5"/>
     </g>
     <g id="text_25">
      <!-- 30 -->
      <g style="fill: #262626" transform="translate(923.204605 267.996562) scale(0.08 -0.08)">
       <use xlink:href="#DejaVuSans-33"/>
       <use xlink:href="#DejaVuSans-30" transform="translate(63.623047 0)"/>
      </g>
     </g>
    </g>
    <g id="xtick_16">
     <g id="line2d_27">
      <path d="M 987.056367 252.417812 
L 987.056367 23.837812 
" clip-path="url(#p2337aa3c7f)" style="fill: none; stroke-dasharray: 1.85,0.8; stroke-dashoffset: 0; stroke: #808080; stroke-width: 0.5"/>
     </g>
     <g id="text_26">
      <!-- 36 -->
      <g style="fill: #262626" transform="translate(981.966367 267.996562) scale(0.08 -0.08)">
       <use xlink:href="#DejaVuSans-33"/>
       <use xlink:href="#DejaVuSans-36" transform="translate(63.623047 0)"/>
      </g>
     </g>
    </g>
    <g id="xtick_17">
     <g id="line2d_28">
      <path d="M 1045.818129 252.417812 
L 1045.818129 23.837812 
" clip-path="url(#p2337aa3c7f)" style="fill: none; stroke-dasharray: 1.85,0.8; stroke-dashoffset: 0; stroke: #808080; stroke-width: 0.5"/>
     </g>
     <g id="text_27">
      <!-- 42 -->
      <g style="fill: #262626" transform="translate(1040.728129 267.996562) scale(0.08 -0.08)">
       <use xlink:href="#DejaVuSans-34"/>
       <use xlink:href="#DejaVuSans-32" transform="translate(63.623047 0)"/>
      </g>
     </g>
    </g>
    <g id="xtick_18">
     <g id="line2d_29">
      <path d="M 1104.579891 252.417812 
L 1104.579891 23.837812 
" clip-path="url(#p2337aa3c7f)" style="fill: none; stroke-dasharray: 1.85,0.8; stroke-dashoffset: 0; stroke: #808080; stroke-width: 0.5"/>
     </g>
     <g id="text_28">
      <!-- 48 -->
      <g style="fill: #262626" transform="translate(1099.489891 267.996562) scale(0.08 -0.08)">
       <use xlink:href="#DejaVuSans-34"/>
       <use xlink:href="#DejaVuSans-38" transform="translate(63.623047 0)"/>
      </g>
     </g>
    </g>
   </g>
   <g id="matplotlib.axis_4">
    <g id="ytick_10">
     <g id="line2d_30">
      <path d="M 610.73625 252.417812 
L 1133.22625 252.417812 
" clip-path="url(#p2337aa3c7f)" style="fill: none; stroke-dasharray: 1.85,0.8; stroke-dashoffset: 0; stroke: #808080; stroke-width: 0.5"/>
     </g>
     <g id="text_29">
      <!-- −1.00 -->
      <g style="fill: #262626" transform="translate(576.72 255.457187) scale(0.08 -0.08)">
       <use xlink:href="#DejaVuSans-2212"/>
       <use xlink:href="#DejaVuSans-31" transform="translate(83.789062 0)"/>
       <use xlink:href="#DejaVuSans-2e" transform="translate(147.412109 0)"/>
       <use xlink:href="#DejaVuSans-30" transform="translate(179.199219 0)"/>
       <use xlink:href="#DejaVuSans-30" transform="translate(242.822266 0)"/>
      </g>
     </g>
    </g>
    <g id="ytick_11">
     <g id="line2d_31">
      <path d="M 610.73625 223.845312 
L 1133.22625 223.845312 
" clip-path="url(#p2337aa3c7f)" style="fill: none; stroke-dasharray: 1.85,0.8; stroke-dashoffset: 0; stroke: #808080; stroke-width: 0.5"/>
     </g>
     <g id="text_30">
      <!-- −0.75 -->
      <g style="fill: #262626" transform="translate(576.72 226.884687) scale(0.08 -0.08)">
       <use xlink:href="#DejaVuSans-2212"/>
       <use xlink:href="#DejaVuSans-30" transform="translate(83.789062 0)"/>
       <use xlink:href="#DejaVuSans-2e" transform="translate(147.412109 0)"/>
       <use xlink:href="#DejaVuSans-37" transform="translate(179.199219 0)"/>
       <use xlink:href="#DejaVuSans-35" transform="translate(242.822266 0)"/>
      </g>
     </g>
    </g>
    <g id="ytick_12">
     <g id="line2d_32">
      <path d="M 610.73625 195.272812 
L 1133.22625 195.272812 
" clip-path="url(#p2337aa3c7f)" style="fill: none; stroke-dasharray: 1.85,0.8; stroke-dashoffset: 0; stroke: #808080; stroke-width: 0.5"/>
     </g>
     <g id="text_31">
      <!-- −0.50 -->
      <g style="fill: #262626" transform="translate(576.72 198.312187) scale(0.08 -0.08)">
       <use xlink:href="#DejaVuSans-2212"/>
       <use xlink:href="#DejaVuSans-30" transform="translate(83.789062 0)"/>
       <use xlink:href="#DejaVuSans-2e" transform="translate(147.412109 0)"/>
       <use xlink:href="#DejaVuSans-35" transform="translate(179.199219 0)"/>
       <use xlink:href="#DejaVuSans-30" transform="translate(242.822266 0)"/>
      </g>
     </g>
    </g>
    <g id="ytick_13">
     <g id="line2d_33">
      <path d="M 610.73625 166.700312 
L 1133.22625 166.700312 
" clip-path="url(#p2337aa3c7f)" style="fill: none; stroke-dasharray: 1.85,0.8; stroke-dashoffset: 0; stroke: #808080; stroke-width: 0.5"/>
     </g>
     <g id="text_32">
      <!-- −0.25 -->
      <g style="fill: #262626" transform="translate(576.72 169.739687) scale(0.08 -0.08)">
       <use xlink:href="#DejaVuSans-2212"/>
       <use xlink:href="#DejaVuSans-30" transform="translate(83.789062 0)"/>
       <use xlink:href="#DejaVuSans-2e" transform="translate(147.412109 0)"/>
       <use xlink:href="#DejaVuSans-32" transform="translate(179.199219 0)"/>
       <use xlink:href="#DejaVuSans-35" transform="translate(242.822266 0)"/>
      </g>
     </g>
    </g>
    <g id="ytick_14">
     <g id="line2d_34">
      <path d="M 610.73625 138.127812 
L 1133.22625 138.127812 
" clip-path="url(#p2337aa3c7f)" style="fill: none; stroke-dasharray: 1.85,0.8; stroke-dashoffset: 0; stroke: #808080; stroke-width: 0.5"/>
     </g>
     <g id="text_33">
      <!-- 0.00 -->
      <g style="fill: #262626" transform="translate(583.42375 141.167187) scale(0.08 -0.08)">
       <use xlink:href="#DejaVuSans-30"/>
       <use xlink:href="#DejaVuSans-2e" transform="translate(63.623047 0)"/>
       <use xlink:href="#DejaVuSans-30" transform="translate(95.410156 0)"/>
       <use xlink:href="#DejaVuSans-30" transform="translate(159.033203 0)"/>
      </g>
     </g>
    </g>
    <g id="ytick_15">
     <g id="line2d_35">
      <path d="M 610.73625 109.555312 
L 1133.22625 109.555312 
" clip-path="url(#p2337aa3c7f)" style="fill: none; stroke-dasharray: 1.85,0.8; stroke-dashoffset: 0; stroke: #808080; stroke-width: 0.5"/>
     </g>
     <g id="text_34">
      <!-- 0.25 -->
      <g style="fill: #262626" transform="translate(583.42375 112.594687) scale(0.08 -0.08)">
       <use xlink:href="#DejaVuSans-30"/>
       <use xlink:href="#DejaVuSans-2e" transform="translate(63.623047 0)"/>
       <use xlink:href="#DejaVuSans-32" transform="translate(95.410156 0)"/>
       <use xlink:href="#DejaVuSans-35" transform="translate(159.033203 0)"/>
      </g>
     </g>
    </g>
    <g id="ytick_16">
     <g id="line2d_36">
      <path d="M 610.73625 80.982812 
L 1133.22625 80.982812 
" clip-path="url(#p2337aa3c7f)" style="fill: none; stroke-dasharray: 1.85,0.8; stroke-dashoffset: 0; stroke: #808080; stroke-width: 0.5"/>
     </g>
     <g id="text_35">
      <!-- 0.50 -->
      <g style="fill: #262626" transform="translate(583.42375 84.022187) scale(0.08 -0.08)">
       <use xlink:href="#DejaVuSans-30"/>
       <use xlink:href="#DejaVuSans-2e" transform="translate(63.623047 0)"/>
       <use xlink:href="#DejaVuSans-35" transform="translate(95.410156 0)"/>
       <use xlink:href="#DejaVuSans-30" transform="translate(159.033203 0)"/>
      </g>
     </g>
    </g>
    <g id="ytick_17">
     <g id="line2d_37">
      <path d="M 610.73625 52.410312 
L 1133.22625 52.410312 
" clip-path="url(#p2337aa3c7f)" style="fill: none; stroke-dasharray: 1.85,0.8; stroke-dashoffset: 0; stroke: #808080; stroke-width: 0.5"/>
     </g>
     <g id="text_36">
      <!-- 0.75 -->
      <g style="fill: #262626" transform="translate(583.42375 55.449687) scale(0.08 -0.08)">
       <use xlink:href="#DejaVuSans-30"/>
       <use xlink:href="#DejaVuSans-2e" transform="translate(63.623047 0)"/>
       <use xlink:href="#DejaVuSans-37" transform="translate(95.410156 0)"/>
       <use xlink:href="#DejaVuSans-35" transform="translate(159.033203 0)"/>
      </g>
     </g>
    </g>
    <g id="ytick_18">
     <g id="line2d_38">
      <path d="M 610.73625 23.837812 
L 1133.22625 23.837812 
" clip-path="url(#p2337aa3c7f)" style="fill: none; stroke-dasharray: 1.85,0.8; stroke-dashoffset: 0; stroke: #808080; stroke-width: 0.5"/>
     </g>
     <g id="text_37">
      <!-- 1.00 -->
      <g style="fill: #262626" transform="translate(583.42375 26.877187) scale(0.08 -0.08)">
       <use xlink:href="#DejaVuSans-31"/>
       <use xlink:href="#DejaVuSans-2e" transform="translate(63.623047 0)"/>
       <use xlink:href="#DejaVuSans-30" transform="translate(95.410156 0)"/>
       <use xlink:href="#DejaVuSans-30" transform="translate(159.033203 0)"/>
      </g>
     </g>
    </g>
   </g>
   <g id="FillBetweenPolyCollection_2">
    <defs>
     <path id="mf1a7b07515" d="M 639.382609 -147.380089 
L 639.382609 -130.084911 
L 654.073049 -130.084911 
L 663.866676 -130.084911 
L 673.660303 -130.084911 
L 683.45393 -130.084911 
L 693.247557 -130.084911 
L 703.041184 -130.084911 
L 712.834811 -130.084911 
L 722.628438 -130.084911 
L 732.422065 -130.084911 
L 742.215692 -130.084911 
L 752.009319 -130.084911 
L 761.802946 -130.084911 
L 771.596573 -130.084911 
L 781.3902 -130.084911 
L 791.183827 -130.084911 
L 800.977454 -130.084911 
L 810.771081 -130.084911 
L 820.564708 -130.084911 
L 830.358335 -130.084911 
L 840.151962 -130.084911 
L 849.945589 -130.084911 
L 859.739216 -130.084911 
L 869.532843 -130.084911 
L 879.32647 -130.084911 
L 889.120097 -130.084911 
L 898.913724 -130.084911 
L 908.707351 -130.084911 
L 918.500978 -130.084911 
L 928.294605 -130.084911 
L 938.088232 -130.084911 
L 947.881859 -130.084911 
L 957.675486 -130.084911 
L 967.469113 -130.084911 
L 977.26274 -130.084911 
L 987.056367 -130.084911 
L 996.849994 -130.084911 
L 1006.643621 -130.084911 
L 1016.437248 -130.084911 
L 1026.230875 -130.084911 
L 1036.024502 -130.084911 
L 1045.818129 -130.084911 
L 1055.611756 -130.084911 
L 1065.405383 -130.084911 
L 1075.19901 -130.084911 
L 1084.992637 -130.084911 
L 1094.786264 -130.084911 
L 1109.476705 -130.084911 
L 1109.476705 -147.380089 
L 1109.476705 -147.380089 
L 1094.786264 -147.380089 
L 1084.992637 -147.380089 
L 1075.19901 -147.380089 
L 1065.405383 -147.380089 
L 1055.611756 -147.380089 
L 1045.818129 -147.380089 
L 1036.024502 -147.380089 
L 1026.230875 -147.380089 
L 1016.437248 -147.380089 
L 1006.643621 -147.380089 
L 996.849994 -147.380089 
L 987.056367 -147.380089 
L 977.26274 -147.380089 
L 967.469113 -147.380089 
L 957.675486 -147.380089 
L 947.881859 -147.380089 
L 938.088232 -147.380089 
L 928.294605 -147.380089 
L 918.500978 -147.380089 
L 908.707351 -147.380089 
L 898.913724 -147.380089 
L 889.120097 -147.380089 
L 879.32647 -147.380089 
L 869.532843 -147.380089 
L 859.739216 -147.380089 
L 849.945589 -147.380089 
L 840.151962 -147.380089 
L 830.358335 -147.380089 
L 820.564708 -147.380089 
L 810.771081 -147.380089 
L 800.977454 -147.380089 
L 791.183827 -147.380089 
L 781.3902 -147.380089 
L 771.596573 -147.380089 
L 761.802946 -147.380089 
L 752.009319 -147.380089 
L 742.215692 -147.380089 
L 732.422065 -147.380089 
L 722.628438 -147.380089 
L 712.834811 -147.380089 
L 703.041184 -147.380089 
L 693.247557 -147.380089 
L 683.45393 -147.380089 
L 673.660303 -147.380089 
L 663.866676 -147.380089 
L 654.073049 -147.380089 
L 639.382609 -147.380089 
z
" style="stroke: #ffffff; stroke-opacity: 0.25"/>
    </defs>
    <g clip-path="url(#p2337aa3c7f)">
     <use xlink:href="#mf1a7b07515" x="0" y="276.860312" style="fill: #194a7a; fill-opacity: 0.25; stroke: #ffffff; stroke-opacity: 0.25"/>
    </g>
   </g>
   <g id="LineCollection_2">
    <path d="M 634.485795 138.127812 
L 634.485795 23.837812 
" clip-path="url(#p2337aa3c7f)" style="fill: none; stroke: #194a7a; stroke-width: 1.2"/>
    <path d="M 644.279422 138.127812 
L 644.279422 147.963653 
" clip-path="url(#p2337aa3c7f)" style="fill: none; stroke: #194a7a; stroke-width: 1.2"/>
    <path d="M 654.073049 138.127812 
L 654.073049 132.396626 
" clip-path="url(#p2337aa3c7f)" style="fill: none; stroke: #194a7a; stroke-width: 1.2"/>
    <path d="M 663.866676 138.127812 
L 663.866676 139.422692 
" clip-path="url(#p2337aa3c7f)" style="fill: none; stroke: #194a7a; stroke-width: 1.2"/>
    <path d="M 673.660303 138.127812 
L 673.660303 147.43811 
" clip-path="url(#p2337aa3c7f)" style="fill: none; stroke: #194a7a; stroke-width: 1.2"/>
    <path d="M 683.45393 138.127812 
L 683.45393 165.7 
" clip-path="url(#p2337aa3c7f)" style="fill: none; stroke: #194a7a; stroke-width: 1.2"/>
    <path d="M 693.247557 138.127812 
L 693.247557 185.748416 
" clip-path="url(#p2337aa3c7f)" style="fill: none; stroke: #194a7a; stroke-width: 1.2"/>
    <path d="M 703.041184 138.127812 
L 703.041184 179.71235 
" clip-path="url(#p2337aa3c7f)" style="fill: none; stroke: #194a7a; stroke-width: 1.2"/>
    <path d="M 712.834811 138.127812 
L 712.834811 171.09648 
" clip-path="url(#p2337aa3c7f)" style="fill: none; stroke: #194a7a; stroke-width: 1.2"/>
    <path d="M 722.628438 138.127812 
L 722.628438 159.616267 
" clip-path="url(#p2337aa3c7f)" style="fill: none; stroke: #194a7a; stroke-width: 1.2"/>
    <path d="M 732.422065 138.127812 
L 732.422065 172.941553 
" clip-path="url(#p2337aa3c7f)" style="fill: none; stroke: #194a7a; stroke-width: 1.2"/>
    <path d="M 742.215692 138.127812 
L 742.215692 162.261605 
" clip-path="url(#p2337aa3c7f)" style="fill: none; stroke: #194a7a; stroke-width: 1.2"/>
    <path d="M 752.009319 138.127812 
L 752.009319 143.932372 
" clip-path="url(#p2337aa3c7f)" style="fill: none; stroke: #194a7a; stroke-width: 1.2"/>
    <path d="M 761.802946 138.127812 
L 761.802946 139.660727 
" clip-path="url(#p2337aa3c7f)" style="fill: none; stroke: #194a7a; stroke-width: 1.2"/>
    <path d="M 771.596573 138.127812 
L 771.596573 142.296532 
" clip-path="url(#p2337aa3c7f)" style="fill: none; stroke: #194a7a; stroke-width: 1.2"/>
    <path d="M 781.3902 138.127812 
L 781.3902 139.784177 
" clip-path="url(#p2337aa3c7f)" style="fill: none; stroke: #194a7a; stroke-width: 1.2"/>
    <path d="M 791.183827 138.127812 
L 791.183827 131.923755 
" clip-path="url(#p2337aa3c7f)" style="fill: none; stroke: #194a7a; stroke-width: 1.2"/>
    <path d="M 800.977454 138.127812 
L 800.977454 139.725029 
" clip-path="url(#p2337aa3c7f)" style="fill: none; stroke: #194a7a; stroke-width: 1.2"/>
    <path d="M 810.771081 138.127812 
L 810.771081 143.397998 
" clip-path="url(#p2337aa3c7f)" style="fill: none; stroke: #194a7a; stroke-width: 1.2"/>
    <path d="M 820.564708 138.127812 
L 820.564708 146.813877 
" clip-path="url(#p2337aa3c7f)" style="fill: none; stroke: #194a7a; stroke-width: 1.2"/>
    <path d="M 830.358335 138.127812 
L 830.358335 145.985083 
" clip-path="url(#p2337aa3c7f)" style="fill: none; stroke: #194a7a; stroke-width: 1.2"/>
    <path d="M 840.151962 138.127812 
L 840.151962 134.58111 
" clip-path="url(#p2337aa3c7f)" style="fill: none; stroke: #194a7a; stroke-width: 1.2"/>
    <path d="M 849.945589 138.127812 
L 849.945589 155.575739 
" clip-path="url(#p2337aa3c7f)" style="fill: none; stroke: #194a7a; stroke-width: 1.2"/>
    <path d="M 859.739216 138.127812 
L 859.739216 146.824381 
" clip-path="url(#p2337aa3c7f)" style="fill: none; stroke: #194a7a; stroke-width: 1.2"/>
    <path d="M 869.532843 138.127812 
L 869.532843 143.154676 
" clip-path="url(#p2337aa3c7f)" style="fill: none; stroke: #194a7a; stroke-width: 1.2"/>
    <path d="M 879.32647 138.127812 
L 879.32647 135.449908 
" clip-path="url(#p2337aa3c7f)" style="fill: none; stroke: #194a7a; stroke-width: 1.2"/>
    <path d="M 889.120097 138.127812 
L 889.120097 137.652779 
" clip-path="url(#p2337aa3c7f)" style="fill: none; stroke: #194a7a; stroke-width: 1.2"/>
    <path d="M 898.913724 138.127812 
L 898.913724 146.609438 
" clip-path="url(#p2337aa3c7f)" style="fill: none; stroke: #194a7a; stroke-width: 1.2"/>
    <path d="M 908.707351 138.127812 
L 908.707351 141.758096 
" clip-path="url(#p2337aa3c7f)" style="fill: none; stroke: #194a7a; stroke-width: 1.2"/>
    <path d="M 918.500978 138.127812 
L 918.500978 134.325464 
" clip-path="url(#p2337aa3c7f)" style="fill: none; stroke: #194a7a; stroke-width: 1.2"/>
    <path d="M 928.294605 138.127812 
L 928.294605 147.105305 
" clip-path="url(#p2337aa3c7f)" style="fill: none; stroke: #194a7a; stroke-width: 1.2"/>
    <path d="M 938.088232 138.127812 
L 938.088232 138.579495 
" clip-path="url(#p2337aa3c7f)" style="fill: none; stroke: #194a7a; stroke-width: 1.2"/>
    <path d="M 947.881859 138.127812 
L 947.881859 151.212438 
" clip-path="url(#p2337aa3c7f)" style="fill: none; stroke: #194a7a; stroke-width: 1.2"/>
    <path d="M 957.675486 138.127812 
L 957.675486 138.522959 
" clip-path="url(#p2337aa3c7f)" style="fill: none; stroke: #194a7a; stroke-width: 1.2"/>
    <path d="M 967.469113 138.127812 
L 967.469113 147.594598 
" clip-path="url(#p2337aa3c7f)" style="fill: none; stroke: #194a7a; stroke-width: 1.2"/>
    <path d="M 977.26274 138.127812 
L 977.26274 145.721036 
" clip-path="url(#p2337aa3c7f)" style="fill: none; stroke: #194a7a; stroke-width: 1.2"/>
    <path d="M 987.056367 138.127812 
L 987.056367 135.513713 
" clip-path="url(#p2337aa3c7f)" style="fill: none; stroke: #194a7a; stroke-width: 1.2"/>
    <path d="M 996.849994 138.127812 
L 996.849994 145.138505 
" clip-path="url(#p2337aa3c7f)" style="fill: none; stroke: #194a7a; stroke-width: 1.2"/>
    <path d="M 1006.643621 138.127812 
L 1006.643621 133.390646 
" clip-path="url(#p2337aa3c7f)" style="fill: none; stroke: #194a7a; stroke-width: 1.2"/>
    <path d="M 1016.437248 138.127812 
L 1016.437248 145.13638 
" clip-path="url(#p2337aa3c7f)" style="fill: none; stroke: #194a7a; stroke-width: 1.2"/>
    <path d="M 1026.230875 138.127812 
L 1026.230875 136.572859 
" clip-path="url(#p2337aa3c7f)" style="fill: none; stroke: #194a7a; stroke-width: 1.2"/>
    <path d="M 1036.024502 138.127812 
L 1036.024502 136.304854 
" clip-path="url(#p2337aa3c7f)" style="fill: none; stroke: #194a7a; stroke-width: 1.2"/>
    <path d="M 1045.818129 138.127812 
L 1045.818129 137.685948 
" clip-path="url(#p2337aa3c7f)" style="fill: none; stroke: #194a7a; stroke-width: 1.2"/>
    <path d="M 1055.611756 138.127812 
L 1055.611756 134.112261 
" clip-path="url(#p2337aa3c7f)" style="fill: none; stroke: #194a7a; stroke-width: 1.2"/>
    <path d="M 1065.405383 138.127812 
L 1065.405383 132.642162 
" clip-path="url(#p2337aa3c7f)" style="fill: none; stroke: #194a7a; stroke-width: 1.2"/>
    <path d="M 1075.19901 138.127812 
L 1075.19901 136.113421 
" clip-path="url(#p2337aa3c7f)" style="fill: none; stroke: #194a7a; stroke-width: 1.2"/>
    <path d="M 1084.992637 138.127812 
L 1084.992637 150.94422 
" clip-path="url(#p2337aa3c7f)" style="fill: none; stroke: #194a7a; stroke-width: 1.2"/>
    <path d="M 1094.786264 138.127812 
L 1094.786264 138.87791 
" clip-path="url(#p2337aa3c7f)" style="fill: none; stroke: #194a7a; stroke-width: 1.2"/>
    <path d="M 1104.579891 138.127812 
L 1104.579891 139.952329 
" clip-path="url(#p2337aa3c7f)" style="fill: none; stroke: #194a7a; stroke-width: 1.2"/>
   </g>
   <g id="line2d_39">
    <path d="M 610.73625 138.127812 
L 1133.22625 138.127812 
" clip-path="url(#p2337aa3c7f)" style="fill: none; stroke: #194a7a; stroke-width: 1.2; stroke-linecap: round"/>
   </g>
   <g id="line2d_40">
    <g clip-path="url(#p2337aa3c7f)">
     <use xlink:href="#mcb9ddab8ea" x="634.485795" y="23.837812" style="fill: #194a7a; stroke: #194a7a"/>
     <use xlink:href="#mcb9ddab8ea" x="644.279422" y="147.963653" style="fill: #194a7a; stroke: #194a7a"/>
     <use xlink:href="#mcb9ddab8ea" x="654.073049" y="132.396626" style="fill: #194a7a; stroke: #194a7a"/>
     <use xlink:href="#mcb9ddab8ea" x="663.866676" y="139.422692" style="fill: #194a7a; stroke: #194a7a"/>
     <use xlink:href="#mcb9ddab8ea" x="673.660303" y="147.43811" style="fill: #194a7a; stroke: #194a7a"/>
     <use xlink:href="#mcb9ddab8ea" x="683.45393" y="165.7" style="fill: #194a7a; stroke: #194a7a"/>
     <use xlink:href="#mcb9ddab8ea" x="693.247557" y="185.748416" style="fill: #194a7a; stroke: #194a7a"/>
     <use xlink:href="#mcb9ddab8ea" x="703.041184" y="179.71235" style="fill: #194a7a; stroke: #194a7a"/>
     <use xlink:href="#mcb9ddab8ea" x="712.834811" y="171.09648" style="fill: #194a7a; stroke: #194a7a"/>
     <use xlink:href="#mcb9ddab8ea" x="722.628438" y="159.616267" style="fill: #194a7a; stroke: #194a7a"/>
     <use xlink:href="#mcb9ddab8ea" x="732.422065" y="172.941553" style="fill: #194a7a; stroke: #194a7a"/>
     <use xlink:href="#mcb9ddab8ea" x="742.215692" y="162.261605" style="fill: #194a7a; stroke: #194a7a"/>
     <use xlink:href="#mcb9ddab8ea" x="752.009319" y="143.932372" style="fill: #194a7a; stroke: #194a7a"/>
     <use xlink:href="#mcb9ddab8ea" x="761.802946" y="139.660727" style="fill: #194a7a; stroke: #194a7a"/>
     <use xlink:href="#mcb9ddab8ea" x="771.596573" y="142.296532" style="fill: #194a7a; stroke: #194a7a"/>
     <use xlink:href="#mcb9ddab8ea" x="781.3902" y="139.784177" style="fill: #194a7a; stroke: #194a7a"/>
     <use xlink:href="#mcb9ddab8ea" x="791.183827" y="131.923755" style="fill: #194a7a; stroke: #194a7a"/>
     <use xlink:href="#mcb9ddab8ea" x="800.977454" y="139.725029" style="fill: #194a7a; stroke: #194a7a"/>
     <use xlink:href="#mcb9ddab8ea" x="810.771081" y="143.397998" style="fill: #194a7a; stroke: #194a7a"/>
     <use xlink:href="#mcb9ddab8ea" x="820.564708" y="146.813877" style="fill: #194a7a; stroke: #194a7a"/>
     <use xlink:href="#mcb9ddab8ea" x="830.358335" y="145.985083" style="fill: #194a7a; stroke: #194a7a"/>
     <use xlink:href="#mcb9ddab8ea" x="840.151962" y="134.58111" style="fill: #194a7a; stroke: #194a7a"/>
     <use xlink:href="#mcb9ddab8ea" x="849.945589" y="155.575739" style="fill: #194a7a; stroke: #194a7a"/>
     <use xlink:href="#mcb9ddab8ea" x="859.739216" y="146.824381" style="fill: #194a7a; stroke: #194a7a"/>
     <use xlink:href="#mcb9ddab8ea" x="869.532843" y="143.154676" style="fill: #194a7a; stroke: #194a7a"/>
     <use xlink:href="#mcb9ddab8ea" x="879.32647" y="135.449908" style="fill: #194a7a; stroke: #194a7a"/>
     <use xlink:href="#mcb9ddab8ea" x="889.120097" y="137.652779" style="fill: #194a7a; stroke: #194a7a"/>
     <use xlink:href="#mcb9ddab8ea" x="898.913724" y="146.609438" style="fill: #194a7a; stroke: #194a7a"/>
     <use xlink:href="#mcb9ddab8ea" x="908.707351" y="141.758096" style="fill: #194a7a; stroke: #194a7a"/>
     <use xlink:href="#mcb9ddab8ea" x="918.500978" y="134.325464" style="fill: #194a7a; stroke: #194a7a"/>
     <use xlink:href="#mcb9ddab8ea" x="928.294605" y="147.105305" style="fill: #194a7a; stroke: #194a7a"/>
     <use xlink:href="#mcb9ddab8ea" x="938.088232" y="138.579495" style="fill: #194a7a; stroke: #194a7a"/>
     <use xlink:href="#mcb9ddab8ea" x="947.881859" y="151.212438" style="fill: #194a7a; stroke: #194a7a"/>
     <use xlink:href="#mcb9ddab8ea" x="957.675486" y="138.522959" style="fill: #194a7a; stroke: #194a7a"/>
     <use xlink:href="#mcb9ddab8ea" x="967.469113" y="147.594598" style="fill: #194a7a; stroke: #194a7a"/>
     <use xlink:href="#mcb9ddab8ea" x="977.26274" y="145.721036" style="fill: #194a7a; stroke: #194a7a"/>
     <use xlink:href="#mcb9ddab8ea" x="987.056367" y="135.513713" style="fill: #194a7a; stroke: #194a7a"/>
     <use xlink:href="#mcb9ddab8ea" x="996.849994" y="145.138505" style="fill: #194a7a; stroke: #194a7a"/>
     <use xlink:href="#mcb9ddab8ea" x="1006.643621" y="133.390646" style="fill: #194a7a; stroke: #194a7a"/>
     <use xlink:href="#mcb9ddab8ea" x="1016.437248" y="145.13638" style="fill: #194a7a; stroke: #194a7a"/>
     <use xlink:href="#mcb9ddab8ea" x="1026.230875" y="136.572859" style="fill: #194a7a; stroke: #194a7a"/>
     <use xlink:href="#mcb9ddab8ea" x="1036.024502" y="136.304854" style="fill: #194a7a; stroke: #194a7a"/>
     <use xlink:href="#mcb9ddab8ea" x="1045.818129" y="137.685948" style="fill: #194a7a; stroke: #194a7a"/>
     <use xlink:href="#mcb9ddab8ea" x="1055.611756" y="134.112261" style="fill: #194a7a; stroke: #194a7a"/>
     <use xlink:href="#mcb9ddab8ea" x="1065.405383" y="132.642162" style="fill: #194a7a; stroke: #194a7a"/>
     <use xlink:href="#mcb9ddab8ea" x="1075.19901" y="136.113421" style="fill: #194a7a; stroke: #194a7a"/>
     <use xlink:href="#mcb9ddab8ea" x="1084.992637" y="150.94422" style="fill: #194a7a; stroke: #194a7a"/>
     <use xlink:href="#mcb9ddab8ea" x="1094.786264" y="138.87791" style="fill: #194a7a; stroke: #194a7a"/>
     <use xlink:href="#mcb9ddab8ea" x="1104.579891" y="139.952329" style="fill: #194a7a; stroke: #194a7a"/>
    </g>
   </g>
   <g id="patch_8">
    <path d="M 610.73625 252.417812 
L 610.73625 23.837812 
" style="fill: none; stroke: #cccccc; stroke-width: 1.25; stroke-linejoin: miter; stroke-linecap: square"/>
   </g>
   <g id="patch_9">
    <path d="M 1133.22625 252.417812 
L 1133.22625 23.837812 
" style="fill: none; stroke: #cccccc; stroke-width: 1.25; stroke-linejoin: miter; stroke-linecap: square"/>
   </g>
   <g id="patch_10">
    <path d="M 610.73625 252.417812 
L 1133.22625 252.417812 
" style="fill: none; stroke: #cccccc; stroke-width: 1.25; stroke-linejoin: miter; stroke-linecap: square"/>
   </g>
   <g id="patch_11">
    <path d="M 610.73625 23.837812 
L 1133.22625 23.837812 
" style="fill: none; stroke: #cccccc; stroke-width: 1.25; stroke-linejoin: miter; stroke-linecap: square"/>
   </g>
   <g id="text_38">
    <!-- Autocorrelaciones Parciales -->
    <g style="fill: #262626" transform="translate(762.289062 17.837812) scale(0.14 -0.14)">
     <defs>
      <path id="DejaVuSans-Bold-50" d="M 588 4666 
L 2584 4666 
Q 3475 4666 3951 4270 
Q 4428 3875 4428 3144 
Q 4428 2409 3951 2014 
Q 3475 1619 2584 1619 
L 1791 1619 
L 1791 0 
L 588 0 
L 588 4666 
z
M 1791 3794 
L 1791 2491 
L 2456 2491 
Q 2806 2491 2997 2661 
Q 3188 2831 3188 3144 
Q 3188 3456 2997 3625 
Q 2806 3794 2456 3794 
L 1791 3794 
z
" transform="scale(0.015625)"/>
     </defs>
     <use xlink:href="#DejaVuSans-Bold-41"/>
     <use xlink:href="#DejaVuSans-Bold-75" transform="translate(77.392578 0)"/>
     <use xlink:href="#DejaVuSans-Bold-74" transform="translate(148.583984 0)"/>
     <use xlink:href="#DejaVuSans-Bold-6f" transform="translate(196.386719 0)"/>
     <use xlink:href="#DejaVuSans-Bold-63" transform="translate(265.087891 0)"/>
     <use xlink:href="#DejaVuSans-Bold-6f" transform="translate(324.365234 0)"/>
     <use xlink:href="#DejaVuSans-Bold-72" transform="translate(393.066406 0)"/>
     <use xlink:href="#DejaVuSans-Bold-72" transform="translate(442.382812 0)"/>
     <use xlink:href="#DejaVuSans-Bold-65" transform="translate(491.699219 0)"/>
     <use xlink:href="#DejaVuSans-Bold-6c" transform="translate(559.521484 0)"/>
     <use xlink:href="#DejaVuSans-Bold-61" transform="translate(593.798828 0)"/>
     <use xlink:href="#DejaVuSans-Bold-63" transform="translate(661.279297 0)"/>
     <use xlink:href="#DejaVuSans-Bold-69" transform="translate(720.556641 0)"/>
     <use xlink:href="#DejaVuSans-Bold-6f" transform="translate(754.833984 0)"/>
     <use xlink:href="#DejaVuSans-Bold-6e" transform="translate(823.535156 0)"/>
     <use xlink:href="#DejaVuSans-Bold-65" transform="translate(894.726562 0)"/>
     <use xlink:href="#DejaVuSans-Bold-73" transform="translate(962.548828 0)"/>
     <use xlink:href="#DejaVuSans-Bold-20" transform="translate(1022.070312 0)"/>
     <use xlink:href="#DejaVuSans-Bold-50" transform="translate(1056.884766 0)"/>
     <use xlink:href="#DejaVuSans-Bold-61" transform="translate(1127.550781 0)"/>
     <use xlink:href="#DejaVuSans-Bold-72" transform="translate(1195.03125 0)"/>
     <use xlink:href="#DejaVuSans-Bold-63" transform="translate(1244.347656 0)"/>
     <use xlink:href="#DejaVuSans-Bold-69" transform="translate(1303.625 0)"/>
     <use xlink:href="#DejaVuSans-Bold-61" transform="translate(1337.902344 0)"/>
     <use xlink:href="#DejaVuSans-Bold-6c" transform="translate(1405.382812 0)"/>
     <use xlink:href="#DejaVuSans-Bold-65" transform="translate(1439.660156 0)"/>
     <use xlink:href="#DejaVuSans-Bold-73" transform="translate(1507.482422 0)"/>
    </g>
   </g>
  </g>
 </g>
 <defs>
  <clipPath id="pacf56664e8">
   <rect x="41.21625" y="23.837812" width="522.49" height="228.58"/>
  </clipPath>
  <clipPath id="p2337aa3c7f">
   <rect x="610.73625" y="23.837812" width="522.49" height="228.58"/>
  </clipPath>
 </defs>
</svg>
