<?xml version="1.0" encoding="utf-8" standalone="no"?>
<!DOCTYPE svg PUBLIC "-//W3C//DTD SVG 1.1//EN"
  "http://www.w3.org/Graphics/SVG/1.1/DTD/svg11.dtd">
<svg xmlns:xlink="http://www.w3.org/1999/xlink" width="851.568876pt" height="276.499219pt" viewBox="0 0 851.568876 276.499219" xmlns="http://www.w3.org/2000/svg" version="1.1">
 <metadata>
  <rdf:RDF xmlns:dc="http://purl.org/dc/elements/1.1/" xmlns:cc="http://creativecommons.org/ns#" xmlns:rdf="http://www.w3.org/1999/02/22-rdf-syntax-ns#">
   <cc:Work>
    <dc:type rdf:resource="http://purl.org/dc/dcmitype/StillImage"/>
    <dc:date>2025-04-24T00:22:17.661545</dc:date>
    <dc:format>image/svg+xml</dc:format>
    <dc:creator>
     <cc:Agent>
      <dc:title>Matplotlib v3.8.4, https://matplotlib.org/</dc:title>
     </cc:Agent>
    </dc:creator>
   </cc:Work>
  </rdf:RDF>
 </metadata>
 <defs>
  <style type="text/css">*{stroke-linejoin: round; stroke-linecap: butt}</style>
 </defs>
 <g id="figure_1">
  <g id="patch_1">
   <path d="M 0 276.499219 
L 851.568876 276.499219 
L 851.568876 0 
L 0 0 
z
" style="fill: #ffffff"/>
  </g>
  <g id="axes_1">
   <g id="patch_2">
    <path d="M 44.531719 249.739375 
L 418.848876 249.739375 
L 418.848876 21.935625 
L 44.531719 21.935625 
z
" style="fill: #ffffff"/>
   </g>
   <g id="matplotlib.axis_1">
    <g id="xtick_1">
     <g id="line2d_1">
      <path d="M 61.546135 249.739375 
L 61.546135 21.935625 
" clip-path="url(#pd62362fde6)" style="fill: none; stroke: #cccccc; stroke-linecap: round"/>
     </g>
     <g id="text_1">
      <!-- 0 -->
      <g style="fill: #262626" transform="translate(58.487619 267.112969) scale(0.11 -0.11)">
       <defs>
        <path id="ArialMT-30" d="M 266 2259 
Q 266 3072 433 3567 
Q 600 4063 929 4331 
Q 1259 4600 1759 4600 
Q 2128 4600 2406 4451 
Q 2684 4303 2865 4023 
Q 3047 3744 3150 3342 
Q 3253 2941 3253 2259 
Q 3253 1453 3087 958 
Q 2922 463 2592 192 
Q 2263 -78 1759 -78 
Q 1097 -78 719 397 
Q 266 969 266 2259 
z
M 844 2259 
Q 844 1131 1108 757 
Q 1372 384 1759 384 
Q 2147 384 2411 759 
Q 2675 1134 2675 2259 
Q 2675 3391 2411 3762 
Q 2147 4134 1753 4134 
Q 1366 4134 1134 3806 
Q 844 3388 844 2259 
z
" transform="scale(0.015625)"/>
       </defs>
       <use xlink:href="#ArialMT-30"/>
      </g>
     </g>
    </g>
    <g id="xtick_2">
     <g id="line2d_2">
      <path d="M 131.708676 249.739375 
L 131.708676 21.935625 
" clip-path="url(#pd62362fde6)" style="fill: none; stroke: #cccccc; stroke-linecap: round"/>
     </g>
     <g id="text_2">
      <!-- 10 -->
      <g style="fill: #262626" transform="translate(125.591645 267.112969) scale(0.11 -0.11)">
       <defs>
        <path id="ArialMT-31" d="M 2384 0 
L 1822 0 
L 1822 3584 
Q 1619 3391 1289 3197 
Q 959 3003 697 2906 
L 697 3450 
Q 1169 3672 1522 3987 
Q 1875 4303 2022 4600 
L 2384 4600 
L 2384 0 
z
" transform="scale(0.015625)"/>
       </defs>
       <use xlink:href="#ArialMT-31"/>
       <use xlink:href="#ArialMT-30" x="55.615234"/>
      </g>
     </g>
    </g>
    <g id="xtick_3">
     <g id="line2d_3">
      <path d="M 201.871218 249.739375 
L 201.871218 21.935625 
" clip-path="url(#pd62362fde6)" style="fill: none; stroke: #cccccc; stroke-linecap: round"/>
     </g>
     <g id="text_3">
      <!-- 20 -->
      <g style="fill: #262626" transform="translate(195.754186 267.112969) scale(0.11 -0.11)">
       <defs>
        <path id="ArialMT-32" d="M 3222 541 
L 3222 0 
L 194 0 
Q 188 203 259 391 
Q 375 700 629 1000 
Q 884 1300 1366 1694 
Q 2113 2306 2375 2664 
Q 2638 3022 2638 3341 
Q 2638 3675 2398 3904 
Q 2159 4134 1775 4134 
Q 1369 4134 1125 3890 
Q 881 3647 878 3216 
L 300 3275 
Q 359 3922 746 4261 
Q 1134 4600 1788 4600 
Q 2447 4600 2831 4234 
Q 3216 3869 3216 3328 
Q 3216 3053 3103 2787 
Q 2991 2522 2730 2228 
Q 2469 1934 1863 1422 
Q 1356 997 1212 845 
Q 1069 694 975 541 
L 3222 541 
z
" transform="scale(0.015625)"/>
       </defs>
       <use xlink:href="#ArialMT-32"/>
       <use xlink:href="#ArialMT-30" x="55.615234"/>
      </g>
     </g>
    </g>
    <g id="xtick_4">
     <g id="line2d_4">
      <path d="M 272.033759 249.739375 
L 272.033759 21.935625 
" clip-path="url(#pd62362fde6)" style="fill: none; stroke: #cccccc; stroke-linecap: round"/>
     </g>
     <g id="text_4">
      <!-- 30 -->
      <g style="fill: #262626" transform="translate(265.916728 267.112969) scale(0.11 -0.11)">
       <defs>
        <path id="ArialMT-33" d="M 269 1209 
L 831 1284 
Q 928 806 1161 595 
Q 1394 384 1728 384 
Q 2125 384 2398 659 
Q 2672 934 2672 1341 
Q 2672 1728 2419 1979 
Q 2166 2231 1775 2231 
Q 1616 2231 1378 2169 
L 1441 2663 
Q 1497 2656 1531 2656 
Q 1891 2656 2178 2843 
Q 2466 3031 2466 3422 
Q 2466 3731 2256 3934 
Q 2047 4138 1716 4138 
Q 1388 4138 1169 3931 
Q 950 3725 888 3313 
L 325 3413 
Q 428 3978 793 4289 
Q 1159 4600 1703 4600 
Q 2078 4600 2393 4439 
Q 2709 4278 2876 4000 
Q 3044 3722 3044 3409 
Q 3044 3113 2884 2869 
Q 2725 2625 2413 2481 
Q 2819 2388 3044 2092 
Q 3269 1797 3269 1353 
Q 3269 753 2831 336 
Q 2394 -81 1725 -81 
Q 1122 -81 723 278 
Q 325 638 269 1209 
z
" transform="scale(0.015625)"/>
       </defs>
       <use xlink:href="#ArialMT-33"/>
       <use xlink:href="#ArialMT-30" x="55.615234"/>
      </g>
     </g>
    </g>
    <g id="xtick_5">
     <g id="line2d_5">
      <path d="M 342.1963 249.739375 
L 342.1963 21.935625 
" clip-path="url(#pd62362fde6)" style="fill: none; stroke: #cccccc; stroke-linecap: round"/>
     </g>
     <g id="text_5">
      <!-- 40 -->
      <g style="fill: #262626" transform="translate(336.079269 267.112969) scale(0.11 -0.11)">
       <defs>
        <path id="ArialMT-34" d="M 2069 0 
L 2069 1097 
L 81 1097 
L 81 1613 
L 2172 4581 
L 2631 4581 
L 2631 1613 
L 3250 1613 
L 3250 1097 
L 2631 1097 
L 2631 0 
L 2069 0 
z
M 2069 1613 
L 2069 3678 
L 634 1613 
L 2069 1613 
z
" transform="scale(0.015625)"/>
       </defs>
       <use xlink:href="#ArialMT-34"/>
       <use xlink:href="#ArialMT-30" x="55.615234"/>
      </g>
     </g>
    </g>
    <g id="xtick_6">
     <g id="line2d_6">
      <path d="M 412.358841 249.739375 
L 412.358841 21.935625 
" clip-path="url(#pd62362fde6)" style="fill: none; stroke: #cccccc; stroke-linecap: round"/>
     </g>
     <g id="text_6">
      <!-- 50 -->
      <g style="fill: #262626" transform="translate(406.24181 267.112969) scale(0.11 -0.11)">
       <defs>
        <path id="ArialMT-35" d="M 266 1200 
L 856 1250 
Q 922 819 1161 601 
Q 1400 384 1738 384 
Q 2144 384 2425 690 
Q 2706 997 2706 1503 
Q 2706 1984 2436 2262 
Q 2166 2541 1728 2541 
Q 1456 2541 1237 2417 
Q 1019 2294 894 2097 
L 366 2166 
L 809 4519 
L 3088 4519 
L 3088 3981 
L 1259 3981 
L 1013 2750 
Q 1425 3038 1878 3038 
Q 2478 3038 2890 2622 
Q 3303 2206 3303 1553 
Q 3303 931 2941 478 
Q 2500 -78 1738 -78 
Q 1113 -78 717 272 
Q 322 622 266 1200 
z
" transform="scale(0.015625)"/>
       </defs>
       <use xlink:href="#ArialMT-35"/>
       <use xlink:href="#ArialMT-30" x="55.615234"/>
      </g>
     </g>
    </g>
   </g>
   <g id="matplotlib.axis_2">
    <g id="ytick_1">
     <g id="line2d_7">
      <path d="M 44.531719 249.739375 
L 418.848876 249.739375 
" clip-path="url(#pd62362fde6)" style="fill: none; stroke: #cccccc; stroke-linecap: round"/>
     </g>
     <g id="text_7">
      <!-- −1.00 -->
      <g style="fill: #262626" transform="translate(7.2 253.676172) scale(0.11 -0.11)">
       <defs>
        <path id="ArialMT-2212" d="M 3381 1997 
L 356 1997 
L 356 2522 
L 3381 2522 
L 3381 1997 
z
" transform="scale(0.015625)"/>
        <path id="ArialMT-2e" d="M 581 0 
L 581 641 
L 1222 641 
L 1222 0 
L 581 0 
z
" transform="scale(0.015625)"/>
       </defs>
       <use xlink:href="#ArialMT-2212"/>
       <use xlink:href="#ArialMT-31" x="58.398438"/>
       <use xlink:href="#ArialMT-2e" x="114.013672"/>
       <use xlink:href="#ArialMT-30" x="141.796875"/>
       <use xlink:href="#ArialMT-30" x="197.412109"/>
      </g>
     </g>
    </g>
    <g id="ytick_2">
     <g id="line2d_8">
      <path d="M 44.531719 221.263906 
L 418.848876 221.263906 
" clip-path="url(#pd62362fde6)" style="fill: none; stroke: #cccccc; stroke-linecap: round"/>
     </g>
     <g id="text_8">
      <!-- −0.75 -->
      <g style="fill: #262626" transform="translate(7.2 225.200703) scale(0.11 -0.11)">
       <defs>
        <path id="ArialMT-37" d="M 303 3981 
L 303 4522 
L 3269 4522 
L 3269 4084 
Q 2831 3619 2401 2847 
Q 1972 2075 1738 1259 
Q 1569 684 1522 0 
L 944 0 
Q 953 541 1156 1306 
Q 1359 2072 1739 2783 
Q 2119 3494 2547 3981 
L 303 3981 
z
" transform="scale(0.015625)"/>
       </defs>
       <use xlink:href="#ArialMT-2212"/>
       <use xlink:href="#ArialMT-30" x="58.398438"/>
       <use xlink:href="#ArialMT-2e" x="114.013672"/>
       <use xlink:href="#ArialMT-37" x="141.796875"/>
       <use xlink:href="#ArialMT-35" x="197.412109"/>
      </g>
     </g>
    </g>
    <g id="ytick_3">
     <g id="line2d_9">
      <path d="M 44.531719 192.788438 
L 418.848876 192.788438 
" clip-path="url(#pd62362fde6)" style="fill: none; stroke: #cccccc; stroke-linecap: round"/>
     </g>
     <g id="text_9">
      <!-- −0.50 -->
      <g style="fill: #262626" transform="translate(7.2 196.725234) scale(0.11 -0.11)">
       <use xlink:href="#ArialMT-2212"/>
       <use xlink:href="#ArialMT-30" x="58.398438"/>
       <use xlink:href="#ArialMT-2e" x="114.013672"/>
       <use xlink:href="#ArialMT-35" x="141.796875"/>
       <use xlink:href="#ArialMT-30" x="197.412109"/>
      </g>
     </g>
    </g>
    <g id="ytick_4">
     <g id="line2d_10">
      <path d="M 44.531719 164.312969 
L 418.848876 164.312969 
" clip-path="url(#pd62362fde6)" style="fill: none; stroke: #cccccc; stroke-linecap: round"/>
     </g>
     <g id="text_10">
      <!-- −0.25 -->
      <g style="fill: #262626" transform="translate(7.2 168.249766) scale(0.11 -0.11)">
       <use xlink:href="#ArialMT-2212"/>
       <use xlink:href="#ArialMT-30" x="58.398438"/>
       <use xlink:href="#ArialMT-2e" x="114.013672"/>
       <use xlink:href="#ArialMT-32" x="141.796875"/>
       <use xlink:href="#ArialMT-35" x="197.412109"/>
      </g>
     </g>
    </g>
    <g id="ytick_5">
     <g id="line2d_11">
      <path d="M 44.531719 135.8375 
L 418.848876 135.8375 
" clip-path="url(#pd62362fde6)" style="fill: none; stroke: #cccccc; stroke-linecap: round"/>
     </g>
     <g id="text_11">
      <!-- 0.00 -->
      <g style="fill: #262626" transform="translate(13.624688 139.774297) scale(0.11 -0.11)">
       <use xlink:href="#ArialMT-30"/>
       <use xlink:href="#ArialMT-2e" x="55.615234"/>
       <use xlink:href="#ArialMT-30" x="83.398438"/>
       <use xlink:href="#ArialMT-30" x="139.013672"/>
      </g>
     </g>
    </g>
    <g id="ytick_6">
     <g id="line2d_12">
      <path d="M 44.531719 107.362031 
L 418.848876 107.362031 
" clip-path="url(#pd62362fde6)" style="fill: none; stroke: #cccccc; stroke-linecap: round"/>
     </g>
     <g id="text_12">
      <!-- 0.25 -->
      <g style="fill: #262626" transform="translate(13.624688 111.298828) scale(0.11 -0.11)">
       <use xlink:href="#ArialMT-30"/>
       <use xlink:href="#ArialMT-2e" x="55.615234"/>
       <use xlink:href="#ArialMT-32" x="83.398438"/>
       <use xlink:href="#ArialMT-35" x="139.013672"/>
      </g>
     </g>
    </g>
    <g id="ytick_7">
     <g id="line2d_13">
      <path d="M 44.531719 78.886563 
L 418.848876 78.886563 
" clip-path="url(#pd62362fde6)" style="fill: none; stroke: #cccccc; stroke-linecap: round"/>
     </g>
     <g id="text_13">
      <!-- 0.50 -->
      <g style="fill: #262626" transform="translate(13.624688 82.823359) scale(0.11 -0.11)">
       <use xlink:href="#ArialMT-30"/>
       <use xlink:href="#ArialMT-2e" x="55.615234"/>
       <use xlink:href="#ArialMT-35" x="83.398438"/>
       <use xlink:href="#ArialMT-30" x="139.013672"/>
      </g>
     </g>
    </g>
    <g id="ytick_8">
     <g id="line2d_14">
      <path d="M 44.531719 50.411094 
L 418.848876 50.411094 
" clip-path="url(#pd62362fde6)" style="fill: none; stroke: #cccccc; stroke-linecap: round"/>
     </g>
     <g id="text_14">
      <!-- 0.75 -->
      <g style="fill: #262626" transform="translate(13.624688 54.347891) scale(0.11 -0.11)">
       <use xlink:href="#ArialMT-30"/>
       <use xlink:href="#ArialMT-2e" x="55.615234"/>
       <use xlink:href="#ArialMT-37" x="83.398438"/>
       <use xlink:href="#ArialMT-35" x="139.013672"/>
      </g>
     </g>
    </g>
    <g id="ytick_9">
     <g id="line2d_15">
      <path d="M 44.531719 21.935625 
L 418.848876 21.935625 
" clip-path="url(#pd62362fde6)" style="fill: none; stroke: #cccccc; stroke-linecap: round"/>
     </g>
     <g id="text_15">
      <!-- 1.00 -->
      <g style="fill: #262626" transform="translate(13.624688 25.872422) scale(0.11 -0.11)">
       <use xlink:href="#ArialMT-31"/>
       <use xlink:href="#ArialMT-2e" x="55.615234"/>
       <use xlink:href="#ArialMT-30" x="83.398438"/>
       <use xlink:href="#ArialMT-30" x="139.013672"/>
      </g>
     </g>
    </g>
   </g>
   <g id="PolyCollection_1">
    <defs>
     <path id="m0c0a84a3cd" d="M 65.054262 -149.273527 
L 65.054262 -132.049911 
L 75.578643 -129.092902 
L 82.594897 -128.405845 
L 89.611152 -128.405083 
L 96.627406 -127.729942 
L 103.64366 -125.738233 
L 110.659914 -123.358446 
L 117.676168 -122.021763 
L 124.692422 -121.703712 
L 131.708676 -121.693932 
L 138.72493 -121.244003 
L 145.741185 -119.857869 
L 152.757439 -118.236122 
L 159.773693 -117.333743 
L 166.789947 -117.1491 
L 173.806201 -117.132247 
L 180.822455 -116.700236 
L 187.838709 -115.564812 
L 194.854963 -114.332882 
L 201.871218 -113.636352 
L 208.887472 -113.510285 
L 215.903726 -113.483933 
L 222.91998 -113.144902 
L 229.936234 -112.194369 
L 236.952488 -111.185437 
L 243.968742 -110.638982 
L 250.984996 -110.566706 
L 258.001251 -110.523461 
L 265.017505 -110.163489 
L 272.033759 -109.376946 
L 279.050013 -108.499096 
L 286.066267 -108.080708 
L 293.082521 -108.023631 
L 300.098775 -107.96712 
L 307.115029 -107.61371 
L 314.131284 -106.860829 
L 321.147538 -106.087942 
L 328.163792 -105.744953 
L 335.180046 -105.704891 
L 342.1963 -105.641101 
L 349.212554 -105.311223 
L 356.228808 -104.647691 
L 363.245062 -104.008894 
L 370.261317 -103.709583 
L 377.277571 -103.684471 
L 384.293825 -103.641159 
L 391.310079 -103.351634 
L 401.83446 -102.714995 
L 401.83446 -178.608442 
L 401.83446 -178.608442 
L 391.310079 -177.971803 
L 384.293825 -177.682278 
L 377.277571 -177.638966 
L 370.261317 -177.613854 
L 363.245062 -177.314544 
L 356.228808 -176.675747 
L 349.212554 -176.012214 
L 342.1963 -175.682337 
L 335.180046 -175.618547 
L 328.163792 -175.578484 
L 321.147538 -175.235495 
L 314.131284 -174.462608 
L 307.115029 -173.709727 
L 300.098775 -173.356317 
L 293.082521 -173.299806 
L 286.066267 -173.24273 
L 279.050013 -172.824341 
L 272.033759 -171.946492 
L 265.017505 -171.159949 
L 258.001251 -170.799977 
L 250.984996 -170.756732 
L 243.968742 -170.684455 
L 236.952488 -170.138 
L 229.936234 -169.129068 
L 222.91998 -168.178536 
L 215.903726 -167.839504 
L 208.887472 -167.813153 
L 201.871218 -167.687085 
L 194.854963 -166.990556 
L 187.838709 -165.758626 
L 180.822455 -164.623202 
L 173.806201 -164.19119 
L 166.789947 -164.174338 
L 159.773693 -163.989695 
L 152.757439 -163.087316 
L 145.741185 -161.465569 
L 138.72493 -160.079434 
L 131.708676 -159.629505 
L 124.692422 -159.619725 
L 117.676168 -159.301674 
L 110.659914 -157.964991 
L 103.64366 -155.585204 
L 96.627406 -153.593496 
L 89.611152 -152.918354 
L 82.594897 -152.917593 
L 75.578643 -152.230535 
L 65.054262 -149.273527 
z
" style="stroke: #ffffff; stroke-opacity: 0.25"/>
    </defs>
    <g clip-path="url(#pd62362fde6)">
     <use xlink:href="#m0c0a84a3cd" x="0" y="276.499219" style="fill: #4c72b0; fill-opacity: 0.25; stroke: #ffffff; stroke-opacity: 0.25"/>
    </g>
   </g>
   <g id="LineCollection_1">
    <path d="M 61.546135 135.8375 
L 61.546135 21.935625 
" clip-path="url(#pd62362fde6)" style="fill: none; stroke: #4c72b0; stroke-width: 1.5"/>
    <path d="M 68.562389 135.8375 
L 68.562389 63.591279 
" clip-path="url(#pd62362fde6)" style="fill: none; stroke: #4c72b0; stroke-width: 1.5"/>
    <path d="M 75.578643 135.8375 
L 75.578643 97.999192 
" clip-path="url(#pd62362fde6)" style="fill: none; stroke: #4c72b0; stroke-width: 1.5"/>
    <path d="M 82.594897 135.8375 
L 82.594897 137.115325 
" clip-path="url(#pd62362fde6)" style="fill: none; stroke: #4c72b0; stroke-width: 1.5"/>
    <path d="M 89.611152 135.8375 
L 89.611152 174.404819 
" clip-path="url(#pd62362fde6)" style="fill: none; stroke: #4c72b0; stroke-width: 1.5"/>
    <path d="M 96.627406 135.8375 
L 96.627406 205.498229 
" clip-path="url(#pd62362fde6)" style="fill: none; stroke: #4c72b0; stroke-width: 1.5"/>
    <path d="M 103.64366 135.8375 
L 103.64366 217.740332 
" clip-path="url(#pd62362fde6)" style="fill: none; stroke: #4c72b0; stroke-width: 1.5"/>
    <path d="M 110.659914 135.8375 
L 110.659914 200.662768 
" clip-path="url(#pd62362fde6)" style="fill: none; stroke: #4c72b0; stroke-width: 1.5"/>
    <path d="M 117.676168 135.8375 
L 117.676168 168.178379 
" clip-path="url(#pd62362fde6)" style="fill: none; stroke: #4c72b0; stroke-width: 1.5"/>
    <path d="M 124.692422 135.8375 
L 124.692422 130.141653 
" clip-path="url(#pd62362fde6)" style="fill: none; stroke: #4c72b0; stroke-width: 1.5"/>
    <path d="M 131.708676 135.8375 
L 131.708676 96.970832 
" clip-path="url(#pd62362fde6)" style="fill: none; stroke: #4c72b0; stroke-width: 1.5"/>
    <path d="M 138.72493 135.8375 
L 138.72493 66.005626 
" clip-path="url(#pd62362fde6)" style="fill: none; stroke: #4c72b0; stroke-width: 1.5"/>
    <path d="M 145.741185 135.8375 
L 145.741185 57.530079 
" clip-path="url(#pd62362fde6)" style="fill: none; stroke: #4c72b0; stroke-width: 1.5"/>
    <path d="M 152.757439 135.8375 
L 152.757439 75.743847 
" clip-path="url(#pd62362fde6)" style="fill: none; stroke: #4c72b0; stroke-width: 1.5"/>
    <path d="M 159.773693 135.8375 
L 159.773693 108.333303 
" clip-path="url(#pd62362fde6)" style="fill: none; stroke: #4c72b0; stroke-width: 1.5"/>
    <path d="M 166.789947 135.8375 
L 166.789947 144.164759 
" clip-path="url(#pd62362fde6)" style="fill: none; stroke: #4c72b0; stroke-width: 1.5"/>
    <path d="M 173.806201 135.8375 
L 173.806201 178.199308 
" clip-path="url(#pd62362fde6)" style="fill: none; stroke: #4c72b0; stroke-width: 1.5"/>
    <path d="M 180.822455 135.8375 
L 180.822455 205.637788 
" clip-path="url(#pd62362fde6)" style="fill: none; stroke: #4c72b0; stroke-width: 1.5"/>
    <path d="M 187.838709 135.8375 
L 187.838709 210.277239 
" clip-path="url(#pd62362fde6)" style="fill: none; stroke: #4c72b0; stroke-width: 1.5"/>
    <path d="M 194.854963 135.8375 
L 194.854963 192.850737 
" clip-path="url(#pd62362fde6)" style="fill: none; stroke: #4c72b0; stroke-width: 1.5"/>
    <path d="M 201.871218 135.8375 
L 201.871218 160.279109 
" clip-path="url(#pd62362fde6)" style="fill: none; stroke: #4c72b0; stroke-width: 1.5"/>
    <path d="M 208.887472 135.8375 
L 208.887472 124.647248 
" clip-path="url(#pd62362fde6)" style="fill: none; stroke: #4c72b0; stroke-width: 1.5"/>
    <path d="M 215.903726 135.8375 
L 215.903726 95.564514 
" clip-path="url(#pd62362fde6)" style="fill: none; stroke: #4c72b0; stroke-width: 1.5"/>
    <path d="M 222.91998 135.8375 
L 222.91998 67.613422 
" clip-path="url(#pd62362fde6)" style="fill: none; stroke: #4c72b0; stroke-width: 1.5"/>
    <path d="M 229.936234 135.8375 
L 229.936234 64.329387 
" clip-path="url(#pd62362fde6)" style="fill: none; stroke: #4c72b0; stroke-width: 1.5"/>
    <path d="M 236.952488 135.8375 
L 236.952488 82.509696 
" clip-path="url(#pd62362fde6)" style="fill: none; stroke: #4c72b0; stroke-width: 1.5"/>
    <path d="M 243.968742 135.8375 
L 243.968742 116.342565 
" clip-path="url(#pd62362fde6)" style="fill: none; stroke: #4c72b0; stroke-width: 1.5"/>
    <path d="M 250.984996 135.8375 
L 250.984996 150.931566 
" clip-path="url(#pd62362fde6)" style="fill: none; stroke: #4c72b0; stroke-width: 1.5"/>
    <path d="M 258.001251 135.8375 
L 258.001251 179.531631 
" clip-path="url(#pd62362fde6)" style="fill: none; stroke: #4c72b0; stroke-width: 1.5"/>
    <path d="M 265.017505 135.8375 
L 265.017505 201.032949 
" clip-path="url(#pd62362fde6)" style="fill: none; stroke: #4c72b0; stroke-width: 1.5"/>
    <path d="M 272.033759 135.8375 
L 272.033759 205.634762 
" clip-path="url(#pd62362fde6)" style="fill: none; stroke: #4c72b0; stroke-width: 1.5"/>
    <path d="M 279.050013 135.8375 
L 279.050013 184.512951 
" clip-path="url(#pd62362fde6)" style="fill: none; stroke: #4c72b0; stroke-width: 1.5"/>
    <path d="M 286.066267 135.8375 
L 286.066267 153.881743 
" clip-path="url(#pd62362fde6)" style="fill: none; stroke: #4c72b0; stroke-width: 1.5"/>
    <path d="M 293.082521 135.8375 
L 293.082521 117.867309 
" clip-path="url(#pd62362fde6)" style="fill: none; stroke: #4c72b0; stroke-width: 1.5"/>
    <path d="M 300.098775 135.8375 
L 300.098775 90.757433 
" clip-path="url(#pd62362fde6)" style="fill: none; stroke: #4c72b0; stroke-width: 1.5"/>
    <path d="M 307.115029 135.8375 
L 307.115029 69.488895 
" clip-path="url(#pd62362fde6)" style="fill: none; stroke: #4c72b0; stroke-width: 1.5"/>
    <path d="M 314.131284 135.8375 
L 314.131284 67.850297 
" clip-path="url(#pd62362fde6)" style="fill: none; stroke: #4c72b0; stroke-width: 1.5"/>
    <path d="M 321.147538 135.8375 
L 321.147538 90.178716 
" clip-path="url(#pd62362fde6)" style="fill: none; stroke: #4c72b0; stroke-width: 1.5"/>
    <path d="M 328.163792 135.8375 
L 328.163792 120.189925 
" clip-path="url(#pd62362fde6)" style="fill: none; stroke: #4c72b0; stroke-width: 1.5"/>
    <path d="M 335.180046 135.8375 
L 335.180046 155.597063 
" clip-path="url(#pd62362fde6)" style="fill: none; stroke: #4c72b0; stroke-width: 1.5"/>
    <path d="M 342.1963 135.8375 
L 342.1963 180.897914 
" clip-path="url(#pd62362fde6)" style="fill: none; stroke: #4c72b0; stroke-width: 1.5"/>
    <path d="M 349.212554 135.8375 
L 349.212554 200.194204 
" clip-path="url(#pd62362fde6)" style="fill: none; stroke: #4c72b0; stroke-width: 1.5"/>
    <path d="M 356.228808 135.8375 
L 356.228808 199.556819 
" clip-path="url(#pd62362fde6)" style="fill: none; stroke: #4c72b0; stroke-width: 1.5"/>
    <path d="M 363.245062 135.8375 
L 363.245062 179.734622 
" clip-path="url(#pd62362fde6)" style="fill: none; stroke: #4c72b0; stroke-width: 1.5"/>
    <path d="M 370.261317 135.8375 
L 370.261317 148.580571 
" clip-path="url(#pd62362fde6)" style="fill: none; stroke: #4c72b0; stroke-width: 1.5"/>
    <path d="M 377.277571 135.8375 
L 377.277571 119.094433 
" clip-path="url(#pd62362fde6)" style="fill: none; stroke: #4c72b0; stroke-width: 1.5"/>
    <path d="M 384.293825 135.8375 
L 384.293825 92.451624 
" clip-path="url(#pd62362fde6)" style="fill: none; stroke: #4c72b0; stroke-width: 1.5"/>
    <path d="M 391.310079 135.8375 
L 391.310079 71.102221 
" clip-path="url(#pd62362fde6)" style="fill: none; stroke: #4c72b0; stroke-width: 1.5"/>
    <path d="M 398.326333 135.8375 
L 398.326333 74.383428 
" clip-path="url(#pd62362fde6)" style="fill: none; stroke: #4c72b0; stroke-width: 1.5"/>
   </g>
   <g id="line2d_16">
    <path d="M 44.531719 135.8375 
L 418.848876 135.8375 
" clip-path="url(#pd62362fde6)" style="fill: none; stroke: #4c72b0; stroke-width: 1.5; stroke-linecap: round"/>
   </g>
   <g id="line2d_17">
    <defs>
     <path id="md0ac093449" d="M 0 2.5 
C 0.663008 2.5 1.29895 2.236584 1.767767 1.767767 
C 2.236584 1.29895 2.5 0.663008 2.5 0 
C 2.5 -0.663008 2.236584 -1.29895 1.767767 -1.767767 
C 1.29895 -2.236584 0.663008 -2.5 0 -2.5 
C -0.663008 -2.5 -1.29895 -2.236584 -1.767767 -1.767767 
C -2.236584 -1.29895 -2.5 -0.663008 -2.5 0 
C -2.5 0.663008 -2.236584 1.29895 -1.767767 1.767767 
C -1.29895 2.236584 -0.663008 2.5 0 2.5 
z
" style="stroke: #4c72b0"/>
    </defs>
    <g clip-path="url(#pd62362fde6)">
     <use xlink:href="#md0ac093449" x="61.546135" y="21.935625" style="fill: #4c72b0; stroke: #4c72b0"/>
     <use xlink:href="#md0ac093449" x="68.562389" y="63.591279" style="fill: #4c72b0; stroke: #4c72b0"/>
     <use xlink:href="#md0ac093449" x="75.578643" y="97.999192" style="fill: #4c72b0; stroke: #4c72b0"/>
     <use xlink:href="#md0ac093449" x="82.594897" y="137.115325" style="fill: #4c72b0; stroke: #4c72b0"/>
     <use xlink:href="#md0ac093449" x="89.611152" y="174.404819" style="fill: #4c72b0; stroke: #4c72b0"/>
     <use xlink:href="#md0ac093449" x="96.627406" y="205.498229" style="fill: #4c72b0; stroke: #4c72b0"/>
     <use xlink:href="#md0ac093449" x="103.64366" y="217.740332" style="fill: #4c72b0; stroke: #4c72b0"/>
     <use xlink:href="#md0ac093449" x="110.659914" y="200.662768" style="fill: #4c72b0; stroke: #4c72b0"/>
     <use xlink:href="#md0ac093449" x="117.676168" y="168.178379" style="fill: #4c72b0; stroke: #4c72b0"/>
     <use xlink:href="#md0ac093449" x="124.692422" y="130.141653" style="fill: #4c72b0; stroke: #4c72b0"/>
     <use xlink:href="#md0ac093449" x="131.708676" y="96.970832" style="fill: #4c72b0; stroke: #4c72b0"/>
     <use xlink:href="#md0ac093449" x="138.72493" y="66.005626" style="fill: #4c72b0; stroke: #4c72b0"/>
     <use xlink:href="#md0ac093449" x="145.741185" y="57.530079" style="fill: #4c72b0; stroke: #4c72b0"/>
     <use xlink:href="#md0ac093449" x="152.757439" y="75.743847" style="fill: #4c72b0; stroke: #4c72b0"/>
     <use xlink:href="#md0ac093449" x="159.773693" y="108.333303" style="fill: #4c72b0; stroke: #4c72b0"/>
     <use xlink:href="#md0ac093449" x="166.789947" y="144.164759" style="fill: #4c72b0; stroke: #4c72b0"/>
     <use xlink:href="#md0ac093449" x="173.806201" y="178.199308" style="fill: #4c72b0; stroke: #4c72b0"/>
     <use xlink:href="#md0ac093449" x="180.822455" y="205.637788" style="fill: #4c72b0; stroke: #4c72b0"/>
     <use xlink:href="#md0ac093449" x="187.838709" y="210.277239" style="fill: #4c72b0; stroke: #4c72b0"/>
     <use xlink:href="#md0ac093449" x="194.854963" y="192.850737" style="fill: #4c72b0; stroke: #4c72b0"/>
     <use xlink:href="#md0ac093449" x="201.871218" y="160.279109" style="fill: #4c72b0; stroke: #4c72b0"/>
     <use xlink:href="#md0ac093449" x="208.887472" y="124.647248" style="fill: #4c72b0; stroke: #4c72b0"/>
     <use xlink:href="#md0ac093449" x="215.903726" y="95.564514" style="fill: #4c72b0; stroke: #4c72b0"/>
     <use xlink:href="#md0ac093449" x="222.91998" y="67.613422" style="fill: #4c72b0; stroke: #4c72b0"/>
     <use xlink:href="#md0ac093449" x="229.936234" y="64.329387" style="fill: #4c72b0; stroke: #4c72b0"/>
     <use xlink:href="#md0ac093449" x="236.952488" y="82.509696" style="fill: #4c72b0; stroke: #4c72b0"/>
     <use xlink:href="#md0ac093449" x="243.968742" y="116.342565" style="fill: #4c72b0; stroke: #4c72b0"/>
     <use xlink:href="#md0ac093449" x="250.984996" y="150.931566" style="fill: #4c72b0; stroke: #4c72b0"/>
     <use xlink:href="#md0ac093449" x="258.001251" y="179.531631" style="fill: #4c72b0; stroke: #4c72b0"/>
     <use xlink:href="#md0ac093449" x="265.017505" y="201.032949" style="fill: #4c72b0; stroke: #4c72b0"/>
     <use xlink:href="#md0ac093449" x="272.033759" y="205.634762" style="fill: #4c72b0; stroke: #4c72b0"/>
     <use xlink:href="#md0ac093449" x="279.050013" y="184.512951" style="fill: #4c72b0; stroke: #4c72b0"/>
     <use xlink:href="#md0ac093449" x="286.066267" y="153.881743" style="fill: #4c72b0; stroke: #4c72b0"/>
     <use xlink:href="#md0ac093449" x="293.082521" y="117.867309" style="fill: #4c72b0; stroke: #4c72b0"/>
     <use xlink:href="#md0ac093449" x="300.098775" y="90.757433" style="fill: #4c72b0; stroke: #4c72b0"/>
     <use xlink:href="#md0ac093449" x="307.115029" y="69.488895" style="fill: #4c72b0; stroke: #4c72b0"/>
     <use xlink:href="#md0ac093449" x="314.131284" y="67.850297" style="fill: #4c72b0; stroke: #4c72b0"/>
     <use xlink:href="#md0ac093449" x="321.147538" y="90.178716" style="fill: #4c72b0; stroke: #4c72b0"/>
     <use xlink:href="#md0ac093449" x="328.163792" y="120.189925" style="fill: #4c72b0; stroke: #4c72b0"/>
     <use xlink:href="#md0ac093449" x="335.180046" y="155.597063" style="fill: #4c72b0; stroke: #4c72b0"/>
     <use xlink:href="#md0ac093449" x="342.1963" y="180.897914" style="fill: #4c72b0; stroke: #4c72b0"/>
     <use xlink:href="#md0ac093449" x="349.212554" y="200.194204" style="fill: #4c72b0; stroke: #4c72b0"/>
     <use xlink:href="#md0ac093449" x="356.228808" y="199.556819" style="fill: #4c72b0; stroke: #4c72b0"/>
     <use xlink:href="#md0ac093449" x="363.245062" y="179.734622" style="fill: #4c72b0; stroke: #4c72b0"/>
     <use xlink:href="#md0ac093449" x="370.261317" y="148.580571" style="fill: #4c72b0; stroke: #4c72b0"/>
     <use xlink:href="#md0ac093449" x="377.277571" y="119.094433" style="fill: #4c72b0; stroke: #4c72b0"/>
     <use xlink:href="#md0ac093449" x="384.293825" y="92.451624" style="fill: #4c72b0; stroke: #4c72b0"/>
     <use xlink:href="#md0ac093449" x="391.310079" y="71.102221" style="fill: #4c72b0; stroke: #4c72b0"/>
     <use xlink:href="#md0ac093449" x="398.326333" y="74.383428" style="fill: #4c72b0; stroke: #4c72b0"/>
    </g>
   </g>
   <g id="patch_3">
    <path d="M 44.531719 249.739375 
L 44.531719 21.935625 
" style="fill: none; stroke: #cccccc; stroke-width: 1.25; stroke-linejoin: miter; stroke-linecap: square"/>
   </g>
   <g id="patch_4">
    <path d="M 418.848876 249.739375 
L 418.848876 21.935625 
" style="fill: none; stroke: #cccccc; stroke-width: 1.25; stroke-linejoin: miter; stroke-linecap: square"/>
   </g>
   <g id="patch_5">
    <path d="M 44.531719 249.739375 
L 418.848876 249.739375 
" style="fill: none; stroke: #cccccc; stroke-width: 1.25; stroke-linejoin: miter; stroke-linecap: square"/>
   </g>
   <g id="patch_6">
    <path d="M 44.531719 21.935625 
L 418.848876 21.935625 
" style="fill: none; stroke: #cccccc; stroke-width: 1.25; stroke-linejoin: miter; stroke-linecap: square"/>
   </g>
   <g id="text_16">
    <!-- Autocorrelaciones Simples -->
    <g style="fill: #262626" transform="translate(160.66061 15.935625) scale(0.12 -0.12)">
     <defs>
      <path id="ArialMT-41" d="M -9 0 
L 1750 4581 
L 2403 4581 
L 4278 0 
L 3588 0 
L 3053 1388 
L 1138 1388 
L 634 0 
L -9 0 
z
M 1313 1881 
L 2866 1881 
L 2388 3150 
Q 2169 3728 2063 4100 
Q 1975 3659 1816 3225 
L 1313 1881 
z
" transform="scale(0.015625)"/>
      <path id="ArialMT-75" d="M 2597 0 
L 2597 488 
Q 2209 -75 1544 -75 
Q 1250 -75 995 37 
Q 741 150 617 320 
Q 494 491 444 738 
Q 409 903 409 1263 
L 409 3319 
L 972 3319 
L 972 1478 
Q 972 1038 1006 884 
Q 1059 663 1231 536 
Q 1403 409 1656 409 
Q 1909 409 2131 539 
Q 2353 669 2445 892 
Q 2538 1116 2538 1541 
L 2538 3319 
L 3100 3319 
L 3100 0 
L 2597 0 
z
" transform="scale(0.015625)"/>
      <path id="ArialMT-74" d="M 1650 503 
L 1731 6 
Q 1494 -44 1306 -44 
Q 1000 -44 831 53 
Q 663 150 594 308 
Q 525 466 525 972 
L 525 2881 
L 113 2881 
L 113 3319 
L 525 3319 
L 525 4141 
L 1084 4478 
L 1084 3319 
L 1650 3319 
L 1650 2881 
L 1084 2881 
L 1084 941 
Q 1084 700 1114 631 
Q 1144 563 1211 522 
Q 1278 481 1403 481 
Q 1497 481 1650 503 
z
" transform="scale(0.015625)"/>
      <path id="ArialMT-6f" d="M 213 1659 
Q 213 2581 725 3025 
Q 1153 3394 1769 3394 
Q 2453 3394 2887 2945 
Q 3322 2497 3322 1706 
Q 3322 1066 3130 698 
Q 2938 331 2570 128 
Q 2203 -75 1769 -75 
Q 1072 -75 642 372 
Q 213 819 213 1659 
z
M 791 1659 
Q 791 1022 1069 705 
Q 1347 388 1769 388 
Q 2188 388 2466 706 
Q 2744 1025 2744 1678 
Q 2744 2294 2464 2611 
Q 2184 2928 1769 2928 
Q 1347 2928 1069 2612 
Q 791 2297 791 1659 
z
" transform="scale(0.015625)"/>
      <path id="ArialMT-63" d="M 2588 1216 
L 3141 1144 
Q 3050 572 2676 248 
Q 2303 -75 1759 -75 
Q 1078 -75 664 370 
Q 250 816 250 1647 
Q 250 2184 428 2587 
Q 606 2991 970 3192 
Q 1334 3394 1763 3394 
Q 2303 3394 2647 3120 
Q 2991 2847 3088 2344 
L 2541 2259 
Q 2463 2594 2264 2762 
Q 2066 2931 1784 2931 
Q 1359 2931 1093 2626 
Q 828 2322 828 1663 
Q 828 994 1084 691 
Q 1341 388 1753 388 
Q 2084 388 2306 591 
Q 2528 794 2588 1216 
z
" transform="scale(0.015625)"/>
      <path id="ArialMT-72" d="M 416 0 
L 416 3319 
L 922 3319 
L 922 2816 
Q 1116 3169 1280 3281 
Q 1444 3394 1641 3394 
Q 1925 3394 2219 3213 
L 2025 2691 
Q 1819 2813 1613 2813 
Q 1428 2813 1281 2702 
Q 1134 2591 1072 2394 
Q 978 2094 978 1738 
L 978 0 
L 416 0 
z
" transform="scale(0.015625)"/>
      <path id="ArialMT-65" d="M 2694 1069 
L 3275 997 
Q 3138 488 2766 206 
Q 2394 -75 1816 -75 
Q 1088 -75 661 373 
Q 234 822 234 1631 
Q 234 2469 665 2931 
Q 1097 3394 1784 3394 
Q 2450 3394 2872 2941 
Q 3294 2488 3294 1666 
Q 3294 1616 3291 1516 
L 816 1516 
Q 847 969 1125 678 
Q 1403 388 1819 388 
Q 2128 388 2347 550 
Q 2566 713 2694 1069 
z
M 847 1978 
L 2700 1978 
Q 2663 2397 2488 2606 
Q 2219 2931 1791 2931 
Q 1403 2931 1139 2672 
Q 875 2413 847 1978 
z
" transform="scale(0.015625)"/>
      <path id="ArialMT-6c" d="M 409 0 
L 409 4581 
L 972 4581 
L 972 0 
L 409 0 
z
" transform="scale(0.015625)"/>
      <path id="ArialMT-61" d="M 2588 409 
Q 2275 144 1986 34 
Q 1697 -75 1366 -75 
Q 819 -75 525 192 
Q 231 459 231 875 
Q 231 1119 342 1320 
Q 453 1522 633 1644 
Q 813 1766 1038 1828 
Q 1203 1872 1538 1913 
Q 2219 1994 2541 2106 
Q 2544 2222 2544 2253 
Q 2544 2597 2384 2738 
Q 2169 2928 1744 2928 
Q 1347 2928 1158 2789 
Q 969 2650 878 2297 
L 328 2372 
Q 403 2725 575 2942 
Q 747 3159 1072 3276 
Q 1397 3394 1825 3394 
Q 2250 3394 2515 3294 
Q 2781 3194 2906 3042 
Q 3031 2891 3081 2659 
Q 3109 2516 3109 2141 
L 3109 1391 
Q 3109 606 3145 398 
Q 3181 191 3288 0 
L 2700 0 
Q 2613 175 2588 409 
z
M 2541 1666 
Q 2234 1541 1622 1453 
Q 1275 1403 1131 1340 
Q 988 1278 909 1158 
Q 831 1038 831 891 
Q 831 666 1001 516 
Q 1172 366 1500 366 
Q 1825 366 2078 508 
Q 2331 650 2450 897 
Q 2541 1088 2541 1459 
L 2541 1666 
z
" transform="scale(0.015625)"/>
      <path id="ArialMT-69" d="M 425 3934 
L 425 4581 
L 988 4581 
L 988 3934 
L 425 3934 
z
M 425 0 
L 425 3319 
L 988 3319 
L 988 0 
L 425 0 
z
" transform="scale(0.015625)"/>
      <path id="ArialMT-6e" d="M 422 0 
L 422 3319 
L 928 3319 
L 928 2847 
Q 1294 3394 1984 3394 
Q 2284 3394 2536 3286 
Q 2788 3178 2913 3003 
Q 3038 2828 3088 2588 
Q 3119 2431 3119 2041 
L 3119 0 
L 2556 0 
L 2556 2019 
Q 2556 2363 2490 2533 
Q 2425 2703 2258 2804 
Q 2091 2906 1866 2906 
Q 1506 2906 1245 2678 
Q 984 2450 984 1813 
L 984 0 
L 422 0 
z
" transform="scale(0.015625)"/>
      <path id="ArialMT-73" d="M 197 991 
L 753 1078 
Q 800 744 1014 566 
Q 1228 388 1613 388 
Q 2000 388 2187 545 
Q 2375 703 2375 916 
Q 2375 1106 2209 1216 
Q 2094 1291 1634 1406 
Q 1016 1563 777 1677 
Q 538 1791 414 1992 
Q 291 2194 291 2438 
Q 291 2659 392 2848 
Q 494 3038 669 3163 
Q 800 3259 1026 3326 
Q 1253 3394 1513 3394 
Q 1903 3394 2198 3281 
Q 2494 3169 2634 2976 
Q 2775 2784 2828 2463 
L 2278 2388 
Q 2241 2644 2061 2787 
Q 1881 2931 1553 2931 
Q 1166 2931 1000 2803 
Q 834 2675 834 2503 
Q 834 2394 903 2306 
Q 972 2216 1119 2156 
Q 1203 2125 1616 2013 
Q 2213 1853 2448 1751 
Q 2684 1650 2818 1456 
Q 2953 1263 2953 975 
Q 2953 694 2789 445 
Q 2625 197 2315 61 
Q 2006 -75 1616 -75 
Q 969 -75 630 194 
Q 291 463 197 991 
z
" transform="scale(0.015625)"/>
      <path id="ArialMT-20" transform="scale(0.015625)"/>
      <path id="ArialMT-53" d="M 288 1472 
L 859 1522 
Q 900 1178 1048 958 
Q 1197 738 1509 602 
Q 1822 466 2213 466 
Q 2559 466 2825 569 
Q 3091 672 3220 851 
Q 3350 1031 3350 1244 
Q 3350 1459 3225 1620 
Q 3100 1781 2813 1891 
Q 2628 1963 1997 2114 
Q 1366 2266 1113 2400 
Q 784 2572 623 2826 
Q 463 3081 463 3397 
Q 463 3744 659 4045 
Q 856 4347 1234 4503 
Q 1613 4659 2075 4659 
Q 2584 4659 2973 4495 
Q 3363 4331 3572 4012 
Q 3781 3694 3797 3291 
L 3216 3247 
Q 3169 3681 2898 3903 
Q 2628 4125 2100 4125 
Q 1550 4125 1298 3923 
Q 1047 3722 1047 3438 
Q 1047 3191 1225 3031 
Q 1400 2872 2139 2705 
Q 2878 2538 3153 2413 
Q 3553 2228 3743 1945 
Q 3934 1663 3934 1294 
Q 3934 928 3725 604 
Q 3516 281 3123 101 
Q 2731 -78 2241 -78 
Q 1619 -78 1198 103 
Q 778 284 539 648 
Q 300 1013 288 1472 
z
" transform="scale(0.015625)"/>
      <path id="ArialMT-6d" d="M 422 0 
L 422 3319 
L 925 3319 
L 925 2853 
Q 1081 3097 1340 3245 
Q 1600 3394 1931 3394 
Q 2300 3394 2536 3241 
Q 2772 3088 2869 2813 
Q 3263 3394 3894 3394 
Q 4388 3394 4653 3120 
Q 4919 2847 4919 2278 
L 4919 0 
L 4359 0 
L 4359 2091 
Q 4359 2428 4304 2576 
Q 4250 2725 4106 2815 
Q 3963 2906 3769 2906 
Q 3419 2906 3187 2673 
Q 2956 2441 2956 1928 
L 2956 0 
L 2394 0 
L 2394 2156 
Q 2394 2531 2256 2718 
Q 2119 2906 1806 2906 
Q 1569 2906 1367 2781 
Q 1166 2656 1075 2415 
Q 984 2175 984 1722 
L 984 0 
L 422 0 
z
" transform="scale(0.015625)"/>
      <path id="ArialMT-70" d="M 422 -1272 
L 422 3319 
L 934 3319 
L 934 2888 
Q 1116 3141 1344 3267 
Q 1572 3394 1897 3394 
Q 2322 3394 2647 3175 
Q 2972 2956 3137 2557 
Q 3303 2159 3303 1684 
Q 3303 1175 3120 767 
Q 2938 359 2589 142 
Q 2241 -75 1856 -75 
Q 1575 -75 1351 44 
Q 1128 163 984 344 
L 984 -1272 
L 422 -1272 
z
M 931 1641 
Q 931 1000 1190 694 
Q 1450 388 1819 388 
Q 2194 388 2461 705 
Q 2728 1022 2728 1688 
Q 2728 2322 2467 2637 
Q 2206 2953 1844 2953 
Q 1484 2953 1207 2617 
Q 931 2281 931 1641 
z
" transform="scale(0.015625)"/>
     </defs>
     <use xlink:href="#ArialMT-41"/>
     <use xlink:href="#ArialMT-75" x="66.699219"/>
     <use xlink:href="#ArialMT-74" x="122.314453"/>
     <use xlink:href="#ArialMT-6f" x="150.097656"/>
     <use xlink:href="#ArialMT-63" x="205.712891"/>
     <use xlink:href="#ArialMT-6f" x="255.712891"/>
     <use xlink:href="#ArialMT-72" x="311.328125"/>
     <use xlink:href="#ArialMT-72" x="344.628906"/>
     <use xlink:href="#ArialMT-65" x="377.929688"/>
     <use xlink:href="#ArialMT-6c" x="433.544922"/>
     <use xlink:href="#ArialMT-61" x="455.761719"/>
     <use xlink:href="#ArialMT-63" x="511.376953"/>
     <use xlink:href="#ArialMT-69" x="561.376953"/>
     <use xlink:href="#ArialMT-6f" x="583.59375"/>
     <use xlink:href="#ArialMT-6e" x="639.208984"/>
     <use xlink:href="#ArialMT-65" x="694.824219"/>
     <use xlink:href="#ArialMT-73" x="750.439453"/>
     <use xlink:href="#ArialMT-20" x="800.439453"/>
     <use xlink:href="#ArialMT-53" x="828.222656"/>
     <use xlink:href="#ArialMT-69" x="894.921875"/>
     <use xlink:href="#ArialMT-6d" x="917.138672"/>
     <use xlink:href="#ArialMT-70" x="1000.439453"/>
     <use xlink:href="#ArialMT-6c" x="1056.054688"/>
     <use xlink:href="#ArialMT-65" x="1078.271484"/>
     <use xlink:href="#ArialMT-73" x="1133.886719"/>
    </g>
   </g>
  </g>
  <g id="axes_2">
   <g id="patch_7">
    <path d="M 470.051719 249.739375 
L 844.368876 249.739375 
L 844.368876 21.935625 
L 470.051719 21.935625 
z
" style="fill: #ffffff"/>
   </g>
   <g id="matplotlib.axis_3">
    <g id="xtick_7">
     <g id="line2d_18">
      <path d="M 487.066135 249.739375 
L 487.066135 21.935625 
" clip-path="url(#p65391949ce)" style="fill: none; stroke: #cccccc; stroke-linecap: round"/>
     </g>
     <g id="text_17">
      <!-- 0 -->
      <g style="fill: #262626" transform="translate(484.007619 267.112969) scale(0.11 -0.11)">
       <use xlink:href="#ArialMT-30"/>
      </g>
     </g>
    </g>
    <g id="xtick_8">
     <g id="line2d_19">
      <path d="M 557.228676 249.739375 
L 557.228676 21.935625 
" clip-path="url(#p65391949ce)" style="fill: none; stroke: #cccccc; stroke-linecap: round"/>
     </g>
     <g id="text_18">
      <!-- 10 -->
      <g style="fill: #262626" transform="translate(551.111645 267.112969) scale(0.11 -0.11)">
       <use xlink:href="#ArialMT-31"/>
       <use xlink:href="#ArialMT-30" x="55.615234"/>
      </g>
     </g>
    </g>
    <g id="xtick_9">
     <g id="line2d_20">
      <path d="M 627.391218 249.739375 
L 627.391218 21.935625 
" clip-path="url(#p65391949ce)" style="fill: none; stroke: #cccccc; stroke-linecap: round"/>
     </g>
     <g id="text_19">
      <!-- 20 -->
      <g style="fill: #262626" transform="translate(621.274186 267.112969) scale(0.11 -0.11)">
       <use xlink:href="#ArialMT-32"/>
       <use xlink:href="#ArialMT-30" x="55.615234"/>
      </g>
     </g>
    </g>
    <g id="xtick_10">
     <g id="line2d_21">
      <path d="M 697.553759 249.739375 
L 697.553759 21.935625 
" clip-path="url(#p65391949ce)" style="fill: none; stroke: #cccccc; stroke-linecap: round"/>
     </g>
     <g id="text_20">
      <!-- 30 -->
      <g style="fill: #262626" transform="translate(691.436728 267.112969) scale(0.11 -0.11)">
       <use xlink:href="#ArialMT-33"/>
       <use xlink:href="#ArialMT-30" x="55.615234"/>
      </g>
     </g>
    </g>
    <g id="xtick_11">
     <g id="line2d_22">
      <path d="M 767.7163 249.739375 
L 767.7163 21.935625 
" clip-path="url(#p65391949ce)" style="fill: none; stroke: #cccccc; stroke-linecap: round"/>
     </g>
     <g id="text_21">
      <!-- 40 -->
      <g style="fill: #262626" transform="translate(761.599269 267.112969) scale(0.11 -0.11)">
       <use xlink:href="#ArialMT-34"/>
       <use xlink:href="#ArialMT-30" x="55.615234"/>
      </g>
     </g>
    </g>
    <g id="xtick_12">
     <g id="line2d_23">
      <path d="M 837.878841 249.739375 
L 837.878841 21.935625 
" clip-path="url(#p65391949ce)" style="fill: none; stroke: #cccccc; stroke-linecap: round"/>
     </g>
     <g id="text_22">
      <!-- 50 -->
      <g style="fill: #262626" transform="translate(831.76181 267.112969) scale(0.11 -0.11)">
       <use xlink:href="#ArialMT-35"/>
       <use xlink:href="#ArialMT-30" x="55.615234"/>
      </g>
     </g>
    </g>
   </g>
   <g id="matplotlib.axis_4">
    <g id="ytick_10">
     <g id="line2d_24">
      <path d="M 470.051719 249.739375 
L 844.368876 249.739375 
" clip-path="url(#p65391949ce)" style="fill: none; stroke: #cccccc; stroke-linecap: round"/>
     </g>
     <g id="text_23">
      <!-- −1.00 -->
      <g style="fill: #262626" transform="translate(432.72 253.676172) scale(0.11 -0.11)">
       <use xlink:href="#ArialMT-2212"/>
       <use xlink:href="#ArialMT-31" x="58.398438"/>
       <use xlink:href="#ArialMT-2e" x="114.013672"/>
       <use xlink:href="#ArialMT-30" x="141.796875"/>
       <use xlink:href="#ArialMT-30" x="197.412109"/>
      </g>
     </g>
    </g>
    <g id="ytick_11">
     <g id="line2d_25">
      <path d="M 470.051719 221.263906 
L 844.368876 221.263906 
" clip-path="url(#p65391949ce)" style="fill: none; stroke: #cccccc; stroke-linecap: round"/>
     </g>
     <g id="text_24">
      <!-- −0.75 -->
      <g style="fill: #262626" transform="translate(432.72 225.200703) scale(0.11 -0.11)">
       <use xlink:href="#ArialMT-2212"/>
       <use xlink:href="#ArialMT-30" x="58.398438"/>
       <use xlink:href="#ArialMT-2e" x="114.013672"/>
       <use xlink:href="#ArialMT-37" x="141.796875"/>
       <use xlink:href="#ArialMT-35" x="197.412109"/>
      </g>
     </g>
    </g>
    <g id="ytick_12">
     <g id="line2d_26">
      <path d="M 470.051719 192.788438 
L 844.368876 192.788438 
" clip-path="url(#p65391949ce)" style="fill: none; stroke: #cccccc; stroke-linecap: round"/>
     </g>
     <g id="text_25">
      <!-- −0.50 -->
      <g style="fill: #262626" transform="translate(432.72 196.725234) scale(0.11 -0.11)">
       <use xlink:href="#ArialMT-2212"/>
       <use xlink:href="#ArialMT-30" x="58.398438"/>
       <use xlink:href="#ArialMT-2e" x="114.013672"/>
       <use xlink:href="#ArialMT-35" x="141.796875"/>
       <use xlink:href="#ArialMT-30" x="197.412109"/>
      </g>
     </g>
    </g>
    <g id="ytick_13">
     <g id="line2d_27">
      <path d="M 470.051719 164.312969 
L 844.368876 164.312969 
" clip-path="url(#p65391949ce)" style="fill: none; stroke: #cccccc; stroke-linecap: round"/>
     </g>
     <g id="text_26">
      <!-- −0.25 -->
      <g style="fill: #262626" transform="translate(432.72 168.249766) scale(0.11 -0.11)">
       <use xlink:href="#ArialMT-2212"/>
       <use xlink:href="#ArialMT-30" x="58.398438"/>
       <use xlink:href="#ArialMT-2e" x="114.013672"/>
       <use xlink:href="#ArialMT-32" x="141.796875"/>
       <use xlink:href="#ArialMT-35" x="197.412109"/>
      </g>
     </g>
    </g>
    <g id="ytick_14">
     <g id="line2d_28">
      <path d="M 470.051719 135.8375 
L 844.368876 135.8375 
" clip-path="url(#p65391949ce)" style="fill: none; stroke: #cccccc; stroke-linecap: round"/>
     </g>
     <g id="text_27">
      <!-- 0.00 -->
      <g style="fill: #262626" transform="translate(439.144688 139.774297) scale(0.11 -0.11)">
       <use xlink:href="#ArialMT-30"/>
       <use xlink:href="#ArialMT-2e" x="55.615234"/>
       <use xlink:href="#ArialMT-30" x="83.398438"/>
       <use xlink:href="#ArialMT-30" x="139.013672"/>
      </g>
     </g>
    </g>
    <g id="ytick_15">
     <g id="line2d_29">
      <path d="M 470.051719 107.362031 
L 844.368876 107.362031 
" clip-path="url(#p65391949ce)" style="fill: none; stroke: #cccccc; stroke-linecap: round"/>
     </g>
     <g id="text_28">
      <!-- 0.25 -->
      <g style="fill: #262626" transform="translate(439.144688 111.298828) scale(0.11 -0.11)">
       <use xlink:href="#ArialMT-30"/>
       <use xlink:href="#ArialMT-2e" x="55.615234"/>
       <use xlink:href="#ArialMT-32" x="83.398438"/>
       <use xlink:href="#ArialMT-35" x="139.013672"/>
      </g>
     </g>
    </g>
    <g id="ytick_16">
     <g id="line2d_30">
      <path d="M 470.051719 78.886563 
L 844.368876 78.886563 
" clip-path="url(#p65391949ce)" style="fill: none; stroke: #cccccc; stroke-linecap: round"/>
     </g>
     <g id="text_29">
      <!-- 0.50 -->
      <g style="fill: #262626" transform="translate(439.144688 82.823359) scale(0.11 -0.11)">
       <use xlink:href="#ArialMT-30"/>
       <use xlink:href="#ArialMT-2e" x="55.615234"/>
       <use xlink:href="#ArialMT-35" x="83.398438"/>
       <use xlink:href="#ArialMT-30" x="139.013672"/>
      </g>
     </g>
    </g>
    <g id="ytick_17">
     <g id="line2d_31">
      <path d="M 470.051719 50.411094 
L 844.368876 50.411094 
" clip-path="url(#p65391949ce)" style="fill: none; stroke: #cccccc; stroke-linecap: round"/>
     </g>
     <g id="text_30">
      <!-- 0.75 -->
      <g style="fill: #262626" transform="translate(439.144688 54.347891) scale(0.11 -0.11)">
       <use xlink:href="#ArialMT-30"/>
       <use xlink:href="#ArialMT-2e" x="55.615234"/>
       <use xlink:href="#ArialMT-37" x="83.398438"/>
       <use xlink:href="#ArialMT-35" x="139.013672"/>
      </g>
     </g>
    </g>
    <g id="ytick_18">
     <g id="line2d_32">
      <path d="M 470.051719 21.935625 
L 844.368876 21.935625 
" clip-path="url(#p65391949ce)" style="fill: none; stroke: #cccccc; stroke-linecap: round"/>
     </g>
     <g id="text_31">
      <!-- 1.00 -->
      <g style="fill: #262626" transform="translate(439.144688 25.872422) scale(0.11 -0.11)">
       <use xlink:href="#ArialMT-31"/>
       <use xlink:href="#ArialMT-2e" x="55.615234"/>
       <use xlink:href="#ArialMT-30" x="83.398438"/>
       <use xlink:href="#ArialMT-30" x="139.013672"/>
      </g>
     </g>
    </g>
   </g>
   <g id="PolyCollection_2">
    <defs>
     <path id="me219e7a779" d="M 490.574262 -149.273527 
L 490.574262 -132.049911 
L 501.098643 -132.049911 
L 508.114897 -132.049911 
L 515.131152 -132.049911 
L 522.147406 -132.049911 
L 529.16366 -132.049911 
L 536.179914 -132.049911 
L 543.196168 -132.049911 
L 550.212422 -132.049911 
L 557.228676 -132.049911 
L 564.24493 -132.049911 
L 571.261185 -132.049911 
L 578.277439 -132.049911 
L 585.293693 -132.049911 
L 592.309947 -132.049911 
L 599.326201 -132.049911 
L 606.342455 -132.049911 
L 613.358709 -132.049911 
L 620.374963 -132.049911 
L 627.391218 -132.049911 
L 634.407472 -132.049911 
L 641.423726 -132.049911 
L 648.43998 -132.049911 
L 655.456234 -132.049911 
L 662.472488 -132.049911 
L 669.488742 -132.049911 
L 676.504996 -132.049911 
L 683.521251 -132.049911 
L 690.537505 -132.049911 
L 697.553759 -132.049911 
L 704.570013 -132.049911 
L 711.586267 -132.049911 
L 718.602521 -132.049911 
L 725.618775 -132.049911 
L 732.635029 -132.049911 
L 739.651284 -132.049911 
L 746.667538 -132.049911 
L 753.683792 -132.049911 
L 760.700046 -132.049911 
L 767.7163 -132.049911 
L 774.732554 -132.049911 
L 781.748808 -132.049911 
L 788.765062 -132.049911 
L 795.781317 -132.049911 
L 802.797571 -132.049911 
L 809.813825 -132.049911 
L 816.830079 -132.049911 
L 827.35446 -132.049911 
L 827.35446 -149.273527 
L 827.35446 -149.273527 
L 816.830079 -149.273527 
L 809.813825 -149.273527 
L 802.797571 -149.273527 
L 795.781317 -149.273527 
L 788.765062 -149.273527 
L 781.748808 -149.273527 
L 774.732554 -149.273527 
L 767.7163 -149.273527 
L 760.700046 -149.273527 
L 753.683792 -149.273527 
L 746.667538 -149.273527 
L 739.651284 -149.273527 
L 732.635029 -149.273527 
L 725.618775 -149.273527 
L 718.602521 -149.273527 
L 711.586267 -149.273527 
L 704.570013 -149.273527 
L 697.553759 -149.273527 
L 690.537505 -149.273527 
L 683.521251 -149.273527 
L 676.504996 -149.273527 
L 669.488742 -149.273527 
L 662.472488 -149.273527 
L 655.456234 -149.273527 
L 648.43998 -149.273527 
L 641.423726 -149.273527 
L 634.407472 -149.273527 
L 627.391218 -149.273527 
L 620.374963 -149.273527 
L 613.358709 -149.273527 
L 606.342455 -149.273527 
L 599.326201 -149.273527 
L 592.309947 -149.273527 
L 585.293693 -149.273527 
L 578.277439 -149.273527 
L 571.261185 -149.273527 
L 564.24493 -149.273527 
L 557.228676 -149.273527 
L 550.212422 -149.273527 
L 543.196168 -149.273527 
L 536.179914 -149.273527 
L 529.16366 -149.273527 
L 522.147406 -149.273527 
L 515.131152 -149.273527 
L 508.114897 -149.273527 
L 501.098643 -149.273527 
L 490.574262 -149.273527 
z
" style="stroke: #ffffff; stroke-opacity: 0.25"/>
    </defs>
    <g clip-path="url(#p65391949ce)">
     <use xlink:href="#me219e7a779" x="0" y="276.499219" style="fill: #4c72b0; fill-opacity: 0.25; stroke: #ffffff; stroke-opacity: 0.25"/>
    </g>
   </g>
   <g id="LineCollection_2">
    <path d="M 487.066135 135.8375 
L 487.066135 21.935625 
" clip-path="url(#p65391949ce)" style="fill: none; stroke: #4c72b0; stroke-width: 1.5"/>
    <path d="M 494.082389 135.8375 
L 494.082389 63.591279 
" clip-path="url(#p65391949ce)" style="fill: none; stroke: #4c72b0; stroke-width: 1.5"/>
    <path d="M 501.098643 135.8375 
L 501.098643 149.199716 
" clip-path="url(#p65391949ce)" style="fill: none; stroke: #4c72b0; stroke-width: 1.5"/>
    <path d="M 508.114897 135.8375 
L 508.114897 169.119281 
" clip-path="url(#p65391949ce)" style="fill: none; stroke: #4c72b0; stroke-width: 1.5"/>
    <path d="M 515.131152 135.8375 
L 515.131152 172.919402 
" clip-path="url(#p65391949ce)" style="fill: none; stroke: #4c72b0; stroke-width: 1.5"/>
    <path d="M 522.147406 135.8375 
L 522.147406 179.195938 
" clip-path="url(#p65391949ce)" style="fill: none; stroke: #4c72b0; stroke-width: 1.5"/>
    <path d="M 529.16366 135.8375 
L 529.16366 172.761493 
" clip-path="url(#p65391949ce)" style="fill: none; stroke: #4c72b0; stroke-width: 1.5"/>
    <path d="M 536.179914 135.8375 
L 536.179914 143.70126 
" clip-path="url(#p65391949ce)" style="fill: none; stroke: #4c72b0; stroke-width: 1.5"/>
    <path d="M 543.196168 135.8375 
L 543.196168 132.281149 
" clip-path="url(#p65391949ce)" style="fill: none; stroke: #4c72b0; stroke-width: 1.5"/>
    <path d="M 550.212422 135.8375 
L 550.212422 128.903569 
" clip-path="url(#p65391949ce)" style="fill: none; stroke: #4c72b0; stroke-width: 1.5"/>
    <path d="M 557.228676 135.8375 
L 557.228676 133.876936 
" clip-path="url(#p65391949ce)" style="fill: none; stroke: #4c72b0; stroke-width: 1.5"/>
    <path d="M 564.24493 135.8375 
L 564.24493 113.682387 
" clip-path="url(#p65391949ce)" style="fill: none; stroke: #4c72b0; stroke-width: 1.5"/>
    <path d="M 571.261185 135.8375 
L 571.261185 119.278152 
" clip-path="url(#p65391949ce)" style="fill: none; stroke: #4c72b0; stroke-width: 1.5"/>
    <path d="M 578.277439 135.8375 
L 578.277439 135.817711 
" clip-path="url(#p65391949ce)" style="fill: none; stroke: #4c72b0; stroke-width: 1.5"/>
    <path d="M 585.293693 135.8375 
L 585.293693 139.949965 
" clip-path="url(#p65391949ce)" style="fill: none; stroke: #4c72b0; stroke-width: 1.5"/>
    <path d="M 592.309947 135.8375 
L 592.309947 137.333393 
" clip-path="url(#p65391949ce)" style="fill: none; stroke: #4c72b0; stroke-width: 1.5"/>
    <path d="M 599.326201 135.8375 
L 599.326201 139.679388 
" clip-path="url(#p65391949ce)" style="fill: none; stroke: #4c72b0; stroke-width: 1.5"/>
    <path d="M 606.342455 135.8375 
L 606.342455 148.511935 
" clip-path="url(#p65391949ce)" style="fill: none; stroke: #4c72b0; stroke-width: 1.5"/>
    <path d="M 613.358709 135.8375 
L 613.358709 142.025306 
" clip-path="url(#p65391949ce)" style="fill: none; stroke: #4c72b0; stroke-width: 1.5"/>
    <path d="M 620.374963 135.8375 
L 620.374963 138.50642 
" clip-path="url(#p65391949ce)" style="fill: none; stroke: #4c72b0; stroke-width: 1.5"/>
    <path d="M 627.391218 135.8375 
L 627.391218 134.860789 
" clip-path="url(#p65391949ce)" style="fill: none; stroke: #4c72b0; stroke-width: 1.5"/>
    <path d="M 634.407472 135.8375 
L 634.407472 134.512127 
" clip-path="url(#p65391949ce)" style="fill: none; stroke: #4c72b0; stroke-width: 1.5"/>
    <path d="M 641.423726 135.8375 
L 641.423726 145.897396 
" clip-path="url(#p65391949ce)" style="fill: none; stroke: #4c72b0; stroke-width: 1.5"/>
    <path d="M 648.43998 135.8375 
L 648.43998 124.370697 
" clip-path="url(#p65391949ce)" style="fill: none; stroke: #4c72b0; stroke-width: 1.5"/>
    <path d="M 655.456234 135.8375 
L 655.456234 131.541496 
" clip-path="url(#p65391949ce)" style="fill: none; stroke: #4c72b0; stroke-width: 1.5"/>
    <path d="M 662.472488 135.8375 
L 662.472488 134.641721 
" clip-path="url(#p65391949ce)" style="fill: none; stroke: #4c72b0; stroke-width: 1.5"/>
    <path d="M 669.488742 135.8375 
L 669.488742 142.493224 
" clip-path="url(#p65391949ce)" style="fill: none; stroke: #4c72b0; stroke-width: 1.5"/>
    <path d="M 676.504996 135.8375 
L 676.504996 140.772563 
" clip-path="url(#p65391949ce)" style="fill: none; stroke: #4c72b0; stroke-width: 1.5"/>
    <path d="M 683.521251 135.8375 
L 683.521251 131.511764 
" clip-path="url(#p65391949ce)" style="fill: none; stroke: #4c72b0; stroke-width: 1.5"/>
    <path d="M 690.537505 135.8375 
L 690.537505 136.361543 
" clip-path="url(#p65391949ce)" style="fill: none; stroke: #4c72b0; stroke-width: 1.5"/>
    <path d="M 697.553759 135.8375 
L 697.553759 145.254159 
" clip-path="url(#p65391949ce)" style="fill: none; stroke: #4c72b0; stroke-width: 1.5"/>
    <path d="M 704.570013 135.8375 
L 704.570013 132.31792 
" clip-path="url(#p65391949ce)" style="fill: none; stroke: #4c72b0; stroke-width: 1.5"/>
    <path d="M 711.586267 135.8375 
L 711.586267 140.655829 
" clip-path="url(#p65391949ce)" style="fill: none; stroke: #4c72b0; stroke-width: 1.5"/>
    <path d="M 718.602521 135.8375 
L 718.602521 127.505202 
" clip-path="url(#p65391949ce)" style="fill: none; stroke: #4c72b0; stroke-width: 1.5"/>
    <path d="M 725.618775 135.8375 
L 725.618775 139.103388 
" clip-path="url(#p65391949ce)" style="fill: none; stroke: #4c72b0; stroke-width: 1.5"/>
    <path d="M 732.635029 135.8375 
L 732.635029 129.396416 
" clip-path="url(#p65391949ce)" style="fill: none; stroke: #4c72b0; stroke-width: 1.5"/>
    <path d="M 739.651284 135.8375 
L 739.651284 130.089734 
" clip-path="url(#p65391949ce)" style="fill: none; stroke: #4c72b0; stroke-width: 1.5"/>
    <path d="M 746.667538 135.8375 
L 746.667538 139.740507 
" clip-path="url(#p65391949ce)" style="fill: none; stroke: #4c72b0; stroke-width: 1.5"/>
    <path d="M 753.683792 135.8375 
L 753.683792 129.86597 
" clip-path="url(#p65391949ce)" style="fill: none; stroke: #4c72b0; stroke-width: 1.5"/>
    <path d="M 760.700046 135.8375 
L 760.700046 141.4144 
" clip-path="url(#p65391949ce)" style="fill: none; stroke: #4c72b0; stroke-width: 1.5"/>
    <path d="M 767.7163 135.8375 
L 767.7163 129.713258 
" clip-path="url(#p65391949ce)" style="fill: none; stroke: #4c72b0; stroke-width: 1.5"/>
    <path d="M 774.732554 135.8375 
L 774.732554 137.402687 
" clip-path="url(#p65391949ce)" style="fill: none; stroke: #4c72b0; stroke-width: 1.5"/>
    <path d="M 781.748808 135.8375 
L 781.748808 138.070685 
" clip-path="url(#p65391949ce)" style="fill: none; stroke: #4c72b0; stroke-width: 1.5"/>
    <path d="M 788.765062 135.8375 
L 788.765062 137.219651 
" clip-path="url(#p65391949ce)" style="fill: none; stroke: #4c72b0; stroke-width: 1.5"/>
    <path d="M 795.781317 135.8375 
L 795.781317 140.983182 
" clip-path="url(#p65391949ce)" style="fill: none; stroke: #4c72b0; stroke-width: 1.5"/>
    <path d="M 802.797571 135.8375 
L 802.797571 143.184924 
" clip-path="url(#p65391949ce)" style="fill: none; stroke: #4c72b0; stroke-width: 1.5"/>
    <path d="M 809.813825 135.8375 
L 809.813825 140.101863 
" clip-path="url(#p65391949ce)" style="fill: none; stroke: #4c72b0; stroke-width: 1.5"/>
    <path d="M 816.830079 135.8375 
L 816.830079 125.189048 
" clip-path="url(#p65391949ce)" style="fill: none; stroke: #4c72b0; stroke-width: 1.5"/>
    <path d="M 823.846333 135.8375 
L 823.846333 136.714354 
" clip-path="url(#p65391949ce)" style="fill: none; stroke: #4c72b0; stroke-width: 1.5"/>
   </g>
   <g id="line2d_33">
    <path d="M 470.051719 135.8375 
L 844.368876 135.8375 
" clip-path="url(#p65391949ce)" style="fill: none; stroke: #4c72b0; stroke-width: 1.5; stroke-linecap: round"/>
   </g>
   <g id="line2d_34">
    <g clip-path="url(#p65391949ce)">
     <use xlink:href="#md0ac093449" x="487.066135" y="21.935625" style="fill: #4c72b0; stroke: #4c72b0"/>
     <use xlink:href="#md0ac093449" x="494.082389" y="63.591279" style="fill: #4c72b0; stroke: #4c72b0"/>
     <use xlink:href="#md0ac093449" x="501.098643" y="149.199716" style="fill: #4c72b0; stroke: #4c72b0"/>
     <use xlink:href="#md0ac093449" x="508.114897" y="169.119281" style="fill: #4c72b0; stroke: #4c72b0"/>
     <use xlink:href="#md0ac093449" x="515.131152" y="172.919402" style="fill: #4c72b0; stroke: #4c72b0"/>
     <use xlink:href="#md0ac093449" x="522.147406" y="179.195938" style="fill: #4c72b0; stroke: #4c72b0"/>
     <use xlink:href="#md0ac093449" x="529.16366" y="172.761493" style="fill: #4c72b0; stroke: #4c72b0"/>
     <use xlink:href="#md0ac093449" x="536.179914" y="143.70126" style="fill: #4c72b0; stroke: #4c72b0"/>
     <use xlink:href="#md0ac093449" x="543.196168" y="132.281149" style="fill: #4c72b0; stroke: #4c72b0"/>
     <use xlink:href="#md0ac093449" x="550.212422" y="128.903569" style="fill: #4c72b0; stroke: #4c72b0"/>
     <use xlink:href="#md0ac093449" x="557.228676" y="133.876936" style="fill: #4c72b0; stroke: #4c72b0"/>
     <use xlink:href="#md0ac093449" x="564.24493" y="113.682387" style="fill: #4c72b0; stroke: #4c72b0"/>
     <use xlink:href="#md0ac093449" x="571.261185" y="119.278152" style="fill: #4c72b0; stroke: #4c72b0"/>
     <use xlink:href="#md0ac093449" x="578.277439" y="135.817711" style="fill: #4c72b0; stroke: #4c72b0"/>
     <use xlink:href="#md0ac093449" x="585.293693" y="139.949965" style="fill: #4c72b0; stroke: #4c72b0"/>
     <use xlink:href="#md0ac093449" x="592.309947" y="137.333393" style="fill: #4c72b0; stroke: #4c72b0"/>
     <use xlink:href="#md0ac093449" x="599.326201" y="139.679388" style="fill: #4c72b0; stroke: #4c72b0"/>
     <use xlink:href="#md0ac093449" x="606.342455" y="148.511935" style="fill: #4c72b0; stroke: #4c72b0"/>
     <use xlink:href="#md0ac093449" x="613.358709" y="142.025306" style="fill: #4c72b0; stroke: #4c72b0"/>
     <use xlink:href="#md0ac093449" x="620.374963" y="138.50642" style="fill: #4c72b0; stroke: #4c72b0"/>
     <use xlink:href="#md0ac093449" x="627.391218" y="134.860789" style="fill: #4c72b0; stroke: #4c72b0"/>
     <use xlink:href="#md0ac093449" x="634.407472" y="134.512127" style="fill: #4c72b0; stroke: #4c72b0"/>
     <use xlink:href="#md0ac093449" x="641.423726" y="145.897396" style="fill: #4c72b0; stroke: #4c72b0"/>
     <use xlink:href="#md0ac093449" x="648.43998" y="124.370697" style="fill: #4c72b0; stroke: #4c72b0"/>
     <use xlink:href="#md0ac093449" x="655.456234" y="131.541496" style="fill: #4c72b0; stroke: #4c72b0"/>
     <use xlink:href="#md0ac093449" x="662.472488" y="134.641721" style="fill: #4c72b0; stroke: #4c72b0"/>
     <use xlink:href="#md0ac093449" x="669.488742" y="142.493224" style="fill: #4c72b0; stroke: #4c72b0"/>
     <use xlink:href="#md0ac093449" x="676.504996" y="140.772563" style="fill: #4c72b0; stroke: #4c72b0"/>
     <use xlink:href="#md0ac093449" x="683.521251" y="131.511764" style="fill: #4c72b0; stroke: #4c72b0"/>
     <use xlink:href="#md0ac093449" x="690.537505" y="136.361543" style="fill: #4c72b0; stroke: #4c72b0"/>
     <use xlink:href="#md0ac093449" x="697.553759" y="145.254159" style="fill: #4c72b0; stroke: #4c72b0"/>
     <use xlink:href="#md0ac093449" x="704.570013" y="132.31792" style="fill: #4c72b0; stroke: #4c72b0"/>
     <use xlink:href="#md0ac093449" x="711.586267" y="140.655829" style="fill: #4c72b0; stroke: #4c72b0"/>
     <use xlink:href="#md0ac093449" x="718.602521" y="127.505202" style="fill: #4c72b0; stroke: #4c72b0"/>
     <use xlink:href="#md0ac093449" x="725.618775" y="139.103388" style="fill: #4c72b0; stroke: #4c72b0"/>
     <use xlink:href="#md0ac093449" x="732.635029" y="129.396416" style="fill: #4c72b0; stroke: #4c72b0"/>
     <use xlink:href="#md0ac093449" x="739.651284" y="130.089734" style="fill: #4c72b0; stroke: #4c72b0"/>
     <use xlink:href="#md0ac093449" x="746.667538" y="139.740507" style="fill: #4c72b0; stroke: #4c72b0"/>
     <use xlink:href="#md0ac093449" x="753.683792" y="129.86597" style="fill: #4c72b0; stroke: #4c72b0"/>
     <use xlink:href="#md0ac093449" x="760.700046" y="141.4144" style="fill: #4c72b0; stroke: #4c72b0"/>
     <use xlink:href="#md0ac093449" x="767.7163" y="129.713258" style="fill: #4c72b0; stroke: #4c72b0"/>
     <use xlink:href="#md0ac093449" x="774.732554" y="137.402687" style="fill: #4c72b0; stroke: #4c72b0"/>
     <use xlink:href="#md0ac093449" x="781.748808" y="138.070685" style="fill: #4c72b0; stroke: #4c72b0"/>
     <use xlink:href="#md0ac093449" x="788.765062" y="137.219651" style="fill: #4c72b0; stroke: #4c72b0"/>
     <use xlink:href="#md0ac093449" x="795.781317" y="140.983182" style="fill: #4c72b0; stroke: #4c72b0"/>
     <use xlink:href="#md0ac093449" x="802.797571" y="143.184924" style="fill: #4c72b0; stroke: #4c72b0"/>
     <use xlink:href="#md0ac093449" x="809.813825" y="140.101863" style="fill: #4c72b0; stroke: #4c72b0"/>
     <use xlink:href="#md0ac093449" x="816.830079" y="125.189048" style="fill: #4c72b0; stroke: #4c72b0"/>
     <use xlink:href="#md0ac093449" x="823.846333" y="136.714354" style="fill: #4c72b0; stroke: #4c72b0"/>
    </g>
   </g>
   <g id="patch_8">
    <path d="M 470.051719 249.739375 
L 470.051719 21.935625 
" style="fill: none; stroke: #cccccc; stroke-width: 1.25; stroke-linejoin: miter; stroke-linecap: square"/>
   </g>
   <g id="patch_9">
    <path d="M 844.368876 249.739375 
L 844.368876 21.935625 
" style="fill: none; stroke: #cccccc; stroke-width: 1.25; stroke-linejoin: miter; stroke-linecap: square"/>
   </g>
   <g id="patch_10">
    <path d="M 470.051719 249.739375 
L 844.368876 249.739375 
" style="fill: none; stroke: #cccccc; stroke-width: 1.25; stroke-linejoin: miter; stroke-linecap: square"/>
   </g>
   <g id="patch_11">
    <path d="M 470.051719 21.935625 
L 844.368876 21.935625 
" style="fill: none; stroke: #cccccc; stroke-width: 1.25; stroke-linejoin: miter; stroke-linecap: square"/>
   </g>
   <g id="text_32">
    <!-- Autocorrelaciones Parciales -->
    <g style="fill: #262626" transform="translate(582.844048 15.935625) scale(0.12 -0.12)">
     <defs>
      <path id="ArialMT-50" d="M 494 0 
L 494 4581 
L 2222 4581 
Q 2678 4581 2919 4538 
Q 3256 4481 3484 4323 
Q 3713 4166 3852 3881 
Q 3991 3597 3991 3256 
Q 3991 2672 3619 2267 
Q 3247 1863 2275 1863 
L 1100 1863 
L 1100 0 
L 494 0 
z
M 1100 2403 
L 2284 2403 
Q 2872 2403 3119 2622 
Q 3366 2841 3366 3238 
Q 3366 3525 3220 3729 
Q 3075 3934 2838 4000 
Q 2684 4041 2272 4041 
L 1100 4041 
L 1100 2403 
z
" transform="scale(0.015625)"/>
     </defs>
     <use xlink:href="#ArialMT-41"/>
     <use xlink:href="#ArialMT-75" x="66.699219"/>
     <use xlink:href="#ArialMT-74" x="122.314453"/>
     <use xlink:href="#ArialMT-6f" x="150.097656"/>
     <use xlink:href="#ArialMT-63" x="205.712891"/>
     <use xlink:href="#ArialMT-6f" x="255.712891"/>
     <use xlink:href="#ArialMT-72" x="311.328125"/>
     <use xlink:href="#ArialMT-72" x="344.628906"/>
     <use xlink:href="#ArialMT-65" x="377.929688"/>
     <use xlink:href="#ArialMT-6c" x="433.544922"/>
     <use xlink:href="#ArialMT-61" x="455.761719"/>
     <use xlink:href="#ArialMT-63" x="511.376953"/>
     <use xlink:href="#ArialMT-69" x="561.376953"/>
     <use xlink:href="#ArialMT-6f" x="583.59375"/>
     <use xlink:href="#ArialMT-6e" x="639.208984"/>
     <use xlink:href="#ArialMT-65" x="694.824219"/>
     <use xlink:href="#ArialMT-73" x="750.439453"/>
     <use xlink:href="#ArialMT-20" x="800.439453"/>
     <use xlink:href="#ArialMT-50" x="828.222656"/>
     <use xlink:href="#ArialMT-61" x="894.921875"/>
     <use xlink:href="#ArialMT-72" x="950.537109"/>
     <use xlink:href="#ArialMT-63" x="983.837891"/>
     <use xlink:href="#ArialMT-69" x="1033.837891"/>
     <use xlink:href="#ArialMT-61" x="1056.054688"/>
     <use xlink:href="#ArialMT-6c" x="1111.669922"/>
     <use xlink:href="#ArialMT-65" x="1133.886719"/>
     <use xlink:href="#ArialMT-73" x="1189.501953"/>
    </g>
   </g>
  </g>
 </g>
 <defs>
  <clipPath id="pd62362fde6">
   <rect x="44.531719" y="21.935625" width="374.317158" height="227.80375"/>
  </clipPath>
  <clipPath id="p65391949ce">
   <rect x="470.051719" y="21.935625" width="374.317158" height="227.80375"/>
  </clipPath>
 </defs>
</svg>
