<?xml version="1.0" encoding="utf-8" standalone="no"?>
<!DOCTYPE svg PUBLIC "-//W3C//DTD SVG 1.1//EN"
  "http://www.w3.org/Graphics/SVG/1.1/DTD/svg11.dtd">
<svg xmlns:xlink="http://www.w3.org/1999/xlink" width="713.86pt" height="380.920312pt" viewBox="0 0 713.86 380.920312" xmlns="http://www.w3.org/2000/svg" version="1.1">
 <metadata>
  <rdf:RDF xmlns:dc="http://purl.org/dc/elements/1.1/" xmlns:cc="http://creativecommons.org/ns#" xmlns:rdf="http://www.w3.org/1999/02/22-rdf-syntax-ns#">
   <cc:Work>
    <dc:type rdf:resource="http://purl.org/dc/dcmitype/StillImage"/>
    <dc:date>2025-04-24T15:58:40.396957</dc:date>
    <dc:format>image/svg+xml</dc:format>
    <dc:creator>
     <cc:Agent>
      <dc:title>Matplotlib v3.10.1, https://matplotlib.org/</dc:title>
     </cc:Agent>
    </dc:creator>
   </cc:Work>
  </rdf:RDF>
 </metadata>
 <defs>
  <style type="text/css">*{stroke-linejoin: round; stroke-linecap: butt}</style>
 </defs>
 <g id="figure_1">
  <g id="patch_1">
   <path d="M 0 380.920312 
L 713.86 380.920312 
L 713.86 0 
L 0 0 
z
" style="fill: #ffffff"/>
  </g>
  <g id="axes_1">
   <g id="patch_2">
    <path d="M 37.06 356.477812 
L 706.66 356.477812 
L 706.66 23.837812 
L 37.06 23.837812 
z
" style="fill: #ffffff"/>
   </g>
   <g id="matplotlib.axis_1">
    <g id="xtick_1">
     <g id="line2d_1">
      <path d="M 38.727667 356.477812 
L 38.727667 23.837812 
" clip-path="url(#p78679e822a)" style="fill: none; stroke-dasharray: 1.85,0.8; stroke-dashoffset: 0; stroke: #808080; stroke-width: 0.5"/>
     </g>
     <g id="text_1">
      <!-- 1950 -->
      <g style="fill: #262626" transform="translate(28.547667 372.056562) scale(0.08 -0.08)">
       <defs>
        <path id="DejaVuSans-31" d="M 794 531 
L 1825 531 
L 1825 4091 
L 703 3866 
L 703 4441 
L 1819 4666 
L 2450 4666 
L 2450 531 
L 3481 531 
L 3481 0 
L 794 0 
L 794 531 
z
" transform="scale(0.015625)"/>
        <path id="DejaVuSans-39" d="M 703 97 
L 703 672 
Q 941 559 1184 500 
Q 1428 441 1663 441 
Q 2288 441 2617 861 
Q 2947 1281 2994 2138 
Q 2813 1869 2534 1725 
Q 2256 1581 1919 1581 
Q 1219 1581 811 2004 
Q 403 2428 403 3163 
Q 403 3881 828 4315 
Q 1253 4750 1959 4750 
Q 2769 4750 3195 4129 
Q 3622 3509 3622 2328 
Q 3622 1225 3098 567 
Q 2575 -91 1691 -91 
Q 1453 -91 1209 -44 
Q 966 3 703 97 
z
M 1959 2075 
Q 2384 2075 2632 2365 
Q 2881 2656 2881 3163 
Q 2881 3666 2632 3958 
Q 2384 4250 1959 4250 
Q 1534 4250 1286 3958 
Q 1038 3666 1038 3163 
Q 1038 2656 1286 2365 
Q 1534 2075 1959 2075 
z
" transform="scale(0.015625)"/>
        <path id="DejaVuSans-35" d="M 691 4666 
L 3169 4666 
L 3169 4134 
L 1269 4134 
L 1269 2991 
Q 1406 3038 1543 3061 
Q 1681 3084 1819 3084 
Q 2600 3084 3056 2656 
Q 3513 2228 3513 1497 
Q 3513 744 3044 326 
Q 2575 -91 1722 -91 
Q 1428 -91 1123 -41 
Q 819 9 494 109 
L 494 744 
Q 775 591 1075 516 
Q 1375 441 1709 441 
Q 2250 441 2565 725 
Q 2881 1009 2881 1497 
Q 2881 1984 2565 2268 
Q 2250 2553 1709 2553 
Q 1456 2553 1204 2497 
Q 953 2441 691 2322 
L 691 4666 
z
" transform="scale(0.015625)"/>
        <path id="DejaVuSans-30" d="M 2034 4250 
Q 1547 4250 1301 3770 
Q 1056 3291 1056 2328 
Q 1056 1369 1301 889 
Q 1547 409 2034 409 
Q 2525 409 2770 889 
Q 3016 1369 3016 2328 
Q 3016 3291 2770 3770 
Q 2525 4250 2034 4250 
z
M 2034 4750 
Q 2819 4750 3233 4129 
Q 3647 3509 3647 2328 
Q 3647 1150 3233 529 
Q 2819 -91 2034 -91 
Q 1250 -91 836 529 
Q 422 1150 422 2328 
Q 422 3509 836 4129 
Q 1250 4750 2034 4750 
z
" transform="scale(0.015625)"/>
       </defs>
       <use xlink:href="#DejaVuSans-31"/>
       <use xlink:href="#DejaVuSans-39" transform="translate(63.623047 0)"/>
       <use xlink:href="#DejaVuSans-35" transform="translate(127.246094 0)"/>
       <use xlink:href="#DejaVuSans-30" transform="translate(190.869141 0)"/>
      </g>
     </g>
    </g>
    <g id="xtick_2">
     <g id="line2d_2">
      <path d="M 143.372367 356.477812 
L 143.372367 23.837812 
" clip-path="url(#p78679e822a)" style="fill: none; stroke-dasharray: 1.85,0.8; stroke-dashoffset: 0; stroke: #808080; stroke-width: 0.5"/>
     </g>
     <g id="text_2">
      <!-- 1960 -->
      <g style="fill: #262626" transform="translate(133.192367 372.056562) scale(0.08 -0.08)">
       <defs>
        <path id="DejaVuSans-36" d="M 2113 2584 
Q 1688 2584 1439 2293 
Q 1191 2003 1191 1497 
Q 1191 994 1439 701 
Q 1688 409 2113 409 
Q 2538 409 2786 701 
Q 3034 994 3034 1497 
Q 3034 2003 2786 2293 
Q 2538 2584 2113 2584 
z
M 3366 4563 
L 3366 3988 
Q 3128 4100 2886 4159 
Q 2644 4219 2406 4219 
Q 1781 4219 1451 3797 
Q 1122 3375 1075 2522 
Q 1259 2794 1537 2939 
Q 1816 3084 2150 3084 
Q 2853 3084 3261 2657 
Q 3669 2231 3669 1497 
Q 3669 778 3244 343 
Q 2819 -91 2113 -91 
Q 1303 -91 875 529 
Q 447 1150 447 2328 
Q 447 3434 972 4092 
Q 1497 4750 2381 4750 
Q 2619 4750 2861 4703 
Q 3103 4656 3366 4563 
z
" transform="scale(0.015625)"/>
       </defs>
       <use xlink:href="#DejaVuSans-31"/>
       <use xlink:href="#DejaVuSans-39" transform="translate(63.623047 0)"/>
       <use xlink:href="#DejaVuSans-36" transform="translate(127.246094 0)"/>
       <use xlink:href="#DejaVuSans-30" transform="translate(190.869141 0)"/>
      </g>
     </g>
    </g>
    <g id="xtick_3">
     <g id="line2d_3">
      <path d="M 248.045721 356.477812 
L 248.045721 23.837812 
" clip-path="url(#p78679e822a)" style="fill: none; stroke-dasharray: 1.85,0.8; stroke-dashoffset: 0; stroke: #808080; stroke-width: 0.5"/>
     </g>
     <g id="text_3">
      <!-- 1970 -->
      <g style="fill: #262626" transform="translate(237.865721 372.056562) scale(0.08 -0.08)">
       <defs>
        <path id="DejaVuSans-37" d="M 525 4666 
L 3525 4666 
L 3525 4397 
L 1831 0 
L 1172 0 
L 2766 4134 
L 525 4134 
L 525 4666 
z
" transform="scale(0.015625)"/>
       </defs>
       <use xlink:href="#DejaVuSans-31"/>
       <use xlink:href="#DejaVuSans-39" transform="translate(63.623047 0)"/>
       <use xlink:href="#DejaVuSans-37" transform="translate(127.246094 0)"/>
       <use xlink:href="#DejaVuSans-30" transform="translate(190.869141 0)"/>
      </g>
     </g>
    </g>
    <g id="xtick_4">
     <g id="line2d_4">
      <path d="M 352.690421 356.477812 
L 352.690421 23.837812 
" clip-path="url(#p78679e822a)" style="fill: none; stroke-dasharray: 1.85,0.8; stroke-dashoffset: 0; stroke: #808080; stroke-width: 0.5"/>
     </g>
     <g id="text_4">
      <!-- 1980 -->
      <g style="fill: #262626" transform="translate(342.510421 372.056562) scale(0.08 -0.08)">
       <defs>
        <path id="DejaVuSans-38" d="M 2034 2216 
Q 1584 2216 1326 1975 
Q 1069 1734 1069 1313 
Q 1069 891 1326 650 
Q 1584 409 2034 409 
Q 2484 409 2743 651 
Q 3003 894 3003 1313 
Q 3003 1734 2745 1975 
Q 2488 2216 2034 2216 
z
M 1403 2484 
Q 997 2584 770 2862 
Q 544 3141 544 3541 
Q 544 4100 942 4425 
Q 1341 4750 2034 4750 
Q 2731 4750 3128 4425 
Q 3525 4100 3525 3541 
Q 3525 3141 3298 2862 
Q 3072 2584 2669 2484 
Q 3125 2378 3379 2068 
Q 3634 1759 3634 1313 
Q 3634 634 3220 271 
Q 2806 -91 2034 -91 
Q 1263 -91 848 271 
Q 434 634 434 1313 
Q 434 1759 690 2068 
Q 947 2378 1403 2484 
z
M 1172 3481 
Q 1172 3119 1398 2916 
Q 1625 2713 2034 2713 
Q 2441 2713 2670 2916 
Q 2900 3119 2900 3481 
Q 2900 3844 2670 4047 
Q 2441 4250 2034 4250 
Q 1625 4250 1398 4047 
Q 1172 3844 1172 3481 
z
" transform="scale(0.015625)"/>
       </defs>
       <use xlink:href="#DejaVuSans-31"/>
       <use xlink:href="#DejaVuSans-39" transform="translate(63.623047 0)"/>
       <use xlink:href="#DejaVuSans-38" transform="translate(127.246094 0)"/>
       <use xlink:href="#DejaVuSans-30" transform="translate(190.869141 0)"/>
      </g>
     </g>
    </g>
    <g id="xtick_5">
     <g id="line2d_5">
      <path d="M 457.363774 356.477812 
L 457.363774 23.837812 
" clip-path="url(#p78679e822a)" style="fill: none; stroke-dasharray: 1.85,0.8; stroke-dashoffset: 0; stroke: #808080; stroke-width: 0.5"/>
     </g>
     <g id="text_5">
      <!-- 1990 -->
      <g style="fill: #262626" transform="translate(447.183774 372.056562) scale(0.08 -0.08)">
       <use xlink:href="#DejaVuSans-31"/>
       <use xlink:href="#DejaVuSans-39" transform="translate(63.623047 0)"/>
       <use xlink:href="#DejaVuSans-39" transform="translate(127.246094 0)"/>
       <use xlink:href="#DejaVuSans-30" transform="translate(190.869141 0)"/>
      </g>
     </g>
    </g>
    <g id="xtick_6">
     <g id="line2d_6">
      <path d="M 562.008474 356.477812 
L 562.008474 23.837812 
" clip-path="url(#p78679e822a)" style="fill: none; stroke-dasharray: 1.85,0.8; stroke-dashoffset: 0; stroke: #808080; stroke-width: 0.5"/>
     </g>
     <g id="text_6">
      <!-- 2000 -->
      <g style="fill: #262626" transform="translate(551.828474 372.056562) scale(0.08 -0.08)">
       <defs>
        <path id="DejaVuSans-32" d="M 1228 531 
L 3431 531 
L 3431 0 
L 469 0 
L 469 531 
Q 828 903 1448 1529 
Q 2069 2156 2228 2338 
Q 2531 2678 2651 2914 
Q 2772 3150 2772 3378 
Q 2772 3750 2511 3984 
Q 2250 4219 1831 4219 
Q 1534 4219 1204 4116 
Q 875 4013 500 3803 
L 500 4441 
Q 881 4594 1212 4672 
Q 1544 4750 1819 4750 
Q 2544 4750 2975 4387 
Q 3406 4025 3406 3419 
Q 3406 3131 3298 2873 
Q 3191 2616 2906 2266 
Q 2828 2175 2409 1742 
Q 1991 1309 1228 531 
z
" transform="scale(0.015625)"/>
       </defs>
       <use xlink:href="#DejaVuSans-32"/>
       <use xlink:href="#DejaVuSans-30" transform="translate(63.623047 0)"/>
       <use xlink:href="#DejaVuSans-30" transform="translate(127.246094 0)"/>
       <use xlink:href="#DejaVuSans-30" transform="translate(190.869141 0)"/>
      </g>
     </g>
    </g>
    <g id="xtick_7">
     <g id="line2d_7">
      <path d="M 666.681828 356.477812 
L 666.681828 23.837812 
" clip-path="url(#p78679e822a)" style="fill: none; stroke-dasharray: 1.85,0.8; stroke-dashoffset: 0; stroke: #808080; stroke-width: 0.5"/>
     </g>
     <g id="text_7">
      <!-- 2010 -->
      <g style="fill: #262626" transform="translate(656.501828 372.056562) scale(0.08 -0.08)">
       <use xlink:href="#DejaVuSans-32"/>
       <use xlink:href="#DejaVuSans-30" transform="translate(63.623047 0)"/>
       <use xlink:href="#DejaVuSans-31" transform="translate(127.246094 0)"/>
       <use xlink:href="#DejaVuSans-30" transform="translate(190.869141 0)"/>
      </g>
     </g>
    </g>
   </g>
   <g id="matplotlib.axis_2">
    <g id="ytick_1">
     <g id="line2d_8">
      <path d="M 37.06 341.24031 
L 706.66 341.24031 
" clip-path="url(#p78679e822a)" style="fill: none; stroke-dasharray: 1.85,0.8; stroke-dashoffset: 0; stroke: #808080; stroke-width: 0.5"/>
     </g>
     <g id="text_8">
      <!-- 0 -->
      <g style="fill: #262626" transform="translate(22.47 344.279685) scale(0.08 -0.08)">
       <use xlink:href="#DejaVuSans-30"/>
      </g>
     </g>
    </g>
    <g id="ytick_2">
     <g id="line2d_9">
      <path d="M 37.06 293.207144 
L 706.66 293.207144 
" clip-path="url(#p78679e822a)" style="fill: none; stroke-dasharray: 1.85,0.8; stroke-dashoffset: 0; stroke: #808080; stroke-width: 0.5"/>
     </g>
     <g id="text_9">
      <!-- 1000 -->
      <g style="fill: #262626" transform="translate(7.2 296.246519) scale(0.08 -0.08)">
       <use xlink:href="#DejaVuSans-31"/>
       <use xlink:href="#DejaVuSans-30" transform="translate(63.623047 0)"/>
       <use xlink:href="#DejaVuSans-30" transform="translate(127.246094 0)"/>
       <use xlink:href="#DejaVuSans-30" transform="translate(190.869141 0)"/>
      </g>
     </g>
    </g>
    <g id="ytick_3">
     <g id="line2d_10">
      <path d="M 37.06 245.173979 
L 706.66 245.173979 
" clip-path="url(#p78679e822a)" style="fill: none; stroke-dasharray: 1.85,0.8; stroke-dashoffset: 0; stroke: #808080; stroke-width: 0.5"/>
     </g>
     <g id="text_10">
      <!-- 2000 -->
      <g style="fill: #262626" transform="translate(7.2 248.213354) scale(0.08 -0.08)">
       <use xlink:href="#DejaVuSans-32"/>
       <use xlink:href="#DejaVuSans-30" transform="translate(63.623047 0)"/>
       <use xlink:href="#DejaVuSans-30" transform="translate(127.246094 0)"/>
       <use xlink:href="#DejaVuSans-30" transform="translate(190.869141 0)"/>
      </g>
     </g>
    </g>
    <g id="ytick_4">
     <g id="line2d_11">
      <path d="M 37.06 197.140813 
L 706.66 197.140813 
" clip-path="url(#p78679e822a)" style="fill: none; stroke-dasharray: 1.85,0.8; stroke-dashoffset: 0; stroke: #808080; stroke-width: 0.5"/>
     </g>
     <g id="text_11">
      <!-- 3000 -->
      <g style="fill: #262626" transform="translate(7.2 200.180188) scale(0.08 -0.08)">
       <defs>
        <path id="DejaVuSans-33" d="M 2597 2516 
Q 3050 2419 3304 2112 
Q 3559 1806 3559 1356 
Q 3559 666 3084 287 
Q 2609 -91 1734 -91 
Q 1441 -91 1130 -33 
Q 819 25 488 141 
L 488 750 
Q 750 597 1062 519 
Q 1375 441 1716 441 
Q 2309 441 2620 675 
Q 2931 909 2931 1356 
Q 2931 1769 2642 2001 
Q 2353 2234 1838 2234 
L 1294 2234 
L 1294 2753 
L 1863 2753 
Q 2328 2753 2575 2939 
Q 2822 3125 2822 3475 
Q 2822 3834 2567 4026 
Q 2313 4219 1838 4219 
Q 1578 4219 1281 4162 
Q 984 4106 628 3988 
L 628 4550 
Q 988 4650 1302 4700 
Q 1616 4750 1894 4750 
Q 2613 4750 3031 4423 
Q 3450 4097 3450 3541 
Q 3450 3153 3228 2886 
Q 3006 2619 2597 2516 
z
" transform="scale(0.015625)"/>
       </defs>
       <use xlink:href="#DejaVuSans-33"/>
       <use xlink:href="#DejaVuSans-30" transform="translate(63.623047 0)"/>
       <use xlink:href="#DejaVuSans-30" transform="translate(127.246094 0)"/>
       <use xlink:href="#DejaVuSans-30" transform="translate(190.869141 0)"/>
      </g>
     </g>
    </g>
    <g id="ytick_5">
     <g id="line2d_12">
      <path d="M 37.06 149.107647 
L 706.66 149.107647 
" clip-path="url(#p78679e822a)" style="fill: none; stroke-dasharray: 1.85,0.8; stroke-dashoffset: 0; stroke: #808080; stroke-width: 0.5"/>
     </g>
     <g id="text_12">
      <!-- 4000 -->
      <g style="fill: #262626" transform="translate(7.2 152.147022) scale(0.08 -0.08)">
       <defs>
        <path id="DejaVuSans-34" d="M 2419 4116 
L 825 1625 
L 2419 1625 
L 2419 4116 
z
M 2253 4666 
L 3047 4666 
L 3047 1625 
L 3713 1625 
L 3713 1100 
L 3047 1100 
L 3047 0 
L 2419 0 
L 2419 1100 
L 313 1100 
L 313 1709 
L 2253 4666 
z
" transform="scale(0.015625)"/>
       </defs>
       <use xlink:href="#DejaVuSans-34"/>
       <use xlink:href="#DejaVuSans-30" transform="translate(63.623047 0)"/>
       <use xlink:href="#DejaVuSans-30" transform="translate(127.246094 0)"/>
       <use xlink:href="#DejaVuSans-30" transform="translate(190.869141 0)"/>
      </g>
     </g>
    </g>
    <g id="ytick_6">
     <g id="line2d_13">
      <path d="M 37.06 101.074481 
L 706.66 101.074481 
" clip-path="url(#p78679e822a)" style="fill: none; stroke-dasharray: 1.85,0.8; stroke-dashoffset: 0; stroke: #808080; stroke-width: 0.5"/>
     </g>
     <g id="text_13">
      <!-- 5000 -->
      <g style="fill: #262626" transform="translate(7.2 104.113856) scale(0.08 -0.08)">
       <use xlink:href="#DejaVuSans-35"/>
       <use xlink:href="#DejaVuSans-30" transform="translate(63.623047 0)"/>
       <use xlink:href="#DejaVuSans-30" transform="translate(127.246094 0)"/>
       <use xlink:href="#DejaVuSans-30" transform="translate(190.869141 0)"/>
      </g>
     </g>
    </g>
    <g id="ytick_7">
     <g id="line2d_14">
      <path d="M 37.06 53.041316 
L 706.66 53.041316 
" clip-path="url(#p78679e822a)" style="fill: none; stroke-dasharray: 1.85,0.8; stroke-dashoffset: 0; stroke: #808080; stroke-width: 0.5"/>
     </g>
     <g id="text_14">
      <!-- 6000 -->
      <g style="fill: #262626" transform="translate(7.2 56.080691) scale(0.08 -0.08)">
       <use xlink:href="#DejaVuSans-36"/>
       <use xlink:href="#DejaVuSans-30" transform="translate(63.623047 0)"/>
       <use xlink:href="#DejaVuSans-30" transform="translate(127.246094 0)"/>
       <use xlink:href="#DejaVuSans-30" transform="translate(190.869141 0)"/>
      </g>
     </g>
    </g>
   </g>
   <g id="FillBetweenPolyCollection_1">
    <defs>
     <path id="m2bc9625ee5" d="M 666.653174 -60.660586 
L 666.653174 -39.572562 
L 667.54145 -39.5625 
L 668.343764 -39.599114 
L 669.232041 -39.733261 
L 670.091663 -40.904566 
L 670.97994 -44.784742 
L 671.839562 -49.381179 
L 672.727839 -49.46915 
L 673.616115 -44.98627 
L 674.475737 -41.043683 
L 675.364014 -39.760591 
L 676.223636 -39.603763 
L 676.223636 -79.252669 
L 676.223636 -79.252669 
L 675.364014 -115.053559 
L 674.475737 -184.106386 
L 673.616115 -275.685485 
L 672.727839 -341.9625 
L 671.839562 -333.72834 
L 670.97994 -257.38812 
L 670.091663 -166.645119 
L 669.232041 -103.092276 
L 668.343764 -71.670947 
L 667.54145 -60.631618 
L 666.653174 -60.660586 
z
" style="stroke: #b9445f; stroke-opacity: 0.2"/>
    </defs>
    <g clip-path="url(#p78679e822a)">
     <use xlink:href="#m2bc9625ee5" x="0" y="380.920312" style="fill: #b9445f; fill-opacity: 0.2; stroke: #b9445f; stroke-opacity: 0.2"/>
    </g>
   </g>
   <g id="line2d_15">
    <path d="M 67.496364 332.882539 
L 68.38464 312.804676 
L 69.244263 341.24031 
L 72.711406 338.982751 
L 73.571029 334.659766 
L 74.459305 259.247696 
L 75.318927 295.560769 
L 76.207204 286.002169 
L 77.09548 256.509806 
L 77.955103 267.6535 
L 78.843379 324.236569 
L 79.703002 341.24031 
L 81.479555 334.755832 
L 82.281869 339.126851 
L 83.170145 326.109863 
L 84.918044 200.455101 
L 85.777667 249.352864 
L 86.665943 259.391796 
L 87.55422 242.532154 
L 88.413842 270.247291 
L 89.302118 319.577352 
L 90.161741 341.24031 
L 91.050017 340.759978 
L 91.938294 341.24031 
L 92.740608 341.24031 
L 93.628884 336.148794 
L 94.488507 293.59141 
L 95.376783 268.950396 
L 96.236406 213.32799 
L 97.124682 176.102286 
L 98.012959 169.041411 
L 98.872581 304.446905 
L 99.760858 330.528914 
L 100.62048 329.039886 
L 101.508756 315.734699 
L 102.397033 338.598486 
L 103.228001 341.24031 
L 104.116278 291.766149 
L 104.9759 258.142933 
L 105.864177 228.458437 
L 106.723799 279.998024 
L 107.612075 251.850589 
L 108.500352 263.474615 
L 109.359974 320.15375 
L 110.248251 339.607182 
L 111.107873 341.24031 
L 111.99615 341.24031 
L 112.884426 323.516072 
L 113.68674 341.000144 
L 114.575017 305.167402 
L 115.434639 328.463488 
L 116.322916 268.998429 
L 117.182538 284.705274 
L 118.070815 291.333851 
L 118.959091 237.392606 
L 119.818713 306.224132 
L 120.70699 341.24031 
L 121.566612 341.24031 
L 122.454889 295.608802 
L 124.14548 341.24031 
L 125.033756 336.773225 
L 125.893378 328.65562 
L 126.781655 285.281672 
L 127.641277 277.884564 
L 128.529554 242.340022 
L 129.41783 179.320508 
L 130.277453 274.570276 
L 131.165729 270.007125 
L 132.025352 325.0051 
L 132.913628 335.620429 
L 133.801904 339.799315 
L 134.604219 341.24031 
L 135.492495 303.198043 
L 136.352118 305.7438 
L 137.240394 201.463798 
L 138.100016 274.762409 
L 138.988293 220.436898 
L 139.876569 292.582713 
L 140.736192 283.360345 
L 141.624468 341.24031 
L 142.484091 341.24031 
L 143.372367 338.886685 
L 144.260644 341.24031 
L 145.091612 340.375713 
L 145.979888 335.188131 
L 146.839511 326.253962 
L 147.727787 291.381884 
L 148.58741 231.532559 
L 149.475686 255.260943 
L 150.363963 254.876678 
L 152.111861 333.410904 
L 152.971484 340.231613 
L 153.85976 335.236164 
L 154.748037 341.24031 
L 155.550351 336.869292 
L 156.438628 337.109458 
L 157.29825 326.253962 
L 158.186526 276.683735 
L 159.046149 259.055563 
L 159.934425 303.101976 
L 160.822702 249.44893 
L 161.682324 310.835316 
L 162.570601 315.590599 
L 163.430223 336.004695 
L 164.3185 341.24031 
L 166.00909 341.24031 
L 166.897367 306.416265 
L 167.756989 289.988922 
L 168.645266 267.893666 
L 169.504888 312.900742 
L 170.393164 279.373592 
L 171.281441 270.151225 
L 172.141063 290.661386 
L 173.02934 317.079628 
L 173.888962 336.100761 
L 174.777239 341.24031 
L 175.665515 341.24031 
L 176.467829 336.917325 
L 177.356106 338.598486 
L 178.215728 304.591004 
L 179.104005 253.723882 
L 179.963627 218.995903 
L 180.851904 240.418695 
L 181.74018 289.700723 
L 182.599802 268.518097 
L 183.488079 335.140098 
L 184.347701 341.24031 
L 185.235978 339.41505 
L 186.124254 341.24031 
L 186.955223 335.860595 
L 187.843499 325.869697 
L 188.703121 261.841487 
L 189.591398 231.868792 
L 190.45102 285.762003 
L 191.339297 240.274596 
L 192.227573 234.174384 
L 193.087196 332.786473 
L 193.975472 329.472184 
L 194.835095 341.09621 
L 195.723371 333.170738 
L 197.413962 338.694552 
L 198.302238 325.965763 
L 199.161861 289.124325 
L 200.050137 296.473399 
L 200.90976 275.963238 
L 201.798036 172.115534 
L 202.686312 277.548332 
L 203.545935 287.875463 
L 204.434211 319.145054 
L 205.293834 334.179434 
L 206.18211 339.655215 
L 207.070387 336.485026 
L 211.368499 251.41829 
L 212.256775 248.920565 
L 213.145052 271.640253 
L 214.004674 326.06183 
L 214.89295 340.135547 
L 215.752573 340.759978 
L 216.640849 316.070931 
L 217.529126 341.24031 
L 218.33144 336.340927 
L 219.219717 315.254367 
L 220.079339 316.070931 
L 220.967615 226.489077 
L 221.827238 331.873843 
L 222.715514 257.758668 
L 223.603791 278.749161 
L 224.463413 275.098641 
L 225.35169 339.174884 
L 226.211312 340.519812 
L 227.099589 340.135547 
L 227.987865 335.47633 
L 228.818833 340.231613 
L 229.70711 309.442354 
L 230.566732 307.569061 
L 231.455009 216.97851 
L 232.314631 300.027854 
L 233.202908 308.145459 
L 234.091184 311.075482 
L 234.950806 283.88871 
L 235.839083 338.646519 
L 236.698705 333.65107 
L 237.586982 333.314838 
L 238.475258 341.24031 
L 239.277572 324.524768 
L 240.165849 336.100761 
L 241.025471 312.756643 
L 241.913748 311.075482 
L 242.77337 267.941699 
L 243.661647 116.733293 
L 244.549923 221.877893 
L 245.409546 309.106122 
L 246.297822 341.24031 
L 247.157444 322.795574 
L 248.045721 341.24031 
L 248.933997 341.09621 
L 249.736312 341.24031 
L 250.624588 341.09621 
L 251.48421 324.140503 
L 252.372487 224.56775 
L 253.232109 247.335471 
L 254.120386 282.159516 
L 255.008662 238.689501 
L 255.868285 316.647329 
L 256.756561 335.764529 
L 257.616184 341.24031 
L 259.392737 341.24031 
L 260.195051 336.292894 
L 261.083327 334.611733 
L 261.94295 321.642778 
L 262.831226 258.479165 
L 263.690848 295.032404 
L 264.579125 250.601726 
L 265.467401 196.324249 
L 266.327024 282.880014 
L 267.2153 338.550453 
L 268.074923 334.899932 
L 268.963199 338.310287 
L 269.851476 341.24031 
L 270.682444 330.865146 
L 271.57072 326.926426 
L 272.430343 288.980226 
L 273.318619 181.914299 
L 274.178242 221.589694 
L 275.066518 293.207144 
L 275.954795 211.694862 
L 276.814417 304.350839 
L 277.702694 329.376118 
L 278.562316 338.070121 
L 279.450592 341.24031 
L 280.338869 337.926021 
L 281.141183 341.24031 
L 282.02946 327.935123 
L 282.889082 302.333446 
L 283.777358 234.846848 
L 284.636981 205.786783 
L 285.525257 266.933003 
L 286.413534 251.130091 
L 287.273156 284.705274 
L 288.161433 340.759978 
L 289.021055 340.279647 
L 289.909332 340.471779 
L 290.797608 341.24031 
L 291.599922 336.725192 
L 292.488199 327.646924 
L 293.347821 314.485837 
L 294.236098 246.903172 
L 295.09572 256.942104 
L 295.983997 320.489982 
L 296.872273 254.492413 
L 297.731895 333.747136 
L 298.620172 339.895381 
L 299.479794 341.24031 
L 300.368071 339.751282 
L 301.256347 341.24031 
L 302.946938 341.24031 
L 304.694837 241.523458 
L 305.554459 214.768985 
L 306.442736 298.106527 
L 307.331012 253.195517 
L 308.190635 289.364491 
L 309.078911 336.725192 
L 309.938533 341.24031 
L 310.82681 341.24031 
L 311.715086 338.886685 
L 312.546055 341.000144 
L 313.434331 329.904483 
L 314.293954 306.080033 
L 315.18223 270.679589 
L 316.041852 207.467943 
L 316.930129 287.587264 
L 317.818405 301.516882 
L 318.678028 262.610018 
L 319.566304 324.524768 
L 320.425927 340.711945 
L 321.314203 334.515667 
L 322.20248 337.637822 
L 323.004794 331.345478 
L 323.89307 337.44569 
L 325.640969 177.543281 
L 326.500592 313.813372 
L 328.277145 229.371067 
L 329.136767 321.306546 
L 330.025043 335.716496 
L 330.884666 338.646519 
L 331.772942 338.166187 
L 332.661219 338.646519 
L 333.463533 320.441949 
L 334.351809 335.860595 
L 335.211432 324.812967 
L 336.099708 198.533775 
L 336.959331 307.665127 
L 337.847607 300.700318 
L 338.735884 192.817828 
L 339.595506 325.725597 
L 340.483783 338.262254 
L 341.343405 341.24031 
L 342.231681 341.24031 
L 343.119958 332.59434 
L 343.922272 341.09621 
L 344.810549 326.253962 
L 345.670171 300.700318 
L 346.558447 312.516477 
L 347.41807 266.788903 
L 348.306346 285.233639 
L 349.194623 252.859285 
L 350.054245 334.371567 
L 350.942522 338.070121 
L 351.802144 337.781922 
L 352.690421 315.974865 
L 353.578697 341.24031 
L 354.409665 341.24031 
L 355.297942 334.851899 
L 356.157564 302.86181 
L 357.045841 290.421221 
L 357.905463 258.719331 
L 358.79374 239.506065 
L 359.682016 273.465513 
L 360.541638 325.389365 
L 361.429915 318.520622 
L 362.289537 341.000144 
L 363.177814 330.384814 
L 364.06609 329.280052 
L 364.868405 323.227873 
L 365.756681 321.930977 
L 366.616303 303.678374 
L 367.50458 166.015321 
L 368.364202 223.847253 
L 369.252479 269.574827 
L 370.140755 298.971124 
L 371.000378 322.507375 
L 371.888654 340.759978 
L 372.748276 340.519812 
L 373.636553 341.24031 
L 374.524829 330.144649 
L 375.327144 338.454386 
L 376.21542 329.71235 
L 377.075043 275.963238 
L 377.963319 299.931787 
L 378.822941 303.150009 
L 379.711218 280.910654 
L 380.599494 319.865551 
L 381.459117 293.159111 
L 382.347393 340.952111 
L 383.207016 341.24031 
L 384.095292 336.869292 
L 384.983569 321.882944 
L 385.785883 333.026639 
L 386.674159 341.24031 
L 387.533782 336.004695 
L 388.422058 269.526793 
L 390.169957 292.486647 
L 391.058234 229.659266 
L 391.917856 316.599296 
L 392.806132 333.218771 
L 393.665755 334.659766 
L 394.554031 327.935123 
L 395.442308 336.196827 
L 396.273276 334.275501 
L 397.161553 341.24031 
L 398.021175 298.058494 
L 398.909451 233.165687 
L 399.769074 267.413334 
L 400.65735 254.444379 
L 401.545627 188.494843 
L 402.405249 319.048987 
L 403.293526 341.24031 
L 404.153148 341.24031 
L 405.041424 341.09621 
L 405.929701 338.21422 
L 406.732015 336.052728 
L 408.479914 301.997213 
L 409.368191 241.283292 
L 410.227813 255.981441 
L 411.116089 295.800935 
L 412.004366 247.191371 
L 412.863988 328.703654 
L 413.752265 333.074672 
L 414.611887 340.519812 
L 415.500164 341.24031 
L 416.38844 335.140098 
L 417.190754 341.24031 
L 418.079031 309.730553 
L 418.938653 299.547522 
L 419.82693 245.846443 
L 420.686552 259.295729 
L 421.574829 308.049392 
L 422.463105 294.071741 
L 425.070626 341.000144 
L 425.958903 341.24031 
L 426.847179 341.24031 
L 427.649494 325.533465 
L 428.53777 325.677564 
L 429.397392 317.607992 
L 430.285669 210.397967 
L 431.145291 268.422031 
L 432.033568 311.411714 
L 432.921844 286.482501 
L 433.781467 340.615879 
L 434.669743 340.856045 
L 435.529365 341.24031 
L 436.417642 341.24031 
L 437.305918 333.314838 
L 439.025163 341.24031 
L 439.884786 322.651475 
L 440.773062 246.230708 
L 441.632684 287.395131 
L 442.520961 229.323034 
L 443.409237 263.042316 
L 444.26886 337.685856 
L 445.157136 341.24031 
L 446.905035 341.24031 
L 447.793312 340.615879 
L 448.595626 338.886685 
L 449.483902 336.485026 
L 450.343525 299.115224 
L 451.231801 266.500704 
L 452.091424 308.049392 
L 452.9797 190.752402 
L 453.867977 292.198448 
L 454.727599 295.945035 
L 455.615875 340.759978 
L 456.475498 339.27095 
L 457.363774 341.000144 
L 458.252051 334.131401 
L 459.054365 339.895381 
L 459.942642 324.476735 
L 460.802264 285.521838 
L 461.69054 239.409999 
L 462.550163 228.554503 
L 463.438439 305.311502 
L 464.326716 258.623265 
L 465.186338 292.966978 
L 466.074615 339.895381 
L 466.934237 341.24031 
L 469.513104 341.24031 
L 470.401381 334.275501 
L 471.261003 297.289963 
L 472.14928 217.506875 
L 473.008902 263.042316 
L 473.897178 293.255177 
L 474.785455 250.457627 
L 475.645077 279.18146 
L 476.533354 331.105312 
L 477.392976 341.24031 
L 478.281253 296.281267 
L 479.169529 333.362871 
L 480.000497 336.869292 
L 480.888774 329.904483 
L 481.748396 274.186011 
L 482.636673 297.818328 
L 483.496295 207.179744 
L 484.384572 229.611233 
L 485.272848 261.937553 
L 486.132471 281.102786 
L 487.020747 313.429107 
L 487.880369 339.895381 
L 488.768646 341.24031 
L 489.656922 339.991448 
L 490.459237 339.895381 
L 491.347513 333.795169 
L 492.207135 337.30159 
L 493.095412 226.296944 
L 493.955034 267.509401 
L 494.843311 291.670083 
L 495.731587 222.790523 
L 496.59121 325.725597 
L 497.479486 332.73844 
L 498.339109 341.24031 
L 499.227385 335.956662 
L 500.115661 341.24031 
L 500.917976 341.24031 
L 501.806252 333.987302 
L 503.554151 237.104407 
L 504.413773 284.128876 
L 505.30205 237.056374 
L 506.190326 270.39139 
L 507.049949 281.823284 
L 507.938225 339.126851 
L 508.797848 341.24031 
L 509.686124 327.214625 
L 510.574401 340.519812 
L 511.376715 329.376118 
L 512.264991 332.786473 
L 513.124614 229.659266 
L 514.01289 264.051013 
L 514.872513 262.898217 
L 515.760789 160.347408 
L 516.649066 266.692837 
L 519.256587 318.280457 
L 520.144863 341.24031 
L 521.864108 341.24031 
L 522.752385 328.127256 
L 523.612007 313.381074 
L 524.500283 251.658456 
L 525.359906 277.788498 
L 526.248182 222.88659 
L 527.136459 260.256393 
L 527.996081 310.354984 
L 528.884358 341.24031 
L 529.74398 337.061424 
L 530.632257 341.24031 
L 531.520533 341.09621 
L 532.322847 315.3024 
L 533.211124 309.82662 
L 534.070746 291.718116 
L 534.959023 279.469659 
L 535.818645 279.18146 
L 536.706921 263.282482 
L 537.595198 236.479976 
L 538.45482 282.495748 
L 539.343097 336.38896 
L 540.202719 334.4196 
L 541.090996 341.24031 
L 541.979272 340.615879 
L 542.781586 341.24031 
L 543.669863 339.655215 
L 544.529485 336.244861 
L 545.417762 288.692027 
L 546.277384 296.281267 
L 547.165661 243.108552 
L 548.053937 174.228993 
L 548.91356 293.159111 
L 549.801836 328.223322 
L 550.661458 341.24031 
L 551.549735 341.24031 
L 552.438011 340.856045 
L 553.240326 340.231613 
L 554.128602 328.271355 
L 554.988224 296.617499 
L 555.876501 277.164067 
L 556.736123 234.510616 
L 557.6244 239.025733 
L 558.512676 285.810037 
L 559.372299 287.635297 
L 560.260575 339.655215 
L 561.120198 341.24031 
L 562.008474 341.24031 
L 562.89675 340.135547 
L 563.727719 340.759978 
L 564.615995 326.686261 
L 565.475618 280.334256 
L 566.363894 258.142933 
L 567.223517 289.844823 
L 568.111793 293.879608 
L 569.000069 176.438518 
L 569.859692 320.105717 
L 570.747968 339.126851 
L 571.607591 340.135547 
L 572.495867 339.655215 
L 573.384144 340.856045 
L 574.186458 335.140098 
L 575.074734 312.948775 
L 575.934357 307.472994 
L 576.822633 252.282887 
L 577.682256 260.016227 
L 578.570532 287.731363 
L 579.458809 211.406663 
L 580.318431 330.961212 
L 581.206708 339.895381 
L 582.06633 339.655215 
L 582.954606 328.79972 
L 583.842883 333.074672 
L 584.645197 334.179434 
L 585.533474 331.057279 
L 586.393096 319.24112 
L 587.281372 248.200068 
L 588.140995 298.106527 
L 589.029271 313.62124 
L 589.917548 248.007935 
L 590.77717 306.80053 
L 592.525069 341.24031 
L 594.301622 341.24031 
L 595.103936 339.607182 
L 595.992213 337.44569 
L 596.851835 312.516477 
L 597.740112 174.517192 
L 598.599734 319.433253 
L 599.48801 228.698603 
L 600.376287 256.029474 
L 601.235909 252.090754 
L 602.124186 327.214625 
L 602.983808 341.24031 
L 603.872085 329.039886 
L 604.760361 340.759978 
L 605.591329 336.244861 
L 606.479606 321.738845 
L 607.339228 282.639848 
L 608.227505 253.051418 
L 609.087127 255.645209 
L 609.975404 285.185606 
L 610.86368 202.85676 
L 611.723303 307.088729 
L 612.611579 341.000144 
L 613.471201 341.24031 
L 615.247754 341.24031 
L 616.050069 330.673013 
L 616.938345 331.441544 
L 617.797968 300.508185 
L 618.686244 306.080033 
L 619.545866 275.963238 
L 620.434143 270.631556 
L 621.322419 317.607992 
L 622.182042 321.594745 
L 623.070318 333.65107 
L 623.929941 341.24031 
L 624.818217 340.856045 
L 625.706494 341.24031 
L 626.508808 333.795169 
L 630.004606 248.488267 
L 630.892882 261.505255 
L 631.781158 291.189751 
L 632.640781 305.455601 
L 633.529057 330.480881 
L 634.38868 340.856045 
L 635.276956 338.454386 
L 636.165233 324.716901 
L 636.967547 341.24031 
L 637.855823 322.171143 
L 638.715446 266.59677 
L 643.09952 320.345883 
L 643.987797 340.375713 
L 644.847419 341.24031 
L 645.735695 341.24031 
L 646.623972 339.511116 
L 647.45494 339.41505 
L 648.343217 332.162042 
L 649.202839 328.847753 
L 650.091116 208.33254 
L 650.950738 252.907318 
L 651.839014 289.892856 
L 652.727291 249.833196 
L 653.586913 318.280457 
L 654.47519 338.694552 
L 655.334812 341.24031 
L 657.111365 334.131401 
L 657.913679 340.856045 
L 658.801956 338.166187 
L 659.661578 320.29785 
L 660.549855 215.057184 
L 661.409477 294.552073 
L 662.297754 270.439424 
L 663.18603 189.407473 
L 664.045652 284.080843 
L 664.933929 333.795169 
L 665.793551 338.790618 
L 665.793551 338.790618 
" clip-path="url(#p78679e822a)" style="fill: none; stroke: #194a7a; stroke-width: 1.2; stroke-linecap: round"/>
   </g>
   <g id="line2d_16">
    <path d="M 666.653174 340.070091 
L 667.54145 340.213073 
L 668.343764 338.902512 
L 669.232041 333.445578 
L 670.091663 318.09438 
L 670.97994 291.121157 
L 671.839562 266.34171 
L 672.727839 264.683085 
L 673.616115 287.568728 
L 674.475737 315.07058 
L 675.364014 331.856401 
L 676.223636 338.269315 
" clip-path="url(#p78679e822a)" style="fill: none; stroke: #b60033; stroke-width: 1.2; stroke-linecap: round"/>
   </g>
   <g id="patch_3">
    <path d="M 37.06 356.477812 
L 37.06 23.837812 
" style="fill: none; stroke: #cccccc; stroke-width: 1.25; stroke-linejoin: miter; stroke-linecap: square"/>
   </g>
   <g id="patch_4">
    <path d="M 706.66 356.477812 
L 706.66 23.837812 
" style="fill: none; stroke: #cccccc; stroke-width: 1.25; stroke-linejoin: miter; stroke-linecap: square"/>
   </g>
   <g id="patch_5">
    <path d="M 37.06 356.477812 
L 706.66 356.477812 
" style="fill: none; stroke: #cccccc; stroke-width: 1.25; stroke-linejoin: miter; stroke-linecap: square"/>
   </g>
   <g id="patch_6">
    <path d="M 37.06 23.837812 
L 706.66 23.837812 
" style="fill: none; stroke: #cccccc; stroke-width: 1.25; stroke-linejoin: miter; stroke-linecap: square"/>
   </g>
   <g id="text_15">
    <!-- Pronóstico con SARIMAX -->
    <g style="fill: #262626" transform="translate(274.756875 17.837812) scale(0.14 -0.14)">
     <defs>
      <path id="DejaVuSans-Bold-50" d="M 588 4666 
L 2584 4666 
Q 3475 4666 3951 4270 
Q 4428 3875 4428 3144 
Q 4428 2409 3951 2014 
Q 3475 1619 2584 1619 
L 1791 1619 
L 1791 0 
L 588 0 
L 588 4666 
z
M 1791 3794 
L 1791 2491 
L 2456 2491 
Q 2806 2491 2997 2661 
Q 3188 2831 3188 3144 
Q 3188 3456 2997 3625 
Q 2806 3794 2456 3794 
L 1791 3794 
z
" transform="scale(0.015625)"/>
      <path id="DejaVuSans-Bold-72" d="M 3138 2547 
Q 2991 2616 2845 2648 
Q 2700 2681 2553 2681 
Q 2122 2681 1889 2404 
Q 1656 2128 1656 1613 
L 1656 0 
L 538 0 
L 538 3500 
L 1656 3500 
L 1656 2925 
Q 1872 3269 2151 3426 
Q 2431 3584 2822 3584 
Q 2878 3584 2943 3579 
Q 3009 3575 3134 3559 
L 3138 2547 
z
" transform="scale(0.015625)"/>
      <path id="DejaVuSans-Bold-6f" d="M 2203 2784 
Q 1831 2784 1636 2517 
Q 1441 2250 1441 1747 
Q 1441 1244 1636 976 
Q 1831 709 2203 709 
Q 2569 709 2762 976 
Q 2956 1244 2956 1747 
Q 2956 2250 2762 2517 
Q 2569 2784 2203 2784 
z
M 2203 3584 
Q 3106 3584 3614 3096 
Q 4122 2609 4122 1747 
Q 4122 884 3614 396 
Q 3106 -91 2203 -91 
Q 1297 -91 786 396 
Q 275 884 275 1747 
Q 275 2609 786 3096 
Q 1297 3584 2203 3584 
z
" transform="scale(0.015625)"/>
      <path id="DejaVuSans-Bold-6e" d="M 4056 2131 
L 4056 0 
L 2931 0 
L 2931 347 
L 2931 1631 
Q 2931 2084 2911 2256 
Q 2891 2428 2841 2509 
Q 2775 2619 2662 2680 
Q 2550 2741 2406 2741 
Q 2056 2741 1856 2470 
Q 1656 2200 1656 1722 
L 1656 0 
L 538 0 
L 538 3500 
L 1656 3500 
L 1656 2988 
Q 1909 3294 2193 3439 
Q 2478 3584 2822 3584 
Q 3428 3584 3742 3212 
Q 4056 2841 4056 2131 
z
" transform="scale(0.015625)"/>
      <path id="DejaVuSans-Bold-f3" d="M 2203 2784 
Q 1831 2784 1636 2517 
Q 1441 2250 1441 1747 
Q 1441 1244 1636 976 
Q 1831 709 2203 709 
Q 2569 709 2762 976 
Q 2956 1244 2956 1747 
Q 2956 2250 2762 2517 
Q 2569 2784 2203 2784 
z
M 2203 3584 
Q 3106 3584 3614 3096 
Q 4122 2609 4122 1747 
Q 4122 884 3614 396 
Q 3106 -91 2203 -91 
Q 1297 -91 786 396 
Q 275 884 275 1747 
Q 275 2609 786 3096 
Q 1297 3584 2203 3584 
z
M 2694 5119 
L 3578 5119 
L 2425 3944 
L 1813 3944 
L 2694 5119 
z
" transform="scale(0.015625)"/>
      <path id="DejaVuSans-Bold-73" d="M 3272 3391 
L 3272 2541 
Q 2913 2691 2578 2766 
Q 2244 2841 1947 2841 
Q 1628 2841 1473 2761 
Q 1319 2681 1319 2516 
Q 1319 2381 1436 2309 
Q 1553 2238 1856 2203 
L 2053 2175 
Q 2913 2066 3209 1816 
Q 3506 1566 3506 1031 
Q 3506 472 3093 190 
Q 2681 -91 1863 -91 
Q 1516 -91 1145 -36 
Q 775 19 384 128 
L 384 978 
Q 719 816 1070 734 
Q 1422 653 1784 653 
Q 2113 653 2278 743 
Q 2444 834 2444 1013 
Q 2444 1163 2330 1236 
Q 2216 1309 1875 1350 
L 1678 1375 
Q 931 1469 631 1722 
Q 331 1975 331 2491 
Q 331 3047 712 3315 
Q 1094 3584 1881 3584 
Q 2191 3584 2531 3537 
Q 2872 3491 3272 3391 
z
" transform="scale(0.015625)"/>
      <path id="DejaVuSans-Bold-74" d="M 1759 4494 
L 1759 3500 
L 2913 3500 
L 2913 2700 
L 1759 2700 
L 1759 1216 
Q 1759 972 1856 886 
Q 1953 800 2241 800 
L 2816 800 
L 2816 0 
L 1856 0 
Q 1194 0 917 276 
Q 641 553 641 1216 
L 641 2700 
L 84 2700 
L 84 3500 
L 641 3500 
L 641 4494 
L 1759 4494 
z
" transform="scale(0.015625)"/>
      <path id="DejaVuSans-Bold-69" d="M 538 3500 
L 1656 3500 
L 1656 0 
L 538 0 
L 538 3500 
z
M 538 4863 
L 1656 4863 
L 1656 3950 
L 538 3950 
L 538 4863 
z
" transform="scale(0.015625)"/>
      <path id="DejaVuSans-Bold-63" d="M 3366 3391 
L 3366 2478 
Q 3138 2634 2908 2709 
Q 2678 2784 2431 2784 
Q 1963 2784 1702 2511 
Q 1441 2238 1441 1747 
Q 1441 1256 1702 982 
Q 1963 709 2431 709 
Q 2694 709 2930 787 
Q 3166 866 3366 1019 
L 3366 103 
Q 3103 6 2833 -42 
Q 2563 -91 2291 -91 
Q 1344 -91 809 395 
Q 275 881 275 1747 
Q 275 2613 809 3098 
Q 1344 3584 2291 3584 
Q 2566 3584 2833 3536 
Q 3100 3488 3366 3391 
z
" transform="scale(0.015625)"/>
      <path id="DejaVuSans-Bold-20" transform="scale(0.015625)"/>
      <path id="DejaVuSans-Bold-53" d="M 3834 4519 
L 3834 3531 
Q 3450 3703 3084 3790 
Q 2719 3878 2394 3878 
Q 1963 3878 1756 3759 
Q 1550 3641 1550 3391 
Q 1550 3203 1689 3098 
Q 1828 2994 2194 2919 
L 2706 2816 
Q 3484 2659 3812 2340 
Q 4141 2022 4141 1434 
Q 4141 663 3683 286 
Q 3225 -91 2284 -91 
Q 1841 -91 1394 -6 
Q 947 78 500 244 
L 500 1259 
Q 947 1022 1364 901 
Q 1781 781 2169 781 
Q 2563 781 2772 912 
Q 2981 1044 2981 1288 
Q 2981 1506 2839 1625 
Q 2697 1744 2272 1838 
L 1806 1941 
Q 1106 2091 782 2419 
Q 459 2747 459 3303 
Q 459 4000 909 4375 
Q 1359 4750 2203 4750 
Q 2588 4750 2994 4692 
Q 3400 4634 3834 4519 
z
" transform="scale(0.015625)"/>
      <path id="DejaVuSans-Bold-41" d="M 3419 850 
L 1538 850 
L 1241 0 
L 31 0 
L 1759 4666 
L 3194 4666 
L 4922 0 
L 3713 0 
L 3419 850 
z
M 1838 1716 
L 3116 1716 
L 2478 3572 
L 1838 1716 
z
" transform="scale(0.015625)"/>
      <path id="DejaVuSans-Bold-52" d="M 2297 2597 
Q 2675 2597 2839 2737 
Q 3003 2878 3003 3200 
Q 3003 3519 2839 3656 
Q 2675 3794 2297 3794 
L 1791 3794 
L 1791 2597 
L 2297 2597 
z
M 1791 1766 
L 1791 0 
L 588 0 
L 588 4666 
L 2425 4666 
Q 3347 4666 3776 4356 
Q 4206 4047 4206 3378 
Q 4206 2916 3982 2619 
Q 3759 2322 3309 2181 
Q 3556 2125 3751 1926 
Q 3947 1728 4147 1325 
L 4800 0 
L 3519 0 
L 2950 1159 
Q 2778 1509 2601 1637 
Q 2425 1766 2131 1766 
L 1791 1766 
z
" transform="scale(0.015625)"/>
      <path id="DejaVuSans-Bold-49" d="M 588 4666 
L 1791 4666 
L 1791 0 
L 588 0 
L 588 4666 
z
" transform="scale(0.015625)"/>
      <path id="DejaVuSans-Bold-4d" d="M 588 4666 
L 2119 4666 
L 3181 2169 
L 4250 4666 
L 5778 4666 
L 5778 0 
L 4641 0 
L 4641 3413 
L 3566 897 
L 2803 897 
L 1728 3413 
L 1728 0 
L 588 0 
L 588 4666 
z
" transform="scale(0.015625)"/>
      <path id="DejaVuSans-Bold-58" d="M 3188 2381 
L 4806 0 
L 3553 0 
L 2463 1594 
L 1381 0 
L 122 0 
L 1741 2381 
L 184 4666 
L 1441 4666 
L 2463 3163 
L 3481 4666 
L 4744 4666 
L 3188 2381 
z
" transform="scale(0.015625)"/>
     </defs>
     <use xlink:href="#DejaVuSans-Bold-50"/>
     <use xlink:href="#DejaVuSans-Bold-72" transform="translate(73.291016 0)"/>
     <use xlink:href="#DejaVuSans-Bold-6f" transform="translate(122.607422 0)"/>
     <use xlink:href="#DejaVuSans-Bold-6e" transform="translate(191.308594 0)"/>
     <use xlink:href="#DejaVuSans-Bold-f3" transform="translate(262.5 0)"/>
     <use xlink:href="#DejaVuSans-Bold-73" transform="translate(331.201172 0)"/>
     <use xlink:href="#DejaVuSans-Bold-74" transform="translate(390.722656 0)"/>
     <use xlink:href="#DejaVuSans-Bold-69" transform="translate(438.525391 0)"/>
     <use xlink:href="#DejaVuSans-Bold-63" transform="translate(472.802734 0)"/>
     <use xlink:href="#DejaVuSans-Bold-6f" transform="translate(532.080078 0)"/>
     <use xlink:href="#DejaVuSans-Bold-20" transform="translate(600.78125 0)"/>
     <use xlink:href="#DejaVuSans-Bold-63" transform="translate(635.595703 0)"/>
     <use xlink:href="#DejaVuSans-Bold-6f" transform="translate(694.873047 0)"/>
     <use xlink:href="#DejaVuSans-Bold-6e" transform="translate(763.574219 0)"/>
     <use xlink:href="#DejaVuSans-Bold-20" transform="translate(834.765625 0)"/>
     <use xlink:href="#DejaVuSans-Bold-53" transform="translate(869.580078 0)"/>
     <use xlink:href="#DejaVuSans-Bold-41" transform="translate(941.601562 0)"/>
     <use xlink:href="#DejaVuSans-Bold-52" transform="translate(1018.994141 0)"/>
     <use xlink:href="#DejaVuSans-Bold-49" transform="translate(1095.996094 0)"/>
     <use xlink:href="#DejaVuSans-Bold-4d" transform="translate(1133.203125 0)"/>
     <use xlink:href="#DejaVuSans-Bold-41" transform="translate(1232.714844 0)"/>
     <use xlink:href="#DejaVuSans-Bold-58" transform="translate(1310.107422 0)"/>
    </g>
   </g>
   <g id="legend_1">
    <g id="patch_7">
     <path d="M 44.76 81.075625 
L 232.043594 81.075625 
Q 234.243594 81.075625 234.243594 78.875625 
L 234.243594 31.537812 
Q 234.243594 29.337812 232.043594 29.337812 
L 44.76 29.337812 
Q 42.56 29.337812 42.56 31.537812 
L 42.56 78.875625 
Q 42.56 81.075625 44.76 81.075625 
z
" style="fill: #ffffff; opacity: 0.8; stroke: #cccccc; stroke-linejoin: miter"/>
    </g>
    <g id="line2d_17">
     <path d="M 46.96 38.246094 
L 57.96 38.246094 
L 68.96 38.246094 
" style="fill: none; stroke: #194a7a; stroke-width: 1.2; stroke-linecap: round"/>
    </g>
    <g id="text_16">
     <!-- Observado -->
     <g style="fill: #262626" transform="translate(77.76 42.096094) scale(0.11 -0.11)">
      <defs>
       <path id="DejaVuSans-4f" d="M 2522 4238 
Q 1834 4238 1429 3725 
Q 1025 3213 1025 2328 
Q 1025 1447 1429 934 
Q 1834 422 2522 422 
Q 3209 422 3611 934 
Q 4013 1447 4013 2328 
Q 4013 3213 3611 3725 
Q 3209 4238 2522 4238 
z
M 2522 4750 
Q 3503 4750 4090 4092 
Q 4678 3434 4678 2328 
Q 4678 1225 4090 567 
Q 3503 -91 2522 -91 
Q 1538 -91 948 565 
Q 359 1222 359 2328 
Q 359 3434 948 4092 
Q 1538 4750 2522 4750 
z
" transform="scale(0.015625)"/>
       <path id="DejaVuSans-62" d="M 3116 1747 
Q 3116 2381 2855 2742 
Q 2594 3103 2138 3103 
Q 1681 3103 1420 2742 
Q 1159 2381 1159 1747 
Q 1159 1113 1420 752 
Q 1681 391 2138 391 
Q 2594 391 2855 752 
Q 3116 1113 3116 1747 
z
M 1159 2969 
Q 1341 3281 1617 3432 
Q 1894 3584 2278 3584 
Q 2916 3584 3314 3078 
Q 3713 2572 3713 1747 
Q 3713 922 3314 415 
Q 2916 -91 2278 -91 
Q 1894 -91 1617 61 
Q 1341 213 1159 525 
L 1159 0 
L 581 0 
L 581 4863 
L 1159 4863 
L 1159 2969 
z
" transform="scale(0.015625)"/>
       <path id="DejaVuSans-73" d="M 2834 3397 
L 2834 2853 
Q 2591 2978 2328 3040 
Q 2066 3103 1784 3103 
Q 1356 3103 1142 2972 
Q 928 2841 928 2578 
Q 928 2378 1081 2264 
Q 1234 2150 1697 2047 
L 1894 2003 
Q 2506 1872 2764 1633 
Q 3022 1394 3022 966 
Q 3022 478 2636 193 
Q 2250 -91 1575 -91 
Q 1294 -91 989 -36 
Q 684 19 347 128 
L 347 722 
Q 666 556 975 473 
Q 1284 391 1588 391 
Q 1994 391 2212 530 
Q 2431 669 2431 922 
Q 2431 1156 2273 1281 
Q 2116 1406 1581 1522 
L 1381 1569 
Q 847 1681 609 1914 
Q 372 2147 372 2553 
Q 372 3047 722 3315 
Q 1072 3584 1716 3584 
Q 2034 3584 2315 3537 
Q 2597 3491 2834 3397 
z
" transform="scale(0.015625)"/>
       <path id="DejaVuSans-65" d="M 3597 1894 
L 3597 1613 
L 953 1613 
Q 991 1019 1311 708 
Q 1631 397 2203 397 
Q 2534 397 2845 478 
Q 3156 559 3463 722 
L 3463 178 
Q 3153 47 2828 -22 
Q 2503 -91 2169 -91 
Q 1331 -91 842 396 
Q 353 884 353 1716 
Q 353 2575 817 3079 
Q 1281 3584 2069 3584 
Q 2775 3584 3186 3129 
Q 3597 2675 3597 1894 
z
M 3022 2063 
Q 3016 2534 2758 2815 
Q 2500 3097 2075 3097 
Q 1594 3097 1305 2825 
Q 1016 2553 972 2059 
L 3022 2063 
z
" transform="scale(0.015625)"/>
       <path id="DejaVuSans-72" d="M 2631 2963 
Q 2534 3019 2420 3045 
Q 2306 3072 2169 3072 
Q 1681 3072 1420 2755 
Q 1159 2438 1159 1844 
L 1159 0 
L 581 0 
L 581 3500 
L 1159 3500 
L 1159 2956 
Q 1341 3275 1631 3429 
Q 1922 3584 2338 3584 
Q 2397 3584 2469 3576 
Q 2541 3569 2628 3553 
L 2631 2963 
z
" transform="scale(0.015625)"/>
       <path id="DejaVuSans-76" d="M 191 3500 
L 800 3500 
L 1894 563 
L 2988 3500 
L 3597 3500 
L 2284 0 
L 1503 0 
L 191 3500 
z
" transform="scale(0.015625)"/>
       <path id="DejaVuSans-61" d="M 2194 1759 
Q 1497 1759 1228 1600 
Q 959 1441 959 1056 
Q 959 750 1161 570 
Q 1363 391 1709 391 
Q 2188 391 2477 730 
Q 2766 1069 2766 1631 
L 2766 1759 
L 2194 1759 
z
M 3341 1997 
L 3341 0 
L 2766 0 
L 2766 531 
Q 2569 213 2275 61 
Q 1981 -91 1556 -91 
Q 1019 -91 701 211 
Q 384 513 384 1019 
Q 384 1609 779 1909 
Q 1175 2209 1959 2209 
L 2766 2209 
L 2766 2266 
Q 2766 2663 2505 2880 
Q 2244 3097 1772 3097 
Q 1472 3097 1187 3025 
Q 903 2953 641 2809 
L 641 3341 
Q 956 3463 1253 3523 
Q 1550 3584 1831 3584 
Q 2591 3584 2966 3190 
Q 3341 2797 3341 1997 
z
" transform="scale(0.015625)"/>
       <path id="DejaVuSans-64" d="M 2906 2969 
L 2906 4863 
L 3481 4863 
L 3481 0 
L 2906 0 
L 2906 525 
Q 2725 213 2448 61 
Q 2172 -91 1784 -91 
Q 1150 -91 751 415 
Q 353 922 353 1747 
Q 353 2572 751 3078 
Q 1150 3584 1784 3584 
Q 2172 3584 2448 3432 
Q 2725 3281 2906 2969 
z
M 947 1747 
Q 947 1113 1208 752 
Q 1469 391 1925 391 
Q 2381 391 2643 752 
Q 2906 1113 2906 1747 
Q 2906 2381 2643 2742 
Q 2381 3103 1925 3103 
Q 1469 3103 1208 2742 
Q 947 2381 947 1747 
z
" transform="scale(0.015625)"/>
       <path id="DejaVuSans-6f" d="M 1959 3097 
Q 1497 3097 1228 2736 
Q 959 2375 959 1747 
Q 959 1119 1226 758 
Q 1494 397 1959 397 
Q 2419 397 2687 759 
Q 2956 1122 2956 1747 
Q 2956 2369 2687 2733 
Q 2419 3097 1959 3097 
z
M 1959 3584 
Q 2709 3584 3137 3096 
Q 3566 2609 3566 1747 
Q 3566 888 3137 398 
Q 2709 -91 1959 -91 
Q 1206 -91 779 398 
Q 353 888 353 1747 
Q 353 2609 779 3096 
Q 1206 3584 1959 3584 
z
" transform="scale(0.015625)"/>
      </defs>
      <use xlink:href="#DejaVuSans-4f"/>
      <use xlink:href="#DejaVuSans-62" transform="translate(78.710938 0)"/>
      <use xlink:href="#DejaVuSans-73" transform="translate(142.1875 0)"/>
      <use xlink:href="#DejaVuSans-65" transform="translate(194.287109 0)"/>
      <use xlink:href="#DejaVuSans-72" transform="translate(255.810547 0)"/>
      <use xlink:href="#DejaVuSans-76" transform="translate(296.923828 0)"/>
      <use xlink:href="#DejaVuSans-61" transform="translate(356.103516 0)"/>
      <use xlink:href="#DejaVuSans-64" transform="translate(417.382812 0)"/>
      <use xlink:href="#DejaVuSans-6f" transform="translate(480.859375 0)"/>
     </g>
    </g>
    <g id="line2d_18">
     <path d="M 46.96 54.392031 
L 57.96 54.392031 
L 68.96 54.392031 
" style="fill: none; stroke: #b60033; stroke-width: 1.2; stroke-linecap: round"/>
    </g>
    <g id="text_17">
     <!-- Pronóstico -->
     <g style="fill: #262626" transform="translate(77.76 58.242031) scale(0.11 -0.11)">
      <defs>
       <path id="DejaVuSans-50" d="M 1259 4147 
L 1259 2394 
L 2053 2394 
Q 2494 2394 2734 2622 
Q 2975 2850 2975 3272 
Q 2975 3691 2734 3919 
Q 2494 4147 2053 4147 
L 1259 4147 
z
M 628 4666 
L 2053 4666 
Q 2838 4666 3239 4311 
Q 3641 3956 3641 3272 
Q 3641 2581 3239 2228 
Q 2838 1875 2053 1875 
L 1259 1875 
L 1259 0 
L 628 0 
L 628 4666 
z
" transform="scale(0.015625)"/>
       <path id="DejaVuSans-6e" d="M 3513 2113 
L 3513 0 
L 2938 0 
L 2938 2094 
Q 2938 2591 2744 2837 
Q 2550 3084 2163 3084 
Q 1697 3084 1428 2787 
Q 1159 2491 1159 1978 
L 1159 0 
L 581 0 
L 581 3500 
L 1159 3500 
L 1159 2956 
Q 1366 3272 1645 3428 
Q 1925 3584 2291 3584 
Q 2894 3584 3203 3211 
Q 3513 2838 3513 2113 
z
" transform="scale(0.015625)"/>
       <path id="DejaVuSans-f3" d="M 1959 3097 
Q 1497 3097 1228 2736 
Q 959 2375 959 1747 
Q 959 1119 1226 758 
Q 1494 397 1959 397 
Q 2419 397 2687 759 
Q 2956 1122 2956 1747 
Q 2956 2369 2687 2733 
Q 2419 3097 1959 3097 
z
M 1959 3584 
Q 2709 3584 3137 3096 
Q 3566 2609 3566 1747 
Q 3566 888 3137 398 
Q 2709 -91 1959 -91 
Q 1206 -91 779 398 
Q 353 888 353 1747 
Q 353 2609 779 3096 
Q 1206 3584 1959 3584 
z
M 2394 5119 
L 3016 5119 
L 1998 3944 
L 1519 3944 
L 2394 5119 
z
" transform="scale(0.015625)"/>
       <path id="DejaVuSans-74" d="M 1172 4494 
L 1172 3500 
L 2356 3500 
L 2356 3053 
L 1172 3053 
L 1172 1153 
Q 1172 725 1289 603 
Q 1406 481 1766 481 
L 2356 481 
L 2356 0 
L 1766 0 
Q 1100 0 847 248 
Q 594 497 594 1153 
L 594 3053 
L 172 3053 
L 172 3500 
L 594 3500 
L 594 4494 
L 1172 4494 
z
" transform="scale(0.015625)"/>
       <path id="DejaVuSans-69" d="M 603 3500 
L 1178 3500 
L 1178 0 
L 603 0 
L 603 3500 
z
M 603 4863 
L 1178 4863 
L 1178 4134 
L 603 4134 
L 603 4863 
z
" transform="scale(0.015625)"/>
       <path id="DejaVuSans-63" d="M 3122 3366 
L 3122 2828 
Q 2878 2963 2633 3030 
Q 2388 3097 2138 3097 
Q 1578 3097 1268 2742 
Q 959 2388 959 1747 
Q 959 1106 1268 751 
Q 1578 397 2138 397 
Q 2388 397 2633 464 
Q 2878 531 3122 666 
L 3122 134 
Q 2881 22 2623 -34 
Q 2366 -91 2075 -91 
Q 1284 -91 818 406 
Q 353 903 353 1747 
Q 353 2603 823 3093 
Q 1294 3584 2113 3584 
Q 2378 3584 2631 3529 
Q 2884 3475 3122 3366 
z
" transform="scale(0.015625)"/>
      </defs>
      <use xlink:href="#DejaVuSans-50"/>
      <use xlink:href="#DejaVuSans-72" transform="translate(58.552734 0)"/>
      <use xlink:href="#DejaVuSans-6f" transform="translate(97.416016 0)"/>
      <use xlink:href="#DejaVuSans-6e" transform="translate(158.597656 0)"/>
      <use xlink:href="#DejaVuSans-f3" transform="translate(221.976562 0)"/>
      <use xlink:href="#DejaVuSans-73" transform="translate(283.158203 0)"/>
      <use xlink:href="#DejaVuSans-74" transform="translate(335.257812 0)"/>
      <use xlink:href="#DejaVuSans-69" transform="translate(374.466797 0)"/>
      <use xlink:href="#DejaVuSans-63" transform="translate(402.25 0)"/>
      <use xlink:href="#DejaVuSans-6f" transform="translate(457.230469 0)"/>
     </g>
    </g>
    <g id="patch_8">
     <path d="M 46.96 74.387969 
L 68.96 74.387969 
L 68.96 66.687969 
L 46.96 66.687969 
z
" style="fill: #b9445f; fill-opacity: 0.2; stroke: #b9445f; stroke-opacity: 0.2; stroke-linejoin: miter"/>
    </g>
    <g id="text_18">
     <!-- Intervalo de Confianza 95% -->
     <g style="fill: #262626" transform="translate(77.76 74.387969) scale(0.11 -0.11)">
      <defs>
       <path id="DejaVuSans-49" d="M 628 4666 
L 1259 4666 
L 1259 0 
L 628 0 
L 628 4666 
z
" transform="scale(0.015625)"/>
       <path id="DejaVuSans-6c" d="M 603 4863 
L 1178 4863 
L 1178 0 
L 603 0 
L 603 4863 
z
" transform="scale(0.015625)"/>
       <path id="DejaVuSans-20" transform="scale(0.015625)"/>
       <path id="DejaVuSans-43" d="M 4122 4306 
L 4122 3641 
Q 3803 3938 3442 4084 
Q 3081 4231 2675 4231 
Q 1875 4231 1450 3742 
Q 1025 3253 1025 2328 
Q 1025 1406 1450 917 
Q 1875 428 2675 428 
Q 3081 428 3442 575 
Q 3803 722 4122 1019 
L 4122 359 
Q 3791 134 3420 21 
Q 3050 -91 2638 -91 
Q 1578 -91 968 557 
Q 359 1206 359 2328 
Q 359 3453 968 4101 
Q 1578 4750 2638 4750 
Q 3056 4750 3426 4639 
Q 3797 4528 4122 4306 
z
" transform="scale(0.015625)"/>
       <path id="DejaVuSans-66" d="M 2375 4863 
L 2375 4384 
L 1825 4384 
Q 1516 4384 1395 4259 
Q 1275 4134 1275 3809 
L 1275 3500 
L 2222 3500 
L 2222 3053 
L 1275 3053 
L 1275 0 
L 697 0 
L 697 3053 
L 147 3053 
L 147 3500 
L 697 3500 
L 697 3744 
Q 697 4328 969 4595 
Q 1241 4863 1831 4863 
L 2375 4863 
z
" transform="scale(0.015625)"/>
       <path id="DejaVuSans-7a" d="M 353 3500 
L 3084 3500 
L 3084 2975 
L 922 459 
L 3084 459 
L 3084 0 
L 275 0 
L 275 525 
L 2438 3041 
L 353 3041 
L 353 3500 
z
" transform="scale(0.015625)"/>
       <path id="DejaVuSans-25" d="M 4653 2053 
Q 4381 2053 4226 1822 
Q 4072 1591 4072 1178 
Q 4072 772 4226 539 
Q 4381 306 4653 306 
Q 4919 306 5073 539 
Q 5228 772 5228 1178 
Q 5228 1588 5073 1820 
Q 4919 2053 4653 2053 
z
M 4653 2450 
Q 5147 2450 5437 2106 
Q 5728 1763 5728 1178 
Q 5728 594 5436 251 
Q 5144 -91 4653 -91 
Q 4153 -91 3862 251 
Q 3572 594 3572 1178 
Q 3572 1766 3864 2108 
Q 4156 2450 4653 2450 
z
M 1428 4353 
Q 1159 4353 1004 4120 
Q 850 3888 850 3481 
Q 850 3069 1003 2837 
Q 1156 2606 1428 2606 
Q 1700 2606 1854 2837 
Q 2009 3069 2009 3481 
Q 2009 3884 1853 4118 
Q 1697 4353 1428 4353 
z
M 4250 4750 
L 4750 4750 
L 1831 -91 
L 1331 -91 
L 4250 4750 
z
M 1428 4750 
Q 1922 4750 2215 4408 
Q 2509 4066 2509 3481 
Q 2509 2891 2217 2550 
Q 1925 2209 1428 2209 
Q 931 2209 642 2551 
Q 353 2894 353 3481 
Q 353 4063 643 4406 
Q 934 4750 1428 4750 
z
" transform="scale(0.015625)"/>
      </defs>
      <use xlink:href="#DejaVuSans-49"/>
      <use xlink:href="#DejaVuSans-6e" transform="translate(29.492188 0)"/>
      <use xlink:href="#DejaVuSans-74" transform="translate(92.871094 0)"/>
      <use xlink:href="#DejaVuSans-65" transform="translate(132.080078 0)"/>
      <use xlink:href="#DejaVuSans-72" transform="translate(193.603516 0)"/>
      <use xlink:href="#DejaVuSans-76" transform="translate(234.716797 0)"/>
      <use xlink:href="#DejaVuSans-61" transform="translate(293.896484 0)"/>
      <use xlink:href="#DejaVuSans-6c" transform="translate(355.175781 0)"/>
      <use xlink:href="#DejaVuSans-6f" transform="translate(382.958984 0)"/>
      <use xlink:href="#DejaVuSans-20" transform="translate(444.140625 0)"/>
      <use xlink:href="#DejaVuSans-64" transform="translate(475.927734 0)"/>
      <use xlink:href="#DejaVuSans-65" transform="translate(539.404297 0)"/>
      <use xlink:href="#DejaVuSans-20" transform="translate(600.927734 0)"/>
      <use xlink:href="#DejaVuSans-43" transform="translate(632.714844 0)"/>
      <use xlink:href="#DejaVuSans-6f" transform="translate(702.539062 0)"/>
      <use xlink:href="#DejaVuSans-6e" transform="translate(763.720703 0)"/>
      <use xlink:href="#DejaVuSans-66" transform="translate(827.099609 0)"/>
      <use xlink:href="#DejaVuSans-69" transform="translate(862.304688 0)"/>
      <use xlink:href="#DejaVuSans-61" transform="translate(890.087891 0)"/>
      <use xlink:href="#DejaVuSans-6e" transform="translate(951.367188 0)"/>
      <use xlink:href="#DejaVuSans-7a" transform="translate(1014.746094 0)"/>
      <use xlink:href="#DejaVuSans-61" transform="translate(1067.236328 0)"/>
      <use xlink:href="#DejaVuSans-20" transform="translate(1128.515625 0)"/>
      <use xlink:href="#DejaVuSans-39" transform="translate(1160.302734 0)"/>
      <use xlink:href="#DejaVuSans-35" transform="translate(1223.925781 0)"/>
      <use xlink:href="#DejaVuSans-25" transform="translate(1287.548828 0)"/>
     </g>
    </g>
   </g>
  </g>
 </g>
 <defs>
  <clipPath id="p78679e822a">
   <rect x="37.06" y="23.837812" width="669.6" height="332.64"/>
  </clipPath>
 </defs>
</svg>
