<?xml version="1.0" encoding="utf-8" standalone="no"?>
<!DOCTYPE svg PUBLIC "-//W3C//DTD SVG 1.1//EN"
  "http://www.w3.org/Graphics/SVG/1.1/DTD/svg11.dtd">
<svg xmlns:xlink="http://www.w3.org/1999/xlink" width="606.368125pt" height="381.189219pt" viewBox="0 0 606.368125 381.189219" xmlns="http://www.w3.org/2000/svg" version="1.1">
 <metadata>
  <rdf:RDF xmlns:dc="http://purl.org/dc/elements/1.1/" xmlns:cc="http://creativecommons.org/ns#" xmlns:rdf="http://www.w3.org/1999/02/22-rdf-syntax-ns#">
   <cc:Work>
    <dc:type rdf:resource="http://purl.org/dc/dcmitype/StillImage"/>
    <dc:date>2025-04-23T22:40:12.801061</dc:date>
    <dc:format>image/svg+xml</dc:format>
    <dc:creator>
     <cc:Agent>
      <dc:title>Matplotlib v3.8.4, https://matplotlib.org/</dc:title>
     </cc:Agent>
    </dc:creator>
   </cc:Work>
  </rdf:RDF>
 </metadata>
 <defs>
  <style type="text/css">*{stroke-linejoin: round; stroke-linecap: butt}</style>
 </defs>
 <g id="figure_1">
  <g id="patch_1">
   <path d="M 0 381.189219 
L 606.368125 381.189219 
L 606.368125 0 
L 0 0 
z
" style="fill: #ffffff"/>
  </g>
  <g id="axes_1">
   <g id="patch_2">
    <path d="M 41.168125 354.429375 
L 599.168125 354.429375 
L 599.168125 21.789375 
L 41.168125 21.789375 
z
" style="fill: #ffffff"/>
   </g>
   <g id="matplotlib.axis_1">
    <g id="xtick_1">
     <g id="line2d_1">
      <path d="M 42.557848 354.429375 
L 42.557848 21.789375 
" clip-path="url(#pec3500b142)" style="fill: none; stroke: #cccccc; stroke-linecap: round"/>
     </g>
     <g id="text_1">
      <!-- 1950 -->
      <g style="fill: #262626" transform="translate(30.323785 371.802969) scale(0.11 -0.11)">
       <defs>
        <path id="ArialMT-31" d="M 2384 0 
L 1822 0 
L 1822 3584 
Q 1619 3391 1289 3197 
Q 959 3003 697 2906 
L 697 3450 
Q 1169 3672 1522 3987 
Q 1875 4303 2022 4600 
L 2384 4600 
L 2384 0 
z
" transform="scale(0.015625)"/>
        <path id="ArialMT-39" d="M 350 1059 
L 891 1109 
Q 959 728 1153 556 
Q 1347 384 1650 384 
Q 1909 384 2104 503 
Q 2300 622 2425 820 
Q 2550 1019 2634 1356 
Q 2719 1694 2719 2044 
Q 2719 2081 2716 2156 
Q 2547 1888 2255 1720 
Q 1963 1553 1622 1553 
Q 1053 1553 659 1965 
Q 266 2378 266 3053 
Q 266 3750 677 4175 
Q 1088 4600 1706 4600 
Q 2153 4600 2523 4359 
Q 2894 4119 3086 3673 
Q 3278 3228 3278 2384 
Q 3278 1506 3087 986 
Q 2897 466 2520 194 
Q 2144 -78 1638 -78 
Q 1100 -78 759 220 
Q 419 519 350 1059 
z
M 2653 3081 
Q 2653 3566 2395 3850 
Q 2138 4134 1775 4134 
Q 1400 4134 1122 3828 
Q 844 3522 844 3034 
Q 844 2597 1108 2323 
Q 1372 2050 1759 2050 
Q 2150 2050 2401 2323 
Q 2653 2597 2653 3081 
z
" transform="scale(0.015625)"/>
        <path id="ArialMT-35" d="M 266 1200 
L 856 1250 
Q 922 819 1161 601 
Q 1400 384 1738 384 
Q 2144 384 2425 690 
Q 2706 997 2706 1503 
Q 2706 1984 2436 2262 
Q 2166 2541 1728 2541 
Q 1456 2541 1237 2417 
Q 1019 2294 894 2097 
L 366 2166 
L 809 4519 
L 3088 4519 
L 3088 3981 
L 1259 3981 
L 1013 2750 
Q 1425 3038 1878 3038 
Q 2478 3038 2890 2622 
Q 3303 2206 3303 1553 
Q 3303 931 2941 478 
Q 2500 -78 1738 -78 
Q 1113 -78 717 272 
Q 322 622 266 1200 
z
" transform="scale(0.015625)"/>
        <path id="ArialMT-30" d="M 266 2259 
Q 266 3072 433 3567 
Q 600 4063 929 4331 
Q 1259 4600 1759 4600 
Q 2128 4600 2406 4451 
Q 2684 4303 2865 4023 
Q 3047 3744 3150 3342 
Q 3253 2941 3253 2259 
Q 3253 1453 3087 958 
Q 2922 463 2592 192 
Q 2263 -78 1759 -78 
Q 1097 -78 719 397 
Q 266 969 266 2259 
z
M 844 2259 
Q 844 1131 1108 757 
Q 1372 384 1759 384 
Q 2147 384 2411 759 
Q 2675 1134 2675 2259 
Q 2675 3391 2411 3762 
Q 2147 4134 1753 4134 
Q 1366 4134 1134 3806 
Q 844 3388 844 2259 
z
" transform="scale(0.015625)"/>
       </defs>
       <use xlink:href="#ArialMT-31"/>
       <use xlink:href="#ArialMT-39" x="55.615234"/>
       <use xlink:href="#ArialMT-35" x="111.230469"/>
       <use xlink:href="#ArialMT-30" x="166.845703"/>
      </g>
     </g>
    </g>
    <g id="xtick_2">
     <g id="line2d_2">
      <path d="M 129.761764 354.429375 
L 129.761764 21.789375 
" clip-path="url(#pec3500b142)" style="fill: none; stroke: #cccccc; stroke-linecap: round"/>
     </g>
     <g id="text_2">
      <!-- 1960 -->
      <g style="fill: #262626" transform="translate(117.527702 371.802969) scale(0.11 -0.11)">
       <defs>
        <path id="ArialMT-36" d="M 3184 3459 
L 2625 3416 
Q 2550 3747 2413 3897 
Q 2184 4138 1850 4138 
Q 1581 4138 1378 3988 
Q 1113 3794 959 3422 
Q 806 3050 800 2363 
Q 1003 2672 1297 2822 
Q 1591 2972 1913 2972 
Q 2475 2972 2870 2558 
Q 3266 2144 3266 1488 
Q 3266 1056 3080 686 
Q 2894 316 2569 119 
Q 2244 -78 1831 -78 
Q 1128 -78 684 439 
Q 241 956 241 2144 
Q 241 3472 731 4075 
Q 1159 4600 1884 4600 
Q 2425 4600 2770 4297 
Q 3116 3994 3184 3459 
z
M 888 1484 
Q 888 1194 1011 928 
Q 1134 663 1356 523 
Q 1578 384 1822 384 
Q 2178 384 2434 671 
Q 2691 959 2691 1453 
Q 2691 1928 2437 2201 
Q 2184 2475 1800 2475 
Q 1419 2475 1153 2201 
Q 888 1928 888 1484 
z
" transform="scale(0.015625)"/>
       </defs>
       <use xlink:href="#ArialMT-31"/>
       <use xlink:href="#ArialMT-39" x="55.615234"/>
       <use xlink:href="#ArialMT-36" x="111.230469"/>
       <use xlink:href="#ArialMT-30" x="166.845703"/>
      </g>
     </g>
    </g>
    <g id="xtick_3">
     <g id="line2d_3">
      <path d="M 216.989559 354.429375 
L 216.989559 21.789375 
" clip-path="url(#pec3500b142)" style="fill: none; stroke: #cccccc; stroke-linecap: round"/>
     </g>
     <g id="text_3">
      <!-- 1970 -->
      <g style="fill: #262626" transform="translate(204.755497 371.802969) scale(0.11 -0.11)">
       <defs>
        <path id="ArialMT-37" d="M 303 3981 
L 303 4522 
L 3269 4522 
L 3269 4084 
Q 2831 3619 2401 2847 
Q 1972 2075 1738 1259 
Q 1569 684 1522 0 
L 944 0 
Q 953 541 1156 1306 
Q 1359 2072 1739 2783 
Q 2119 3494 2547 3981 
L 303 3981 
z
" transform="scale(0.015625)"/>
       </defs>
       <use xlink:href="#ArialMT-31"/>
       <use xlink:href="#ArialMT-39" x="55.615234"/>
       <use xlink:href="#ArialMT-37" x="111.230469"/>
       <use xlink:href="#ArialMT-30" x="166.845703"/>
      </g>
     </g>
    </g>
    <g id="xtick_4">
     <g id="line2d_4">
      <path d="M 304.193475 354.429375 
L 304.193475 21.789375 
" clip-path="url(#pec3500b142)" style="fill: none; stroke: #cccccc; stroke-linecap: round"/>
     </g>
     <g id="text_4">
      <!-- 1980 -->
      <g style="fill: #262626" transform="translate(291.959413 371.802969) scale(0.11 -0.11)">
       <defs>
        <path id="ArialMT-38" d="M 1131 2484 
Q 781 2613 612 2850 
Q 444 3088 444 3419 
Q 444 3919 803 4259 
Q 1163 4600 1759 4600 
Q 2359 4600 2725 4251 
Q 3091 3903 3091 3403 
Q 3091 3084 2923 2848 
Q 2756 2613 2416 2484 
Q 2838 2347 3058 2040 
Q 3278 1734 3278 1309 
Q 3278 722 2862 322 
Q 2447 -78 1769 -78 
Q 1091 -78 675 323 
Q 259 725 259 1325 
Q 259 1772 486 2073 
Q 713 2375 1131 2484 
z
M 1019 3438 
Q 1019 3113 1228 2906 
Q 1438 2700 1772 2700 
Q 2097 2700 2305 2904 
Q 2513 3109 2513 3406 
Q 2513 3716 2298 3927 
Q 2084 4138 1766 4138 
Q 1444 4138 1231 3931 
Q 1019 3725 1019 3438 
z
M 838 1322 
Q 838 1081 952 856 
Q 1066 631 1291 507 
Q 1516 384 1775 384 
Q 2178 384 2440 643 
Q 2703 903 2703 1303 
Q 2703 1709 2433 1975 
Q 2163 2241 1756 2241 
Q 1359 2241 1098 1978 
Q 838 1716 838 1322 
z
" transform="scale(0.015625)"/>
       </defs>
       <use xlink:href="#ArialMT-31"/>
       <use xlink:href="#ArialMT-39" x="55.615234"/>
       <use xlink:href="#ArialMT-38" x="111.230469"/>
       <use xlink:href="#ArialMT-30" x="166.845703"/>
      </g>
     </g>
    </g>
    <g id="xtick_5">
     <g id="line2d_5">
      <path d="M 391.42127 354.429375 
L 391.42127 21.789375 
" clip-path="url(#pec3500b142)" style="fill: none; stroke: #cccccc; stroke-linecap: round"/>
     </g>
     <g id="text_5">
      <!-- 1990 -->
      <g style="fill: #262626" transform="translate(379.187208 371.802969) scale(0.11 -0.11)">
       <use xlink:href="#ArialMT-31"/>
       <use xlink:href="#ArialMT-39" x="55.615234"/>
       <use xlink:href="#ArialMT-39" x="111.230469"/>
       <use xlink:href="#ArialMT-30" x="166.845703"/>
      </g>
     </g>
    </g>
    <g id="xtick_6">
     <g id="line2d_6">
      <path d="M 478.625187 354.429375 
L 478.625187 21.789375 
" clip-path="url(#pec3500b142)" style="fill: none; stroke: #cccccc; stroke-linecap: round"/>
     </g>
     <g id="text_6">
      <!-- 2000 -->
      <g style="fill: #262626" transform="translate(466.391124 371.802969) scale(0.11 -0.11)">
       <defs>
        <path id="ArialMT-32" d="M 3222 541 
L 3222 0 
L 194 0 
Q 188 203 259 391 
Q 375 700 629 1000 
Q 884 1300 1366 1694 
Q 2113 2306 2375 2664 
Q 2638 3022 2638 3341 
Q 2638 3675 2398 3904 
Q 2159 4134 1775 4134 
Q 1369 4134 1125 3890 
Q 881 3647 878 3216 
L 300 3275 
Q 359 3922 746 4261 
Q 1134 4600 1788 4600 
Q 2447 4600 2831 4234 
Q 3216 3869 3216 3328 
Q 3216 3053 3103 2787 
Q 2991 2522 2730 2228 
Q 2469 1934 1863 1422 
Q 1356 997 1212 845 
Q 1069 694 975 541 
L 3222 541 
z
" transform="scale(0.015625)"/>
       </defs>
       <use xlink:href="#ArialMT-32"/>
       <use xlink:href="#ArialMT-30" x="55.615234"/>
       <use xlink:href="#ArialMT-30" x="111.230469"/>
       <use xlink:href="#ArialMT-30" x="166.845703"/>
      </g>
     </g>
    </g>
    <g id="xtick_7">
     <g id="line2d_7">
      <path d="M 565.852981 354.429375 
L 565.852981 21.789375 
" clip-path="url(#pec3500b142)" style="fill: none; stroke: #cccccc; stroke-linecap: round"/>
     </g>
     <g id="text_7">
      <!-- 2010 -->
      <g style="fill: #262626" transform="translate(553.618919 371.802969) scale(0.11 -0.11)">
       <use xlink:href="#ArialMT-32"/>
       <use xlink:href="#ArialMT-30" x="55.615234"/>
       <use xlink:href="#ArialMT-31" x="111.230469"/>
       <use xlink:href="#ArialMT-30" x="166.845703"/>
      </g>
     </g>
    </g>
   </g>
   <g id="matplotlib.axis_2">
    <g id="ytick_1">
     <g id="line2d_8">
      <path d="M 41.168125 339.202847 
L 599.168125 339.202847 
" clip-path="url(#pec3500b142)" style="fill: none; stroke: #cccccc; stroke-linecap: round"/>
     </g>
     <g id="text_8">
      <!-- 0 -->
      <g style="fill: #262626" transform="translate(25.551094 343.139644) scale(0.11 -0.11)">
       <use xlink:href="#ArialMT-30"/>
      </g>
     </g>
    </g>
    <g id="ytick_2">
     <g id="line2d_9">
      <path d="M 41.168125 289.170014 
L 599.168125 289.170014 
" clip-path="url(#pec3500b142)" style="fill: none; stroke: #cccccc; stroke-linecap: round"/>
     </g>
     <g id="text_9">
      <!-- 1000 -->
      <g style="fill: #262626" transform="translate(7.2 293.106811) scale(0.11 -0.11)">
       <use xlink:href="#ArialMT-31"/>
       <use xlink:href="#ArialMT-30" x="55.615234"/>
       <use xlink:href="#ArialMT-30" x="111.230469"/>
       <use xlink:href="#ArialMT-30" x="166.845703"/>
      </g>
     </g>
    </g>
    <g id="ytick_3">
     <g id="line2d_10">
      <path d="M 41.168125 239.137181 
L 599.168125 239.137181 
" clip-path="url(#pec3500b142)" style="fill: none; stroke: #cccccc; stroke-linecap: round"/>
     </g>
     <g id="text_10">
      <!-- 2000 -->
      <g style="fill: #262626" transform="translate(7.2 243.073978) scale(0.11 -0.11)">
       <use xlink:href="#ArialMT-32"/>
       <use xlink:href="#ArialMT-30" x="55.615234"/>
       <use xlink:href="#ArialMT-30" x="111.230469"/>
       <use xlink:href="#ArialMT-30" x="166.845703"/>
      </g>
     </g>
    </g>
    <g id="ytick_4">
     <g id="line2d_11">
      <path d="M 41.168125 189.104347 
L 599.168125 189.104347 
" clip-path="url(#pec3500b142)" style="fill: none; stroke: #cccccc; stroke-linecap: round"/>
     </g>
     <g id="text_11">
      <!-- 3000 -->
      <g style="fill: #262626" transform="translate(7.2 193.041144) scale(0.11 -0.11)">
       <defs>
        <path id="ArialMT-33" d="M 269 1209 
L 831 1284 
Q 928 806 1161 595 
Q 1394 384 1728 384 
Q 2125 384 2398 659 
Q 2672 934 2672 1341 
Q 2672 1728 2419 1979 
Q 2166 2231 1775 2231 
Q 1616 2231 1378 2169 
L 1441 2663 
Q 1497 2656 1531 2656 
Q 1891 2656 2178 2843 
Q 2466 3031 2466 3422 
Q 2466 3731 2256 3934 
Q 2047 4138 1716 4138 
Q 1388 4138 1169 3931 
Q 950 3725 888 3313 
L 325 3413 
Q 428 3978 793 4289 
Q 1159 4600 1703 4600 
Q 2078 4600 2393 4439 
Q 2709 4278 2876 4000 
Q 3044 3722 3044 3409 
Q 3044 3113 2884 2869 
Q 2725 2625 2413 2481 
Q 2819 2388 3044 2092 
Q 3269 1797 3269 1353 
Q 3269 753 2831 336 
Q 2394 -81 1725 -81 
Q 1122 -81 723 278 
Q 325 638 269 1209 
z
" transform="scale(0.015625)"/>
       </defs>
       <use xlink:href="#ArialMT-33"/>
       <use xlink:href="#ArialMT-30" x="55.615234"/>
       <use xlink:href="#ArialMT-30" x="111.230469"/>
       <use xlink:href="#ArialMT-30" x="166.845703"/>
      </g>
     </g>
    </g>
    <g id="ytick_5">
     <g id="line2d_12">
      <path d="M 41.168125 139.071514 
L 599.168125 139.071514 
" clip-path="url(#pec3500b142)" style="fill: none; stroke: #cccccc; stroke-linecap: round"/>
     </g>
     <g id="text_12">
      <!-- 4000 -->
      <g style="fill: #262626" transform="translate(7.2 143.008311) scale(0.11 -0.11)">
       <defs>
        <path id="ArialMT-34" d="M 2069 0 
L 2069 1097 
L 81 1097 
L 81 1613 
L 2172 4581 
L 2631 4581 
L 2631 1613 
L 3250 1613 
L 3250 1097 
L 2631 1097 
L 2631 0 
L 2069 0 
z
M 2069 1613 
L 2069 3678 
L 634 1613 
L 2069 1613 
z
" transform="scale(0.015625)"/>
       </defs>
       <use xlink:href="#ArialMT-34"/>
       <use xlink:href="#ArialMT-30" x="55.615234"/>
       <use xlink:href="#ArialMT-30" x="111.230469"/>
       <use xlink:href="#ArialMT-30" x="166.845703"/>
      </g>
     </g>
    </g>
    <g id="ytick_6">
     <g id="line2d_13">
      <path d="M 41.168125 89.038681 
L 599.168125 89.038681 
" clip-path="url(#pec3500b142)" style="fill: none; stroke: #cccccc; stroke-linecap: round"/>
     </g>
     <g id="text_13">
      <!-- 5000 -->
      <g style="fill: #262626" transform="translate(7.2 92.975478) scale(0.11 -0.11)">
       <use xlink:href="#ArialMT-35"/>
       <use xlink:href="#ArialMT-30" x="55.615234"/>
       <use xlink:href="#ArialMT-30" x="111.230469"/>
       <use xlink:href="#ArialMT-30" x="166.845703"/>
      </g>
     </g>
    </g>
    <g id="ytick_7">
     <g id="line2d_14">
      <path d="M 41.168125 39.005848 
L 599.168125 39.005848 
" clip-path="url(#pec3500b142)" style="fill: none; stroke: #cccccc; stroke-linecap: round"/>
     </g>
     <g id="text_14">
      <!-- 6000 -->
      <g style="fill: #262626" transform="translate(7.2 42.942644) scale(0.11 -0.11)">
       <use xlink:href="#ArialMT-36"/>
       <use xlink:href="#ArialMT-30" x="55.615234"/>
       <use xlink:href="#ArialMT-30" x="111.230469"/>
       <use xlink:href="#ArialMT-30" x="166.845703"/>
      </g>
     </g>
    </g>
   </g>
   <g id="PolyCollection_1">
    <defs>
     <path id="m223eb36aca" d="M 565.829103 -65.53573 
L 565.829103 -41.884796 
L 566.569333 -41.886157 
L 567.237929 -41.899393 
L 567.978159 -41.994091 
L 568.694511 -43.325652 
L 569.434741 -48.624819 
L 570.151093 -51.171987 
L 570.891324 -51.831461 
L 571.631554 -48.935229 
L 572.347906 -43.373111 
L 573.088137 -41.977284 
L 573.804489 -41.879844 
L 573.804489 -72.685694 
L 573.804489 -72.685694 
L 573.088137 -101.978693 
L 572.347906 -186.987912 
L 571.631554 -305.191947 
L 570.891324 -344.279844 
L 570.151093 -327.937838 
L 569.434741 -283.483361 
L 568.694511 -171.911329 
L 567.978159 -98.068174 
L 567.237929 -72.990908 
L 566.569333 -68.525837 
L 565.829103 -65.53573 
z
" style="stroke: #ffc0cb; stroke-opacity: 0.3"/>
    </defs>
    <g clip-path="url(#pec3500b142)">
     <use xlink:href="#m223eb36aca" x="0" y="381.189219" style="fill: #ffc0cb; fill-opacity: 0.3; stroke: #ffc0cb; stroke-opacity: 0.3"/>
    </g>
   </g>
   <g id="line2d_15">
    <path d="M 66.531761 330.497134 
L 67.271992 309.58341 
L 67.988344 339.202847 
L 70.87763 336.851304 
L 71.593982 332.348349 
L 72.334213 253.796801 
L 73.050565 291.621623 
L 73.790795 281.665089 
L 74.531025 250.944929 
L 75.247377 262.552547 
L 75.987608 321.491224 
L 76.70396 339.202847 
L 78.184421 332.448415 
L 78.853016 337.001403 
L 79.593246 323.442505 
L 81.049828 192.556613 
L 81.76618 243.490037 
L 82.506411 253.946899 
L 83.246641 236.385375 
L 83.962993 265.25432 
L 84.703224 316.63804 
L 85.419576 339.202847 
L 86.159806 338.702519 
L 86.900036 339.202847 
L 87.568632 339.202847 
L 88.308862 333.899367 
L 89.025214 289.570277 
L 89.765444 263.903433 
L 90.481796 205.965412 
L 91.222027 167.189966 
L 91.962257 159.83514 
L 92.678609 300.877697 
L 93.41884 328.045526 
L 94.135192 326.494508 
L 94.875422 312.635413 
L 95.615652 336.451042 
L 96.308126 339.202847 
L 97.048356 287.669029 
L 98.504939 221.725755 
L 99.221291 275.410985 
L 99.961521 246.091745 
L 100.701752 258.19969 
L 101.418104 317.238434 
L 102.158334 337.501731 
L 102.874686 339.202847 
L 103.614916 339.202847 
L 104.355147 320.740732 
L 105.023742 338.952683 
L 105.763972 301.62819 
L 106.480324 325.894114 
L 107.220555 263.953466 
L 107.936907 280.314203 
L 108.677137 287.218734 
L 109.417368 231.031862 
L 110.13372 302.728912 
L 110.87395 339.202847 
L 111.590302 339.202847 
L 112.330532 291.671656 
L 113.739358 339.202847 
L 114.479588 334.549794 
L 115.19594 326.094245 
L 115.936171 280.914597 
L 116.652523 273.20954 
L 117.392753 236.185244 
L 118.132984 170.542166 
L 118.849336 269.757275 
L 119.589566 265.004156 
L 120.305918 322.29175 
L 121.046148 333.349006 
L 121.786379 337.701862 
L 122.454974 339.202847 
L 123.195204 299.576843 
L 123.911556 302.228584 
L 124.651787 193.607302 
L 125.368139 269.957406 
L 126.108369 213.370272 
L 126.848599 288.519587 
L 127.564951 278.913283 
L 128.305182 339.202847 
L 129.021534 339.202847 
L 129.761764 336.751239 
L 130.501995 339.202847 
L 131.194468 338.302256 
L 131.934699 332.89871 
L 132.651051 323.592603 
L 133.391281 287.268766 
L 134.107633 224.927856 
L 134.847863 249.644076 
L 135.588094 249.243813 
L 137.044676 331.047496 
L 137.761028 338.152158 
L 138.501259 332.948743 
L 139.241489 339.202847 
L 139.910084 334.64986 
L 140.650315 334.900024 
L 141.366667 323.592603 
L 142.106897 271.958719 
L 142.823249 253.59667 
L 143.563479 299.476778 
L 144.30371 243.590103 
L 145.020062 307.532064 
L 145.760292 312.485314 
L 146.476644 333.749269 
L 147.216875 339.202847 
L 148.6257 339.202847 
L 149.365931 302.929043 
L 150.082283 285.817814 
L 150.822513 262.802711 
L 151.538865 309.683476 
L 152.279095 274.760558 
L 153.019326 265.154254 
L 153.735678 286.518274 
L 154.475908 314.036332 
L 155.19226 333.849334 
L 155.932491 339.202847 
L 156.672721 339.202847 
L 157.341316 334.699892 
L 158.081547 336.451042 
L 158.797899 301.027796 
L 159.538129 248.043025 
L 160.254481 211.869287 
L 160.994711 234.18393 
L 161.734942 285.517617 
L 162.451294 263.453138 
L 163.191524 332.848678 
L 163.907876 339.202847 
L 164.648107 337.3016 
L 165.388337 339.202847 
L 166.080811 333.59917 
L 166.821041 323.192341 
L 167.537393 256.498574 
L 168.277623 225.278086 
L 168.993975 281.414925 
L 169.734206 234.033832 
L 170.474436 227.679662 
L 171.190788 330.397069 
L 171.931018 326.944803 
L 172.64737 339.052749 
L 173.387601 330.797331 
L 174.796426 336.551107 
L 175.536657 323.292406 
L 176.253009 284.917223 
L 176.993239 292.572247 
L 177.709591 271.208227 
L 178.449822 163.037241 
L 179.190052 272.85931 
L 179.906404 283.61637 
L 180.646634 316.187744 
L 181.362986 331.848021 
L 182.103217 337.551764 
L 182.843447 334.249597 
L 186.425207 245.641449 
L 187.165438 243.039742 
L 187.905668 266.705272 
L 188.62202 323.392472 
L 189.36225 338.052092 
L 190.078602 338.702519 
L 190.818833 312.985643 
L 191.559063 339.202847 
L 192.227658 334.099498 
L 192.967889 312.135085 
L 193.684241 312.985643 
L 194.424471 219.674409 
L 195.140823 329.446445 
L 195.881054 252.245783 
L 196.621284 274.110131 
L 197.337636 270.307636 
L 198.077866 337.051436 
L 198.794218 338.452355 
L 199.534449 338.052092 
L 200.274679 333.198907 
L 200.967153 338.152158 
L 201.707383 306.081112 
L 202.423735 304.129831 
L 203.163966 209.767908 
L 203.880318 296.274676 
L 204.620548 304.730225 
L 205.360778 307.782228 
L 206.07713 279.463644 
L 206.817361 336.501074 
L 207.533713 331.29766 
L 208.273943 330.94743 
L 209.014174 339.202847 
L 209.682769 321.791421 
L 210.422999 333.849334 
L 211.139351 309.533377 
L 211.879581 307.782228 
L 212.595933 262.852744 
L 213.336164 105.349385 
L 214.792746 305.730882 
L 215.532977 339.202847 
L 216.249329 319.990239 
L 216.989559 339.202847 
L 217.729789 339.052749 
L 218.398385 339.202847 
L 219.138615 339.052749 
L 219.854967 321.391159 
L 220.595197 217.673095 
L 221.311549 241.388658 
L 222.05178 277.662462 
L 222.79201 232.382748 
L 223.508362 313.586037 
L 224.248593 333.499104 
L 224.964945 339.202847 
L 226.445405 339.202847 
L 227.114001 334.049466 
L 227.854231 332.298316 
L 228.570583 318.789451 
L 229.310813 252.996276 
L 230.027165 291.071262 
L 230.767396 244.790891 
L 231.507626 188.253789 
L 232.223978 278.412955 
L 232.964209 336.401009 
L 233.680561 332.598513 
L 235.161021 339.202847 
L 235.853495 328.395755 
L 236.593725 324.293063 
L 237.310077 284.767125 
L 238.050308 173.243939 
L 238.76666 214.57106 
L 239.50689 289.170014 
L 240.247121 204.264296 
L 240.963473 300.777631 
L 241.703703 326.844738 
L 242.420055 335.90068 
L 243.160285 339.202847 
L 243.900516 335.750582 
L 244.569111 339.202847 
L 245.309341 325.343753 
L 246.025693 298.676252 
L 246.765924 228.380122 
L 247.482276 198.110257 
L 248.222506 261.802054 
L 248.962737 245.341252 
L 249.679089 280.314203 
L 250.419319 338.702519 
L 251.135671 338.202191 
L 251.875901 338.402322 
L 252.616132 339.202847 
L 253.284727 334.499761 
L 254.024957 325.043556 
L 254.741309 311.334559 
L 255.48154 240.938363 
L 256.197892 251.395225 
L 256.938122 317.588663 
L 257.678352 248.84355 
L 258.394704 331.397725 
L 259.134935 337.801928 
L 259.851287 339.202847 
L 260.591517 337.65183 
L 261.331748 339.202847 
L 262.740573 339.202847 
L 264.197156 235.334685 
L 264.913508 207.466397 
L 265.653738 294.273363 
L 266.393968 247.492664 
L 267.11032 285.167387 
L 267.850551 334.499761 
L 268.566903 339.202847 
L 269.307133 339.202847 
L 270.047364 336.751239 
L 270.739837 338.952683 
L 271.480068 327.395099 
L 272.19642 302.578813 
L 272.93665 265.704615 
L 273.653002 199.861407 
L 274.393232 283.316173 
L 275.133463 297.825694 
L 275.849815 257.299099 
L 276.590045 321.791421 
L 277.306397 338.652486 
L 278.046628 332.198251 
L 278.786858 335.450385 
L 279.455453 328.896084 
L 280.195684 335.250254 
L 281.652266 168.690951 
L 282.368618 310.6341 
L 283.849079 222.676379 
L 284.565431 318.439222 
L 285.305661 333.449072 
L 286.022013 336.501074 
L 286.762244 336.000746 
L 287.502474 336.501074 
L 288.171069 317.538631 
L 288.9113 333.59917 
L 289.627652 322.091618 
L 290.367882 190.5553 
L 291.084234 304.229897 
L 291.824464 296.975136 
L 292.564695 184.601392 
L 293.281047 323.042242 
L 294.021277 336.100812 
L 294.737629 339.202847 
L 295.47786 339.202847 
L 296.21809 330.196937 
L 296.886685 339.052749 
L 297.626916 323.592603 
L 298.343268 296.975136 
L 299.083498 309.283213 
L 299.79985 261.651956 
L 300.54008 280.864564 
L 301.280311 247.142434 
L 301.996663 332.048152 
L 302.736893 335.90068 
L 303.453245 335.600483 
L 304.193475 312.885577 
L 304.933706 339.202847 
L 305.626179 339.202847 
L 306.36641 332.548481 
L 307.082762 299.226614 
L 307.822992 286.26811 
L 308.539344 253.24644 
L 309.279575 233.233306 
L 310.019805 268.60652 
L 310.736157 322.692012 
L 311.476387 315.537317 
L 312.192739 338.952683 
L 312.93297 327.895427 
L 313.6732 326.744672 
L 314.341795 320.440535 
L 315.082026 319.089648 
L 315.798378 300.077172 
L 316.538608 156.683071 
L 317.25496 216.922603 
L 317.995191 264.55386 
L 318.735421 295.173954 
L 319.451773 319.690042 
L 320.192003 338.702519 
L 320.908355 338.452355 
L 321.648586 339.202847 
L 322.388816 327.645263 
L 323.057411 336.300943 
L 323.797642 327.194967 
L 324.513994 271.208227 
L 325.254224 296.174611 
L 325.970576 299.526811 
L 326.710807 276.361609 
L 327.451037 316.938237 
L 328.167389 289.119981 
L 328.907619 338.90265 
L 329.623971 339.202847 
L 330.364202 334.64986 
L 331.104432 319.039616 
L 331.773027 330.647233 
L 332.513258 339.202847 
L 333.22961 333.749269 
L 333.96984 264.503827 
L 335.426423 288.419522 
L 336.166653 222.976576 
L 336.883005 313.536004 
L 337.623235 330.847364 
L 338.339587 332.348349 
L 339.079818 325.343753 
L 339.820048 333.9494 
L 340.512522 331.948087 
L 341.252752 339.202847 
L 341.969104 294.22333 
L 342.709334 226.628972 
L 343.425686 262.302383 
L 344.165917 248.793518 
L 344.906147 180.098437 
L 345.622499 316.087678 
L 346.36273 339.202847 
L 347.079082 339.202847 
L 347.819312 339.052749 
L 349.228138 333.799301 
L 350.68472 298.326023 
L 351.42495 235.084521 
L 352.141302 250.394568 
L 352.881533 291.871787 
L 353.621763 241.23856 
L 354.338115 326.144278 
L 355.078346 330.697266 
L 355.794698 338.452355 
L 356.534928 339.202847 
L 357.275158 332.848678 
L 357.943754 339.202847 
L 358.683984 306.381309 
L 359.400336 295.774348 
L 360.140566 239.83764 
L 360.856918 253.846834 
L 361.597149 304.63016 
L 362.337379 290.070605 
L 364.510314 338.952683 
L 365.250544 339.202847 
L 365.990774 339.202847 
L 366.65937 322.842111 
L 367.3996 322.992209 
L 368.115952 314.586693 
L 368.856182 202.913409 
L 369.572534 263.353072 
L 370.312765 308.132458 
L 371.052995 282.165417 
L 371.769347 338.552421 
L 372.509578 338.802585 
L 373.22593 339.202847 
L 373.96616 339.202847 
L 374.70639 330.94743 
L 376.139094 339.202847 
L 376.855446 319.840141 
L 377.595677 240.237903 
L 378.312029 283.116041 
L 379.052259 222.626346 
L 379.79249 257.749395 
L 380.508842 335.500418 
L 381.249072 339.202847 
L 382.705654 339.202847 
L 383.445885 338.552421 
L 384.11448 336.751239 
L 384.85471 334.249597 
L 385.571062 295.324053 
L 386.311293 261.351759 
L 387.027645 304.63016 
L 387.767875 182.449981 
L 388.508105 288.119325 
L 389.224457 292.021886 
L 389.964688 338.702519 
L 390.68104 337.151501 
L 391.42127 338.952683 
L 392.161501 331.797988 
L 392.830096 337.801928 
L 393.570326 321.741389 
L 395.026909 233.133241 
L 395.743261 221.82582 
L 396.483491 301.778288 
L 397.223721 253.146374 
L 397.940073 288.91985 
L 398.680304 337.801928 
L 399.396656 339.202847 
L 401.545712 339.202847 
L 402.285942 331.948087 
L 403.002294 293.422805 
L 403.742525 210.318269 
L 404.458877 257.749395 
L 405.199107 289.220047 
L 405.939337 244.640792 
L 406.655689 274.560427 
L 407.39592 328.64592 
L 408.112272 339.202847 
L 408.852502 292.372115 
L 409.592733 330.997463 
L 410.285206 334.64986 
L 411.025437 327.395099 
L 411.741789 269.357012 
L 412.482019 293.973166 
L 413.198371 199.56121 
L 413.938601 222.926543 
L 414.678832 256.59864 
L 415.395184 276.56174 
L 416.851766 337.801928 
L 417.591997 339.202847 
L 418.332227 337.901994 
L 419.000822 337.801928 
L 419.741053 331.447758 
L 420.457405 335.100155 
L 421.197635 219.474277 
L 421.913987 262.402448 
L 422.654217 287.568963 
L 423.394448 215.82188 
L 424.1108 323.042242 
L 424.85103 330.347036 
L 425.567382 339.202847 
L 426.307613 333.699236 
L 427.047843 339.202847 
L 427.716438 339.202847 
L 428.456669 331.64789 
L 429.913251 230.731665 
L 430.629603 279.713809 
L 431.369833 230.681632 
L 432.110064 265.404418 
L 432.826416 277.312233 
L 433.566646 337.001403 
L 434.282998 339.202847 
L 435.023228 324.59326 
L 435.763459 338.452355 
L 436.432054 326.844738 
L 437.172284 330.397069 
L 437.888636 222.976576 
L 438.628867 258.800084 
L 439.345219 257.599296 
L 440.085449 150.779197 
L 440.82568 261.55189 
L 442.998614 315.287153 
L 443.738844 339.202847 
L 445.171548 339.202847 
L 445.911779 325.543884 
L 446.628131 310.183804 
L 447.368361 245.891613 
L 448.084713 273.109475 
L 448.824944 215.921946 
L 449.565174 254.84749 
L 450.281526 307.031736 
L 451.021756 339.202847 
L 451.738108 334.849991 
L 452.478339 339.202847 
L 453.218569 339.052749 
L 453.887164 312.185117 
L 454.627395 306.481374 
L 455.343747 287.618996 
L 456.083977 274.860624 
L 456.800329 274.560427 
L 457.54056 257.999559 
L 458.28079 230.081238 
L 459.737372 334.149531 
L 460.453724 332.098185 
L 461.193955 339.202847 
L 461.934185 338.552421 
L 462.60278 339.202847 
L 463.343011 337.551764 
L 464.059363 333.999433 
L 464.799593 284.466928 
L 465.515945 292.372115 
L 466.256176 236.985769 
L 466.996406 165.238686 
L 467.712758 289.119981 
L 468.452988 325.64395 
L 469.16934 339.202847 
L 469.909571 339.202847 
L 470.649801 338.802585 
L 471.318396 338.152158 
L 472.058627 325.693982 
L 472.774979 292.722345 
L 473.515209 272.459048 
L 474.231561 228.029892 
L 474.971791 232.732978 
L 475.712022 281.464958 
L 476.428374 283.366205 
L 477.168604 337.551764 
L 477.884956 339.202847 
L 478.625187 339.202847 
L 479.365417 338.052092 
L 480.057891 338.702519 
L 480.798121 324.042899 
L 481.514473 275.761215 
L 482.254703 252.646046 
L 482.971055 285.667716 
L 483.711286 289.870474 
L 484.451516 167.540196 
L 485.167868 317.188401 
L 485.908099 337.001403 
L 486.624451 338.052092 
L 487.364681 337.551764 
L 488.104911 338.802585 
L 488.773507 332.848678 
L 489.513737 309.733509 
L 490.230089 304.029766 
L 490.970319 246.54204 
L 491.686671 254.597326 
L 492.426902 283.466271 
L 493.167132 203.964099 
L 493.883484 328.495821 
L 494.623715 337.801928 
L 495.340067 337.551764 
L 496.080297 326.244344 
L 496.820527 330.697266 
L 497.489123 331.848021 
L 498.229353 328.595887 
L 498.945705 316.28781 
L 499.685935 242.289249 
L 500.402287 294.273363 
L 501.142518 310.433968 
L 501.882748 242.089118 
L 502.5991 303.329306 
L 504.055683 339.202847 
L 505.536143 339.202847 
L 506.204739 337.501731 
L 506.944969 335.250254 
L 507.661321 309.283213 
L 508.401551 165.538883 
L 509.117903 316.487941 
L 509.858134 221.975919 
L 510.598364 250.444601 
L 511.314716 246.341909 
L 512.054947 324.59326 
L 512.771299 339.202847 
L 513.511529 326.494508 
L 514.251759 338.702519 
L 514.944233 333.999433 
L 515.684463 318.889517 
L 516.400815 278.162791 
L 517.141046 247.342565 
L 517.857398 250.044338 
L 518.597628 280.814531 
L 519.337858 195.058255 
L 520.05421 303.629503 
L 520.794441 338.952683 
L 521.510793 339.202847 
L 522.991254 339.202847 
L 523.659849 328.195624 
L 524.400079 328.996149 
L 525.116431 296.775005 
L 525.856662 302.578813 
L 526.573014 271.208227 
L 527.313244 265.654582 
L 528.053474 314.586693 
L 528.769826 318.739419 
L 529.510057 331.29766 
L 530.226409 339.202847 
L 530.966639 338.802585 
L 531.70687 339.202847 
L 532.375465 331.447758 
L 535.28863 242.589446 
L 536.02886 256.148344 
L 536.76909 287.068635 
L 537.485442 301.928387 
L 538.225673 327.995493 
L 538.942025 338.802585 
L 539.682255 336.300943 
L 540.422486 321.991553 
L 541.091081 339.202847 
L 541.831311 319.339813 
L 542.547663 261.451824 
L 546.201058 317.438565 
L 546.941289 338.302256 
L 547.657641 339.202847 
L 548.397871 339.202847 
L 549.138102 337.401665 
L 549.830575 337.3016 
L 550.570806 329.746642 
L 551.287158 326.294376 
L 552.027388 200.761998 
L 552.74374 247.192467 
L 553.48397 285.717749 
L 554.224201 243.990366 
L 554.940553 315.287153 
L 555.680783 336.551107 
L 556.397135 339.202847 
L 557.877596 331.797988 
L 558.546191 338.802585 
L 559.286422 336.000746 
L 560.002773 317.388532 
L 560.743004 207.766594 
L 561.459356 290.570933 
L 562.199586 265.454451 
L 562.939817 181.049061 
L 563.656169 279.663776 
L 564.396399 331.447758 
L 565.112751 336.651173 
L 565.112751 336.651173 
" clip-path="url(#pec3500b142)" style="fill: none; stroke: #4c72b0; stroke-width: 1.5; stroke-linecap: round"/>
   </g>
   <g id="line2d_16">
    <path d="M 565.829103 337.727183 
L 566.569333 337.518638 
L 567.237929 336.981967 
L 567.978159 332.815138 
L 568.694511 315.127891 
L 569.434741 280.9661 
L 570.151093 266.953197 
L 570.891324 262.50714 
L 571.631554 276.492533 
L 572.347906 312.840769 
L 573.088137 332.793623 
L 573.804489 337.379464 
" clip-path="url(#pec3500b142)" style="fill: none; stroke: #ff0000; stroke-width: 1.5; stroke-linecap: round"/>
   </g>
   <g id="patch_3">
    <path d="M 41.168125 354.429375 
L 41.168125 21.789375 
" style="fill: none; stroke: #cccccc; stroke-width: 1.25; stroke-linejoin: miter; stroke-linecap: square"/>
   </g>
   <g id="patch_4">
    <path d="M 599.168125 354.429375 
L 599.168125 21.789375 
" style="fill: none; stroke: #cccccc; stroke-width: 1.25; stroke-linejoin: miter; stroke-linecap: square"/>
   </g>
   <g id="patch_5">
    <path d="M 41.168125 354.429375 
L 599.168125 354.429375 
" style="fill: none; stroke: #cccccc; stroke-width: 1.25; stroke-linejoin: miter; stroke-linecap: square"/>
   </g>
   <g id="patch_6">
    <path d="M 41.168125 21.789375 
L 599.168125 21.789375 
" style="fill: none; stroke: #cccccc; stroke-width: 1.25; stroke-linejoin: miter; stroke-linecap: square"/>
   </g>
   <g id="text_15">
    <!-- Pronóstico con SARIMAX -->
    <g style="fill: #262626" transform="translate(251.808438 15.789375) scale(0.12 -0.12)">
     <defs>
      <path id="ArialMT-50" d="M 494 0 
L 494 4581 
L 2222 4581 
Q 2678 4581 2919 4538 
Q 3256 4481 3484 4323 
Q 3713 4166 3852 3881 
Q 3991 3597 3991 3256 
Q 3991 2672 3619 2267 
Q 3247 1863 2275 1863 
L 1100 1863 
L 1100 0 
L 494 0 
z
M 1100 2403 
L 2284 2403 
Q 2872 2403 3119 2622 
Q 3366 2841 3366 3238 
Q 3366 3525 3220 3729 
Q 3075 3934 2838 4000 
Q 2684 4041 2272 4041 
L 1100 4041 
L 1100 2403 
z
" transform="scale(0.015625)"/>
      <path id="ArialMT-72" d="M 416 0 
L 416 3319 
L 922 3319 
L 922 2816 
Q 1116 3169 1280 3281 
Q 1444 3394 1641 3394 
Q 1925 3394 2219 3213 
L 2025 2691 
Q 1819 2813 1613 2813 
Q 1428 2813 1281 2702 
Q 1134 2591 1072 2394 
Q 978 2094 978 1738 
L 978 0 
L 416 0 
z
" transform="scale(0.015625)"/>
      <path id="ArialMT-6f" d="M 213 1659 
Q 213 2581 725 3025 
Q 1153 3394 1769 3394 
Q 2453 3394 2887 2945 
Q 3322 2497 3322 1706 
Q 3322 1066 3130 698 
Q 2938 331 2570 128 
Q 2203 -75 1769 -75 
Q 1072 -75 642 372 
Q 213 819 213 1659 
z
M 791 1659 
Q 791 1022 1069 705 
Q 1347 388 1769 388 
Q 2188 388 2466 706 
Q 2744 1025 2744 1678 
Q 2744 2294 2464 2611 
Q 2184 2928 1769 2928 
Q 1347 2928 1069 2612 
Q 791 2297 791 1659 
z
" transform="scale(0.015625)"/>
      <path id="ArialMT-6e" d="M 422 0 
L 422 3319 
L 928 3319 
L 928 2847 
Q 1294 3394 1984 3394 
Q 2284 3394 2536 3286 
Q 2788 3178 2913 3003 
Q 3038 2828 3088 2588 
Q 3119 2431 3119 2041 
L 3119 0 
L 2556 0 
L 2556 2019 
Q 2556 2363 2490 2533 
Q 2425 2703 2258 2804 
Q 2091 2906 1866 2906 
Q 1506 2906 1245 2678 
Q 984 2450 984 1813 
L 984 0 
L 422 0 
z
" transform="scale(0.015625)"/>
      <path id="ArialMT-f3" d="M 213 1659 
Q 213 2581 725 3025 
Q 1153 3394 1769 3394 
Q 2453 3394 2887 2945 
Q 3322 2497 3322 1706 
Q 3322 1066 3130 698 
Q 2938 331 2570 128 
Q 2203 -75 1769 -75 
Q 1072 -75 642 372 
Q 213 819 213 1659 
z
M 791 1659 
Q 791 1022 1069 705 
Q 1347 388 1769 388 
Q 2188 388 2466 706 
Q 2744 1025 2744 1678 
Q 2744 2294 2464 2611 
Q 2184 2928 1769 2928 
Q 1347 2928 1069 2612 
Q 791 2297 791 1659 
z
M 1454 3731 
L 1869 4606 
L 2607 4606 
L 1919 3731 
L 1454 3731 
z
" transform="scale(0.015625)"/>
      <path id="ArialMT-73" d="M 197 991 
L 753 1078 
Q 800 744 1014 566 
Q 1228 388 1613 388 
Q 2000 388 2187 545 
Q 2375 703 2375 916 
Q 2375 1106 2209 1216 
Q 2094 1291 1634 1406 
Q 1016 1563 777 1677 
Q 538 1791 414 1992 
Q 291 2194 291 2438 
Q 291 2659 392 2848 
Q 494 3038 669 3163 
Q 800 3259 1026 3326 
Q 1253 3394 1513 3394 
Q 1903 3394 2198 3281 
Q 2494 3169 2634 2976 
Q 2775 2784 2828 2463 
L 2278 2388 
Q 2241 2644 2061 2787 
Q 1881 2931 1553 2931 
Q 1166 2931 1000 2803 
Q 834 2675 834 2503 
Q 834 2394 903 2306 
Q 972 2216 1119 2156 
Q 1203 2125 1616 2013 
Q 2213 1853 2448 1751 
Q 2684 1650 2818 1456 
Q 2953 1263 2953 975 
Q 2953 694 2789 445 
Q 2625 197 2315 61 
Q 2006 -75 1616 -75 
Q 969 -75 630 194 
Q 291 463 197 991 
z
" transform="scale(0.015625)"/>
      <path id="ArialMT-74" d="M 1650 503 
L 1731 6 
Q 1494 -44 1306 -44 
Q 1000 -44 831 53 
Q 663 150 594 308 
Q 525 466 525 972 
L 525 2881 
L 113 2881 
L 113 3319 
L 525 3319 
L 525 4141 
L 1084 4478 
L 1084 3319 
L 1650 3319 
L 1650 2881 
L 1084 2881 
L 1084 941 
Q 1084 700 1114 631 
Q 1144 563 1211 522 
Q 1278 481 1403 481 
Q 1497 481 1650 503 
z
" transform="scale(0.015625)"/>
      <path id="ArialMT-69" d="M 425 3934 
L 425 4581 
L 988 4581 
L 988 3934 
L 425 3934 
z
M 425 0 
L 425 3319 
L 988 3319 
L 988 0 
L 425 0 
z
" transform="scale(0.015625)"/>
      <path id="ArialMT-63" d="M 2588 1216 
L 3141 1144 
Q 3050 572 2676 248 
Q 2303 -75 1759 -75 
Q 1078 -75 664 370 
Q 250 816 250 1647 
Q 250 2184 428 2587 
Q 606 2991 970 3192 
Q 1334 3394 1763 3394 
Q 2303 3394 2647 3120 
Q 2991 2847 3088 2344 
L 2541 2259 
Q 2463 2594 2264 2762 
Q 2066 2931 1784 2931 
Q 1359 2931 1093 2626 
Q 828 2322 828 1663 
Q 828 994 1084 691 
Q 1341 388 1753 388 
Q 2084 388 2306 591 
Q 2528 794 2588 1216 
z
" transform="scale(0.015625)"/>
      <path id="ArialMT-20" transform="scale(0.015625)"/>
      <path id="ArialMT-53" d="M 288 1472 
L 859 1522 
Q 900 1178 1048 958 
Q 1197 738 1509 602 
Q 1822 466 2213 466 
Q 2559 466 2825 569 
Q 3091 672 3220 851 
Q 3350 1031 3350 1244 
Q 3350 1459 3225 1620 
Q 3100 1781 2813 1891 
Q 2628 1963 1997 2114 
Q 1366 2266 1113 2400 
Q 784 2572 623 2826 
Q 463 3081 463 3397 
Q 463 3744 659 4045 
Q 856 4347 1234 4503 
Q 1613 4659 2075 4659 
Q 2584 4659 2973 4495 
Q 3363 4331 3572 4012 
Q 3781 3694 3797 3291 
L 3216 3247 
Q 3169 3681 2898 3903 
Q 2628 4125 2100 4125 
Q 1550 4125 1298 3923 
Q 1047 3722 1047 3438 
Q 1047 3191 1225 3031 
Q 1400 2872 2139 2705 
Q 2878 2538 3153 2413 
Q 3553 2228 3743 1945 
Q 3934 1663 3934 1294 
Q 3934 928 3725 604 
Q 3516 281 3123 101 
Q 2731 -78 2241 -78 
Q 1619 -78 1198 103 
Q 778 284 539 648 
Q 300 1013 288 1472 
z
" transform="scale(0.015625)"/>
      <path id="ArialMT-41" d="M -9 0 
L 1750 4581 
L 2403 4581 
L 4278 0 
L 3588 0 
L 3053 1388 
L 1138 1388 
L 634 0 
L -9 0 
z
M 1313 1881 
L 2866 1881 
L 2388 3150 
Q 2169 3728 2063 4100 
Q 1975 3659 1816 3225 
L 1313 1881 
z
" transform="scale(0.015625)"/>
      <path id="ArialMT-52" d="M 503 0 
L 503 4581 
L 2534 4581 
Q 3147 4581 3465 4457 
Q 3784 4334 3975 4021 
Q 4166 3709 4166 3331 
Q 4166 2844 3850 2509 
Q 3534 2175 2875 2084 
Q 3116 1969 3241 1856 
Q 3506 1613 3744 1247 
L 4541 0 
L 3778 0 
L 3172 953 
Q 2906 1366 2734 1584 
Q 2563 1803 2427 1890 
Q 2291 1978 2150 2013 
Q 2047 2034 1813 2034 
L 1109 2034 
L 1109 0 
L 503 0 
z
M 1109 2559 
L 2413 2559 
Q 2828 2559 3062 2645 
Q 3297 2731 3419 2920 
Q 3541 3109 3541 3331 
Q 3541 3656 3305 3865 
Q 3069 4075 2559 4075 
L 1109 4075 
L 1109 2559 
z
" transform="scale(0.015625)"/>
      <path id="ArialMT-49" d="M 597 0 
L 597 4581 
L 1203 4581 
L 1203 0 
L 597 0 
z
" transform="scale(0.015625)"/>
      <path id="ArialMT-4d" d="M 475 0 
L 475 4581 
L 1388 4581 
L 2472 1338 
Q 2622 884 2691 659 
Q 2769 909 2934 1394 
L 4031 4581 
L 4847 4581 
L 4847 0 
L 4263 0 
L 4263 3834 
L 2931 0 
L 2384 0 
L 1059 3900 
L 1059 0 
L 475 0 
z
" transform="scale(0.015625)"/>
      <path id="ArialMT-58" d="M 28 0 
L 1800 2388 
L 238 4581 
L 959 4581 
L 1791 3406 
Q 2050 3041 2159 2844 
Q 2313 3094 2522 3366 
L 3444 4581 
L 4103 4581 
L 2494 2422 
L 4228 0 
L 3478 0 
L 2325 1634 
Q 2228 1775 2125 1941 
Q 1972 1691 1906 1597 
L 756 0 
L 28 0 
z
" transform="scale(0.015625)"/>
     </defs>
     <use xlink:href="#ArialMT-50"/>
     <use xlink:href="#ArialMT-72" x="66.699219"/>
     <use xlink:href="#ArialMT-6f" x="100"/>
     <use xlink:href="#ArialMT-6e" x="155.615234"/>
     <use xlink:href="#ArialMT-f3" x="211.230469"/>
     <use xlink:href="#ArialMT-73" x="266.845703"/>
     <use xlink:href="#ArialMT-74" x="316.845703"/>
     <use xlink:href="#ArialMT-69" x="344.628906"/>
     <use xlink:href="#ArialMT-63" x="366.845703"/>
     <use xlink:href="#ArialMT-6f" x="416.845703"/>
     <use xlink:href="#ArialMT-20" x="472.460938"/>
     <use xlink:href="#ArialMT-63" x="500.244141"/>
     <use xlink:href="#ArialMT-6f" x="550.244141"/>
     <use xlink:href="#ArialMT-6e" x="605.859375"/>
     <use xlink:href="#ArialMT-20" x="661.474609"/>
     <use xlink:href="#ArialMT-53" x="689.257812"/>
     <use xlink:href="#ArialMT-41" x="755.957031"/>
     <use xlink:href="#ArialMT-52" x="822.65625"/>
     <use xlink:href="#ArialMT-49" x="894.873047"/>
     <use xlink:href="#ArialMT-4d" x="922.65625"/>
     <use xlink:href="#ArialMT-41" x="1005.957031"/>
     <use xlink:href="#ArialMT-58" x="1072.65625"/>
    </g>
   </g>
   <g id="legend_1">
    <g id="patch_7">
     <path d="M 421.134844 77.268906 
L 591.468125 77.268906 
Q 593.668125 77.268906 593.668125 75.068906 
L 593.668125 29.489375 
Q 593.668125 27.289375 591.468125 27.289375 
L 421.134844 27.289375 
Q 418.934844 27.289375 418.934844 29.489375 
L 418.934844 75.068906 
Q 418.934844 77.268906 421.134844 77.268906 
z
" style="fill: #ffffff; opacity: 0.8; stroke: #cccccc; stroke-linejoin: miter"/>
    </g>
    <g id="line2d_17">
     <path d="M 423.334844 35.712969 
L 434.334844 35.712969 
L 445.334844 35.712969 
" style="fill: none; stroke: #4c72b0; stroke-width: 1.5; stroke-linecap: round"/>
    </g>
    <g id="text_16">
     <!-- Observado -->
     <g style="fill: #262626" transform="translate(454.134844 39.562969) scale(0.11 -0.11)">
      <defs>
       <path id="ArialMT-4f" d="M 309 2231 
Q 309 3372 921 4017 
Q 1534 4663 2503 4663 
Q 3138 4663 3647 4359 
Q 4156 4056 4423 3514 
Q 4691 2972 4691 2284 
Q 4691 1588 4409 1038 
Q 4128 488 3612 205 
Q 3097 -78 2500 -78 
Q 1853 -78 1343 234 
Q 834 547 571 1087 
Q 309 1628 309 2231 
z
M 934 2222 
Q 934 1394 1379 917 
Q 1825 441 2497 441 
Q 3181 441 3623 922 
Q 4066 1403 4066 2288 
Q 4066 2847 3877 3264 
Q 3688 3681 3323 3911 
Q 2959 4141 2506 4141 
Q 1863 4141 1398 3698 
Q 934 3256 934 2222 
z
" transform="scale(0.015625)"/>
       <path id="ArialMT-62" d="M 941 0 
L 419 0 
L 419 4581 
L 981 4581 
L 981 2947 
Q 1338 3394 1891 3394 
Q 2197 3394 2470 3270 
Q 2744 3147 2920 2923 
Q 3097 2700 3197 2384 
Q 3297 2069 3297 1709 
Q 3297 856 2875 390 
Q 2453 -75 1863 -75 
Q 1275 -75 941 416 
L 941 0 
z
M 934 1684 
Q 934 1088 1097 822 
Q 1363 388 1816 388 
Q 2184 388 2453 708 
Q 2722 1028 2722 1663 
Q 2722 2313 2464 2622 
Q 2206 2931 1841 2931 
Q 1472 2931 1203 2611 
Q 934 2291 934 1684 
z
" transform="scale(0.015625)"/>
       <path id="ArialMT-65" d="M 2694 1069 
L 3275 997 
Q 3138 488 2766 206 
Q 2394 -75 1816 -75 
Q 1088 -75 661 373 
Q 234 822 234 1631 
Q 234 2469 665 2931 
Q 1097 3394 1784 3394 
Q 2450 3394 2872 2941 
Q 3294 2488 3294 1666 
Q 3294 1616 3291 1516 
L 816 1516 
Q 847 969 1125 678 
Q 1403 388 1819 388 
Q 2128 388 2347 550 
Q 2566 713 2694 1069 
z
M 847 1978 
L 2700 1978 
Q 2663 2397 2488 2606 
Q 2219 2931 1791 2931 
Q 1403 2931 1139 2672 
Q 875 2413 847 1978 
z
" transform="scale(0.015625)"/>
       <path id="ArialMT-76" d="M 1344 0 
L 81 3319 
L 675 3319 
L 1388 1331 
Q 1503 1009 1600 663 
Q 1675 925 1809 1294 
L 2547 3319 
L 3125 3319 
L 1869 0 
L 1344 0 
z
" transform="scale(0.015625)"/>
       <path id="ArialMT-61" d="M 2588 409 
Q 2275 144 1986 34 
Q 1697 -75 1366 -75 
Q 819 -75 525 192 
Q 231 459 231 875 
Q 231 1119 342 1320 
Q 453 1522 633 1644 
Q 813 1766 1038 1828 
Q 1203 1872 1538 1913 
Q 2219 1994 2541 2106 
Q 2544 2222 2544 2253 
Q 2544 2597 2384 2738 
Q 2169 2928 1744 2928 
Q 1347 2928 1158 2789 
Q 969 2650 878 2297 
L 328 2372 
Q 403 2725 575 2942 
Q 747 3159 1072 3276 
Q 1397 3394 1825 3394 
Q 2250 3394 2515 3294 
Q 2781 3194 2906 3042 
Q 3031 2891 3081 2659 
Q 3109 2516 3109 2141 
L 3109 1391 
Q 3109 606 3145 398 
Q 3181 191 3288 0 
L 2700 0 
Q 2613 175 2588 409 
z
M 2541 1666 
Q 2234 1541 1622 1453 
Q 1275 1403 1131 1340 
Q 988 1278 909 1158 
Q 831 1038 831 891 
Q 831 666 1001 516 
Q 1172 366 1500 366 
Q 1825 366 2078 508 
Q 2331 650 2450 897 
Q 2541 1088 2541 1459 
L 2541 1666 
z
" transform="scale(0.015625)"/>
       <path id="ArialMT-64" d="M 2575 0 
L 2575 419 
Q 2259 -75 1647 -75 
Q 1250 -75 917 144 
Q 584 363 401 755 
Q 219 1147 219 1656 
Q 219 2153 384 2558 
Q 550 2963 881 3178 
Q 1213 3394 1622 3394 
Q 1922 3394 2156 3267 
Q 2391 3141 2538 2938 
L 2538 4581 
L 3097 4581 
L 3097 0 
L 2575 0 
z
M 797 1656 
Q 797 1019 1065 703 
Q 1334 388 1700 388 
Q 2069 388 2326 689 
Q 2584 991 2584 1609 
Q 2584 2291 2321 2609 
Q 2059 2928 1675 2928 
Q 1300 2928 1048 2622 
Q 797 2316 797 1656 
z
" transform="scale(0.015625)"/>
      </defs>
      <use xlink:href="#ArialMT-4f"/>
      <use xlink:href="#ArialMT-62" x="77.783203"/>
      <use xlink:href="#ArialMT-73" x="133.398438"/>
      <use xlink:href="#ArialMT-65" x="183.398438"/>
      <use xlink:href="#ArialMT-72" x="239.013672"/>
      <use xlink:href="#ArialMT-76" x="272.314453"/>
      <use xlink:href="#ArialMT-61" x="322.314453"/>
      <use xlink:href="#ArialMT-64" x="377.929688"/>
      <use xlink:href="#ArialMT-6f" x="433.544922"/>
     </g>
    </g>
    <g id="line2d_18">
     <path d="M 423.334844 51.272812 
L 434.334844 51.272812 
L 445.334844 51.272812 
" style="fill: none; stroke: #ff0000; stroke-width: 1.5; stroke-linecap: round"/>
    </g>
    <g id="text_17">
     <!-- Pronóstico -->
     <g style="fill: #262626" transform="translate(454.134844 55.122812) scale(0.11 -0.11)">
      <use xlink:href="#ArialMT-50"/>
      <use xlink:href="#ArialMT-72" x="66.699219"/>
      <use xlink:href="#ArialMT-6f" x="100"/>
      <use xlink:href="#ArialMT-6e" x="155.615234"/>
      <use xlink:href="#ArialMT-f3" x="211.230469"/>
      <use xlink:href="#ArialMT-73" x="266.845703"/>
      <use xlink:href="#ArialMT-74" x="316.845703"/>
      <use xlink:href="#ArialMT-69" x="344.628906"/>
      <use xlink:href="#ArialMT-63" x="366.845703"/>
      <use xlink:href="#ArialMT-6f" x="416.845703"/>
     </g>
    </g>
    <g id="patch_8">
     <path d="M 423.334844 70.682656 
L 445.334844 70.682656 
L 445.334844 62.982656 
L 423.334844 62.982656 
z
" style="fill: #ffc0cb; fill-opacity: 0.3; stroke: #ffc0cb; stroke-opacity: 0.3; stroke-linejoin: miter"/>
    </g>
    <g id="text_18">
     <!-- Intervalo de Confianza 95% -->
     <g style="fill: #262626" transform="translate(454.134844 70.682656) scale(0.11 -0.11)">
      <defs>
       <path id="ArialMT-6c" d="M 409 0 
L 409 4581 
L 972 4581 
L 972 0 
L 409 0 
z
" transform="scale(0.015625)"/>
       <path id="ArialMT-43" d="M 3763 1606 
L 4369 1453 
Q 4178 706 3683 314 
Q 3188 -78 2472 -78 
Q 1731 -78 1267 223 
Q 803 525 561 1097 
Q 319 1669 319 2325 
Q 319 3041 592 3573 
Q 866 4106 1370 4382 
Q 1875 4659 2481 4659 
Q 3169 4659 3637 4309 
Q 4106 3959 4291 3325 
L 3694 3184 
Q 3534 3684 3231 3912 
Q 2928 4141 2469 4141 
Q 1941 4141 1586 3887 
Q 1231 3634 1087 3207 
Q 944 2781 944 2328 
Q 944 1744 1114 1308 
Q 1284 872 1643 656 
Q 2003 441 2422 441 
Q 2931 441 3284 734 
Q 3638 1028 3763 1606 
z
" transform="scale(0.015625)"/>
       <path id="ArialMT-66" d="M 556 0 
L 556 2881 
L 59 2881 
L 59 3319 
L 556 3319 
L 556 3672 
Q 556 4006 616 4169 
Q 697 4388 901 4523 
Q 1106 4659 1475 4659 
Q 1713 4659 2000 4603 
L 1916 4113 
Q 1741 4144 1584 4144 
Q 1328 4144 1222 4034 
Q 1116 3925 1116 3625 
L 1116 3319 
L 1763 3319 
L 1763 2881 
L 1116 2881 
L 1116 0 
L 556 0 
z
" transform="scale(0.015625)"/>
       <path id="ArialMT-7a" d="M 125 0 
L 125 456 
L 2238 2881 
Q 1878 2863 1603 2863 
L 250 2863 
L 250 3319 
L 2963 3319 
L 2963 2947 
L 1166 841 
L 819 456 
Q 1197 484 1528 484 
L 3063 484 
L 3063 0 
L 125 0 
z
" transform="scale(0.015625)"/>
       <path id="ArialMT-25" d="M 372 3481 
Q 372 3972 619 4315 
Q 866 4659 1334 4659 
Q 1766 4659 2048 4351 
Q 2331 4044 2331 3447 
Q 2331 2866 2045 2552 
Q 1759 2238 1341 2238 
Q 925 2238 648 2547 
Q 372 2856 372 3481 
z
M 1350 4272 
Q 1141 4272 1002 4090 
Q 863 3909 863 3425 
Q 863 2984 1003 2804 
Q 1144 2625 1350 2625 
Q 1563 2625 1702 2806 
Q 1841 2988 1841 3469 
Q 1841 3913 1700 4092 
Q 1559 4272 1350 4272 
z
M 1353 -169 
L 3859 4659 
L 4316 4659 
L 1819 -169 
L 1353 -169 
z
M 3334 1075 
Q 3334 1569 3581 1911 
Q 3828 2253 4300 2253 
Q 4731 2253 5014 1945 
Q 5297 1638 5297 1041 
Q 5297 459 5011 145 
Q 4725 -169 4303 -169 
Q 3888 -169 3611 142 
Q 3334 453 3334 1075 
z
M 4316 1866 
Q 4103 1866 3964 1684 
Q 3825 1503 3825 1019 
Q 3825 581 3965 400 
Q 4106 219 4313 219 
Q 4528 219 4667 400 
Q 4806 581 4806 1063 
Q 4806 1506 4665 1686 
Q 4525 1866 4316 1866 
z
" transform="scale(0.015625)"/>
      </defs>
      <use xlink:href="#ArialMT-49"/>
      <use xlink:href="#ArialMT-6e" x="27.783203"/>
      <use xlink:href="#ArialMT-74" x="83.398438"/>
      <use xlink:href="#ArialMT-65" x="111.181641"/>
      <use xlink:href="#ArialMT-72" x="166.796875"/>
      <use xlink:href="#ArialMT-76" x="200.097656"/>
      <use xlink:href="#ArialMT-61" x="250.097656"/>
      <use xlink:href="#ArialMT-6c" x="305.712891"/>
      <use xlink:href="#ArialMT-6f" x="327.929688"/>
      <use xlink:href="#ArialMT-20" x="383.544922"/>
      <use xlink:href="#ArialMT-64" x="411.328125"/>
      <use xlink:href="#ArialMT-65" x="466.943359"/>
      <use xlink:href="#ArialMT-20" x="522.558594"/>
      <use xlink:href="#ArialMT-43" x="550.341797"/>
      <use xlink:href="#ArialMT-6f" x="622.558594"/>
      <use xlink:href="#ArialMT-6e" x="678.173828"/>
      <use xlink:href="#ArialMT-66" x="733.789062"/>
      <use xlink:href="#ArialMT-69" x="761.572266"/>
      <use xlink:href="#ArialMT-61" x="783.789062"/>
      <use xlink:href="#ArialMT-6e" x="839.404297"/>
      <use xlink:href="#ArialMT-7a" x="895.019531"/>
      <use xlink:href="#ArialMT-61" x="945.019531"/>
      <use xlink:href="#ArialMT-20" x="1000.634766"/>
      <use xlink:href="#ArialMT-39" x="1028.417969"/>
      <use xlink:href="#ArialMT-35" x="1084.033203"/>
      <use xlink:href="#ArialMT-25" x="1139.648438"/>
     </g>
    </g>
   </g>
  </g>
 </g>
 <defs>
  <clipPath id="pec3500b142">
   <rect x="41.168125" y="21.789375" width="558" height="332.64"/>
  </clipPath>
 </defs>
</svg>
