<?xml version="1.0" encoding="utf-8" standalone="no"?>
<!DOCTYPE svg PUBLIC "-//W3C//DTD SVG 1.1//EN"
  "http://www.w3.org/Graphics/SVG/1.1/DTD/svg11.dtd">
<svg xmlns:xlink="http://www.w3.org/1999/xlink" width="602.26pt" height="380.920312pt" viewBox="0 0 602.26 380.920312" xmlns="http://www.w3.org/2000/svg" version="1.1">
 <metadata>
  <rdf:RDF xmlns:dc="http://purl.org/dc/elements/1.1/" xmlns:cc="http://creativecommons.org/ns#" xmlns:rdf="http://www.w3.org/1999/02/22-rdf-syntax-ns#">
   <cc:Work>
    <dc:type rdf:resource="http://purl.org/dc/dcmitype/StillImage"/>
    <dc:date>2025-04-24T15:27:34.166590</dc:date>
    <dc:format>image/svg+xml</dc:format>
    <dc:creator>
     <cc:Agent>
      <dc:title>Matplotlib v3.10.1, https://matplotlib.org/</dc:title>
     </cc:Agent>
    </dc:creator>
   </cc:Work>
  </rdf:RDF>
 </metadata>
 <defs>
  <style type="text/css">*{stroke-linejoin: round; stroke-linecap: butt}</style>
 </defs>
 <g id="figure_1">
  <g id="patch_1">
   <path d="M 0 380.920312 
L 602.26 380.920312 
L 602.26 0 
L 0 0 
z
" style="fill: #ffffff"/>
  </g>
  <g id="axes_1">
   <g id="patch_2">
    <path d="M 37.06 356.477812 
L 595.06 356.477812 
L 595.06 23.837812 
L 37.06 23.837812 
z
" style="fill: #ffffff"/>
   </g>
   <g id="matplotlib.axis_1">
    <g id="xtick_1">
     <g id="line2d_1">
      <path d="M 38.449723 356.477812 
L 38.449723 23.837812 
" clip-path="url(#p1877af8e83)" style="fill: none; stroke-dasharray: 1.85,0.8; stroke-dashoffset: 0; stroke: #808080; stroke-width: 0.5"/>
     </g>
     <g id="text_1">
      <!-- 1950 -->
      <g style="fill: #262626" transform="translate(28.269723 372.056562) scale(0.08 -0.08)">
       <defs>
        <path id="DejaVuSans-31" d="M 794 531 
L 1825 531 
L 1825 4091 
L 703 3866 
L 703 4441 
L 1819 4666 
L 2450 4666 
L 2450 531 
L 3481 531 
L 3481 0 
L 794 0 
L 794 531 
z
" transform="scale(0.015625)"/>
        <path id="DejaVuSans-39" d="M 703 97 
L 703 672 
Q 941 559 1184 500 
Q 1428 441 1663 441 
Q 2288 441 2617 861 
Q 2947 1281 2994 2138 
Q 2813 1869 2534 1725 
Q 2256 1581 1919 1581 
Q 1219 1581 811 2004 
Q 403 2428 403 3163 
Q 403 3881 828 4315 
Q 1253 4750 1959 4750 
Q 2769 4750 3195 4129 
Q 3622 3509 3622 2328 
Q 3622 1225 3098 567 
Q 2575 -91 1691 -91 
Q 1453 -91 1209 -44 
Q 966 3 703 97 
z
M 1959 2075 
Q 2384 2075 2632 2365 
Q 2881 2656 2881 3163 
Q 2881 3666 2632 3958 
Q 2384 4250 1959 4250 
Q 1534 4250 1286 3958 
Q 1038 3666 1038 3163 
Q 1038 2656 1286 2365 
Q 1534 2075 1959 2075 
z
" transform="scale(0.015625)"/>
        <path id="DejaVuSans-35" d="M 691 4666 
L 3169 4666 
L 3169 4134 
L 1269 4134 
L 1269 2991 
Q 1406 3038 1543 3061 
Q 1681 3084 1819 3084 
Q 2600 3084 3056 2656 
Q 3513 2228 3513 1497 
Q 3513 744 3044 326 
Q 2575 -91 1722 -91 
Q 1428 -91 1123 -41 
Q 819 9 494 109 
L 494 744 
Q 775 591 1075 516 
Q 1375 441 1709 441 
Q 2250 441 2565 725 
Q 2881 1009 2881 1497 
Q 2881 1984 2565 2268 
Q 2250 2553 1709 2553 
Q 1456 2553 1204 2497 
Q 953 2441 691 2322 
L 691 4666 
z
" transform="scale(0.015625)"/>
        <path id="DejaVuSans-30" d="M 2034 4250 
Q 1547 4250 1301 3770 
Q 1056 3291 1056 2328 
Q 1056 1369 1301 889 
Q 1547 409 2034 409 
Q 2525 409 2770 889 
Q 3016 1369 3016 2328 
Q 3016 3291 2770 3770 
Q 2525 4250 2034 4250 
z
M 2034 4750 
Q 2819 4750 3233 4129 
Q 3647 3509 3647 2328 
Q 3647 1150 3233 529 
Q 2819 -91 2034 -91 
Q 1250 -91 836 529 
Q 422 1150 422 2328 
Q 422 3509 836 4129 
Q 1250 4750 2034 4750 
z
" transform="scale(0.015625)"/>
       </defs>
       <use xlink:href="#DejaVuSans-31"/>
       <use xlink:href="#DejaVuSans-39" transform="translate(63.623047 0)"/>
       <use xlink:href="#DejaVuSans-35" transform="translate(127.246094 0)"/>
       <use xlink:href="#DejaVuSans-30" transform="translate(190.869141 0)"/>
      </g>
     </g>
    </g>
    <g id="xtick_2">
     <g id="line2d_2">
      <path d="M 125.653639 356.477812 
L 125.653639 23.837812 
" clip-path="url(#p1877af8e83)" style="fill: none; stroke-dasharray: 1.85,0.8; stroke-dashoffset: 0; stroke: #808080; stroke-width: 0.5"/>
     </g>
     <g id="text_2">
      <!-- 1960 -->
      <g style="fill: #262626" transform="translate(115.473639 372.056562) scale(0.08 -0.08)">
       <defs>
        <path id="DejaVuSans-36" d="M 2113 2584 
Q 1688 2584 1439 2293 
Q 1191 2003 1191 1497 
Q 1191 994 1439 701 
Q 1688 409 2113 409 
Q 2538 409 2786 701 
Q 3034 994 3034 1497 
Q 3034 2003 2786 2293 
Q 2538 2584 2113 2584 
z
M 3366 4563 
L 3366 3988 
Q 3128 4100 2886 4159 
Q 2644 4219 2406 4219 
Q 1781 4219 1451 3797 
Q 1122 3375 1075 2522 
Q 1259 2794 1537 2939 
Q 1816 3084 2150 3084 
Q 2853 3084 3261 2657 
Q 3669 2231 3669 1497 
Q 3669 778 3244 343 
Q 2819 -91 2113 -91 
Q 1303 -91 875 529 
Q 447 1150 447 2328 
Q 447 3434 972 4092 
Q 1497 4750 2381 4750 
Q 2619 4750 2861 4703 
Q 3103 4656 3366 4563 
z
" transform="scale(0.015625)"/>
       </defs>
       <use xlink:href="#DejaVuSans-31"/>
       <use xlink:href="#DejaVuSans-39" transform="translate(63.623047 0)"/>
       <use xlink:href="#DejaVuSans-36" transform="translate(127.246094 0)"/>
       <use xlink:href="#DejaVuSans-30" transform="translate(190.869141 0)"/>
      </g>
     </g>
    </g>
    <g id="xtick_3">
     <g id="line2d_3">
      <path d="M 212.881434 356.477812 
L 212.881434 23.837812 
" clip-path="url(#p1877af8e83)" style="fill: none; stroke-dasharray: 1.85,0.8; stroke-dashoffset: 0; stroke: #808080; stroke-width: 0.5"/>
     </g>
     <g id="text_3">
      <!-- 1970 -->
      <g style="fill: #262626" transform="translate(202.701434 372.056562) scale(0.08 -0.08)">
       <defs>
        <path id="DejaVuSans-37" d="M 525 4666 
L 3525 4666 
L 3525 4397 
L 1831 0 
L 1172 0 
L 2766 4134 
L 525 4134 
L 525 4666 
z
" transform="scale(0.015625)"/>
       </defs>
       <use xlink:href="#DejaVuSans-31"/>
       <use xlink:href="#DejaVuSans-39" transform="translate(63.623047 0)"/>
       <use xlink:href="#DejaVuSans-37" transform="translate(127.246094 0)"/>
       <use xlink:href="#DejaVuSans-30" transform="translate(190.869141 0)"/>
      </g>
     </g>
    </g>
    <g id="xtick_4">
     <g id="line2d_4">
      <path d="M 300.08535 356.477812 
L 300.08535 23.837812 
" clip-path="url(#p1877af8e83)" style="fill: none; stroke-dasharray: 1.85,0.8; stroke-dashoffset: 0; stroke: #808080; stroke-width: 0.5"/>
     </g>
     <g id="text_4">
      <!-- 1980 -->
      <g style="fill: #262626" transform="translate(289.90535 372.056562) scale(0.08 -0.08)">
       <defs>
        <path id="DejaVuSans-38" d="M 2034 2216 
Q 1584 2216 1326 1975 
Q 1069 1734 1069 1313 
Q 1069 891 1326 650 
Q 1584 409 2034 409 
Q 2484 409 2743 651 
Q 3003 894 3003 1313 
Q 3003 1734 2745 1975 
Q 2488 2216 2034 2216 
z
M 1403 2484 
Q 997 2584 770 2862 
Q 544 3141 544 3541 
Q 544 4100 942 4425 
Q 1341 4750 2034 4750 
Q 2731 4750 3128 4425 
Q 3525 4100 3525 3541 
Q 3525 3141 3298 2862 
Q 3072 2584 2669 2484 
Q 3125 2378 3379 2068 
Q 3634 1759 3634 1313 
Q 3634 634 3220 271 
Q 2806 -91 2034 -91 
Q 1263 -91 848 271 
Q 434 634 434 1313 
Q 434 1759 690 2068 
Q 947 2378 1403 2484 
z
M 1172 3481 
Q 1172 3119 1398 2916 
Q 1625 2713 2034 2713 
Q 2441 2713 2670 2916 
Q 2900 3119 2900 3481 
Q 2900 3844 2670 4047 
Q 2441 4250 2034 4250 
Q 1625 4250 1398 4047 
Q 1172 3844 1172 3481 
z
" transform="scale(0.015625)"/>
       </defs>
       <use xlink:href="#DejaVuSans-31"/>
       <use xlink:href="#DejaVuSans-39" transform="translate(63.623047 0)"/>
       <use xlink:href="#DejaVuSans-38" transform="translate(127.246094 0)"/>
       <use xlink:href="#DejaVuSans-30" transform="translate(190.869141 0)"/>
      </g>
     </g>
    </g>
    <g id="xtick_5">
     <g id="line2d_5">
      <path d="M 387.313145 356.477812 
L 387.313145 23.837812 
" clip-path="url(#p1877af8e83)" style="fill: none; stroke-dasharray: 1.85,0.8; stroke-dashoffset: 0; stroke: #808080; stroke-width: 0.5"/>
     </g>
     <g id="text_5">
      <!-- 1990 -->
      <g style="fill: #262626" transform="translate(377.133145 372.056562) scale(0.08 -0.08)">
       <use xlink:href="#DejaVuSans-31"/>
       <use xlink:href="#DejaVuSans-39" transform="translate(63.623047 0)"/>
       <use xlink:href="#DejaVuSans-39" transform="translate(127.246094 0)"/>
       <use xlink:href="#DejaVuSans-30" transform="translate(190.869141 0)"/>
      </g>
     </g>
    </g>
    <g id="xtick_6">
     <g id="line2d_6">
      <path d="M 474.517062 356.477812 
L 474.517062 23.837812 
" clip-path="url(#p1877af8e83)" style="fill: none; stroke-dasharray: 1.85,0.8; stroke-dashoffset: 0; stroke: #808080; stroke-width: 0.5"/>
     </g>
     <g id="text_6">
      <!-- 2000 -->
      <g style="fill: #262626" transform="translate(464.337062 372.056562) scale(0.08 -0.08)">
       <defs>
        <path id="DejaVuSans-32" d="M 1228 531 
L 3431 531 
L 3431 0 
L 469 0 
L 469 531 
Q 828 903 1448 1529 
Q 2069 2156 2228 2338 
Q 2531 2678 2651 2914 
Q 2772 3150 2772 3378 
Q 2772 3750 2511 3984 
Q 2250 4219 1831 4219 
Q 1534 4219 1204 4116 
Q 875 4013 500 3803 
L 500 4441 
Q 881 4594 1212 4672 
Q 1544 4750 1819 4750 
Q 2544 4750 2975 4387 
Q 3406 4025 3406 3419 
Q 3406 3131 3298 2873 
Q 3191 2616 2906 2266 
Q 2828 2175 2409 1742 
Q 1991 1309 1228 531 
z
" transform="scale(0.015625)"/>
       </defs>
       <use xlink:href="#DejaVuSans-32"/>
       <use xlink:href="#DejaVuSans-30" transform="translate(63.623047 0)"/>
       <use xlink:href="#DejaVuSans-30" transform="translate(127.246094 0)"/>
       <use xlink:href="#DejaVuSans-30" transform="translate(190.869141 0)"/>
      </g>
     </g>
    </g>
    <g id="xtick_7">
     <g id="line2d_7">
      <path d="M 561.744856 356.477812 
L 561.744856 23.837812 
" clip-path="url(#p1877af8e83)" style="fill: none; stroke-dasharray: 1.85,0.8; stroke-dashoffset: 0; stroke: #808080; stroke-width: 0.5"/>
     </g>
     <g id="text_7">
      <!-- 2010 -->
      <g style="fill: #262626" transform="translate(551.564856 372.056562) scale(0.08 -0.08)">
       <use xlink:href="#DejaVuSans-32"/>
       <use xlink:href="#DejaVuSans-30" transform="translate(63.623047 0)"/>
       <use xlink:href="#DejaVuSans-31" transform="translate(127.246094 0)"/>
       <use xlink:href="#DejaVuSans-30" transform="translate(190.869141 0)"/>
      </g>
     </g>
    </g>
   </g>
   <g id="matplotlib.axis_2">
    <g id="ytick_1">
     <g id="line2d_8">
      <path d="M 37.06 341.257275 
L 595.06 341.257275 
" clip-path="url(#p1877af8e83)" style="fill: none; stroke-dasharray: 1.85,0.8; stroke-dashoffset: 0; stroke: #808080; stroke-width: 0.5"/>
     </g>
     <g id="text_8">
      <!-- 0 -->
      <g style="fill: #262626" transform="translate(22.47 344.29665) scale(0.08 -0.08)">
       <use xlink:href="#DejaVuSans-30"/>
      </g>
     </g>
    </g>
    <g id="ytick_2">
     <g id="line2d_9">
      <path d="M 37.06 302.924818 
L 595.06 302.924818 
" clip-path="url(#p1877af8e83)" style="fill: none; stroke-dasharray: 1.85,0.8; stroke-dashoffset: 0; stroke: #808080; stroke-width: 0.5"/>
     </g>
     <g id="text_9">
      <!-- 1000 -->
      <g style="fill: #262626" transform="translate(7.2 305.964193) scale(0.08 -0.08)">
       <use xlink:href="#DejaVuSans-31"/>
       <use xlink:href="#DejaVuSans-30" transform="translate(63.623047 0)"/>
       <use xlink:href="#DejaVuSans-30" transform="translate(127.246094 0)"/>
       <use xlink:href="#DejaVuSans-30" transform="translate(190.869141 0)"/>
      </g>
     </g>
    </g>
    <g id="ytick_3">
     <g id="line2d_10">
      <path d="M 37.06 264.59236 
L 595.06 264.59236 
" clip-path="url(#p1877af8e83)" style="fill: none; stroke-dasharray: 1.85,0.8; stroke-dashoffset: 0; stroke: #808080; stroke-width: 0.5"/>
     </g>
     <g id="text_10">
      <!-- 2000 -->
      <g style="fill: #262626" transform="translate(7.2 267.631735) scale(0.08 -0.08)">
       <use xlink:href="#DejaVuSans-32"/>
       <use xlink:href="#DejaVuSans-30" transform="translate(63.623047 0)"/>
       <use xlink:href="#DejaVuSans-30" transform="translate(127.246094 0)"/>
       <use xlink:href="#DejaVuSans-30" transform="translate(190.869141 0)"/>
      </g>
     </g>
    </g>
    <g id="ytick_4">
     <g id="line2d_11">
      <path d="M 37.06 226.259903 
L 595.06 226.259903 
" clip-path="url(#p1877af8e83)" style="fill: none; stroke-dasharray: 1.85,0.8; stroke-dashoffset: 0; stroke: #808080; stroke-width: 0.5"/>
     </g>
     <g id="text_11">
      <!-- 3000 -->
      <g style="fill: #262626" transform="translate(7.2 229.299278) scale(0.08 -0.08)">
       <defs>
        <path id="DejaVuSans-33" d="M 2597 2516 
Q 3050 2419 3304 2112 
Q 3559 1806 3559 1356 
Q 3559 666 3084 287 
Q 2609 -91 1734 -91 
Q 1441 -91 1130 -33 
Q 819 25 488 141 
L 488 750 
Q 750 597 1062 519 
Q 1375 441 1716 441 
Q 2309 441 2620 675 
Q 2931 909 2931 1356 
Q 2931 1769 2642 2001 
Q 2353 2234 1838 2234 
L 1294 2234 
L 1294 2753 
L 1863 2753 
Q 2328 2753 2575 2939 
Q 2822 3125 2822 3475 
Q 2822 3834 2567 4026 
Q 2313 4219 1838 4219 
Q 1578 4219 1281 4162 
Q 984 4106 628 3988 
L 628 4550 
Q 988 4650 1302 4700 
Q 1616 4750 1894 4750 
Q 2613 4750 3031 4423 
Q 3450 4097 3450 3541 
Q 3450 3153 3228 2886 
Q 3006 2619 2597 2516 
z
" transform="scale(0.015625)"/>
       </defs>
       <use xlink:href="#DejaVuSans-33"/>
       <use xlink:href="#DejaVuSans-30" transform="translate(63.623047 0)"/>
       <use xlink:href="#DejaVuSans-30" transform="translate(127.246094 0)"/>
       <use xlink:href="#DejaVuSans-30" transform="translate(190.869141 0)"/>
      </g>
     </g>
    </g>
    <g id="ytick_5">
     <g id="line2d_12">
      <path d="M 37.06 187.927445 
L 595.06 187.927445 
" clip-path="url(#p1877af8e83)" style="fill: none; stroke-dasharray: 1.85,0.8; stroke-dashoffset: 0; stroke: #808080; stroke-width: 0.5"/>
     </g>
     <g id="text_12">
      <!-- 4000 -->
      <g style="fill: #262626" transform="translate(7.2 190.96682) scale(0.08 -0.08)">
       <defs>
        <path id="DejaVuSans-34" d="M 2419 4116 
L 825 1625 
L 2419 1625 
L 2419 4116 
z
M 2253 4666 
L 3047 4666 
L 3047 1625 
L 3713 1625 
L 3713 1100 
L 3047 1100 
L 3047 0 
L 2419 0 
L 2419 1100 
L 313 1100 
L 313 1709 
L 2253 4666 
z
" transform="scale(0.015625)"/>
       </defs>
       <use xlink:href="#DejaVuSans-34"/>
       <use xlink:href="#DejaVuSans-30" transform="translate(63.623047 0)"/>
       <use xlink:href="#DejaVuSans-30" transform="translate(127.246094 0)"/>
       <use xlink:href="#DejaVuSans-30" transform="translate(190.869141 0)"/>
      </g>
     </g>
    </g>
    <g id="ytick_6">
     <g id="line2d_13">
      <path d="M 37.06 149.594988 
L 595.06 149.594988 
" clip-path="url(#p1877af8e83)" style="fill: none; stroke-dasharray: 1.85,0.8; stroke-dashoffset: 0; stroke: #808080; stroke-width: 0.5"/>
     </g>
     <g id="text_13">
      <!-- 5000 -->
      <g style="fill: #262626" transform="translate(7.2 152.634363) scale(0.08 -0.08)">
       <use xlink:href="#DejaVuSans-35"/>
       <use xlink:href="#DejaVuSans-30" transform="translate(63.623047 0)"/>
       <use xlink:href="#DejaVuSans-30" transform="translate(127.246094 0)"/>
       <use xlink:href="#DejaVuSans-30" transform="translate(190.869141 0)"/>
      </g>
     </g>
    </g>
    <g id="ytick_7">
     <g id="line2d_14">
      <path d="M 37.06 111.26253 
L 595.06 111.26253 
" clip-path="url(#p1877af8e83)" style="fill: none; stroke-dasharray: 1.85,0.8; stroke-dashoffset: 0; stroke: #808080; stroke-width: 0.5"/>
     </g>
     <g id="text_14">
      <!-- 6000 -->
      <g style="fill: #262626" transform="translate(7.2 114.301905) scale(0.08 -0.08)">
       <use xlink:href="#DejaVuSans-36"/>
       <use xlink:href="#DejaVuSans-30" transform="translate(63.623047 0)"/>
       <use xlink:href="#DejaVuSans-30" transform="translate(127.246094 0)"/>
       <use xlink:href="#DejaVuSans-30" transform="translate(190.869141 0)"/>
      </g>
     </g>
    </g>
    <g id="ytick_8">
     <g id="line2d_15">
      <path d="M 37.06 72.930073 
L 595.06 72.930073 
" clip-path="url(#p1877af8e83)" style="fill: none; stroke-dasharray: 1.85,0.8; stroke-dashoffset: 0; stroke: #808080; stroke-width: 0.5"/>
     </g>
     <g id="text_15">
      <!-- 7000 -->
      <g style="fill: #262626" transform="translate(7.2 75.969448) scale(0.08 -0.08)">
       <use xlink:href="#DejaVuSans-37"/>
       <use xlink:href="#DejaVuSans-30" transform="translate(63.623047 0)"/>
       <use xlink:href="#DejaVuSans-30" transform="translate(127.246094 0)"/>
       <use xlink:href="#DejaVuSans-30" transform="translate(190.869141 0)"/>
      </g>
     </g>
    </g>
    <g id="ytick_9">
     <g id="line2d_16">
      <path d="M 37.06 34.597615 
L 595.06 34.597615 
" clip-path="url(#p1877af8e83)" style="fill: none; stroke-dasharray: 1.85,0.8; stroke-dashoffset: 0; stroke: #808080; stroke-width: 0.5"/>
     </g>
     <g id="text_16">
      <!-- 8000 -->
      <g style="fill: #262626" transform="translate(7.2 37.63699) scale(0.08 -0.08)">
       <use xlink:href="#DejaVuSans-38"/>
       <use xlink:href="#DejaVuSans-30" transform="translate(63.623047 0)"/>
       <use xlink:href="#DejaVuSans-30" transform="translate(127.246094 0)"/>
       <use xlink:href="#DejaVuSans-30" transform="translate(190.869141 0)"/>
      </g>
     </g>
    </g>
   </g>
   <g id="FillBetweenPolyCollection_1">
    <defs>
     <path id="m6873a8b6ac" d="M 561.720978 -100.311439 
L 561.720978 -39.707583 
L 562.461208 -39.698973 
L 563.129804 -39.578075 
L 563.870034 -39.5625 
L 564.586386 -39.649655 
L 565.326616 -40.904091 
L 566.042968 -40.101247 
L 566.783199 -41.224059 
L 567.523429 -48.188525 
L 568.239781 -41.732682 
L 568.980012 -39.710436 
L 569.696364 -39.597971 
L 569.696364 -78.756815 
L 569.696364 -78.756815 
L 568.980012 -113.580614 
L 568.239781 -215.241559 
L 567.523429 -341.9625 
L 566.783199 -199.215371 
L 566.042968 -150.01405 
L 565.326616 -187.698825 
L 564.586386 -98.705024 
L 563.870034 -64.312727 
L 563.129804 -69.781566 
L 562.461208 -108.932872 
L 561.720978 -100.311439 
z
" style="stroke: #b9445f; stroke-opacity: 0.2"/>
    </defs>
    <g clip-path="url(#p1877af8e83)">
     <use xlink:href="#m6873a8b6ac" x="0" y="380.920312" style="fill: #b9445f; fill-opacity: 0.2; stroke: #b9445f; stroke-opacity: 0.2"/>
    </g>
   </g>
   <g id="line2d_17">
    <path d="M 62.423636 334.587428 
L 63.163867 318.564461 
L 63.880219 341.257275 
L 66.769505 339.45565 
L 67.485857 336.005729 
L 68.226088 275.82377 
L 68.94244 304.803108 
L 69.68267 297.174949 
L 70.4229 273.63882 
L 71.139252 282.531951 
L 71.879483 327.687586 
L 72.595835 341.257275 
L 74.076296 336.082394 
L 74.744891 339.570647 
L 75.485121 329.182551 
L 76.941703 228.904842 
L 77.658055 267.927284 
L 78.398286 275.938768 
L 79.138516 262.484075 
L 79.854868 284.601903 
L 80.595099 323.969337 
L 81.311451 341.257275 
L 82.051681 340.873951 
L 82.791911 341.257275 
L 83.460507 341.257275 
L 84.200737 337.194035 
L 84.917089 303.231478 
L 85.657319 283.566927 
L 86.373671 239.177941 
L 87.113902 209.470286 
L 87.854132 203.835415 
L 88.570484 311.894613 
L 89.310715 332.709137 
L 90.027067 331.520831 
L 90.767297 320.902741 
L 91.507527 339.14899 
L 92.200001 341.257275 
L 92.940231 301.774844 
L 94.396814 251.252665 
L 95.113166 292.383392 
L 95.853396 269.920572 
L 96.593627 279.197027 
L 97.309979 324.429327 
L 98.050209 339.953972 
L 98.766561 341.257275 
L 99.506791 341.257275 
L 100.247022 327.112599 
L 100.915617 341.065613 
L 101.655847 312.4696 
L 102.372199 331.060842 
L 103.11243 283.605259 
L 103.828782 296.139973 
L 104.569012 301.429852 
L 105.309243 258.382502 
L 106.025595 313.312914 
L 106.765825 341.257275 
L 107.482177 341.257275 
L 108.222407 304.841441 
L 109.631233 341.257275 
L 110.371463 337.692357 
L 111.087815 331.214172 
L 111.828046 296.599962 
L 112.544398 290.696764 
L 113.284628 262.330745 
L 114.024859 212.038561 
L 114.741211 288.051824 
L 115.481441 284.410241 
L 116.197793 328.300905 
L 116.938023 336.772378 
L 117.678254 340.107302 
L 118.346849 341.257275 
L 119.087079 310.897969 
L 119.803431 312.929589 
L 120.543662 229.709824 
L 121.260014 288.205154 
L 122.000244 244.851145 
L 122.740474 302.426496 
L 123.456826 295.066664 
L 124.197057 341.257275 
L 124.913409 341.257275 
L 125.653639 339.378985 
L 126.39387 341.257275 
L 127.086343 340.567291 
L 127.826574 336.427386 
L 128.542926 329.297549 
L 129.283156 301.468185 
L 129.999508 253.705942 
L 130.739738 272.642176 
L 131.479969 272.335517 
L 132.936551 335.009085 
L 133.652903 340.452294 
L 134.393134 336.465718 
L 135.133364 341.257275 
L 135.801959 337.769022 
L 136.54219 337.960684 
L 137.258542 329.297549 
L 137.998772 289.738453 
L 138.715124 275.670441 
L 139.455354 310.821304 
L 140.195585 268.003949 
L 140.911937 316.99283 
L 141.652167 320.787743 
L 142.368519 337.079038 
L 143.10875 341.257275 
L 144.517575 341.257275 
L 145.257806 313.466244 
L 145.974158 300.356543 
L 146.714388 282.723613 
L 147.43074 318.641126 
L 148.17097 291.88507 
L 148.911201 284.525238 
L 149.627553 300.893198 
L 150.367783 321.976049 
L 151.084135 337.155703 
L 151.824366 341.257275 
L 152.564596 341.257275 
L 153.233191 337.807354 
L 153.973422 339.14899 
L 154.689774 312.00961 
L 155.430004 271.415538 
L 156.146356 243.701171 
L 156.886586 260.797447 
L 157.626817 300.126549 
L 158.343169 283.221935 
L 159.083399 336.389053 
L 159.799751 341.257275 
L 160.539982 339.800642 
L 161.280212 341.257275 
L 161.972686 336.96404 
L 162.712916 328.990889 
L 163.429268 277.893723 
L 164.169498 253.97427 
L 164.88585 296.983287 
L 165.626081 260.68245 
L 166.366311 255.814228 
L 167.082663 334.510763 
L 167.822893 331.865823 
L 168.539245 341.142278 
L 169.279476 334.817423 
L 170.688301 339.225655 
L 171.428532 329.067554 
L 172.144884 299.666559 
L 172.885114 305.531425 
L 173.601466 289.163466 
L 174.341697 206.288692 
L 175.081927 290.428437 
L 175.798279 298.669915 
L 176.538509 323.624345 
L 177.254861 335.622404 
L 177.995092 339.992304 
L 178.735322 337.462362 
L 182.317082 269.57558 
L 183.057313 267.582292 
L 183.797543 285.713544 
L 184.513895 329.144219 
L 185.254125 340.375629 
L 185.970477 340.873951 
L 186.710708 321.171068 
L 187.450938 341.257275 
L 188.119533 337.347365 
L 188.859764 320.519416 
L 189.576116 321.171068 
L 190.316346 249.681034 
L 191.032698 333.782446 
L 191.772929 274.635464 
L 192.513159 291.386748 
L 193.229511 288.473481 
L 193.969741 339.60898 
L 194.686093 340.682289 
L 195.426324 340.375629 
L 196.166554 336.657381 
L 196.859028 340.452294 
L 197.599258 315.881189 
L 198.31561 314.386223 
L 199.055841 242.091208 
L 199.772193 308.368027 
L 200.512423 314.846212 
L 201.252653 317.184492 
L 201.969005 295.488321 
L 202.709236 339.187323 
L 203.425588 335.200747 
L 204.165818 334.93242 
L 204.906049 341.257275 
L 205.574644 327.91758 
L 206.314874 337.155703 
L 207.031226 318.526128 
L 207.771456 317.184492 
L 208.487808 282.761945 
L 209.228039 162.091369 
L 210.684621 315.612861 
L 211.424852 341.257275 
L 212.141204 326.537612 
L 212.881434 341.257275 
L 213.621664 341.142278 
L 214.29026 341.257275 
L 215.03049 341.142278 
L 215.746842 327.610921 
L 216.487072 248.147736 
L 217.203424 266.317321 
L 217.943655 294.108353 
L 218.683885 259.417479 
L 219.400237 321.631057 
L 220.140468 336.887375 
L 220.85682 341.257275 
L 222.33728 341.257275 
L 223.005876 337.309032 
L 223.746106 335.967396 
L 224.462458 325.617633 
L 225.202688 275.210451 
L 225.91904 304.381451 
L 226.659271 268.923928 
L 227.399501 225.608251 
L 228.115853 294.68334 
L 228.856084 339.110658 
L 229.572436 336.197391 
L 231.052896 341.257275 
L 231.74537 332.977465 
L 232.4856 329.834203 
L 233.201952 299.551562 
L 233.942183 214.108514 
L 234.658535 245.771124 
L 235.398765 302.924818 
L 236.138996 237.874637 
L 236.855348 311.817948 
L 237.595578 331.789158 
L 238.31193 338.727333 
L 239.05216 341.257275 
L 239.792391 338.612336 
L 240.460986 341.257275 
L 241.201216 330.639185 
L 241.917568 310.207985 
L 242.657799 256.350882 
L 243.374151 233.159745 
L 244.114381 281.956964 
L 244.854612 269.345585 
L 245.570964 296.139973 
L 246.311194 340.873951 
L 247.027546 340.490626 
L 247.767776 340.643956 
L 248.508007 341.257275 
L 249.176602 337.654024 
L 249.916832 330.40919 
L 250.633184 319.906097 
L 251.373415 265.972329 
L 252.089767 273.983812 
L 252.829997 324.697654 
L 253.570227 272.028857 
L 254.286579 335.277412 
L 255.02681 340.183967 
L 255.743162 341.257275 
L 256.483392 340.068969 
L 257.223623 341.257275 
L 258.632448 341.257275 
L 260.089031 261.679094 
L 260.805383 240.327915 
L 261.545613 306.834729 
L 262.285843 270.993881 
L 263.002195 299.858221 
L 263.742426 337.654024 
L 264.458778 341.257275 
L 265.199008 341.257275 
L 265.939239 339.378985 
L 266.631712 341.065613 
L 267.371943 332.210815 
L 268.088295 313.197917 
L 268.828525 284.946895 
L 269.544877 234.501381 
L 270.285107 298.43992 
L 271.025338 309.556333 
L 271.74169 278.507042 
L 272.48192 327.91758 
L 273.198272 340.835618 
L 273.938503 335.890731 
L 274.678733 338.382341 
L 275.347328 333.360789 
L 276.087559 338.229011 
L 277.544141 210.62026 
L 278.260493 319.369442 
L 279.740954 251.980982 
L 280.457306 325.349306 
L 281.197536 336.849043 
L 281.913888 339.187323 
L 282.654119 338.803998 
L 283.394349 339.187323 
L 284.062944 324.659321 
L 284.803175 336.96404 
L 285.519527 328.147575 
L 286.259757 227.371544 
L 286.976109 314.462888 
L 287.716339 308.904681 
L 288.45657 222.809982 
L 289.172922 328.875892 
L 289.913152 338.880663 
L 290.629504 341.257275 
L 291.369735 341.257275 
L 292.109965 334.357433 
L 292.77856 341.142278 
L 293.518791 329.297549 
L 294.235143 308.904681 
L 294.975373 318.334466 
L 295.691725 281.841966 
L 296.431955 296.56163 
L 297.172186 270.725554 
L 297.888538 335.775734 
L 298.628768 338.727333 
L 299.34512 338.497339 
L 300.08535 321.094403 
L 300.825581 341.257275 
L 301.518054 341.257275 
L 302.258285 336.159059 
L 302.974637 310.629642 
L 303.714867 300.701535 
L 304.431219 275.402113 
L 305.17145 260.06913 
L 305.91168 287.170178 
L 306.628032 328.607564 
L 307.368262 323.126023 
L 308.084614 341.065613 
L 308.824845 332.59414 
L 309.565075 331.712494 
L 310.23367 326.882604 
L 310.973901 325.847628 
L 311.690253 311.281294 
L 312.430483 201.42047 
L 313.146835 247.572749 
L 313.887066 284.065249 
L 314.627296 307.524713 
L 315.343648 326.307617 
L 316.083878 340.873951 
L 316.80023 340.682289 
L 317.540461 341.257275 
L 318.280691 332.402478 
L 318.949286 339.033993 
L 319.689517 332.057486 
L 320.405869 289.163466 
L 321.146099 308.291362 
L 321.862451 310.859637 
L 322.602682 293.111709 
L 323.342912 324.199332 
L 324.059264 302.886485 
L 324.799494 341.027281 
L 325.515846 341.257275 
L 326.256077 337.769022 
L 326.996307 325.809295 
L 327.664902 334.702425 
L 328.405133 341.257275 
L 329.121485 337.079038 
L 329.861715 284.026916 
L 331.318298 302.349831 
L 332.058528 252.210977 
L 332.77488 321.592725 
L 333.51511 334.855755 
L 334.231462 336.005729 
L 334.971693 330.639185 
L 335.711923 337.232367 
L 336.404397 335.699069 
L 337.144627 341.257275 
L 337.860979 306.796396 
L 338.601209 255.009246 
L 339.317561 282.340288 
L 340.057792 271.990525 
L 340.798022 219.36006 
L 341.514374 323.54768 
L 342.254605 341.257275 
L 342.970957 341.257275 
L 343.711187 341.142278 
L 345.120013 337.11737 
L 346.576595 309.939658 
L 347.316825 261.487431 
L 348.033177 273.217163 
L 348.773408 304.994771 
L 349.513638 266.202324 
L 350.22999 331.252504 
L 350.970221 334.740758 
L 351.686573 340.682289 
L 352.426803 341.257275 
L 353.167033 336.389053 
L 353.835629 341.257275 
L 354.575859 316.111183 
L 355.292211 307.984702 
L 356.032441 265.129015 
L 356.748793 275.862103 
L 357.489024 314.769547 
L 358.229254 303.614802 
L 360.402189 341.065613 
L 361.142419 341.257275 
L 361.882649 341.257275 
L 362.551245 328.722562 
L 363.291475 328.837559 
L 364.007827 322.397706 
L 364.748057 236.839661 
L 365.464409 283.14527 
L 366.20464 317.452819 
L 366.94487 297.558274 
L 367.661222 340.758954 
L 368.401453 340.950616 
L 369.117805 341.257275 
L 369.858035 341.257275 
L 370.598265 334.93242 
L 372.030969 341.257275 
L 372.747321 326.422614 
L 373.487552 265.435674 
L 374.203904 298.286591 
L 374.944134 251.942649 
L 375.684365 278.852035 
L 376.400717 338.420674 
L 377.140947 341.257275 
L 378.597529 341.257275 
L 379.33776 340.758954 
L 380.006355 339.378985 
L 380.746585 337.462362 
L 381.462937 307.63971 
L 382.203168 281.611972 
L 382.91952 314.769547 
L 383.65975 221.161686 
L 384.39998 302.119836 
L 385.116332 305.109768 
L 385.856563 340.873951 
L 386.572915 339.685645 
L 387.313145 341.065613 
L 388.053376 335.584072 
L 388.721971 340.183967 
L 389.462201 327.879248 
L 390.918784 259.992465 
L 391.635136 251.32933 
L 392.375366 312.584597 
L 393.115596 275.325448 
L 393.831948 302.733156 
L 394.572179 340.183967 
L 395.288531 341.257275 
L 397.437587 341.257275 
L 398.177817 335.699069 
L 398.894169 306.183077 
L 399.6344 242.512865 
L 400.350752 278.852035 
L 401.090982 302.96315 
L 401.831212 268.808931 
L 402.547564 291.73174 
L 403.287795 333.169127 
L 404.004147 341.257275 
L 404.744377 305.378095 
L 405.484608 334.970752 
L 406.177081 337.769022 
L 406.917312 332.210815 
L 407.633664 287.745165 
L 408.373894 306.604734 
L 409.090246 234.271386 
L 409.830476 252.172644 
L 410.570707 277.970388 
L 411.287059 293.265039 
L 412.743641 340.183967 
L 413.483872 341.257275 
L 414.224102 340.260632 
L 414.892697 340.183967 
L 415.632928 335.315745 
L 416.34928 338.114014 
L 417.08951 249.527705 
L 417.805862 282.416953 
L 418.546092 301.698179 
L 419.286323 246.729435 
L 420.002675 328.875892 
L 420.742905 334.47243 
L 421.459257 341.257275 
L 422.199488 337.040705 
L 422.939718 341.257275 
L 423.608313 341.257275 
L 424.348544 335.469074 
L 425.805126 258.152508 
L 426.521478 295.679983 
L 427.261708 258.114175 
L 428.001939 284.716901 
L 428.718291 293.840025 
L 429.458521 339.570647 
L 430.174873 341.257275 
L 430.915103 330.064198 
L 431.655334 340.682289 
L 432.323929 331.789158 
L 433.064159 334.510763 
L 433.780511 252.210977 
L 434.520742 279.657016 
L 435.237094 278.737037 
L 435.977324 196.89724 
L 436.717555 281.765301 
L 438.890489 322.934361 
L 439.630719 341.257275 
L 441.063423 341.257275 
L 441.803654 330.792515 
L 442.520006 319.02445 
L 443.260236 269.767242 
L 443.976588 290.620099 
L 444.716819 246.8061 
L 445.457049 276.628752 
L 446.173401 316.609505 
L 446.913631 341.257275 
L 447.629983 337.922352 
L 448.370214 341.257275 
L 449.110444 341.142278 
L 449.779039 320.557748 
L 450.51927 316.187848 
L 451.235622 301.736512 
L 451.975852 291.961735 
L 452.692204 291.73174 
L 453.432435 279.043697 
L 454.172665 257.654186 
L 455.629247 337.385697 
L 456.345599 335.814067 
L 457.08583 341.257275 
L 457.82606 340.758954 
L 458.494655 341.257275 
L 459.234886 339.992304 
L 459.951238 337.2707 
L 460.691468 299.321567 
L 461.40782 305.378095 
L 462.148051 262.944065 
L 462.888281 207.975321 
L 463.604633 302.886485 
L 464.344863 330.869179 
L 465.061215 341.257275 
L 465.801446 341.257275 
L 466.541676 340.950616 
L 467.210271 340.452294 
L 467.950502 330.907512 
L 468.666854 305.646422 
L 469.407084 290.121777 
L 470.123436 256.082555 
L 470.863666 259.685806 
L 471.603897 297.021619 
L 472.320249 298.478253 
L 473.060479 339.992304 
L 473.776831 341.257275 
L 474.517062 341.257275 
L 475.257292 340.375629 
L 475.949766 340.873951 
L 476.689996 329.642541 
L 477.406348 292.651719 
L 478.146578 274.942124 
L 478.86293 300.241546 
L 479.603161 303.461472 
L 480.343391 209.738614 
L 481.059743 324.390994 
L 481.799974 339.570647 
L 482.516326 340.375629 
L 483.256556 339.992304 
L 483.996786 340.950616 
L 484.665382 336.389053 
L 485.405612 318.679458 
L 486.121964 314.309558 
L 486.862194 270.265564 
L 487.578546 276.43709 
L 488.318777 298.554918 
L 489.059007 237.644643 
L 489.775359 333.05413 
L 490.51559 340.183967 
L 491.231942 339.992304 
L 491.972172 331.329169 
L 492.712402 334.740758 
L 493.380998 335.622404 
L 494.121228 333.130794 
L 494.83758 323.70101 
L 495.57781 267.007305 
L 496.294162 306.834729 
L 497.034393 319.216112 
L 497.774623 266.853975 
L 498.490975 313.772903 
L 499.947558 341.257275 
L 501.428018 341.257275 
L 502.096614 339.953972 
L 502.836844 338.229011 
L 503.553196 318.334466 
L 504.293426 208.205315 
L 505.009778 323.85434 
L 505.750009 251.444327 
L 506.490239 273.255496 
L 507.206591 270.112234 
L 507.946822 330.064198 
L 508.663174 341.257275 
L 509.403404 331.520831 
L 510.143634 340.873951 
L 510.836108 337.2707 
L 511.576338 325.694298 
L 512.29269 294.491677 
L 513.032921 270.878883 
L 513.749273 272.948836 
L 514.489503 296.523298 
L 515.229733 230.821465 
L 515.946085 314.002898 
L 516.686316 341.065613 
L 517.402668 341.257275 
L 518.883129 341.257275 
L 519.551724 332.824135 
L 520.291954 333.437454 
L 521.008306 308.751351 
L 521.748537 313.197917 
L 522.464889 289.163466 
L 523.205119 284.908563 
L 523.945349 322.397706 
L 524.661701 325.5793 
L 525.401932 335.200747 
L 526.118284 341.257275 
L 526.858514 340.950616 
L 527.598745 341.257275 
L 528.26734 335.315745 
L 531.180505 267.2373 
L 531.920735 277.625396 
L 532.660965 301.314855 
L 533.377317 312.699595 
L 534.117548 332.670805 
L 534.8339 340.950616 
L 535.57413 339.033993 
L 536.314361 328.07091 
L 536.982956 341.257275 
L 537.723186 326.03929 
L 538.439538 281.688636 
L 542.092933 324.582656 
L 542.833164 340.567291 
L 543.549516 341.257275 
L 544.289746 341.257275 
L 545.029977 339.877307 
L 545.72245 339.800642 
L 546.462681 334.012441 
L 547.179033 331.367501 
L 547.919263 235.191365 
L 548.635615 270.763886 
L 549.375845 300.279878 
L 550.116076 268.310609 
L 550.832428 322.934361 
L 551.572658 339.225655 
L 552.28901 341.257275 
L 553.769471 335.584072 
L 554.438066 340.950616 
L 555.178297 338.803998 
L 555.894648 324.544324 
L 556.634879 240.55791 
L 557.351231 303.998127 
L 558.091461 284.755233 
L 558.831692 220.088377 
L 559.548044 295.641651 
L 560.288274 335.315745 
L 561.004626 339.30232 
L 561.004626 339.30232 
" clip-path="url(#p1877af8e83)" style="fill: none; stroke: #194a7a; stroke-width: 1.2; stroke-linecap: round"/>
   </g>
   <g id="line2d_18">
    <path d="M 561.720978 333.99738 
L 562.461208 333.293643 
L 563.129804 339.545427 
L 563.870034 340.147518 
L 564.586386 335.34955 
L 565.326616 315.227989 
L 566.042968 324.719544 
L 566.783199 312.151038 
L 567.523429 267.842868 
L 568.239781 307.716462 
L 568.980012 332.645258 
L 569.696364 338.480208 
" clip-path="url(#p1877af8e83)" style="fill: none; stroke: #b60033; stroke-width: 1.2; stroke-linecap: round"/>
   </g>
   <g id="patch_3">
    <path d="M 37.06 356.477812 
L 37.06 23.837812 
" style="fill: none; stroke: #cccccc; stroke-width: 1.25; stroke-linejoin: miter; stroke-linecap: square"/>
   </g>
   <g id="patch_4">
    <path d="M 595.06 356.477812 
L 595.06 23.837812 
" style="fill: none; stroke: #cccccc; stroke-width: 1.25; stroke-linejoin: miter; stroke-linecap: square"/>
   </g>
   <g id="patch_5">
    <path d="M 37.06 356.477812 
L 595.06 356.477812 
" style="fill: none; stroke: #cccccc; stroke-width: 1.25; stroke-linejoin: miter; stroke-linecap: square"/>
   </g>
   <g id="patch_6">
    <path d="M 37.06 23.837812 
L 595.06 23.837812 
" style="fill: none; stroke: #cccccc; stroke-width: 1.25; stroke-linejoin: miter; stroke-linecap: square"/>
   </g>
   <g id="text_17">
    <!-- Pronóstico con SARIMAX -->
    <g style="fill: #262626" transform="translate(218.956875 17.837812) scale(0.14 -0.14)">
     <defs>
      <path id="DejaVuSans-Bold-50" d="M 588 4666 
L 2584 4666 
Q 3475 4666 3951 4270 
Q 4428 3875 4428 3144 
Q 4428 2409 3951 2014 
Q 3475 1619 2584 1619 
L 1791 1619 
L 1791 0 
L 588 0 
L 588 4666 
z
M 1791 3794 
L 1791 2491 
L 2456 2491 
Q 2806 2491 2997 2661 
Q 3188 2831 3188 3144 
Q 3188 3456 2997 3625 
Q 2806 3794 2456 3794 
L 1791 3794 
z
" transform="scale(0.015625)"/>
      <path id="DejaVuSans-Bold-72" d="M 3138 2547 
Q 2991 2616 2845 2648 
Q 2700 2681 2553 2681 
Q 2122 2681 1889 2404 
Q 1656 2128 1656 1613 
L 1656 0 
L 538 0 
L 538 3500 
L 1656 3500 
L 1656 2925 
Q 1872 3269 2151 3426 
Q 2431 3584 2822 3584 
Q 2878 3584 2943 3579 
Q 3009 3575 3134 3559 
L 3138 2547 
z
" transform="scale(0.015625)"/>
      <path id="DejaVuSans-Bold-6f" d="M 2203 2784 
Q 1831 2784 1636 2517 
Q 1441 2250 1441 1747 
Q 1441 1244 1636 976 
Q 1831 709 2203 709 
Q 2569 709 2762 976 
Q 2956 1244 2956 1747 
Q 2956 2250 2762 2517 
Q 2569 2784 2203 2784 
z
M 2203 3584 
Q 3106 3584 3614 3096 
Q 4122 2609 4122 1747 
Q 4122 884 3614 396 
Q 3106 -91 2203 -91 
Q 1297 -91 786 396 
Q 275 884 275 1747 
Q 275 2609 786 3096 
Q 1297 3584 2203 3584 
z
" transform="scale(0.015625)"/>
      <path id="DejaVuSans-Bold-6e" d="M 4056 2131 
L 4056 0 
L 2931 0 
L 2931 347 
L 2931 1631 
Q 2931 2084 2911 2256 
Q 2891 2428 2841 2509 
Q 2775 2619 2662 2680 
Q 2550 2741 2406 2741 
Q 2056 2741 1856 2470 
Q 1656 2200 1656 1722 
L 1656 0 
L 538 0 
L 538 3500 
L 1656 3500 
L 1656 2988 
Q 1909 3294 2193 3439 
Q 2478 3584 2822 3584 
Q 3428 3584 3742 3212 
Q 4056 2841 4056 2131 
z
" transform="scale(0.015625)"/>
      <path id="DejaVuSans-Bold-f3" d="M 2203 2784 
Q 1831 2784 1636 2517 
Q 1441 2250 1441 1747 
Q 1441 1244 1636 976 
Q 1831 709 2203 709 
Q 2569 709 2762 976 
Q 2956 1244 2956 1747 
Q 2956 2250 2762 2517 
Q 2569 2784 2203 2784 
z
M 2203 3584 
Q 3106 3584 3614 3096 
Q 4122 2609 4122 1747 
Q 4122 884 3614 396 
Q 3106 -91 2203 -91 
Q 1297 -91 786 396 
Q 275 884 275 1747 
Q 275 2609 786 3096 
Q 1297 3584 2203 3584 
z
M 2694 5119 
L 3578 5119 
L 2425 3944 
L 1813 3944 
L 2694 5119 
z
" transform="scale(0.015625)"/>
      <path id="DejaVuSans-Bold-73" d="M 3272 3391 
L 3272 2541 
Q 2913 2691 2578 2766 
Q 2244 2841 1947 2841 
Q 1628 2841 1473 2761 
Q 1319 2681 1319 2516 
Q 1319 2381 1436 2309 
Q 1553 2238 1856 2203 
L 2053 2175 
Q 2913 2066 3209 1816 
Q 3506 1566 3506 1031 
Q 3506 472 3093 190 
Q 2681 -91 1863 -91 
Q 1516 -91 1145 -36 
Q 775 19 384 128 
L 384 978 
Q 719 816 1070 734 
Q 1422 653 1784 653 
Q 2113 653 2278 743 
Q 2444 834 2444 1013 
Q 2444 1163 2330 1236 
Q 2216 1309 1875 1350 
L 1678 1375 
Q 931 1469 631 1722 
Q 331 1975 331 2491 
Q 331 3047 712 3315 
Q 1094 3584 1881 3584 
Q 2191 3584 2531 3537 
Q 2872 3491 3272 3391 
z
" transform="scale(0.015625)"/>
      <path id="DejaVuSans-Bold-74" d="M 1759 4494 
L 1759 3500 
L 2913 3500 
L 2913 2700 
L 1759 2700 
L 1759 1216 
Q 1759 972 1856 886 
Q 1953 800 2241 800 
L 2816 800 
L 2816 0 
L 1856 0 
Q 1194 0 917 276 
Q 641 553 641 1216 
L 641 2700 
L 84 2700 
L 84 3500 
L 641 3500 
L 641 4494 
L 1759 4494 
z
" transform="scale(0.015625)"/>
      <path id="DejaVuSans-Bold-69" d="M 538 3500 
L 1656 3500 
L 1656 0 
L 538 0 
L 538 3500 
z
M 538 4863 
L 1656 4863 
L 1656 3950 
L 538 3950 
L 538 4863 
z
" transform="scale(0.015625)"/>
      <path id="DejaVuSans-Bold-63" d="M 3366 3391 
L 3366 2478 
Q 3138 2634 2908 2709 
Q 2678 2784 2431 2784 
Q 1963 2784 1702 2511 
Q 1441 2238 1441 1747 
Q 1441 1256 1702 982 
Q 1963 709 2431 709 
Q 2694 709 2930 787 
Q 3166 866 3366 1019 
L 3366 103 
Q 3103 6 2833 -42 
Q 2563 -91 2291 -91 
Q 1344 -91 809 395 
Q 275 881 275 1747 
Q 275 2613 809 3098 
Q 1344 3584 2291 3584 
Q 2566 3584 2833 3536 
Q 3100 3488 3366 3391 
z
" transform="scale(0.015625)"/>
      <path id="DejaVuSans-Bold-20" transform="scale(0.015625)"/>
      <path id="DejaVuSans-Bold-53" d="M 3834 4519 
L 3834 3531 
Q 3450 3703 3084 3790 
Q 2719 3878 2394 3878 
Q 1963 3878 1756 3759 
Q 1550 3641 1550 3391 
Q 1550 3203 1689 3098 
Q 1828 2994 2194 2919 
L 2706 2816 
Q 3484 2659 3812 2340 
Q 4141 2022 4141 1434 
Q 4141 663 3683 286 
Q 3225 -91 2284 -91 
Q 1841 -91 1394 -6 
Q 947 78 500 244 
L 500 1259 
Q 947 1022 1364 901 
Q 1781 781 2169 781 
Q 2563 781 2772 912 
Q 2981 1044 2981 1288 
Q 2981 1506 2839 1625 
Q 2697 1744 2272 1838 
L 1806 1941 
Q 1106 2091 782 2419 
Q 459 2747 459 3303 
Q 459 4000 909 4375 
Q 1359 4750 2203 4750 
Q 2588 4750 2994 4692 
Q 3400 4634 3834 4519 
z
" transform="scale(0.015625)"/>
      <path id="DejaVuSans-Bold-41" d="M 3419 850 
L 1538 850 
L 1241 0 
L 31 0 
L 1759 4666 
L 3194 4666 
L 4922 0 
L 3713 0 
L 3419 850 
z
M 1838 1716 
L 3116 1716 
L 2478 3572 
L 1838 1716 
z
" transform="scale(0.015625)"/>
      <path id="DejaVuSans-Bold-52" d="M 2297 2597 
Q 2675 2597 2839 2737 
Q 3003 2878 3003 3200 
Q 3003 3519 2839 3656 
Q 2675 3794 2297 3794 
L 1791 3794 
L 1791 2597 
L 2297 2597 
z
M 1791 1766 
L 1791 0 
L 588 0 
L 588 4666 
L 2425 4666 
Q 3347 4666 3776 4356 
Q 4206 4047 4206 3378 
Q 4206 2916 3982 2619 
Q 3759 2322 3309 2181 
Q 3556 2125 3751 1926 
Q 3947 1728 4147 1325 
L 4800 0 
L 3519 0 
L 2950 1159 
Q 2778 1509 2601 1637 
Q 2425 1766 2131 1766 
L 1791 1766 
z
" transform="scale(0.015625)"/>
      <path id="DejaVuSans-Bold-49" d="M 588 4666 
L 1791 4666 
L 1791 0 
L 588 0 
L 588 4666 
z
" transform="scale(0.015625)"/>
      <path id="DejaVuSans-Bold-4d" d="M 588 4666 
L 2119 4666 
L 3181 2169 
L 4250 4666 
L 5778 4666 
L 5778 0 
L 4641 0 
L 4641 3413 
L 3566 897 
L 2803 897 
L 1728 3413 
L 1728 0 
L 588 0 
L 588 4666 
z
" transform="scale(0.015625)"/>
      <path id="DejaVuSans-Bold-58" d="M 3188 2381 
L 4806 0 
L 3553 0 
L 2463 1594 
L 1381 0 
L 122 0 
L 1741 2381 
L 184 4666 
L 1441 4666 
L 2463 3163 
L 3481 4666 
L 4744 4666 
L 3188 2381 
z
" transform="scale(0.015625)"/>
     </defs>
     <use xlink:href="#DejaVuSans-Bold-50"/>
     <use xlink:href="#DejaVuSans-Bold-72" transform="translate(73.291016 0)"/>
     <use xlink:href="#DejaVuSans-Bold-6f" transform="translate(122.607422 0)"/>
     <use xlink:href="#DejaVuSans-Bold-6e" transform="translate(191.308594 0)"/>
     <use xlink:href="#DejaVuSans-Bold-f3" transform="translate(262.5 0)"/>
     <use xlink:href="#DejaVuSans-Bold-73" transform="translate(331.201172 0)"/>
     <use xlink:href="#DejaVuSans-Bold-74" transform="translate(390.722656 0)"/>
     <use xlink:href="#DejaVuSans-Bold-69" transform="translate(438.525391 0)"/>
     <use xlink:href="#DejaVuSans-Bold-63" transform="translate(472.802734 0)"/>
     <use xlink:href="#DejaVuSans-Bold-6f" transform="translate(532.080078 0)"/>
     <use xlink:href="#DejaVuSans-Bold-20" transform="translate(600.78125 0)"/>
     <use xlink:href="#DejaVuSans-Bold-63" transform="translate(635.595703 0)"/>
     <use xlink:href="#DejaVuSans-Bold-6f" transform="translate(694.873047 0)"/>
     <use xlink:href="#DejaVuSans-Bold-6e" transform="translate(763.574219 0)"/>
     <use xlink:href="#DejaVuSans-Bold-20" transform="translate(834.765625 0)"/>
     <use xlink:href="#DejaVuSans-Bold-53" transform="translate(869.580078 0)"/>
     <use xlink:href="#DejaVuSans-Bold-41" transform="translate(941.601562 0)"/>
     <use xlink:href="#DejaVuSans-Bold-52" transform="translate(1018.994141 0)"/>
     <use xlink:href="#DejaVuSans-Bold-49" transform="translate(1095.996094 0)"/>
     <use xlink:href="#DejaVuSans-Bold-4d" transform="translate(1133.203125 0)"/>
     <use xlink:href="#DejaVuSans-Bold-41" transform="translate(1232.714844 0)"/>
     <use xlink:href="#DejaVuSans-Bold-58" transform="translate(1310.107422 0)"/>
    </g>
   </g>
   <g id="legend_1">
    <g id="patch_7">
     <path d="M 44.76 81.075625 
L 232.043594 81.075625 
Q 234.243594 81.075625 234.243594 78.875625 
L 234.243594 31.537812 
Q 234.243594 29.337812 232.043594 29.337812 
L 44.76 29.337812 
Q 42.56 29.337812 42.56 31.537812 
L 42.56 78.875625 
Q 42.56 81.075625 44.76 81.075625 
z
" style="fill: #ffffff; opacity: 0.8; stroke: #cccccc; stroke-linejoin: miter"/>
    </g>
    <g id="line2d_19">
     <path d="M 46.96 38.246094 
L 57.96 38.246094 
L 68.96 38.246094 
" style="fill: none; stroke: #194a7a; stroke-width: 1.2; stroke-linecap: round"/>
    </g>
    <g id="text_18">
     <!-- Observado -->
     <g style="fill: #262626" transform="translate(77.76 42.096094) scale(0.11 -0.11)">
      <defs>
       <path id="DejaVuSans-4f" d="M 2522 4238 
Q 1834 4238 1429 3725 
Q 1025 3213 1025 2328 
Q 1025 1447 1429 934 
Q 1834 422 2522 422 
Q 3209 422 3611 934 
Q 4013 1447 4013 2328 
Q 4013 3213 3611 3725 
Q 3209 4238 2522 4238 
z
M 2522 4750 
Q 3503 4750 4090 4092 
Q 4678 3434 4678 2328 
Q 4678 1225 4090 567 
Q 3503 -91 2522 -91 
Q 1538 -91 948 565 
Q 359 1222 359 2328 
Q 359 3434 948 4092 
Q 1538 4750 2522 4750 
z
" transform="scale(0.015625)"/>
       <path id="DejaVuSans-62" d="M 3116 1747 
Q 3116 2381 2855 2742 
Q 2594 3103 2138 3103 
Q 1681 3103 1420 2742 
Q 1159 2381 1159 1747 
Q 1159 1113 1420 752 
Q 1681 391 2138 391 
Q 2594 391 2855 752 
Q 3116 1113 3116 1747 
z
M 1159 2969 
Q 1341 3281 1617 3432 
Q 1894 3584 2278 3584 
Q 2916 3584 3314 3078 
Q 3713 2572 3713 1747 
Q 3713 922 3314 415 
Q 2916 -91 2278 -91 
Q 1894 -91 1617 61 
Q 1341 213 1159 525 
L 1159 0 
L 581 0 
L 581 4863 
L 1159 4863 
L 1159 2969 
z
" transform="scale(0.015625)"/>
       <path id="DejaVuSans-73" d="M 2834 3397 
L 2834 2853 
Q 2591 2978 2328 3040 
Q 2066 3103 1784 3103 
Q 1356 3103 1142 2972 
Q 928 2841 928 2578 
Q 928 2378 1081 2264 
Q 1234 2150 1697 2047 
L 1894 2003 
Q 2506 1872 2764 1633 
Q 3022 1394 3022 966 
Q 3022 478 2636 193 
Q 2250 -91 1575 -91 
Q 1294 -91 989 -36 
Q 684 19 347 128 
L 347 722 
Q 666 556 975 473 
Q 1284 391 1588 391 
Q 1994 391 2212 530 
Q 2431 669 2431 922 
Q 2431 1156 2273 1281 
Q 2116 1406 1581 1522 
L 1381 1569 
Q 847 1681 609 1914 
Q 372 2147 372 2553 
Q 372 3047 722 3315 
Q 1072 3584 1716 3584 
Q 2034 3584 2315 3537 
Q 2597 3491 2834 3397 
z
" transform="scale(0.015625)"/>
       <path id="DejaVuSans-65" d="M 3597 1894 
L 3597 1613 
L 953 1613 
Q 991 1019 1311 708 
Q 1631 397 2203 397 
Q 2534 397 2845 478 
Q 3156 559 3463 722 
L 3463 178 
Q 3153 47 2828 -22 
Q 2503 -91 2169 -91 
Q 1331 -91 842 396 
Q 353 884 353 1716 
Q 353 2575 817 3079 
Q 1281 3584 2069 3584 
Q 2775 3584 3186 3129 
Q 3597 2675 3597 1894 
z
M 3022 2063 
Q 3016 2534 2758 2815 
Q 2500 3097 2075 3097 
Q 1594 3097 1305 2825 
Q 1016 2553 972 2059 
L 3022 2063 
z
" transform="scale(0.015625)"/>
       <path id="DejaVuSans-72" d="M 2631 2963 
Q 2534 3019 2420 3045 
Q 2306 3072 2169 3072 
Q 1681 3072 1420 2755 
Q 1159 2438 1159 1844 
L 1159 0 
L 581 0 
L 581 3500 
L 1159 3500 
L 1159 2956 
Q 1341 3275 1631 3429 
Q 1922 3584 2338 3584 
Q 2397 3584 2469 3576 
Q 2541 3569 2628 3553 
L 2631 2963 
z
" transform="scale(0.015625)"/>
       <path id="DejaVuSans-76" d="M 191 3500 
L 800 3500 
L 1894 563 
L 2988 3500 
L 3597 3500 
L 2284 0 
L 1503 0 
L 191 3500 
z
" transform="scale(0.015625)"/>
       <path id="DejaVuSans-61" d="M 2194 1759 
Q 1497 1759 1228 1600 
Q 959 1441 959 1056 
Q 959 750 1161 570 
Q 1363 391 1709 391 
Q 2188 391 2477 730 
Q 2766 1069 2766 1631 
L 2766 1759 
L 2194 1759 
z
M 3341 1997 
L 3341 0 
L 2766 0 
L 2766 531 
Q 2569 213 2275 61 
Q 1981 -91 1556 -91 
Q 1019 -91 701 211 
Q 384 513 384 1019 
Q 384 1609 779 1909 
Q 1175 2209 1959 2209 
L 2766 2209 
L 2766 2266 
Q 2766 2663 2505 2880 
Q 2244 3097 1772 3097 
Q 1472 3097 1187 3025 
Q 903 2953 641 2809 
L 641 3341 
Q 956 3463 1253 3523 
Q 1550 3584 1831 3584 
Q 2591 3584 2966 3190 
Q 3341 2797 3341 1997 
z
" transform="scale(0.015625)"/>
       <path id="DejaVuSans-64" d="M 2906 2969 
L 2906 4863 
L 3481 4863 
L 3481 0 
L 2906 0 
L 2906 525 
Q 2725 213 2448 61 
Q 2172 -91 1784 -91 
Q 1150 -91 751 415 
Q 353 922 353 1747 
Q 353 2572 751 3078 
Q 1150 3584 1784 3584 
Q 2172 3584 2448 3432 
Q 2725 3281 2906 2969 
z
M 947 1747 
Q 947 1113 1208 752 
Q 1469 391 1925 391 
Q 2381 391 2643 752 
Q 2906 1113 2906 1747 
Q 2906 2381 2643 2742 
Q 2381 3103 1925 3103 
Q 1469 3103 1208 2742 
Q 947 2381 947 1747 
z
" transform="scale(0.015625)"/>
       <path id="DejaVuSans-6f" d="M 1959 3097 
Q 1497 3097 1228 2736 
Q 959 2375 959 1747 
Q 959 1119 1226 758 
Q 1494 397 1959 397 
Q 2419 397 2687 759 
Q 2956 1122 2956 1747 
Q 2956 2369 2687 2733 
Q 2419 3097 1959 3097 
z
M 1959 3584 
Q 2709 3584 3137 3096 
Q 3566 2609 3566 1747 
Q 3566 888 3137 398 
Q 2709 -91 1959 -91 
Q 1206 -91 779 398 
Q 353 888 353 1747 
Q 353 2609 779 3096 
Q 1206 3584 1959 3584 
z
" transform="scale(0.015625)"/>
      </defs>
      <use xlink:href="#DejaVuSans-4f"/>
      <use xlink:href="#DejaVuSans-62" transform="translate(78.710938 0)"/>
      <use xlink:href="#DejaVuSans-73" transform="translate(142.1875 0)"/>
      <use xlink:href="#DejaVuSans-65" transform="translate(194.287109 0)"/>
      <use xlink:href="#DejaVuSans-72" transform="translate(255.810547 0)"/>
      <use xlink:href="#DejaVuSans-76" transform="translate(296.923828 0)"/>
      <use xlink:href="#DejaVuSans-61" transform="translate(356.103516 0)"/>
      <use xlink:href="#DejaVuSans-64" transform="translate(417.382812 0)"/>
      <use xlink:href="#DejaVuSans-6f" transform="translate(480.859375 0)"/>
     </g>
    </g>
    <g id="line2d_20">
     <path d="M 46.96 54.392031 
L 57.96 54.392031 
L 68.96 54.392031 
" style="fill: none; stroke: #b60033; stroke-width: 1.2; stroke-linecap: round"/>
    </g>
    <g id="text_19">
     <!-- Pronóstico -->
     <g style="fill: #262626" transform="translate(77.76 58.242031) scale(0.11 -0.11)">
      <defs>
       <path id="DejaVuSans-50" d="M 1259 4147 
L 1259 2394 
L 2053 2394 
Q 2494 2394 2734 2622 
Q 2975 2850 2975 3272 
Q 2975 3691 2734 3919 
Q 2494 4147 2053 4147 
L 1259 4147 
z
M 628 4666 
L 2053 4666 
Q 2838 4666 3239 4311 
Q 3641 3956 3641 3272 
Q 3641 2581 3239 2228 
Q 2838 1875 2053 1875 
L 1259 1875 
L 1259 0 
L 628 0 
L 628 4666 
z
" transform="scale(0.015625)"/>
       <path id="DejaVuSans-6e" d="M 3513 2113 
L 3513 0 
L 2938 0 
L 2938 2094 
Q 2938 2591 2744 2837 
Q 2550 3084 2163 3084 
Q 1697 3084 1428 2787 
Q 1159 2491 1159 1978 
L 1159 0 
L 581 0 
L 581 3500 
L 1159 3500 
L 1159 2956 
Q 1366 3272 1645 3428 
Q 1925 3584 2291 3584 
Q 2894 3584 3203 3211 
Q 3513 2838 3513 2113 
z
" transform="scale(0.015625)"/>
       <path id="DejaVuSans-f3" d="M 1959 3097 
Q 1497 3097 1228 2736 
Q 959 2375 959 1747 
Q 959 1119 1226 758 
Q 1494 397 1959 397 
Q 2419 397 2687 759 
Q 2956 1122 2956 1747 
Q 2956 2369 2687 2733 
Q 2419 3097 1959 3097 
z
M 1959 3584 
Q 2709 3584 3137 3096 
Q 3566 2609 3566 1747 
Q 3566 888 3137 398 
Q 2709 -91 1959 -91 
Q 1206 -91 779 398 
Q 353 888 353 1747 
Q 353 2609 779 3096 
Q 1206 3584 1959 3584 
z
M 2394 5119 
L 3016 5119 
L 1998 3944 
L 1519 3944 
L 2394 5119 
z
" transform="scale(0.015625)"/>
       <path id="DejaVuSans-74" d="M 1172 4494 
L 1172 3500 
L 2356 3500 
L 2356 3053 
L 1172 3053 
L 1172 1153 
Q 1172 725 1289 603 
Q 1406 481 1766 481 
L 2356 481 
L 2356 0 
L 1766 0 
Q 1100 0 847 248 
Q 594 497 594 1153 
L 594 3053 
L 172 3053 
L 172 3500 
L 594 3500 
L 594 4494 
L 1172 4494 
z
" transform="scale(0.015625)"/>
       <path id="DejaVuSans-69" d="M 603 3500 
L 1178 3500 
L 1178 0 
L 603 0 
L 603 3500 
z
M 603 4863 
L 1178 4863 
L 1178 4134 
L 603 4134 
L 603 4863 
z
" transform="scale(0.015625)"/>
       <path id="DejaVuSans-63" d="M 3122 3366 
L 3122 2828 
Q 2878 2963 2633 3030 
Q 2388 3097 2138 3097 
Q 1578 3097 1268 2742 
Q 959 2388 959 1747 
Q 959 1106 1268 751 
Q 1578 397 2138 397 
Q 2388 397 2633 464 
Q 2878 531 3122 666 
L 3122 134 
Q 2881 22 2623 -34 
Q 2366 -91 2075 -91 
Q 1284 -91 818 406 
Q 353 903 353 1747 
Q 353 2603 823 3093 
Q 1294 3584 2113 3584 
Q 2378 3584 2631 3529 
Q 2884 3475 3122 3366 
z
" transform="scale(0.015625)"/>
      </defs>
      <use xlink:href="#DejaVuSans-50"/>
      <use xlink:href="#DejaVuSans-72" transform="translate(58.552734 0)"/>
      <use xlink:href="#DejaVuSans-6f" transform="translate(97.416016 0)"/>
      <use xlink:href="#DejaVuSans-6e" transform="translate(158.597656 0)"/>
      <use xlink:href="#DejaVuSans-f3" transform="translate(221.976562 0)"/>
      <use xlink:href="#DejaVuSans-73" transform="translate(283.158203 0)"/>
      <use xlink:href="#DejaVuSans-74" transform="translate(335.257812 0)"/>
      <use xlink:href="#DejaVuSans-69" transform="translate(374.466797 0)"/>
      <use xlink:href="#DejaVuSans-63" transform="translate(402.25 0)"/>
      <use xlink:href="#DejaVuSans-6f" transform="translate(457.230469 0)"/>
     </g>
    </g>
    <g id="patch_8">
     <path d="M 46.96 74.387969 
L 68.96 74.387969 
L 68.96 66.687969 
L 46.96 66.687969 
z
" style="fill: #b9445f; fill-opacity: 0.2; stroke: #b9445f; stroke-opacity: 0.2; stroke-linejoin: miter"/>
    </g>
    <g id="text_20">
     <!-- Intervalo de Confianza 95% -->
     <g style="fill: #262626" transform="translate(77.76 74.387969) scale(0.11 -0.11)">
      <defs>
       <path id="DejaVuSans-49" d="M 628 4666 
L 1259 4666 
L 1259 0 
L 628 0 
L 628 4666 
z
" transform="scale(0.015625)"/>
       <path id="DejaVuSans-6c" d="M 603 4863 
L 1178 4863 
L 1178 0 
L 603 0 
L 603 4863 
z
" transform="scale(0.015625)"/>
       <path id="DejaVuSans-20" transform="scale(0.015625)"/>
       <path id="DejaVuSans-43" d="M 4122 4306 
L 4122 3641 
Q 3803 3938 3442 4084 
Q 3081 4231 2675 4231 
Q 1875 4231 1450 3742 
Q 1025 3253 1025 2328 
Q 1025 1406 1450 917 
Q 1875 428 2675 428 
Q 3081 428 3442 575 
Q 3803 722 4122 1019 
L 4122 359 
Q 3791 134 3420 21 
Q 3050 -91 2638 -91 
Q 1578 -91 968 557 
Q 359 1206 359 2328 
Q 359 3453 968 4101 
Q 1578 4750 2638 4750 
Q 3056 4750 3426 4639 
Q 3797 4528 4122 4306 
z
" transform="scale(0.015625)"/>
       <path id="DejaVuSans-66" d="M 2375 4863 
L 2375 4384 
L 1825 4384 
Q 1516 4384 1395 4259 
Q 1275 4134 1275 3809 
L 1275 3500 
L 2222 3500 
L 2222 3053 
L 1275 3053 
L 1275 0 
L 697 0 
L 697 3053 
L 147 3053 
L 147 3500 
L 697 3500 
L 697 3744 
Q 697 4328 969 4595 
Q 1241 4863 1831 4863 
L 2375 4863 
z
" transform="scale(0.015625)"/>
       <path id="DejaVuSans-7a" d="M 353 3500 
L 3084 3500 
L 3084 2975 
L 922 459 
L 3084 459 
L 3084 0 
L 275 0 
L 275 525 
L 2438 3041 
L 353 3041 
L 353 3500 
z
" transform="scale(0.015625)"/>
       <path id="DejaVuSans-25" d="M 4653 2053 
Q 4381 2053 4226 1822 
Q 4072 1591 4072 1178 
Q 4072 772 4226 539 
Q 4381 306 4653 306 
Q 4919 306 5073 539 
Q 5228 772 5228 1178 
Q 5228 1588 5073 1820 
Q 4919 2053 4653 2053 
z
M 4653 2450 
Q 5147 2450 5437 2106 
Q 5728 1763 5728 1178 
Q 5728 594 5436 251 
Q 5144 -91 4653 -91 
Q 4153 -91 3862 251 
Q 3572 594 3572 1178 
Q 3572 1766 3864 2108 
Q 4156 2450 4653 2450 
z
M 1428 4353 
Q 1159 4353 1004 4120 
Q 850 3888 850 3481 
Q 850 3069 1003 2837 
Q 1156 2606 1428 2606 
Q 1700 2606 1854 2837 
Q 2009 3069 2009 3481 
Q 2009 3884 1853 4118 
Q 1697 4353 1428 4353 
z
M 4250 4750 
L 4750 4750 
L 1831 -91 
L 1331 -91 
L 4250 4750 
z
M 1428 4750 
Q 1922 4750 2215 4408 
Q 2509 4066 2509 3481 
Q 2509 2891 2217 2550 
Q 1925 2209 1428 2209 
Q 931 2209 642 2551 
Q 353 2894 353 3481 
Q 353 4063 643 4406 
Q 934 4750 1428 4750 
z
" transform="scale(0.015625)"/>
      </defs>
      <use xlink:href="#DejaVuSans-49"/>
      <use xlink:href="#DejaVuSans-6e" transform="translate(29.492188 0)"/>
      <use xlink:href="#DejaVuSans-74" transform="translate(92.871094 0)"/>
      <use xlink:href="#DejaVuSans-65" transform="translate(132.080078 0)"/>
      <use xlink:href="#DejaVuSans-72" transform="translate(193.603516 0)"/>
      <use xlink:href="#DejaVuSans-76" transform="translate(234.716797 0)"/>
      <use xlink:href="#DejaVuSans-61" transform="translate(293.896484 0)"/>
      <use xlink:href="#DejaVuSans-6c" transform="translate(355.175781 0)"/>
      <use xlink:href="#DejaVuSans-6f" transform="translate(382.958984 0)"/>
      <use xlink:href="#DejaVuSans-20" transform="translate(444.140625 0)"/>
      <use xlink:href="#DejaVuSans-64" transform="translate(475.927734 0)"/>
      <use xlink:href="#DejaVuSans-65" transform="translate(539.404297 0)"/>
      <use xlink:href="#DejaVuSans-20" transform="translate(600.927734 0)"/>
      <use xlink:href="#DejaVuSans-43" transform="translate(632.714844 0)"/>
      <use xlink:href="#DejaVuSans-6f" transform="translate(702.539062 0)"/>
      <use xlink:href="#DejaVuSans-6e" transform="translate(763.720703 0)"/>
      <use xlink:href="#DejaVuSans-66" transform="translate(827.099609 0)"/>
      <use xlink:href="#DejaVuSans-69" transform="translate(862.304688 0)"/>
      <use xlink:href="#DejaVuSans-61" transform="translate(890.087891 0)"/>
      <use xlink:href="#DejaVuSans-6e" transform="translate(951.367188 0)"/>
      <use xlink:href="#DejaVuSans-7a" transform="translate(1014.746094 0)"/>
      <use xlink:href="#DejaVuSans-61" transform="translate(1067.236328 0)"/>
      <use xlink:href="#DejaVuSans-20" transform="translate(1128.515625 0)"/>
      <use xlink:href="#DejaVuSans-39" transform="translate(1160.302734 0)"/>
      <use xlink:href="#DejaVuSans-35" transform="translate(1223.925781 0)"/>
      <use xlink:href="#DejaVuSans-25" transform="translate(1287.548828 0)"/>
     </g>
    </g>
   </g>
  </g>
 </g>
 <defs>
  <clipPath id="p1877af8e83">
   <rect x="37.06" y="23.837812" width="558" height="332.64"/>
  </clipPath>
 </defs>
</svg>
