<?xml version="1.0" encoding="utf-8" standalone="no"?>
<!DOCTYPE svg PUBLIC "-//W3C//DTD SVG 1.1//EN"
  "http://www.w3.org/Graphics/SVG/1.1/DTD/svg11.dtd">
<svg xmlns:xlink="http://www.w3.org/1999/xlink" width="606.368125pt" height="386.241875pt" viewBox="0 0 606.368125 386.241875" xmlns="http://www.w3.org/2000/svg" version="1.1">
 <metadata>
  <rdf:RDF xmlns:dc="http://purl.org/dc/elements/1.1/" xmlns:cc="http://creativecommons.org/ns#" xmlns:rdf="http://www.w3.org/1999/02/22-rdf-syntax-ns#">
   <cc:Work>
    <dc:type rdf:resource="http://purl.org/dc/dcmitype/StillImage"/>
    <dc:date>2025-04-23T22:40:13.553221</dc:date>
    <dc:format>image/svg+xml</dc:format>
    <dc:creator>
     <cc:Agent>
      <dc:title>Matplotlib v3.8.4, https://matplotlib.org/</dc:title>
     </cc:Agent>
    </dc:creator>
   </cc:Work>
  </rdf:RDF>
 </metadata>
 <defs>
  <style type="text/css">*{stroke-linejoin: round; stroke-linecap: butt}</style>
 </defs>
 <g id="figure_1">
  <g id="patch_1">
   <path d="M 0 386.241875 
L 606.368125 386.241875 
L 606.368125 0 
L 0 0 
z
" style="fill: #ffffff"/>
  </g>
  <g id="axes_1">
   <g id="patch_2">
    <path d="M 41.168125 354.429375 
L 599.168125 354.429375 
L 599.168125 21.789375 
L 41.168125 21.789375 
z
" style="fill: #ffffff"/>
   </g>
   <g id="matplotlib.axis_1">
    <g id="xtick_1">
     <g id="line2d_1">
      <path d="M 44.915693 354.429375 
L 44.915693 21.789375 
" clip-path="url(#pe179880502)" style="fill: none; stroke: #cccccc; stroke-linecap: round"/>
     </g>
     <g id="text_1">
      <!-- Oct -->
      <g style="fill: #262626" transform="translate(42.847568 363.929375) rotate(-270) scale(0.08 -0.08)">
       <defs>
        <path id="ArialMT-4f" d="M 309 2231 
Q 309 3372 921 4017 
Q 1534 4663 2503 4663 
Q 3138 4663 3647 4359 
Q 4156 4056 4423 3514 
Q 4691 2972 4691 2284 
Q 4691 1588 4409 1038 
Q 4128 488 3612 205 
Q 3097 -78 2500 -78 
Q 1853 -78 1343 234 
Q 834 547 571 1087 
Q 309 1628 309 2231 
z
M 934 2222 
Q 934 1394 1379 917 
Q 1825 441 2497 441 
Q 3181 441 3623 922 
Q 4066 1403 4066 2288 
Q 4066 2847 3877 3264 
Q 3688 3681 3323 3911 
Q 2959 4141 2506 4141 
Q 1863 4141 1398 3698 
Q 934 3256 934 2222 
z
" transform="scale(0.015625)"/>
        <path id="ArialMT-63" d="M 2588 1216 
L 3141 1144 
Q 3050 572 2676 248 
Q 2303 -75 1759 -75 
Q 1078 -75 664 370 
Q 250 816 250 1647 
Q 250 2184 428 2587 
Q 606 2991 970 3192 
Q 1334 3394 1763 3394 
Q 2303 3394 2647 3120 
Q 2991 2847 3088 2344 
L 2541 2259 
Q 2463 2594 2264 2762 
Q 2066 2931 1784 2931 
Q 1359 2931 1093 2626 
Q 828 2322 828 1663 
Q 828 994 1084 691 
Q 1341 388 1753 388 
Q 2084 388 2306 591 
Q 2528 794 2588 1216 
z
" transform="scale(0.015625)"/>
        <path id="ArialMT-74" d="M 1650 503 
L 1731 6 
Q 1494 -44 1306 -44 
Q 1000 -44 831 53 
Q 663 150 594 308 
Q 525 466 525 972 
L 525 2881 
L 113 2881 
L 113 3319 
L 525 3319 
L 525 4141 
L 1084 4478 
L 1084 3319 
L 1650 3319 
L 1650 2881 
L 1084 2881 
L 1084 941 
Q 1084 700 1114 631 
Q 1144 563 1211 522 
Q 1278 481 1403 481 
Q 1497 481 1650 503 
z
" transform="scale(0.015625)"/>
       </defs>
       <use xlink:href="#ArialMT-4f"/>
       <use xlink:href="#ArialMT-63" x="77.783203"/>
       <use xlink:href="#ArialMT-74" x="127.783203"/>
      </g>
     </g>
    </g>
    <g id="xtick_2">
     <g id="line2d_2">
      <path d="M 52.199368 354.429375 
L 52.199368 21.789375 
" clip-path="url(#pe179880502)" style="fill: none; stroke: #cccccc; stroke-linecap: round"/>
     </g>
     <g id="text_2">
      <!-- Nov -->
      <g style="fill: #262626" transform="translate(50.131243 363.929375) rotate(-270) scale(0.08 -0.08)">
       <defs>
        <path id="ArialMT-4e" d="M 488 0 
L 488 4581 
L 1109 4581 
L 3516 984 
L 3516 4581 
L 4097 4581 
L 4097 0 
L 3475 0 
L 1069 3600 
L 1069 0 
L 488 0 
z
" transform="scale(0.015625)"/>
        <path id="ArialMT-6f" d="M 213 1659 
Q 213 2581 725 3025 
Q 1153 3394 1769 3394 
Q 2453 3394 2887 2945 
Q 3322 2497 3322 1706 
Q 3322 1066 3130 698 
Q 2938 331 2570 128 
Q 2203 -75 1769 -75 
Q 1072 -75 642 372 
Q 213 819 213 1659 
z
M 791 1659 
Q 791 1022 1069 705 
Q 1347 388 1769 388 
Q 2188 388 2466 706 
Q 2744 1025 2744 1678 
Q 2744 2294 2464 2611 
Q 2184 2928 1769 2928 
Q 1347 2928 1069 2612 
Q 791 2297 791 1659 
z
" transform="scale(0.015625)"/>
        <path id="ArialMT-76" d="M 1344 0 
L 81 3319 
L 675 3319 
L 1388 1331 
Q 1503 1009 1600 663 
Q 1675 925 1809 1294 
L 2547 3319 
L 3125 3319 
L 1869 0 
L 1344 0 
z
" transform="scale(0.015625)"/>
       </defs>
       <use xlink:href="#ArialMT-4e"/>
       <use xlink:href="#ArialMT-6f" x="72.216797"/>
       <use xlink:href="#ArialMT-76" x="127.832031"/>
      </g>
     </g>
    </g>
    <g id="xtick_3">
     <g id="line2d_3">
      <path d="M 59.248086 354.429375 
L 59.248086 21.789375 
" clip-path="url(#pe179880502)" style="fill: none; stroke: #cccccc; stroke-linecap: round"/>
     </g>
     <g id="text_3">
      <!-- Dec -->
      <g style="fill: #262626" transform="translate(57.179961 363.929375) rotate(-270) scale(0.08 -0.08)">
       <defs>
        <path id="ArialMT-44" d="M 494 0 
L 494 4581 
L 2072 4581 
Q 2606 4581 2888 4516 
Q 3281 4425 3559 4188 
Q 3922 3881 4101 3404 
Q 4281 2928 4281 2316 
Q 4281 1794 4159 1391 
Q 4038 988 3847 723 
Q 3656 459 3429 307 
Q 3203 156 2883 78 
Q 2563 0 2147 0 
L 494 0 
z
M 1100 541 
L 2078 541 
Q 2531 541 2789 625 
Q 3047 709 3200 863 
Q 3416 1078 3536 1442 
Q 3656 1806 3656 2325 
Q 3656 3044 3420 3430 
Q 3184 3816 2847 3947 
Q 2603 4041 2063 4041 
L 1100 4041 
L 1100 541 
z
" transform="scale(0.015625)"/>
        <path id="ArialMT-65" d="M 2694 1069 
L 3275 997 
Q 3138 488 2766 206 
Q 2394 -75 1816 -75 
Q 1088 -75 661 373 
Q 234 822 234 1631 
Q 234 2469 665 2931 
Q 1097 3394 1784 3394 
Q 2450 3394 2872 2941 
Q 3294 2488 3294 1666 
Q 3294 1616 3291 1516 
L 816 1516 
Q 847 969 1125 678 
Q 1403 388 1819 388 
Q 2128 388 2347 550 
Q 2566 713 2694 1069 
z
M 847 1978 
L 2700 1978 
Q 2663 2397 2488 2606 
Q 2219 2931 1791 2931 
Q 1403 2931 1139 2672 
Q 875 2413 847 1978 
z
" transform="scale(0.015625)"/>
       </defs>
       <use xlink:href="#ArialMT-44"/>
       <use xlink:href="#ArialMT-65" x="72.216797"/>
       <use xlink:href="#ArialMT-63" x="127.832031"/>
      </g>
     </g>
    </g>
    <g id="xtick_4">
     <g id="line2d_4">
      <path d="M 66.531761 354.429375 
L 66.531761 21.789375 
" clip-path="url(#pe179880502)" style="fill: none; stroke: #cccccc; stroke-linecap: round"/>
     </g>
     <g id="text_4">
      <!-- Jan -->
      <g style="fill: #262626" transform="translate(64.463636 363.929375) rotate(-270) scale(0.08 -0.08)">
       <defs>
        <path id="ArialMT-4a" d="M 184 1300 
L 731 1375 
Q 753 850 928 656 
Q 1103 463 1413 463 
Q 1641 463 1806 567 
Q 1972 672 2034 851 
Q 2097 1031 2097 1425 
L 2097 4581 
L 2703 4581 
L 2703 1459 
Q 2703 884 2564 568 
Q 2425 253 2123 87 
Q 1822 -78 1416 -78 
Q 813 -78 492 269 
Q 172 616 184 1300 
z
" transform="scale(0.015625)"/>
        <path id="ArialMT-61" d="M 2588 409 
Q 2275 144 1986 34 
Q 1697 -75 1366 -75 
Q 819 -75 525 192 
Q 231 459 231 875 
Q 231 1119 342 1320 
Q 453 1522 633 1644 
Q 813 1766 1038 1828 
Q 1203 1872 1538 1913 
Q 2219 1994 2541 2106 
Q 2544 2222 2544 2253 
Q 2544 2597 2384 2738 
Q 2169 2928 1744 2928 
Q 1347 2928 1158 2789 
Q 969 2650 878 2297 
L 328 2372 
Q 403 2725 575 2942 
Q 747 3159 1072 3276 
Q 1397 3394 1825 3394 
Q 2250 3394 2515 3294 
Q 2781 3194 2906 3042 
Q 3031 2891 3081 2659 
Q 3109 2516 3109 2141 
L 3109 1391 
Q 3109 606 3145 398 
Q 3181 191 3288 0 
L 2700 0 
Q 2613 175 2588 409 
z
M 2541 1666 
Q 2234 1541 1622 1453 
Q 1275 1403 1131 1340 
Q 988 1278 909 1158 
Q 831 1038 831 891 
Q 831 666 1001 516 
Q 1172 366 1500 366 
Q 1825 366 2078 508 
Q 2331 650 2450 897 
Q 2541 1088 2541 1459 
L 2541 1666 
z
" transform="scale(0.015625)"/>
        <path id="ArialMT-6e" d="M 422 0 
L 422 3319 
L 928 3319 
L 928 2847 
Q 1294 3394 1984 3394 
Q 2284 3394 2536 3286 
Q 2788 3178 2913 3003 
Q 3038 2828 3088 2588 
Q 3119 2431 3119 2041 
L 3119 0 
L 2556 0 
L 2556 2019 
Q 2556 2363 2490 2533 
Q 2425 2703 2258 2804 
Q 2091 2906 1866 2906 
Q 1506 2906 1245 2678 
Q 984 2450 984 1813 
L 984 0 
L 422 0 
z
" transform="scale(0.015625)"/>
       </defs>
       <use xlink:href="#ArialMT-4a"/>
       <use xlink:href="#ArialMT-61" x="50"/>
       <use xlink:href="#ArialMT-6e" x="105.615234"/>
      </g>
     </g>
    </g>
    <g id="xtick_5">
     <g id="line2d_5">
      <path d="M 73.815436 354.429375 
L 73.815436 21.789375 
" clip-path="url(#pe179880502)" style="fill: none; stroke: #cccccc; stroke-linecap: round"/>
     </g>
     <g id="text_5">
      <!-- Feb -->
      <g style="fill: #262626" transform="translate(71.747311 363.929375) rotate(-270) scale(0.08 -0.08)">
       <defs>
        <path id="ArialMT-46" d="M 525 0 
L 525 4581 
L 3616 4581 
L 3616 4041 
L 1131 4041 
L 1131 2622 
L 3281 2622 
L 3281 2081 
L 1131 2081 
L 1131 0 
L 525 0 
z
" transform="scale(0.015625)"/>
        <path id="ArialMT-62" d="M 941 0 
L 419 0 
L 419 4581 
L 981 4581 
L 981 2947 
Q 1338 3394 1891 3394 
Q 2197 3394 2470 3270 
Q 2744 3147 2920 2923 
Q 3097 2700 3197 2384 
Q 3297 2069 3297 1709 
Q 3297 856 2875 390 
Q 2453 -75 1863 -75 
Q 1275 -75 941 416 
L 941 0 
z
M 934 1684 
Q 934 1088 1097 822 
Q 1363 388 1816 388 
Q 2184 388 2453 708 
Q 2722 1028 2722 1663 
Q 2722 2313 2464 2622 
Q 2206 2931 1841 2931 
Q 1472 2931 1203 2611 
Q 934 2291 934 1684 
z
" transform="scale(0.015625)"/>
       </defs>
       <use xlink:href="#ArialMT-46"/>
       <use xlink:href="#ArialMT-65" x="61.083984"/>
       <use xlink:href="#ArialMT-62" x="116.699219"/>
      </g>
     </g>
    </g>
    <g id="xtick_6">
     <g id="line2d_6">
      <path d="M 80.39424 354.429375 
L 80.39424 21.789375 
" clip-path="url(#pe179880502)" style="fill: none; stroke: #cccccc; stroke-linecap: round"/>
     </g>
     <g id="text_6">
      <!-- Mar -->
      <g style="fill: #262626" transform="translate(78.326115 363.929375) rotate(-270) scale(0.08 -0.08)">
       <defs>
        <path id="ArialMT-4d" d="M 475 0 
L 475 4581 
L 1388 4581 
L 2472 1338 
Q 2622 884 2691 659 
Q 2769 909 2934 1394 
L 4031 4581 
L 4847 4581 
L 4847 0 
L 4263 0 
L 4263 3834 
L 2931 0 
L 2384 0 
L 1059 3900 
L 1059 0 
L 475 0 
z
" transform="scale(0.015625)"/>
        <path id="ArialMT-72" d="M 416 0 
L 416 3319 
L 922 3319 
L 922 2816 
Q 1116 3169 1280 3281 
Q 1444 3394 1641 3394 
Q 1925 3394 2219 3213 
L 2025 2691 
Q 1819 2813 1613 2813 
Q 1428 2813 1281 2702 
Q 1134 2591 1072 2394 
Q 978 2094 978 1738 
L 978 0 
L 416 0 
z
" transform="scale(0.015625)"/>
       </defs>
       <use xlink:href="#ArialMT-4d"/>
       <use xlink:href="#ArialMT-61" x="83.300781"/>
       <use xlink:href="#ArialMT-72" x="138.916016"/>
      </g>
     </g>
    </g>
    <g id="xtick_7">
     <g id="line2d_7">
      <path d="M 87.677915 354.429375 
L 87.677915 21.789375 
" clip-path="url(#pe179880502)" style="fill: none; stroke: #cccccc; stroke-linecap: round"/>
     </g>
     <g id="text_7">
      <!-- Apr -->
      <g style="fill: #262626" transform="translate(85.60979 363.929375) rotate(-270) scale(0.08 -0.08)">
       <defs>
        <path id="ArialMT-41" d="M -9 0 
L 1750 4581 
L 2403 4581 
L 4278 0 
L 3588 0 
L 3053 1388 
L 1138 1388 
L 634 0 
L -9 0 
z
M 1313 1881 
L 2866 1881 
L 2388 3150 
Q 2169 3728 2063 4100 
Q 1975 3659 1816 3225 
L 1313 1881 
z
" transform="scale(0.015625)"/>
        <path id="ArialMT-70" d="M 422 -1272 
L 422 3319 
L 934 3319 
L 934 2888 
Q 1116 3141 1344 3267 
Q 1572 3394 1897 3394 
Q 2322 3394 2647 3175 
Q 2972 2956 3137 2557 
Q 3303 2159 3303 1684 
Q 3303 1175 3120 767 
Q 2938 359 2589 142 
Q 2241 -75 1856 -75 
Q 1575 -75 1351 44 
Q 1128 163 984 344 
L 984 -1272 
L 422 -1272 
z
M 931 1641 
Q 931 1000 1190 694 
Q 1450 388 1819 388 
Q 2194 388 2461 705 
Q 2728 1022 2728 1688 
Q 2728 2322 2467 2637 
Q 2206 2953 1844 2953 
Q 1484 2953 1207 2617 
Q 931 2281 931 1641 
z
" transform="scale(0.015625)"/>
       </defs>
       <use xlink:href="#ArialMT-41"/>
       <use xlink:href="#ArialMT-70" x="66.699219"/>
       <use xlink:href="#ArialMT-72" x="122.314453"/>
      </g>
     </g>
    </g>
    <g id="xtick_8">
     <g id="line2d_8">
      <path d="M 94.726633 354.429375 
L 94.726633 21.789375 
" clip-path="url(#pe179880502)" style="fill: none; stroke: #cccccc; stroke-linecap: round"/>
     </g>
     <g id="text_8">
      <!-- May -->
      <g style="fill: #262626" transform="translate(92.705383 363.929375) rotate(-270) scale(0.08 -0.08)">
       <defs>
        <path id="ArialMT-79" d="M 397 -1278 
L 334 -750 
Q 519 -800 656 -800 
Q 844 -800 956 -737 
Q 1069 -675 1141 -563 
Q 1194 -478 1313 -144 
Q 1328 -97 1363 -6 
L 103 3319 
L 709 3319 
L 1400 1397 
Q 1534 1031 1641 628 
Q 1738 1016 1872 1384 
L 2581 3319 
L 3144 3319 
L 1881 -56 
Q 1678 -603 1566 -809 
Q 1416 -1088 1222 -1217 
Q 1028 -1347 759 -1347 
Q 597 -1347 397 -1278 
z
" transform="scale(0.015625)"/>
       </defs>
       <use xlink:href="#ArialMT-4d"/>
       <use xlink:href="#ArialMT-61" x="83.300781"/>
       <use xlink:href="#ArialMT-79" x="138.916016"/>
      </g>
     </g>
    </g>
    <g id="xtick_9">
     <g id="line2d_9">
      <path d="M 102.010308 354.429375 
L 102.010308 21.789375 
" clip-path="url(#pe179880502)" style="fill: none; stroke: #cccccc; stroke-linecap: round"/>
     </g>
     <g id="text_9">
      <!-- Jun -->
      <g style="fill: #262626" transform="translate(99.942183 363.929375) rotate(-270) scale(0.08 -0.08)">
       <defs>
        <path id="ArialMT-75" d="M 2597 0 
L 2597 488 
Q 2209 -75 1544 -75 
Q 1250 -75 995 37 
Q 741 150 617 320 
Q 494 491 444 738 
Q 409 903 409 1263 
L 409 3319 
L 972 3319 
L 972 1478 
Q 972 1038 1006 884 
Q 1059 663 1231 536 
Q 1403 409 1656 409 
Q 1909 409 2131 539 
Q 2353 669 2445 892 
Q 2538 1116 2538 1541 
L 2538 3319 
L 3100 3319 
L 3100 0 
L 2597 0 
z
" transform="scale(0.015625)"/>
       </defs>
       <use xlink:href="#ArialMT-4a"/>
       <use xlink:href="#ArialMT-75" x="50"/>
       <use xlink:href="#ArialMT-6e" x="105.615234"/>
      </g>
     </g>
    </g>
    <g id="xtick_10">
     <g id="line2d_10">
      <path d="M 109.059026 354.429375 
L 109.059026 21.789375 
" clip-path="url(#pe179880502)" style="fill: none; stroke: #cccccc; stroke-linecap: round"/>
     </g>
     <g id="text_10">
      <!-- Jul -->
      <g style="fill: #262626" transform="translate(106.990901 363.929375) rotate(-270) scale(0.08 -0.08)">
       <defs>
        <path id="ArialMT-6c" d="M 409 0 
L 409 4581 
L 972 4581 
L 972 0 
L 409 0 
z
" transform="scale(0.015625)"/>
       </defs>
       <use xlink:href="#ArialMT-4a"/>
       <use xlink:href="#ArialMT-75" x="50"/>
       <use xlink:href="#ArialMT-6c" x="105.615234"/>
      </g>
     </g>
    </g>
    <g id="xtick_11">
     <g id="line2d_11">
      <path d="M 116.342701 354.429375 
L 116.342701 21.789375 
" clip-path="url(#pe179880502)" style="fill: none; stroke: #cccccc; stroke-linecap: round"/>
     </g>
     <g id="text_11">
      <!-- Aug -->
      <g style="fill: #262626" transform="translate(114.321451 363.929375) rotate(-270) scale(0.08 -0.08)">
       <defs>
        <path id="ArialMT-67" d="M 319 -275 
L 866 -356 
Q 900 -609 1056 -725 
Q 1266 -881 1628 -881 
Q 2019 -881 2231 -725 
Q 2444 -569 2519 -288 
Q 2563 -116 2559 434 
Q 2191 0 1641 0 
Q 956 0 581 494 
Q 206 988 206 1678 
Q 206 2153 378 2554 
Q 550 2956 876 3175 
Q 1203 3394 1644 3394 
Q 2231 3394 2613 2919 
L 2613 3319 
L 3131 3319 
L 3131 450 
Q 3131 -325 2973 -648 
Q 2816 -972 2473 -1159 
Q 2131 -1347 1631 -1347 
Q 1038 -1347 672 -1080 
Q 306 -813 319 -275 
z
M 784 1719 
Q 784 1066 1043 766 
Q 1303 466 1694 466 
Q 2081 466 2343 764 
Q 2606 1063 2606 1700 
Q 2606 2309 2336 2618 
Q 2066 2928 1684 2928 
Q 1309 2928 1046 2623 
Q 784 2319 784 1719 
z
" transform="scale(0.015625)"/>
       </defs>
       <use xlink:href="#ArialMT-41"/>
       <use xlink:href="#ArialMT-75" x="66.699219"/>
       <use xlink:href="#ArialMT-67" x="122.314453"/>
      </g>
     </g>
    </g>
    <g id="xtick_12">
     <g id="line2d_12">
      <path d="M 123.626376 354.429375 
L 123.626376 21.789375 
" clip-path="url(#pe179880502)" style="fill: none; stroke: #cccccc; stroke-linecap: round"/>
     </g>
     <g id="text_12">
      <!-- Sep -->
      <g style="fill: #262626" transform="translate(121.509501 363.929375) rotate(-270) scale(0.08 -0.08)">
       <defs>
        <path id="ArialMT-53" d="M 288 1472 
L 859 1522 
Q 900 1178 1048 958 
Q 1197 738 1509 602 
Q 1822 466 2213 466 
Q 2559 466 2825 569 
Q 3091 672 3220 851 
Q 3350 1031 3350 1244 
Q 3350 1459 3225 1620 
Q 3100 1781 2813 1891 
Q 2628 1963 1997 2114 
Q 1366 2266 1113 2400 
Q 784 2572 623 2826 
Q 463 3081 463 3397 
Q 463 3744 659 4045 
Q 856 4347 1234 4503 
Q 1613 4659 2075 4659 
Q 2584 4659 2973 4495 
Q 3363 4331 3572 4012 
Q 3781 3694 3797 3291 
L 3216 3247 
Q 3169 3681 2898 3903 
Q 2628 4125 2100 4125 
Q 1550 4125 1298 3923 
Q 1047 3722 1047 3438 
Q 1047 3191 1225 3031 
Q 1400 2872 2139 2705 
Q 2878 2538 3153 2413 
Q 3553 2228 3743 1945 
Q 3934 1663 3934 1294 
Q 3934 928 3725 604 
Q 3516 281 3123 101 
Q 2731 -78 2241 -78 
Q 1619 -78 1198 103 
Q 778 284 539 648 
Q 300 1013 288 1472 
z
" transform="scale(0.015625)"/>
       </defs>
       <use xlink:href="#ArialMT-53"/>
       <use xlink:href="#ArialMT-65" x="66.699219"/>
       <use xlink:href="#ArialMT-70" x="122.314453"/>
      </g>
     </g>
    </g>
    <g id="xtick_13">
     <g id="line2d_13">
      <path d="M 130.675094 354.429375 
L 130.675094 21.789375 
" clip-path="url(#pe179880502)" style="fill: none; stroke: #cccccc; stroke-linecap: round"/>
     </g>
     <g id="text_13">
      <!-- Oct -->
      <g style="fill: #262626" transform="translate(128.606969 363.929375) rotate(-270) scale(0.08 -0.08)">
       <use xlink:href="#ArialMT-4f"/>
       <use xlink:href="#ArialMT-63" x="77.783203"/>
       <use xlink:href="#ArialMT-74" x="127.783203"/>
      </g>
     </g>
    </g>
    <g id="xtick_14">
     <g id="line2d_14">
      <path d="M 137.958769 354.429375 
L 137.958769 21.789375 
" clip-path="url(#pe179880502)" style="fill: none; stroke: #cccccc; stroke-linecap: round"/>
     </g>
     <g id="text_14">
      <!-- Nov -->
      <g style="fill: #262626" transform="translate(135.890644 363.929375) rotate(-270) scale(0.08 -0.08)">
       <use xlink:href="#ArialMT-4e"/>
       <use xlink:href="#ArialMT-6f" x="72.216797"/>
       <use xlink:href="#ArialMT-76" x="127.832031"/>
      </g>
     </g>
    </g>
    <g id="xtick_15">
     <g id="line2d_15">
      <path d="M 145.007487 354.429375 
L 145.007487 21.789375 
" clip-path="url(#pe179880502)" style="fill: none; stroke: #cccccc; stroke-linecap: round"/>
     </g>
     <g id="text_15">
      <!-- Dec -->
      <g style="fill: #262626" transform="translate(142.939362 363.929375) rotate(-270) scale(0.08 -0.08)">
       <use xlink:href="#ArialMT-44"/>
       <use xlink:href="#ArialMT-65" x="72.216797"/>
       <use xlink:href="#ArialMT-63" x="127.832031"/>
      </g>
     </g>
    </g>
    <g id="xtick_16">
     <g id="line2d_16">
      <path d="M 152.291162 354.429375 
L 152.291162 21.789375 
" clip-path="url(#pe179880502)" style="fill: none; stroke: #cccccc; stroke-linecap: round"/>
     </g>
     <g id="text_16">
      <!-- Jan -->
      <g style="fill: #262626" transform="translate(150.223037 363.929375) rotate(-270) scale(0.08 -0.08)">
       <use xlink:href="#ArialMT-4a"/>
       <use xlink:href="#ArialMT-61" x="50"/>
       <use xlink:href="#ArialMT-6e" x="105.615234"/>
      </g>
     </g>
    </g>
    <g id="xtick_17">
     <g id="line2d_17">
      <path d="M 159.574837 354.429375 
L 159.574837 21.789375 
" clip-path="url(#pe179880502)" style="fill: none; stroke: #cccccc; stroke-linecap: round"/>
     </g>
     <g id="text_17">
      <!-- Feb -->
      <g style="fill: #262626" transform="translate(157.506712 363.929375) rotate(-270) scale(0.08 -0.08)">
       <use xlink:href="#ArialMT-46"/>
       <use xlink:href="#ArialMT-65" x="61.083984"/>
       <use xlink:href="#ArialMT-62" x="116.699219"/>
      </g>
     </g>
    </g>
    <g id="xtick_18">
     <g id="line2d_18">
      <path d="M 166.15364 354.429375 
L 166.15364 21.789375 
" clip-path="url(#pe179880502)" style="fill: none; stroke: #cccccc; stroke-linecap: round"/>
     </g>
     <g id="text_18">
      <!-- Mar -->
      <g style="fill: #262626" transform="translate(164.085515 363.929375) rotate(-270) scale(0.08 -0.08)">
       <use xlink:href="#ArialMT-4d"/>
       <use xlink:href="#ArialMT-61" x="83.300781"/>
       <use xlink:href="#ArialMT-72" x="138.916016"/>
      </g>
     </g>
    </g>
    <g id="xtick_19">
     <g id="line2d_19">
      <path d="M 173.437315 354.429375 
L 173.437315 21.789375 
" clip-path="url(#pe179880502)" style="fill: none; stroke: #cccccc; stroke-linecap: round"/>
     </g>
     <g id="text_19">
      <!-- Apr -->
      <g style="fill: #262626" transform="translate(171.36919 363.929375) rotate(-270) scale(0.08 -0.08)">
       <use xlink:href="#ArialMT-41"/>
       <use xlink:href="#ArialMT-70" x="66.699219"/>
       <use xlink:href="#ArialMT-72" x="122.314453"/>
      </g>
     </g>
    </g>
    <g id="xtick_20">
     <g id="line2d_20">
      <path d="M 180.486033 354.429375 
L 180.486033 21.789375 
" clip-path="url(#pe179880502)" style="fill: none; stroke: #cccccc; stroke-linecap: round"/>
     </g>
     <g id="text_20">
      <!-- May -->
      <g style="fill: #262626" transform="translate(178.464783 363.929375) rotate(-270) scale(0.08 -0.08)">
       <use xlink:href="#ArialMT-4d"/>
       <use xlink:href="#ArialMT-61" x="83.300781"/>
       <use xlink:href="#ArialMT-79" x="138.916016"/>
      </g>
     </g>
    </g>
    <g id="xtick_21">
     <g id="line2d_21">
      <path d="M 187.769708 354.429375 
L 187.769708 21.789375 
" clip-path="url(#pe179880502)" style="fill: none; stroke: #cccccc; stroke-linecap: round"/>
     </g>
     <g id="text_21">
      <!-- Jun -->
      <g style="fill: #262626" transform="translate(185.701583 363.929375) rotate(-270) scale(0.08 -0.08)">
       <use xlink:href="#ArialMT-4a"/>
       <use xlink:href="#ArialMT-75" x="50"/>
       <use xlink:href="#ArialMT-6e" x="105.615234"/>
      </g>
     </g>
    </g>
    <g id="xtick_22">
     <g id="line2d_22">
      <path d="M 194.818426 354.429375 
L 194.818426 21.789375 
" clip-path="url(#pe179880502)" style="fill: none; stroke: #cccccc; stroke-linecap: round"/>
     </g>
     <g id="text_22">
      <!-- Jul -->
      <g style="fill: #262626" transform="translate(192.750301 363.929375) rotate(-270) scale(0.08 -0.08)">
       <use xlink:href="#ArialMT-4a"/>
       <use xlink:href="#ArialMT-75" x="50"/>
       <use xlink:href="#ArialMT-6c" x="105.615234"/>
      </g>
     </g>
    </g>
    <g id="xtick_23">
     <g id="line2d_23">
      <path d="M 202.102101 354.429375 
L 202.102101 21.789375 
" clip-path="url(#pe179880502)" style="fill: none; stroke: #cccccc; stroke-linecap: round"/>
     </g>
     <g id="text_23">
      <!-- Aug -->
      <g style="fill: #262626" transform="translate(200.080851 363.929375) rotate(-270) scale(0.08 -0.08)">
       <use xlink:href="#ArialMT-41"/>
       <use xlink:href="#ArialMT-75" x="66.699219"/>
       <use xlink:href="#ArialMT-67" x="122.314453"/>
      </g>
     </g>
    </g>
    <g id="xtick_24">
     <g id="line2d_24">
      <path d="M 209.385776 354.429375 
L 209.385776 21.789375 
" clip-path="url(#pe179880502)" style="fill: none; stroke: #cccccc; stroke-linecap: round"/>
     </g>
     <g id="text_24">
      <!-- Sep -->
      <g style="fill: #262626" transform="translate(207.268901 363.929375) rotate(-270) scale(0.08 -0.08)">
       <use xlink:href="#ArialMT-53"/>
       <use xlink:href="#ArialMT-65" x="66.699219"/>
       <use xlink:href="#ArialMT-70" x="122.314453"/>
      </g>
     </g>
    </g>
    <g id="xtick_25">
     <g id="line2d_25">
      <path d="M 216.434494 354.429375 
L 216.434494 21.789375 
" clip-path="url(#pe179880502)" style="fill: none; stroke: #cccccc; stroke-linecap: round"/>
     </g>
     <g id="text_25">
      <!-- Oct -->
      <g style="fill: #262626" transform="translate(214.366369 363.929375) rotate(-270) scale(0.08 -0.08)">
       <use xlink:href="#ArialMT-4f"/>
       <use xlink:href="#ArialMT-63" x="77.783203"/>
       <use xlink:href="#ArialMT-74" x="127.783203"/>
      </g>
     </g>
    </g>
    <g id="xtick_26">
     <g id="line2d_26">
      <path d="M 223.718169 354.429375 
L 223.718169 21.789375 
" clip-path="url(#pe179880502)" style="fill: none; stroke: #cccccc; stroke-linecap: round"/>
     </g>
     <g id="text_26">
      <!-- Nov -->
      <g style="fill: #262626" transform="translate(221.650044 363.929375) rotate(-270) scale(0.08 -0.08)">
       <use xlink:href="#ArialMT-4e"/>
       <use xlink:href="#ArialMT-6f" x="72.216797"/>
       <use xlink:href="#ArialMT-76" x="127.832031"/>
      </g>
     </g>
    </g>
    <g id="xtick_27">
     <g id="line2d_27">
      <path d="M 230.766887 354.429375 
L 230.766887 21.789375 
" clip-path="url(#pe179880502)" style="fill: none; stroke: #cccccc; stroke-linecap: round"/>
     </g>
     <g id="text_27">
      <!-- Dec -->
      <g style="fill: #262626" transform="translate(228.698762 363.929375) rotate(-270) scale(0.08 -0.08)">
       <use xlink:href="#ArialMT-44"/>
       <use xlink:href="#ArialMT-65" x="72.216797"/>
       <use xlink:href="#ArialMT-63" x="127.832031"/>
      </g>
     </g>
    </g>
    <g id="xtick_28">
     <g id="line2d_28">
      <path d="M 238.050562 354.429375 
L 238.050562 21.789375 
" clip-path="url(#pe179880502)" style="fill: none; stroke: #cccccc; stroke-linecap: round"/>
     </g>
     <g id="text_28">
      <!-- Jan -->
      <g style="fill: #262626" transform="translate(235.982437 363.929375) rotate(-270) scale(0.08 -0.08)">
       <use xlink:href="#ArialMT-4a"/>
       <use xlink:href="#ArialMT-61" x="50"/>
       <use xlink:href="#ArialMT-6e" x="105.615234"/>
      </g>
     </g>
    </g>
    <g id="xtick_29">
     <g id="line2d_29">
      <path d="M 245.334237 354.429375 
L 245.334237 21.789375 
" clip-path="url(#pe179880502)" style="fill: none; stroke: #cccccc; stroke-linecap: round"/>
     </g>
     <g id="text_29">
      <!-- Feb -->
      <g style="fill: #262626" transform="translate(243.266112 363.929375) rotate(-270) scale(0.08 -0.08)">
       <use xlink:href="#ArialMT-46"/>
       <use xlink:href="#ArialMT-65" x="61.083984"/>
       <use xlink:href="#ArialMT-62" x="116.699219"/>
      </g>
     </g>
    </g>
    <g id="xtick_30">
     <g id="line2d_30">
      <path d="M 251.913041 354.429375 
L 251.913041 21.789375 
" clip-path="url(#pe179880502)" style="fill: none; stroke: #cccccc; stroke-linecap: round"/>
     </g>
     <g id="text_30">
      <!-- Mar -->
      <g style="fill: #262626" transform="translate(249.844916 363.929375) rotate(-270) scale(0.08 -0.08)">
       <use xlink:href="#ArialMT-4d"/>
       <use xlink:href="#ArialMT-61" x="83.300781"/>
       <use xlink:href="#ArialMT-72" x="138.916016"/>
      </g>
     </g>
    </g>
    <g id="xtick_31">
     <g id="line2d_31">
      <path d="M 259.196716 354.429375 
L 259.196716 21.789375 
" clip-path="url(#pe179880502)" style="fill: none; stroke: #cccccc; stroke-linecap: round"/>
     </g>
     <g id="text_31">
      <!-- Apr -->
      <g style="fill: #262626" transform="translate(257.128591 363.929375) rotate(-270) scale(0.08 -0.08)">
       <use xlink:href="#ArialMT-41"/>
       <use xlink:href="#ArialMT-70" x="66.699219"/>
       <use xlink:href="#ArialMT-72" x="122.314453"/>
      </g>
     </g>
    </g>
    <g id="xtick_32">
     <g id="line2d_32">
      <path d="M 266.245434 354.429375 
L 266.245434 21.789375 
" clip-path="url(#pe179880502)" style="fill: none; stroke: #cccccc; stroke-linecap: round"/>
     </g>
     <g id="text_32">
      <!-- May -->
      <g style="fill: #262626" transform="translate(264.224184 363.929375) rotate(-270) scale(0.08 -0.08)">
       <use xlink:href="#ArialMT-4d"/>
       <use xlink:href="#ArialMT-61" x="83.300781"/>
       <use xlink:href="#ArialMT-79" x="138.916016"/>
      </g>
     </g>
    </g>
    <g id="xtick_33">
     <g id="line2d_33">
      <path d="M 273.529109 354.429375 
L 273.529109 21.789375 
" clip-path="url(#pe179880502)" style="fill: none; stroke: #cccccc; stroke-linecap: round"/>
     </g>
     <g id="text_33">
      <!-- Jun -->
      <g style="fill: #262626" transform="translate(271.460984 363.929375) rotate(-270) scale(0.08 -0.08)">
       <use xlink:href="#ArialMT-4a"/>
       <use xlink:href="#ArialMT-75" x="50"/>
       <use xlink:href="#ArialMT-6e" x="105.615234"/>
      </g>
     </g>
    </g>
    <g id="xtick_34">
     <g id="line2d_34">
      <path d="M 280.577826 354.429375 
L 280.577826 21.789375 
" clip-path="url(#pe179880502)" style="fill: none; stroke: #cccccc; stroke-linecap: round"/>
     </g>
     <g id="text_34">
      <!-- Jul -->
      <g style="fill: #262626" transform="translate(278.509701 363.929375) rotate(-270) scale(0.08 -0.08)">
       <use xlink:href="#ArialMT-4a"/>
       <use xlink:href="#ArialMT-75" x="50"/>
       <use xlink:href="#ArialMT-6c" x="105.615234"/>
      </g>
     </g>
    </g>
    <g id="xtick_35">
     <g id="line2d_35">
      <path d="M 287.861502 354.429375 
L 287.861502 21.789375 
" clip-path="url(#pe179880502)" style="fill: none; stroke: #cccccc; stroke-linecap: round"/>
     </g>
     <g id="text_35">
      <!-- Aug -->
      <g style="fill: #262626" transform="translate(285.840252 363.929375) rotate(-270) scale(0.08 -0.08)">
       <use xlink:href="#ArialMT-41"/>
       <use xlink:href="#ArialMT-75" x="66.699219"/>
       <use xlink:href="#ArialMT-67" x="122.314453"/>
      </g>
     </g>
    </g>
    <g id="xtick_36">
     <g id="line2d_36">
      <path d="M 295.145177 354.429375 
L 295.145177 21.789375 
" clip-path="url(#pe179880502)" style="fill: none; stroke: #cccccc; stroke-linecap: round"/>
     </g>
     <g id="text_36">
      <!-- Sep -->
      <g style="fill: #262626" transform="translate(293.028302 363.929375) rotate(-270) scale(0.08 -0.08)">
       <use xlink:href="#ArialMT-53"/>
       <use xlink:href="#ArialMT-65" x="66.699219"/>
       <use xlink:href="#ArialMT-70" x="122.314453"/>
      </g>
     </g>
    </g>
    <g id="xtick_37">
     <g id="line2d_37">
      <path d="M 302.193895 354.429375 
L 302.193895 21.789375 
" clip-path="url(#pe179880502)" style="fill: none; stroke: #cccccc; stroke-linecap: round"/>
     </g>
     <g id="text_37">
      <!-- Oct -->
      <g style="fill: #262626" transform="translate(300.12577 363.929375) rotate(-270) scale(0.08 -0.08)">
       <use xlink:href="#ArialMT-4f"/>
       <use xlink:href="#ArialMT-63" x="77.783203"/>
       <use xlink:href="#ArialMT-74" x="127.783203"/>
      </g>
     </g>
    </g>
    <g id="xtick_38">
     <g id="line2d_38">
      <path d="M 309.47757 354.429375 
L 309.47757 21.789375 
" clip-path="url(#pe179880502)" style="fill: none; stroke: #cccccc; stroke-linecap: round"/>
     </g>
     <g id="text_38">
      <!-- Nov -->
      <g style="fill: #262626" transform="translate(307.409445 363.929375) rotate(-270) scale(0.08 -0.08)">
       <use xlink:href="#ArialMT-4e"/>
       <use xlink:href="#ArialMT-6f" x="72.216797"/>
       <use xlink:href="#ArialMT-76" x="127.832031"/>
      </g>
     </g>
    </g>
    <g id="xtick_39">
     <g id="line2d_39">
      <path d="M 316.526287 354.429375 
L 316.526287 21.789375 
" clip-path="url(#pe179880502)" style="fill: none; stroke: #cccccc; stroke-linecap: round"/>
     </g>
     <g id="text_39">
      <!-- Dec -->
      <g style="fill: #262626" transform="translate(314.458162 363.929375) rotate(-270) scale(0.08 -0.08)">
       <use xlink:href="#ArialMT-44"/>
       <use xlink:href="#ArialMT-65" x="72.216797"/>
       <use xlink:href="#ArialMT-63" x="127.832031"/>
      </g>
     </g>
    </g>
    <g id="xtick_40">
     <g id="line2d_40">
      <path d="M 323.809963 354.429375 
L 323.809963 21.789375 
" clip-path="url(#pe179880502)" style="fill: none; stroke: #cccccc; stroke-linecap: round"/>
     </g>
     <g id="text_40">
      <!-- Jan -->
      <g style="fill: #262626" transform="translate(321.741838 363.929375) rotate(-270) scale(0.08 -0.08)">
       <use xlink:href="#ArialMT-4a"/>
       <use xlink:href="#ArialMT-61" x="50"/>
       <use xlink:href="#ArialMT-6e" x="105.615234"/>
      </g>
     </g>
    </g>
    <g id="xtick_41">
     <g id="line2d_41">
      <path d="M 331.093638 354.429375 
L 331.093638 21.789375 
" clip-path="url(#pe179880502)" style="fill: none; stroke: #cccccc; stroke-linecap: round"/>
     </g>
     <g id="text_41">
      <!-- Feb -->
      <g style="fill: #262626" transform="translate(329.025513 363.929375) rotate(-270) scale(0.08 -0.08)">
       <use xlink:href="#ArialMT-46"/>
       <use xlink:href="#ArialMT-65" x="61.083984"/>
       <use xlink:href="#ArialMT-62" x="116.699219"/>
      </g>
     </g>
    </g>
    <g id="xtick_42">
     <g id="line2d_42">
      <path d="M 337.907398 354.429375 
L 337.907398 21.789375 
" clip-path="url(#pe179880502)" style="fill: none; stroke: #cccccc; stroke-linecap: round"/>
     </g>
     <g id="text_42">
      <!-- Mar -->
      <g style="fill: #262626" transform="translate(335.839273 363.929375) rotate(-270) scale(0.08 -0.08)">
       <use xlink:href="#ArialMT-4d"/>
       <use xlink:href="#ArialMT-61" x="83.300781"/>
       <use xlink:href="#ArialMT-72" x="138.916016"/>
      </g>
     </g>
    </g>
    <g id="xtick_43">
     <g id="line2d_43">
      <path d="M 345.191073 354.429375 
L 345.191073 21.789375 
" clip-path="url(#pe179880502)" style="fill: none; stroke: #cccccc; stroke-linecap: round"/>
     </g>
     <g id="text_43">
      <!-- Apr -->
      <g style="fill: #262626" transform="translate(343.122948 363.929375) rotate(-270) scale(0.08 -0.08)">
       <use xlink:href="#ArialMT-41"/>
       <use xlink:href="#ArialMT-70" x="66.699219"/>
       <use xlink:href="#ArialMT-72" x="122.314453"/>
      </g>
     </g>
    </g>
    <g id="xtick_44">
     <g id="line2d_44">
      <path d="M 352.239791 354.429375 
L 352.239791 21.789375 
" clip-path="url(#pe179880502)" style="fill: none; stroke: #cccccc; stroke-linecap: round"/>
     </g>
     <g id="text_44">
      <!-- May -->
      <g style="fill: #262626" transform="translate(350.218541 363.929375) rotate(-270) scale(0.08 -0.08)">
       <use xlink:href="#ArialMT-4d"/>
       <use xlink:href="#ArialMT-61" x="83.300781"/>
       <use xlink:href="#ArialMT-79" x="138.916016"/>
      </g>
     </g>
    </g>
    <g id="xtick_45">
     <g id="line2d_45">
      <path d="M 359.523466 354.429375 
L 359.523466 21.789375 
" clip-path="url(#pe179880502)" style="fill: none; stroke: #cccccc; stroke-linecap: round"/>
     </g>
     <g id="text_45">
      <!-- Jun -->
      <g style="fill: #262626" transform="translate(357.455341 363.929375) rotate(-270) scale(0.08 -0.08)">
       <use xlink:href="#ArialMT-4a"/>
       <use xlink:href="#ArialMT-75" x="50"/>
       <use xlink:href="#ArialMT-6e" x="105.615234"/>
      </g>
     </g>
    </g>
    <g id="xtick_46">
     <g id="line2d_46">
      <path d="M 366.572184 354.429375 
L 366.572184 21.789375 
" clip-path="url(#pe179880502)" style="fill: none; stroke: #cccccc; stroke-linecap: round"/>
     </g>
     <g id="text_46">
      <!-- Jul -->
      <g style="fill: #262626" transform="translate(364.504059 363.929375) rotate(-270) scale(0.08 -0.08)">
       <use xlink:href="#ArialMT-4a"/>
       <use xlink:href="#ArialMT-75" x="50"/>
       <use xlink:href="#ArialMT-6c" x="105.615234"/>
      </g>
     </g>
    </g>
    <g id="xtick_47">
     <g id="line2d_47">
      <path d="M 373.855859 354.429375 
L 373.855859 21.789375 
" clip-path="url(#pe179880502)" style="fill: none; stroke: #cccccc; stroke-linecap: round"/>
     </g>
     <g id="text_47">
      <!-- Aug -->
      <g style="fill: #262626" transform="translate(371.834609 363.929375) rotate(-270) scale(0.08 -0.08)">
       <use xlink:href="#ArialMT-41"/>
       <use xlink:href="#ArialMT-75" x="66.699219"/>
       <use xlink:href="#ArialMT-67" x="122.314453"/>
      </g>
     </g>
    </g>
    <g id="xtick_48">
     <g id="line2d_48">
      <path d="M 381.139534 354.429375 
L 381.139534 21.789375 
" clip-path="url(#pe179880502)" style="fill: none; stroke: #cccccc; stroke-linecap: round"/>
     </g>
     <g id="text_48">
      <!-- Sep -->
      <g style="fill: #262626" transform="translate(379.022659 363.929375) rotate(-270) scale(0.08 -0.08)">
       <use xlink:href="#ArialMT-53"/>
       <use xlink:href="#ArialMT-65" x="66.699219"/>
       <use xlink:href="#ArialMT-70" x="122.314453"/>
      </g>
     </g>
    </g>
    <g id="xtick_49">
     <g id="line2d_49">
      <path d="M 388.188252 354.429375 
L 388.188252 21.789375 
" clip-path="url(#pe179880502)" style="fill: none; stroke: #cccccc; stroke-linecap: round"/>
     </g>
     <g id="text_49">
      <!-- Oct -->
      <g style="fill: #262626" transform="translate(386.120127 363.929375) rotate(-270) scale(0.08 -0.08)">
       <use xlink:href="#ArialMT-4f"/>
       <use xlink:href="#ArialMT-63" x="77.783203"/>
       <use xlink:href="#ArialMT-74" x="127.783203"/>
      </g>
     </g>
    </g>
    <g id="xtick_50">
     <g id="line2d_50">
      <path d="M 395.471927 354.429375 
L 395.471927 21.789375 
" clip-path="url(#pe179880502)" style="fill: none; stroke: #cccccc; stroke-linecap: round"/>
     </g>
     <g id="text_50">
      <!-- Nov -->
      <g style="fill: #262626" transform="translate(393.403802 363.929375) rotate(-270) scale(0.08 -0.08)">
       <use xlink:href="#ArialMT-4e"/>
       <use xlink:href="#ArialMT-6f" x="72.216797"/>
       <use xlink:href="#ArialMT-76" x="127.832031"/>
      </g>
     </g>
    </g>
    <g id="xtick_51">
     <g id="line2d_51">
      <path d="M 402.520645 354.429375 
L 402.520645 21.789375 
" clip-path="url(#pe179880502)" style="fill: none; stroke: #cccccc; stroke-linecap: round"/>
     </g>
     <g id="text_51">
      <!-- Dec -->
      <g style="fill: #262626" transform="translate(400.45252 363.929375) rotate(-270) scale(0.08 -0.08)">
       <use xlink:href="#ArialMT-44"/>
       <use xlink:href="#ArialMT-65" x="72.216797"/>
       <use xlink:href="#ArialMT-63" x="127.832031"/>
      </g>
     </g>
    </g>
    <g id="xtick_52">
     <g id="line2d_52">
      <path d="M 409.80432 354.429375 
L 409.80432 21.789375 
" clip-path="url(#pe179880502)" style="fill: none; stroke: #cccccc; stroke-linecap: round"/>
     </g>
     <g id="text_52">
      <!-- Jan -->
      <g style="fill: #262626" transform="translate(407.736195 363.929375) rotate(-270) scale(0.08 -0.08)">
       <use xlink:href="#ArialMT-4a"/>
       <use xlink:href="#ArialMT-61" x="50"/>
       <use xlink:href="#ArialMT-6e" x="105.615234"/>
      </g>
     </g>
    </g>
    <g id="xtick_53">
     <g id="line2d_53">
      <path d="M 417.087995 354.429375 
L 417.087995 21.789375 
" clip-path="url(#pe179880502)" style="fill: none; stroke: #cccccc; stroke-linecap: round"/>
     </g>
     <g id="text_53">
      <!-- Feb -->
      <g style="fill: #262626" transform="translate(415.01987 363.929375) rotate(-270) scale(0.08 -0.08)">
       <use xlink:href="#ArialMT-46"/>
       <use xlink:href="#ArialMT-65" x="61.083984"/>
       <use xlink:href="#ArialMT-62" x="116.699219"/>
      </g>
     </g>
    </g>
    <g id="xtick_54">
     <g id="line2d_54">
      <path d="M 423.666799 354.429375 
L 423.666799 21.789375 
" clip-path="url(#pe179880502)" style="fill: none; stroke: #cccccc; stroke-linecap: round"/>
     </g>
     <g id="text_54">
      <!-- Mar -->
      <g style="fill: #262626" transform="translate(421.598674 363.929375) rotate(-270) scale(0.08 -0.08)">
       <use xlink:href="#ArialMT-4d"/>
       <use xlink:href="#ArialMT-61" x="83.300781"/>
       <use xlink:href="#ArialMT-72" x="138.916016"/>
      </g>
     </g>
    </g>
    <g id="xtick_55">
     <g id="line2d_55">
      <path d="M 430.950474 354.429375 
L 430.950474 21.789375 
" clip-path="url(#pe179880502)" style="fill: none; stroke: #cccccc; stroke-linecap: round"/>
     </g>
     <g id="text_55">
      <!-- Apr -->
      <g style="fill: #262626" transform="translate(428.882349 363.929375) rotate(-270) scale(0.08 -0.08)">
       <use xlink:href="#ArialMT-41"/>
       <use xlink:href="#ArialMT-70" x="66.699219"/>
       <use xlink:href="#ArialMT-72" x="122.314453"/>
      </g>
     </g>
    </g>
    <g id="xtick_56">
     <g id="line2d_56">
      <path d="M 437.999192 354.429375 
L 437.999192 21.789375 
" clip-path="url(#pe179880502)" style="fill: none; stroke: #cccccc; stroke-linecap: round"/>
     </g>
     <g id="text_56">
      <!-- May -->
      <g style="fill: #262626" transform="translate(435.977942 363.929375) rotate(-270) scale(0.08 -0.08)">
       <use xlink:href="#ArialMT-4d"/>
       <use xlink:href="#ArialMT-61" x="83.300781"/>
       <use xlink:href="#ArialMT-79" x="138.916016"/>
      </g>
     </g>
    </g>
    <g id="xtick_57">
     <g id="line2d_57">
      <path d="M 445.282867 354.429375 
L 445.282867 21.789375 
" clip-path="url(#pe179880502)" style="fill: none; stroke: #cccccc; stroke-linecap: round"/>
     </g>
     <g id="text_57">
      <!-- Jun -->
      <g style="fill: #262626" transform="translate(443.214742 363.929375) rotate(-270) scale(0.08 -0.08)">
       <use xlink:href="#ArialMT-4a"/>
       <use xlink:href="#ArialMT-75" x="50"/>
       <use xlink:href="#ArialMT-6e" x="105.615234"/>
      </g>
     </g>
    </g>
    <g id="xtick_58">
     <g id="line2d_58">
      <path d="M 452.331585 354.429375 
L 452.331585 21.789375 
" clip-path="url(#pe179880502)" style="fill: none; stroke: #cccccc; stroke-linecap: round"/>
     </g>
     <g id="text_58">
      <!-- Jul -->
      <g style="fill: #262626" transform="translate(450.26346 363.929375) rotate(-270) scale(0.08 -0.08)">
       <use xlink:href="#ArialMT-4a"/>
       <use xlink:href="#ArialMT-75" x="50"/>
       <use xlink:href="#ArialMT-6c" x="105.615234"/>
      </g>
     </g>
    </g>
    <g id="xtick_59">
     <g id="line2d_59">
      <path d="M 459.61526 354.429375 
L 459.61526 21.789375 
" clip-path="url(#pe179880502)" style="fill: none; stroke: #cccccc; stroke-linecap: round"/>
     </g>
     <g id="text_59">
      <!-- Aug -->
      <g style="fill: #262626" transform="translate(457.59401 363.929375) rotate(-270) scale(0.08 -0.08)">
       <use xlink:href="#ArialMT-41"/>
       <use xlink:href="#ArialMT-75" x="66.699219"/>
       <use xlink:href="#ArialMT-67" x="122.314453"/>
      </g>
     </g>
    </g>
    <g id="xtick_60">
     <g id="line2d_60">
      <path d="M 466.898935 354.429375 
L 466.898935 21.789375 
" clip-path="url(#pe179880502)" style="fill: none; stroke: #cccccc; stroke-linecap: round"/>
     </g>
     <g id="text_60">
      <!-- Sep -->
      <g style="fill: #262626" transform="translate(464.78206 363.929375) rotate(-270) scale(0.08 -0.08)">
       <use xlink:href="#ArialMT-53"/>
       <use xlink:href="#ArialMT-65" x="66.699219"/>
       <use xlink:href="#ArialMT-70" x="122.314453"/>
      </g>
     </g>
    </g>
    <g id="xtick_61">
     <g id="line2d_61">
      <path d="M 473.947653 354.429375 
L 473.947653 21.789375 
" clip-path="url(#pe179880502)" style="fill: none; stroke: #cccccc; stroke-linecap: round"/>
     </g>
     <g id="text_61">
      <!-- Oct -->
      <g style="fill: #262626" transform="translate(471.879528 363.929375) rotate(-270) scale(0.08 -0.08)">
       <use xlink:href="#ArialMT-4f"/>
       <use xlink:href="#ArialMT-63" x="77.783203"/>
       <use xlink:href="#ArialMT-74" x="127.783203"/>
      </g>
     </g>
    </g>
    <g id="xtick_62">
     <g id="line2d_62">
      <path d="M 481.231328 354.429375 
L 481.231328 21.789375 
" clip-path="url(#pe179880502)" style="fill: none; stroke: #cccccc; stroke-linecap: round"/>
     </g>
     <g id="text_62">
      <!-- Nov -->
      <g style="fill: #262626" transform="translate(479.163203 363.929375) rotate(-270) scale(0.08 -0.08)">
       <use xlink:href="#ArialMT-4e"/>
       <use xlink:href="#ArialMT-6f" x="72.216797"/>
       <use xlink:href="#ArialMT-76" x="127.832031"/>
      </g>
     </g>
    </g>
    <g id="xtick_63">
     <g id="line2d_63">
      <path d="M 488.280046 354.429375 
L 488.280046 21.789375 
" clip-path="url(#pe179880502)" style="fill: none; stroke: #cccccc; stroke-linecap: round"/>
     </g>
     <g id="text_63">
      <!-- Dec -->
      <g style="fill: #262626" transform="translate(486.211921 363.929375) rotate(-270) scale(0.08 -0.08)">
       <use xlink:href="#ArialMT-44"/>
       <use xlink:href="#ArialMT-65" x="72.216797"/>
       <use xlink:href="#ArialMT-63" x="127.832031"/>
      </g>
     </g>
    </g>
    <g id="xtick_64">
     <g id="line2d_64">
      <path d="M 495.563721 354.429375 
L 495.563721 21.789375 
" clip-path="url(#pe179880502)" style="fill: none; stroke: #cccccc; stroke-linecap: round"/>
     </g>
     <g id="text_64">
      <!-- Jan -->
      <g style="fill: #262626" transform="translate(493.495596 363.929375) rotate(-270) scale(0.08 -0.08)">
       <use xlink:href="#ArialMT-4a"/>
       <use xlink:href="#ArialMT-61" x="50"/>
       <use xlink:href="#ArialMT-6e" x="105.615234"/>
      </g>
     </g>
    </g>
    <g id="xtick_65">
     <g id="line2d_65">
      <path d="M 502.847396 354.429375 
L 502.847396 21.789375 
" clip-path="url(#pe179880502)" style="fill: none; stroke: #cccccc; stroke-linecap: round"/>
     </g>
     <g id="text_65">
      <!-- Feb -->
      <g style="fill: #262626" transform="translate(500.779271 363.929375) rotate(-270) scale(0.08 -0.08)">
       <use xlink:href="#ArialMT-46"/>
       <use xlink:href="#ArialMT-65" x="61.083984"/>
       <use xlink:href="#ArialMT-62" x="116.699219"/>
      </g>
     </g>
    </g>
    <g id="xtick_66">
     <g id="line2d_66">
      <path d="M 509.426199 354.429375 
L 509.426199 21.789375 
" clip-path="url(#pe179880502)" style="fill: none; stroke: #cccccc; stroke-linecap: round"/>
     </g>
     <g id="text_66">
      <!-- Mar -->
      <g style="fill: #262626" transform="translate(507.358074 363.929375) rotate(-270) scale(0.08 -0.08)">
       <use xlink:href="#ArialMT-4d"/>
       <use xlink:href="#ArialMT-61" x="83.300781"/>
       <use xlink:href="#ArialMT-72" x="138.916016"/>
      </g>
     </g>
    </g>
    <g id="xtick_67">
     <g id="line2d_67">
      <path d="M 516.709874 354.429375 
L 516.709874 21.789375 
" clip-path="url(#pe179880502)" style="fill: none; stroke: #cccccc; stroke-linecap: round"/>
     </g>
     <g id="text_67">
      <!-- Apr -->
      <g style="fill: #262626" transform="translate(514.641749 363.929375) rotate(-270) scale(0.08 -0.08)">
       <use xlink:href="#ArialMT-41"/>
       <use xlink:href="#ArialMT-70" x="66.699219"/>
       <use xlink:href="#ArialMT-72" x="122.314453"/>
      </g>
     </g>
    </g>
    <g id="xtick_68">
     <g id="line2d_68">
      <path d="M 523.758592 354.429375 
L 523.758592 21.789375 
" clip-path="url(#pe179880502)" style="fill: none; stroke: #cccccc; stroke-linecap: round"/>
     </g>
     <g id="text_68">
      <!-- May -->
      <g style="fill: #262626" transform="translate(521.737342 363.929375) rotate(-270) scale(0.08 -0.08)">
       <use xlink:href="#ArialMT-4d"/>
       <use xlink:href="#ArialMT-61" x="83.300781"/>
       <use xlink:href="#ArialMT-79" x="138.916016"/>
      </g>
     </g>
    </g>
    <g id="xtick_69">
     <g id="line2d_69">
      <path d="M 531.042267 354.429375 
L 531.042267 21.789375 
" clip-path="url(#pe179880502)" style="fill: none; stroke: #cccccc; stroke-linecap: round"/>
     </g>
     <g id="text_69">
      <!-- Jun -->
      <g style="fill: #262626" transform="translate(528.974142 363.929375) rotate(-270) scale(0.08 -0.08)">
       <use xlink:href="#ArialMT-4a"/>
       <use xlink:href="#ArialMT-75" x="50"/>
       <use xlink:href="#ArialMT-6e" x="105.615234"/>
      </g>
     </g>
    </g>
    <g id="xtick_70">
     <g id="line2d_70">
      <path d="M 538.090985 354.429375 
L 538.090985 21.789375 
" clip-path="url(#pe179880502)" style="fill: none; stroke: #cccccc; stroke-linecap: round"/>
     </g>
     <g id="text_70">
      <!-- Jul -->
      <g style="fill: #262626" transform="translate(536.02286 363.929375) rotate(-270) scale(0.08 -0.08)">
       <use xlink:href="#ArialMT-4a"/>
       <use xlink:href="#ArialMT-75" x="50"/>
       <use xlink:href="#ArialMT-6c" x="105.615234"/>
      </g>
     </g>
    </g>
    <g id="xtick_71">
     <g id="line2d_71">
      <path d="M 545.37466 354.429375 
L 545.37466 21.789375 
" clip-path="url(#pe179880502)" style="fill: none; stroke: #cccccc; stroke-linecap: round"/>
     </g>
     <g id="text_71">
      <!-- Aug -->
      <g style="fill: #262626" transform="translate(543.35341 363.929375) rotate(-270) scale(0.08 -0.08)">
       <use xlink:href="#ArialMT-41"/>
       <use xlink:href="#ArialMT-75" x="66.699219"/>
       <use xlink:href="#ArialMT-67" x="122.314453"/>
      </g>
     </g>
    </g>
    <g id="xtick_72">
     <g id="line2d_72">
      <path d="M 552.658335 354.429375 
L 552.658335 21.789375 
" clip-path="url(#pe179880502)" style="fill: none; stroke: #cccccc; stroke-linecap: round"/>
     </g>
     <g id="text_72">
      <!-- Sep -->
      <g style="fill: #262626" transform="translate(550.54146 363.929375) rotate(-270) scale(0.08 -0.08)">
       <use xlink:href="#ArialMT-53"/>
       <use xlink:href="#ArialMT-65" x="66.699219"/>
       <use xlink:href="#ArialMT-70" x="122.314453"/>
      </g>
     </g>
    </g>
    <g id="xtick_73">
     <g id="line2d_73">
      <path d="M 559.707053 354.429375 
L 559.707053 21.789375 
" clip-path="url(#pe179880502)" style="fill: none; stroke: #cccccc; stroke-linecap: round"/>
     </g>
     <g id="text_73">
      <!-- Oct -->
      <g style="fill: #262626" transform="translate(557.638928 363.929375) rotate(-270) scale(0.08 -0.08)">
       <use xlink:href="#ArialMT-4f"/>
       <use xlink:href="#ArialMT-63" x="77.783203"/>
       <use xlink:href="#ArialMT-74" x="127.783203"/>
      </g>
     </g>
    </g>
    <g id="xtick_74">
     <g id="line2d_74">
      <path d="M 566.990728 354.429375 
L 566.990728 21.789375 
" clip-path="url(#pe179880502)" style="fill: none; stroke: #cccccc; stroke-linecap: round"/>
     </g>
     <g id="text_74">
      <!-- Nov -->
      <g style="fill: #262626" transform="translate(564.922603 363.929375) rotate(-270) scale(0.08 -0.08)">
       <use xlink:href="#ArialMT-4e"/>
       <use xlink:href="#ArialMT-6f" x="72.216797"/>
       <use xlink:href="#ArialMT-76" x="127.832031"/>
      </g>
     </g>
    </g>
    <g id="xtick_75">
     <g id="line2d_75">
      <path d="M 574.039446 354.429375 
L 574.039446 21.789375 
" clip-path="url(#pe179880502)" style="fill: none; stroke: #cccccc; stroke-linecap: round"/>
     </g>
     <g id="text_75">
      <!-- Dec -->
      <g style="fill: #262626" transform="translate(571.971321 363.929375) rotate(-270) scale(0.08 -0.08)">
       <use xlink:href="#ArialMT-44"/>
       <use xlink:href="#ArialMT-65" x="72.216797"/>
       <use xlink:href="#ArialMT-63" x="127.832031"/>
      </g>
     </g>
    </g>
    <g id="xtick_76">
     <g id="line2d_76">
      <path d="M 581.323121 354.429375 
L 581.323121 21.789375 
" clip-path="url(#pe179880502)" style="fill: none; stroke: #cccccc; stroke-linecap: round"/>
     </g>
     <g id="text_76">
      <!-- Jan -->
      <g style="fill: #262626" transform="translate(579.254996 363.929375) rotate(-270) scale(0.08 -0.08)">
       <use xlink:href="#ArialMT-4a"/>
       <use xlink:href="#ArialMT-61" x="50"/>
       <use xlink:href="#ArialMT-6e" x="105.615234"/>
      </g>
     </g>
    </g>
    <g id="xtick_77">
     <g id="line2d_77">
      <path d="M 588.606796 354.429375 
L 588.606796 21.789375 
" clip-path="url(#pe179880502)" style="fill: none; stroke: #cccccc; stroke-linecap: round"/>
     </g>
     <g id="text_77">
      <!-- Feb -->
      <g style="fill: #262626" transform="translate(586.538671 363.929375) rotate(-270) scale(0.08 -0.08)">
       <use xlink:href="#ArialMT-46"/>
       <use xlink:href="#ArialMT-65" x="61.083984"/>
       <use xlink:href="#ArialMT-62" x="116.699219"/>
      </g>
     </g>
    </g>
    <g id="xtick_78">
     <g id="line2d_78">
      <path d="M 595.185599 354.429375 
L 595.185599 21.789375 
" clip-path="url(#pe179880502)" style="fill: none; stroke: #cccccc; stroke-linecap: round"/>
     </g>
     <g id="text_78">
      <!-- Mar -->
      <g style="fill: #262626" transform="translate(593.117474 363.929375) rotate(-270) scale(0.08 -0.08)">
       <use xlink:href="#ArialMT-4d"/>
       <use xlink:href="#ArialMT-61" x="83.300781"/>
       <use xlink:href="#ArialMT-72" x="138.916016"/>
      </g>
     </g>
    </g>
   </g>
   <g id="matplotlib.axis_2">
    <g id="ytick_1">
     <g id="line2d_79">
      <path d="M 41.168125 354.429375 
L 599.168125 354.429375 
" clip-path="url(#pe179880502)" style="fill: none; stroke: #cccccc; stroke-linecap: round"/>
     </g>
     <g id="text_79">
      <!-- 0 -->
      <g style="fill: #262626" transform="translate(25.551094 358.366172) scale(0.11 -0.11)">
       <defs>
        <path id="ArialMT-30" d="M 266 2259 
Q 266 3072 433 3567 
Q 600 4063 929 4331 
Q 1259 4600 1759 4600 
Q 2128 4600 2406 4451 
Q 2684 4303 2865 4023 
Q 3047 3744 3150 3342 
Q 3253 2941 3253 2259 
Q 3253 1453 3087 958 
Q 2922 463 2592 192 
Q 2263 -78 1759 -78 
Q 1097 -78 719 397 
Q 266 969 266 2259 
z
M 844 2259 
Q 844 1131 1108 757 
Q 1372 384 1759 384 
Q 2147 384 2411 759 
Q 2675 1134 2675 2259 
Q 2675 3391 2411 3762 
Q 2147 4134 1753 4134 
Q 1366 4134 1134 3806 
Q 844 3388 844 2259 
z
" transform="scale(0.015625)"/>
       </defs>
       <use xlink:href="#ArialMT-30"/>
      </g>
     </g>
    </g>
    <g id="ytick_2">
     <g id="line2d_80">
      <path d="M 41.168125 298.989375 
L 599.168125 298.989375 
" clip-path="url(#pe179880502)" style="fill: none; stroke: #cccccc; stroke-linecap: round"/>
     </g>
     <g id="text_80">
      <!-- 1000 -->
      <g style="fill: #262626" transform="translate(7.2 302.926172) scale(0.11 -0.11)">
       <defs>
        <path id="ArialMT-31" d="M 2384 0 
L 1822 0 
L 1822 3584 
Q 1619 3391 1289 3197 
Q 959 3003 697 2906 
L 697 3450 
Q 1169 3672 1522 3987 
Q 1875 4303 2022 4600 
L 2384 4600 
L 2384 0 
z
" transform="scale(0.015625)"/>
       </defs>
       <use xlink:href="#ArialMT-31"/>
       <use xlink:href="#ArialMT-30" x="55.615234"/>
       <use xlink:href="#ArialMT-30" x="111.230469"/>
       <use xlink:href="#ArialMT-30" x="166.845703"/>
      </g>
     </g>
    </g>
    <g id="ytick_3">
     <g id="line2d_81">
      <path d="M 41.168125 243.549375 
L 599.168125 243.549375 
" clip-path="url(#pe179880502)" style="fill: none; stroke: #cccccc; stroke-linecap: round"/>
     </g>
     <g id="text_81">
      <!-- 2000 -->
      <g style="fill: #262626" transform="translate(7.2 247.486172) scale(0.11 -0.11)">
       <defs>
        <path id="ArialMT-32" d="M 3222 541 
L 3222 0 
L 194 0 
Q 188 203 259 391 
Q 375 700 629 1000 
Q 884 1300 1366 1694 
Q 2113 2306 2375 2664 
Q 2638 3022 2638 3341 
Q 2638 3675 2398 3904 
Q 2159 4134 1775 4134 
Q 1369 4134 1125 3890 
Q 881 3647 878 3216 
L 300 3275 
Q 359 3922 746 4261 
Q 1134 4600 1788 4600 
Q 2447 4600 2831 4234 
Q 3216 3869 3216 3328 
Q 3216 3053 3103 2787 
Q 2991 2522 2730 2228 
Q 2469 1934 1863 1422 
Q 1356 997 1212 845 
Q 1069 694 975 541 
L 3222 541 
z
" transform="scale(0.015625)"/>
       </defs>
       <use xlink:href="#ArialMT-32"/>
       <use xlink:href="#ArialMT-30" x="55.615234"/>
       <use xlink:href="#ArialMT-30" x="111.230469"/>
       <use xlink:href="#ArialMT-30" x="166.845703"/>
      </g>
     </g>
    </g>
    <g id="ytick_4">
     <g id="line2d_82">
      <path d="M 41.168125 188.109375 
L 599.168125 188.109375 
" clip-path="url(#pe179880502)" style="fill: none; stroke: #cccccc; stroke-linecap: round"/>
     </g>
     <g id="text_82">
      <!-- 3000 -->
      <g style="fill: #262626" transform="translate(7.2 192.046172) scale(0.11 -0.11)">
       <defs>
        <path id="ArialMT-33" d="M 269 1209 
L 831 1284 
Q 928 806 1161 595 
Q 1394 384 1728 384 
Q 2125 384 2398 659 
Q 2672 934 2672 1341 
Q 2672 1728 2419 1979 
Q 2166 2231 1775 2231 
Q 1616 2231 1378 2169 
L 1441 2663 
Q 1497 2656 1531 2656 
Q 1891 2656 2178 2843 
Q 2466 3031 2466 3422 
Q 2466 3731 2256 3934 
Q 2047 4138 1716 4138 
Q 1388 4138 1169 3931 
Q 950 3725 888 3313 
L 325 3413 
Q 428 3978 793 4289 
Q 1159 4600 1703 4600 
Q 2078 4600 2393 4439 
Q 2709 4278 2876 4000 
Q 3044 3722 3044 3409 
Q 3044 3113 2884 2869 
Q 2725 2625 2413 2481 
Q 2819 2388 3044 2092 
Q 3269 1797 3269 1353 
Q 3269 753 2831 336 
Q 2394 -81 1725 -81 
Q 1122 -81 723 278 
Q 325 638 269 1209 
z
" transform="scale(0.015625)"/>
       </defs>
       <use xlink:href="#ArialMT-33"/>
       <use xlink:href="#ArialMT-30" x="55.615234"/>
       <use xlink:href="#ArialMT-30" x="111.230469"/>
       <use xlink:href="#ArialMT-30" x="166.845703"/>
      </g>
     </g>
    </g>
    <g id="ytick_5">
     <g id="line2d_83">
      <path d="M 41.168125 132.669375 
L 599.168125 132.669375 
" clip-path="url(#pe179880502)" style="fill: none; stroke: #cccccc; stroke-linecap: round"/>
     </g>
     <g id="text_83">
      <!-- 4000 -->
      <g style="fill: #262626" transform="translate(7.2 136.606172) scale(0.11 -0.11)">
       <defs>
        <path id="ArialMT-34" d="M 2069 0 
L 2069 1097 
L 81 1097 
L 81 1613 
L 2172 4581 
L 2631 4581 
L 2631 1613 
L 3250 1613 
L 3250 1097 
L 2631 1097 
L 2631 0 
L 2069 0 
z
M 2069 1613 
L 2069 3678 
L 634 1613 
L 2069 1613 
z
" transform="scale(0.015625)"/>
       </defs>
       <use xlink:href="#ArialMT-34"/>
       <use xlink:href="#ArialMT-30" x="55.615234"/>
       <use xlink:href="#ArialMT-30" x="111.230469"/>
       <use xlink:href="#ArialMT-30" x="166.845703"/>
      </g>
     </g>
    </g>
    <g id="ytick_6">
     <g id="line2d_84">
      <path d="M 41.168125 77.229375 
L 599.168125 77.229375 
" clip-path="url(#pe179880502)" style="fill: none; stroke: #cccccc; stroke-linecap: round"/>
     </g>
     <g id="text_84">
      <!-- 5000 -->
      <g style="fill: #262626" transform="translate(7.2 81.166172) scale(0.11 -0.11)">
       <defs>
        <path id="ArialMT-35" d="M 266 1200 
L 856 1250 
Q 922 819 1161 601 
Q 1400 384 1738 384 
Q 2144 384 2425 690 
Q 2706 997 2706 1503 
Q 2706 1984 2436 2262 
Q 2166 2541 1728 2541 
Q 1456 2541 1237 2417 
Q 1019 2294 894 2097 
L 366 2166 
L 809 4519 
L 3088 4519 
L 3088 3981 
L 1259 3981 
L 1013 2750 
Q 1425 3038 1878 3038 
Q 2478 3038 2890 2622 
Q 3303 2206 3303 1553 
Q 3303 931 2941 478 
Q 2500 -78 1738 -78 
Q 1113 -78 717 272 
Q 322 622 266 1200 
z
" transform="scale(0.015625)"/>
       </defs>
       <use xlink:href="#ArialMT-35"/>
       <use xlink:href="#ArialMT-30" x="55.615234"/>
       <use xlink:href="#ArialMT-30" x="111.230469"/>
       <use xlink:href="#ArialMT-30" x="166.845703"/>
      </g>
     </g>
    </g>
    <g id="ytick_7">
     <g id="line2d_85">
      <path d="M 41.168125 21.789375 
L 599.168125 21.789375 
" clip-path="url(#pe179880502)" style="fill: none; stroke: #cccccc; stroke-linecap: round"/>
     </g>
     <g id="text_85">
      <!-- 6000 -->
      <g style="fill: #262626" transform="translate(7.2 25.726172) scale(0.11 -0.11)">
       <defs>
        <path id="ArialMT-36" d="M 3184 3459 
L 2625 3416 
Q 2550 3747 2413 3897 
Q 2184 4138 1850 4138 
Q 1581 4138 1378 3988 
Q 1113 3794 959 3422 
Q 806 3050 800 2363 
Q 1003 2672 1297 2822 
Q 1591 2972 1913 2972 
Q 2475 2972 2870 2558 
Q 3266 2144 3266 1488 
Q 3266 1056 3080 686 
Q 2894 316 2569 119 
Q 2244 -78 1831 -78 
Q 1128 -78 684 439 
Q 241 956 241 2144 
Q 241 3472 731 4075 
Q 1159 4600 1884 4600 
Q 2425 4600 2770 4297 
Q 3116 3994 3184 3459 
z
M 888 1484 
Q 888 1194 1011 928 
Q 1134 663 1356 523 
Q 1578 384 1822 384 
Q 2178 384 2434 671 
Q 2691 959 2691 1453 
Q 2691 1928 2437 2201 
Q 2184 2475 1800 2475 
Q 1419 2475 1153 2201 
Q 888 1928 888 1484 
z
" transform="scale(0.015625)"/>
       </defs>
       <use xlink:href="#ArialMT-36"/>
       <use xlink:href="#ArialMT-30" x="55.615234"/>
       <use xlink:href="#ArialMT-30" x="111.230469"/>
       <use xlink:href="#ArialMT-30" x="166.845703"/>
      </g>
     </g>
    </g>
   </g>
   <g id="PolyCollection_1">
    <defs>
     <path id="m4089fd5203" d="M 495.328763 -57.906894 
L 495.328763 -31.699948 
L 502.612438 -31.701455 
L 509.191242 -31.716121 
L 516.474917 -31.821053 
L 523.523635 -33.29652 
L 530.80731 -39.16838 
L 537.856028 -41.990827 
L 545.139703 -42.721571 
L 552.423378 -39.512337 
L 559.472096 -33.349108 
L 566.755771 -31.80243 
L 573.804489 -31.69446 
L 573.804489 -65.829571 
L 573.804489 -65.829571 
L 566.755771 -98.288334 
L 559.472096 -192.484701 
L 552.423378 -323.463325 
L 545.139703 -366.775543 
L 537.856028 -348.667418 
L 530.80731 -299.408641 
L 523.523635 -175.778756 
L 516.474917 -93.955196 
L 509.191242 -66.167771 
L 502.612438 -61.220149 
L 495.328763 -57.906894 
z
" style="stroke: #ffc0cb; stroke-opacity: 0.3"/>
    </defs>
    <g clip-path="url(#pe179880502)">
     <use xlink:href="#m4089fd5203" x="0" y="386.241875" style="fill: #ffc0cb; fill-opacity: 0.3; stroke: #ffc0cb; stroke-opacity: 0.3"/>
    </g>
   </g>
   <g id="line2d_86">
    <path d="M 66.531761 354.429375 
L 73.815436 354.429375 
L 80.39424 342.232575 
L 87.677915 343.119615 
L 94.726633 307.416255 
L 102.010308 313.847295 
L 109.059026 279.086415 
L 116.342701 272.932575 
L 123.626376 327.152895 
L 130.675094 331.754415 
L 137.958769 345.669855 
L 145.007487 354.429375 
L 152.291162 353.985855 
L 159.574837 354.429375 
L 166.15364 345.836175 
L 173.437315 320.610975 
L 180.486033 296.660895 
L 187.769708 273.708735 
L 194.818426 247.374735 
L 202.102101 262.398975 
L 209.385776 296.660895 
L 216.434494 313.126575 
L 223.718169 342.010815 
L 230.766887 353.985855 
L 238.050562 351.213855 
L 245.334237 335.358015 
L 251.913041 354.429375 
L 259.196716 332.419695 
L 266.245434 268.275615 
L 302.193895 330.312975 
L 309.47757 353.431455 
L 316.526287 354.429375 
L 323.809963 354.429375 
L 331.093638 352.433535 
L 337.907398 352.322655 
L 345.191073 343.951215 
L 352.239791 340.125855 
L 359.523466 201.026895 
L 366.572184 252.475215 
L 373.855859 295.164015 
L 381.139534 248.927055 
L 388.188252 327.929055 
L 395.471927 351.491055 
L 402.520645 354.429375 
L 409.80432 350.326815 
L 417.087995 346.224255 
L 423.666799 353.985855 
L 430.950474 350.881215 
L 437.999192 330.257535 
L 445.282867 208.788495 
L 452.331585 300.541695 
L 459.61526 272.710815 
L 466.898935 179.183535 
L 473.947653 288.455775 
L 481.231328 345.836175 
L 488.280046 351.601935 
" clip-path="url(#pe179880502)" style="fill: none; stroke: #4c72b0; stroke-width: 1.5; stroke-linecap: round"/>
   </g>
   <g id="line2d_87">
    <path d="M 495.328763 352.794232 
L 502.612438 352.56315 
L 509.191242 351.968479 
L 516.474917 347.35133 
L 523.523635 327.752582 
L 530.80731 289.898844 
L 537.856028 274.371534 
L 545.139703 269.444981 
L 552.423378 284.941808 
L 559.472096 325.218285 
L 566.755771 347.32749 
L 573.804489 352.408934 
" clip-path="url(#pe179880502)" style="fill: none; stroke: #ff0000; stroke-width: 1.5; stroke-linecap: round"/>
   </g>
   <g id="line2d_88">
    <path d="M 488.280046 351.601935 
L 495.328763 352.794232 
" clip-path="url(#pe179880502)" style="fill: none; stroke: #ff0000; stroke-width: 1.5; stroke-linecap: round"/>
   </g>
   <g id="patch_3">
    <path d="M 41.168125 354.429375 
L 41.168125 21.789375 
" style="fill: none; stroke: #cccccc; stroke-width: 1.25; stroke-linejoin: miter; stroke-linecap: square"/>
   </g>
   <g id="patch_4">
    <path d="M 599.168125 354.429375 
L 599.168125 21.789375 
" style="fill: none; stroke: #cccccc; stroke-width: 1.25; stroke-linejoin: miter; stroke-linecap: square"/>
   </g>
   <g id="patch_5">
    <path d="M 41.168125 354.429375 
L 599.168125 354.429375 
" style="fill: none; stroke: #cccccc; stroke-width: 1.25; stroke-linejoin: miter; stroke-linecap: square"/>
   </g>
   <g id="patch_6">
    <path d="M 41.168125 21.789375 
L 599.168125 21.789375 
" style="fill: none; stroke: #cccccc; stroke-width: 1.25; stroke-linejoin: miter; stroke-linecap: square"/>
   </g>
   <g id="text_86">
    <!-- Pronstico con SARIMAX -->
    <g style="fill: #262626" transform="translate(251.808438 15.789375) scale(0.12 -0.12)">
     <defs>
      <path id="ArialMT-50" d="M 494 0 
L 494 4581 
L 2222 4581 
Q 2678 4581 2919 4538 
Q 3256 4481 3484 4323 
Q 3713 4166 3852 3881 
Q 3991 3597 3991 3256 
Q 3991 2672 3619 2267 
Q 3247 1863 2275 1863 
L 1100 1863 
L 1100 0 
L 494 0 
z
M 1100 2403 
L 2284 2403 
Q 2872 2403 3119 2622 
Q 3366 2841 3366 3238 
Q 3366 3525 3220 3729 
Q 3075 3934 2838 4000 
Q 2684 4041 2272 4041 
L 1100 4041 
L 1100 2403 
z
" transform="scale(0.015625)"/>
      <path id="ArialMT-f3" d="M 213 1659 
Q 213 2581 725 3025 
Q 1153 3394 1769 3394 
Q 2453 3394 2887 2945 
Q 3322 2497 3322 1706 
Q 3322 1066 3130 698 
Q 2938 331 2570 128 
Q 2203 -75 1769 -75 
Q 1072 -75 642 372 
Q 213 819 213 1659 
z
M 791 1659 
Q 791 1022 1069 705 
Q 1347 388 1769 388 
Q 2188 388 2466 706 
Q 2744 1025 2744 1678 
Q 2744 2294 2464 2611 
Q 2184 2928 1769 2928 
Q 1347 2928 1069 2612 
Q 791 2297 791 1659 
z
M 1454 3731 
L 1869 4606 
L 2607 4606 
L 1919 3731 
L 1454 3731 
z
" transform="scale(0.015625)"/>
      <path id="ArialMT-73" d="M 197 991 
L 753 1078 
Q 800 744 1014 566 
Q 1228 388 1613 388 
Q 2000 388 2187 545 
Q 2375 703 2375 916 
Q 2375 1106 2209 1216 
Q 2094 1291 1634 1406 
Q 1016 1563 777 1677 
Q 538 1791 414 1992 
Q 291 2194 291 2438 
Q 291 2659 392 2848 
Q 494 3038 669 3163 
Q 800 3259 1026 3326 
Q 1253 3394 1513 3394 
Q 1903 3394 2198 3281 
Q 2494 3169 2634 2976 
Q 2775 2784 2828 2463 
L 2278 2388 
Q 2241 2644 2061 2787 
Q 1881 2931 1553 2931 
Q 1166 2931 1000 2803 
Q 834 2675 834 2503 
Q 834 2394 903 2306 
Q 972 2216 1119 2156 
Q 1203 2125 1616 2013 
Q 2213 1853 2448 1751 
Q 2684 1650 2818 1456 
Q 2953 1263 2953 975 
Q 2953 694 2789 445 
Q 2625 197 2315 61 
Q 2006 -75 1616 -75 
Q 969 -75 630 194 
Q 291 463 197 991 
z
" transform="scale(0.015625)"/>
      <path id="ArialMT-69" d="M 425 3934 
L 425 4581 
L 988 4581 
L 988 3934 
L 425 3934 
z
M 425 0 
L 425 3319 
L 988 3319 
L 988 0 
L 425 0 
z
" transform="scale(0.015625)"/>
      <path id="ArialMT-20" transform="scale(0.015625)"/>
      <path id="ArialMT-52" d="M 503 0 
L 503 4581 
L 2534 4581 
Q 3147 4581 3465 4457 
Q 3784 4334 3975 4021 
Q 4166 3709 4166 3331 
Q 4166 2844 3850 2509 
Q 3534 2175 2875 2084 
Q 3116 1969 3241 1856 
Q 3506 1613 3744 1247 
L 4541 0 
L 3778 0 
L 3172 953 
Q 2906 1366 2734 1584 
Q 2563 1803 2427 1890 
Q 2291 1978 2150 2013 
Q 2047 2034 1813 2034 
L 1109 2034 
L 1109 0 
L 503 0 
z
M 1109 2559 
L 2413 2559 
Q 2828 2559 3062 2645 
Q 3297 2731 3419 2920 
Q 3541 3109 3541 3331 
Q 3541 3656 3305 3865 
Q 3069 4075 2559 4075 
L 1109 4075 
L 1109 2559 
z
" transform="scale(0.015625)"/>
      <path id="ArialMT-49" d="M 597 0 
L 597 4581 
L 1203 4581 
L 1203 0 
L 597 0 
z
" transform="scale(0.015625)"/>
      <path id="ArialMT-58" d="M 28 0 
L 1800 2388 
L 238 4581 
L 959 4581 
L 1791 3406 
Q 2050 3041 2159 2844 
Q 2313 3094 2522 3366 
L 3444 4581 
L 4103 4581 
L 2494 2422 
L 4228 0 
L 3478 0 
L 2325 1634 
Q 2228 1775 2125 1941 
Q 1972 1691 1906 1597 
L 756 0 
L 28 0 
z
" transform="scale(0.015625)"/>
     </defs>
     <use xlink:href="#ArialMT-50"/>
     <use xlink:href="#ArialMT-72" x="66.699219"/>
     <use xlink:href="#ArialMT-6f" x="100"/>
     <use xlink:href="#ArialMT-6e" x="155.615234"/>
     <use xlink:href="#ArialMT-f3" x="211.230469"/>
     <use xlink:href="#ArialMT-73" x="266.845703"/>
     <use xlink:href="#ArialMT-74" x="316.845703"/>
     <use xlink:href="#ArialMT-69" x="344.628906"/>
     <use xlink:href="#ArialMT-63" x="366.845703"/>
     <use xlink:href="#ArialMT-6f" x="416.845703"/>
     <use xlink:href="#ArialMT-20" x="472.460938"/>
     <use xlink:href="#ArialMT-63" x="500.244141"/>
     <use xlink:href="#ArialMT-6f" x="550.244141"/>
     <use xlink:href="#ArialMT-6e" x="605.859375"/>
     <use xlink:href="#ArialMT-20" x="661.474609"/>
     <use xlink:href="#ArialMT-53" x="689.257812"/>
     <use xlink:href="#ArialMT-41" x="755.957031"/>
     <use xlink:href="#ArialMT-52" x="822.65625"/>
     <use xlink:href="#ArialMT-49" x="894.873047"/>
     <use xlink:href="#ArialMT-4d" x="922.65625"/>
     <use xlink:href="#ArialMT-41" x="1005.957031"/>
     <use xlink:href="#ArialMT-58" x="1072.65625"/>
    </g>
   </g>
   <g id="legend_1">
    <g id="patch_7">
     <path d="M 421.134844 77.268906 
L 591.468125 77.268906 
Q 593.668125 77.268906 593.668125 75.068906 
L 593.668125 29.489375 
Q 593.668125 27.289375 591.468125 27.289375 
L 421.134844 27.289375 
Q 418.934844 27.289375 418.934844 29.489375 
L 418.934844 75.068906 
Q 418.934844 77.268906 421.134844 77.268906 
z
" style="fill: #ffffff; opacity: 0.8; stroke: #cccccc; stroke-linejoin: miter"/>
    </g>
    <g id="line2d_89">
     <path d="M 423.334844 35.712969 
L 434.334844 35.712969 
L 445.334844 35.712969 
" style="fill: none; stroke: #4c72b0; stroke-width: 1.5; stroke-linecap: round"/>
    </g>
    <g id="text_87">
     <!-- Observado -->
     <g style="fill: #262626" transform="translate(454.134844 39.562969) scale(0.11 -0.11)">
      <defs>
       <path id="ArialMT-64" d="M 2575 0 
L 2575 419 
Q 2259 -75 1647 -75 
Q 1250 -75 917 144 
Q 584 363 401 755 
Q 219 1147 219 1656 
Q 219 2153 384 2558 
Q 550 2963 881 3178 
Q 1213 3394 1622 3394 
Q 1922 3394 2156 3267 
Q 2391 3141 2538 2938 
L 2538 4581 
L 3097 4581 
L 3097 0 
L 2575 0 
z
M 797 1656 
Q 797 1019 1065 703 
Q 1334 388 1700 388 
Q 2069 388 2326 689 
Q 2584 991 2584 1609 
Q 2584 2291 2321 2609 
Q 2059 2928 1675 2928 
Q 1300 2928 1048 2622 
Q 797 2316 797 1656 
z
" transform="scale(0.015625)"/>
      </defs>
      <use xlink:href="#ArialMT-4f"/>
      <use xlink:href="#ArialMT-62" x="77.783203"/>
      <use xlink:href="#ArialMT-73" x="133.398438"/>
      <use xlink:href="#ArialMT-65" x="183.398438"/>
      <use xlink:href="#ArialMT-72" x="239.013672"/>
      <use xlink:href="#ArialMT-76" x="272.314453"/>
      <use xlink:href="#ArialMT-61" x="322.314453"/>
      <use xlink:href="#ArialMT-64" x="377.929688"/>
      <use xlink:href="#ArialMT-6f" x="433.544922"/>
     </g>
    </g>
    <g id="line2d_90">
     <path d="M 423.334844 51.272812 
L 434.334844 51.272812 
L 445.334844 51.272812 
" style="fill: none; stroke: #ff0000; stroke-width: 1.5; stroke-linecap: round"/>
    </g>
    <g id="text_88">
     <!-- Pronstico -->
     <g style="fill: #262626" transform="translate(454.134844 55.122812) scale(0.11 -0.11)">
      <use xlink:href="#ArialMT-50"/>
      <use xlink:href="#ArialMT-72" x="66.699219"/>
      <use xlink:href="#ArialMT-6f" x="100"/>
      <use xlink:href="#ArialMT-6e" x="155.615234"/>
      <use xlink:href="#ArialMT-f3" x="211.230469"/>
      <use xlink:href="#ArialMT-73" x="266.845703"/>
      <use xlink:href="#ArialMT-74" x="316.845703"/>
      <use xlink:href="#ArialMT-69" x="344.628906"/>
      <use xlink:href="#ArialMT-63" x="366.845703"/>
      <use xlink:href="#ArialMT-6f" x="416.845703"/>
     </g>
    </g>
    <g id="patch_8">
     <path d="M 423.334844 70.682656 
L 445.334844 70.682656 
L 445.334844 62.982656 
L 423.334844 62.982656 
z
" style="fill: #ffc0cb; fill-opacity: 0.3; stroke: #ffc0cb; stroke-opacity: 0.3; stroke-linejoin: miter"/>
    </g>
    <g id="text_89">
     <!-- Intervalo de Confianza 95% -->
     <g style="fill: #262626" transform="translate(454.134844 70.682656) scale(0.11 -0.11)">
      <defs>
       <path id="ArialMT-43" d="M 3763 1606 
L 4369 1453 
Q 4178 706 3683 314 
Q 3188 -78 2472 -78 
Q 1731 -78 1267 223 
Q 803 525 561 1097 
Q 319 1669 319 2325 
Q 319 3041 592 3573 
Q 866 4106 1370 4382 
Q 1875 4659 2481 4659 
Q 3169 4659 3637 4309 
Q 4106 3959 4291 3325 
L 3694 3184 
Q 3534 3684 3231 3912 
Q 2928 4141 2469 4141 
Q 1941 4141 1586 3887 
Q 1231 3634 1087 3207 
Q 944 2781 944 2328 
Q 944 1744 1114 1308 
Q 1284 872 1643 656 
Q 2003 441 2422 441 
Q 2931 441 3284 734 
Q 3638 1028 3763 1606 
z
" transform="scale(0.015625)"/>
       <path id="ArialMT-66" d="M 556 0 
L 556 2881 
L 59 2881 
L 59 3319 
L 556 3319 
L 556 3672 
Q 556 4006 616 4169 
Q 697 4388 901 4523 
Q 1106 4659 1475 4659 
Q 1713 4659 2000 4603 
L 1916 4113 
Q 1741 4144 1584 4144 
Q 1328 4144 1222 4034 
Q 1116 3925 1116 3625 
L 1116 3319 
L 1763 3319 
L 1763 2881 
L 1116 2881 
L 1116 0 
L 556 0 
z
" transform="scale(0.015625)"/>
       <path id="ArialMT-7a" d="M 125 0 
L 125 456 
L 2238 2881 
Q 1878 2863 1603 2863 
L 250 2863 
L 250 3319 
L 2963 3319 
L 2963 2947 
L 1166 841 
L 819 456 
Q 1197 484 1528 484 
L 3063 484 
L 3063 0 
L 125 0 
z
" transform="scale(0.015625)"/>
       <path id="ArialMT-39" d="M 350 1059 
L 891 1109 
Q 959 728 1153 556 
Q 1347 384 1650 384 
Q 1909 384 2104 503 
Q 2300 622 2425 820 
Q 2550 1019 2634 1356 
Q 2719 1694 2719 2044 
Q 2719 2081 2716 2156 
Q 2547 1888 2255 1720 
Q 1963 1553 1622 1553 
Q 1053 1553 659 1965 
Q 266 2378 266 3053 
Q 266 3750 677 4175 
Q 1088 4600 1706 4600 
Q 2153 4600 2523 4359 
Q 2894 4119 3086 3673 
Q 3278 3228 3278 2384 
Q 3278 1506 3087 986 
Q 2897 466 2520 194 
Q 2144 -78 1638 -78 
Q 1100 -78 759 220 
Q 419 519 350 1059 
z
M 2653 3081 
Q 2653 3566 2395 3850 
Q 2138 4134 1775 4134 
Q 1400 4134 1122 3828 
Q 844 3522 844 3034 
Q 844 2597 1108 2323 
Q 1372 2050 1759 2050 
Q 2150 2050 2401 2323 
Q 2653 2597 2653 3081 
z
" transform="scale(0.015625)"/>
       <path id="ArialMT-25" d="M 372 3481 
Q 372 3972 619 4315 
Q 866 4659 1334 4659 
Q 1766 4659 2048 4351 
Q 2331 4044 2331 3447 
Q 2331 2866 2045 2552 
Q 1759 2238 1341 2238 
Q 925 2238 648 2547 
Q 372 2856 372 3481 
z
M 1350 4272 
Q 1141 4272 1002 4090 
Q 863 3909 863 3425 
Q 863 2984 1003 2804 
Q 1144 2625 1350 2625 
Q 1563 2625 1702 2806 
Q 1841 2988 1841 3469 
Q 1841 3913 1700 4092 
Q 1559 4272 1350 4272 
z
M 1353 -169 
L 3859 4659 
L 4316 4659 
L 1819 -169 
L 1353 -169 
z
M 3334 1075 
Q 3334 1569 3581 1911 
Q 3828 2253 4300 2253 
Q 4731 2253 5014 1945 
Q 5297 1638 5297 1041 
Q 5297 459 5011 145 
Q 4725 -169 4303 -169 
Q 3888 -169 3611 142 
Q 3334 453 3334 1075 
z
M 4316 1866 
Q 4103 1866 3964 1684 
Q 3825 1503 3825 1019 
Q 3825 581 3965 400 
Q 4106 219 4313 219 
Q 4528 219 4667 400 
Q 4806 581 4806 1063 
Q 4806 1506 4665 1686 
Q 4525 1866 4316 1866 
z
" transform="scale(0.015625)"/>
      </defs>
      <use xlink:href="#ArialMT-49"/>
      <use xlink:href="#ArialMT-6e" x="27.783203"/>
      <use xlink:href="#ArialMT-74" x="83.398438"/>
      <use xlink:href="#ArialMT-65" x="111.181641"/>
      <use xlink:href="#ArialMT-72" x="166.796875"/>
      <use xlink:href="#ArialMT-76" x="200.097656"/>
      <use xlink:href="#ArialMT-61" x="250.097656"/>
      <use xlink:href="#ArialMT-6c" x="305.712891"/>
      <use xlink:href="#ArialMT-6f" x="327.929688"/>
      <use xlink:href="#ArialMT-20" x="383.544922"/>
      <use xlink:href="#ArialMT-64" x="411.328125"/>
      <use xlink:href="#ArialMT-65" x="466.943359"/>
      <use xlink:href="#ArialMT-20" x="522.558594"/>
      <use xlink:href="#ArialMT-43" x="550.341797"/>
      <use xlink:href="#ArialMT-6f" x="622.558594"/>
      <use xlink:href="#ArialMT-6e" x="678.173828"/>
      <use xlink:href="#ArialMT-66" x="733.789062"/>
      <use xlink:href="#ArialMT-69" x="761.572266"/>
      <use xlink:href="#ArialMT-61" x="783.789062"/>
      <use xlink:href="#ArialMT-6e" x="839.404297"/>
      <use xlink:href="#ArialMT-7a" x="895.019531"/>
      <use xlink:href="#ArialMT-61" x="945.019531"/>
      <use xlink:href="#ArialMT-20" x="1000.634766"/>
      <use xlink:href="#ArialMT-39" x="1028.417969"/>
      <use xlink:href="#ArialMT-35" x="1084.033203"/>
      <use xlink:href="#ArialMT-25" x="1139.648438"/>
     </g>
    </g>
   </g>
  </g>
 </g>
 <defs>
  <clipPath id="pe179880502">
   <rect x="41.168125" y="21.789375" width="558" height="332.64"/>
  </clipPath>
 </defs>
</svg>
